<?xml version="1.0" encoding="UTF-8" standalone="no"?>
<!DOCTYPE svg PUBLIC "-//W3C//DTD SVG 1.1//EN" "http://www.w3.org/Graphics/SVG/1.1/DTD/svg11.dtd" >
<svg xmlns="http://www.w3.org/2000/svg">
<metadata>
Generated by SVGconv.
Copyright   : Copyright (c) 2018 ParaType Inc., ParaType Ltd. All rights reserved.
Designer    : ParaType Ltd
Foundry     : ParaType Ltd
Foundry URL : http://www.paratype.com
</metadata>
<defs>
<font id="SBSansCondMono-Regular" horiz-adv-x="518" >
<font-face units-per-em="1000" ascent="1000" descent="263" >
<font-face-src>
<font-face-name/>
</font-face-src>
</font-face>
<missing-glyph horiz-adv-x="500" />
<glyph unicode="&#13;" horiz-adv-x="520" />
<glyph unicode="&#32;" horiz-adv-x="520" />
<glyph unicode="&#33;" horiz-adv-x="520" d="M215 700h90v-470h-90zM188 61q0 30 15 50.5q15 20.5 57 20.5q42 0 57.5 -20.5q15.5 -20.5 15.5 -50.5q0 -29 -15.5 -50q-15.5 -21 -57.5 -21q-41 0 -56.5 21t-15.5 50z" />
<glyph unicode="&#34;" horiz-adv-x="520" d="M133 700h84v-270h-84zM303 700h84v-270l-84 0z" />
<glyph unicode="&#35;" horiz-adv-x="520" d="M39 0l55 188h-74l26 75h70l53 182h-83l26 75h79l53 180h77l-53 -180h86l53 180h77l-53 -180h69l-26 -75h-65l-53 -182h79l-26 -75h-75l-55 -188h-77l55 188h-86l-55 -188zM332 445h-86l-53 -182l86 0z" />
<glyph unicode="&#36;" horiz-adv-x="520" d="M374 203q0 41 -22.5 65.5q-22.5 24.5 -56.5 42q-34 17.5 -73.5 32.5q-39.5 15 -73.5 36q-34 21 -56.5 52.5q-22.5 31.5 -22.5 83.5q0 151 155 172l0 113h68v-109q44 -2 80.5 -11q36.5 -9 63.5 -25l0 -110q-27 28 -71 46q-44 18 -89 18q-65 0 -90.5 -22.5q-25.5 -22.5 -25.5 -70.5q0 -34 23 -54.5q23 -20.5 57 -36q34 -15.5 74 -30.5q40 -15 74 -38.5q34 -23.5 57 -60q23 -36.5 23 -94.5q0 -84 -42 -131.5q-42 -47.5 -134 -56.5l0 -114h-68v112q-48 4 -91 19q-43 15 -69 38l0 122q13 -18 32 -35.5q19 -17.5 42.5 -31q23.5 -13.5 51 -22q27.5 -8.5 58.5 -8.5q126 0 126 109z" />
<glyph unicode="&#37;" horiz-adv-x="520" d="M91 0h-86l425 700h85zM14 547q0 85 30 124q30 39 84 39q26 0 48 -9q22 -9 37.5 -28.5q15.5 -19.5 24 -50.5q8.5 -31 8.5 -75q0 -90 -30.5 -127.5q-30.5 -37.5 -81.5 -37.5q-57 0 -88.5 37.5q-31.5 37.5 -31.5 127.5zt0 0zM86 547q0 -54 12 -73.5q12 -19.5 35 -19.5q10 0 17.5 3.5q7.5 3.5 13 14q5.5 10.5 8.5 28.5q3 18 3 47q0 51 -10.5 71q-10.5 20 -33.5 20q-23 0 -34 -20q-11 -20 -11 -71zt0 0zM274 155q0 85 30 124q30 39 84 39q26 0 48 -9q22 -9 37.5 -28.5q15.5 -19.5 24 -50.5q8.5 -31 8.5 -75q0 -90 -30.5 -127.5q-30.5 -37.5 -81.5 -37.5q-57 0 -88.5 37.5q-31.5 37.5 -31.5 127.5zt0 0zM346 155q0 -54 12 -73.5q12 -19.5 35 -19.5q10 0 17.5 3.5q7.5 3.5 13 14q5.5 10.5 8.5 28.5q3 18 3 47q0 51 -10.5 71q-10.5 20 -33.5 20q-23 0 -34 -20t-11 -71z" />
<glyph unicode="&#38;" horiz-adv-x="520" d="M517 -15q-40 7 -75 21.5q-35 14.5 -66 34.5q-30 -24 -66.5 -37.5q-36.5 -13.5 -78.5 -13.5q-43 0 -81.5 12q-38.5 12 -67 37q-28.5 25 -45 63q-16.5 38 -16.5 91q0 39 10.5 70.5q10.5 31.5 28 57q17.5 25.5 40.5 45.5q23 20 48 37q-9 38 -13.5 70.5q-4.5 32.5 -4.5 58.5q0 78 38.5 128q38.5 50 115.5 50q29 0 54 -9.5q25 -9.5 43 -26.5q18 -17 28.5 -41q10.5 -24 10.5 -53q0 -44 -16 -75q-16 -31 -41 -54q-25 -23 -57 -41q-32 -18 -63 -36q19 -58 50 -117q31 -59 77 -102q29 45 41.5 103.5q12.5 58.5 1.5 120.5l86 0q10 -70 -6.5 -142q-16.5 -72 -55.5 -130q18 -8 38 -13.5q20 -5.5 42 -7.5zM232 73q42 0 79 23q-49 49 -83.5 109.5q-34.5 60.5 -56.5 121.5q-28 -23 -45 -54.5q-17 -31.5 -17 -76.5q0 -63 35 -93q35 -30 88 -30zt0 0zM213 531q0 -15 2.5 -36q2.5 -21 7.5 -47q23 13 43.5 26q20.5 13 36 26.5q15.5 13.5 24.5 29q9 15.5 9 34.5q0 30 -14.5 49q-14.5 19 -44.5 19q-29 0 -46.5 -24.5t-17.5 -76.5z" />
<glyph unicode="&#39;" horiz-adv-x="520" d="M218 700h84v-270l-84 0z" />
<glyph unicode="&#40;" horiz-adv-x="520" d="M355 -186q-13 9 -44.5 39q-31.5 30 -64.5 84.5q-33 54.5 -58 134.5q-25 80 -25 188q0 95 23 172q23 77 54.5 134q31.5 57 63.5 92.5q32 35.5 50 48.5l44 -34q-12 -14 -37 -45.5q-25 -31.5 -50 -82q-25 -50.5 -44 -122q-19 -71.5 -19 -166.5q0 -93 18.5 -163.5q18.5 -70.5 43 -120.5q24.5 -50 49 -80.5q24.5 -30.5 36.5 -43.5z" />
<glyph unicode="&#41;" horiz-adv-x="520" d="M126 -151q12 13 36.5 43.5q24.5 30.5 49 80.5q24.5 50 43 120.5q18.5 70.5 18.5 163.5q0 95 -19 166.5q-19 71.5 -44 122q-25 50.5 -50 82q-25 31.5 -37 45.5l44 34q18 -13 50 -48.5q32 -35.5 63.5 -92.5q31.5 -57 54.5 -134q23 -77 23 -172q0 -108 -25 -188q-25 -80 -58 -134.5q-33 -54.5 -64.5 -84.5q-31.5 -30 -44.5 -39z" />
<glyph unicode="&#42;" horiz-adv-x="520" d="M108 368l101 118l-151 35l28 85l143 -61l-14 155h90l-14 -155l144 61l27 -85l-151 -35l102 -118l-73 -52l-80 133l-80 -133z" />
<glyph unicode="&#43;" horiz-adv-x="520" d="M302 116h-84v168h-168v79h168v168h84v-168h168v-79l-168 0z" />
<glyph unicode="&#44;" horiz-adv-x="520" d="M138 -102q51 5 81.5 31q30.5 26 38.5 62q-33 0 -50.5 14q-17.5 14 -17.5 49q0 27 16 46q16 19 49 19q38 0 57.5 -24q19.5 -24 19.5 -69q0 -43 -14 -76q-14 -33 -36 -56q-22 -23 -47.5 -37q-25.5 -14 -47.5 -18z" />
<glyph unicode="&#45;" horiz-adv-x="520" d="M127 337h267v-84l-267 0z" />
<glyph unicode="&#46;" horiz-adv-x="520" d="M188 61q0 30 15 50.5q15 20.5 57 20.5q42 0 57.5 -20.5q15.5 -20.5 15.5 -50.5q0 -29 -15.5 -50q-15.5 -21 -57.5 -21q-41 0 -56.5 21t-15.5 50z" />
<glyph unicode="&#47;" horiz-adv-x="520" d="M386 700h80l-331 -860l-80 0z" />
<glyph unicode="&#48;" horiz-adv-x="520" d="M53 349q0 100 13 168.5q13 68.5 39.5 111q26.5 42.5 67 61q40.5 18.5 95.5 18.5q54 0 92 -20.5q38 -20.5 61.5 -64q23.5 -43.5 34.5 -111.5q11 -68 11 -163q0 -105 -13 -174q-13 -69 -39 -110q-26 -41 -64.5 -58q-38.5 -17 -89.5 -17q-109 0 -158.5 88q-49.5 88 -49.5 271zt0 0zM145 349q0 -118 16 -181l167 439q-12 11 -29 16q-17 5 -38 5q-33 0 -55.5 -13.5q-22.5 -13.5 -36 -45.5q-13.5 -32 -19 -85.5q-5.5 -53.5 -5.5 -134.5zt0 0zM376 346q0 127 -13 189l-168 -438q24 -27 69 -27q31 0 52 12.5q21 12.5 34.5 43.5q13.5 31 19.5 84.5t6 135.5z" />
<glyph unicode="&#49;" horiz-adv-x="520" d="M75 84h182v515l-182 -102v88l209 122h62v-623h125v-84l-396 0z" />
<glyph unicode="&#50;" horiz-adv-x="520" d="M54 60q71 82 126.5 144q55.5 62 93.5 112q38 50 58 92q20 42 20 84q0 68 -30.5 98q-30.5 30 -94.5 30q-50 0 -89 -18.5q-39 -18.5 -74 -46.5l0 107q32 20 78.5 33q46.5 13 94.5 13q101 0 157 -52q56 -52 56 -148q0 -50 -18.5 -96.5q-18.5 -46.5 -52 -96q-33.5 -49.5 -81.5 -105.5q-48 -56 -108 -125l268 0v-85l-404 0z" />
<glyph unicode="&#51;" horiz-adv-x="520" d="M163 395h49q71 0 100.5 31.5q29.5 31.5 29.5 94.5q0 25 -5 43.5q-5 18.5 -17.5 31q-12.5 12.5 -34 18.5q-21.5 6 -55.5 6q-53 0 -95 -20q-42 -20 -71 -41l0 98q30 20 77 34.5q47 14.5 107 14.5q88 0 136.5 -39q48.5 -39 49.5 -130q1 -67 -27 -108.5q-28 -41.5 -90 -61.5q69 -6 106.5 -47q37.5 -41 37.5 -117q0 -103 -51 -157q-51 -54 -163 -54q-65 0 -113 14q-48 14 -76 34l0 114q27 -26 74 -48.5q47 -22.5 106 -22.5q73 0 101.5 29.5q28.5 29.5 28.5 91.5q0 26 -7 46.5q-7 20.5 -24 35q-17 14.5 -46.5 22.5q-29.5 8 -74.5 8l-53 0z" />
<glyph unicode="&#52;" horiz-adv-x="520" d="M39 250l255 450h114v-425h81v-85h-81v-190h-89v190h-280zM319 588l-174 -313l174 0z" />
<glyph unicode="&#53;" horiz-adv-x="520" d="M105 700h333v-84h-261l-13 -178q19 1 40 1.5q21 0.5 49 0.5q58 0 97 -14.5q39 -14.5 62.5 -41.5q23.5 -27 33.5 -66.5q10 -39.5 10 -89.5q0 -57 -12 -101q-12 -44 -39 -74q-27 -30 -69.5 -45.5q-42.5 -15.5 -103.5 -15.5q-41 0 -85 7q-44 7 -76 23l0 105q13 -10 31.5 -18.5q18.5 -8.5 39 -14.5q20.5 -6 42 -9q21.5 -3 39.5 -3q80 0 110 35.5q30 35.5 30 103.5q0 36 -6 62.5q-6 26.5 -22.5 43q-16.5 16.5 -46 24.5q-29.5 8 -75.5 8q-37 0 -74 -2q-37 -2 -59 -6z" />
<glyph unicode="&#54;" horiz-adv-x="520" d="M273 -8q-65 0 -110 21.5q-45 21.5 -73 63.5q-28 42 -40.5 103q-12.5 61 -12.5 140q0 109 19.5 183q19.5 74 56 119.5q36.5 45.5 88.5 65.5q52 20 116 20q32 0 63 -5.5q31 -5.5 54 -15.5l0 -101q-20 13 -48 22.5q-28 9.5 -79 9.5q-41 0 -75 -15q-34 -15 -59.5 -47.5q-25.5 -32.5 -39.5 -84q-14 -51.5 -14 -125.5q0 -11 0.5 -18.5q0.5 -7.5 1.5 -12.5q24 66 66 102.5q42 36.5 114 36.5q47 0 81 -17q34 -17 56.5 -45.5q22.5 -28.5 33.5 -66.5q11 -38 11 -80q0 -67 -16 -115q-16 -48 -44.5 -78.5q-28.5 -30.5 -66.5 -45q-38 -14.5 -83 -14.5zt0 0zM137 247q-1 -76 33 -120q34 -44 103 -44q53 0 86 35.5q33 35.5 33 109.5q0 69 -27.5 106q-27.5 37 -91.5 37q-33 0 -56 -11q-23 -11 -39 -29q-16 -18 -25.5 -40t-15.5 -44z" />
<glyph unicode="&#55;" horiz-adv-x="520" d="M372 606h-325v94h433v-61l-245 -639l-99 0z" />
<glyph unicode="&#56;" horiz-adv-x="520" d="M40 199q0 22 5 47.5q5 25.5 18.5 50q13.5 24.5 36.5 45q23 20.5 60 32.5q-55 19 -78 57q-23 38 -23 93q0 43 11 77.5q11 34.5 35.5 59q24.5 24.5 63 37.5q38.5 13 93.5 13q54 0 91 -12.5q37 -12.5 60.5 -34.5q23.5 -22 34 -52q10.5 -30 10.5 -65q0 -27 -4 -53q-4 -26 -14.5 -48.5q-10.5 -22.5 -30.5 -41q-20 -18.5 -51 -29.5q35 -10 58.5 -26q23.5 -16 38 -37.5q14.5 -21.5 20.5 -48.5q6 -27 6 -58q0 -47 -10.5 -86q-10.5 -39 -36 -67.5q-25.5 -28.5 -67.5 -44q-42 -15.5 -105 -15.5q-60 0 -102 14.5q-42 14.5 -69 41q-27 26.5 -39 65q-12 38.5 -12 86.5zt0 0zM133 213q0 -69 35 -100.5q35 -31.5 95 -31.5q69 0 98 33.5q29 33.5 29 97.5q0 62 -33.5 91q-33.5 29 -94.5 29q-64 0 -96.5 -32q-32.5 -32 -32.5 -87zt0 0zM147 512q0 -46 27 -78q27 -32 86 -32q59 0 84.5 31q25.5 31 25.5 81q0 57 -24.5 82.5q-24.5 25.5 -85.5 25.5q-62 0 -87.5 -27.5t-25.5 -82.5z" />
<glyph unicode="&#57;" horiz-adv-x="520" d="M250 708q64 0 108 -21.5q44 -21.5 72 -63.5q28 -42 40.5 -103q12.5 -61 12.5 -140q0 -109 -19.5 -183q-19.5 -74 -56 -119.5q-36.5 -45.5 -88.5 -65.5q-52 -20 -116 -20q-32 0 -63 5.5q-31 5.5 -54 15.5l0 101q20 -13 48 -22.5q28 -9.5 79 -9.5q40 0 74.5 15q34.5 15 60 47.5q25.5 32.5 39.5 84q14 51.5 14 125.5q0 10 -0.5 18q-0.5 8 -1.5 13q-23 -67 -62.5 -103q-39.5 -36 -110.5 -36q-47 0 -82 17q-35 17 -59 45.5q-24 28.5 -36 66.5q-12 38 -12 80q0 67 16 114.5q16 47.5 44.5 78.5q28.5 31 67.5 45.5q39 14.5 85 14.5zt0 0zM384 462q-2 69 -35 112.5q-33 43.5 -101 42.5q-54 -1 -86 -36q-32 -35 -34 -109q-1 -69 30 -106q31 -37 93 -37q32 0 55 11q23 11 39 29.5q16 18.5 25 42.5t14 50z" />
<glyph unicode="&#58;" horiz-adv-x="520" d="M188 61q0 30 15 50.5q15 20.5 57 20.5q42 0 57.5 -20.5q15.5 -20.5 15.5 -50.5q0 -29 -15.5 -50q-15.5 -21 -57.5 -21q-41 0 -56.5 21q-15.5 21 -15.5 50zt0 0zM188 433q0 30 15 50.5q15 20.5 57 20.5q42 0 57.5 -20.5q15.5 -20.5 15.5 -50.5q0 -29 -15.5 -50q-15.5 -21 -57.5 -21q-41 0 -56.5 21t-15.5 50z" />
<glyph unicode="&#59;" horiz-adv-x="520" d="M188 432q0 30 15 50.5q15 20.5 57 20.5q42 0 57.5 -20.5q15.5 -20.5 15.5 -50.5q0 -29 -15.5 -50q-15.5 -21 -57.5 -21q-41 0 -56.5 21q-15.5 21 -15.5 50zt0 0zM138 -102q51 5 81.5 31q30.5 26 38.5 62q-33 0 -50.5 14q-17.5 14 -17.5 49q0 27 16 46q16 19 49 19q38 0 57.5 -24q19.5 -24 19.5 -69q0 -43 -14 -76q-14 -33 -36 -56q-22 -23 -47.5 -37q-25.5 -14 -47.5 -18z" />
<glyph unicode="&#60;" horiz-adv-x="520" d="M468 87l-415 174v70l415 173v-84l-316 -123v-2l316 -123z" />
<glyph unicode="&#61;" horiz-adv-x="520" d="M57 497h407v-84h-407zM57 287h407v-84l-407 0z" />
<glyph unicode="&#62;" horiz-adv-x="520" d="M468 261l-415 -174v85l315 123v2l-315 123v84l415 -173z" />
<glyph unicode="&#63;" horiz-adv-x="520" d="M162 231q0 42 13 69.5q13 27.5 33 47q20 19.5 42.5 35q22.5 15.5 42.5 33.5q20 18 33 42q13 24 13 61q0 48 -29.5 78q-29.5 30 -87.5 30q-45 0 -76.5 -12.5q-31.5 -12.5 -58.5 -31.5l0 99q24 11 61.5 19.5q37.5 8.5 83.5 8.5q94 0 145.5 -44q51.5 -44 51.5 -145q0 -46 -13.5 -78q-13.5 -32 -34.5 -55q-21 -23 -44.5 -40.5q-23.5 -17.5 -44.5 -34q-21 -16.5 -34.5 -36q-13.5 -19.5 -13.5 -46.5zM132 61q0 30 15 50.5q15 20.5 57 20.5q42 0 57.5 -20.5q15.5 -20.5 15.5 -50.5q0 -29 -15.5 -50q-15.5 -21 -57.5 -21q-41 0 -56.5 21t-15.5 50z" />
<glyph unicode="&#64;" horiz-adv-x="520" d="M238 63q-26 0 -44.5 11q-18.5 11 -31.5 37.5q-13 26.5 -19 71q-6 44.5 -6 111.5q0 63 6.5 105.5q6.5 42.5 19.5 69q13 26.5 31 37.5q18 11 42 11q19 0 32.5 -6.5q13.5 -6.5 22.5 -16.5q9 -10 14.5 -23q5.5 -13 9.5 -26l11 61h49v-335q0 -23 8 -33q8 -10 21 -10q10 0 17 7.5q7 7.5 11 28.5q4 21 6 59q2 38 2 99q0 80 -8 140.5q-8 60.5 -28 101.5q-20 41 -53.5 62q-33.5 21 -84.5 21q-53 0 -88.5 -21q-35.5 -21 -57 -64.5q-21.5 -43.5 -31 -111q-9.5 -67.5 -9.5 -160.5q0 -84 9 -151q9 -67 31 -113.5q22 -46.5 60 -71q38 -24.5 97 -24.5q49 0 86.5 18.5q37.5 18.5 64.5 39.5l0 -73q-22 -12 -62 -25.5q-40 -13.5 -89 -13.5q-71 0 -120.5 28.5q-49.5 28.5 -80 82.5q-30.5 54 -44 131q-13.5 77 -13.5 174q0 95 13 170.5q13 75.5 42.5 128.5q29.5 53 77 81q47.5 28 116.5 28q124 0 178.5 -97q54.5 -97 54.5 -281q0 -131 -19.5 -195q-19.5 -64 -76.5 -64q-41 0 -60.5 25q-19.5 25 -24.5 70q-5 -42 -26 -68.5q-21 -26.5 -56 -26.5zt0 0zM207 296q0 -52 3 -85.5q3 -33.5 9 -53q6 -19.5 15.5 -27q9.5 -7.5 22.5 -7.5q23 0 36 38.5q13 38.5 13 110.5v52q0 40 -3.5 65.5q-3.5 25.5 -10 40q-6.5 14.5 -15 20q-8.5 5.5 -17.5 5.5q-12 0 -22 -7.5q-10 -7.5 -17 -25.5q-7 -18 -10.5 -48.5t-3.5 -77.5z" />
<glyph unicode="&#65;" horiz-adv-x="520" d="M363 184h-213l-48 -184h-95l202 700h101l203 -700h-100zM172 268h169l-85 316z" />
<glyph unicode="&#66;" horiz-adv-x="520" d="M50 697q19 1 42 3q23 2 47 3q24 1 47 2q23 1 42 1q64 0 106.5 -10q42.5 -10 68 -31.5q25.5 -21.5 36 -55q10.5 -33.5 10.5 -80.5q0 -125 -102 -162q68 -10 99 -52q31 -42 31 -111q0 -54 -13 -94q-13 -40 -42 -66.5q-29 -26.5 -76 -39q-47 -12.5 -116 -12.5q-48 0 -95.5 3.5q-47.5 3.5 -84.5 8.5zM143 84q22 -5 47.5 -6.5q25.5 -1.5 48.5 -1.5q42 0 69.5 7.5q27.5 7.5 44 23q16.5 15.5 23 39.5q6.5 24 6.5 58q0 66 -36 89.5q-36 23.5 -107 23.5h-96zM244 392q63 0 88 29.5q25 29.5 25 82.5q0 36 -5 59q-5 23 -19 36q-14 13 -38 18q-24 5 -63 5q-22 0 -45 -0.5q-23 -0.5 -44 -2.5l0 -227z" />
<glyph unicode="&#67;" horiz-adv-x="520" d="M462 572q-23 19 -63.5 35q-40.5 16 -93.5 16q-42 0 -73.5 -13.5q-31.5 -13.5 -53 -45q-21.5 -31.5 -32 -82q-10.5 -50.5 -10.5 -123.5q0 -81 11.5 -135q11.5 -54 34 -86.5q22.5 -32.5 55 -46q32.5 -13.5 73.5 -13.5q29 0 54.5 6q25.5 6 47 14.5q21.5 8.5 37.5 17.5q16 9 26 16l0 -97q-21 -14 -64.5 -28.5q-43.5 -14.5 -102.5 -14.5q-69 0 -120 20q-51 20 -84.5 63.5q-33.5 43.5 -49.5 111.5q-16 68 -16 163q0 189 66 273.5q66 84.5 201 84.5q57 0 96 -11.5q39 -11.5 61 -19.5z" />
<glyph unicode="&#68;" horiz-adv-x="520" d="M50 698q19 2 37.5 3.5q18.5 1.5 38.5 3q20 1.5 42.5 2.5q22.5 1 49.5 1q75 0 125.5 -22q50.5 -22 80.5 -66q30 -44 43 -110.5q13 -66.5 13 -156.5q0 -98 -17 -167q-17 -69 -51.5 -112q-34.5 -43 -86 -62.5q-51.5 -19.5 -121.5 -19.5q-53 0 -89.5 4.5q-36.5 4.5 -64.5 8.5zM143 79q14 -1 28.5 -1.5q14.5 -0.5 30.5 -0.5q48 0 82.5 13.5q34.5 13.5 56.5 45q22 31.5 32.5 82q10.5 50.5 10.5 124.5q0 78 -8.5 131.5q-8.5 53.5 -28 86.5q-19.5 33 -51.5 48q-32 15 -80 15q-20 0 -38 -1q-18 -1 -35 -2z" />
<glyph unicode="&#69;" horiz-adv-x="520" d="M60 700h382v-85h-289v-218h271v-84h-271v-228h296v-85l-389 0z" />
<glyph unicode="&#70;" horiz-adv-x="520" d="M61 700h389v-85h-296v-245h284v-85h-284v-285l-93 0z" />
<glyph unicode="&#71;" horiz-adv-x="520" d="M286 353h196v-322q-29 -14 -73.5 -26.5q-44.5 -12.5 -100.5 -12.5q-69 0 -120 20q-51 20 -84.5 63q-33.5 43 -50 111q-16.5 68 -16.5 164q0 186 64.5 272q64.5 86 196.5 86q57 0 94.5 -8.5q37.5 -8.5 58.5 -22.5l0 -99q-27 17 -65.5 31.5q-38.5 14.5 -88.5 14.5q-83 0 -123 -61q-40 -61 -40 -204q0 -81 11 -135.5q11 -54.5 33.5 -87q22.5 -32.5 55.5 -46.5q33 -14 78 -14q26 0 49 4q23 4 40 9l0 181l-115 0z" />
<glyph unicode="&#72;" horiz-adv-x="520" d="M47 700h93v-298h240v298h93v-700h-93v317h-240v-317l-93 0z" />
<glyph unicode="&#73;" horiz-adv-x="520" d="M54 700h413v-85h-161v-530h161v-85h-413v85h159v530l-159 0z" />
<glyph unicode="&#74;" horiz-adv-x="520" d="M362 615h-280v85h373v-449q0 -133 -59.5 -194.5q-59.5 -61.5 -163.5 -61.5q-22 0 -41.5 2q-19.5 2 -40 7q-20.5 5 -42.5 13.5q-22 8.5 -49 22.5l0 92q29 -20 73.5 -36q44.5 -16 92.5 -16q24 0 48.5 7.5q24.5 7.5 44 24q19.5 16.5 32 43.5q12.5 27 12.5 66z" />
<glyph unicode="&#75;" horiz-adv-x="520" d="M140 394h79l169 306h105l-195 -340l222 -360h-107l-194 320h-79v-320h-93v700l93 0z" />
<glyph unicode="&#76;" horiz-adv-x="520" d="M68 700h93v-615h320v-85l-413 0z" />
<glyph unicode="&#77;" horiz-adv-x="520" d="M36 700h117l110 -448l106 448h115v-700h-86v418l9 160l-38 -171l-69 -267h-77l-69 264l-42 174l10 -158v-420l-86 0z" />
<glyph unicode="&#78;" horiz-adv-x="520" d="M47 700h98l244 -534l-3 102v432h87v-700h-99l-245 538l5 -106v-432l-87 0z" />
<glyph unicode="&#79;" horiz-adv-x="520" d="M24 350q0 92 13 160q13 68 42.5 112.5q29.5 44.5 75.5 66q46 21.5 112 21.5q64 0 108 -21.5q44 -21.5 71 -66q27 -44.5 38.5 -112.5q11.5 -68 11.5 -160q0 -98 -14.5 -166q-14.5 -68 -43.5 -111.5q-29 -43.5 -73.5 -63q-44.5 -19.5 -104.5 -19.5q-57 0 -101 19.5q-44 19.5 -74 62q-30 42.5 -45.5 111q-15.5 68.5 -15.5 167.5zt0 0zM122 347q0 -77 9 -129q9 -52 26.5 -83.5q17.5 -31.5 44 -45.5q26.5 -14 61.5 -14q36 0 61.5 14q25.5 14 41.5 45.5q16 31.5 23.5 83.5q7.5 52 7.5 129q0 79 -7.5 132.5q-7.5 53.5 -24 85.5q-16.5 32 -43 46q-26.5 14 -63.5 14q-39 0 -65.5 -17q-26.5 -17 -42.5 -51.5q-16 -34.5 -22.5 -87t-6.5 -122.5z" />
<glyph unicode="&#80;" horiz-adv-x="520" d="M59 694q35 4 75 8q40 4 88 4q71 0 120 -14q49 -14 80 -42.5q31 -28.5 44.5 -71.5q13.5 -43 13.5 -101q0 -134 -60.5 -196q-60.5 -62 -197.5 -62q-17 0 -34.5 1q-17.5 1 -35.5 3l0 -223h-93zM152 306q18 -2 34.5 -3q16.5 -1 35.5 -1q44 0 75 8.5q31 8.5 50 28q19 19.5 27.5 51q8.5 31.5 8.5 78.5q0 43 -8 72.5q-8 29.5 -26.5 47.5q-18.5 18 -48.5 26q-30 8 -75 8q-19 0 -37 -1q-18 -1 -36 -3z" />
<glyph unicode="&#81;" horiz-adv-x="520" d="M24 350q0 92 13 160q13 68 42.5 112.5q29.5 44.5 75.5 66q46 21.5 112 21.5q64 0 108 -21.5q44 -21.5 71 -66q27 -44.5 38.5 -112.5q11.5 -68 11.5 -160q0 -146 -32 -227.5q-32 -81.5 -98 -112.5l119 -170h-110l-99 151q-4 0 -8 -0.5q-4 -0.5 -8 -0.5q-57 0 -101 19.5q-44 19.5 -74 62q-30 42.5 -45.5 111q-15.5 68.5 -15.5 167.5zt0 0zM122 347q0 -77 9 -129q9 -52 26.5 -83.5q17.5 -31.5 44 -45.5q26.5 -14 61.5 -14q36 0 61.5 14q25.5 14 41.5 45.5q16 31.5 23.5 83.5q7.5 52 7.5 129q0 79 -7.5 132.5q-7.5 53.5 -24 85.5q-16.5 32 -43 46q-26.5 14 -63.5 14q-39 0 -65.5 -17q-26.5 -17 -42.5 -51.5q-16 -34.5 -22.5 -87t-6.5 -122.5z" />
<glyph unicode="&#82;" horiz-adv-x="520" d="M54 0v691q37 4 86.5 9.5q49.5 5.5 91.5 5.5q115 0 170 -47.5q55 -47.5 55 -155.5q0 -35 -4.5 -66q-4.5 -31 -17.5 -58q-13 -27 -37.5 -49q-24.5 -22 -63.5 -37l176 -293h-108l-162 278h-93v-278zM226 352q75 0 105 33q30 33 30 106q0 34 -6 58.5q-6 24.5 -21.5 40.5q-15.5 16 -41 23.5q-25.5 7.5 -64.5 7.5q-24 0 -44 -1.5q-20 -1.5 -38 -3.5l0 -264z" />
<glyph unicode="&#83;" horiz-adv-x="520" d="M361 188q0 43 -21.5 69q-21.5 26 -54 45q-32.5 19 -70.5 35.5q-38 16.5 -70.5 40q-32.5 23.5 -54 58.5q-21.5 35 -21.5 92q0 90 50.5 136.5q50.5 46.5 159.5 46.5q97 0 156 -36l0 -110q-27 28 -68.5 45q-41.5 17 -86.5 17q-34 0 -56 -6q-22 -6 -35 -18q-13 -12 -18.5 -30q-5.5 -18 -5.5 -42q0 -41 22 -64.5q22 -23.5 54.5 -40.5q32.5 -17 71 -33q38.5 -16 71 -40.5q32.5 -24.5 54.5 -64q22 -39.5 22 -103.5q0 -92 -51.5 -142.5q-51.5 -50.5 -168.5 -50.5q-53 0 -102.5 15.5q-49.5 15.5 -78.5 41.5l0 122q27 -37 71 -66q44 -29 106 -29q66 0 95.5 28t29.5 84z" />
<glyph unicode="&#84;" horiz-adv-x="520" d="M213 615h-179v85h453v-85h-181v-615l-93 0z" />
<glyph unicode="&#85;" horiz-adv-x="520" d="M47 700h93v-461q0 -53 9 -85.5q9 -32.5 25.5 -50q16.5 -17.5 40.5 -23.5q24 -6 54 -6q24 0 44.5 5q20.5 5 35 21q14.5 16 22.5 46q8 30 8 81v473h94v-470q0 -72 -15.5 -118.5q-15.5 -46.5 -44 -73.5q-28.5 -27 -67.5 -37.5q-39 -10.5 -85 -10.5q-110 0 -162 55q-52 55 -52 178z" />
<glyph unicode="&#86;" horiz-adv-x="520" d="M0 700h102l165 -580l156 580h97l-207 -700l-104 0z" />
<glyph unicode="&#87;" horiz-adv-x="520" d="M8 700h96l26 -367l12 -196l26 196l51 367h90l52 -367l26 -196l11 196l22 367h92l-72 -700h-105l-45 333l-26 226l-28 -226l-46 -333l-108 0z" />
<glyph unicode="&#88;" horiz-adv-x="520" d="M192 355l-181 345h109l140 -278l144 278h105l-186 -338l194 -362h-109l-152 293l-146 -293l-106 0z" />
<glyph unicode="&#89;" horiz-adv-x="520" d="M214 266l-214 434h103l161 -341l154 341h102l-213 -433v-267l-93 0z" />
<glyph unicode="&#90;" horiz-adv-x="520" d="M37 53l319 562h-309v85h432v-54l-319 -561h324v-85l-447 0z" />
<glyph unicode="&#91;" horiz-adv-x="520" d="M403 -100v-80h-246v880h246v-80h-166l0 -720z" />
<glyph unicode="&#92;" horiz-adv-x="520" d="M386 -160l-331 860h80l331 -860z" />
<glyph unicode="&#93;" horiz-adv-x="520" d="M283 -100v720h-166v80h246v-880h-246l0 80z" />
<glyph unicode="&#94;" horiz-adv-x="520" d="M37 351l182 349h79l185 -349h-92l-131 255l-131 -255z" />
<glyph unicode="&#95;" horiz-adv-x="520" d="M30 -76h460v-84l-460 0z" />
<glyph unicode="&#96;" horiz-adv-x="520" d="M309 595h-68l-100 130l107 0z" />
<glyph unicode="&#97;" horiz-adv-x="520" d="M360 76q-17 -36 -55 -61.5q-38 -25.5 -94 -25.5q-75 0 -115.5 41q-40.5 41 -40.5 118q0 81 47.5 121.5q47.5 40.5 155.5 40.5h98v48q0 31 -6.5 51q-6.5 20 -20 31.5q-13.5 11.5 -35.5 16q-22 4.5 -52 4.5q-21 0 -43 -4.5q-22 -4.5 -42 -12.5q-20 -8 -37 -18q-17 -10 -29 -22l0 100q15 9 34.5 16q19.5 7 41 11.5q21.5 4.5 44 7q22.5 2.5 42.5 2.5q51 0 87 -9q36 -9 59.5 -30q23.5 -21 34 -56q10.5 -35 10.5 -87v-359h-79zM145 161q0 -42 21 -65.5q21 -23.5 69 -23.5q63 0 92 37q29 37 29 94v44h-90q-36 0 -59 -6q-23 -6 -37 -17q-14 -11 -19.5 -27t-5.5 -36z" />
<glyph unicode="&#98;" horiz-adv-x="520" d="M64 750h88v-304q8 20 20 37.5q12 17.5 29.5 30q17.5 12.5 41 20q23.5 7.5 55.5 7.5q45 0 79.5 -13.5q34.5 -13.5 58 -45q23.5 -31.5 35 -82q11.5 -50.5 11.5 -124.5q0 -77 -11.5 -131.5q-11.5 -54.5 -35.5 -89q-24 -34.5 -59.5 -50.5q-35.5 -16 -83.5 -16q-58 0 -91.5 21.5q-33.5 21.5 -50.5 58.5l-5 -69h-81zM153 231q0 -83 31.5 -123q31.5 -40 87.5 -40q65 0 93 46.5q28 46.5 28 156.5q0 57 -7.5 93.5q-7.5 36.5 -22.5 58.5q-15 22 -37.5 30.5q-22.5 8.5 -52.5 8.5q-63 0 -91.5 -41.5q-28.5 -41.5 -28.5 -112.5z" />
<glyph unicode="&#99;" horiz-adv-x="520" d="M439 406q-28 20 -64.5 36.5q-36.5 16.5 -78.5 16.5q-35 0 -63.5 -9.5q-28.5 -9.5 -48.5 -31.5q-20 -22 -30.5 -58.5q-10.5 -36.5 -10.5 -90.5q0 -55 10.5 -92.5q10.5 -37.5 31.5 -61q21 -23.5 52.5 -33.5q31.5 -10 73.5 -10q37 0 71.5 15.5q34.5 15.5 60.5 40.5l0 -94q-26 -20 -63 -32.5q-37 -12.5 -83 -12.5q-57 0 -102 15q-45 15 -77 48.5q-32 33.5 -49 88q-17 54.5 -17 134.5q0 137 64.5 201.5q64.5 64.5 180.5 64.5q46 0 80 -11q34 -11 62 -26z" />
<glyph unicode="&#100;" horiz-adv-x="520" d="M369 93q-9 -21 -20.5 -40q-11.5 -19 -28.5 -33.5q-17 -14.5 -40.5 -22.5q-23.5 -8 -55.5 -8q-46 0 -81 14.5q-35 14.5 -58 46.5q-23 32 -35 83.5q-12 51.5 -12 125.5q0 76 12 129.5q12 53.5 35.5 87.5q23.5 34 59.5 49.5q36 15.5 84 15.5q59 0 91 -20.5q32 -20.5 47 -48.5l0 278h88v-750h-81zM250 68q63 0 90 45.5q27 45.5 27 121.5v83q0 66 -27 105.5q-27 39.5 -94 39.5q-31 0 -53.5 -10q-22.5 -10 -37 -33q-14.5 -23 -21.5 -61q-7 -38 -7 -94q0 -107 29.5 -152t93.5 -45z" />
<glyph unicode="&#101;" horiz-adv-x="520" d="M141 235q1 -167 147 -167q46 0 85 17.5q39 17.5 65 41.5l0 -90q-8 -7 -23 -15.5q-15 -8.5 -35 -15.5q-20 -7 -45 -12q-25 -5 -53 -5q-117 0 -173.5 66q-56.5 66 -56.5 219q0 131 55 199q55 68 160 68q56 0 94.5 -18q38.5 -18 62.5 -51q24 -33 34.5 -79.5q10.5 -46.5 10.5 -102.5v-55zM266 463q-60 0 -92.5 -37.5q-32.5 -37.5 -32.5 -117.5l240 0q0 80 -26.5 117.5t-88.5 37.5z" />
<glyph unicode="&#102;" horiz-adv-x="520" d="M50 0v82h121v336h-121v82h122v60q0 56 13.5 93.5q13.5 37.5 38 60.5q24.5 23 57.5 32.5q33 9.5 72 9.5q32 0 62.5 -2q30.5 -2 62.5 -7l0 -90q-30 8 -59 13q-29 5 -59 5q-23 0 -41.5 -5.5q-18.5 -5.5 -32 -19.5q-13.5 -14 -20.5 -39q-7 -25 -7 -64v-47h217v-82h-218v-336h218l0 -82z" />
<glyph unicode="&#103;" horiz-adv-x="520" d="M75 -48q9 -9 25 -19.5q16 -10.5 36 -19.5q20 -9 45 -15q25 -6 52 -6q72 0 104 30.5q32 30.5 33 105.5l0 79q-17 -40 -52.5 -68q-35.5 -28 -92.5 -28q-92 0 -138.5 59.5q-46.5 59.5 -46.5 194.5q0 75 12 127.5q12 52.5 36 85.5q24 33 61 48q37 15 87 15q53 0 87.5 -22q34.5 -22 49.5 -58l4 69h81v-497q-1 -117 -58.5 -168.5q-57.5 -51.5 -161.5 -51.5q-57 0 -98.5 12q-41.5 12 -64.5 26zM250 90q59 0 90 37.5q31 37.5 31 122.5v54q0 46 -8 76.5q-8 30.5 -24 48.5q-16 18 -38.5 25.5q-22.5 7.5 -50.5 7.5q-29 0 -51.5 -9.5q-22.5 -9.5 -38 -32q-15.5 -22.5 -23.5 -59q-8 -36.5 -8 -90.5q0 -51 9 -85.5q9 -34.5 24.5 -56q15.5 -21.5 38 -30.5t49.5 -9z" />
<glyph unicode="&#104;" horiz-adv-x="520" d="M69 750h88v-302q17 45 53 69q36 24 93 24q81 0 117.5 -42.5q36.5 -42.5 36.5 -141.5v-357h-88v344q0 64 -23 91.5q-23 27.5 -78 27.5q-57 0 -84 -34q-27 -34 -27 -112v-317l-88 0z" />
<glyph unicode="&#105;" horiz-adv-x="520" d="M60 0v82h186v366h-186v82h274v-448h152v-82zM230 711q0 24 13 40.5q13 16.5 46 16.5q35 0 48.5 -16.5q13.5 -16.5 13.5 -40.5q0 -25 -13.5 -43q-13.5 -18 -47.5 -18q-34 0 -47 18t-13 43z" />
<glyph unicode="&#106;" horiz-adv-x="520" d="M317 448h-236v82h324v-477q0 -120 -46 -179.5q-46 -59.5 -149 -59.5q-53 0 -90.5 13.5q-37.5 13.5 -60.5 26.5l0 90q31 -25 67 -36q36 -11 73 -11q63 0 90.5 33.5q27.5 33.5 27.5 111.5zM296 711q0 24 13 40.5q13 16.5 46 16.5q35 0 48.5 -16.5q13.5 -16.5 13.5 -40.5q0 -25 -13.5 -43q-13.5 -18 -47.5 -18q-34 0 -47 18t-13 43z" />
<glyph unicode="&#107;" horiz-adv-x="520" d="M179 750v-443h39l148 223h100l-175 -253l198 -277h-106l-166 237h-38v-237h-88l0 750z" />
<glyph unicode="&#108;" horiz-adv-x="520" d="M275 203q0 -39 6 -64q6 -25 19.5 -40q13.5 -15 35 -20.5q21.5 -5.5 53.5 -5.5q32 0 57.5 9.5q25.5 9.5 42.5 17.5l0 -78q-15 -11 -46 -21.5q-31 -10.5 -66 -10.5q-89 0 -139.5 42q-50.5 42 -50.5 140v496h-167v82h255l0 -547z" />
<glyph unicode="&#109;" horiz-adv-x="520" d="M31 530h78l6 -79q6 39 28 64.5q22 25.5 60 25.5q38 0 60 -22.5q22 -22.5 31 -67.5q8 40 31 65q23 25 60 25q54 0 79 -38q25 -38 25 -116v-387h-86v374q0 49 -11.5 66.5q-11.5 17.5 -38.5 17.5q-52 0 -52 -89v-369h-82v384q0 45 -12 59.5q-12 14.5 -34 14.5q-56 0 -56 -89v-369l-86 0z" />
<glyph unicode="&#110;" horiz-adv-x="520" d="M69 530h83l4 -84q44 95 145 95q40 0 69.5 -10q29.5 -10 49 -33.5q19.5 -23.5 28.5 -62.5q9 -39 9 -96v-339h-88v319q0 40 -4.5 68q-4.5 28 -16 44.5q-11.5 16.5 -31 24q-19.5 7.5 -49.5 7.5q-57 0 -84 -38.5q-27 -38.5 -27 -107.5v-317l-88 0z" />
<glyph unicode="&#111;" horiz-adv-x="520" d="M43 267q0 138 60.5 206q60.5 68 163.5 68q100 0 155 -66q55 -66 55 -210q0 -75 -16 -127.5q-16 -52.5 -44.5 -85.5q-28.5 -33 -68.5 -48q-40 -15 -88 -15q-109 0 -163 72.5q-54 72.5 -54 205.5zt0 0zM132 264q0 -94 33 -145q33 -51 99 -51q61 0 92.5 46.5q31.5 46.5 31.5 149.5v3q0 100 -31.5 148q-31.5 48 -96.5 48q-128 0 -128 -196z" />
<glyph unicode="&#112;" horiz-adv-x="520" d="M59 530h82l4 -91q19 51 56 76.5q37 25.5 99 25.5q91 0 134 -61.5q43 -61.5 43 -203.5q0 -77 -11.5 -131.5q-11.5 -54.5 -35 -89q-23.5 -34.5 -58.5 -50.5q-35 -16 -82 -16q-60 0 -93.5 24.5q-33.5 24.5 -49.5 57.5l0 -252h-88zM147 216q0 -69 30 -108.5q30 -39.5 90 -39.5q66 0 93.5 46q27.5 46 27.5 157q0 54 -7.5 90.5q-7.5 36.5 -22.5 59q-15 22.5 -37.5 32q-22.5 9.5 -52.5 9.5q-32 0 -55 -11q-23 -11 -37.5 -30.5q-14.5 -19.5 -21.5 -46q-7 -26.5 -7 -57.5z" />
<glyph unicode="&#113;" horiz-adv-x="520" d="M370 83q-18 -40 -52 -67q-34 -27 -88 -27q-45 0 -80.5 14.5q-35.5 14.5 -60 46q-24.5 31.5 -37 82q-12.5 50.5 -12.5 122.5q0 152 48.5 219.5q48.5 67.5 149.5 67.5q52 0 85 -22.5q33 -22.5 50 -57.5l5 69h80v-710h-88zM255 68q61 0 88.5 42.5q27.5 42.5 27.5 106.5v98q0 72 -30.5 109.5q-30.5 37.5 -90.5 37.5q-31 0 -53.5 -11q-22.5 -11 -37.5 -35q-15 -24 -22.5 -62.5q-7.5 -38.5 -7.5 -94.5q0 -56 7.5 -92.5q7.5 -36.5 23.5 -58.5q16 -22 39.5 -31t55.5 -9z" />
<glyph unicode="&#114;" horiz-adv-x="520" d="M41 0v82h119v366h-119v82h199l4 -94q20 52 59.5 78.5q39.5 26.5 93.5 26.5q21 0 36.5 -2q15.5 -2 32.5 -7l0 -99q-16 15 -36 22q-20 7 -43 7q-67 0 -103 -47.5q-36 -47.5 -36 -135.5v-197h227l0 -82z" />
<glyph unicode="&#115;" horiz-adv-x="520" d="M422 408q-34 28 -74.5 42q-40.5 14 -82.5 14q-53 0 -75 -16q-22 -16 -22 -53q0 -30 21 -45.5q21 -15.5 52.5 -26q31.5 -10.5 68 -19.5q36.5 -9 68 -26.5q31.5 -17.5 52.5 -46.5q21 -29 21 -79q0 -81 -46.5 -122q-46.5 -41 -149.5 -41q-48 0 -93 9.5q-45 9.5 -89 31.5l0 107q18 -17 40 -30q22 -13 46 -22q24 -9 48.5 -13.5q24.5 -4.5 46.5 -4.5q57 0 83 20.5q26 20.5 26 59.5q0 31 -21 47.5q-21 16.5 -52.5 28q-31.5 11.5 -68 21q-36.5 9.5 -68 26.5q-31.5 17 -52.5 45q-21 28 -21 76q0 35 9 62.5q9 27.5 30.5 47q21.5 19.5 56 30q34.5 10.5 85.5 10.5q45 0 87 -8q42 -8 74 -22z" />
<glyph unicode="&#116;" horiz-adv-x="520" d="M152 448h-122v82h122v118l88 33v-151h216v-82h-216v-258q0 -68 25.5 -94q25.5 -26 79.5 -26q22 0 40.5 4q18.5 4 34 11q15.5 7 28.5 15q13 8 26 17l0 -81q-20 -17 -57.5 -31.5q-37.5 -14.5 -85.5 -14.5q-46 0 -79.5 11q-33.5 11 -55.5 35.5q-22 24.5 -33 63.5q-11 39 -11 95z" />
<glyph unicode="&#117;" horiz-adv-x="520" d="M363 84q-22 -48 -57.5 -71.5q-35.5 -23.5 -89.5 -23.5q-74 0 -112 43.5q-38 43.5 -38 142.5v355h88v-329q-1 -72 21 -102.5q22 -30.5 76 -30.5q60 0 85.5 36q25.5 36 25.5 114v312h88v-530l-83 0z" />
<glyph unicode="&#118;" horiz-adv-x="520" d="M10 530h98l153 -442l156 442h93l-199 -530l-106 0z" />
<glyph unicode="&#119;" horiz-adv-x="520" d="M8 530h92l33 -254l15 -155l24 155l46 254h87l48 -254l24 -153l14 153l33 254h88l-89 -530h-89l-52 276l-21 155l-22 -155l-55 -276l-89 0z" />
<glyph unicode="&#120;" horiz-adv-x="520" d="M192 265l-145 265h104l110 -221l110 221h100l-146 -260l156 -270h-104l-120 222l-119 -222l-100 0z" />
<glyph unicode="&#121;" horiz-adv-x="520" d="M148 -104q13 0 25 3q12 3 23.5 14.5q11.5 11.5 23 33q11.5 21.5 23.5 58.5l-222 525h100l159 -404l121 404h92l-163 -512q-24 -74 -46 -115q-22 -41 -44 -61q-22 -20 -43.5 -24.5q-21.5 -4.5 -44.5 -4.5q-18 0 -33.5 2.5q-15.5 2.5 -26.5 8.5l1 88q22 -16 55 -16z" />
<glyph unicode="&#122;" horiz-adv-x="520" d="M58 50l276 402h-263v78h382v-50l-277 -401h279v-79l-397 0z" />
<glyph unicode="&#123;" horiz-adv-x="520" d="M449 -100v-80h-86q-85 0 -122.5 37.5q-37.5 37.5 -37.5 122.5v130q0 30 -10 51q-10 21 -26 34.5q-16 13.5 -35.5 20q-19.5 6.5 -38.5 6.5l0 76q19 0 38.5 7.5q19.5 7.5 35.5 22.5q16 15 26 36q10 21 10 48v128q0 85 37.5 122.5q37.5 37.5 122.5 37.5h86v-80h-82q-45 0 -64.5 -19.5q-19.5 -19.5 -19.5 -64.5v-125q0 -61 -24.5 -96q-24.5 -35 -85.5 -55q61 -15 85.5 -57.5q24.5 -42.5 24.5 -102.5v-116q0 -45 19.5 -64.5q19.5 -19.5 64.5 -19.5z" />
<glyph unicode="&#124;" horiz-adv-x="520" d="M215 700h90v-860l-90 0z" />
<glyph unicode="&#125;" horiz-adv-x="520" d="M153 -100q45 0 64.5 19.5q19.5 19.5 19.5 64.5v125q0 61 24.5 96q24.5 35 85.5 55q-61 15 -85.5 57.5q-24.5 42.5 -24.5 102.5v116q0 45 -19.5 64.5q-19.5 19.5 -64.5 19.5h-82v80h86q85 0 122.5 -37.5q37.5 -37.5 37.5 -122.5v-130q0 -30 10 -51q10 -21 26 -34.5q16 -13.5 35.5 -20q19.5 -6.5 38.5 -6.5l0 -76q-19 0 -38.5 -7.5q-19.5 -7.5 -35.5 -22.5q-16 -15 -26 -36q-10 -21 -10 -48v-128q0 -85 -37.5 -122.5q-37.5 -37.5 -122.5 -37.5h-86l0 80z" />
<glyph unicode="&#126;" horiz-adv-x="520" d="M50 371q23 20 52 30q29 10 59 10q33 0 61.5 -13.5q28.5 -13.5 55.5 -30q27 -16.5 53.5 -29.5q26.5 -13 54.5 -13q20 0 44 11q24 11 40 36l0 -89q-20 -19 -45.5 -28.5q-25.5 -9.5 -52.5 -9.5q-34 0 -63.5 13.5q-29.5 13.5 -56 29.5q-26.5 16 -50.5 29.5q-24 13.5 -46 13.5q-34 0 -57.5 -11q-23.5 -11 -48.5 -32z" />
<glyph unicode="&#160;" horiz-adv-x="520" />
<glyph unicode="&#161;" horiz-adv-x="520" d="M305 -169h-90v470h90zM332 470q0 -30 -15 -50.5q-15 -20.5 -57 -20.5q-42 0 -57.5 20.5q-15.5 20.5 -15.5 50.5q0 29 15.5 50q15.5 21 57.5 21q41 0 56.5 -21t15.5 -50z" />
<glyph unicode="&#162;" horiz-adv-x="520" d="M272 -106v103q-84 11 -124 74.5q-40 63.5 -40 187.5q0 131 41.5 197q41.5 66 122.5 77l0 85h54v-83q30 -2 50.5 -6q20.5 -4 34.5 -8l0 -76q-16 6 -37.5 10.5q-21.5 4.5 -50.5 4.5q-31 0 -54.5 -9.5q-23.5 -9.5 -40 -31.5q-16.5 -22 -25 -59.5q-8.5 -37.5 -8.5 -92.5q0 -57 9 -95q9 -38 26.5 -60.5q17.5 -22.5 43 -32q25.5 -9.5 57.5 -9.5q27 0 49.5 5q22.5 5 36.5 12l0 -75q-14 -7 -35.5 -11.5q-21.5 -4.5 -55.5 -6.5l0 -100z" />
<glyph unicode="&#163;" horiz-adv-x="520" d="M443 0h-352v84h67v260h-67v58h67v94q0 35 6.5 72.5q6.5 37.5 27 68q20.5 30.5 57 50.5q36.5 20 96.5 20q28 0 52.5 -3.5q24.5 -3.5 42.5 -8.5l0 -83q-24 7 -43 9.5q-19 2.5 -45 2.5q-59 0 -81.5 -33.5q-22.5 -33.5 -22.5 -93.5v-95h127v-58h-127v-260l195 0z" />
<glyph unicode="&#164;" horiz-adv-x="520" d="M259 204q27 0 50.5 10.5q23.5 10.5 41 30q17.5 19.5 28 46q10.5 26.5 10.5 58.5q0 30 -10.5 57q-10.5 27 -28 46.5q-17.5 19.5 -41 31q-23.5 11.5 -50.5 11.5q-26 0 -49 -11.5q-23 -11.5 -40.5 -31q-17.5 -19.5 -28 -46.5q-10.5 -27 -10.5 -57q0 -32 10.5 -58.5q10.5 -26.5 28 -46q17.5 -19.5 40.5 -30q23 -10.5 49 -10.5zt0 0zM419 471q13 -20 24 -50.5q11 -30.5 11 -71.5q0 -40 -11 -71q-11 -31 -24 -51l61 -67l-49 -50l-60 65q-19 -14 -46.5 -25.5q-27.5 -11.5 -65.5 -11.5q-37 0 -65 11.5q-28 11.5 -45 25.5l-60 -64l-49 49l61 67q-14 20 -24.5 50.5q-10.5 30.5 -10.5 71.5q0 42 10.5 72q10.5 30 24.5 50l-61 68l48 51l61 -67q18 14 46 25.5q28 11.5 64 11.5q38 0 65.5 -11.5q27.5 -11.5 44.5 -24.5l63 67l49 -49z" />
<glyph unicode="&#165;" horiz-adv-x="520" d="M306 175v-175h-90v175h-107v58h107v60l-6 15h-101v58h77l-137 334h100l113 -304l111 304h100l-138 -334h79v-58h-102l-6 -15v-60h108l0 -58z" />
<glyph unicode="&#166;" horiz-adv-x="520" d="M299 -160h-77v350h77zM299 350h-77v350l77 0z" />
<glyph unicode="&#167;" horiz-adv-x="520" d="M110 -4q36 -22 63.5 -27q27.5 -5 53.5 -5q27 0 44 7.5q17 7.5 27 18.5q10 11 13.5 24q3.5 13 3.5 25q0 18 -5 31.5q-5 13.5 -15 25q-10 11.5 -25.5 22q-15.5 10.5 -37.5 24.5q-6 5 -20 12.5q-14 7.5 -20 12.5q-41 27 -67 60q-26 33 -26 85q0 38 16.5 69.5q16.5 31.5 46.5 59.5q-23 21 -37 47q-14 26 -14 61q0 76 46 117q46 41 125 41q31 0 60 -6q29 -6 49 -13l0 -85q-34 14 -59 18q-25 4 -45 4q-35 0 -59.5 -15.5q-24.5 -15.5 -24.5 -54.5q0 -14 3.5 -25.5q3.5 -11.5 12.5 -22.5q9 -11 24 -22.5q15 -11.5 38 -25.5q5 -5 18.5 -13q13.5 -8 19.5 -13q19 -12 37.5 -25.5q18.5 -13.5 32.5 -30.5q14 -17 23 -38q9 -21 9 -48q0 -34 -16 -71q-16 -37 -45 -67q20 -21 33.5 -44q13.5 -23 13.5 -60q0 -47 -16 -78.5q-16 -31.5 -41.5 -50.5q-25.5 -19 -56 -27q-30.5 -8 -58.5 -8q-26 0 -61.5 5.5q-35.5 5.5 -63.5 19.5zM259 220q1 -1 8 -5.5q7 -4.5 15.5 -9.5q8.5 -5 15.5 -9.5q7 -4.5 9 -5.5q10 14 19.5 35q9.5 21 9.5 50q0 28 -16 52.5q-16 24.5 -53 47.5q-2 1 -8.5 5q-6.5 4 -15 9q-8.5 5 -15.5 9q-7 4 -10 6q-16 -16 -25 -35q-9 -19 -9 -41q0 -33 17 -57.5t58 -50.5z" />
<glyph unicode="&#168;" horiz-adv-x="520" d="M232 659q0 -23 -12.5 -37.5q-12.5 -14.5 -35.5 -14.5q-23 0 -36 14q-13 14 -13 37q0 23 13 38q13 15 36 15q23 0 35.5 -14.5q12.5 -14.5 12.5 -37.5zt0 0zM387 659q0 -23 -12.5 -37.5q-12.5 -14.5 -35.5 -14.5q-23 0 -36 14.5q-13 14.5 -13 37.5q0 23 12.5 37.5q12.5 14.5 35.5 14.5q23 0 36 -14.5t13 -37.5z" />
<glyph unicode="&#169;" horiz-adv-x="520" d="M347 164q-30 -12 -73 -12q-78 0 -113 51.5q-35 51.5 -35 145.5q0 103 38.5 151q38.5 48 107.5 48q44 0 74 -11l0 -59q-15 6 -33 8q-18 2 -32 2q-45 0 -66 -32.5q-21 -32.5 -21 -104.5q0 -77 23.5 -107q23.5 -30 64.5 -30q14 0 32 2.5q18 2.5 33 9.5zM260 710q69 0 116.5 -25.5q47.5 -25.5 77 -73q29.5 -47.5 42.5 -116q13 -68.5 13 -153.5q0 -82 -13 -147q-13 -65 -42.5 -110.5q-29.5 -45.5 -77 -70q-47.5 -24.5 -116.5 -24.5q-69 0 -116.5 24.5q-47.5 24.5 -77 70q-29.5 45.5 -42.5 110.5q-13 65 -13 147q0 85 13 153.5q13 68.5 42.5 116q29.5 47.5 77 73q47.5 25.5 116.5 25.5zt0 0zM260 657q-53 0 -89 -18.5q-36 -18.5 -58 -56.5q-22 -38 -31.5 -97.5q-9.5 -59.5 -9.5 -140.5q0 -78 9.5 -135q9.5 -57 31.5 -94q22 -37 58 -54.5q36 -17.5 89 -17.5q53 0 89 17.5q36 17.5 57.5 54.5q21.5 37 31 94q9.5 57 9.5 135q0 81 -9.5 140.5q-9.5 59.5 -31 97.5q-21.5 38 -57.5 56.5t-89 18.5z" />
<glyph unicode="&#170;" horiz-adv-x="520" d="M304 520q-7 1 -15.5 2q-8.5 1 -19.5 1q-38 0 -51 -11.5q-13 -11.5 -13 -39.5q0 -46 44 -46q30 0 42.5 21.5q12.5 21.5 12.5 47.5zM371 372h-61v48h-1q-11 -21 -29 -36q-18 -15 -52 -15q-43 0 -67 23.5q-24 23.5 -24 75.5q0 52 28.5 78q28.5 26 91.5 26q16 0 27.5 -1q11.5 -1 19.5 -2l0 26q0 28 -11.5 42q-11.5 14 -50.5 14q-16 0 -39.5 -4q-23.5 -4 -40.5 -12l0 57q18 6 42.5 10.5q24.5 4.5 49.5 4.5q69 0 93 -29.5q24 -29.5 24 -91.5z" />
<glyph unicode="&#171;" horiz-adv-x="520" d="M80 259l115 221h88l-112 -220l113 -219h-91zM238 259l115 221h88l-112 -220l112 -219l-90 0z" />
<glyph unicode="&#172;" horiz-adv-x="520" d="M482 167h-79v157h-362v75l441 0z" />
<glyph unicode="&#173;" horiz-adv-x="520" d="M127 337h267v-84l-267 0z" />
<glyph unicode="&#174;" horiz-adv-x="520" d="M210 378h39q17 0 31 11.5q14 11.5 14 46.5q0 35 -13.5 44q-13.5 9 -30.5 9h-40zM383 157h-69l-71 168h-32v-168h-63v387h117q13 0 30 -2.5q17 -2.5 31.5 -13q14.5 -10.5 24.5 -32.5q10 -22 10 -61q0 -40 -17 -67q-17 -27 -40 -33zM260 710q69 0 116.5 -25.5q47.5 -25.5 77 -73q29.5 -47.5 42.5 -116q13 -68.5 13 -153.5q0 -82 -13 -147q-13 -65 -42.5 -110.5q-29.5 -45.5 -77 -70q-47.5 -24.5 -116.5 -24.5q-69 0 -116.5 24.5q-47.5 24.5 -77 70q-29.5 45.5 -42.5 110.5q-13 65 -13 147q0 85 13 153.5q13 68.5 42.5 116q29.5 47.5 77 73q47.5 25.5 116.5 25.5zt0 0zM260 657q-53 0 -89 -18.5q-36 -18.5 -58 -56.5q-22 -38 -31.5 -97.5q-9.5 -59.5 -9.5 -140.5q0 -78 9.5 -135q9.5 -57 31.5 -94q22 -37 58 -54.5q36 -17.5 89 -17.5q53 0 89 17.5q36 17.5 57.5 54.5q21.5 37 31 94q9.5 57 9.5 135q0 81 -9.5 140.5q-9.5 59.5 -31 97.5q-21.5 38 -57.5 56.5t-89 18.5z" />
<glyph unicode="&#175;" horiz-adv-x="520" d="M375 623h-228v69l228 0z" />
<glyph unicode="&#176;" horiz-adv-x="520" d="M109 547q0 42 11 73q11 31 31 51q20 20 47.5 29.5q27.5 9.5 59.5 9.5q32 0 60 -9q28 -9 48.5 -28.5q20.5 -19.5 32.5 -50.5q12 -31 12 -75q0 -45 -11.5 -76.5q-11.5 -31.5 -31 -51q-19.5 -19.5 -46.5 -28.5q-27 -9 -58 -9q-35 0 -63.5 9q-28.5 9 -48.5 28.5q-20 19.5 -31.5 51q-11.5 31.5 -11.5 76.5zt0 0zM181 547q0 -54 23.5 -73.5q23.5 -19.5 58.5 -19.5q15 0 29 3.5q14 3.5 24.5 14q10.5 10.5 17 28.5q6.5 18 6.5 47q0 51 -22 71q-22 20 -57 20q-36 0 -58 -20t-22 -71z" />
<glyph unicode="&#177;" horiz-adv-x="520" d="M473 86h-425v79h425zM298 231h-75v156h-175v79h175v155h75v-155h175v-79l-175 0z" />
<glyph unicode="&#178;" horiz-adv-x="520" d="M373 382h-231v74l63 66q25 28 41.5 49.5q16.5 21.5 26.5 39.5q10 18 14 33.5q4 15.5 4 33.5q0 60 -59 60q-20 0 -40.5 -6q-20.5 -6 -36.5 -17l0 72q44 20 95 20q25 0 47 -6q22 -6 38 -19.5q16 -13.5 25 -35.5q9 -22 9 -55q0 -57 -30.5 -103.5q-30.5 -46.5 -90.5 -103.5l-27 -31v-1l152 0z" />
<glyph unicode="&#179;" horiz-adv-x="520" d="M147 462q15 -8 34 -12.5q19 -4.5 41 -4.5q38 0 54.5 14q16.5 14 16.5 45q0 38 -17.5 52q-17.5 14 -56.5 14h-35v59h29q39 0 56.5 12q17.5 12 17.5 45q0 28 -14 40q-14 12 -49 12q-18 0 -37.5 -4.5q-19.5 -4.5 -34.5 -12.5l0 70q20 9 46 12.5q26 3.5 50 3.5q55 0 83.5 -28q28.5 -28 28.5 -79q0 -45 -17 -66.5q-17 -21.5 -49 -29.5l0 -2q45 -8 59.5 -36q14.5 -28 14.5 -64q0 -35 -11 -59q-11 -24 -30 -39q-19 -15 -44.5 -21.5q-25.5 -6.5 -53.5 -6.5q-19 0 -40.5 3.5q-21.5 3.5 -41.5 11.5z" />
<glyph unicode="&#180;" horiz-adv-x="520" d="M269 595h-68l62 130l106 0z" />
<glyph unicode="&#181;" horiz-adv-x="520" d="M363 84q-22 -48 -57.5 -71.5q-35.5 -23.5 -89.5 -23.5q-39 0 -67 12l0 -211h-83v740h88v-329q-1 -72 21 -102.5q22 -30.5 76 -30.5q60 0 85.5 36q25.5 36 25.5 114v312h88v-530l-83 0z" />
<glyph unicode="&#182;" horiz-adv-x="520" d="M219 -210v567q-62 0 -96.5 44.5q-34.5 44.5 -34.5 122.5q0 65 19.5 100.5q19.5 35.5 46.5 52.5q27 17 56 20q29 3 48 3h150v-910h-61v848h-66l0 -848z" />
<glyph unicode="&#183;" horiz-adv-x="520" d="M315 342q0 -29 -14 -44.5q-14 -15.5 -40 -15.5q-26 0 -40.5 16q-14.5 16 -14.5 44q0 28 14.5 43.5q14.5 15.5 40.5 15.5q25 0 39.5 -16t14.5 -43z" />
<glyph unicode="&#184;" horiz-adv-x="520" d="M194 -156q11 -7 21.5 -9q10.5 -2 24.5 -2q15 0 27 9.5q12 9.5 12 33.5q0 11 -3.5 18q-3.5 7 -9.5 10.5q-6 3.5 -13 4.5q-7 1 -14 1q-5 0 -13.5 0q-8.5 0 -13.5 -2l10 92h47l-5 -43q16 -1 30.5 -4.5q14.5 -3.5 25 -13q10.5 -9.5 16.5 -25q6 -15.5 6 -40.5q0 -43 -25 -69q-25 -26 -68 -26q-20 0 -34.5 3q-14.5 3 -27.5 10z" />
<glyph unicode="&#185;" horiz-adv-x="520" d="M322 382h-75v330l-62 -44l-36 53l113 79l60 0z" />
<glyph unicode="&#186;" horiz-adv-x="520" d="M260 429q15 0 27 4.5q12 4.5 20.5 16.5q8.5 12 12.5 33q4 21 4 54q0 33 -4 54.5q-4 21.5 -12.5 34q-8.5 12.5 -20.5 17q-12 4.5 -27 4.5q-15 0 -26.5 -5q-11.5 -5 -19.5 -17q-8 -12 -12 -33.5q-4 -21.5 -4 -54.5q0 -33 4.5 -54q4.5 -21 13 -33q8.5 -12 19.5 -16.5q11 -4.5 25 -4.5zt0 0zM260 369q-63 0 -97 40.5q-34 40.5 -34 128.5q0 90 33.5 129.5q33.5 39.5 97.5 39.5q67 0 99.5 -39.5q32.5 -39.5 32.5 -129.5q0 -88 -34.5 -128.5t-97.5 -40.5z" />
<glyph unicode="&#187;" horiz-adv-x="520" d="M192 261l-112 219h91l112 -217l-115 -222h-88zM350 261l-112 219h90l113 -217l-116 -222l-87 0z" />
<glyph unicode="&#188;" horiz-adv-x="520" d="M120 -22h-61l366 742h60zM183 382h-75v330l-62 -44l-36 53l113 79h60zM406 55v170h-1l-89 -170zM480 -100h-74v87h-153v64l137 267h90v-263h40v-68l-40 0z" />
<glyph unicode="&#189;" horiz-adv-x="520" d="M494 -100h-231v74l63 66q25 28 41.5 49.5q16.5 21.5 26.5 39.5q10 18 14 33.5q4 15.5 4 33.5q0 60 -59 60q-20 0 -40.5 -6q-20.5 -6 -36.5 -17l0 72q44 20 95 20q25 0 47 -6q22 -6 38 -19.5q16 -13.5 25 -35.5q9 -22 9 -55q0 -57 -30.5 -103.5q-30.5 -46.5 -90.5 -103.5l-27 -31v-1h152zM80 -22h-61l366 742h60zM183 382h-75v330l-62 -44l-36 53l113 79l60 0z" />
<glyph unicode="&#190;" horiz-adv-x="520" d="M41 462q15 -8 34 -12.5q19 -4.5 41 -4.5q38 0 54.5 14q16.5 14 16.5 45q0 38 -17.5 52q-17.5 14 -56.5 14h-35v59h29q39 0 56.5 12q17.5 12 17.5 45q0 28 -14 40q-14 12 -49 12q-18 0 -37.5 -4.5q-19.5 -4.5 -34.5 -12.5l0 70q20 9 46 12.5q26 3.5 50 3.5q55 0 83.5 -28q28.5 -28 28.5 -79q0 -45 -17 -66.5q-17 -21.5 -49 -29.5l0 -2q45 -8 59.5 -36q14.5 -28 14.5 -64q0 -35 -11 -59q-11 -24 -30 -39q-19 -15 -44.5 -21.5q-25.5 -6.5 -53.5 -6.5q-19 0 -40.5 3.5q-21.5 3.5 -41.5 11.5zM120 -22h-61l366 742h60zM376 55v170h-1l-89 -170zM450 -100h-74v87h-153v64l137 267h90v-263h40v-68l-40 0z" />
<glyph unicode="&#191;" horiz-adv-x="520" d="M353 300q0 -42 -13 -69.5q-13 -27.5 -33 -47q-20 -19.5 -42.5 -35q-22.5 -15.5 -42.5 -33.5q-20 -18 -33 -42q-13 -24 -13 -61q0 -48 29.5 -78q29.5 -30 87.5 -30q45 0 76.5 12.5q31.5 12.5 58.5 31.5l0 -99q-24 -11 -61.5 -19.5q-37.5 -8.5 -83.5 -8.5q-94 0 -145.5 44q-51.5 44 -51.5 145q0 46 13.5 78q13.5 32 34.5 55q21 23 44.5 40.5q23.5 17.5 44.5 34q21 16.5 34.5 36q13.5 19.5 13.5 46.5zM383 470q0 -30 -15 -50.5q-15 -20.5 -57 -20.5q-42 0 -57.5 20.5q-15.5 20.5 -15.5 50.5q0 29 15.5 50q15.5 21 57.5 21q41 0 56.5 -21t15.5 -50z" />
<glyph unicode="&#192;" horiz-adv-x="520" d="M363 184h-213l-48 -184h-95l202 700h101l203 -700h-100zM172 268h169l-85 316zM297 770h-72l-108 140l115 0z" />
<glyph unicode="&#193;" horiz-adv-x="520" d="M363 184h-213l-48 -184h-95l202 700h101l203 -700h-100zM172 268h169l-85 316zM295 770h-72l65 140l116 0z" />
<glyph unicode="&#194;" horiz-adv-x="520" d="M363 184h-213l-48 -184h-95l202 700h101l203 -700h-100zM172 268h169l-85 316zM394 770h-78l-56 76l-55 -76h-78l84 126l98 0z" />
<glyph unicode="&#195;" horiz-adv-x="520" d="M363 184h-213l-48 -184h-95l202 700h101l203 -700h-100zM172 268h169l-85 316zM398 880q-3 -52 -25 -77.5q-22 -25.5 -51 -25.5q-14 0 -27 5q-13 5 -37 19q-16 9 -25.5 15.5q-9.5 6.5 -21.5 6.5q-11 0 -17.5 -10.5q-6.5 -10.5 -10.5 -35.5l-54 13q2 48 23 75.5q21 27.5 53 27.5q17 0 32.5 -6.5q15.5 -6.5 32.5 -18.5q15 -8 27 -14.5q12 -6.5 21 -6.5q11 0 18 10.5q7 10.5 10 35.5z" />
<glyph unicode="&#196;" horiz-adv-x="520" d="M363 184h-213l-48 -184h-95l202 700h101l203 -700h-100zM172 268h169l-85 316zM237 827q0 -24 -13.5 -39q-13.5 -15 -37.5 -15q-23 0 -36 15q-13 15 -13 39q0 24 13 38.5q13 14.5 36 14.5q24 0 37.5 -14.5q13.5 -14.5 13.5 -38.5zt0 0zM385 827q0 -24 -13 -39q-13 -15 -36 -15q-25 0 -38 15q-13 15 -13 39q0 24 13.5 38.5q13.5 14.5 37.5 14.5q23 0 36 -14.5t13 -38.5z" />
<glyph unicode="&#197;" horiz-adv-x="520" d="M363 184h-213l-48 -184h-95l202 700h101l203 -700h-100zM172 268h169l-85 316zM260 793q16 0 26 11.5q10 11.5 10 29.5q0 19 -10 30.5q-10 11.5 -26 11.5q-17 0 -26.5 -11.5q-9.5 -11.5 -9.5 -30.5q0 -18 9.5 -29.5q9.5 -11.5 26.5 -11.5zt0 0zM260 749q-34 0 -58.5 21q-24.5 21 -24.5 63q0 42 24.5 64.5q24.5 22.5 58.5 22.5q34 0 58.5 -22.5q24.5 -22.5 24.5 -64.5q0 -42 -24.5 -63t-58.5 -21z" />
<glyph unicode="&#198;" horiz-adv-x="520" d="M149 187l-51 -187h-84l204 700h278v-84h-136v-212h112v-82h-112v-238h136v-84h-226v187zM172 269h98v345l-3 0z" />
<glyph unicode="&#199;" horiz-adv-x="520" d="M212 -167q12 -7 23.5 -9q11.5 -2 26.5 -2q17 0 30.5 9q13.5 9 13.5 35q0 23 -14.5 30q-14.5 7 -30.5 7q-5 0 -14 0q-9 0 -14 -2l10 96q-105 17 -155 101.5q-50 84.5 -50 251.5q0 189 66 273.5q66 84.5 201 84.5q57 0 96 -11.5q39 -11.5 61 -19.5l0 -105q-23 19 -63.5 35q-40.5 16 -93.5 16q-42 0 -73.5 -13.5q-31.5 -13.5 -53 -45q-21.5 -31.5 -32 -82q-10.5 -50.5 -10.5 -123.5q0 -81 11.5 -135q11.5 -54 34 -86.5q22.5 -32.5 55 -46q32.5 -13.5 73.5 -13.5q29 0 54.5 6q25.5 6 47 14.5q21.5 8.5 37.5 17.5q16 9 26 16l0 -97q-21 -14 -64.5 -28.5q-43.5 -14.5 -102.5 -14.5h-12l-6 -40q17 -1 32.5 -5q15.5 -4 27.5 -13.5q12 -9.5 19 -25.5q7 -16 7 -41q0 -45 -29 -73.5q-29 -28.5 -72 -28.5q-26 0 -42.5 3.5q-16.5 3.5 -27.5 10.5z" />
<glyph unicode="&#200;" horiz-adv-x="520" d="M60 700h382v-85h-289v-218h271v-84h-271v-228h296v-85h-389zM297 770h-72l-108 140l115 0z" />
<glyph unicode="&#201;" horiz-adv-x="520" d="M60 700h382v-85h-289v-218h271v-84h-271v-228h296v-85h-389zM295 770h-72l65 140l116 0z" />
<glyph unicode="&#202;" horiz-adv-x="520" d="M60 700h382v-85h-289v-218h271v-84h-271v-228h296v-85h-389zM394 770h-78l-56 76l-55 -76h-78l84 126l98 0z" />
<glyph unicode="&#203;" horiz-adv-x="520" d="M60 700h382v-85h-289v-218h271v-84h-271v-228h296v-85h-389zM237 827q0 -24 -13.5 -39q-13.5 -15 -37.5 -15q-23 0 -36 15q-13 15 -13 39q0 24 13 38.5q13 14.5 36 14.5q24 0 37.5 -14.5q13.5 -14.5 13.5 -38.5zt0 0zM385 827q0 -24 -13 -39q-13 -15 -36 -15q-25 0 -38 15q-13 15 -13 39q0 24 13.5 38.5q13.5 14.5 37.5 14.5q23 0 36 -14.5t13 -38.5z" />
<glyph unicode="&#204;" horiz-adv-x="520" d="M54 700h413v-85h-161v-530h161v-85h-413v85h159v530h-159zM297 770h-72l-108 140l115 0z" />
<glyph unicode="&#205;" horiz-adv-x="520" d="M54 700h413v-85h-161v-530h161v-85h-413v85h159v530h-159zM295 770h-72l65 140l116 0z" />
<glyph unicode="&#206;" horiz-adv-x="520" d="M54 700h413v-85h-161v-530h161v-85h-413v85h159v530h-159zM394 770h-78l-56 76l-55 -76h-78l84 126l98 0z" />
<glyph unicode="&#207;" horiz-adv-x="520" d="M54 700h413v-85h-161v-530h161v-85h-413v85h159v530h-159zM237 827q0 -24 -13.5 -39q-13.5 -15 -37.5 -15q-23 0 -36 15q-13 15 -13 39q0 24 13 38.5q13 14.5 36 14.5q24 0 37.5 -14.5q13.5 -14.5 13.5 -38.5zt0 0zM385 827q0 -24 -13 -39q-13 -15 -36 -15q-25 0 -38 15q-13 15 -13 39q0 24 13.5 38.5q13.5 14.5 37.5 14.5q23 0 36 -14.5t13 -38.5z" />
<glyph unicode="&#208;" horiz-adv-x="520" d="M50 322h-40v82h40v294q19 2 37.5 3.5q18.5 1.5 38.5 3q20 1.5 42.5 2.5q22.5 1 49.5 1q75 0 125.5 -22q50.5 -22 80.5 -66q30 -44 43 -110.5q13 -66.5 13 -156.5q0 -98 -17 -167q-17 -69 -51.5 -112q-34.5 -43 -86 -62.5q-51.5 -19.5 -121.5 -19.5q-53 0 -89.5 4.5q-36.5 4.5 -64.5 8.5zM143 79q14 -1 28.5 -1.5q14.5 -0.5 30.5 -0.5q48 0 82.5 13.5q34.5 13.5 56.5 45q22 31.5 32.5 82q10.5 50.5 10.5 124.5q0 78 -8.5 131.5q-8.5 53.5 -28 86.5q-19.5 33 -51.5 48q-32 15 -80 15q-20 0 -38 -1q-18 -1 -35 -2l0 -216h146v-82l-146 0z" />
<glyph unicode="&#209;" horiz-adv-x="520" d="M47 700h98l244 -534l-3 102v432h87v-700h-99l-245 538l5 -106v-432h-87zM398 880q-3 -52 -25 -77.5q-22 -25.5 -51 -25.5q-14 0 -27 5q-13 5 -37 19q-16 9 -25.5 15.5q-9.5 6.5 -21.5 6.5q-11 0 -17.5 -10.5q-6.5 -10.5 -10.5 -35.5l-54 13q2 48 23 75.5q21 27.5 53 27.5q17 0 32.5 -6.5q15.5 -6.5 32.5 -18.5q15 -8 27 -14.5q12 -6.5 21 -6.5q11 0 18 10.5q7 10.5 10 35.5z" />
<glyph unicode="&#210;" horiz-adv-x="520" d="M24 350q0 92 13 160q13 68 42.5 112.5q29.5 44.5 75.5 66q46 21.5 112 21.5q64 0 108 -21.5q44 -21.5 71 -66q27 -44.5 38.5 -112.5q11.5 -68 11.5 -160q0 -98 -14.5 -166q-14.5 -68 -43.5 -111.5q-29 -43.5 -73.5 -63q-44.5 -19.5 -104.5 -19.5q-57 0 -101 19.5q-44 19.5 -74 62q-30 42.5 -45.5 111q-15.5 68.5 -15.5 167.5zt0 0zM122 347q0 -77 9 -129q9 -52 26.5 -83.5q17.5 -31.5 44 -45.5q26.5 -14 61.5 -14q36 0 61.5 14q25.5 14 41.5 45.5q16 31.5 23.5 83.5q7.5 52 7.5 129q0 79 -7.5 132.5q-7.5 53.5 -24 85.5q-16.5 32 -43 46q-26.5 14 -63.5 14q-39 0 -65.5 -17q-26.5 -17 -42.5 -51.5q-16 -34.5 -22.5 -87q-6.5 -52.5 -6.5 -122.5zt0 0zM297 770h-72l-108 140l115 0z" />
<glyph unicode="&#211;" horiz-adv-x="520" d="M24 350q0 92 13 160q13 68 42.5 112.5q29.5 44.5 75.5 66q46 21.5 112 21.5q64 0 108 -21.5q44 -21.5 71 -66q27 -44.5 38.5 -112.5q11.5 -68 11.5 -160q0 -98 -14.5 -166q-14.5 -68 -43.5 -111.5q-29 -43.5 -73.5 -63q-44.5 -19.5 -104.5 -19.5q-57 0 -101 19.5q-44 19.5 -74 62q-30 42.5 -45.5 111q-15.5 68.5 -15.5 167.5zt0 0zM122 347q0 -77 9 -129q9 -52 26.5 -83.5q17.5 -31.5 44 -45.5q26.5 -14 61.5 -14q36 0 61.5 14q25.5 14 41.5 45.5q16 31.5 23.5 83.5q7.5 52 7.5 129q0 79 -7.5 132.5q-7.5 53.5 -24 85.5q-16.5 32 -43 46q-26.5 14 -63.5 14q-39 0 -65.5 -17q-26.5 -17 -42.5 -51.5q-16 -34.5 -22.5 -87q-6.5 -52.5 -6.5 -122.5zt0 0zM295 770h-72l65 140l116 0z" />
<glyph unicode="&#212;" horiz-adv-x="520" d="M24 350q0 92 13 160q13 68 42.5 112.5q29.5 44.5 75.5 66q46 21.5 112 21.5q64 0 108 -21.5q44 -21.5 71 -66q27 -44.5 38.5 -112.5q11.5 -68 11.5 -160q0 -98 -14.5 -166q-14.5 -68 -43.5 -111.5q-29 -43.5 -73.5 -63q-44.5 -19.5 -104.5 -19.5q-57 0 -101 19.5q-44 19.5 -74 62q-30 42.5 -45.5 111q-15.5 68.5 -15.5 167.5zt0 0zM122 347q0 -77 9 -129q9 -52 26.5 -83.5q17.5 -31.5 44 -45.5q26.5 -14 61.5 -14q36 0 61.5 14q25.5 14 41.5 45.5q16 31.5 23.5 83.5q7.5 52 7.5 129q0 79 -7.5 132.5q-7.5 53.5 -24 85.5q-16.5 32 -43 46q-26.5 14 -63.5 14q-39 0 -65.5 -17q-26.5 -17 -42.5 -51.5q-16 -34.5 -22.5 -87q-6.5 -52.5 -6.5 -122.5zt0 0zM394 770h-78l-56 76l-55 -76h-78l84 126l98 0z" />
<glyph unicode="&#213;" horiz-adv-x="520" d="M24 350q0 92 13 160q13 68 42.5 112.5q29.5 44.5 75.5 66q46 21.5 112 21.5q64 0 108 -21.5q44 -21.5 71 -66q27 -44.5 38.5 -112.5q11.5 -68 11.5 -160q0 -98 -14.5 -166q-14.5 -68 -43.5 -111.5q-29 -43.5 -73.5 -63q-44.5 -19.5 -104.5 -19.5q-57 0 -101 19.5q-44 19.5 -74 62q-30 42.5 -45.5 111q-15.5 68.5 -15.5 167.5zt0 0zM122 347q0 -77 9 -129q9 -52 26.5 -83.5q17.5 -31.5 44 -45.5q26.5 -14 61.5 -14q36 0 61.5 14q25.5 14 41.5 45.5q16 31.5 23.5 83.5q7.5 52 7.5 129q0 79 -7.5 132.5q-7.5 53.5 -24 85.5q-16.5 32 -43 46q-26.5 14 -63.5 14q-39 0 -65.5 -17q-26.5 -17 -42.5 -51.5q-16 -34.5 -22.5 -87q-6.5 -52.5 -6.5 -122.5zt0 0zM398 880q-3 -52 -25 -77.5q-22 -25.5 -51 -25.5q-14 0 -27 5q-13 5 -37 19q-16 9 -25.5 15.5q-9.5 6.5 -21.5 6.5q-11 0 -17.5 -10.5q-6.5 -10.5 -10.5 -35.5l-54 13q2 48 23 75.5q21 27.5 53 27.5q17 0 32.5 -6.5q15.5 -6.5 32.5 -18.5q15 -8 27 -14.5q12 -6.5 21 -6.5q11 0 18 10.5q7 10.5 10 35.5z" />
<glyph unicode="&#214;" horiz-adv-x="520" d="M24 350q0 92 13 160q13 68 42.5 112.5q29.5 44.5 75.5 66q46 21.5 112 21.5q64 0 108 -21.5q44 -21.5 71 -66q27 -44.5 38.5 -112.5q11.5 -68 11.5 -160q0 -98 -14.5 -166q-14.5 -68 -43.5 -111.5q-29 -43.5 -73.5 -63q-44.5 -19.5 -104.5 -19.5q-57 0 -101 19.5q-44 19.5 -74 62q-30 42.5 -45.5 111q-15.5 68.5 -15.5 167.5zt0 0zM122 347q0 -77 9 -129q9 -52 26.5 -83.5q17.5 -31.5 44 -45.5q26.5 -14 61.5 -14q36 0 61.5 14q25.5 14 41.5 45.5q16 31.5 23.5 83.5q7.5 52 7.5 129q0 79 -7.5 132.5q-7.5 53.5 -24 85.5q-16.5 32 -43 46q-26.5 14 -63.5 14q-39 0 -65.5 -17q-26.5 -17 -42.5 -51.5q-16 -34.5 -22.5 -87q-6.5 -52.5 -6.5 -122.5zt0 0zM237 827q0 -24 -13.5 -39q-13.5 -15 -37.5 -15q-23 0 -36 15q-13 15 -13 39q0 24 13 38.5q13 14.5 36 14.5q24 0 37.5 -14.5q13.5 -14.5 13.5 -38.5zt0 0zM385 827q0 -24 -13 -39q-13 -15 -36 -15q-25 0 -38 15q-13 15 -13 39q0 24 13.5 38.5q13.5 14.5 37.5 14.5q23 0 36 -14.5t13 -38.5z" />
<glyph unicode="&#215;" horiz-adv-x="520" d="M126 524l133 -144l135 144l55 -52l-138 -149l138 -148l-55 -51l-135 144l-133 -144l-55 51l138 148l-138 149z" />
<glyph unicode="&#216;" horiz-adv-x="520" d="M24 350q0 92 13 160q13 68 42.5 112.5q29.5 44.5 75.5 66q46 21.5 112 21.5q93 0 146 -48l36 62l45 -27l-46 -80q26 -45 37 -111q11 -66 11 -156q0 -98 -14.5 -166q-14.5 -68 -43.5 -111.5q-29 -43.5 -73.5 -63q-44.5 -19.5 -104.5 -19.5q-45 0 -81.5 11q-36.5 11 -64.5 37l-36 -62l-46 25l46 80q-26 44 -40 109.5q-14 65.5 -14 159.5zt0 0zM122 347q0 -104 16 -162l223 387q-17 29 -42 41q-25 12 -60 12q-39 0 -65.5 -17q-26.5 -17 -42.5 -51.5q-16 -34.5 -22.5 -87q-6.5 -52.5 -6.5 -122.5zt0 0zM397 347q0 101 -13 160l-221 -383q18 -26 43 -37.5q25 -11.5 57 -11.5q36 0 61.5 14q25.5 14 41.5 45.5q16 31.5 23.5 83.5t7.5 129z" />
<glyph unicode="&#217;" horiz-adv-x="520" d="M47 700h93v-461q0 -53 9 -85.5q9 -32.5 25.5 -50q16.5 -17.5 40.5 -23.5q24 -6 54 -6q24 0 44.5 5q20.5 5 35 21q14.5 16 22.5 46q8 30 8 81v473h94v-470q0 -72 -15.5 -118.5q-15.5 -46.5 -44 -73.5q-28.5 -27 -67.5 -37.5q-39 -10.5 -85 -10.5q-110 0 -162 55q-52 55 -52 178zM297 770h-72l-108 140l115 0z" />
<glyph unicode="&#218;" horiz-adv-x="520" d="M47 700h93v-461q0 -53 9 -85.5q9 -32.5 25.5 -50q16.5 -17.5 40.5 -23.5q24 -6 54 -6q24 0 44.5 5q20.5 5 35 21q14.5 16 22.5 46q8 30 8 81v473h94v-470q0 -72 -15.5 -118.5q-15.5 -46.5 -44 -73.5q-28.5 -27 -67.5 -37.5q-39 -10.5 -85 -10.5q-110 0 -162 55q-52 55 -52 178zM295 770h-72l65 140l116 0z" />
<glyph unicode="&#219;" horiz-adv-x="520" d="M47 700h93v-461q0 -53 9 -85.5q9 -32.5 25.5 -50q16.5 -17.5 40.5 -23.5q24 -6 54 -6q24 0 44.5 5q20.5 5 35 21q14.5 16 22.5 46q8 30 8 81v473h94v-470q0 -72 -15.5 -118.5q-15.5 -46.5 -44 -73.5q-28.5 -27 -67.5 -37.5q-39 -10.5 -85 -10.5q-110 0 -162 55q-52 55 -52 178zM394 770h-78l-56 76l-55 -76h-78l84 126l98 0z" />
<glyph unicode="&#220;" horiz-adv-x="520" d="M47 700h93v-461q0 -53 9 -85.5q9 -32.5 25.5 -50q16.5 -17.5 40.5 -23.5q24 -6 54 -6q24 0 44.5 5q20.5 5 35 21q14.5 16 22.5 46q8 30 8 81v473h94v-470q0 -72 -15.5 -118.5q-15.5 -46.5 -44 -73.5q-28.5 -27 -67.5 -37.5q-39 -10.5 -85 -10.5q-110 0 -162 55q-52 55 -52 178zM237 827q0 -24 -13.5 -39q-13.5 -15 -37.5 -15q-23 0 -36 15q-13 15 -13 39q0 24 13 38.5q13 14.5 36 14.5q24 0 37.5 -14.5q13.5 -14.5 13.5 -38.5zt0 0zM385 827q0 -24 -13 -39q-13 -15 -36 -15q-25 0 -38 15q-13 15 -13 39q0 24 13.5 38.5q13.5 14.5 37.5 14.5q23 0 36 -14.5t13 -38.5z" />
<glyph unicode="&#221;" horiz-adv-x="520" d="M214 266l-214 434h103l161 -341l154 341h102l-213 -433v-267h-93zM295 770h-72l65 140l116 0z" />
<glyph unicode="&#222;" horiz-adv-x="520" d="M184 257h73q57 0 80.5 32.5q23.5 32.5 23.5 97.5q0 67 -23.5 97.5q-23.5 30.5 -80.5 30.5h-73zM185 0h-90v700h90v-101h80q95 0 142.5 -49.5q47.5 -49.5 47.5 -160.5q0 -106 -48 -161q-48 -55 -150 -55l-72 0z" />
<glyph unicode="&#223;" horiz-adv-x="520" d="M225 80q11 -5 26 -9q15 -4 32 -4q20 0 36.5 8q16.5 8 28 25.5q11.5 17.5 18 46q6.5 28.5 6.5 69.5q0 46 -7.5 75q-7.5 29 -21 45.5q-13.5 16.5 -31.5 22.5q-18 6 -40 6h-34v76h28q16 0 30.5 6q14.5 6 25.5 21q11 15 17 40q6 25 6 63q0 54 -21.5 82.5q-21.5 28.5 -59.5 28.5q-29 0 -47.5 -14.5q-18.5 -14.5 -29.5 -39.5q-11 -25 -15 -59q-4 -34 -4 -72v-497h-86v482q0 67 10 118.5q10 51.5 32 86.5q22 35 58 53q36 18 89 18q34 0 63 -9.5q29 -9.5 50.5 -31q21.5 -21.5 34 -56.5q12.5 -35 12.5 -87q0 -61 -21 -101q-21 -40 -60 -60l0 -3q26 -4 46.5 -20q20.5 -16 34.5 -41q14 -25 21 -58q7 -33 7 -71q0 -50 -10 -91.5q-10 -41.5 -30.5 -72.5q-20.5 -31 -51.5 -48q-31 -17 -73 -17q-20 0 -37 2q-17 2 -32 9z" />
<glyph unicode="&#224;" horiz-adv-x="520" d="M360 76q-17 -36 -55 -61.5q-38 -25.5 -94 -25.5q-75 0 -115.5 41q-40.5 41 -40.5 118q0 81 47.5 121.5q47.5 40.5 155.5 40.5h98v48q0 31 -6.5 51q-6.5 20 -20 31.5q-13.5 11.5 -35.5 16q-22 4.5 -52 4.5q-21 0 -43 -4.5q-22 -4.5 -42 -12.5q-20 -8 -37 -18q-17 -10 -29 -22l0 100q15 9 34.5 16q19.5 7 41 11.5q21.5 4.5 44 7q22.5 2.5 42.5 2.5q51 0 87 -9q36 -9 59.5 -30q23.5 -21 34 -56q10.5 -35 10.5 -87v-359h-79zM145 161q0 -42 21 -65.5q21 -23.5 69 -23.5q63 0 92 37q29 37 29 94v44h-90q-36 0 -59 -6q-23 -6 -37 -17q-14 -11 -19.5 -27q-5.5 -16 -5.5 -36zt0 0zM309 595h-68l-100 130l107 0z" />
<glyph unicode="&#225;" horiz-adv-x="520" d="M360 76q-17 -36 -55 -61.5q-38 -25.5 -94 -25.5q-75 0 -115.5 41q-40.5 41 -40.5 118q0 81 47.5 121.5q47.5 40.5 155.5 40.5h98v48q0 31 -6.5 51q-6.5 20 -20 31.5q-13.5 11.5 -35.5 16q-22 4.5 -52 4.5q-21 0 -43 -4.5q-22 -4.5 -42 -12.5q-20 -8 -37 -18q-17 -10 -29 -22l0 100q15 9 34.5 16q19.5 7 41 11.5q21.5 4.5 44 7q22.5 2.5 42.5 2.5q51 0 87 -9q36 -9 59.5 -30q23.5 -21 34 -56q10.5 -35 10.5 -87v-359h-79zM145 161q0 -42 21 -65.5q21 -23.5 69 -23.5q63 0 92 37q29 37 29 94v44h-90q-36 0 -59 -6q-23 -6 -37 -17q-14 -11 -19.5 -27q-5.5 -16 -5.5 -36zt0 0zM269 595h-68l62 130l106 0z" />
<glyph unicode="&#226;" horiz-adv-x="520" d="M360 76q-17 -36 -55 -61.5q-38 -25.5 -94 -25.5q-75 0 -115.5 41q-40.5 41 -40.5 118q0 81 47.5 121.5q47.5 40.5 155.5 40.5h98v48q0 31 -6.5 51q-6.5 20 -20 31.5q-13.5 11.5 -35.5 16q-22 4.5 -52 4.5q-21 0 -43 -4.5q-22 -4.5 -42 -12.5q-20 -8 -37 -18q-17 -10 -29 -22l0 100q15 9 34.5 16q19.5 7 41 11.5q21.5 4.5 44 7q22.5 2.5 42.5 2.5q51 0 87 -9q36 -9 59.5 -30q23.5 -21 34 -56q10.5 -35 10.5 -87v-359h-79zM145 161q0 -42 21 -65.5q21 -23.5 69 -23.5q63 0 92 37q29 37 29 94v44h-90q-36 0 -59 -6q-23 -6 -37 -17q-14 -11 -19.5 -27q-5.5 -16 -5.5 -36zt0 0zM388 595h-71l-56 79l-56 -79h-70l82 130l89 0z" />
<glyph unicode="&#227;" horiz-adv-x="520" d="M360 76q-17 -36 -55 -61.5q-38 -25.5 -94 -25.5q-75 0 -115.5 41q-40.5 41 -40.5 118q0 81 47.5 121.5q47.5 40.5 155.5 40.5h98v48q0 31 -6.5 51q-6.5 20 -20 31.5q-13.5 11.5 -35.5 16q-22 4.5 -52 4.5q-21 0 -43 -4.5q-22 -4.5 -42 -12.5q-20 -8 -37 -18q-17 -10 -29 -22l0 100q15 9 34.5 16q19.5 7 41 11.5q21.5 4.5 44 7q22.5 2.5 42.5 2.5q51 0 87 -9q36 -9 59.5 -30q23.5 -21 34 -56q10.5 -35 10.5 -87v-359h-79zM145 161q0 -42 21 -65.5q21 -23.5 69 -23.5q63 0 92 37q29 37 29 94v44h-90q-36 0 -59 -6q-23 -6 -37 -17q-14 -11 -19.5 -27q-5.5 -16 -5.5 -36zt0 0zM388 695q-3 -49 -23.5 -73.5q-20.5 -24.5 -48.5 -24.5q-13 0 -25.5 4.5q-12.5 4.5 -35.5 18.5q-15 9 -24 15.5q-9 6.5 -20 6.5q-21 0 -27 -45l-50 14q2 46 21.5 72q19.5 26 50.5 26q16 0 30.5 -6.5q14.5 -6.5 30.5 -16.5q14 -9 25.5 -15q11.5 -6 19.5 -6q21 0 27 44z" />
<glyph unicode="&#228;" horiz-adv-x="520" d="M360 76q-17 -36 -55 -61.5q-38 -25.5 -94 -25.5q-75 0 -115.5 41q-40.5 41 -40.5 118q0 81 47.5 121.5q47.5 40.5 155.5 40.5h98v48q0 31 -6.5 51q-6.5 20 -20 31.5q-13.5 11.5 -35.5 16q-22 4.5 -52 4.5q-21 0 -43 -4.5q-22 -4.5 -42 -12.5q-20 -8 -37 -18q-17 -10 -29 -22l0 100q15 9 34.5 16q19.5 7 41 11.5q21.5 4.5 44 7q22.5 2.5 42.5 2.5q51 0 87 -9q36 -9 59.5 -30q23.5 -21 34 -56q10.5 -35 10.5 -87v-359h-79zM145 161q0 -42 21 -65.5q21 -23.5 69 -23.5q63 0 92 37q29 37 29 94v44h-90q-36 0 -59 -6q-23 -6 -37 -17q-14 -11 -19.5 -27q-5.5 -16 -5.5 -36zt0 0zM232 659q0 -23 -12.5 -37.5q-12.5 -14.5 -35.5 -14.5q-23 0 -36 14q-13 14 -13 37q0 23 13 38q13 15 36 15q23 0 35.5 -14.5q12.5 -14.5 12.5 -37.5zt0 0zM387 659q0 -23 -12.5 -37.5q-12.5 -14.5 -35.5 -14.5q-23 0 -36 14.5q-13 14.5 -13 37.5q0 23 12.5 37.5q12.5 14.5 35.5 14.5q23 0 36 -14.5t13 -37.5z" />
<glyph unicode="&#229;" horiz-adv-x="520" d="M360 76q-17 -36 -55 -61.5q-38 -25.5 -94 -25.5q-75 0 -115.5 41q-40.5 41 -40.5 118q0 81 47.5 121.5q47.5 40.5 155.5 40.5h98v48q0 31 -6.5 51q-6.5 20 -20 31.5q-13.5 11.5 -35.5 16q-22 4.5 -52 4.5q-21 0 -43 -4.5q-22 -4.5 -42 -12.5q-20 -8 -37 -18q-17 -10 -29 -22l0 100q15 9 34.5 16q19.5 7 41 11.5q21.5 4.5 44 7q22.5 2.5 42.5 2.5q51 0 87 -9q36 -9 59.5 -30q23.5 -21 34 -56q10.5 -35 10.5 -87v-359h-79zM145 161q0 -42 21 -65.5q21 -23.5 69 -23.5q63 0 92 37q29 37 29 94v44h-90q-36 0 -59 -6q-23 -6 -37 -17q-14 -11 -19.5 -27q-5.5 -16 -5.5 -36zt0 0zM261 633q16 0 26 11.5q10 11.5 10 29.5q0 19 -10 30.5q-10 11.5 -26 11.5q-17 0 -26.5 -11.5q-9.5 -11.5 -9.5 -30.5q0 -18 9.5 -29.5q9.5 -11.5 26.5 -11.5zt0 0zM261 589q-34 0 -58.5 21q-24.5 21 -24.5 63q0 42 24.5 64.5q24.5 22.5 58.5 22.5q34 0 58.5 -22.5q24.5 -22.5 24.5 -64.5q0 -42 -24.5 -63t-58.5 -21z" />
<glyph unicode="&#230;" horiz-adv-x="520" d="M479 23q-13 -11 -34.5 -20q-21.5 -9 -52.5 -9q-52 0 -87 21q-35 21 -61 66q-29 -54 -58.5 -70.5q-29.5 -16.5 -60.5 -16.5q-52 0 -83 38q-31 38 -31 127q0 79 36.5 118.5q36.5 39.5 118.5 39.5q16 0 26 -2q10 -2 17 -3l0 55q0 54 -14.5 75.5q-14.5 21.5 -48.5 21.5q-26 0 -55.5 -7q-29.5 -7 -53.5 -18l0 76q26 11 57.5 18q31.5 7 63.5 7q42 0 66 -14.5q24 -14.5 41 -45.5q21 29 44 44.5q23 15.5 53 15.5q78 0 111.5 -59q33.5 -59 33.5 -186v-51h-213q2 -91 26.5 -132.5q24.5 -41.5 72.5 -41.5q31 0 50 8q19 8 36 19zM209 244q-6 1 -12.5 2.5q-6.5 1.5 -17.5 1.5q-49 0 -65 -20q-16 -20 -16 -62q0 -96 49 -96q30 0 46 29q16 29 16 83zM423 314q0 83 -15 116.5q-15 33.5 -44 33.5q-31 0 -47.5 -34.5q-16.5 -34.5 -21.5 -115.5z" />
<glyph unicode="&#231;" horiz-adv-x="520" d="M194 -156q11 -7 21.5 -9q10.5 -2 24.5 -2q15 0 27 9.5q12 9.5 12 33.5q0 11 -3.5 18q-3.5 7 -9.5 10.5q-6 3.5 -13 4.5q-7 1 -14 1q-5 0 -13.5 0q-8.5 0 -13.5 -2l9 89q-40 9 -71.5 29q-31.5 20 -53 53.5q-21.5 33.5 -33 82q-11.5 48.5 -11.5 113.5q0 137 64.5 201.5q64.5 64.5 180.5 64.5q46 0 80 -11q34 -11 62 -26l0 -98q-28 20 -64.5 36.5q-36.5 16.5 -78.5 16.5q-35 0 -63.5 -9.5q-28.5 -9.5 -48.5 -31.5q-20 -22 -30.5 -58.5q-10.5 -36.5 -10.5 -90.5q0 -55 10.5 -92.5q10.5 -37.5 31.5 -61q21 -23.5 52.5 -33.5q31.5 -10 73.5 -10q37 0 71.5 15.5q34.5 15.5 60.5 40.5l0 -94q-26 -20 -63 -32.5q-37 -12.5 -83 -12.5q-8 0 -15 0.5q-7 0.5 -14 0.5l-4 -33q16 -1 30.5 -4.5q14.5 -3.5 25 -13q10.5 -9.5 16.5 -25q6 -15.5 6 -40.5q0 -43 -25 -69q-25 -26 -68 -26q-20 0 -34.5 3q-14.5 3 -27.5 10z" />
<glyph unicode="&#232;" horiz-adv-x="520" d="M141 235q1 -167 147 -167q46 0 85 17.5q39 17.5 65 41.5l0 -90q-8 -7 -23 -15.5q-15 -8.5 -35 -15.5q-20 -7 -45 -12q-25 -5 -53 -5q-117 0 -173.5 66q-56.5 66 -56.5 219q0 131 55 199q55 68 160 68q56 0 94.5 -18q38.5 -18 62.5 -51q24 -33 34.5 -79.5q10.5 -46.5 10.5 -102.5v-55zM266 463q-60 0 -92.5 -37.5q-32.5 -37.5 -32.5 -117.5l240 0q0 80 -26.5 117.5q-26.5 37.5 -88.5 37.5zt0 0zM309 595h-68l-100 130l107 0z" />
<glyph unicode="&#233;" horiz-adv-x="520" d="M141 235q1 -167 147 -167q46 0 85 17.5q39 17.5 65 41.5l0 -90q-8 -7 -23 -15.5q-15 -8.5 -35 -15.5q-20 -7 -45 -12q-25 -5 -53 -5q-117 0 -173.5 66q-56.5 66 -56.5 219q0 131 55 199q55 68 160 68q56 0 94.5 -18q38.5 -18 62.5 -51q24 -33 34.5 -79.5q10.5 -46.5 10.5 -102.5v-55zM266 463q-60 0 -92.5 -37.5q-32.5 -37.5 -32.5 -117.5l240 0q0 80 -26.5 117.5q-26.5 37.5 -88.5 37.5zt0 0zM269 595h-68l62 130l106 0z" />
<glyph unicode="&#234;" horiz-adv-x="520" d="M141 235q1 -167 147 -167q46 0 85 17.5q39 17.5 65 41.5l0 -90q-8 -7 -23 -15.5q-15 -8.5 -35 -15.5q-20 -7 -45 -12q-25 -5 -53 -5q-117 0 -173.5 66q-56.5 66 -56.5 219q0 131 55 199q55 68 160 68q56 0 94.5 -18q38.5 -18 62.5 -51q24 -33 34.5 -79.5q10.5 -46.5 10.5 -102.5v-55zM266 463q-60 0 -92.5 -37.5q-32.5 -37.5 -32.5 -117.5l240 0q0 80 -26.5 117.5q-26.5 37.5 -88.5 37.5zt0 0zM388 595h-71l-56 79l-56 -79h-70l82 130l89 0z" />
<glyph unicode="&#235;" horiz-adv-x="520" d="M141 235q1 -167 147 -167q46 0 85 17.5q39 17.5 65 41.5l0 -90q-8 -7 -23 -15.5q-15 -8.5 -35 -15.5q-20 -7 -45 -12q-25 -5 -53 -5q-117 0 -173.5 66q-56.5 66 -56.5 219q0 131 55 199q55 68 160 68q56 0 94.5 -18q38.5 -18 62.5 -51q24 -33 34.5 -79.5q10.5 -46.5 10.5 -102.5v-55zM266 463q-60 0 -92.5 -37.5q-32.5 -37.5 -32.5 -117.5l240 0q0 80 -26.5 117.5q-26.5 37.5 -88.5 37.5zt0 0zM232 659q0 -23 -12.5 -37.5q-12.5 -14.5 -35.5 -14.5q-23 0 -36 14q-13 14 -13 37q0 23 13 38q13 15 36 15q23 0 35.5 -14.5q12.5 -14.5 12.5 -37.5zt0 0zM387 659q0 -23 -12.5 -37.5q-12.5 -14.5 -35.5 -14.5q-23 0 -36 14.5q-13 14.5 -13 37.5q0 23 12.5 37.5q12.5 14.5 35.5 14.5q23 0 36 -14.5t13 -37.5z" />
<glyph unicode="&#236;" horiz-adv-x="520" d="M60 0v82h186v366h-186v82h274v-448h152v-82zM309 595h-68l-100 130l107 0z" />
<glyph unicode="&#237;" horiz-adv-x="520" d="M60 0v82h186v366h-186v82h274v-448h152v-82zM269 595h-68l62 130l106 0z" />
<glyph unicode="&#238;" horiz-adv-x="520" d="M60 0v82h186v366h-186v82h274v-448h152v-82zM388 595h-71l-56 79l-56 -79h-70l82 130l89 0z" />
<glyph unicode="&#239;" horiz-adv-x="520" d="M60 0v82h186v366h-186v82h274v-448h152v-82zM232 659q0 -23 -12.5 -37.5q-12.5 -14.5 -35.5 -14.5q-23 0 -36 14q-13 14 -13 37q0 23 13 38q13 15 36 15q23 0 35.5 -14.5q12.5 -14.5 12.5 -37.5zt0 0zM387 659q0 -23 -12.5 -37.5q-12.5 -14.5 -35.5 -14.5q-23 0 -36 14.5q-13 14.5 -13 37.5q0 23 12.5 37.5q12.5 14.5 35.5 14.5q23 0 36 -14.5t13 -37.5z" />
<glyph unicode="&#240;" horiz-adv-x="520" d="M330 652q36 -41 59 -87.5q23 -46.5 36.5 -96.5q13.5 -50 19 -104q5.5 -54 5.5 -110q0 -71 -13.5 -120.5q-13.5 -49.5 -38.5 -80.5q-25 -31 -60 -45q-35 -14 -78 -14q-99 0 -144.5 67.5q-45.5 67.5 -45.5 192.5q0 132 45.5 194q45.5 62 126.5 62q23 0 49 -7q26 -7 49 -38l2 2q-11 38 -28 72q-17 34 -53 69l-88 -55l-29 45l73 45q-29 20 -52.5 30q-23.5 10 -45.5 16l33 69q35 -9 68 -24q33 -15 69 -44l93 58l29 -45zM260 70q26 0 45.5 8.5q19.5 8.5 32 29.5q12.5 21 19 56.5q6.5 35.5 6.5 89.5q0 53 -6 87.5q-6 34.5 -18.5 55q-12.5 20.5 -32 29q-19.5 8.5 -46.5 8.5q-25 0 -44 -7.5q-19 -7.5 -32 -28q-13 -20.5 -20 -55.5q-7 -35 -7 -89q0 -55 7 -90.5q7 -35.5 20.5 -56.5q13.5 -21 32.5 -29t43 -8z" />
<glyph unicode="&#241;" horiz-adv-x="520" d="M69 530h83l4 -84q44 95 145 95q40 0 69.5 -10q29.5 -10 49 -33.5q19.5 -23.5 28.5 -62.5q9 -39 9 -96v-339h-88v319q0 40 -4.5 68q-4.5 28 -16 44.5q-11.5 16.5 -31 24q-19.5 7.5 -49.5 7.5q-57 0 -84 -38.5q-27 -38.5 -27 -107.5v-317h-88zM388 695q-3 -49 -23.5 -73.5q-20.5 -24.5 -48.5 -24.5q-13 0 -25.5 4.5q-12.5 4.5 -35.5 18.5q-15 9 -24 15.5q-9 6.5 -20 6.5q-21 0 -27 -45l-50 14q2 46 21.5 72q19.5 26 50.5 26q16 0 30.5 -6.5q14.5 -6.5 30.5 -16.5q14 -9 25.5 -15q11.5 -6 19.5 -6q21 0 27 44z" />
<glyph unicode="&#242;" horiz-adv-x="520" d="M43 267q0 138 60.5 206q60.5 68 163.5 68q100 0 155 -66q55 -66 55 -210q0 -75 -16 -127.5q-16 -52.5 -44.5 -85.5q-28.5 -33 -68.5 -48q-40 -15 -88 -15q-109 0 -163 72.5q-54 72.5 -54 205.5zt0 0zM132 264q0 -94 33 -145q33 -51 99 -51q61 0 92.5 46.5q31.5 46.5 31.5 149.5v3q0 100 -31.5 148q-31.5 48 -96.5 48q-128 0 -128 -196zM309 595h-68l-100 130l107 0z" />
<glyph unicode="&#243;" horiz-adv-x="520" d="M43 267q0 138 60.5 206q60.5 68 163.5 68q100 0 155 -66q55 -66 55 -210q0 -75 -16 -127.5q-16 -52.5 -44.5 -85.5q-28.5 -33 -68.5 -48q-40 -15 -88 -15q-109 0 -163 72.5q-54 72.5 -54 205.5zt0 0zM132 264q0 -94 33 -145q33 -51 99 -51q61 0 92.5 46.5q31.5 46.5 31.5 149.5v3q0 100 -31.5 148q-31.5 48 -96.5 48q-128 0 -128 -196zM269 595h-68l62 130l106 0z" />
<glyph unicode="&#244;" horiz-adv-x="520" d="M43 267q0 138 60.5 206q60.5 68 163.5 68q100 0 155 -66q55 -66 55 -210q0 -75 -16 -127.5q-16 -52.5 -44.5 -85.5q-28.5 -33 -68.5 -48q-40 -15 -88 -15q-109 0 -163 72.5q-54 72.5 -54 205.5zt0 0zM132 264q0 -94 33 -145q33 -51 99 -51q61 0 92.5 46.5q31.5 46.5 31.5 149.5v3q0 100 -31.5 148q-31.5 48 -96.5 48q-128 0 -128 -196zM388 595h-71l-56 79l-56 -79h-70l82 130l89 0z" />
<glyph unicode="&#245;" horiz-adv-x="520" d="M43 267q0 138 60.5 206q60.5 68 163.5 68q100 0 155 -66q55 -66 55 -210q0 -75 -16 -127.5q-16 -52.5 -44.5 -85.5q-28.5 -33 -68.5 -48q-40 -15 -88 -15q-109 0 -163 72.5q-54 72.5 -54 205.5zt0 0zM132 264q0 -94 33 -145q33 -51 99 -51q61 0 92.5 46.5q31.5 46.5 31.5 149.5v3q0 100 -31.5 148q-31.5 48 -96.5 48q-128 0 -128 -196zM388 695q-3 -49 -23.5 -73.5q-20.5 -24.5 -48.5 -24.5q-13 0 -25.5 4.5q-12.5 4.5 -35.5 18.5q-15 9 -24 15.5q-9 6.5 -20 6.5q-21 0 -27 -45l-50 14q2 46 21.5 72q19.5 26 50.5 26q16 0 30.5 -6.5q14.5 -6.5 30.5 -16.5q14 -9 25.5 -15q11.5 -6 19.5 -6q21 0 27 44z" />
<glyph unicode="&#246;" horiz-adv-x="520" d="M43 267q0 138 60.5 206q60.5 68 163.5 68q100 0 155 -66q55 -66 55 -210q0 -75 -16 -127.5q-16 -52.5 -44.5 -85.5q-28.5 -33 -68.5 -48q-40 -15 -88 -15q-109 0 -163 72.5q-54 72.5 -54 205.5zt0 0zM132 264q0 -94 33 -145q33 -51 99 -51q61 0 92.5 46.5q31.5 46.5 31.5 149.5v3q0 100 -31.5 148q-31.5 48 -96.5 48q-128 0 -128 -196zM232 659q0 -23 -12.5 -37.5q-12.5 -14.5 -35.5 -14.5q-23 0 -36 14q-13 14 -13 37q0 23 13 38q13 15 36 15q23 0 35.5 -14.5q12.5 -14.5 12.5 -37.5zt0 0zM387 659q0 -23 -12.5 -37.5q-12.5 -14.5 -35.5 -14.5q-23 0 -36 14.5q-13 14.5 -13 37.5q0 23 12.5 37.5q12.5 14.5 35.5 14.5q23 0 36 -14.5t13 -37.5z" />
<glyph unicode="&#247;" horiz-adv-x="520" d="M325 151q0 -33 -17 -50q-17 -17 -47 -17q-29 0 -46.5 17.5q-17.5 17.5 -17.5 49.5q0 32 17.5 49q17.5 17 46.5 17q29 0 46.5 -17.5q17.5 -17.5 17.5 -48.5zt0 0zM325 497q0 -32 -17 -49q-17 -17 -47 -17q-29 0 -46.5 17q-17.5 17 -17.5 49q0 32 17.5 49q17.5 17 46.5 17q29 0 46.5 -17q17.5 -17 17.5 -49zt0 0zM48 284v79h425l0 -79z" />
<glyph unicode="&#248;" horiz-adv-x="520" d="M43 267q0 138 60.5 206q60.5 68 163.5 68q72 0 121 -34l22 36l38 -25l-26 -43q27 -34 41 -86q14 -52 14 -124q0 -75 -16 -127.5q-16 -52.5 -44.5 -85.5q-28.5 -33 -68.5 -48q-40 -15 -88 -15q-35 0 -64 8q-29 8 -52 22l-32 -52l-38 25l34 57q-65 71 -65 218zt0 0zM132 264q0 -84 26 -134l184 302q-30 31 -82 31q-128 0 -128 -196zM388 267q0 77 -19 122l-181 -296q29 -25 76 -25q61 0 92.5 46.5q31.5 46.5 31.5 149.5z" />
<glyph unicode="&#249;" horiz-adv-x="520" d="M363 84q-22 -48 -57.5 -71.5q-35.5 -23.5 -89.5 -23.5q-74 0 -112 43.5q-38 43.5 -38 142.5v355h88v-329q-1 -72 21 -102.5q22 -30.5 76 -30.5q60 0 85.5 36q25.5 36 25.5 114v312h88v-530h-83zM309 595h-68l-100 130l107 0z" />
<glyph unicode="&#250;" horiz-adv-x="520" d="M363 84q-22 -48 -57.5 -71.5q-35.5 -23.5 -89.5 -23.5q-74 0 -112 43.5q-38 43.5 -38 142.5v355h88v-329q-1 -72 21 -102.5q22 -30.5 76 -30.5q60 0 85.5 36q25.5 36 25.5 114v312h88v-530h-83zM269 595h-68l62 130l106 0z" />
<glyph unicode="&#251;" horiz-adv-x="520" d="M363 84q-22 -48 -57.5 -71.5q-35.5 -23.5 -89.5 -23.5q-74 0 -112 43.5q-38 43.5 -38 142.5v355h88v-329q-1 -72 21 -102.5q22 -30.5 76 -30.5q60 0 85.5 36q25.5 36 25.5 114v312h88v-530h-83zM388 595h-71l-56 79l-56 -79h-70l82 130l89 0z" />
<glyph unicode="&#252;" horiz-adv-x="520" d="M363 84q-22 -48 -57.5 -71.5q-35.5 -23.5 -89.5 -23.5q-74 0 -112 43.5q-38 43.5 -38 142.5v355h88v-329q-1 -72 21 -102.5q22 -30.5 76 -30.5q60 0 85.5 36q25.5 36 25.5 114v312h88v-530h-83zM232 659q0 -23 -12.5 -37.5q-12.5 -14.5 -35.5 -14.5q-23 0 -36 14q-13 14 -13 37q0 23 13 38q13 15 36 15q23 0 35.5 -14.5q12.5 -14.5 12.5 -37.5zt0 0zM387 659q0 -23 -12.5 -37.5q-12.5 -14.5 -35.5 -14.5q-23 0 -36 14.5q-13 14.5 -13 37.5q0 23 12.5 37.5q12.5 14.5 35.5 14.5q23 0 36 -14.5t13 -37.5z" />
<glyph unicode="&#253;" horiz-adv-x="520" d="M148 -104q13 0 25 3q12 3 23.5 14.5q11.5 11.5 23 33q11.5 21.5 23.5 58.5l-222 525h100l159 -404l121 404h92l-163 -512q-24 -74 -46 -115q-22 -41 -44 -61q-22 -20 -43.5 -24.5q-21.5 -4.5 -44.5 -4.5q-18 0 -33.5 2.5q-15.5 2.5 -26.5 8.5l1 88q22 -16 55 -16zt0 0zM269 595h-68l62 130l106 0z" />
<glyph unicode="&#254;" horiz-adv-x="520" d="M59 750h88v-311q19 51 55.5 76.5q36.5 25.5 97.5 25.5q91 0 134 -61.5q43 -61.5 43 -203.5q0 -77 -11.5 -131.5q-11.5 -54.5 -35 -89q-23.5 -34.5 -58.5 -50.5q-35 -16 -82 -16q-60 0 -93.5 24.5q-33.5 24.5 -49.5 57.5l0 -252h-88zM147 216q0 -69 30 -108.5q30 -39.5 90 -39.5q66 0 93.5 46q27.5 46 27.5 157q0 54 -7.5 90.5q-7.5 36.5 -22.5 59q-15 22.5 -37.5 32q-22.5 9.5 -52.5 9.5q-32 0 -55 -11q-23 -11 -37.5 -30.5q-14.5 -19.5 -21.5 -46q-7 -26.5 -7 -57.5z" />
<glyph unicode="&#255;" horiz-adv-x="520" d="M148 -104q13 0 25 3q12 3 23.5 14.5q11.5 11.5 23 33q11.5 21.5 23.5 58.5l-222 525h100l159 -404l121 404h92l-163 -512q-24 -74 -46 -115q-22 -41 -44 -61q-22 -20 -43.5 -24.5q-21.5 -4.5 -44.5 -4.5q-18 0 -33.5 2.5q-15.5 2.5 -26.5 8.5l1 88q22 -16 55 -16zt0 0zM232 659q0 -23 -12.5 -37.5q-12.5 -14.5 -35.5 -14.5q-23 0 -36 14q-13 14 -13 37q0 23 13 38q13 15 36 15q23 0 35.5 -14.5q12.5 -14.5 12.5 -37.5zt0 0zM387 659q0 -23 -12.5 -37.5q-12.5 -14.5 -35.5 -14.5q-23 0 -36 14.5q-13 14.5 -13 37.5q0 23 12.5 37.5q12.5 14.5 35.5 14.5q23 0 36 -14.5t13 -37.5z" />
<glyph unicode="&#256;" horiz-adv-x="520" d="M363 184h-213l-48 -184h-95l202 700h101l203 -700h-100zM172 268h169l-85 316zM385 790h-249v70l249 0z" />
<glyph unicode="&#257;" horiz-adv-x="520" d="M360 76q-17 -36 -55 -61.5q-38 -25.5 -94 -25.5q-75 0 -115.5 41q-40.5 41 -40.5 118q0 81 47.5 121.5q47.5 40.5 155.5 40.5h98v48q0 31 -6.5 51q-6.5 20 -20 31.5q-13.5 11.5 -35.5 16q-22 4.5 -52 4.5q-21 0 -43 -4.5q-22 -4.5 -42 -12.5q-20 -8 -37 -18q-17 -10 -29 -22l0 100q15 9 34.5 16q19.5 7 41 11.5q21.5 4.5 44 7q22.5 2.5 42.5 2.5q51 0 87 -9q36 -9 59.5 -30q23.5 -21 34 -56q10.5 -35 10.5 -87v-359h-79zM145 161q0 -42 21 -65.5q21 -23.5 69 -23.5q63 0 92 37q29 37 29 94v44h-90q-36 0 -59 -6q-23 -6 -37 -17q-14 -11 -19.5 -27q-5.5 -16 -5.5 -36zt0 0zM375 623h-228v69l228 0z" />
<glyph unicode="&#258;" horiz-adv-x="520" d="M363 184h-213l-48 -184h-95l202 700h101l203 -700h-100zM172 268h169l-85 316zM388 885q-6 -62 -41.5 -92.5q-35.5 -30.5 -86.5 -30.5q-51 0 -86 31q-35 31 -42 92l60 13q3 -12 6.5 -24q3.5 -12 11 -21q7.5 -9 19.5 -15q12 -6 31 -6q19 0 31 6q12 6 19.5 15q7.5 9 11.5 21q4 12 6 24z" />
<glyph unicode="&#259;" horiz-adv-x="520" d="M360 76q-17 -36 -55 -61.5q-38 -25.5 -94 -25.5q-75 0 -115.5 41q-40.5 41 -40.5 118q0 81 47.5 121.5q47.5 40.5 155.5 40.5h98v48q0 31 -6.5 51q-6.5 20 -20 31.5q-13.5 11.5 -35.5 16q-22 4.5 -52 4.5q-21 0 -43 -4.5q-22 -4.5 -42 -12.5q-20 -8 -37 -18q-17 -10 -29 -22l0 100q15 9 34.5 16q19.5 7 41 11.5q21.5 4.5 44 7q22.5 2.5 42.5 2.5q51 0 87 -9q36 -9 59.5 -30q23.5 -21 34 -56q10.5 -35 10.5 -87v-359h-79zM145 161q0 -42 21 -65.5q21 -23.5 69 -23.5q63 0 92 37q29 37 29 94v44h-90q-36 0 -59 -6q-23 -6 -37 -17q-14 -11 -19.5 -27q-5.5 -16 -5.5 -36zt0 0zM384 713q-7 -62 -41 -91.5q-34 -29.5 -82 -29.5q-48 0 -81.5 29.5q-33.5 29.5 -41.5 91.5l60 14q2 -12 5.5 -24.5q3.5 -12.5 11 -22.5q7.5 -10 18.5 -16q11 -6 28 -6q17 0 28 6q11 6 18.5 16q7.5 10 11 22.5q3.5 12.5 5.5 24.5z" />
<glyph unicode="&#260;" horiz-adv-x="520" d="M363 184h-213l-48 -184h-95l202 700h101l203 -700h-16q-27 -25 -44.5 -55.5q-17.5 -30.5 -17.5 -72.5q0 -20 12.5 -32.5q12.5 -12.5 32.5 -12.5q23 0 46 12l0 -59q-14 -7 -29.5 -11q-15.5 -4 -37.5 -4q-48 0 -71 24.5q-23 24.5 -23 66.5q0 48 24.5 82q24.5 34 55.5 62l-32 0zM172 268h169l-85 316z" />
<glyph unicode="&#261;" horiz-adv-x="520" d="M360 76q-17 -36 -55 -61.5q-38 -25.5 -94 -25.5q-75 0 -115.5 41q-40.5 41 -40.5 118q0 81 47.5 121.5q47.5 40.5 155.5 40.5h98v48q0 31 -6.5 51q-6.5 20 -20 31.5q-13.5 11.5 -35.5 16q-22 4.5 -52 4.5q-21 0 -43 -4.5q-22 -4.5 -42 -12.5q-20 -8 -37 -18q-17 -10 -29 -22l0 100q15 9 34.5 16q19.5 7 41 11.5q21.5 4.5 44 7q22.5 2.5 42.5 2.5q51 0 87 -9q36 -9 59.5 -30q23.5 -21 34 -56q10.5 -35 10.5 -87v-359h-29q-25 -23 -40.5 -52q-15.5 -29 -15.5 -68q0 -20 10.5 -31.5q10.5 -11.5 29.5 -11.5q11 0 22 3q11 3 22 11l0 -56q-26 -16 -64 -16q-43 0 -65 23q-22 23 -22 62q0 48 23 80.5q23 32.5 51 55.5l-1 0zM145 161q0 -42 21 -65.5q21 -23.5 69 -23.5q63 0 92 37q29 37 29 94v44h-90q-36 0 -59 -6q-23 -6 -37 -17q-14 -11 -19.5 -27t-5.5 -36z" />
<glyph unicode="&#262;" horiz-adv-x="520" d="M462 572q-23 19 -63.5 35q-40.5 16 -93.5 16q-42 0 -73.5 -13.5q-31.5 -13.5 -53 -45q-21.5 -31.5 -32 -82q-10.5 -50.5 -10.5 -123.5q0 -81 11.5 -135q11.5 -54 34 -86.5q22.5 -32.5 55 -46q32.5 -13.5 73.5 -13.5q29 0 54.5 6q25.5 6 47 14.5q21.5 8.5 37.5 17.5q16 9 26 16l0 -97q-21 -14 -64.5 -28.5q-43.5 -14.5 -102.5 -14.5q-69 0 -120 20q-51 20 -84.5 63.5q-33.5 43.5 -49.5 111.5q-16 68 -16 163q0 189 66 273.5q66 84.5 201 84.5q57 0 96 -11.5q39 -11.5 61 -19.5zM295 770h-72l65 140l116 0z" />
<glyph unicode="&#263;" horiz-adv-x="520" d="M439 406q-28 20 -64.5 36.5q-36.5 16.5 -78.5 16.5q-35 0 -63.5 -9.5q-28.5 -9.5 -48.5 -31.5q-20 -22 -30.5 -58.5q-10.5 -36.5 -10.5 -90.5q0 -55 10.5 -92.5q10.5 -37.5 31.5 -61q21 -23.5 52.5 -33.5q31.5 -10 73.5 -10q37 0 71.5 15.5q34.5 15.5 60.5 40.5l0 -94q-26 -20 -63 -32.5q-37 -12.5 -83 -12.5q-57 0 -102 15q-45 15 -77 48.5q-32 33.5 -49 88q-17 54.5 -17 134.5q0 137 64.5 201.5q64.5 64.5 180.5 64.5q46 0 80 -11q34 -11 62 -26zM269 595h-68l62 130l106 0z" />
<glyph unicode="&#264;" horiz-adv-x="520" d="M462 572q-23 19 -63.5 35q-40.5 16 -93.5 16q-42 0 -73.5 -13.5q-31.5 -13.5 -53 -45q-21.5 -31.5 -32 -82q-10.5 -50.5 -10.5 -123.5q0 -81 11.5 -135q11.5 -54 34 -86.5q22.5 -32.5 55 -46q32.5 -13.5 73.5 -13.5q29 0 54.5 6q25.5 6 47 14.5q21.5 8.5 37.5 17.5q16 9 26 16l0 -97q-21 -14 -64.5 -28.5q-43.5 -14.5 -102.5 -14.5q-69 0 -120 20q-51 20 -84.5 63.5q-33.5 43.5 -49.5 111.5q-16 68 -16 163q0 189 66 273.5q66 84.5 201 84.5q57 0 96 -11.5q39 -11.5 61 -19.5zM414 770h-78l-56 76l-55 -76h-78l84 126l98 0z" />
<glyph unicode="&#265;" horiz-adv-x="520" d="M439 406q-28 20 -64.5 36.5q-36.5 16.5 -78.5 16.5q-35 0 -63.5 -9.5q-28.5 -9.5 -48.5 -31.5q-20 -22 -30.5 -58.5q-10.5 -36.5 -10.5 -90.5q0 -55 10.5 -92.5q10.5 -37.5 31.5 -61q21 -23.5 52.5 -33.5q31.5 -10 73.5 -10q37 0 71.5 15.5q34.5 15.5 60.5 40.5l0 -94q-26 -20 -63 -32.5q-37 -12.5 -83 -12.5q-57 0 -102 15q-45 15 -77 48.5q-32 33.5 -49 88q-17 54.5 -17 134.5q0 137 64.5 201.5q64.5 64.5 180.5 64.5q46 0 80 -11q34 -11 62 -26zM398 595h-71l-56 79l-56 -79h-70l82 130l89 0z" />
<glyph unicode="&#266;" horiz-adv-x="520" d="M462 572q-23 19 -63.5 35q-40.5 16 -93.5 16q-42 0 -73.5 -13.5q-31.5 -13.5 -53 -45q-21.5 -31.5 -32 -82q-10.5 -50.5 -10.5 -123.5q0 -81 11.5 -135q11.5 -54 34 -86.5q22.5 -32.5 55 -46q32.5 -13.5 73.5 -13.5q29 0 54.5 6q25.5 6 47 14.5q21.5 8.5 37.5 17.5q16 9 26 16l0 -97q-21 -14 -64.5 -28.5q-43.5 -14.5 -102.5 -14.5q-69 0 -120 20q-51 20 -84.5 63.5q-33.5 43.5 -49.5 111.5q-16 68 -16 163q0 189 66 273.5q66 84.5 201 84.5q57 0 96 -11.5q39 -11.5 61 -19.5zM316 835q0 -28 -14.5 -45q-14.5 -17 -41.5 -17q-26 0 -41 17q-15 17 -15 45q0 27 15 43.5q15 16.5 41 16.5q27 0 41.5 -16.5t14.5 -43.5z" />
<glyph unicode="&#267;" horiz-adv-x="520" d="M439 406q-28 20 -64.5 36.5q-36.5 16.5 -78.5 16.5q-35 0 -63.5 -9.5q-28.5 -9.5 -48.5 -31.5q-20 -22 -30.5 -58.5q-10.5 -36.5 -10.5 -90.5q0 -55 10.5 -92.5q10.5 -37.5 31.5 -61q21 -23.5 52.5 -33.5q31.5 -10 73.5 -10q37 0 71.5 15.5q34.5 15.5 60.5 40.5l0 -94q-26 -20 -63 -32.5q-37 -12.5 -83 -12.5q-57 0 -102 15q-45 15 -77 48.5q-32 33.5 -49 88q-17 54.5 -17 134.5q0 137 64.5 201.5q64.5 64.5 180.5 64.5q46 0 80 -11q34 -11 62 -26zM332 662q0 -24 -14 -39.5q-14 -15.5 -38 -15.5q-23 0 -37 15.5q-14 15.5 -14 39.5q0 24 14 39q14 15 37 15q24 0 38 -15t14 -39z" />
<glyph unicode="&#268;" horiz-adv-x="520" d="M462 572q-23 19 -63.5 35q-40.5 16 -93.5 16q-42 0 -73.5 -13.5q-31.5 -13.5 -53 -45q-21.5 -31.5 -32 -82q-10.5 -50.5 -10.5 -123.5q0 -81 11.5 -135q11.5 -54 34 -86.5q22.5 -32.5 55 -46q32.5 -13.5 73.5 -13.5q29 0 54.5 6q25.5 6 47 14.5q21.5 8.5 37.5 17.5q16 9 26 16l0 -97q-21 -14 -64.5 -28.5q-43.5 -14.5 -102.5 -14.5q-69 0 -120 20q-51 20 -84.5 63.5q-33.5 43.5 -49.5 111.5q-16 68 -16 163q0 189 66 273.5q66 84.5 201 84.5q57 0 96 -11.5q39 -11.5 61 -19.5zM309 770h-98l-85 126h78l56 -76l56 76l78 0z" />
<glyph unicode="&#269;" horiz-adv-x="520" d="M439 406q-28 20 -64.5 36.5q-36.5 16.5 -78.5 16.5q-35 0 -63.5 -9.5q-28.5 -9.5 -48.5 -31.5q-20 -22 -30.5 -58.5q-10.5 -36.5 -10.5 -90.5q0 -55 10.5 -92.5q10.5 -37.5 31.5 -61q21 -23.5 52.5 -33.5q31.5 -10 73.5 -10q37 0 71.5 15.5q34.5 15.5 60.5 40.5l0 -94q-26 -20 -63 -32.5q-37 -12.5 -83 -12.5q-57 0 -102 15q-45 15 -77 48.5q-32 33.5 -49 88q-17 54.5 -17 134.5q0 137 64.5 201.5q64.5 64.5 180.5 64.5q46 0 80 -11q34 -11 62 -26zM306 595h-89l-82 130h70l56 -79l56 79l71 0z" />
<glyph unicode="&#270;" horiz-adv-x="520" d="M50 698q19 2 37.5 3.5q18.5 1.5 38.5 3q20 1.5 42.5 2.5q22.5 1 49.5 1q75 0 125.5 -22q50.5 -22 80.5 -66q30 -44 43 -110.5q13 -66.5 13 -156.5q0 -98 -17 -167q-17 -69 -51.5 -112q-34.5 -43 -86 -62.5q-51.5 -19.5 -121.5 -19.5q-53 0 -89.5 4.5q-36.5 4.5 -64.5 8.5zM143 79q14 -1 28.5 -1.5q14.5 -0.5 30.5 -0.5q48 0 82.5 13.5q34.5 13.5 56.5 45q22 31.5 32.5 82q10.5 50.5 10.5 124.5q0 78 -8.5 131.5q-8.5 53.5 -28 86.5q-19.5 33 -51.5 48q-32 15 -80 15q-20 0 -38 -1q-18 -1 -35 -2zM309 770h-98l-85 126h78l56 -76l56 76l78 0z" />
<glyph unicode="&#271;" horiz-adv-x="520" d="M278 93q-11 -49 -34.5 -76.5q-23.5 -27.5 -70.5 -27.5q-36 0 -63.5 14.5q-27.5 14.5 -45.5 46.5q-18 32 -27.5 83.5q-9.5 51.5 -9.5 125.5q0 76 9.5 129.5q9.5 53.5 28 87.5q18.5 34 47 49.5q28.5 15.5 66.5 15.5q42 0 63 -21q21 -21 35 -48l0 278h88v-750h-81zM199 68q42 0 59.5 45.5q17.5 45.5 17.5 121.5v83q0 66 -18 105.5q-18 39.5 -63 39.5q-21 0 -35.5 -10q-14.5 -10 -24.5 -33q-10 -23 -14.5 -61q-4.5 -38 -4.5 -94q0 -107 20 -152q20 -45 63 -45zt0 0zM460 548h-63l46 202l91 0z" />
<glyph unicode="&#272;" horiz-adv-x="520" d="M50 322h-40v82h40v294q19 2 37.5 3.5q18.5 1.5 38.5 3q20 1.5 42.5 2.5q22.5 1 49.5 1q75 0 125.5 -22q50.5 -22 80.5 -66q30 -44 43 -110.5q13 -66.5 13 -156.5q0 -98 -17 -167q-17 -69 -51.5 -112q-34.5 -43 -86 -62.5q-51.5 -19.5 -121.5 -19.5q-53 0 -89.5 4.5q-36.5 4.5 -64.5 8.5zM143 79q14 -1 28.5 -1.5q14.5 -0.5 30.5 -0.5q48 0 82.5 13.5q34.5 13.5 56.5 45q22 31.5 32.5 82q10.5 50.5 10.5 124.5q0 78 -8.5 131.5q-8.5 53.5 -28 86.5q-19.5 33 -51.5 48q-32 15 -80 15q-20 0 -38 -1q-18 -1 -35 -2l0 -216h146v-82l-146 0z" />
<glyph unicode="&#273;" horiz-adv-x="520" d="M193 655h174v95h88v-95h49v-64h-49v-591h-81l-5 93q-9 -21 -20.5 -40q-11.5 -19 -28.5 -33.5q-17 -14.5 -40.5 -22.5q-23.5 -8 -55.5 -8q-46 0 -81 14.5q-35 14.5 -58 46.5q-23 32 -35 83.5q-12 51.5 -12 125.5q0 76 12 129.5q12 53.5 35.5 87.5q23.5 34 59.5 49.5q36 15.5 84 15.5q59 0 91 -20.5q32 -20.5 47 -48.5l0 119h-174zM250 68q63 0 90 45.5q27 45.5 27 121.5v83q0 66 -27 105.5q-27 39.5 -94 39.5q-31 0 -53.5 -10q-22.5 -10 -37 -33q-14.5 -23 -21.5 -61q-7 -38 -7 -94q0 -107 29.5 -152t93.5 -45z" />
<glyph unicode="&#274;" horiz-adv-x="520" d="M60 700h382v-85h-289v-218h271v-84h-271v-228h296v-85h-389zM385 790h-249v70l249 0z" />
<glyph unicode="&#275;" horiz-adv-x="520" d="M141 235q1 -167 147 -167q46 0 85 17.5q39 17.5 65 41.5l0 -90q-8 -7 -23 -15.5q-15 -8.5 -35 -15.5q-20 -7 -45 -12q-25 -5 -53 -5q-117 0 -173.5 66q-56.5 66 -56.5 219q0 131 55 199q55 68 160 68q56 0 94.5 -18q38.5 -18 62.5 -51q24 -33 34.5 -79.5q10.5 -46.5 10.5 -102.5v-55zM266 463q-60 0 -92.5 -37.5q-32.5 -37.5 -32.5 -117.5l240 0q0 80 -26.5 117.5q-26.5 37.5 -88.5 37.5zt0 0zM375 623h-228v69l228 0z" />
<glyph unicode="&#278;" horiz-adv-x="520" d="M60 700h382v-85h-289v-218h271v-84h-271v-228h296v-85h-389zM316 835q0 -28 -14.5 -45q-14.5 -17 -41.5 -17q-26 0 -41 17q-15 17 -15 45q0 27 15 43.5q15 16.5 41 16.5q27 0 41.5 -16.5t14.5 -43.5z" />
<glyph unicode="&#279;" horiz-adv-x="520" d="M141 235q1 -167 147 -167q46 0 85 17.5q39 17.5 65 41.5l0 -90q-8 -7 -23 -15.5q-15 -8.5 -35 -15.5q-20 -7 -45 -12q-25 -5 -53 -5q-117 0 -173.5 66q-56.5 66 -56.5 219q0 131 55 199q55 68 160 68q56 0 94.5 -18q38.5 -18 62.5 -51q24 -33 34.5 -79.5q10.5 -46.5 10.5 -102.5v-55zM266 463q-60 0 -92.5 -37.5q-32.5 -37.5 -32.5 -117.5l240 0q0 80 -26.5 117.5q-26.5 37.5 -88.5 37.5zt0 0zM312 662q0 -24 -14 -39.5q-14 -15.5 -38 -15.5q-23 0 -37 15.5q-14 15.5 -14 39.5q0 24 14 39q14 15 37 15q24 0 38 -15t14 -39z" />
<glyph unicode="&#280;" horiz-adv-x="520" d="M60 700h382v-85h-289v-218h271v-84h-271v-228h296v-85h-52q-27 -25 -44.5 -55.5q-17.5 -30.5 -17.5 -72.5q0 -20 12.5 -32.5q12.5 -12.5 32.5 -12.5q23 0 46 12l0 -59q-14 -7 -29.5 -11q-15.5 -4 -37.5 -4q-48 0 -71 24.5q-23 24.5 -23 66.5q0 48 24.5 82q24.5 34 55.5 62l-285 0z" />
<glyph unicode="&#281;" horiz-adv-x="520" d="M141 235q1 -167 147 -167q46 0 85 17.5q39 17.5 65 41.5l0 -90q-10 -8 -28 -18q-18 -10 -44 -18q-25 -23 -41 -52q-16 -29 -16 -69q0 -20 10.5 -31.5q10.5 -11.5 29.5 -11.5q11 0 22 3q11 3 22 11l0 -56q-26 -16 -64 -16q-43 0 -65 23q-22 23 -22 62q0 43 18.5 73.5q18.5 30.5 43.5 52.5q-5 0 -11 -0.5q-6 -0.5 -11 -0.5q-117 0 -173.5 66q-56.5 66 -56.5 219q0 131 55 199q55 68 160 68q56 0 94.5 -18q38.5 -18 62.5 -51q24 -33 34.5 -79.5q10.5 -46.5 10.5 -102.5v-55zM266 463q-60 0 -92.5 -37.5q-32.5 -37.5 -32.5 -117.5l240 0q0 80 -26.5 117.5t-88.5 37.5z" />
<glyph unicode="&#282;" horiz-adv-x="520" d="M60 700h382v-85h-289v-218h271v-84h-271v-228h296v-85h-389zM309 770h-98l-85 126h78l56 -76l56 76l78 0z" />
<glyph unicode="&#283;" horiz-adv-x="520" d="M141 235q1 -167 147 -167q46 0 85 17.5q39 17.5 65 41.5l0 -90q-8 -7 -23 -15.5q-15 -8.5 -35 -15.5q-20 -7 -45 -12q-25 -5 -53 -5q-117 0 -173.5 66q-56.5 66 -56.5 219q0 131 55 199q55 68 160 68q56 0 94.5 -18q38.5 -18 62.5 -51q24 -33 34.5 -79.5q10.5 -46.5 10.5 -102.5v-55zM266 463q-60 0 -92.5 -37.5q-32.5 -37.5 -32.5 -117.5l240 0q0 80 -26.5 117.5q-26.5 37.5 -88.5 37.5zt0 0zM306 595h-89l-82 130h70l56 -79l56 79l71 0z" />
<glyph unicode="&#284;" horiz-adv-x="520" d="M286 353h196v-322q-29 -14 -73.5 -26.5q-44.5 -12.5 -100.5 -12.5q-69 0 -120 20q-51 20 -84.5 63q-33.5 43 -50 111q-16.5 68 -16.5 164q0 186 64.5 272q64.5 86 196.5 86q57 0 94.5 -8.5q37.5 -8.5 58.5 -22.5l0 -99q-27 17 -65.5 31.5q-38.5 14.5 -88.5 14.5q-83 0 -123 -61q-40 -61 -40 -204q0 -81 11 -135.5q11 -54.5 33.5 -87q22.5 -32.5 55.5 -46.5q33 -14 78 -14q26 0 49 4q23 4 40 9l0 181h-115zM414 770h-78l-56 76l-55 -76h-78l84 126l98 0z" />
<glyph unicode="&#285;" horiz-adv-x="520" d="M75 -48q9 -9 25 -19.5q16 -10.5 36 -19.5q20 -9 45 -15q25 -6 52 -6q72 0 104 30.5q32 30.5 33 105.5l0 79q-17 -40 -52.5 -68q-35.5 -28 -92.5 -28q-92 0 -138.5 59.5q-46.5 59.5 -46.5 194.5q0 75 12 127.5q12 52.5 36 85.5q24 33 61 48q37 15 87 15q53 0 87.5 -22q34.5 -22 49.5 -58l4 69h81v-497q-1 -117 -58.5 -168.5q-57.5 -51.5 -161.5 -51.5q-57 0 -98.5 12q-41.5 12 -64.5 26zM250 90q59 0 90 37.5q31 37.5 31 122.5v54q0 46 -8 76.5q-8 30.5 -24 48.5q-16 18 -38.5 25.5q-22.5 7.5 -50.5 7.5q-29 0 -51.5 -9.5q-22.5 -9.5 -38 -32q-15.5 -22.5 -23.5 -59q-8 -36.5 -8 -90.5q0 -51 9 -85.5q9 -34.5 24.5 -56q15.5 -21.5 38 -30.5q22.5 -9 49.5 -9zt0 0zM388 595h-71l-56 79l-56 -79h-70l82 130l89 0z" />
<glyph unicode="&#286;" horiz-adv-x="520" d="M286 353h196v-322q-29 -14 -73.5 -26.5q-44.5 -12.5 -100.5 -12.5q-69 0 -120 20q-51 20 -84.5 63q-33.5 43 -50 111q-16.5 68 -16.5 164q0 186 64.5 272q64.5 86 196.5 86q57 0 94.5 -8.5q37.5 -8.5 58.5 -22.5l0 -99q-27 17 -65.5 31.5q-38.5 14.5 -88.5 14.5q-83 0 -123 -61q-40 -61 -40 -204q0 -81 11 -135.5q11 -54.5 33.5 -87q22.5 -32.5 55.5 -46.5q33 -14 78 -14q26 0 49 4q23 4 40 9l0 181h-115zM388 885q-6 -62 -41.5 -92.5q-35.5 -30.5 -86.5 -30.5q-51 0 -86 31q-35 31 -42 92l60 13q3 -12 6.5 -24q3.5 -12 11 -21q7.5 -9 19.5 -15q12 -6 31 -6q19 0 31 6q12 6 19.5 15q7.5 9 11.5 21q4 12 6 24z" />
<glyph unicode="&#287;" horiz-adv-x="520" d="M75 -48q9 -9 25 -19.5q16 -10.5 36 -19.5q20 -9 45 -15q25 -6 52 -6q72 0 104 30.5q32 30.5 33 105.5l0 79q-17 -40 -52.5 -68q-35.5 -28 -92.5 -28q-92 0 -138.5 59.5q-46.5 59.5 -46.5 194.5q0 75 12 127.5q12 52.5 36 85.5q24 33 61 48q37 15 87 15q53 0 87.5 -22q34.5 -22 49.5 -58l4 69h81v-497q-1 -117 -58.5 -168.5q-57.5 -51.5 -161.5 -51.5q-57 0 -98.5 12q-41.5 12 -64.5 26zM250 90q59 0 90 37.5q31 37.5 31 122.5v54q0 46 -8 76.5q-8 30.5 -24 48.5q-16 18 -38.5 25.5q-22.5 7.5 -50.5 7.5q-29 0 -51.5 -9.5q-22.5 -9.5 -38 -32q-15.5 -22.5 -23.5 -59q-8 -36.5 -8 -90.5q0 -51 9 -85.5q9 -34.5 24.5 -56q15.5 -21.5 38 -30.5q22.5 -9 49.5 -9zt0 0zM384 713q-7 -62 -41 -91.5q-34 -29.5 -82 -29.5q-48 0 -81.5 29.5q-33.5 29.5 -41.5 91.5l60 14q2 -12 5.5 -24.5q3.5 -12.5 11 -22.5q7.5 -10 18.5 -16q11 -6 28 -6q17 0 28 6q11 6 18.5 16q7.5 10 11 22.5q3.5 12.5 5.5 24.5z" />
<glyph unicode="&#288;" horiz-adv-x="520" d="M286 353h196v-322q-29 -14 -73.5 -26.5q-44.5 -12.5 -100.5 -12.5q-69 0 -120 20q-51 20 -84.5 63q-33.5 43 -50 111q-16.5 68 -16.5 164q0 186 64.5 272q64.5 86 196.5 86q57 0 94.5 -8.5q37.5 -8.5 58.5 -22.5l0 -99q-27 17 -65.5 31.5q-38.5 14.5 -88.5 14.5q-83 0 -123 -61q-40 -61 -40 -204q0 -81 11 -135.5q11 -54.5 33.5 -87q22.5 -32.5 55.5 -46.5q33 -14 78 -14q26 0 49 4q23 4 40 9l0 181h-115zM316 835q0 -28 -14.5 -45q-14.5 -17 -41.5 -17q-26 0 -41 17q-15 17 -15 45q0 27 15 43.5q15 16.5 41 16.5q27 0 41.5 -16.5t14.5 -43.5z" />
<glyph unicode="&#289;" horiz-adv-x="520" d="M75 -48q9 -9 25 -19.5q16 -10.5 36 -19.5q20 -9 45 -15q25 -6 52 -6q72 0 104 30.5q32 30.5 33 105.5l0 79q-17 -40 -52.5 -68q-35.5 -28 -92.5 -28q-92 0 -138.5 59.5q-46.5 59.5 -46.5 194.5q0 75 12 127.5q12 52.5 36 85.5q24 33 61 48q37 15 87 15q53 0 87.5 -22q34.5 -22 49.5 -58l4 69h81v-497q-1 -117 -58.5 -168.5q-57.5 -51.5 -161.5 -51.5q-57 0 -98.5 12q-41.5 12 -64.5 26zM250 90q59 0 90 37.5q31 37.5 31 122.5v54q0 46 -8 76.5q-8 30.5 -24 48.5q-16 18 -38.5 25.5q-22.5 7.5 -50.5 7.5q-29 0 -51.5 -9.5q-22.5 -9.5 -38 -32q-15.5 -22.5 -23.5 -59q-8 -36.5 -8 -90.5q0 -51 9 -85.5q9 -34.5 24.5 -56q15.5 -21.5 38 -30.5q22.5 -9 49.5 -9zt0 0zM312 662q0 -24 -14 -39.5q-14 -15.5 -38 -15.5q-23 0 -37 15.5q-14 15.5 -14 39.5q0 24 14 39q14 15 37 15q24 0 38 -15t14 -39z" />
<glyph unicode="&#290;" horiz-adv-x="520" d="M286 353h196v-322q-29 -14 -73.5 -26.5q-44.5 -12.5 -100.5 -12.5q-69 0 -120 20q-51 20 -84.5 63q-33.5 43 -50 111q-16.5 68 -16.5 164q0 186 64.5 272q64.5 86 196.5 86q57 0 94.5 -8.5q37.5 -8.5 58.5 -22.5l0 -99q-27 17 -65.5 31.5q-38.5 14.5 -88.5 14.5q-83 0 -123 -61q-40 -61 -40 -204q0 -81 11 -135.5q11 -54.5 33.5 -87q22.5 -32.5 55.5 -46.5q33 -14 78 -14q26 0 49 4q23 4 40 9l0 181h-115zM202 -184q22 7 39.5 19.5q17.5 12.5 16.5 37.5q-27 -2 -44.5 9.5q-17.5 11.5 -17.5 33.5q0 19 14.5 32q14.5 13 43.5 13q26 0 44 -15.5q18 -15.5 18 -52.5q0 -18 -5.5 -37q-5.5 -19 -17.5 -35q-12 -16 -32 -28q-20 -12 -49 -16z" />
<glyph unicode="&#291;" horiz-adv-x="520" d="M75 -48q9 -9 25 -19.5q16 -10.5 36 -19.5q20 -9 45 -15q25 -6 52 -6q72 0 104 30.5q32 30.5 33 105.5l0 79q-17 -40 -52.5 -68q-35.5 -28 -92.5 -28q-92 0 -138.5 59.5q-46.5 59.5 -46.5 194.5q0 75 12 127.5q12 52.5 36 85.5q24 33 61 48q37 15 87 15q53 0 87.5 -22q34.5 -22 49.5 -58l4 69h81v-497q-1 -117 -58.5 -168.5q-57.5 -51.5 -161.5 -51.5q-57 0 -98.5 12q-41.5 12 -64.5 26zM250 90q59 0 90 37.5q31 37.5 31 122.5v54q0 46 -8 76.5q-8 30.5 -24 48.5q-16 18 -38.5 25.5q-22.5 7.5 -50.5 7.5q-29 0 -51.5 -9.5q-22.5 -9.5 -38 -32q-15.5 -22.5 -23.5 -59q-8 -36.5 -8 -90.5q0 -51 9 -85.5q9 -34.5 24.5 -56q15.5 -21.5 38 -30.5q22.5 -9 49.5 -9zt0 0zM285 722q-11 -3 -21.5 -8q-10.5 -5 -19 -11.5q-8.5 -6.5 -13 -16q-4.5 -9.5 -3.5 -21.5q27 2 44.5 -9.5q17.5 -11.5 17.5 -33.5q0 -19 -15 -32q-15 -13 -43 -13q-26 0 -44 15.5q-18 15.5 -18 52.5q0 18 5.5 37q5.5 19 17.5 35q12 16 32 28q20 12 49 16z" />
<glyph unicode="&#292;" horiz-adv-x="520" d="M47 700h93v-298h240v298h93v-700h-93v317h-240v-317h-93zM394 770h-78l-56 76l-55 -76h-78l84 126l98 0z" />
<glyph unicode="&#293;" horiz-adv-x="520" d="M69 750h88v-302q17 45 53 69q36 24 93 24q81 0 117.5 -42.5q36.5 -42.5 36.5 -141.5v-357h-88v344q0 64 -23 91.5q-23 27.5 -78 27.5q-57 0 -84 -34q-27 -34 -27 -112v-317h-88zM242 795h-71l-56 79l-56 -79h-70l82 130l89 0z" />
<glyph unicode="&#294;" horiz-adv-x="520" d="M361 407v105h-201v-105zM454 0h-93v322h-201v-322h-93v512h-56v68h56v120h93v-120h201v120h93v-120h55v-68l-55 0z" />
<glyph unicode="&#295;" horiz-adv-x="520" d="M69 591h-45v64h45v95h88v-95h178v-64h-178v-143q17 45 53 69q36 24 93 24q81 0 117.5 -42.5q36.5 -42.5 36.5 -141.5v-357h-88v344q0 64 -23 91.5q-23 27.5 -78 27.5q-57 0 -84 -34q-27 -34 -27 -112v-317l-88 0z" />
<glyph unicode="&#298;" horiz-adv-x="520" d="M54 700h413v-85h-161v-530h161v-85h-413v85h159v530h-159zM385 790h-249v70l249 0z" />
<glyph unicode="&#299;" horiz-adv-x="520" d="M60 0v82h186v366h-186v82h274v-448h152v-82zM375 623h-228v69l228 0z" />
<glyph unicode="&#302;" horiz-adv-x="520" d="M326 -220q-14 -7 -29.5 -11q-15.5 -4 -37.5 -4q-48 0 -71 24.5q-23 24.5 -23 66.5q0 48 24.5 82q24.5 34 55.5 62l-191 0v85h159v530h-159v85h413v-85h-161v-530h161v-85h-170q-27 -25 -44.5 -55.5q-17.5 -30.5 -17.5 -72.5q0 -20 12.5 -32.5q12.5 -12.5 32.5 -12.5q23 0 46 12z" />
<glyph unicode="&#303;" horiz-adv-x="520" d="M285 0q-25 -23 -40.5 -52q-15.5 -29 -15.5 -68q0 -20 10.5 -31.5q10.5 -11.5 29.5 -11.5q11 0 22 3q11 3 22 11l0 -56q-26 -16 -64 -16q-43 0 -65 23q-22 23 -22 62q0 48 23 80.5q23 32.5 51 55.5l-176 0v82h186v366h-186v82h274v-448h152v-82zM230 711q0 24 13 40.5q13 16.5 46 16.5q35 0 48.5 -16.5q13.5 -16.5 13.5 -40.5q0 -25 -13.5 -43q-13.5 -18 -47.5 -18q-34 0 -47 18t-13 43z" />
<glyph unicode="&#304;" horiz-adv-x="520" d="M54 700h413v-85h-161v-530h161v-85h-413v85h159v530h-159zM316 835q0 -28 -14.5 -45q-14.5 -17 -41.5 -17q-26 0 -41 17q-15 17 -15 45q0 27 15 43.5q15 16.5 41 16.5q27 0 41.5 -16.5t14.5 -43.5z" />
<glyph unicode="&#305;" horiz-adv-x="520" d="M60 0v82h186v366h-186v82h274v-448h152l0 -82z" />
<glyph unicode="&#308;" horiz-adv-x="520" d="M362 615h-280v85h373v-449q0 -133 -59.5 -194.5q-59.5 -61.5 -163.5 -61.5q-22 0 -41.5 2q-19.5 2 -40 7q-20.5 5 -42.5 13.5q-22 8.5 -49 22.5l0 92q29 -20 73.5 -36q44.5 -16 92.5 -16q24 0 48.5 7.5q24.5 7.5 44 24q19.5 16.5 32 43.5q12.5 27 12.5 66zM414 770h-78l-56 76l-55 -76h-78l84 126l98 0z" />
<glyph unicode="&#309;" horiz-adv-x="520" d="M317 448h-236v82h324v-477q0 -120 -46 -179.5q-46 -59.5 -149 -59.5q-53 0 -90.5 13.5q-37.5 13.5 -60.5 26.5l0 90q31 -25 67 -36q36 -11 73 -11q63 0 90.5 33.5q27.5 33.5 27.5 111.5zM388 595h-71l-56 79l-56 -79h-70l82 130l89 0z" />
<glyph unicode="&#310;" horiz-adv-x="520" d="M140 394h79l169 306h105l-195 -340l222 -360h-107l-194 320h-79v-320h-93v700h93zM202 -184q22 7 39.5 19.5q17.5 12.5 16.5 37.5q-27 -2 -44.5 9.5q-17.5 11.5 -17.5 33.5q0 19 14.5 32q14.5 13 43.5 13q26 0 44 -15.5q18 -15.5 18 -52.5q0 -18 -5.5 -37q-5.5 -19 -17.5 -35q-12 -16 -32 -28q-20 -12 -49 -16z" />
<glyph unicode="&#311;" horiz-adv-x="520" d="M179 750v-443h39l148 223h100l-175 -253l198 -277h-106l-166 237h-38v-237h-88v750zM206 -184q11 3 21.5 8q10.5 5 19 11.5q8.5 6.5 13 16q4.5 9.5 3.5 21.5q-27 -2 -44.5 9.5q-17.5 11.5 -17.5 33.5q0 19 15 32q15 13 43 13q26 0 44 -15.5q18 -15.5 18 -52.5q0 -18 -5.5 -37q-5.5 -19 -17.5 -35q-12 -16 -32 -28q-20 -12 -49 -16z" />
<glyph unicode="&#313;" horiz-adv-x="520" d="M68 700h93v-615h320v-85h-413zM155 770h-72l65 140l116 0z" />
<glyph unicode="&#314;" horiz-adv-x="520" d="M275 203q0 -39 6 -64q6 -25 19.5 -40q13.5 -15 35 -20.5q21.5 -5.5 53.5 -5.5q32 0 57.5 9.5q25.5 9.5 42.5 17.5l0 -78q-15 -11 -46 -21.5q-31 -10.5 -66 -10.5q-89 0 -139.5 42q-50.5 42 -50.5 140v496h-167v82h255v-547zM269 795h-68l62 130l106 0z" />
<glyph unicode="&#315;" horiz-adv-x="520" d="M68 700h93v-615h320v-85h-413zM202 -184q22 7 39.5 19.5q17.5 12.5 16.5 37.5q-27 -2 -44.5 9.5q-17.5 11.5 -17.5 33.5q0 19 14.5 32q14.5 13 43.5 13q26 0 44 -15.5q18 -15.5 18 -52.5q0 -18 -5.5 -37q-5.5 -19 -17.5 -35q-12 -16 -32 -28q-20 -12 -49 -16z" />
<glyph unicode="&#316;" horiz-adv-x="520" d="M275 203q0 -39 6 -64q6 -25 19.5 -40q13.5 -15 35 -20.5q21.5 -5.5 53.5 -5.5q32 0 57.5 9.5q25.5 9.5 42.5 17.5l0 -78q-15 -11 -46 -21.5q-31 -10.5 -66 -10.5q-89 0 -139.5 42q-50.5 42 -50.5 140v496h-167v82h255v-547zM306 -184q11 3 21.5 8q10.5 5 19 11.5q8.5 6.5 13 16q4.5 9.5 3.5 21.5q-27 -2 -44.5 9.5q-17.5 11.5 -17.5 33.5q0 19 15 32q15 13 43 13q26 0 44 -15.5q18 -15.5 18 -52.5q0 -18 -5.5 -37q-5.5 -19 -17.5 -35q-12 -16 -32 -28q-20 -12 -49 -16z" />
<glyph unicode="&#317;" horiz-adv-x="520" d="M68 700h93v-615h320v-85h-413zM406 498h-63l46 202l91 0z" />
<glyph unicode="&#318;" horiz-adv-x="520" d="M275 203q0 -39 6 -64q6 -25 19.5 -40q13.5 -15 35 -20.5q21.5 -5.5 53.5 -5.5q32 0 57.5 9.5q25.5 9.5 42.5 17.5l0 -78q-15 -11 -46 -21.5q-31 -10.5 -66 -10.5q-89 0 -139.5 42q-50.5 42 -50.5 140v496h-167v82h255v-547zM416 548h-63l46 202l91 0z" />
<glyph unicode="&#319;" horiz-adv-x="520" d="M68 700h93v-615h320v-85h-413zM423 342q0 -29 -14 -44.5q-14 -15.5 -40 -15.5q-26 0 -40.5 16q-14.5 16 -14.5 44q0 28 14.5 43.5q14.5 15.5 40.5 15.5q25 0 39.5 -16t14.5 -43z" />
<glyph unicode="&#320;" horiz-adv-x="520" d="M275 203q0 -39 6 -64q6 -25 19.5 -40q13.5 -15 35 -20.5q21.5 -5.5 53.5 -5.5q32 0 57.5 9.5q25.5 9.5 42.5 17.5l0 -78q-15 -11 -46 -21.5q-31 -10.5 -66 -10.5q-89 0 -139.5 42q-50.5 42 -50.5 140v496h-167v82h255v-547zM537 342q0 -29 -14 -44.5q-14 -15.5 -40 -15.5q-26 0 -40.5 16q-14.5 16 -14.5 44q0 28 14.5 43.5q14.5 15.5 40.5 15.5q25 0 39.5 -16t14.5 -43z" />
<glyph unicode="&#321;" horiz-adv-x="520" d="M68 236l-50 -38v77l50 38v387h93v-315l137 107v-78l-137 -106v-223h320v-85l-413 0z" />
<glyph unicode="&#322;" horiz-adv-x="520" d="M275 203q0 -39 6 -64q6 -25 19.5 -40q13.5 -15 35 -20.5q21.5 -5.5 53.5 -5.5q32 0 57.5 9.5q25.5 9.5 42.5 17.5l0 -78q-15 -11 -46 -21.5q-31 -10.5 -66 -10.5q-89 0 -139.5 42q-50.5 42 -50.5 140v158l-64 -39v72l64 39v266h-167v82h255v-294l112 69v-72l-112 -69l0 -181z" />
<glyph unicode="&#323;" horiz-adv-x="520" d="M47 700h98l244 -534l-3 102v432h87v-700h-99l-245 538l5 -106v-432h-87zM295 770h-72l65 140l116 0z" />
<glyph unicode="&#324;" horiz-adv-x="520" d="M69 530h83l4 -84q44 95 145 95q40 0 69.5 -10q29.5 -10 49 -33.5q19.5 -23.5 28.5 -62.5q9 -39 9 -96v-339h-88v319q0 40 -4.5 68q-4.5 28 -16 44.5q-11.5 16.5 -31 24q-19.5 7.5 -49.5 7.5q-57 0 -84 -38.5q-27 -38.5 -27 -107.5v-317h-88zM269 595h-68l62 130l106 0z" />
<glyph unicode="&#325;" horiz-adv-x="520" d="M47 700h98l244 -534l-3 102v432h87v-700h-99l-245 538l5 -106v-432h-87zM202 -184q22 7 39.5 19.5q17.5 12.5 16.5 37.5q-27 -2 -44.5 9.5q-17.5 11.5 -17.5 33.5q0 19 14.5 32q14.5 13 43.5 13q26 0 44 -15.5q18 -15.5 18 -52.5q0 -18 -5.5 -37q-5.5 -19 -17.5 -35q-12 -16 -32 -28q-20 -12 -49 -16z" />
<glyph unicode="&#326;" horiz-adv-x="520" d="M69 530h83l4 -84q44 95 145 95q40 0 69.5 -10q29.5 -10 49 -33.5q19.5 -23.5 28.5 -62.5q9 -39 9 -96v-339h-88v319q0 40 -4.5 68q-4.5 28 -16 44.5q-11.5 16.5 -31 24q-19.5 7.5 -49.5 7.5q-57 0 -84 -38.5q-27 -38.5 -27 -107.5v-317h-88zM206 -184q11 3 21.5 8q10.5 5 19 11.5q8.5 6.5 13 16q4.5 9.5 3.5 21.5q-27 -2 -44.5 9.5q-17.5 11.5 -17.5 33.5q0 19 15 32q15 13 43 13q26 0 44 -15.5q18 -15.5 18 -52.5q0 -18 -5.5 -37q-5.5 -19 -17.5 -35q-12 -16 -32 -28q-20 -12 -49 -16z" />
<glyph unicode="&#327;" horiz-adv-x="520" d="M47 700h98l244 -534l-3 102v432h87v-700h-99l-245 538l5 -106v-432h-87zM309 770h-98l-85 126h78l56 -76l56 76l78 0z" />
<glyph unicode="&#328;" horiz-adv-x="520" d="M69 530h83l4 -84q44 95 145 95q40 0 69.5 -10q29.5 -10 49 -33.5q19.5 -23.5 28.5 -62.5q9 -39 9 -96v-339h-88v319q0 40 -4.5 68q-4.5 28 -16 44.5q-11.5 16.5 -31 24q-19.5 7.5 -49.5 7.5q-57 0 -84 -38.5q-27 -38.5 -27 -107.5v-317h-88zM306 595h-89l-82 130h70l56 -79l56 79l71 0z" />
<glyph unicode="&#332;" horiz-adv-x="520" d="M24 350q0 92 13 160q13 68 42.5 112.5q29.5 44.5 75.5 66q46 21.5 112 21.5q64 0 108 -21.5q44 -21.5 71 -66q27 -44.5 38.5 -112.5q11.5 -68 11.5 -160q0 -98 -14.5 -166q-14.5 -68 -43.5 -111.5q-29 -43.5 -73.5 -63q-44.5 -19.5 -104.5 -19.5q-57 0 -101 19.5q-44 19.5 -74 62q-30 42.5 -45.5 111q-15.5 68.5 -15.5 167.5zt0 0zM122 347q0 -77 9 -129q9 -52 26.5 -83.5q17.5 -31.5 44 -45.5q26.5 -14 61.5 -14q36 0 61.5 14q25.5 14 41.5 45.5q16 31.5 23.5 83.5q7.5 52 7.5 129q0 79 -7.5 132.5q-7.5 53.5 -24 85.5q-16.5 32 -43 46q-26.5 14 -63.5 14q-39 0 -65.5 -17q-26.5 -17 -42.5 -51.5q-16 -34.5 -22.5 -87q-6.5 -52.5 -6.5 -122.5zt0 0zM385 790h-249v70l249 0z" />
<glyph unicode="&#333;" horiz-adv-x="520" d="M43 267q0 138 60.5 206q60.5 68 163.5 68q100 0 155 -66q55 -66 55 -210q0 -75 -16 -127.5q-16 -52.5 -44.5 -85.5q-28.5 -33 -68.5 -48q-40 -15 -88 -15q-109 0 -163 72.5q-54 72.5 -54 205.5zt0 0zM132 264q0 -94 33 -145q33 -51 99 -51q61 0 92.5 46.5q31.5 46.5 31.5 149.5v3q0 100 -31.5 148q-31.5 48 -96.5 48q-128 0 -128 -196zM375 623h-228v69l228 0z" />
<glyph unicode="&#336;" horiz-adv-x="520" d="M24 350q0 92 13 160q13 68 42.5 112.5q29.5 44.5 75.5 66q46 21.5 112 21.5q64 0 108 -21.5q44 -21.5 71 -66q27 -44.5 38.5 -112.5q11.5 -68 11.5 -160q0 -98 -14.5 -166q-14.5 -68 -43.5 -111.5q-29 -43.5 -73.5 -63q-44.5 -19.5 -104.5 -19.5q-57 0 -101 19.5q-44 19.5 -74 62q-30 42.5 -45.5 111q-15.5 68.5 -15.5 167.5zt0 0zM122 347q0 -77 9 -129q9 -52 26.5 -83.5q17.5 -31.5 44 -45.5q26.5 -14 61.5 -14q36 0 61.5 14q25.5 14 41.5 45.5q16 31.5 23.5 83.5q7.5 52 7.5 129q0 79 -7.5 132.5q-7.5 53.5 -24 85.5q-16.5 32 -43 46q-26.5 14 -63.5 14q-39 0 -65.5 -17q-26.5 -17 -42.5 -51.5q-16 -34.5 -22.5 -87q-6.5 -52.5 -6.5 -122.5zt0 0zM335 908l-114 -138h-68l76 138zM484 908l-115 -138h-67l75 138z" />
<glyph unicode="&#337;" horiz-adv-x="520" d="M43 267q0 138 60.5 206q60.5 68 163.5 68q100 0 155 -66q55 -66 55 -210q0 -75 -16 -127.5q-16 -52.5 -44.5 -85.5q-28.5 -33 -68.5 -48q-40 -15 -88 -15q-109 0 -163 72.5q-54 72.5 -54 205.5zt0 0zM132 264q0 -94 33 -145q33 -51 99 -51q61 0 92.5 46.5q31.5 46.5 31.5 149.5v3q0 100 -31.5 148q-31.5 48 -96.5 48q-128 0 -128 -196zM351 595h-59l69 130h96zM210 595h-60l69 130l96 0z" />
<glyph unicode="&#338;" horiz-adv-x="520" d="M215 -7q-48 0 -84.5 19.5q-36.5 19.5 -61 62q-24.5 42.5 -37.5 110.5q-13 68 -13 165q0 98 13 166q13 68 38 110.5q25 42.5 61 61.5q36 19 82 19q14 0 26.5 -2q12.5 -2 25.5 -5l228 0v-84h-146v-212h123v-82h-123v-238h146v-84h-230q-11 -2 -24 -4.5q-13 -2.5 -24 -2.5zt0 0zM219 77q18 0 38 11l0 524q-11 5 -21.5 8q-10.5 3 -22.5 3q-22 0 -40 -11.5q-18 -11.5 -31 -41.5q-13 -30 -20 -83q-7 -53 -7 -137q0 -82 7 -135q7 -53 20.5 -83.5q13.5 -30.5 33 -42.5t43.5 -12z" />
<glyph unicode="&#339;" horiz-adv-x="520" d="M490 23q-13 -11 -34.5 -20q-21.5 -9 -53.5 -9q-45 0 -74.5 19.5q-29.5 19.5 -54.5 56.5q-23 -36 -47.5 -56q-24.5 -20 -61.5 -20q-68 0 -105 63q-37 63 -37 208q0 75 9 127.5q9 52.5 27 85q18 32.5 44.5 47.5q26.5 15 61.5 15q38 0 63 -18q25 -18 47 -51q21 32 44 50.5q23 18.5 54 18.5q79 0 112.5 -59q33.5 -59 33.5 -186v-51h-204q4 -91 28 -132.5q24 -41.5 72 -41.5q27 0 43.5 8.5q16.5 8.5 32.5 18.5zM164 70q16 0 28 8.5q12 8.5 20 30.5q8 22 12 60q4 38 4 96q0 60 -4 98.5q-4 38.5 -11.5 61q-7.5 22.5 -20 31q-12.5 8.5 -28.5 8.5q-13 0 -23.5 -9q-10.5 -9 -17.5 -31.5q-7 -22.5 -10.5 -61q-3.5 -38.5 -3.5 -97.5q0 -59 4 -97q4 -38 11 -59.5q7 -21.5 17.5 -30q10.5 -8.5 22.5 -8.5zt0 0zM433 314q0 83 -14 116.5q-14 33.5 -44 33.5q-26 0 -39.5 -34.5q-13.5 -34.5 -20.5 -115.5z" />
<glyph unicode="&#340;" horiz-adv-x="520" d="M54 0v691q37 4 86.5 9.5q49.5 5.5 91.5 5.5q115 0 170 -47.5q55 -47.5 55 -155.5q0 -35 -4.5 -66q-4.5 -31 -17.5 -58q-13 -27 -37.5 -49q-24.5 -22 -63.5 -37l176 -293h-108l-162 278h-93v-278zM226 352q75 0 105 33q30 33 30 106q0 34 -6 58.5q-6 24.5 -21.5 40.5q-15.5 16 -41 23.5q-25.5 7.5 -64.5 7.5q-24 0 -44 -1.5q-20 -1.5 -38 -3.5l0 -264zM295 770h-72l65 140l116 0z" />
<glyph unicode="&#341;" horiz-adv-x="520" d="M41 0v82h119v366h-119v82h199l4 -94q20 52 59.5 78.5q39.5 26.5 93.5 26.5q21 0 36.5 -2q15.5 -2 32.5 -7l0 -99q-16 15 -36 22q-20 7 -43 7q-67 0 -103 -47.5q-36 -47.5 -36 -135.5v-197h227v-82zM269 595h-68l62 130l106 0z" />
<glyph unicode="&#342;" horiz-adv-x="520" d="M54 0v691q37 4 86.5 9.5q49.5 5.5 91.5 5.5q115 0 170 -47.5q55 -47.5 55 -155.5q0 -35 -4.5 -66q-4.5 -31 -17.5 -58q-13 -27 -37.5 -49q-24.5 -22 -63.5 -37l176 -293h-108l-162 278h-93v-278zM226 352q75 0 105 33q30 33 30 106q0 34 -6 58.5q-6 24.5 -21.5 40.5q-15.5 16 -41 23.5q-25.5 7.5 -64.5 7.5q-24 0 -44 -1.5q-20 -1.5 -38 -3.5l0 -264zM202 -184q22 7 39.5 19.5q17.5 12.5 16.5 37.5q-27 -2 -44.5 9.5q-17.5 11.5 -17.5 33.5q0 19 14.5 32q14.5 13 43.5 13q26 0 44 -15.5q18 -15.5 18 -52.5q0 -18 -5.5 -37q-5.5 -19 -17.5 -35q-12 -16 -32 -28q-20 -12 -49 -16z" />
<glyph unicode="&#343;" horiz-adv-x="520" d="M41 0v82h119v366h-119v82h199l4 -94q20 52 59.5 78.5q39.5 26.5 93.5 26.5q21 0 36.5 -2q15.5 -2 32.5 -7l0 -99q-16 15 -36 22q-20 7 -43 7q-67 0 -103 -47.5q-36 -47.5 -36 -135.5v-197h227v-82zM206 -184q11 3 21.5 8q10.5 5 19 11.5q8.5 6.5 13 16q4.5 9.5 3.5 21.5q-27 -2 -44.5 9.5q-17.5 11.5 -17.5 33.5q0 19 15 32q15 13 43 13q26 0 44 -15.5q18 -15.5 18 -52.5q0 -18 -5.5 -37q-5.5 -19 -17.5 -35q-12 -16 -32 -28q-20 -12 -49 -16z" />
</font>
</defs>
</svg>
