<svg width="40" height="40" viewBox="0 0 40 40" fill="none" xmlns="http://www.w3.org/2000/svg">
<path d="M35.7451 19.8782C36.4163 20.4774 36.4127 21.5288 35.7373 22.1233L25.3213 31.2893C24.0294 32.4262 22.0002 31.5091 22 29.7883V26.5002H10V24.5002H24V29.7883L33.9922 20.9944L22.166 10.4348V7.75415L35.7451 19.8782ZM8.79297 10.2932C9.18349 9.90269 9.81651 9.90269 10.207 10.2932C10.5976 10.6837 10.5976 11.3168 10.207 11.7073L7.41406 14.5002H20C20.5523 14.5002 21 14.948 21 15.5002C20.9999 16.0525 20.5522 16.5002 20 16.5002H7.41406L10.207 19.2932C10.5976 19.6837 10.5976 20.3168 10.207 20.7073C9.8165 21.0976 9.18344 21.0977 8.79297 20.7073L3.58594 15.5002L8.79297 10.2932Z" fill="#B2B8BF"/>
</svg>
