<svg width="40" height="40" viewBox="0 0 40 40" fill="none" xmlns="http://www.w3.org/2000/svg">
<path fill-rule="evenodd" clip-rule="evenodd" d="M9 10C8.44772 10 8 10.4477 8 11V12H30V11C30 10.4477 29.5523 10 29 10H9ZM32 12.1707V11C32 9.34315 30.6569 8 29 8H9C7.34315 8 6 9.34315 6 11V29C6 30.6569 7.34315 32 9 32H31C32.6569 32 34 30.6569 34 29V15C34 13.6938 33.1652 12.5825 32 12.1707ZM8 14V29C8 29.5523 8.44772 30 9 30H31C31.5523 30 32 29.5523 32 29V15C32 14.4477 31.5523 14 31 14H8Z" fill="#B2B8BF"/>
<path fill-rule="evenodd" clip-rule="evenodd" d="M23 21C23 18.7909 24.7909 17 27 17H34V27H27C24.7909 27 23 25.2091 23 23V21ZM27 19C25.8954 19 25 19.8954 25 21V23C25 24.1046 25.8954 25 27 25H32V19H27Z" fill="#B2B8BF"/>
<path d="M27 21H29V23H27V21Z" fill="#B2B8BF"/>
<path fill-rule="evenodd" clip-rule="evenodd" d="M27 21V23H29V21H27Z" fill="#B2B8BF"/>
</svg>
