<svg width="40" height="40" viewBox="0 0 40 40" fill="none" xmlns="http://www.w3.org/2000/svg">
<path d="M8 16.5H30M13 6V12M25 6V12M8 11.5V29.5C8 30.6046 8.89543 31.5 10 31.5H28C29.1046 31.5 30 30.6046 30 29.5V11.5C30 10.3954 29.1046 9.5 28 9.5H10C8.89543 9.5 8 10.3954 8 11.5Z" stroke="#B2B8BF" stroke-width="2"/>
<circle cx="26.5002" cy="25.5" r="9.49142" fill="white" stroke="white" stroke-width="2"/>
<circle cx="26.5" cy="25.5" r="7.5" stroke="#B2B8BF" stroke-width="2"/>
<path d="M27.541 29H25.583V25.4697C25.583 25.4046 25.583 25.2858 25.583 25.1133C25.583 24.9375 25.5846 24.7438 25.5879 24.5322C25.5944 24.3206 25.6025 24.1302 25.6123 23.9609C25.5277 24.0618 25.4479 24.1481 25.373 24.2197C25.3014 24.2913 25.2314 24.3581 25.1631 24.4199L24.3525 25.0889L23.3516 23.8584L25.8027 21.8613H27.541V29Z" fill="#B2B8BF"/>
</svg>
