<svg width="40" height="40" viewBox="0 0 40 40" fill="none" xmlns="http://www.w3.org/2000/svg">
<path d="M14.8396 6C16.5705 6 18.1757 6.60444 19.4145 7.70047L20.39 8.56458L20.5425 8.69917L21.5528 7.77417C23.5582 5.93842 26.7041 5.49307 29.1632 6.68894L32.3881 8.25696C32.9959 8.55218 33.6775 8.70769 34.3565 8.70771H35.8285C36.4779 8.70784 36.9989 9.21731 36.9989 9.84314C36.9987 10.4688 36.4778 10.9774 35.8285 10.9775H34.3565C33.3163 10.9775 32.2712 10.7395 31.3407 10.2875L28.1136 8.71946C26.6116 7.98722 24.7236 8.19785 23.4146 9.21187L23.1609 9.4255L16.6066 15.422L16.6023 15.4273C16.0402 15.975 15.8866 16.8993 16.3442 17.5166L16.4575 17.6555C16.7371 17.9621 17.1147 18.1489 17.5364 18.182C18.0162 18.2212 18.4738 18.0518 18.8092 17.7259L24.622 12.3201C25.0863 11.8876 25.8293 11.9025 26.278 12.3565C26.7236 12.8075 26.7083 13.526 26.2421 13.9597L23.6966 16.3267L23.91 16.4816L33.7294 23.6359L33.8034 23.6904L33.896 23.6765C34.2288 23.6268 34.563 23.6018 34.8998 23.6017H35.8296C36.479 23.6017 36.9999 24.1114 37 24.7372C37 25.3631 36.4791 25.8726 35.8296 25.8726H34.8998C33.9534 25.8727 33.0159 26.176 32.2596 26.7282L23.7695 32.9126L23.7662 32.9148C22.8117 33.6369 21.6602 33.9999 20.5065 34C19.3461 34 18.1833 33.6331 17.2131 32.8998L17.2098 32.8977L8.7415 26.7271C7.98394 26.1751 7.04662 25.8716 6.1002 25.8715H5.17041C4.52089 25.8715 4.00003 25.362 4 24.7361C4 24.1102 4.52088 23.6007 5.17041 23.6007H6.1002C7.55034 23.6007 8.98888 24.0665 10.1471 24.9113L18.6328 31.0947C19.7391 31.929 21.2539 31.9301 22.3422 31.1107H22.3454C22.3454 31.1107 22.3477 31.1079 22.3498 31.1064C22.3539 31.1034 22.3603 31.0994 22.3683 31.0936C22.3845 31.0818 22.4087 31.0642 22.4402 31.0413C22.503 30.9955 22.595 30.928 22.7123 30.8426C22.9474 30.6714 23.2836 30.426 23.6868 30.1323C24.4931 29.5449 25.5691 28.7612 26.646 27.9768C27.7228 27.1925 28.8012 26.407 29.6128 25.816C30.0185 25.5206 30.358 25.2743 30.5971 25.1003C30.7166 25.0133 30.8116 24.9438 30.8769 24.8963C30.9408 24.8498 30.973 24.8269 30.9759 24.8248L31.2285 24.6506L30.9803 24.4701L22.1375 18.0261L21.9872 17.9171L21.8511 18.0432L20.4488 19.3474L20.4456 19.3506C19.722 20.0549 18.7182 20.455 17.6703 20.455C16.5006 20.455 15.1273 19.7635 14.4444 18.8411C13.3365 17.3512 13.5524 15.1787 14.9713 13.7974L18.6589 10.4242L18.8364 10.2608L18.6557 10.1016L17.838 9.37743C16.5743 8.25552 14.6492 8.01272 13.176 8.59129L12.8875 8.71839L9.66041 10.2853C8.72809 10.7363 7.68348 10.9764 6.64348 10.9764H5.17149C4.52208 10.9763 4.00109 10.4668 4.00109 9.841C4.00135 9.21538 4.52224 8.70677 5.17149 8.70665H6.64022C7.31947 8.70665 8.00164 8.55113 8.61085 8.25589L11.8357 6.68788L12.1885 6.52979C13.0219 6.18312 13.9297 6.00007 14.8396 6Z" fill="#B2B8BF"/>
</svg>
