<svg width="40" height="40" viewBox="0 0 40 40" fill="none" xmlns="http://www.w3.org/2000/svg">
<path d="M23.0059 5C23.558 5.00011 24.0059 5.44778 24.0059 6V6.54492C24.006 7.78444 24.7301 9.01681 25.9375 9.71094L26.1553 9.82227C27.2644 10.342 28.6076 10.3467 29.709 9.71973L29.7617 9.69141L30.2363 9.45801C30.7078 9.22621 31.279 9.39929 31.543 9.85352L34.7061 15.2979C34.8415 15.531 34.8771 15.8086 34.8047 16.0684C34.7322 16.3282 34.5581 16.5484 34.3213 16.6777L33.6299 17.0537C32.6177 17.6393 31.9941 18.7737 31.9941 20C31.9941 21.1355 32.5286 22.1898 33.5391 22.8057L33.748 22.9229L33.7676 22.9336L34.4795 23.3223C34.7163 23.4516 34.8904 23.6718 34.9629 23.9316C35.0353 24.1914 34.9997 24.469 34.8643 24.7021L31.7012 30.1465C31.4372 30.6007 30.866 30.7738 30.3945 30.542L29.9199 30.3086C29.895 30.2963 29.8705 30.2829 29.8467 30.2686C28.7481 29.6084 27.236 29.5944 26.0312 30.2803C24.8434 30.9566 24.1642 32.1788 24.1641 33.4551V34C24.1641 34.5522 23.7162 34.9999 23.1641 35H16.8359C16.2838 34.9999 15.8359 34.5522 15.8359 34V33.4551C15.8358 32.2156 15.1117 30.9832 13.9043 30.2891L13.6865 30.1777C12.5774 29.658 11.2342 29.6533 10.1328 30.2803C10.1155 30.2901 10.098 30.2998 10.0801 30.3086L9.60547 30.542C9.13402 30.7738 8.56279 30.6007 8.29883 30.1465L5.13574 24.7021C5.00028 24.469 4.96472 24.1914 5.03711 23.9316C5.10964 23.6718 5.28374 23.4516 5.52051 23.3223L6.20996 22.9453C7.22225 22.3598 7.84766 21.2264 7.84766 20C7.84766 18.7736 7.22323 17.6402 6.21094 17.0547V17.0537L5.52051 16.6777C5.28374 16.5484 5.10964 16.3282 5.03711 16.0684C4.96472 15.8086 5.00028 15.531 5.13574 15.2979L8.29883 9.85352L8.35742 9.76465C8.50292 9.56607 8.71746 9.42646 8.96094 9.37598C9.23912 9.31836 9.52918 9.38216 9.75781 9.55078L10.0254 9.74805C11.12 10.3909 12.5374 10.3995 13.7314 9.71973C14.9478 9.02719 15.6775 7.78951 15.6777 6.54492V6C15.6777 5.44779 16.1256 5.00013 16.6777 5H23.0059ZM19.9209 16.7998C18.1122 16.7998 16.5 17.9904 16.5 20C16.5 22.0096 18.1122 23.2002 19.9209 23.2002C21.6838 23.2002 23 21.6972 23 20C23 18.3028 21.6838 16.7998 19.9209 16.7998Z" stroke="#B2B8BF" stroke-width="2" stroke-miterlimit="10" stroke-linecap="round" stroke-linejoin="round"/>
</svg>
