<svg width="40" height="40" viewBox="0 0 40 40" fill="none" xmlns="http://www.w3.org/2000/svg">
<path d="M23 16H13V14H23V16Z" fill="#B2B8BF"/>
<path d="M13 20H23V18H13V20Z" fill="#B2B8BF"/>
<path d="M19 24H13V22H19V24Z" fill="#B2B8BF"/>
<path fill-rule="evenodd" clip-rule="evenodd" d="M8 8H29V27C29 28.8714 29.35 30.0995 29.7187 30.8896C30.0817 31.6676 30.4847 32.0705 30.7031 32.2888L32.3457 33.9314L30.0294 33.9996C25.801 34.1239 20.3542 34.0635 16.8291 34.0244C15.6159 34.0109 14.6298 34 14 34C12.4817 34 10.965 33.3914 9.83296 32.1839C8.69616 30.9714 8 29.2141 8 27V8ZM10 10V27C10 28.7859 10.5538 30.0286 11.292 30.8161C12.035 31.6086 13.0183 32 14 32C14.6599 32 15.6734 32.0112 16.9113 32.025C19.92 32.0583 24.2545 32.1064 28.0588 32.0435C28.0074 31.9455 27.9565 31.8428 27.9063 31.7354C27.4 30.6505 27 29.1286 27 27V10H10Z" fill="#B2B8BF"/>
<path d="M34 25H31V27.8377C31 29.7262 32.2084 31.4028 34 32V25Z" fill="#B2B8BF"/>
</svg>
