<svg width="32" height="32" viewBox="0 0 32 32" fill="none" xmlns="http://www.w3.org/2000/svg">
<rect width="32" height="32" rx="12" fill="#11828D"/>
<g clip-path="url(#clip0_2027_7021)">
<path d="M7.17671 15.8942C7.17671 15.741 7.18035 15.5887 7.18763 15.4374L4.51456 15.3029C4.50546 15.4991 4.5 15.6971 4.5 15.897C4.49887 17.4586 4.79806 19.005 5.38043 20.4475C5.96279 21.8901 6.81686 23.2004 7.89365 24.3034L9.78972 22.3578C8.96085 21.5103 8.3033 20.5029 7.85487 19.3937C7.40644 18.2844 7.17597 17.0951 7.17671 15.8942Z" fill="#E6E8EB"/>
<path d="M16.0866 6.7472C16.2358 6.7472 16.384 6.7528 16.5314 6.76027L16.6652 4.01512C16.4735 4.00578 16.2806 4.00111 16.0866 4.00111C14.5647 3.9992 13.0576 4.30592 11.6516 4.90364C10.2456 5.50136 8.9685 6.37832 7.89355 7.48416L9.78963 9.43071C10.6152 8.57949 11.5965 7.9042 12.6772 7.44367C13.7578 6.98314 14.9164 6.74644 16.0866 6.7472Z" fill="#E6E8EB"/>
<path d="M16.0864 25.0412C15.9372 25.0412 15.7888 25.0412 15.6406 25.0291L15.5068 27.7733C15.6991 27.7833 15.8923 27.7883 16.0864 27.7883C17.6076 27.7899 19.114 27.483 20.5192 26.8851C21.9244 26.2872 23.2007 25.4101 24.2749 24.3043L22.3824 22.3587C21.5567 23.2095 20.5755 23.8844 19.495 24.3447C18.4146 24.8051 17.2562 25.0418 16.0864 25.0412Z" fill="#E6E8EB"/>
<path d="M21.1089 8.34332L23.3616 6.63869C21.3026 4.92702 18.7325 3.99525 16.083 4.00002V6.74704C17.8771 6.74476 19.6295 7.30137 21.1089 8.34332Z" fill="#E6E8EB"/>
<path d="M27.6724 15.8943C27.6739 15.1797 27.613 14.4663 27.4904 13.7628L24.9966 15.6496C24.9966 15.7309 24.9966 15.8121 24.9966 15.8943C24.9973 17.1723 24.7363 18.4363 24.2307 19.6041C23.7251 20.772 22.986 21.8177 22.0615 22.6736L23.8603 24.7145C25.0622 23.6006 26.0227 22.2398 26.6794 20.7203C27.3361 19.2009 27.6744 17.5566 27.6724 15.8943Z" fill="#E6E8EB"/>
<path d="M16.0866 25.0413C14.8416 25.0417 13.6104 24.7737 12.4727 24.2546C11.335 23.7356 10.3162 22.977 9.48217 22.028L7.49512 23.8737C8.58005 25.1078 9.90552 26.094 11.3856 26.7684C12.8657 27.4427 14.4673 27.7902 16.0866 27.7882V25.0413Z" fill="#E6E8EB"/>
<path d="M10.1118 9.11486L8.31399 7.07397C7.11172 8.18771 6.15091 9.54843 5.49386 11.0679C4.83681 12.5874 4.49821 14.2317 4.50001 15.8941H7.17671C7.17616 14.6162 7.43716 13.3522 7.94277 12.1844C8.44839 11.0166 9.18736 9.9708 10.1118 9.11486Z" fill="#E6E8EB"/>
</g>
<path d="M25.5156 8C26.104 8.77624 26.6022 9.61956 27 10.513L15.7159 19L11 15.9838V12.3551L15.7159 15.3713L25.5156 8Z" fill="#E6E8EB"/>
<defs>
<clipPath id="clip0_2027_7021">
<rect width="24" height="24" fill="white" transform="translate(4.5 4)"/>
</clipPath>
</defs>
</svg>
