<svg width="200" height="33" viewBox="0 0 200 33" fill="none" xmlns="http://www.w3.org/2000/svg">
<g clip-path="url(#clip0_11_18557)">
<path d="M131.011 11.5732H141.183V13.2705H132.922V16.6651H135.832C139.993 16.6651 142.117 18.1501 142.117 21.4812C142.117 24.8124 139.887 26.4255 135.832 26.4255H131.011V11.572V11.5732ZM132.922 18.3636V24.7282H135.768C138.593 24.7282 140.122 23.8374 140.122 21.3543C140.122 19.1263 138.762 18.3624 135.705 18.3624H132.922V18.3636Z" fill="#21A19A"/>
<path d="M144.977 26.4266V15.817H146.74V23.7105L152.728 15.817H154.279V26.4266H152.516V18.4697L146.74 26.1716L146.548 26.4266H144.977Z" fill="#21A19A"/>
<path d="M157.034 23.2857C157.629 24.3046 158.987 25.1111 160.92 25.1111C162.384 25.0892 163.446 24.4961 163.446 23.3065C163.446 22.1826 162.576 21.7788 160.92 21.7788H159.327V20.378H160.602C161.941 20.378 162.896 19.8692 162.896 18.6807C162.896 17.6826 162.385 17.1749 161.027 17.1311C159.371 17.1311 157.97 17.9376 157.142 19.1261V16.6222C157.949 16.0915 159.392 15.6046 161.027 15.6046H161.069C163.765 15.6046 164.68 16.6869 164.68 18.3622C164.68 19.6996 164.085 20.2926 163.045 20.7819C164.445 21.0576 165.211 21.7996 165.211 23.2015C165.211 25.5992 163.277 26.6376 160.921 26.6376C158.946 26.6376 157.587 26.0019 157.035 25.343V23.2846L157.034 23.2857Z" fill="#21A19A"/>
<path d="M175.228 21.8436H169.623V26.4266H167.859V15.817H169.623V20.2524H175.228V15.817H176.991V26.4266H175.228V21.8436Z" fill="#21A19A"/>
<path d="M189.514 20.6123V21.7581H181.381C181.55 24.0508 182.782 25.1112 184.864 25.1112C186.946 25.1112 188.198 24.3046 188.77 23.2858V25.3442C188.239 26.0019 186.944 26.6389 184.864 26.6389C181.508 26.6389 179.575 24.7927 179.575 21.0796C179.575 17.3665 181.827 15.6058 184.82 15.6058C187.813 15.6058 189.514 17.4727 189.514 20.6123ZM181.402 20.2523H187.751V20.2315C187.751 18.1939 186.499 17.1335 184.82 17.1335C182.825 17.1335 181.635 18.195 181.402 20.2535" fill="#21A19A"/>
<path d="M196.581 26.6389C193.226 26.6389 191.293 24.7927 191.293 21.0796C191.293 17.3665 193.544 15.6058 196.538 15.6058C197.96 15.6058 199.234 16.0939 199.935 16.6235V19.1273C199.214 17.9388 197.982 17.1323 196.538 17.1323C194.308 17.1323 193.076 18.4696 193.076 21.0796V21.1431C193.076 23.8592 194.33 25.1112 196.581 25.1112C198.344 25.1112 199.511 24.3046 200.042 23.2858V25.3442C199.554 26.0019 198.387 26.6389 196.581 26.6389Z" fill="#21A19A"/>
<path d="M95.9991 9.89991L100.483 6.59875H85.4795V26.4265H100.483V23.1253H89.7612V18.0484H98.9056V14.7472H89.7612V9.89991H95.9991Z" fill="#21A19A"/>
<path d="M74.155 14.3285H68.9448V9.90119H77.2624L81.7451 6.60004H64.6631V26.4277H73.603C78.6169 26.4277 81.4933 24.157 81.4933 20.1993C81.4933 16.2416 78.8871 14.3297 74.155 14.3297M73.409 23.1254H68.9437V17.6297H73.409C76.1261 17.6297 77.3929 18.5493 77.3929 20.3781C77.3929 22.207 76.0522 23.1254 73.409 23.1254Z" fill="#21A19A"/>
<path d="M112.637 6.60004H104.469V26.4266H108.751V20.8108H112.637C117.85 20.8108 121.088 18.0716 121.088 13.695C121.088 9.3185 117.85 6.60004 112.637 6.60004ZM112.545 17.5085H108.749V9.90003H112.545C115.289 9.90003 116.799 11.2512 116.799 13.7043C116.799 16.1573 115.289 17.5085 112.545 17.5085Z" fill="#21A19A"/>
<path d="M57.3141 22.1332C56.2159 22.7378 54.9376 23.0586 53.6178 23.0586C49.7575 23.0586 46.9561 20.3055 46.9561 16.5128C46.9561 12.7201 49.7575 9.96705 53.6178 9.96705C55.0785 9.96705 56.3868 10.3767 57.5115 11.1844L60.5831 8.92282L60.3799 8.74513C58.5866 7.17128 56.1905 6.33936 53.4515 6.33936C50.4804 6.33936 47.7841 7.34089 45.858 9.1582C43.9215 10.987 42.8545 13.5601 42.8545 16.4032C42.8545 19.2463 43.9168 21.8713 45.8464 23.7555C47.7817 25.6455 50.4723 26.6874 53.4226 26.6874C56.373 26.6874 59.2044 25.612 61.0312 23.6551C59.6212 22.6167 58.2598 21.614 58.2598 21.614L57.3106 22.1332H57.3141Z" fill="#21A19A"/>
<path d="M-0.0418138 16.5129C-0.0418138 25.6121 7.33925 32.9886 16.4455 32.9886C25.5517 32.9886 32.9339 25.6121 32.9339 16.5129C32.9339 15.5056 32.8439 14.519 32.6707 13.5613L29.121 16.1748C29.1245 16.2879 29.1256 16.3998 29.1256 16.5129C29.1256 23.4994 23.4374 29.1833 16.4455 29.1833C9.45357 29.1833 3.7665 23.4994 3.7665 16.5129C3.7665 9.52634 9.45472 3.84365 16.4455 3.84365C19.0956 3.84365 21.5575 4.66057 23.5933 6.05442L26.8 3.69249C23.9697 1.40672 20.367 0.0371094 16.4443 0.0371094C7.33809 0.0371094 -0.0429688 7.41364 -0.0429688 16.5129" fill="#21A19A"/>
<path d="M29.4932 6.43945C30.2715 7.44561 30.9378 8.54292 31.469 9.71407L16.4459 20.7783L10.1699 16.846V12.1164L16.4459 16.0487L29.4932 6.44061V6.43945Z" fill="#21A19A"/>
</g>
<defs>
<clipPath id="clip0_11_18557">
<rect width="200" height="33" fill="white"/>
</clipPath>
</defs>
</svg>
