<?xml version="1.0" encoding="UTF-8"?>
<svg xmlns="http://www.w3.org/2000/svg" xmlns:xlink="http://www.w3.org/1999/xlink" version="1.2" >
<font id="SB Sans Interface Italic">
<font-face  font-family="SB Sans Interface" units-per-em="1000" ascent="950" descent="-250" font-style="italic" font-weight="400" font-stretch="normal" slope="-12" cap-height="700" x-height="526" underline-position="-88" underline-thickness="50" />
<missing-glyph  horiz-adv-x="500" d="M442 8 L442 504 L58 504 L58 8 L442 8 Z M50 512 L450 512 L450 0 L50 0 L50 512 Z " />
<glyph glyph-name="null" d="" />
<glyph glyph-name="uni000D" unicode="&#xd;" horiz-adv-x="250" d="" />
<glyph glyph-name="space" unicode="&#x20;" horiz-adv-x="250" d="" />
<glyph glyph-name="exclam" unicode="&#x21;" horiz-adv-x="330" d="M194 700 L288 700 L183 229 L99 229 L194 700 Z M91 -6 Q38 -6 38 43 Q38 79 59 100.5 Q80 122 118 122 Q140 122 155 109 Q170 96 170 73 Q170 38 149.5 16 Q129 -6 91 -6 Z " />
<glyph glyph-name="quotedbl" unicode="&#x22;" horiz-adv-x="470" d="M169 700 L247 700 L187 420 L109 420 L169 700 Z M375 700 L453 700 L393 420 L315 420 L375 700 Z " />
<glyph glyph-name="numbersign" unicode="&#x23;" horiz-adv-x="600" d="M339 195 L206 195 L172 0 L92 0 L126 195 L25 195 L39 269 L139 269 L168 431 L67 431 L80 505 L181 505 L215 700 L295 700 L261 505 L394 505 L428 700 L508 700 L474 505 L575 505 L562 431 L461 431 L432 269 L533 269 L520 195 L419 195 L385 0 L305 0 L339 195 Z M219 269 L352 269 L381 431 L248 431 L219 269 Z " />
<glyph glyph-name="dollar" unicode="&#x24;" horiz-adv-x="600" d="M193 -10 Q137 -7 93 12 Q49 31 25 51 L48 155 Q60 142 78.5 128 Q97 114 121 102 Q145 90 173.5 82.5 Q202 75 235 75 Q282 75 313.5 85 Q345 95 363.5 112.5 Q382 130 390 153.5 Q398 177 398 205 Q398 241 377.5 264 Q357 287 326.5 303.5 Q296 320 260 334 Q224 348 193.5 367 Q163 386 142.5 414.5 Q122 443 122 488 Q122 530 134 568.5 Q146 607 173 637.5 Q200 668 242.5 687 Q285 706 346 708 L365 800 L439 800 L420 710 Q467 706 504.5 692.5 Q542 679 565 662 L542 560 Q518 585 474.5 605 Q431 625 382 625 Q338 625 313 619.5 Q288 614 270 603 Q241 585 231 558.5 Q221 532 221 506 Q221 471 241.5 450 Q262 429 292.5 413.5 Q323 398 359 384.5 Q395 371 425.5 351.5 Q456 332 476.5 302.5 Q497 273 497 226 Q497 180 483.5 139.5 Q470 99 442 67.5 Q414 36 370.5 16 Q327 -4 267 -8 L244 -120 L170 -120 L193 -10 Z " />
<glyph glyph-name="percent" unicode="&#x25;" horiz-adv-x="860" d="M697 700 L780 700 L166 0 L83 0 L697 700 Z M243 374 Q179 374 142.5 410.5 Q106 447 106 501 Q106 545 118 582.5 Q130 620 154.5 647.5 Q179 675 215.5 690.5 Q252 706 300 706 Q364 706 399 671 Q434 636 434 576 Q434 531 421.5 494 Q409 457 385 430.5 Q361 404 325 389 Q289 374 243 374 Z M250 438 Q281 438 303 448 Q325 458 338 475.5 Q351 493 357 516.5 Q363 540 363 567 Q363 642 291 642 Q258 642 236 630.5 Q214 619 201 600 Q188 581 183 557.5 Q178 534 178 510 Q178 481 195 459.5 Q212 438 250 438 Z M565 -6 Q501 -6 464.5 30.5 Q428 67 428 121 Q428 165 440 202.5 Q452 240 476.5 267.5 Q501 295 537.5 310.5 Q574 326 622 326 Q686 326 721 291 Q756 256 756 196 Q756 151 743.5 114 Q731 77 707 50.5 Q683 24 647 9 Q611 -6 565 -6 Z M572 58 Q603 58 625 68 Q647 78 660 95.5 Q673 113 679 136.5 Q685 160 685 187 Q685 262 613 262 Q580 262 558 250.5 Q536 239 523 220 Q510 201 505 177.5 Q500 154 500 130 Q500 101 517 79.5 Q534 58 572 58 Z " />
<glyph glyph-name="ampersand" unicode="&#x26;" horiz-adv-x="800" d="M238 -11 Q188 -11 150 4.5 Q112 20 86 46.5 Q60 73 47 107.5 Q34 142 34 180 Q34 225 48.5 261 Q63 297 90 325 Q117 353 155.5 374 Q194 395 242 410 Q231 439 224 468 Q217 497 217 522 Q217 563 227.5 598 Q238 633 260.5 658 Q283 683 318.5 697 Q354 711 404 711 Q475 711 513.5 676.5 Q552 642 552 589 Q552 544 536 512 Q520 480 490.5 455.5 Q461 431 420.5 412.5 Q380 394 332 377 Q357 319 395 265.5 Q433 212 483 168 Q544 227 583.5 310.5 Q623 394 640 483 L723 483 Q712 436 695.5 388 Q679 340 656 294 Q633 248 603.5 205.5 Q574 163 537 128 Q567 107 598.5 96 Q630 85 662 79 L642 -11 Q604 -3 559.5 17.5 Q515 38 477 72 Q423 25 363 7 Q303 -11 238 -11 Z M257 68 Q299 68 341.5 78.5 Q384 89 423 120 Q372 170 331.5 227.5 Q291 285 266 347 Q198 326 160.5 290 Q123 254 123 189 Q123 165 131 143.5 Q139 122 155.5 105 Q172 88 197.5 78 Q223 68 257 68 Z M392 639 Q344 639 319 611.5 Q294 584 294 527 Q294 507 298 483.5 Q302 460 310 438 Q346 450 375.5 462 Q405 474 426 489 Q447 504 458 524 Q469 544 469 572 Q469 599 450 619 Q431 639 392 639 Z " />
<glyph glyph-name="quotesingle" unicode="&#x27;" horiz-adv-x="270" d="M169 700 L253 700 L193 420 L109 420 L169 700 Z " />
<glyph glyph-name="parenleft" unicode="&#x28;" horiz-adv-x="380" d="M60 168 Q60 271 86 357 Q112 443 156 516 Q200 589 256.5 650 Q313 711 375 764 L423 717 Q371 665 322 608 Q273 551 234.5 484 Q196 417 173 337.5 Q150 258 150 160 Q150 59 174 -15.5 Q198 -90 232 -150 L172 -191 Q125 -127 92.5 -37 Q60 53 60 168 Z " />
<glyph glyph-name="parenright" unicode="&#x29;" horiz-adv-x="380" d="M297 405 Q297 302 271 216 Q245 130 201 57 Q157 -16 100 -77 Q43 -138 -18 -191 L-66 -144 Q-14 -92 35 -35 Q84 22 122 89 Q160 156 183.5 235.5 Q207 315 207 413 Q207 514 183 588.5 Q159 663 125 723 L185 764 Q232 700 264.5 610 Q297 520 297 405 Z " />
<glyph glyph-name="asterisk" unicode="&#x2a;" horiz-adv-x="500" d="M130 380 L227 496 L87 533 L109 610 L244 548 L231 700 L309 700 L296 548 L430 610 L453 533 L313 495 L410 380 L346 335 L269 463 L193 335 L130 380 Z " />
<glyph glyph-name="plus" unicode="&#x2b;" horiz-adv-x="600" d="M95 399 L260 399 L260 563 L340 563 L340 399 L505 399 L505 318 L340 318 L340 154 L260 154 L260 318 L95 318 L95 399 Z " />
<glyph glyph-name="comma" unicode="&#x2c;" horiz-adv-x="320" d="M-32 -108 Q16 -95 47.5 -66.5 Q79 -38 88 -6 Q62 -6 48 7 Q34 20 34 43 Q34 79 54.5 100.5 Q75 122 113 122 Q142 122 155.5 104.5 Q169 87 169 58 Q169 20 154.5 -15.5 Q140 -51 115.5 -80.5 Q91 -110 59.5 -132 Q28 -154 -6 -164 L-32 -108 Z " />
<glyph glyph-name="hyphen" unicode="&#x2d;" horiz-adv-x="400" d="M32 315 L342 315 L325 235 L15 235 L32 315 Z " />
<glyph glyph-name="period" unicode="&#x2e;" horiz-adv-x="320" d="M85 -6 Q32 -6 32 43 Q32 79 53 100.5 Q74 122 112 122 Q135 122 149.5 109.5 Q164 97 164 74 Q164 38 143.5 16 Q123 -6 85 -6 Z " />
<glyph glyph-name="slash" unicode="&#x2f;" horiz-adv-x="400" d="M306 753 L390 753 L94 -180 L10 -180 L306 753 Z " />
<glyph glyph-name="zero" unicode="0" horiz-adv-x="570" d="M220 -11 Q183 -11 150 3 Q117 17 92.5 45.5 Q68 74 54 118 Q40 162 40 223 Q40 277 46.5 334 Q53 391 65.5 443.5 Q78 496 97 541 Q116 586 142 617 Q182 666 232.5 688.5 Q283 711 352 711 Q403 711 438 694 Q473 677 494.5 647 Q516 617 525.5 575.5 Q535 534 535 486 Q535 442 529.5 382.5 Q524 323 510.5 263 Q497 203 474.5 149.5 Q452 96 418 63 Q381 27 335 8 Q289 -11 220 -11 Z M137 235 Q137 191 145 160.5 Q153 130 167.5 111 Q182 92 201 83.5 Q220 75 241 75 L242 75 Q242 75 252.5 75.5 Q263 76 278 79 Q293 82 310.5 89.5 Q328 97 343 112 Q363 131 380.5 168 Q398 205 411 253.5 Q424 302 431.5 358.5 Q439 415 439 474 Q439 559 412.5 592 Q386 625 338 625 Q325 625 310.5 623.5 Q296 622 280 616.5 Q264 611 248 599.5 Q232 588 216 568 Q201 549 187 515.5 Q173 482 161.5 438.5 Q150 395 143.5 343 Q137 291 137 235 Z " />
<glyph glyph-name="one" unicode="1" horiz-adv-x="570" d="M34 80 L225 80 L332 585 L121 467 L142 564 L384 700 L449 700 L317 80 L454 80 L437 0 L17 0 L34 80 Z " />
<glyph glyph-name="two" unicode="2" horiz-adv-x="570" d="M-4 64 Q80 130 146 179.5 Q212 229 261.5 268 Q311 307 345 337.5 Q379 368 400.5 396.5 Q422 425 431.5 454 Q441 483 441 519 Q441 571 407 598 Q373 625 315 625 Q261 625 209.5 606.5 Q158 588 115 559 L138 667 Q181 689 231.5 700 Q282 711 338 711 Q388 711 426 698.5 Q464 686 489.5 663.5 Q515 641 528 610 Q541 579 541 543 Q541 499 533.5 464 Q526 429 508 398 Q490 367 460.5 336.5 Q431 306 386.5 269.5 Q342 233 282 188 Q222 143 143 83 L450 83 L432 0 L-18 0 L-4 64 Z " />
<glyph glyph-name="three" unicode="3" horiz-adv-x="570" d="M177 397 L245 397 Q341 397 384.5 431 Q428 465 428 533 Q428 575 398.5 600.5 Q369 626 303 626 Q243 626 192.5 607.5 Q142 589 107 569 L128 671 Q169 689 222.5 699.5 Q276 710 341 710 Q391 710 426.5 698 Q462 686 484.5 666 Q507 646 517.5 618 Q528 590 528 559 Q528 471 482 421.5 Q436 372 350 358 Q413 351 446 321.5 Q479 292 479 235 Q479 179 462 133.5 Q445 88 410 56 Q375 24 319.5 6.5 Q264 -11 188 -11 Q128 -11 72.5 4 Q17 19 -15 39 L7 141 Q35 116 84.5 96 Q134 76 196 76 Q296 76 340 113.5 Q384 151 384 226 Q384 270 349.5 294 Q315 318 234 318 L161 318 L177 397 Z " />
<glyph glyph-name="four" unicode="4" horiz-adv-x="570" d="M321 181 L-5 181 L7 239 L412 700 L524 700 L432 264 L523 264 L505 181 L414 181 L376 0 L283 0 L321 181 Z M339 264 L407 589 L125 264 L339 264 Z " />
<glyph glyph-name="five" unicode="5" horiz-adv-x="570" d="M185 700 L566 700 L548 617 L240 617 L186 429 Q204 432 226.5 433.5 Q249 435 287 435 Q388 435 443 395 Q498 355 498 278 Q498 224 485 172 Q472 120 437 79.5 Q402 39 340.5 14 Q279 -11 182 -11 Q134 -11 86 0 Q38 11 7 28 L28 128 Q57 103 103 88 Q149 73 195 73 Q253 73 293 86.5 Q333 100 357 124.5 Q381 149 391.5 182.5 Q402 216 402 255 Q402 309 360.5 332.5 Q319 356 239 356 Q184 356 148.5 351 Q113 346 83 340 L185 700 Z " />
<glyph glyph-name="six" unicode="6" horiz-adv-x="570" d="M231 -11 Q183 -11 147 5.5 Q111 22 86.5 51 Q62 80 50 120 Q38 160 38 207 Q38 259 46 316 Q54 373 71 428 Q88 483 113 531.5 Q138 580 173 616 Q216 661 272.5 686 Q329 711 401 711 Q441 711 477 703 Q513 695 536 681 L516 584 Q496 601 461 613.5 Q426 626 383 626 Q341 626 303.5 611.5 Q266 597 234.5 565.5 Q203 534 178.5 483 Q154 432 139 360 Q138 355 137.5 350.5 Q137 346 135 337 Q172 397 222 424 Q272 451 338 451 Q375 451 405.5 439 Q436 427 458 405 Q480 383 492 352 Q504 321 504 284 Q504 208 481.5 152.5 Q459 97 421.5 60.5 Q384 24 334.5 6.5 Q285 -11 231 -11 Z M247 71 Q278 71 307.5 83 Q337 95 359.5 119.5 Q382 144 395.5 181.5 Q409 219 409 269 Q409 323 378 349 Q347 375 299 375 Q266 375 240 364.5 Q214 354 194.5 336.5 Q175 319 161.5 297.5 Q148 276 139 254 Q135 238 133.5 223.5 Q132 209 132 195 Q132 138 164 104.5 Q196 71 247 71 Z " />
<glyph glyph-name="seven" unicode="7" horiz-adv-x="570" d="M463 617 L103 617 L121 700 L591 700 L578 640 L168 0 L64 0 L463 617 Z " />
<glyph glyph-name="eight" unicode="8" horiz-adv-x="570" d="M211 -11 Q161 -11 124.5 2.5 Q88 16 64 39 Q40 62 28 92.5 Q16 123 16 158 Q16 194 26 229 Q36 264 57.5 292.5 Q79 321 113.5 341.5 Q148 362 198 371 Q153 385 129 417 Q105 449 105 496 Q105 542 120.5 581.5 Q136 621 167 650 Q198 679 245.5 695 Q293 711 357 711 Q403 711 438 699 Q473 687 496 667 Q519 647 530.5 620 Q542 593 542 562 Q542 532 535.5 502 Q529 472 511.5 446 Q494 420 463 399.5 Q432 379 383 367 Q435 353 462 320.5 Q489 288 489 240 Q489 189 472 143 Q455 97 420.5 63 Q386 29 334 9 Q282 -11 211 -11 Z M230 70 Q310 70 352.5 113.5 Q395 157 395 230 Q395 279 364.5 306.5 Q334 334 281 334 Q234 334 202 320.5 Q170 307 151 284.5 Q132 262 124 232.5 Q116 203 116 172 Q116 125 145.5 97.5 Q175 70 230 70 Z M299 399 Q347 400 375.5 414 Q404 428 419.5 448.5 Q435 469 439.5 493.5 Q444 518 444 540 Q444 581 419 605.5 Q394 630 346 630 Q305 630 276.5 619 Q248 608 230 589.5 Q212 571 204 545 Q196 519 196 489 Q196 451 221 424 Q246 397 299 399 Z " />
<glyph glyph-name="nine" unicode="9" horiz-adv-x="570" d="M152 -11 Q119 -11 86.5 -4 Q54 3 31 16 L51 111 Q71 97 101 85.5 Q131 74 177 74 Q218 74 257 88.5 Q296 103 329 135.5 Q362 168 388.5 219 Q415 270 430 342 Q432 350 433 355.5 Q434 361 435 368 Q399 310 348 280 Q297 250 231 250 Q193 250 163 263 Q133 276 112 299 Q91 322 79.5 353 Q68 384 68 421 Q68 488 89 542 Q110 596 147 633.5 Q184 671 233 691 Q282 711 339 711 Q434 711 484.5 656.5 Q535 602 535 495 Q535 389 510.5 296.5 Q486 204 437.5 136 Q389 68 317.5 28.5 Q246 -11 152 -11 Z M266 326 Q300 326 327.5 336.5 Q355 347 376.5 364.5 Q398 382 412.5 405 Q427 428 436 453 Q439 468 441 481.5 Q443 495 443 508 Q445 565 412.5 597 Q380 629 325 629 Q293 629 264 617 Q235 605 212.5 581 Q190 557 176.5 520 Q163 483 163 434 Q163 385 191 355.5 Q219 326 266 326 Z " />
<glyph glyph-name="colon" unicode="&#x3a;" horiz-adv-x="330" d="M91 -6 Q38 -6 38 43 Q38 79 59 100.5 Q80 122 118 122 Q141 122 155.5 109.5 Q170 97 170 74 Q170 38 149.5 16 Q129 -6 91 -6 Z M174 384 Q121 384 121 433 Q121 469 142 490.5 Q163 512 201 512 Q224 512 238.5 499.5 Q253 487 253 464 Q253 428 232.5 406 Q212 384 174 384 Z " />
<glyph glyph-name="semicolon" unicode="&#x3b;" horiz-adv-x="330" d="M-27 -108 Q21 -95 52.5 -66.5 Q84 -38 93 -6 Q67 -6 53 7 Q39 20 39 43 Q39 79 59.5 100.5 Q80 122 118 122 Q147 122 160.5 104.5 Q174 87 174 58 Q174 20 159.5 -15.5 Q145 -51 120.5 -80.5 Q96 -110 64.5 -132 Q33 -154 -1 -164 L-27 -108 Z M174 384 Q121 384 121 433 Q121 469 142 490.5 Q163 512 201 512 Q224 512 239 499.5 Q254 487 254 464 Q254 428 233 406 Q212 384 174 384 Z " />
<glyph glyph-name="less" unicode="&#x3c;" horiz-adv-x="600" d="M75 318 L75 396 L485 595 L485 504 L175 359 L485 214 L485 118 L75 318 Z " />
<glyph glyph-name="equal" unicode="&#x3d;" horiz-adv-x="600" d="M95 294 L505 294 L505 214 L95 214 L95 294 Z M95 500 L505 500 L505 420 L95 420 L95 500 Z " />
<glyph glyph-name="greater" unicode="&#x3e;" horiz-adv-x="600" d="M525 396 L525 318 L115 118 L115 210 L425 355 L115 500 L115 595 L525 396 Z " />
<glyph glyph-name="question" unicode="&#x3f;" horiz-adv-x="480" d="M121 -6 Q68 -6 68 43 Q68 79 89 100.5 Q110 122 148 122 Q171 122 185.5 109.5 Q200 97 200 74 Q200 38 179.5 16 Q159 -6 121 -6 Z M125 219 Q133 271 154.5 303.5 Q176 336 204 358 Q232 380 262.5 396 Q293 412 319 431 Q345 450 361.5 476.5 Q378 503 378 546 Q378 583 351.5 605 Q325 627 267 627 Q217 627 176 615.5 Q135 604 100 584 L121 682 Q161 699 203.5 705 Q246 711 290 711 Q379 711 427.5 671 Q476 631 476 566 Q476 505 458 467 Q440 429 412.5 403.5 Q385 378 352 361 Q319 344 289.5 325.5 Q260 307 238 283 Q216 259 210 219 L125 219 Z " />
<glyph glyph-name="at" unicode="&#x40;" horiz-adv-x="900" d="M366 -131 Q284 -131 223.5 -104 Q163 -77 123.5 -31 Q84 15 65 76 Q46 137 46 206 Q46 312 76.5 403.5 Q107 495 167 562 Q227 629 315 667 Q403 705 519 705 Q589 705 647.5 683.5 Q706 662 748 623 Q790 584 813.5 529 Q837 474 837 408 Q837 325 818 260.5 Q799 196 766.5 152 Q734 108 691 85.5 Q648 63 599 63 Q575 63 558.5 71.5 Q542 80 533 94 Q524 108 521 125 Q518 142 520 160 Q499 112 461.5 87.5 Q424 63 365 63 Q340 63 316.5 72 Q293 81 274.5 99.5 Q256 118 245 146.5 Q234 175 234 214 Q234 297 258.5 363.5 Q283 430 325 468 Q353 494 386 504 Q419 514 459 514 Q486 514 505.5 507 Q525 500 537.5 488.5 Q550 477 557 462.5 Q564 448 566 433 L590 505 L653 505 L590 212 Q588 204 585.5 188.5 Q583 173 583 167 Q582 126 620 126 Q648 126 675.5 142 Q703 158 725.5 191 Q748 224 762 276 Q776 328 776 400 Q776 455 758 500.5 Q740 546 706 578.5 Q672 611 622 628.5 Q572 646 508 646 Q409 646 334 614.5 Q259 583 209 526 Q159 469 134 389.5 Q109 310 109 214 Q109 153 124.5 101 Q140 49 173 10.5 Q206 -28 256.5 -50 Q307 -72 377 -72 Q425 -72 474.5 -63 Q524 -54 558 -34 L542 -104 Q507 -118 461 -124.5 Q415 -131 366 -131 Z M391 128 Q447 128 477.5 163 Q508 198 524 268 L532 304 Q535 318 536.5 335.5 Q538 353 538 364 Q539 406 518 427.5 Q497 449 461 449 Q432 449 411.5 442 Q391 435 374 418 Q344 389 328.5 335.5 Q313 282 313 221 Q313 175 334 151.5 Q355 128 391 128 Z " />
<glyph glyph-name="A" unicode="A" horiz-adv-x="640" d="M346 700 L446 700 L547 0 L454 0 L430 185 L149 185 L47 0 L-53 0 L346 700 Z M194 265 L419 265 L378 596 L194 265 Z " />
<glyph glyph-name="B" unicode="B" horiz-adv-x="625" d="M237 -6 Q209 -6 178.5 -5 Q148 -4 119.5 -2 Q91 0 72.5 1.5 Q54 3 29 5 L176 695 Q194 697 213.5 698.5 Q233 700 259.5 702 Q286 704 314.5 705 Q343 706 370 706 Q486 706 536.5 669 Q587 632 587 559 Q587 478 551.5 426.5 Q516 375 430 358 Q477 347 508.5 319 Q540 291 540 238 Q540 185 528 140.5 Q516 96 482.5 63.5 Q449 31 390 12.5 Q331 -6 237 -6 Z M444 223 Q444 268 415 294 Q386 320 315 320 L188 320 L137 82 Q161 80 189.5 79 Q218 78 259 78 Q305 78 339.5 84.5 Q374 91 397 107 Q420 123 432 151 Q444 179 444 223 Z M487 538 Q487 580 459 601 Q431 622 363 622 Q325 622 297 621 Q269 620 252 619 L204 397 L321 397 Q372 397 404.5 408 Q437 419 455.5 438 Q474 457 480.5 482.5 Q487 508 487 538 Z " />
<glyph glyph-name="C" unicode="C" horiz-adv-x="575" d="M292 -11 Q236 -11 189 4 Q142 19 108 49.5 Q74 80 54.5 127 Q35 174 35 239 Q35 372 73.5 474.5 Q112 577 186 638 Q237 680 296 695.5 Q355 711 433 711 Q491 711 535 696 Q579 681 594 671 L573 575 Q549 595 510 610 Q471 625 416 625 Q360 625 317.5 611.5 Q275 598 241 569 Q215 546 195 513 Q175 480 161.5 439.5 Q148 399 141 353.5 Q134 308 134 260 Q134 162 180.5 118.5 Q227 75 306 75 Q363 75 408.5 89.5 Q454 104 483 120 L462 21 Q453 17 436 11.5 Q419 6 398 1 Q377 -4 349 -7.5 Q321 -11 292 -11 Z " />
<glyph glyph-name="D" unicode="D" horiz-adv-x="680" d="M216 -6 Q189 -6 162.5 -5 Q136 -4 109.5 -2 Q83 0 64.5 1.5 Q46 3 29 5 L176 695 Q193 697 211.5 698.5 Q230 700 261 702 Q292 704 315.5 705 Q339 706 367 706 Q512 706 578.5 644.5 Q645 583 645 457 Q645 408 637.5 357 Q630 306 615 258 Q600 210 577 168.5 Q554 127 523 97 Q462 37 385.5 15.5 Q309 -6 216 -6 Z M547 443 Q547 537 502 578 Q457 619 354 619 Q319 619 295.5 617.5 Q272 616 250 614 L138 86 Q154 84 178 82.5 Q202 81 236 81 Q318 81 369.5 100.5 Q421 120 457 159 Q482 186 499 220.5 Q516 255 526.5 293 Q537 331 542 369.5 Q547 408 547 443 Z " />
<glyph glyph-name="E" unicode="E" horiz-adv-x="575" d="M177 700 L596 700 L578 617 L251 617 L205 399 L492 399 L475 318 L188 318 L138 83 L465 83 L447 0 L28 0 L177 700 Z " />
<glyph glyph-name="F" unicode="F" horiz-adv-x="545" d="M177 701 L576 701 L558 617 L251 617 L201 379 L478 379 L460 295 L183 295 L120 0 L28 0 L177 701 Z " />
<glyph glyph-name="G" unicode="G" horiz-adv-x="650" d="M302 -11 Q247 -11 199 4 Q151 19 115 51 Q79 83 58.5 134 Q38 185 38 256 Q38 380 75.5 475.5 Q113 571 172 624 Q197 647 225.5 663.5 Q254 680 287 690.5 Q320 701 359 706 Q398 711 445 711 Q506 711 550 699 Q594 687 612 677 L592 581 Q567 597 527.5 611 Q488 625 437 625 Q366 625 316.5 610 Q267 595 229 556 Q181 508 158.5 429.5 Q136 351 136 260 Q136 210 148.5 175 Q161 140 185 117.5 Q209 95 243 85 Q277 75 320 75 Q352 75 382.5 78.5 Q413 82 437 90 L477 280 L344 280 L361 360 L584 360 L514 29 Q483 14 428.5 1.5 Q374 -11 302 -11 Z " />
<glyph glyph-name="H" unicode="H" horiz-adv-x="720" d="M177 700 L269 700 L205 401 L539 401 L603 700 L695 700 L546 0 L454 0 L521 317 L187 317 L120 0 L28 0 L177 700 Z " />
<glyph glyph-name="I" unicode="I" horiz-adv-x="330" d="M195 700 L287 700 L138 0 L46 0 L195 700 Z " />
<glyph glyph-name="J" unicode="J" horiz-adv-x="420" d="M68 -11 Q32 -11 3.5 -2.5 Q-25 6 -36 13 L-16 106 Q-4 97 21.5 86 Q47 75 79 75 Q124 75 148.5 99 Q173 123 186 183 L296 700 L389 700 L279 183 Q268 130 251 93 Q234 56 209 33 Q184 10 149 -0.5 Q114 -11 68 -11 Z " />
<glyph glyph-name="K" unicode="K" horiz-adv-x="655" d="M269 317 L187 317 L120 0 L28 0 L177 700 L269 700 L205 400 L274 400 L569 700 L686 700 L348 360 L557 0 L450 0 L269 317 Z " />
<glyph glyph-name="L" unicode="L" horiz-adv-x="530" d="M177 700 L269 700 L138 83 L445 83 L427 0 L28 0 L177 700 Z " />
<glyph glyph-name="M" unicode="M" horiz-adv-x="850" d="M177 700 L287 700 L406 270 L709 700 L825 700 L676 0 L586 0 L684 459 Q688 477 690.5 490 Q693 503 696 516 Q699 529 703 542 Q707 555 712 573 L709 573 Q699 555 691 542 Q683 529 674.5 516.5 Q666 504 656.5 490.5 Q647 477 634 459 L426 164 L348 164 L265 459 Q260 477 256.5 490.5 Q253 504 250 516.5 Q247 529 244.5 542 Q242 555 239 573 L236 573 Q233 555 231 542 Q229 529 227 516 Q225 503 222.5 490 Q220 477 216 459 L118 0 L28 0 L177 700 Z " />
<glyph glyph-name="N" unicode="N" horiz-adv-x="740" d="M177 700 L271 700 L468 240 Q481 210 490.5 179 Q500 148 504 134 L506 134 Q508 148 513.5 179 Q519 210 525 240 L623 700 L715 700 L566 0 L472 0 L276 460 Q262 495 252.5 524 Q243 553 240 566 L238 566 Q236 552 231.5 523.5 Q227 495 219 460 L120 0 L28 0 L177 700 Z " />
<glyph glyph-name="O" unicode="O" horiz-adv-x="710" d="M279 -11 Q231 -11 187.5 4.5 Q144 20 111 52.5 Q78 85 58 134 Q38 183 38 249 Q38 311 48.5 370.5 Q59 430 79 482 Q99 534 128 576 Q157 618 194 645 Q244 682 300.5 696.5 Q357 711 426 711 Q542 711 609.5 648 Q677 585 677 458 Q677 317 634 209.5 Q591 102 511 47 Q463 14 408.5 1.5 Q354 -11 279 -11 Z M304 73 Q347 73 392 85 Q437 97 473 131 Q523 178 550.5 259 Q578 340 578 438 Q578 537 532 582 Q486 627 405 627 Q358 627 317 615 Q276 603 241 569 Q217 545 197.5 511 Q178 477 164.5 436.5 Q151 396 143.5 350.5 Q136 305 136 258 Q136 209 149.5 174 Q163 139 186 116.5 Q209 94 239.5 83.5 Q270 73 304 73 Z " />
<glyph glyph-name="P" unicode="P" horiz-adv-x="620" d="M176 695 Q196 698 244.5 702 Q293 706 362 706 Q486 706 544 661 Q602 616 602 525 Q602 451 584 394.5 Q566 338 526.5 300 Q487 262 424 242.5 Q361 223 271 223 Q234 223 208 224.5 Q182 226 168 228 L120 0 L28 0 L176 695 Z M503 509 Q503 561 470.5 590 Q438 619 356 619 Q319 619 292 617.5 Q265 616 251 614 L187 315 Q201 313 227 311.5 Q253 310 290 310 Q361 310 403 326.5 Q445 343 467.5 370.5 Q490 398 496.5 434 Q503 470 503 509 Z " />
<glyph glyph-name="Q" unicode="Q" horiz-adv-x="710" d="M268 -11 Q222 -9 180 7.5 Q138 24 106.5 56.5 Q75 89 56.5 136.5 Q38 184 38 249 Q38 311 48.5 370.5 Q59 430 79 482 Q99 534 128 576 Q157 618 194 645 Q244 682 300.5 696.5 Q357 711 426 711 Q542 711 609.5 648 Q677 585 677 458 Q677 317 634 209.5 Q591 102 511 47 Q451 6 378 -4 L492 -160 L379 -160 L268 -11 Z M304 73 Q347 73 392 85 Q437 97 473 131 Q523 178 550.5 259 Q578 340 578 438 Q578 537 532 582 Q486 627 405 627 Q358 627 317 615 Q276 603 241 569 Q217 545 197.5 511 Q178 477 164.5 436.5 Q151 396 143.5 350.5 Q136 305 136 258 Q136 209 149.5 174 Q163 139 186 116.5 Q209 94 239.5 83.5 Q270 73 304 73 Z " />
<glyph glyph-name="R" unicode="R" horiz-adv-x="640" d="M317 269 Q307 268 296.5 268 Q286 268 275 268 L177 268 L120 0 L28 0 L176 695 Q197 698 249 702 Q301 706 365 706 Q425 706 466.5 693.5 Q508 681 534 657.5 Q560 634 571.5 601.5 Q583 569 583 529 Q583 437 542.5 372.5 Q502 308 407 285 L516 0 L416 0 L317 269 Z M484 516 Q484 567 453 593 Q422 619 350 619 Q320 619 291.5 618.5 Q263 618 250 616 L194 352 L291 352 Q345 352 382 362.5 Q419 373 441.5 394 Q464 415 474 445.5 Q484 476 484 516 Z " />
<glyph glyph-name="S" unicode="S" horiz-adv-x="580" d="M217 -11 Q185 -11 154.5 -6 Q124 -1 97.5 7.5 Q71 16 49.5 26.5 Q28 37 15 48 L38 150 Q50 137 69 124 Q88 111 112.5 100 Q137 89 166.5 82 Q196 75 229 75 Q276 75 306.5 84.5 Q337 94 355 111 Q373 128 380.5 151.5 Q388 175 388 203 Q388 239 367.5 262 Q347 285 316.5 302 Q286 319 250 334 Q214 349 183.5 369 Q153 389 132.5 418 Q112 447 112 492 Q112 537 126 577 Q140 617 170 647 Q200 677 248.5 694 Q297 711 366 711 Q421 711 472.5 698 Q524 685 554 666 L532 564 Q495 597 451.5 611 Q408 625 359 625 Q312 625 283 614.5 Q254 604 238 587.5 Q222 571 216.5 550 Q211 529 211 508 Q211 474 231.5 453 Q252 432 282.5 415.5 Q313 399 349 384 Q385 369 415.5 348 Q446 327 466.5 296.5 Q487 266 487 218 Q487 170 472.5 128 Q458 86 425.5 55.5 Q393 25 341.5 7 Q290 -11 217 -11 Z " />
<glyph glyph-name="T" unicode="T" horiz-adv-x="580" d="M302 617 L93 617 L111 700 L621 700 L603 617 L394 617 L263 0 L171 0 L302 617 Z " />
<glyph glyph-name="U" unicode="U" horiz-adv-x="670" d="M259 -11 Q160 -11 108.5 43 Q57 97 57 185 Q57 203 60 228 Q63 253 67.5 279 Q72 305 77 329 Q82 353 85 369 L155 700 L249 700 L167 316 Q159 278 155 245.5 Q151 213 151 194 Q151 139 181 107 Q211 75 277 75 Q321 75 354 83.5 Q387 92 411 114 Q435 136 452 175 Q469 214 482 274 L573 700 L665 700 L574 270 Q557 190 530 136 Q503 82 464.5 49.5 Q426 17 375 3 Q324 -11 259 -11 Z " />
<glyph glyph-name="V" unicode="V" horiz-adv-x="620" d="M96 700 L191 700 L262 111 L574 700 L676 700 L297 0 L187 0 L96 700 Z " />
<glyph glyph-name="W" unicode="W" horiz-adv-x="900" d="M106 700 L201 700 L206 244 Q206 226 206 212.5 Q206 199 205.5 186.5 Q205 174 204.5 161 Q204 148 203 130 L206 130 Q213 148 218.5 161 Q224 174 229.5 186.5 Q235 199 241 212.5 Q247 226 255 244 L471 700 L575 700 L600 244 Q601 226 601.5 212.5 Q602 199 602 186.5 Q602 174 602 161 Q602 148 602 130 L604 130 Q610 148 615 161 Q620 174 625 187 Q630 200 635.5 213 Q641 226 649 244 L848 700 L946 700 L639 0 L530 0 L504 469 Q502 503 501.5 535.5 Q501 568 501 583 L498 583 Q492 568 478 535.5 Q464 503 448 469 L225 0 L115 0 L106 700 Z " />
<glyph glyph-name="X" unicode="X" horiz-adv-x="630" d="M258 354 L115 700 L216 700 L327 429 L556 700 L667 700 L370 354 L532 0 L429 0 L301 278 L64 0 L-48 0 L258 354 Z " />
<glyph glyph-name="Y" unicode="Y" horiz-adv-x="610" d="M249 271 L96 700 L196 700 L310 368 L559 700 L666 700 L341 271 L283 0 L191 0 L249 271 Z " />
<glyph glyph-name="Z" unicode="Z" horiz-adv-x="590" d="M-10 61 L461 617 L118 617 L136 700 L606 700 L593 639 L122 83 L485 83 L467 0 L-23 0 L-10 61 Z " />
<glyph glyph-name="bracketleft" unicode="&#x5b;" horiz-adv-x="380" d="M195 753 L426 753 L410 676 L263 676 L97 -103 L244 -103 L228 -180 L-3 -180 L195 753 Z " />
<glyph glyph-name="backslash" unicode="&#x5c;" horiz-adv-x="400" d="M30 753 L118 753 L410 -180 L322 -180 L30 753 Z " />
<glyph glyph-name="bracketright" unicode="&#x5d;" horiz-adv-x="380" d="M-54 -103 L93 -103 L259 676 L112 676 L128 753 L359 753 L161 -180 L-70 -180 L-54 -103 Z " />
<glyph glyph-name="asciicircum" unicode="&#x5e;" horiz-adv-x="600" d="M259 700 L341 700 L525 357 L443 357 L299 631 L155 357 L75 357 L259 700 Z " />
<glyph glyph-name="underscore" unicode="&#x5f;" horiz-adv-x="420" d="M-80 -112 L340 -112 L340 -180 L-80 -180 L-80 -112 Z " />
<glyph glyph-name="grave" unicode="&#x60;" horiz-adv-x="300" d="M141 756 L253 756 L307 617 L236 617 L141 756 Z " />
<glyph glyph-name="a" unicode="a" horiz-adv-x="535" d="M153 -11 Q85 -11 45.5 25 Q6 61 6 126 Q6 163 15.5 195.5 Q25 228 51.5 252.5 Q78 277 125.5 291.5 Q173 306 249 306 L363 306 L368 328 Q369 333 370.5 342 Q372 351 373.5 360 Q375 369 376 377 Q377 385 377 389 Q377 424 349 440 Q321 456 267 456 Q220 456 179 443 Q138 430 106 411 L126 503 Q155 519 199.5 528 Q244 537 294 537 Q379 537 423.5 505 Q468 473 468 411 Q468 403 466.5 391.5 Q465 380 463 367 Q461 354 458.5 341 Q456 328 454 318 L386 0 L307 0 L320 81 Q294 37 256 13 Q218 -11 153 -11 Z M185 67 Q247 67 286 98.5 Q325 130 342 208 L350 244 L237 244 Q186 244 158 233 Q130 222 117 206 Q104 190 101.5 172 Q99 154 99 141 Q99 110 118.5 88.5 Q138 67 185 67 Z " />
<glyph glyph-name="b" unicode="b" horiz-adv-x="590" d="M261 -11 Q226 -11 200.5 -2.5 Q175 6 158 20 Q141 34 130.5 52.5 Q120 71 115 91 L90 0 L8 0 L168 753 L256 753 L191 445 Q200 459 213.5 475.5 Q227 492 247.5 505.5 Q268 519 296 528 Q324 537 360 537 Q398 537 430 527 Q462 517 485.5 495.5 Q509 474 522 440.5 Q535 407 535 361 Q535 316 529 272 Q523 228 510.5 188.5 Q498 149 480 115.5 Q462 82 438 58 Q405 24 362 6.5 Q319 -11 261 -11 Z M253 70 Q293 70 318.5 78.5 Q344 87 361 102 Q384 121 399.5 150.5 Q415 180 424 213 Q433 246 437 278.5 Q441 311 441 335 Q441 401 409.5 428.5 Q378 456 327 456 Q256 456 216 416.5 Q176 377 159 296 L150 254 Q147 241 145 218.5 Q143 196 143 185 Q143 134 172 102 Q201 70 253 70 Z " />
<glyph glyph-name="c" unicode="c" horiz-adv-x="475" d="M228 -11 Q128 -11 75 40.5 Q22 92 22 195 Q22 235 30 277 Q38 319 53 357.5 Q68 396 90.5 429 Q113 462 143 485 Q182 515 228.5 526 Q275 537 324 537 Q350 537 374 532.5 Q398 528 416.5 522 Q435 516 448 509.5 Q461 503 465 500 L446 408 Q427 425 392.5 440.5 Q358 456 315 456 Q271 456 240.5 445.5 Q210 435 184 409 Q168 393 155.5 369.5 Q143 346 134 319 Q125 292 120 262.5 Q115 233 115 205 Q115 133 151.5 101.5 Q188 70 251 70 Q288 70 327 80.5 Q366 91 390 108 L371 15 Q356 7 319.5 -2 Q283 -11 228 -11 Z " />
<glyph glyph-name="d" unicode="d" horiz-adv-x="590" d="M366 83 Q344 39 304.5 14 Q265 -11 195 -11 Q157 -11 125.5 0.5 Q94 12 71 35.5 Q48 59 35 94.5 Q22 130 22 179 Q22 226 30 271.5 Q38 317 52.5 357 Q67 397 88 430 Q109 463 135 485 Q173 517 210 527 Q247 537 296 537 Q362 537 395.5 510.5 Q429 484 441 439 L508 753 L596 753 L436 0 L354 0 L366 83 Z M116 195 Q116 126 146.5 98 Q177 70 225 70 Q258 70 284 78.5 Q310 87 334 109 Q359 131 375 165 Q391 199 399 241 L405 272 Q408 286 411 309 Q414 332 414 350 Q414 399 387.5 427.5 Q361 456 301 456 Q263 456 235.5 446.5 Q208 437 186 414 Q171 398 158 374 Q145 350 135.5 321.5 Q126 293 121 260.5 Q116 228 116 195 Z " />
<glyph glyph-name="e" unicode="e" horiz-adv-x="550" d="M234 -11 Q134 -11 79 37.5 Q24 86 24 186 Q24 229 31.5 271 Q39 313 52.5 350.5 Q66 388 85 419 Q104 450 127 471 Q164 506 208.5 521.5 Q253 537 313 537 Q352 537 385.5 527.5 Q419 518 443.5 498.5 Q468 479 482 449 Q496 419 496 379 Q496 357 493.5 332.5 Q491 308 484 279 L475 240 L117 240 Q114 223 113.5 214 Q113 205 113 191 Q113 67 250 67 Q300 67 343.5 80.5 Q387 94 419 117 L399 25 Q371 8 331.5 -1.5 Q292 -11 234 -11 Z M303 462 Q239 462 193.5 425 Q148 388 131 304 L401 304 Q409 339 409 364 Q410 411 383 436.5 Q356 462 303 462 Z " />
<glyph glyph-name="f" unicode="f" horiz-adv-x="400" d="M151 447 L57 447 L74 526 L167 526 L183 599 Q192 641 206 671 Q220 701 242 720.5 Q264 740 294.5 749.5 Q325 759 366 759 Q392 759 415 752.5 Q438 746 451 739 L432 654 Q421 663 402 670 Q383 677 359 677 Q318 677 299 658 Q280 639 269 587 L256 526 L404 526 L387 447 L239 447 L144 0 L56 0 L151 447 Z " />
<glyph glyph-name="g" unicode="g" horiz-adv-x="590" d="M158 -191 Q98 -191 54.5 -175 Q11 -159 -12 -145 L8 -49 Q16 -57 31.5 -67 Q47 -77 68 -87 Q89 -97 115.5 -103.5 Q142 -110 174 -110 Q214 -110 244 -103 Q274 -96 296 -80 Q318 -64 332 -37 Q346 -10 354 29 L368 96 Q342 57 302 31 Q262 5 194 5 Q113 5 68.5 52.5 Q24 100 24 189 Q24 280 52.5 357.5 Q81 435 131 479 Q164 508 202 522.5 Q240 537 293 537 Q359 537 394 509.5 Q429 482 441 439 L466 526 L547 526 L443 35 Q429 -30 405.5 -73.5 Q382 -117 347.5 -143 Q313 -169 266 -180 Q219 -191 158 -191 Z M226 86 Q295 86 339.5 128 Q384 170 401 247 L409 283 Q412 296 413.5 314 Q415 332 415 351 Q415 399 388 427.5 Q361 456 301 456 Q257 456 231 444.5 Q205 433 182 410 Q167 394 155 371.5 Q143 349 135 322 Q127 295 122.5 265.5 Q118 236 118 208 Q118 141 147.5 113.5 Q177 86 226 86 Z " />
<glyph glyph-name="h" unicode="h" horiz-adv-x="585" d="M168 753 L256 753 L190 443 Q239 537 366 537 Q434 537 473 500.5 Q512 464 512 401 Q512 384 509.5 358 Q507 332 502 311 L436 0 L348 0 L409 288 Q413 307 416 331.5 Q419 356 419 370 Q420 408 396.5 432 Q373 456 324 456 Q193 456 161 308 L96 0 L8 0 L168 753 Z " />
<glyph glyph-name="i" unicode="i" horiz-adv-x="290" d="M140 526 L228 526 L116 0 L28 0 L140 526 Z M206 632 Q183 632 171.5 643.5 Q160 655 160 675 Q160 704 176.5 722 Q193 740 229 740 Q252 740 264 728.5 Q276 717 276 698 Q276 667 259 649.5 Q242 632 206 632 Z " />
<glyph glyph-name="j" unicode="j" horiz-adv-x="290" d="M-58 -186 Q-84 -186 -104 -179.5 Q-124 -173 -130 -169 L-112 -83 Q-102 -91 -87 -97.5 Q-72 -104 -55 -104 Q-39 -104 -27 -100.5 Q-15 -97 -5.5 -88 Q4 -79 11 -63.5 Q18 -48 23 -24 L140 526 L228 526 L110 -27 Q101 -71 86 -101.5 Q71 -132 50.5 -151 Q30 -170 3 -178 Q-24 -186 -58 -186 Z M206 632 Q186 632 173 642 Q160 652 160 672 Q160 703 178.5 721.5 Q197 740 229 740 Q249 740 262.5 730 Q276 720 276 700 Q276 669 257 650.5 Q238 632 206 632 Z " />
<glyph glyph-name="k" unicode="k" horiz-adv-x="555" d="M168 753 L256 753 L163 313 L217 313 L429 526 L538 526 L285 275 L446 0 L347 0 L213 234 L146 234 L96 0 L8 0 L168 753 Z " />
<glyph glyph-name="l" unicode="l" horiz-adv-x="315" d="M131 -6 Q77 -6 52.5 23 Q28 52 28 88 Q28 98 30.5 121 Q33 144 41 179 L163 753 L252 753 L126 162 Q124 154 121.5 137.5 Q119 121 119 115 Q119 98 130 87.5 Q141 77 165 77 Q190 77 204.5 82 Q219 87 227 91 L209 7 Q201 4 179 -1 Q157 -6 131 -6 Z " />
<glyph glyph-name="m" unicode="m" horiz-adv-x="835" d="M120 526 L202 526 L189 439 Q211 484 251 510.5 Q291 537 346 537 Q398 537 430 510 Q462 483 467 429 Q499 487 540 512 Q581 537 638 537 Q694 537 729 506 Q764 475 764 414 Q764 391 760.5 364.5 Q757 338 753 319 L686 0 L598 0 L664 308 Q668 325 670.5 347 Q673 369 673 381 Q672 422 648.5 439 Q625 456 594 456 Q545 456 510 424.5 Q475 393 460 323 L391 0 L303 0 L369 309 Q373 326 376 346.5 Q379 367 379 379 Q379 420 354.5 438 Q330 456 299 456 Q248 456 213.5 423.5 Q179 391 165 323 L96 0 L8 0 L120 526 Z " />
<glyph glyph-name="n" unicode="n" horiz-adv-x="585" d="M120 526 L202 526 L189 437 Q216 485 258 511 Q300 537 363 537 Q435 537 473.5 500.5 Q512 464 512 404 Q512 391 510 373.5 Q508 356 505.5 337.5 Q503 319 500 302.5 Q497 286 495 276 L436 0 L348 0 L407 279 Q412 299 415.5 325.5 Q419 352 419 373 Q419 409 394 432.5 Q369 456 322 456 Q259 456 218 419 Q177 382 162 310 L96 0 L8 0 L120 526 Z " />
<glyph glyph-name="o" unicode="o" horiz-adv-x="570" d="M212 -11 Q174 -11 139.5 0.5 Q105 12 79.5 35.5 Q54 59 39 95 Q24 131 24 180 Q24 223 31 266 Q38 309 51.5 348 Q65 387 85.5 420 Q106 453 133 477 Q171 510 215 523.5 Q259 537 320 537 Q360 537 395.5 526 Q431 515 457 492.5 Q483 470 498 434 Q513 398 513 349 Q513 250 480 168.5 Q447 87 390 42 Q354 13 312.5 1 Q271 -11 212 -11 Z M228 70 Q272 70 301.5 81 Q331 92 355 119 Q370 137 382.5 162.5 Q395 188 403.5 217 Q412 246 416.5 276 Q421 306 421 333 Q421 367 412.5 390.5 Q404 414 388.5 428.5 Q373 443 352 449.5 Q331 456 306 456 Q268 456 240 447 Q212 438 188 414 Q171 397 157.5 372.5 Q144 348 135 319 Q126 290 121 257.5 Q116 225 116 193 Q116 159 124.5 135.5 Q133 112 148 97.5 Q163 83 183.5 76.5 Q204 70 228 70 Z " />
<glyph glyph-name="p" unicode="p" horiz-adv-x="590" d="M120 526 L202 526 L190 441 Q201 461 215.5 478.5 Q230 496 251 509 Q272 522 299.5 529.5 Q327 537 363 537 Q401 537 433 527 Q465 517 488.5 496 Q512 475 525 442 Q538 409 538 364 Q538 283 519.5 215 Q501 147 473 102 Q437 44 384 16.5 Q331 -11 259 -11 Q224 -11 198.5 -2 Q173 7 156 21 Q139 35 129 52.5 Q119 70 115 87 L58 -180 L-30 -180 L120 526 Z M444 337 Q444 402 411.5 429 Q379 456 329 456 Q259 456 217.5 416.5 Q176 377 159 296 L151 259 Q148 246 145 226 Q142 206 142 184 Q142 157 151 135.5 Q160 114 175 99.5 Q190 85 210 77.5 Q230 70 251 70 Q272 70 291 72.5 Q310 75 328 83 Q346 91 362.5 105.5 Q379 120 394 143 Q407 163 416.5 188.5 Q426 214 432 241 Q438 268 441 293 Q444 318 444 337 Z " />
<glyph glyph-name="q" unicode="q" horiz-adv-x="590" d="M367 89 Q344 46 303 17.5 Q262 -11 192 -11 Q114 -11 67 37 Q20 85 20 172 Q20 221 27.5 268 Q35 315 50 355.5 Q65 396 86.5 429 Q108 462 135 485 Q167 512 205 524.5 Q243 537 290 537 Q356 537 391.5 509.5 Q427 482 441 439 L466 526 L548 526 L398 -180 L310 -180 L367 89 Z M114 196 Q114 161 123 137 Q132 113 147 98 Q162 83 181.5 76.5 Q201 70 223 70 Q287 70 333.5 111 Q380 152 397 232 L405 268 Q406 275 408 285.5 Q410 296 411 306.5 Q412 317 413 326.5 Q414 336 414 342 Q413 391 386.5 423.5 Q360 456 301 456 Q266 456 237 446.5 Q208 437 185 415 Q168 398 154.5 372.5 Q141 347 132 317 Q123 287 118.5 255.5 Q114 224 114 196 Z " />
<glyph glyph-name="r" unicode="r" horiz-adv-x="410" d="M120 526 L197 526 L184 436 Q213 496 253.5 516.5 Q294 537 345 537 Q362 537 376.5 533 Q391 529 399 524 L378 429 Q367 439 347.5 447.5 Q328 456 305 456 Q251 456 214.5 420.5 Q178 385 161 304 L96 0 L8 0 L120 526 Z " />
<glyph glyph-name="s" unicode="s" horiz-adv-x="475" d="M155 -11 Q110 -11 70 -0.5 Q30 10 2 26 L23 120 Q46 98 84.5 82.5 Q123 67 169 67 Q202 67 224 74 Q246 81 259 93 Q272 105 277.5 121 Q283 137 283 155 Q283 181 267 197 Q251 213 227.5 224.5 Q204 236 176.5 246 Q149 256 125.5 270.5 Q102 285 86 306.5 Q70 328 70 363 Q70 403 81.5 435 Q93 467 118 489.5 Q143 512 181.5 524.5 Q220 537 274 537 Q294 537 316 534 Q338 531 358 526.5 Q378 522 395.5 515 Q413 508 424 501 L405 410 Q379 433 340 446 Q301 459 262 459 Q206 459 185 437 Q164 415 164 383 Q164 357 180 342 Q196 327 219.5 316 Q243 305 270.5 295.5 Q298 286 321.5 272 Q345 258 361 235.5 Q377 213 377 177 Q377 139 366 105 Q355 71 329.5 45 Q304 19 261.5 4 Q219 -11 155 -11 Z " />
<glyph glyph-name="t" unicode="t" horiz-adv-x="435" d="M208 -6 Q150 -6 118.5 24 Q87 54 87 104 Q87 115 88.5 130.5 Q90 146 92 161.5 Q94 177 96.5 191 Q99 205 101 214 L151 447 L57 447 L74 526 L168 526 L190 631 L284 661 L256 526 L424 526 L407 447 L239 447 L191 220 Q190 214 187.5 203 Q185 192 183 179 Q181 166 179 152 Q177 138 177 126 Q177 101 192 88.5 Q207 76 233 76 Q264 76 289 85 Q314 94 335 107 L315 17 Q298 7 270.5 0.5 Q243 -6 208 -6 Z " />
<glyph glyph-name="u" unicode="u" horiz-adv-x="580" d="M186 -11 Q152 -11 125 -0.5 Q98 10 79.5 29 Q61 48 51.5 72.5 Q42 97 42 126 Q42 152 46 187 Q50 222 58 259 L115 526 L203 526 L143 243 Q141 233 138.5 221 Q136 209 134.5 197 Q133 185 132 175 Q131 165 131 158 Q130 116 152.5 93 Q175 70 222 70 Q284 70 326 106 Q368 142 384 216 L450 526 L538 526 L426 0 L344 0 L357 85 Q328 37 288.5 13 Q249 -11 186 -11 Z " />
<glyph glyph-name="v" unicode="v" horiz-adv-x="520" d="M59 526 L151 526 L207 104 L443 526 L539 526 L236 0 L138 0 L59 526 Z " />
<glyph glyph-name="w" unicode="w" horiz-adv-x="760" d="M75 526 L163 526 L171 191 Q171 168 171 146 Q171 124 170 111 L172 111 Q177 123 186.5 145.5 Q196 168 207 191 L372 526 L464 526 L488 191 Q490 168 490 146 Q490 124 489 111 L491 111 Q495 122 503 145 Q511 168 522 191 L672 526 L763 526 L527 0 L423 0 L399 339 Q397 362 397 382 Q397 402 397 419 L395 419 Q390 407 379.5 384 Q369 361 358 339 L191 0 L87 0 L75 526 Z " />
<glyph glyph-name="x" unicode="x" horiz-adv-x="540" d="M202 276 L88 526 L182 526 L267 340 L427 526 L530 526 L304 266 L431 0 L337 0 L242 204 L66 0 L-37 0 L202 276 Z " />
<glyph glyph-name="y" unicode="y" horiz-adv-x="520" d="M48 -191 Q28 -191 11 -185 Q-6 -179 -11 -176 L7 -92 Q14 -97 25 -103.5 Q36 -110 56 -110 Q66 -110 77.5 -106.5 Q89 -103 102 -91 Q115 -79 129 -57.5 Q143 -36 160 0 L59 526 L151 526 L223 117 L443 526 L540 526 L247 -3 Q212 -66 186.5 -103.5 Q161 -141 139 -160.5 Q117 -180 95.5 -185.5 Q74 -191 48 -191 Z " />
<glyph glyph-name="z" unicode="z" horiz-adv-x="490" d="M-14 55 L339 447 L77 447 L94 526 L475 526 L463 471 L111 79 L389 79 L372 0 L-26 0 L-14 55 Z " />
<glyph glyph-name="braceleft" unicode="&#x7b;" horiz-adv-x="380" d="M174 -180 Q139 -180 114.5 -171 Q90 -162 73.5 -147 Q57 -132 49.5 -112 Q42 -92 42 -70 Q42 -61 43 -48 Q44 -35 45.5 -22 Q47 -9 48.5 3 Q50 15 52 22 L71 112 Q72 117 74 128.5 Q76 140 78.5 152.5 Q81 165 82.5 176 Q84 187 84 191 Q84 250 24 252 L39 321 Q81 323 104.5 350 Q128 377 138 424 L175 598 Q182 631 193 659 Q204 687 225 708 Q246 729 279 741 Q312 753 362 753 L426 753 L410 676 L358 676 Q331 676 313.5 669.5 Q296 663 284.5 651 Q273 639 266.5 622 Q260 605 256 584 L221 415 Q215 388 207.5 365.5 Q200 343 187.5 325.5 Q175 308 156 296 Q137 284 109 277 Q144 267 157.5 247 Q171 227 171 197 Q171 183 166.5 162 Q162 141 159 125 L138 26 Q137 21 135 11.5 Q133 2 131.5 -8.5 Q130 -19 129 -28.5 Q128 -38 128 -44 Q128 -70 142 -86.5 Q156 -103 193 -103 L245 -103 L228 -180 L174 -180 Z " />
<glyph glyph-name="bar" unicode="&#x7c;" horiz-adv-x="300" d="M108 753 L192 753 L192 -180 L108 -180 L108 753 Z " />
<glyph glyph-name="braceright" unicode="&#x7d;" horiz-adv-x="380" d="M183 753 Q217 753 242 744 Q267 735 283.5 720 Q300 705 307.5 685 Q315 665 315 643 Q315 634 314 621 Q313 608 311.5 595 Q310 582 308 570 Q306 558 305 551 L286 461 Q280 432 276.5 412 Q273 392 273 382 Q273 322 333 321 L318 252 Q276 250 252.5 223 Q229 196 219 149 L182 -25 Q175 -58 164 -86 Q153 -114 132 -135 Q111 -156 78 -168 Q45 -180 -5 -180 L-69 -180 L-53 -103 L-1 -103 Q26 -103 43.5 -96.5 Q61 -90 72.5 -78 Q84 -66 90 -49 Q96 -32 101 -11 L136 158 Q147 212 169.5 247 Q192 282 248 296 Q213 306 199.5 326 Q186 346 186 376 Q186 390 190.5 415 Q195 440 199 456 L219 547 Q220 552 222 561.5 Q224 571 225.5 581.5 Q227 592 228 601.5 Q229 611 229 617 Q229 643 215 659.5 Q201 676 164 676 L112 676 L129 753 L183 753 Z " />
<glyph glyph-name="asciitilde" unicode="&#x7e;" horiz-adv-x="600" d="M95 389 Q114 411 138.5 424.5 Q163 438 198 438 Q231 438 258 426 Q285 414 308.5 400 Q332 386 354.5 374 Q377 362 402 362 Q436 362 461.5 380 Q487 398 505 418 L505 331 Q486 309 461.5 295.5 Q437 282 402 282 Q369 282 342 294 Q315 306 291.5 320 Q268 334 245.5 346 Q223 358 198 358 Q164 358 138.5 340 Q113 322 95 302 L95 389 Z " />
<glyph glyph-name="uni00A0" unicode="&#xa0;" horiz-adv-x="250" d="" />
<glyph glyph-name="exclamdown" unicode="&#xa1;" horiz-adv-x="330" d="M101 -180 L7 -180 L113 296 L197 296 L101 -180 Z M179 404 Q126 404 126 453 Q126 489 147 510.5 Q168 532 206 532 Q228 532 243 519 Q258 506 258 483 Q258 448 237.5 426 Q217 404 179 404 Z " />
<glyph glyph-name="cent" unicode="&#xa2;" horiz-adv-x="600" d="M229 -6 Q165 7 123.5 55.5 Q82 104 82 189 Q82 282 109 354.5 Q136 427 187 472 Q222 502 258.5 515 Q295 528 344 534 L364 626 L443 626 L423 536 Q471 535 502.5 522.5 Q534 510 546 503 L526 409 Q506 425 475.5 440.5 Q445 456 393 456 Q345 456 309.5 446 Q274 436 248 411 Q214 379 195 326 Q176 273 176 207 Q176 135 212 102.5 Q248 70 321 70 Q368 70 407 84.5 Q446 99 471 116 L452 20 Q436 12 402 1.5 Q368 -9 307 -11 L284 -120 L205 -120 L229 -6 Z " />
<glyph glyph-name="sterling" unicode="&#xa3;" horiz-adv-x="600" d="M-9 81 L101 81 L153 323 L43 323 L58 394 L168 394 L186 478 Q193 513 209 553.5 Q225 594 256 629 Q287 664 337 687.5 Q387 711 464 711 Q512 711 546.5 700.5 Q581 690 606 677 L588 594 Q561 609 531 619.5 Q501 630 455 630 Q411 630 380.5 618 Q350 606 329.5 585 Q309 564 296.5 535 Q284 506 277 472 L260 394 L444 394 L429 323 L246 323 L194 81 L477 81 L460 0 L-26 0 L-9 81 Z " />
<glyph glyph-name="currency" unicode="&#xa4;" horiz-adv-x="600" d="M423 181 Q397 162 365.5 151.5 Q334 141 299 141 Q227 141 175 181 L110 116 L66 161 L130 225 Q111 251 100.5 283 Q90 315 90 350 Q90 385 100.5 416.5 Q111 448 130 474 L66 539 L111 584 L175 519 Q201 539 232.5 549.5 Q264 560 299 560 Q334 560 366 549.5 Q398 539 424 519 L490 585 L534 541 L468 474 Q487 448 498 416.5 Q509 385 509 350 Q509 315 498.5 283.5 Q488 252 468 226 L534 161 L489 116 L423 181 Z M299 214 Q327 214 352 224.5 Q377 235 395.5 253.5 Q414 272 424.5 297 Q435 322 435 350 Q435 378 424.5 403 Q414 428 395.5 446.5 Q377 465 352 475.5 Q327 486 299 486 Q271 486 246.5 475.5 Q222 465 203.5 446.5 Q185 428 174.5 403 Q164 378 164 350 Q164 322 174.5 297 Q185 272 203.5 253.5 Q222 235 246.5 224.5 Q271 214 299 214 Z " />
<glyph glyph-name="yen" unicode="&#xa5;" horiz-adv-x="600" d="M85 337 L218 337 L96 700 L195 700 L303 362 L548 700 L656 700 L388 337 L523 337 L507 265 L334 265 L320 199 L493 199 L478 127 L305 127 L278 0 L186 0 L213 127 L40 127 L55 199 L228 199 L242 265 L69 265 L85 337 Z " />
<glyph glyph-name="brokenbar" unicode="&#xa6;" horiz-adv-x="300" d="M108 212 L192 212 L192 -180 L108 -180 L108 212 Z M108 753 L192 753 L192 362 L108 362 L108 753 Z " />
<glyph glyph-name="section" unicode="&#xa7;" horiz-adv-x="530" d="M161 -111 Q141 -111 118 -108.5 Q95 -106 71.5 -101.5 Q48 -97 27.5 -90.5 Q7 -84 -8 -76 L10 7 Q45 -16 87.5 -26 Q130 -36 168 -36 Q208 -36 231 -28 Q254 -20 266 -7.5 Q278 5 281.5 20 Q285 35 285 50 Q285 79 259 100.5 Q233 122 187 144 Q158 158 133 172.5 Q108 187 89.5 204 Q71 221 60.5 242 Q50 263 50 291 Q50 343 86.5 384 Q123 425 179 456 Q159 471 145.5 494.5 Q132 518 132 547 Q132 621 188 666 Q244 711 347 711 Q372 711 396.5 707.5 Q421 704 442 698.5 Q463 693 479.5 687 Q496 681 505 676 L488 593 Q454 616 413 626 Q372 636 337 636 Q314 636 293.5 631.5 Q273 627 258 617.5 Q243 608 234.5 592 Q226 576 226 553 Q226 530 242.5 511 Q259 492 309 465 Q333 452 360 438 Q387 424 409.5 406 Q432 388 446.5 365 Q461 342 461 311 Q461 264 428 222.5 Q395 181 341 146 Q360 129 370 109 Q380 89 380 62 Q380 -25 322 -68 Q264 -111 161 -111 Z M286 181 Q301 192 316 204.5 Q331 217 342.5 231 Q354 245 361.5 261.5 Q369 278 369 297 Q369 347 299 384 Q295 386 286 390.5 Q277 395 266.5 400.5 Q256 406 246 411 Q236 416 231 419 Q191 397 167 369 Q143 341 143 306 Q143 279 160.5 259.5 Q178 240 216 218 Q220 215 230 210 Q240 205 251 199 Q262 193 272 188 Q282 183 286 181 Z " />
<glyph glyph-name="dieresis" unicode="&#xa8;" horiz-adv-x="410" d="M362 634 Q339 634 327.5 645.5 Q316 657 316 675 Q316 705 332.5 722 Q349 739 384 739 Q407 739 418.5 727.5 Q430 716 430 698 Q430 668 413.5 651 Q397 634 362 634 Z M172 634 Q149 634 137.5 645.5 Q126 657 126 675 Q126 705 142.5 722 Q159 739 194 739 Q217 739 228.5 727.5 Q240 716 240 698 Q240 668 223.5 651 Q207 634 172 634 Z " />
<glyph glyph-name="copyright" unicode="&#xa9;" horiz-adv-x="830" d="M429 153 Q330 153 285 206.5 Q240 260 240 351 Q240 450 288.5 499.5 Q337 549 430 549 Q457 549 478.5 545.5 Q500 542 516 537 L516 480 Q498 487 477 489.5 Q456 492 438 492 Q308 492 308 352 Q308 276 342 243.5 Q376 211 439 211 Q457 211 477 214.5 Q497 218 516 226 L516 168 Q499 161 478 157 Q457 153 429 153 Z M415 -11 Q338 -11 272.5 16.5 Q207 44 158 93 Q109 142 81.5 207.5 Q54 273 54 350 Q54 426 81.5 492 Q109 558 158 607 Q207 656 272.5 683.5 Q338 711 415 711 Q491 711 557 683.5 Q623 656 672 607 Q721 558 748.5 492 Q776 426 776 350 Q776 274 748.5 208 Q721 142 672 93.5 Q623 45 557 17 Q491 -11 415 -11 Z M415 49 Q478 49 533 72 Q588 95 628 135.5 Q668 176 691 231 Q714 286 714 350 Q714 414 691 469 Q668 524 628 564.5 Q588 605 533 628 Q478 651 415 651 Q352 651 297 628 Q242 605 202 564.5 Q162 524 139 469 Q116 414 116 350 Q116 286 139 231 Q162 176 202 135.5 Q242 95 297 72 Q352 49 415 49 Z " />
<glyph glyph-name="ordfeminine" unicode="&#xaa;" horiz-adv-x="370" d="M165 374 Q119 374 93.5 397 Q68 420 68 459 Q68 484 74.5 505 Q81 526 98.5 541 Q116 556 146.5 564.5 Q177 573 224 573 L300 573 L303 589 Q304 594 304 598 Q304 602 304 606 Q305 624 289.5 636 Q274 648 236 648 Q209 648 180 641 Q151 634 130 623 L143 688 Q166 696 194.5 701 Q223 706 257 706 Q322 706 349 681.5 Q376 657 374 614 Q374 609 373 601 Q372 593 370 583.5 Q368 574 366 564.5 Q364 555 363 548 L328 380 L268 380 L273 432 Q259 408 233.5 391 Q208 374 165 374 Z M192 430 Q227 430 252.5 448 Q278 466 286 505 L290 526 L224 526 Q193 526 176.5 520.5 Q160 515 152.5 506.5 Q145 498 143.5 488 Q142 478 142 470 Q142 454 152.5 442 Q163 430 192 430 Z " />
<glyph glyph-name="guillemotleft" unicode="&#xab;" horiz-adv-x="550" d="M212 484 L303 484 L117 266 L200 68 L121 68 L36 275 L212 484 Z M422 484 L513 484 L327 266 L410 68 L331 68 L246 275 L422 484 Z " />
<glyph glyph-name="logicalnot" unicode="&#xac;" horiz-adv-x="600" d="M95 399 L505 399 L505 188 L424 188 L424 318 L95 318 L95 399 Z " />
<glyph glyph-name="uni00AD" unicode="&#xad;" horiz-adv-x="400" d="M32 315 L342 315 L325 235 L15 235 L32 315 Z " />
<glyph glyph-name="registered" unicode="&#xae;" horiz-adv-x="600" d="M50 517 Q50 572 68 617.5 Q86 663 119 695.5 Q152 728 198 746 Q244 764 300 764 Q356 764 402 746 Q448 728 481 695.5 Q514 663 532 617.5 Q550 572 550 517 Q550 462 532 417 Q514 372 481 339.5 Q448 307 402 289 Q356 271 300 271 Q244 271 198 289 Q152 307 119 339.5 Q86 372 68 417 Q50 462 50 517 Z M96 518 Q96 473 111 435.5 Q126 398 153 371.5 Q180 345 217.5 330 Q255 315 300 315 Q345 315 382.5 330 Q420 345 447 371.5 Q474 398 489 435.5 Q504 473 504 518 Q504 563 489 600.5 Q474 638 447 665 Q420 692 382.5 706.5 Q345 721 300 721 Q255 721 217.5 706.5 Q180 692 153 665 Q126 638 111 600.5 Q96 563 96 518 Z M203 659 L308 659 Q323 659 339.5 656.5 Q356 654 370 645 Q384 636 393 619.5 Q402 603 402 575 Q402 545 387.5 525 Q373 505 353 499 L421 390 L362 390 L302 490 L256 490 L256 390 L203 390 L203 659 Z M303 534 Q320 534 334 542 Q348 550 348 574 Q348 599 335 606 Q322 613 302 613 L255 613 L255 534 L303 534 Z " />
<glyph glyph-name="overscore" unicode="&#xaf;" horiz-adv-x="320" d="M109 709 L367 709 L353 643 L95 643 L109 709 Z " />
<glyph glyph-name="degree" unicode="&#xb0;" horiz-adv-x="400" d="M221 389 Q187 389 157.5 401.5 Q128 414 106 436 Q84 458 71.5 487.5 Q59 517 59 550 Q59 583 71.5 612.5 Q84 642 106 664 Q128 686 157.5 698.5 Q187 711 221 711 Q254 711 283 698.5 Q312 686 334 664 Q356 642 368.5 612.5 Q381 583 381 550 Q381 517 368.5 487.5 Q356 458 334 436 Q312 414 283 401.5 Q254 389 221 389 Z M221 459 Q259 459 285 485.5 Q311 512 311 550 Q311 588 285 614.5 Q259 641 221 641 Q183 641 156.5 614.5 Q130 588 130 550 Q130 512 156.5 485.5 Q183 459 221 459 Z " />
<glyph glyph-name="plusminus" unicode="&#xb1;" horiz-adv-x="600" d="M95 475 L260 475 L260 640 L340 640 L340 475 L505 475 L505 395 L340 395 L340 247 L260 247 L260 395 L95 395 L95 475 Z M95 161 L505 161 L505 80 L95 80 L95 161 Z " />
<glyph glyph-name="twosuperior" unicode="&#xb2;" horiz-adv-x="450" d="M77 448 L218 532 Q260 557 289.5 576.5 Q319 596 337.5 613 Q356 630 364.5 646 Q373 662 373 682 Q373 710 351.5 725.5 Q330 741 288 741 Q253 741 217.5 733.5 Q182 726 153 712 L167 784 Q202 796 233.5 801 Q265 806 303 806 Q372 806 414 780.5 Q456 755 456 702 Q456 672 446.5 648 Q437 624 414.5 600.5 Q392 577 354.5 551.5 Q317 526 260 493 L180 446 L180 445 L407 445 L393 380 L63 380 L77 448 Z " />
<glyph glyph-name="threesuperior" unicode="&#xb3;" horiz-adv-x="450" d="M184 624 L258 624 Q313 624 342 640 Q371 656 371 693 Q371 742 275 742 Q240 742 205 737.5 Q170 733 143 722 L156 786 Q191 798 228.5 802 Q266 806 304 806 Q379 806 415.5 779.5 Q452 753 452 714 Q452 660 418 633.5 Q384 607 325 596 L324 594 Q378 587 399.5 564.5 Q421 542 421 515 Q421 479 404.5 452.5 Q388 426 360 408.5 Q332 391 294.5 382.5 Q257 374 214 374 Q181 374 139.5 379.5 Q98 385 66 398 L80 464 Q108 451 142 444.5 Q176 438 211 438 Q283 438 312.5 459.5 Q342 481 342 515 Q342 545 319.5 557 Q297 569 252 569 L172 569 L184 624 Z " />
<glyph glyph-name="acute" unicode="&#xb4;" horiz-adv-x="300" d="M219 756 L337 756 L182 617 L107 617 L219 756 Z " />
<glyph glyph-name="&amp;#xb5;" unicode="&#xb5;" horiz-adv-x="585" d="M120 526 L208 526 L147 239 Q142 219 139 194.5 Q136 170 136 156 Q136 119 158 94.5 Q180 70 226 70 Q288 70 330 105 Q372 140 389 216 L455 526 L543 526 L431 0 L349 0 L361 81 Q329 35 288.5 12 Q248 -11 185 -11 Q156 -11 134 -2 Q112 7 101 18 L58 -180 L-30 -180 L120 526 Z " />
<glyph glyph-name="&amp;#x3bc;" unicode="&#x3bc;" horiz-adv-x="585" d="M120 526 L208 526 L147 239 Q142 219 139 194.5 Q136 170 136 156 Q136 119 158 94.5 Q180 70 226 70 Q288 70 330 105 Q372 140 389 216 L455 526 L543 526 L431 0 L349 0 L361 81 Q329 35 288.5 12 Q248 -11 185 -11 Q156 -11 134 -2 Q112 7 101 18 L58 -180 L-30 -180 L120 526 Z " />
<glyph glyph-name="paragraph" unicode="&#xb6;" horiz-adv-x="570" d="M219 367 Q177 367 145.5 379.5 Q114 392 93 413.5 Q72 435 61.5 465 Q51 495 51 530 Q51 585 71.5 618.5 Q92 652 122.5 670 Q153 688 187 694 Q221 700 248 700 L475 700 L475 -180 L400 -180 L400 632 L294 632 L294 -180 L219 -180 L219 367 Z " />
<glyph glyph-name="middot" unicode="&#xb7;" horiz-adv-x="320" d="M148 289 Q95 289 95 338 Q95 374 116 395.5 Q137 417 175 417 Q198 417 212.5 404.5 Q227 392 227 369 Q227 333 206.5 311 Q186 289 148 289 Z " />
<glyph glyph-name="cedilla" unicode="&#xb8;" horiz-adv-x="250" d="M-12 -217 Q-62 -217 -85 -202 L-68 -153 Q-54 -159 -41 -162 Q-28 -165 -10 -165 Q22 -165 36 -152.5 Q50 -140 50 -118 Q50 -103 39 -93.5 Q28 -84 3 -84 Q-5 -84 -14 -84.5 Q-23 -85 -29 -86 L8 7 L61 7 L40 -44 Q80 -44 101 -61.5 Q122 -79 122 -110 Q122 -158 87 -187.5 Q52 -217 -12 -217 Z " />
<glyph glyph-name="onesuperior" unicode="&#xb9;" horiz-adv-x="450" d="M304 713 L180 654 L157 713 L338 800 L399 800 L310 380 L233 380 L304 713 Z " />
<glyph glyph-name="ordmasculine" unicode="&#xba;" horiz-adv-x="370" d="M195 374 Q131 374 98 407 Q65 440 65 494 Q65 548 80.5 594 Q96 640 131 669 Q154 687 184 696.5 Q214 706 256 706 Q320 706 354 674.5 Q388 643 388 586 Q388 530 370.5 484 Q353 438 315 409 Q292 392 263.5 383 Q235 374 195 374 Z M204 432 Q226 432 240 436 Q254 440 268 450 Q291 467 304.5 499.5 Q318 532 318 576 Q318 614 298.5 631 Q279 648 248 648 Q224 648 207.5 643 Q191 638 177 625 Q157 607 146 576 Q135 545 135 504 Q135 466 155 449 Q175 432 204 432 Z " />
<glyph glyph-name="guillemotright" unicode="&#xbb;" horiz-adv-x="550" d="M98 68 L9 68 L193 286 L111 484 L189 484 L274 277 L98 68 Z M308 68 L219 68 L403 286 L321 484 L399 484 L484 277 L308 68 Z " />
<glyph glyph-name="onequarter" unicode="&#xbc;" horiz-adv-x="950" d="M739 700 L818 700 L204 0 L125 0 L739 700 Z M262 614 L138 555 L115 614 L296 701 L357 701 L268 281 L191 281 L262 614 Z M452 153 L757 420 L846 420 L790 156 L847 156 L834 94 L777 94 L757 0 L685 0 L705 94 L439 94 L452 153 Z M759 347 L758 347 L538 156 L718 156 L759 347 Z " />
<glyph glyph-name="onehalf" unicode="&#xbd;" horiz-adv-x="950" d="M712 700 L791 700 L177 0 L98 0 L712 700 Z M257 614 L133 555 L110 614 L291 701 L352 701 L263 281 L186 281 L257 614 Z M501 68 L642 152 Q684 177 713.5 196.5 Q743 216 761.5 233 Q780 250 788.5 266 Q797 282 797 302 Q797 330 775.5 345.5 Q754 361 712 361 Q677 361 641.5 353.5 Q606 346 577 332 L591 404 Q626 416 657.5 421 Q689 426 727 426 Q796 426 838 400.5 Q880 375 880 322 Q880 292 870.5 268 Q861 244 838.5 220.5 Q816 197 778.5 171.5 Q741 146 684 113 L604 66 L604 65 L831 65 L817 0 L487 0 L501 68 Z " />
<glyph glyph-name="threequarters" unicode="&#xbe;" horiz-adv-x="950" d="M766 700 L845 700 L231 0 L152 0 L766 700 Z M462 153 L767 420 L856 420 L800 156 L857 156 L844 94 L787 94 L767 0 L695 0 L715 94 L449 94 L462 153 Z M769 347 L768 347 L548 156 L728 156 L769 347 Z M157 525 L231 525 Q286 525 315 541 Q344 557 344 594 Q344 643 248 643 Q213 643 178 638.5 Q143 634 116 623 L129 687 Q164 699 201.5 703 Q239 707 277 707 Q352 707 388.5 680.5 Q425 654 425 615 Q425 561 391 534.5 Q357 508 298 497 L297 495 Q351 488 372.5 465.5 Q394 443 394 416 Q394 380 377.5 353.5 Q361 327 333 309.5 Q305 292 267.5 283.5 Q230 275 187 275 Q154 275 112.5 280.5 Q71 286 39 299 L53 365 Q81 352 115 345.5 Q149 339 184 339 Q256 339 285.5 360.5 Q315 382 315 416 Q315 446 292.5 458 Q270 470 225 470 L145 470 L157 525 Z " />
<glyph glyph-name="questiondown" unicode="&#xbf;" horiz-adv-x="480" d="M323 532 Q376 532 376 483 Q376 447 355 425.5 Q334 404 296 404 Q273 404 258.5 416.5 Q244 429 244 452 Q244 488 264.5 510 Q285 532 323 532 Z M319 307 Q311 255 289.5 222.5 Q268 190 240 168 Q212 146 181.5 130.5 Q151 115 125.5 96 Q100 77 83.5 50.5 Q67 24 67 -20 Q67 -57 93 -82 Q119 -107 177 -107 Q227 -107 268 -93.5 Q309 -80 344 -60 L323 -158 Q283 -176 239.5 -183.5 Q196 -191 152 -191 Q107 -191 73 -179.5 Q39 -168 16 -147 Q-7 -126 -19 -97.5 Q-31 -69 -31 -35 Q-31 25 -12.5 62.5 Q6 100 33.5 124.5 Q61 149 93.5 166 Q126 183 155.5 201 Q185 219 206.5 243 Q228 267 234 307 L319 307 Z " />
<glyph glyph-name="Agrave" unicode="&#xc0;" horiz-adv-x="640" d="M346 700 L446 700 L547 0 L454 0 L430 185 L149 185 L47 0 L-53 0 L346 700 Z M194 265 L419 265 L378 596 L194 265 Z M278 910 L392 910 L450 770 L379 770 L278 910 Z " />
<glyph glyph-name="Aacute" unicode="&#xc1;" horiz-adv-x="640" d="M346 700 L446 700 L547 0 L454 0 L430 185 L149 185 L47 0 L-53 0 L346 700 Z M194 265 L419 265 L378 596 L194 265 Z M479 910 L604 910 L441 770 L359 770 L479 910 Z " />
<glyph glyph-name="Acircumflex" unicode="&#xc2;" horiz-adv-x="640" d="M346 700 L446 700 L547 0 L454 0 L430 185 L149 185 L47 0 L-53 0 L346 700 Z M194 265 L419 265 L378 596 L194 265 Z M391 910 L491 910 L576 770 L502 770 L433 857 L326 770 L246 770 L391 910 Z " />
<glyph glyph-name="Atilde" unicode="&#xc3;" horiz-adv-x="640" d="M346 700 L446 700 L547 0 L454 0 L430 185 L149 185 L47 0 L-53 0 L346 700 Z M194 265 L419 265 L378 596 L194 265 Z M252 788 Q265 837 296 860.5 Q327 884 364 884 Q384 884 401.5 877.5 Q419 871 436 863 Q452 855 466 848.5 Q480 842 493 842 Q507 842 519 850 Q531 858 541 883 L594 871 Q580 821 548 798.5 Q516 776 483 776 Q460 776 443.5 781 Q427 786 414 793 Q397 802 384 810.5 Q371 819 355 819 Q342 819 327.5 810.5 Q313 802 305 777 L252 788 Z " />
<glyph glyph-name="Adieresis" unicode="&#xc4;" horiz-adv-x="640" d="M346 700 L446 700 L547 0 L454 0 L430 185 L149 185 L47 0 L-53 0 L346 700 Z M194 265 L419 265 L378 596 L194 265 Z M312 785 Q290 785 277.5 796 Q265 807 265 827 Q265 857 283.5 876 Q302 895 335 895 Q357 895 369.5 884 Q382 873 382 853 Q382 823 364 804 Q346 785 312 785 Z M515 785 Q493 785 480.5 796 Q468 807 468 827 Q468 857 486.5 876 Q505 895 538 895 Q560 895 572.5 884 Q585 873 585 853 Q585 823 567 804 Q549 785 515 785 Z " />
<glyph glyph-name="Aring" unicode="&#xc5;" horiz-adv-x="640" d="M346 700 L446 700 L547 0 L454 0 L430 185 L149 185 L47 0 L-53 0 L346 700 Z M194 265 L419 265 L378 596 L194 265 Z M323 823 Q323 848 332.5 869 Q342 890 358.5 905.5 Q375 921 397 930 Q419 939 444 939 Q482 939 505 915 Q528 891 528 856 Q528 831 518.5 810 Q509 789 492.5 773.5 Q476 758 453.5 749.5 Q431 741 406 741 Q368 741 345.5 764.5 Q323 788 323 823 Z M374 831 Q374 813 385 801.5 Q396 790 416 790 Q442 790 459.5 806.5 Q477 823 477 850 Q477 868 465.5 879 Q454 890 435 890 Q409 890 391.5 874 Q374 858 374 831 Z " />
<glyph glyph-name="AE" unicode="&#xc6;" horiz-adv-x="935" d="M427 185 L193 185 L52 0 L-53 0 L487 700 L956 700 L938 617 L611 617 L565 399 L852 399 L835 318 L548 318 L498 83 L825 83 L807 0 L388 0 L427 185 Z M444 265 L520 617 L254 265 L444 265 Z " />
<glyph glyph-name="Ccedilla" unicode="&#xc7;" horiz-adv-x="575" d="M212 -217 Q188 -217 168.5 -213 Q149 -209 135 -202 L154 -151 Q181 -163 214 -163 Q252 -163 265 -150 Q278 -137 278 -117 Q278 -103 266.5 -94.5 Q255 -86 228 -86 Q218 -86 209 -86.5 Q200 -87 194 -88 L227 -5 Q184 2 149 21 Q114 40 88.5 70 Q63 100 49 142 Q35 184 35 239 Q35 372 73.5 474.5 Q112 577 186 638 Q237 680 296 695.5 Q355 711 433 711 Q490 711 533.5 696.5 Q577 682 594 671 L573 575 Q549 595 510 610 Q471 625 416 625 Q360 625 317.5 611.5 Q275 598 241 569 Q215 546 195 513 Q175 480 161.5 439.5 Q148 399 141 353.5 Q134 308 134 260 Q134 162 180.5 118.5 Q227 75 306 75 Q363 75 408.5 89.5 Q454 104 483 120 L462 21 Q453 17 436 11.5 Q419 6 397 1 Q375 -4 348 -7.5 Q321 -11 292 -11 L280 -11 L267 -44 Q305 -43 328.5 -60 Q352 -77 352 -109 Q352 -157 316.5 -187 Q281 -217 212 -217 Z " />
<glyph glyph-name="Egrave" unicode="&#xc8;" horiz-adv-x="575" d="M177 700 L596 700 L578 617 L251 617 L205 399 L492 399 L475 318 L188 318 L138 83 L465 83 L447 0 L28 0 L177 700 Z M273 910 L387 910 L445 770 L374 770 L273 910 Z " />
<glyph glyph-name="Eacute" unicode="&#xc9;" horiz-adv-x="575" d="M177 700 L596 700 L578 617 L251 617 L205 399 L492 399 L475 318 L188 318 L138 83 L465 83 L447 0 L28 0 L177 700 Z M469 910 L594 910 L431 770 L349 770 L469 910 Z " />
<glyph glyph-name="Ecircumflex" unicode="&#xca;" horiz-adv-x="575" d="M177 700 L596 700 L578 617 L251 617 L205 399 L492 399 L475 318 L188 318 L138 83 L465 83 L447 0 L28 0 L177 700 Z M381 910 L481 910 L566 770 L492 770 L423 857 L316 770 L236 770 L381 910 Z " />
<glyph glyph-name="Edieresis" unicode="&#xcb;" horiz-adv-x="575" d="M177 700 L596 700 L578 617 L251 617 L205 399 L492 399 L475 318 L188 318 L138 83 L465 83 L447 0 L28 0 L177 700 Z M302 785 Q280 785 267.5 796 Q255 807 255 827 Q255 857 273.5 876 Q292 895 325 895 Q347 895 359.5 884 Q372 873 372 853 Q372 823 354 804 Q336 785 302 785 Z M505 785 Q483 785 470.5 796 Q458 807 458 827 Q458 857 476.5 876 Q495 895 528 895 Q550 895 562.5 884 Q575 873 575 853 Q575 823 557 804 Q539 785 505 785 Z " />
<glyph glyph-name="Igrave" unicode="&#xcc;" horiz-adv-x="330" d="M195 700 L287 700 L138 0 L46 0 L195 700 Z M123 910 L237 910 L295 770 L224 770 L123 910 Z " />
<glyph glyph-name="Iacute" unicode="&#xcd;" horiz-adv-x="330" d="M195 700 L287 700 L138 0 L46 0 L195 700 Z M331 910 L456 910 L293 770 L211 770 L331 910 Z " />
<glyph glyph-name="Icircumflex" unicode="&#xce;" horiz-adv-x="330" d="M195 700 L287 700 L138 0 L46 0 L195 700 Z M237 910 L337 910 L422 770 L348 770 L279 857 L172 770 L92 770 L237 910 Z " />
<glyph glyph-name="Idieresis" unicode="&#xcf;" horiz-adv-x="330" d="M195 700 L287 700 L138 0 L46 0 L195 700 Z M158 785 Q136 785 123.5 796 Q111 807 111 827 Q111 857 129.5 876 Q148 895 181 895 Q203 895 215.5 884 Q228 873 228 853 Q228 823 210 804 Q192 785 158 785 Z M361 785 Q339 785 326.5 796 Q314 807 314 827 Q314 857 332.5 876 Q351 895 384 895 Q406 895 418.5 884 Q431 873 431 853 Q431 823 413 804 Q395 785 361 785 Z " />
<glyph glyph-name="Eth" unicode="&#xd0;" horiz-adv-x="690" d="M226 -6 Q199 -6 171.5 -5 Q144 -4 118.5 -2 Q93 0 73.5 1.5 Q54 3 39 5 L106 319 L12 319 L27 391 L121 391 L186 695 Q201 697 220.5 698.5 Q240 700 266 702 Q292 704 320.5 705 Q349 706 377 706 Q523 706 591 645 Q659 584 659 457 Q659 344 629 250.5 Q599 157 537 97 Q476 37 397.5 15.5 Q319 -6 226 -6 Z M561 443 Q561 537 514 578 Q467 619 364 619 Q329 619 301.5 617.5 Q274 616 260 614 L213 391 L379 391 L364 319 L197 319 L148 86 Q161 84 186.5 82.5 Q212 81 246 81 Q328 81 381.5 100.5 Q435 120 471 159 Q496 186 513 219 Q530 252 540.5 289 Q551 326 556 365.5 Q561 405 561 443 Z " />
<glyph glyph-name="Ntilde" unicode="&#xd1;" horiz-adv-x="740" d="M177 700 L271 700 L468 240 Q481 210 490.5 179 Q500 148 504 134 L506 134 Q508 148 513.5 179 Q519 210 525 240 L623 700 L715 700 L566 0 L472 0 L276 460 Q262 495 252.5 524 Q243 553 240 566 L238 566 Q236 552 231.5 523.5 Q227 495 219 460 L120 0 L28 0 L177 700 Z M302 788 Q315 837 346 860.5 Q377 884 414 884 Q434 884 451.5 877.5 Q469 871 486 863 Q502 855 516 848.5 Q530 842 543 842 Q557 842 569 850 Q581 858 591 883 L644 871 Q630 821 598 798.5 Q566 776 533 776 Q510 776 493.5 781 Q477 786 464 793 Q447 802 434 810.5 Q421 819 405 819 Q392 819 377.5 810.5 Q363 802 355 777 L302 788 Z " />
<glyph glyph-name="Ograve" unicode="&#xd2;" horiz-adv-x="710" d="M279 -11 Q231 -11 187.5 4.5 Q144 20 111 52.5 Q78 85 58 134 Q38 183 38 249 Q38 311 48.5 370.5 Q59 430 79 482 Q99 534 128 576 Q157 618 194 645 Q244 682 300.5 696.5 Q357 711 426 711 Q542 711 609.5 648 Q677 585 677 458 Q677 317 634 209.5 Q591 102 511 47 Q463 14 408.5 1.5 Q354 -11 279 -11 Z M304 73 Q347 73 392 85 Q437 97 473 131 Q523 178 550.5 259 Q578 340 578 438 Q578 537 532 582 Q486 627 405 627 Q358 627 317 615 Q276 603 241 569 Q217 545 197.5 511 Q178 477 164.5 436.5 Q151 396 143.5 350.5 Q136 305 136 258 Q136 209 149.5 174 Q163 139 186 116.5 Q209 94 239.5 83.5 Q270 73 304 73 Z M319 910 L433 910 L491 770 L420 770 L319 910 Z " />
<glyph glyph-name="Oacute" unicode="&#xd3;" horiz-adv-x="710" d="M279 -11 Q231 -11 187.5 4.5 Q144 20 111 52.5 Q78 85 58 134 Q38 183 38 249 Q38 311 48.5 370.5 Q59 430 79 482 Q99 534 128 576 Q157 618 194 645 Q244 682 300.5 696.5 Q357 711 426 711 Q542 711 609.5 648 Q677 585 677 458 Q677 317 634 209.5 Q591 102 511 47 Q463 14 408.5 1.5 Q354 -11 279 -11 Z M304 73 Q347 73 392 85 Q437 97 473 131 Q523 178 550.5 259 Q578 340 578 438 Q578 537 532 582 Q486 627 405 627 Q358 627 317 615 Q276 603 241 569 Q217 545 197.5 511 Q178 477 164.5 436.5 Q151 396 143.5 350.5 Q136 305 136 258 Q136 209 149.5 174 Q163 139 186 116.5 Q209 94 239.5 83.5 Q270 73 304 73 Z M514 910 L639 910 L476 770 L394 770 L514 910 Z " />
<glyph glyph-name="Ocircumflex" unicode="&#xd4;" horiz-adv-x="710" d="M279 -11 Q231 -11 187.5 4.5 Q144 20 111 52.5 Q78 85 58 134 Q38 183 38 249 Q38 311 48.5 370.5 Q59 430 79 482 Q99 534 128 576 Q157 618 194 645 Q244 682 300.5 696.5 Q357 711 426 711 Q542 711 609.5 648 Q677 585 677 458 Q677 317 634 209.5 Q591 102 511 47 Q463 14 408.5 1.5 Q354 -11 279 -11 Z M304 73 Q347 73 392 85 Q437 97 473 131 Q523 178 550.5 259 Q578 340 578 438 Q578 537 532 582 Q486 627 405 627 Q358 627 317 615 Q276 603 241 569 Q217 545 197.5 511 Q178 477 164.5 436.5 Q151 396 143.5 350.5 Q136 305 136 258 Q136 209 149.5 174 Q163 139 186 116.5 Q209 94 239.5 83.5 Q270 73 304 73 Z M426 910 L526 910 L611 770 L537 770 L468 857 L361 770 L281 770 L426 910 Z " />
<glyph glyph-name="Otilde" unicode="&#xd5;" horiz-adv-x="710" d="M279 -11 Q231 -11 187.5 4.5 Q144 20 111 52.5 Q78 85 58 134 Q38 183 38 249 Q38 311 48.5 370.5 Q59 430 79 482 Q99 534 128 576 Q157 618 194 645 Q244 682 300.5 696.5 Q357 711 426 711 Q542 711 609.5 648 Q677 585 677 458 Q677 317 634 209.5 Q591 102 511 47 Q463 14 408.5 1.5 Q354 -11 279 -11 Z M304 73 Q347 73 392 85 Q437 97 473 131 Q523 178 550.5 259 Q578 340 578 438 Q578 537 532 582 Q486 627 405 627 Q358 627 317 615 Q276 603 241 569 Q217 545 197.5 511 Q178 477 164.5 436.5 Q151 396 143.5 350.5 Q136 305 136 258 Q136 209 149.5 174 Q163 139 186 116.5 Q209 94 239.5 83.5 Q270 73 304 73 Z M287 788 Q300 837 331 860.5 Q362 884 399 884 Q419 884 436.5 877.5 Q454 871 471 863 Q487 855 501 848.5 Q515 842 528 842 Q542 842 554 850 Q566 858 576 883 L629 871 Q615 821 583 798.5 Q551 776 518 776 Q495 776 478.5 781 Q462 786 449 793 Q432 802 419 810.5 Q406 819 390 819 Q377 819 362.5 810.5 Q348 802 340 777 L287 788 Z " />
<glyph glyph-name="Odieresis" unicode="&#xd6;" horiz-adv-x="710" d="M279 -11 Q231 -11 187.5 4.5 Q144 20 111 52.5 Q78 85 58 134 Q38 183 38 249 Q38 311 48.5 370.5 Q59 430 79 482 Q99 534 128 576 Q157 618 194 645 Q244 682 300.5 696.5 Q357 711 426 711 Q542 711 609.5 648 Q677 585 677 458 Q677 317 634 209.5 Q591 102 511 47 Q463 14 408.5 1.5 Q354 -11 279 -11 Z M304 73 Q347 73 392 85 Q437 97 473 131 Q523 178 550.5 259 Q578 340 578 438 Q578 537 532 582 Q486 627 405 627 Q358 627 317 615 Q276 603 241 569 Q217 545 197.5 511 Q178 477 164.5 436.5 Q151 396 143.5 350.5 Q136 305 136 258 Q136 209 149.5 174 Q163 139 186 116.5 Q209 94 239.5 83.5 Q270 73 304 73 Z M347 785 Q325 785 312.5 796 Q300 807 300 827 Q300 857 318.5 876 Q337 895 370 895 Q392 895 404.5 884 Q417 873 417 853 Q417 823 399 804 Q381 785 347 785 Z M550 785 Q528 785 515.5 796 Q503 807 503 827 Q503 857 521.5 876 Q540 895 573 895 Q595 895 607.5 884 Q620 873 620 853 Q620 823 602 804 Q584 785 550 785 Z " />
<glyph glyph-name="multiply" unicode="&#xd7;" horiz-adv-x="600" d="M114 228 L246 360 L114 492 L168 546 L300 414 L432 546 L486 492 L354 360 L486 228 L432 174 L300 306 L168 174 L114 228 Z " />
<glyph glyph-name="Oslash" unicode="&#xd8;" horiz-adv-x="710" d="M279 -11 Q233 -11 191.5 3 Q150 17 117 46 L109 37 L42 -36 L-2 4 L66 78 L79 92 Q59 122 48.5 161 Q38 200 38 249 Q38 311 48.5 370.5 Q59 430 79 482 Q99 534 128 576 Q157 618 194 645 Q244 682 300.5 696.5 Q357 711 426 711 Q534 711 598 658 L605 665 L670 736 L715 695 L649 624 L638 612 Q657 583 667 544.5 Q677 506 677 458 Q677 317 634 209.5 Q591 102 511 47 Q463 14 408.5 1.5 Q354 -11 279 -11 Z M304 73 Q347 73 392 85 Q437 97 473 131 Q523 178 550.5 259 Q578 340 578 438 Q578 492 563 530 L184 118 Q207 95 238 84 Q269 73 304 73 Z M136 258 Q136 207 151 170 L530 583 Q486 627 405 627 Q358 627 317 615 Q276 603 241 569 Q217 545 197.5 511 Q178 477 164.5 436.5 Q151 396 143.5 350.5 Q136 305 136 258 Z " />
<glyph glyph-name="Ugrave" unicode="&#xd9;" horiz-adv-x="670" d="M259 -11 Q160 -11 108.5 43 Q57 97 57 185 Q57 203 60 228 Q63 253 67.5 279 Q72 305 77 329 Q82 353 85 369 L155 700 L249 700 L167 316 Q159 278 155 245.5 Q151 213 151 194 Q151 139 181 107 Q211 75 277 75 Q321 75 354 83.5 Q387 92 411 114 Q435 136 452 175 Q469 214 482 274 L573 700 L665 700 L574 270 Q557 190 530 136 Q503 82 464.5 49.5 Q426 17 375 3 Q324 -11 259 -11 Z M299 910 L413 910 L471 770 L400 770 L299 910 Z " />
<glyph glyph-name="Uacute" unicode="&#xda;" horiz-adv-x="670" d="M259 -11 Q160 -11 108.5 43 Q57 97 57 185 Q57 203 60 228 Q63 253 67.5 279 Q72 305 77 329 Q82 353 85 369 L155 700 L249 700 L167 316 Q159 278 155 245.5 Q151 213 151 194 Q151 139 181 107 Q211 75 277 75 Q321 75 354 83.5 Q387 92 411 114 Q435 136 452 175 Q469 214 482 274 L573 700 L665 700 L574 270 Q557 190 530 136 Q503 82 464.5 49.5 Q426 17 375 3 Q324 -11 259 -11 Z M494 910 L619 910 L456 770 L374 770 L494 910 Z " />
<glyph glyph-name="Ucircumflex" unicode="&#xdb;" horiz-adv-x="670" d="M259 -11 Q160 -11 108.5 43 Q57 97 57 185 Q57 203 60 228 Q63 253 67.5 279 Q72 305 77 329 Q82 353 85 369 L155 700 L249 700 L167 316 Q159 278 155 245.5 Q151 213 151 194 Q151 139 181 107 Q211 75 277 75 Q321 75 354 83.5 Q387 92 411 114 Q435 136 452 175 Q469 214 482 274 L573 700 L665 700 L574 270 Q557 190 530 136 Q503 82 464.5 49.5 Q426 17 375 3 Q324 -11 259 -11 Z M406 910 L506 910 L591 770 L517 770 L448 857 L341 770 L261 770 L406 910 Z " />
<glyph glyph-name="Udieresis" unicode="&#xdc;" horiz-adv-x="670" d="M259 -11 Q160 -11 108.5 43 Q57 97 57 185 Q57 203 60 228 Q63 253 67.5 279 Q72 305 77 329 Q82 353 85 369 L155 700 L249 700 L167 316 Q159 278 155 245.5 Q151 213 151 194 Q151 139 181 107 Q211 75 277 75 Q321 75 354 83.5 Q387 92 411 114 Q435 136 452 175 Q469 214 482 274 L573 700 L665 700 L574 270 Q557 190 530 136 Q503 82 464.5 49.5 Q426 17 375 3 Q324 -11 259 -11 Z M327 785 Q305 785 292.5 796 Q280 807 280 827 Q280 857 298.5 876 Q317 895 350 895 Q372 895 384.5 884 Q397 873 397 853 Q397 823 379 804 Q361 785 327 785 Z M530 785 Q508 785 495.5 796 Q483 807 483 827 Q483 857 501.5 876 Q520 895 553 895 Q575 895 587.5 884 Q600 873 600 853 Q600 823 582 804 Q564 785 530 785 Z " />
<glyph glyph-name="Yacute" unicode="&#xdd;" horiz-adv-x="610" d="M249 271 L96 700 L196 700 L310 368 L559 700 L666 700 L341 271 L283 0 L191 0 L249 271 Z M464 910 L589 910 L426 770 L344 770 L464 910 Z " />
<glyph glyph-name="Thorn" unicode="&#xde;" horiz-adv-x="620" d="M177 700 L269 700 L246 595 Q294 598 351 598 Q471 598 527 548.5 Q583 499 583 411 Q583 346 564.5 291.5 Q546 237 505.5 198 Q465 159 402 137.5 Q339 116 249 116 Q204 116 177.5 118 Q151 120 146 121 L120 0 L28 0 L177 700 Z M485 395 Q485 451 450 481.5 Q415 512 333 512 Q288 512 260.5 510 Q233 508 228 507 L164 207 Q169 207 195.5 205 Q222 203 267 203 Q338 203 381 220.5 Q424 238 447 266 Q470 294 477.5 328 Q485 362 485 395 Z " />
<glyph glyph-name="germandbls" unicode="&#xdf;" horiz-adv-x="615" d="M117 515 Q143 641 206 702.5 Q269 764 385 764 Q431 764 467 750.5 Q503 737 528 714 Q553 691 565.5 660 Q578 629 578 594 Q578 520 542.5 470 Q507 420 435 400 L434 397 Q476 386 507.5 354.5 Q539 323 539 266 Q539 204 522 153 Q505 102 471 65.5 Q437 29 385 9 Q333 -11 264 -11 Q232 -11 208 -5.5 Q184 0 167 6 L185 87 Q199 81 220.5 76 Q242 71 274 71 Q361 71 403 122.5 Q445 174 445 260 Q445 308 418.5 334.5 Q392 361 338 361 L274 361 L290 436 L344 436 Q405 436 443.5 473.5 Q482 511 482 583 Q482 627 453 654.5 Q424 682 375 682 Q303 682 264 642.5 Q225 603 206 515 L97 0 L8 0 L117 515 Z " />
<glyph glyph-name="agrave" unicode="&#xe0;" horiz-adv-x="535" d="M153 -11 Q85 -11 45.5 25 Q6 61 6 126 Q6 163 15.5 195.5 Q25 228 51.5 252.5 Q78 277 125.5 291.5 Q173 306 249 306 L363 306 L368 328 Q369 333 370.5 342 Q372 351 373.5 360 Q375 369 376 377 Q377 385 377 389 Q377 424 349 440 Q321 456 267 456 Q220 456 179 443 Q138 430 106 411 L126 503 Q155 519 199.5 528 Q244 537 294 537 Q379 537 423.5 505 Q468 473 468 411 Q468 403 466.5 391.5 Q465 380 463 367 Q461 354 458.5 341 Q456 328 454 318 L386 0 L307 0 L320 81 Q294 37 256 13 Q218 -11 153 -11 Z M185 67 Q247 67 286 98.5 Q325 130 342 208 L350 244 L237 244 Q186 244 158 233 Q130 222 117 206 Q104 190 101.5 172 Q99 154 99 141 Q99 110 118.5 88.5 Q138 67 185 67 Z M210 756 L322 756 L376 617 L305 617 L210 756 Z " />
<glyph glyph-name="aacute" unicode="&#xe1;" horiz-adv-x="535" d="M153 -11 Q85 -11 45.5 25 Q6 61 6 126 Q6 163 15.5 195.5 Q25 228 51.5 252.5 Q78 277 125.5 291.5 Q173 306 249 306 L363 306 L368 328 Q369 333 370.5 342 Q372 351 373.5 360 Q375 369 376 377 Q377 385 377 389 Q377 424 349 440 Q321 456 267 456 Q220 456 179 443 Q138 430 106 411 L126 503 Q155 519 199.5 528 Q244 537 294 537 Q379 537 423.5 505 Q468 473 468 411 Q468 403 466.5 391.5 Q465 380 463 367 Q461 354 458.5 341 Q456 328 454 318 L386 0 L307 0 L320 81 Q294 37 256 13 Q218 -11 153 -11 Z M185 67 Q247 67 286 98.5 Q325 130 342 208 L350 244 L237 244 Q186 244 158 233 Q130 222 117 206 Q104 190 101.5 172 Q99 154 99 141 Q99 110 118.5 88.5 Q138 67 185 67 Z M398 756 L516 756 L361 617 L286 617 L398 756 Z " />
<glyph glyph-name="acircumflex" unicode="&#xe2;" horiz-adv-x="535" d="M153 -11 Q85 -11 45.5 25 Q6 61 6 126 Q6 163 15.5 195.5 Q25 228 51.5 252.5 Q78 277 125.5 291.5 Q173 306 249 306 L363 306 L368 328 Q369 333 370.5 342 Q372 351 373.5 360 Q375 369 376 377 Q377 385 377 389 Q377 424 349 440 Q321 456 267 456 Q220 456 179 443 Q138 430 106 411 L126 503 Q155 519 199.5 528 Q244 537 294 537 Q379 537 423.5 505 Q468 473 468 411 Q468 403 466.5 391.5 Q465 380 463 367 Q461 354 458.5 341 Q456 328 454 318 L386 0 L307 0 L320 81 Q294 37 256 13 Q218 -11 153 -11 Z M185 67 Q247 67 286 98.5 Q325 130 342 208 L350 244 L237 244 Q186 244 158 233 Q130 222 117 206 Q104 190 101.5 172 Q99 154 99 141 Q99 110 118.5 88.5 Q138 67 185 67 Z M313 756 L409 756 L490 617 L417 617 L353 705 L249 617 L172 617 L313 756 Z " />
<glyph glyph-name="atilde" unicode="&#xe3;" horiz-adv-x="535" d="M153 -11 Q85 -11 45.5 25 Q6 61 6 126 Q6 163 15.5 195.5 Q25 228 51.5 252.5 Q78 277 125.5 291.5 Q173 306 249 306 L363 306 L368 328 Q369 333 370.5 342 Q372 351 373.5 360 Q375 369 376 377 Q377 385 377 389 Q377 424 349 440 Q321 456 267 456 Q220 456 179 443 Q138 430 106 411 L126 503 Q155 519 199.5 528 Q244 537 294 537 Q379 537 423.5 505 Q468 473 468 411 Q468 403 466.5 391.5 Q465 380 463 367 Q461 354 458.5 341 Q456 328 454 318 L386 0 L307 0 L320 81 Q294 37 256 13 Q218 -11 153 -11 Z M185 67 Q247 67 286 98.5 Q325 130 342 208 L350 244 L237 244 Q186 244 158 233 Q130 222 117 206 Q104 190 101.5 172 Q99 154 99 141 Q99 110 118.5 88.5 Q138 67 185 67 Z M175 634 Q188 683 216 706.5 Q244 730 281 730 Q301 730 316.5 724.5 Q332 719 352 709 Q371 700 382.5 693.5 Q394 687 408 687 Q422 687 432 696 Q442 705 451 729 L503 717 Q489 668 459.5 645 Q430 622 397 622 Q379 622 365 625.5 Q351 629 325 643 Q308 652 297.5 658.5 Q287 665 273 665 Q260 665 248 656.5 Q236 648 228 623 L175 634 Z " />
<glyph glyph-name="adieresis" unicode="&#xe4;" horiz-adv-x="535" d="M153 -11 Q85 -11 45.5 25 Q6 61 6 126 Q6 163 15.5 195.5 Q25 228 51.5 252.5 Q78 277 125.5 291.5 Q173 306 249 306 L363 306 L368 328 Q369 333 370.5 342 Q372 351 373.5 360 Q375 369 376 377 Q377 385 377 389 Q377 424 349 440 Q321 456 267 456 Q220 456 179 443 Q138 430 106 411 L126 503 Q155 519 199.5 528 Q244 537 294 537 Q379 537 423.5 505 Q468 473 468 411 Q468 403 466.5 391.5 Q465 380 463 367 Q461 354 458.5 341 Q456 328 454 318 L386 0 L307 0 L320 81 Q294 37 256 13 Q218 -11 153 -11 Z M185 67 Q247 67 286 98.5 Q325 130 342 208 L350 244 L237 244 Q186 244 158 233 Q130 222 117 206 Q104 190 101.5 172 Q99 154 99 141 Q99 110 118.5 88.5 Q138 67 185 67 Z M430 634 Q407 634 395.5 645.5 Q384 657 384 675 Q384 705 400.5 722 Q417 739 452 739 Q475 739 486.5 727.5 Q498 716 498 698 Q498 668 481.5 651 Q465 634 430 634 Z M240 634 Q217 634 205.5 645.5 Q194 657 194 675 Q194 705 210.5 722 Q227 739 262 739 Q285 739 296.5 727.5 Q308 716 308 698 Q308 668 291.5 651 Q275 634 240 634 Z " />
<glyph glyph-name="aring" unicode="&#xe5;" horiz-adv-x="535" d="M153 -11 Q85 -11 45.5 25 Q6 61 6 126 Q6 163 15.5 195.5 Q25 228 51.5 252.5 Q78 277 125.5 291.5 Q173 306 249 306 L363 306 L368 328 Q369 333 370.5 342 Q372 351 373.5 360 Q375 369 376 377 Q377 385 377 389 Q377 424 349 440 Q321 456 267 456 Q220 456 179 443 Q138 430 106 411 L126 503 Q155 519 199.5 528 Q244 537 294 537 Q379 537 423.5 505 Q468 473 468 411 Q468 403 466.5 391.5 Q465 380 463 367 Q461 354 458.5 341 Q456 328 454 318 L386 0 L307 0 L320 81 Q294 37 256 13 Q218 -11 153 -11 Z M185 67 Q247 67 286 98.5 Q325 130 342 208 L350 244 L237 244 Q186 244 158 233 Q130 222 117 206 Q104 190 101.5 172 Q99 154 99 141 Q99 110 118.5 88.5 Q138 67 185 67 Z M247 667 Q247 717 280 750 Q313 783 365 783 Q402 783 425.5 761.5 Q449 740 449 705 Q449 655 416 622 Q383 589 331 589 Q294 589 270.5 610.5 Q247 632 247 667 Z M298 675 Q298 658 310 648 Q322 638 342 638 Q368 638 382.5 654 Q397 670 397 696 Q397 713 385 723.5 Q373 734 355 734 Q329 734 313.5 717.5 Q298 701 298 675 Z " />
<glyph glyph-name="ae" unicode="&#xe6;" horiz-adv-x="860" d="M539 -11 Q511 -11 483 -5 Q455 1 431 13.5 Q407 26 388.5 44.5 Q370 63 362 89 Q326 34 280 11.5 Q234 -11 169 -11 Q93 -11 50 24.5 Q7 60 7 126 Q7 165 16.5 198 Q26 231 53 255 Q80 279 128 292.5 Q176 306 252 306 L367 306 L375 343 Q380 368 380 386 Q380 422 352.5 439 Q325 456 274 456 Q226 456 182 443 Q138 430 106 411 L126 503 Q156 517 194 527 Q232 537 283 537 Q351 537 395.5 521 Q440 505 457 464 Q492 502 532.5 519.5 Q573 537 625 537 Q662 537 696 527.5 Q730 518 755 498.5 Q780 479 794.5 448.5 Q809 418 808 376 Q807 355 804.5 331.5 Q802 308 796 281 L787 240 L440 240 Q434 208 434 183 Q434 67 561 67 Q609 67 652.5 80 Q696 93 728 116 L709 28 Q683 9 640.5 -1 Q598 -11 539 -11 Z M189 67 Q252 67 291 101.5 Q330 136 346 208 L354 244 L245 244 Q194 244 165 234 Q136 224 121.5 208.5 Q107 193 103.5 174 Q100 155 100 137 Q100 105 122.5 86 Q145 67 189 67 Z M621 462 Q558 462 516 425 Q474 388 454 304 L713 304 Q721 342 721 368 Q721 413 694.5 437.5 Q668 462 621 462 Z " />
<glyph glyph-name="ccedilla" unicode="&#xe7;" horiz-adv-x="475" d="M156 -217 Q106 -217 83 -202 L100 -153 Q114 -159 127 -162 Q140 -165 158 -165 Q190 -165 204 -152.5 Q218 -140 218 -118 Q218 -103 207 -93.5 Q196 -84 171 -84 Q163 -84 154 -84.5 Q145 -85 139 -86 L171 -6 Q99 8 60.5 57.5 Q22 107 22 195 Q22 235 30 277 Q38 319 53 357.5 Q68 396 90.5 429 Q113 462 143 485 Q182 515 228.5 526 Q275 537 324 537 Q350 537 374 532.5 Q398 528 416.5 522 Q435 516 448 509.5 Q461 503 465 500 L446 408 Q427 425 392.5 440.5 Q358 456 315 456 Q271 456 240.5 445.5 Q210 435 184 409 Q168 393 155.5 369.5 Q143 346 134 319 Q125 292 120 262.5 Q115 233 115 205 Q115 133 151.5 101.5 Q188 70 251 70 Q288 70 327 80.5 Q366 91 390 108 L371 15 Q356 7 319.5 -2 Q283 -11 228 -11 L221 -11 L208 -44 Q248 -44 269 -61.5 Q290 -79 290 -110 Q290 -158 255 -187.5 Q220 -217 156 -217 Z " />
<glyph glyph-name="egrave" unicode="&#xe8;" horiz-adv-x="550" d="M234 -11 Q134 -11 79 37.5 Q24 86 24 186 Q24 229 31.5 271 Q39 313 52.5 350.5 Q66 388 85 419 Q104 450 127 471 Q164 506 208.5 521.5 Q253 537 313 537 Q352 537 385.5 527.5 Q419 518 443.5 498.5 Q468 479 482 449 Q496 419 496 379 Q496 357 493.5 332.5 Q491 308 484 279 L475 240 L117 240 Q114 223 113.5 214 Q113 205 113 191 Q113 67 250 67 Q300 67 343.5 80.5 Q387 94 419 117 L399 25 Q371 8 331.5 -1.5 Q292 -11 234 -11 Z M303 462 Q239 462 193.5 425 Q148 388 131 304 L401 304 Q409 339 409 364 Q410 411 383 436.5 Q356 462 303 462 Z M215 756 L327 756 L381 617 L310 617 L215 756 Z " />
<glyph glyph-name="eacute" unicode="&#xe9;" horiz-adv-x="550" d="M234 -11 Q134 -11 79 37.5 Q24 86 24 186 Q24 229 31.5 271 Q39 313 52.5 350.5 Q66 388 85 419 Q104 450 127 471 Q164 506 208.5 521.5 Q253 537 313 537 Q352 537 385.5 527.5 Q419 518 443.5 498.5 Q468 479 482 449 Q496 419 496 379 Q496 357 493.5 332.5 Q491 308 484 279 L475 240 L117 240 Q114 223 113.5 214 Q113 205 113 191 Q113 67 250 67 Q300 67 343.5 80.5 Q387 94 419 117 L399 25 Q371 8 331.5 -1.5 Q292 -11 234 -11 Z M303 462 Q239 462 193.5 425 Q148 388 131 304 L401 304 Q409 339 409 364 Q410 411 383 436.5 Q356 462 303 462 Z M403 756 L521 756 L366 617 L291 617 L403 756 Z " />
<glyph glyph-name="ecircumflex" unicode="&#xea;" horiz-adv-x="550" d="M234 -11 Q134 -11 79 37.5 Q24 86 24 186 Q24 229 31.5 271 Q39 313 52.5 350.5 Q66 388 85 419 Q104 450 127 471 Q164 506 208.5 521.5 Q253 537 313 537 Q352 537 385.5 527.5 Q419 518 443.5 498.5 Q468 479 482 449 Q496 419 496 379 Q496 357 493.5 332.5 Q491 308 484 279 L475 240 L117 240 Q114 223 113.5 214 Q113 205 113 191 Q113 67 250 67 Q300 67 343.5 80.5 Q387 94 419 117 L399 25 Q371 8 331.5 -1.5 Q292 -11 234 -11 Z M303 462 Q239 462 193.5 425 Q148 388 131 304 L401 304 Q409 339 409 364 Q410 411 383 436.5 Q356 462 303 462 Z M318 756 L414 756 L495 617 L422 617 L358 705 L254 617 L177 617 L318 756 Z " />
<glyph glyph-name="edieresis" unicode="&#xeb;" horiz-adv-x="550" d="M234 -11 Q134 -11 79 37.5 Q24 86 24 186 Q24 229 31.5 271 Q39 313 52.5 350.5 Q66 388 85 419 Q104 450 127 471 Q164 506 208.5 521.5 Q253 537 313 537 Q352 537 385.5 527.5 Q419 518 443.5 498.5 Q468 479 482 449 Q496 419 496 379 Q496 357 493.5 332.5 Q491 308 484 279 L475 240 L117 240 Q114 223 113.5 214 Q113 205 113 191 Q113 67 250 67 Q300 67 343.5 80.5 Q387 94 419 117 L399 25 Q371 8 331.5 -1.5 Q292 -11 234 -11 Z M303 462 Q239 462 193.5 425 Q148 388 131 304 L401 304 Q409 339 409 364 Q410 411 383 436.5 Q356 462 303 462 Z M435 634 Q412 634 400.5 645.5 Q389 657 389 675 Q389 705 405.5 722 Q422 739 457 739 Q480 739 491.5 727.5 Q503 716 503 698 Q503 668 486.5 651 Q470 634 435 634 Z M245 634 Q222 634 210.5 645.5 Q199 657 199 675 Q199 705 215.5 722 Q232 739 267 739 Q290 739 301.5 727.5 Q313 716 313 698 Q313 668 296.5 651 Q280 634 245 634 Z " />
<glyph glyph-name="igrave" unicode="&#xec;" horiz-adv-x="290" d="M140 526 L228 526 L116 0 L28 0 L140 526 Z M76 756 L188 756 L242 617 L171 617 L76 756 Z " />
<glyph glyph-name="iacute" unicode="&#xed;" horiz-adv-x="290" d="M140 526 L228 526 L116 0 L28 0 L140 526 Z M276 756 L394 756 L239 617 L164 617 L276 756 Z " />
<glyph glyph-name="icircumflex" unicode="&#xee;" horiz-adv-x="290" d="M140 526 L228 526 L116 0 L28 0 L140 526 Z M186 756 L282 756 L363 617 L290 617 L226 705 L122 617 L45 617 L186 756 Z " />
<glyph glyph-name="idieresis" unicode="&#xef;" horiz-adv-x="290" d="M140 526 L228 526 L116 0 L28 0 L140 526 Z M303 634 Q280 634 268.5 645.5 Q257 657 257 675 Q257 705 273.5 722 Q290 739 325 739 Q348 739 359.5 727.5 Q371 716 371 698 Q371 668 354.5 651 Q338 634 303 634 Z M113 634 Q90 634 78.5 645.5 Q67 657 67 675 Q67 705 83.5 722 Q100 739 135 739 Q158 739 169.5 727.5 Q181 716 181 698 Q181 668 164.5 651 Q148 634 113 634 Z " />
<glyph glyph-name="eth" unicode="&#xf0;" horiz-adv-x="585" d="M197 615 L298 667 Q273 681 245.5 692 Q218 703 189 711 L230 769 Q268 756 302.5 739.5 Q337 723 367 702 L501 771 L520 726 L410 669 Q466 620 498 551.5 Q530 483 530 389 Q530 323 518.5 267.5 Q507 212 486.5 168 Q466 124 438.5 91 Q411 58 379 36 Q342 11 301 0 Q260 -11 212 -11 Q171 -11 137 2.5 Q103 16 78.5 41 Q54 66 40 102 Q26 138 26 183 Q26 220 32.5 257.5 Q39 295 52 329 Q65 363 82.5 392.5 Q100 422 123 444 Q159 479 203 496.5 Q247 514 307 514 Q324 514 344 510.5 Q364 507 383 498.5 Q402 490 418 475.5 Q434 461 443 440 L446 442 Q442 503 415.5 551.5 Q389 600 344 635 L217 570 L197 615 Z M232 69 Q267 69 294.5 78 Q322 87 345 105 Q364 120 380 143.5 Q396 167 406.5 195 Q417 223 423 254 Q429 285 429 315 Q429 378 397.5 406 Q366 434 309 434 Q264 434 235.5 425 Q207 416 183 392 Q168 377 156 355.5 Q144 334 135.5 308 Q127 282 122.5 253.5 Q118 225 118 197 Q118 129 151 99 Q184 69 232 69 Z " />
<glyph glyph-name="ntilde" unicode="&#xf1;" horiz-adv-x="585" d="M120 526 L202 526 L189 437 Q216 485 258 511 Q300 537 363 537 Q435 537 473.5 500.5 Q512 464 512 404 Q512 391 510 373.5 Q508 356 505.5 337.5 Q503 319 500 302.5 Q497 286 495 276 L436 0 L348 0 L407 279 Q412 299 415.5 325.5 Q419 352 419 373 Q419 409 394 432.5 Q369 456 322 456 Q259 456 218 419 Q177 382 162 310 L96 0 L8 0 L120 526 Z M200 634 Q213 683 241 706.5 Q269 730 306 730 Q326 730 341.5 724.5 Q357 719 377 709 Q396 700 407.5 693.5 Q419 687 433 687 Q447 687 457 696 Q467 705 476 729 L528 717 Q514 668 484.5 645 Q455 622 422 622 Q404 622 390 625.5 Q376 629 350 643 Q333 652 322.5 658.5 Q312 665 298 665 Q285 665 273 656.5 Q261 648 253 623 L200 634 Z " />
<glyph glyph-name="ograve" unicode="&#xf2;" horiz-adv-x="570" d="M212 -11 Q174 -11 139.5 0.5 Q105 12 79.5 35.5 Q54 59 39 95 Q24 131 24 180 Q24 223 31 266 Q38 309 51.5 348 Q65 387 85.5 420 Q106 453 133 477 Q171 510 215 523.5 Q259 537 320 537 Q360 537 395.5 526 Q431 515 457 492.5 Q483 470 498 434 Q513 398 513 349 Q513 250 480 168.5 Q447 87 390 42 Q354 13 312.5 1 Q271 -11 212 -11 Z M228 70 Q272 70 301.5 81 Q331 92 355 119 Q370 137 382.5 162.5 Q395 188 403.5 217 Q412 246 416.5 276 Q421 306 421 333 Q421 367 412.5 390.5 Q404 414 388.5 428.5 Q373 443 352 449.5 Q331 456 306 456 Q268 456 240 447 Q212 438 188 414 Q171 397 157.5 372.5 Q144 348 135 319 Q126 290 121 257.5 Q116 225 116 193 Q116 159 124.5 135.5 Q133 112 148 97.5 Q163 83 183.5 76.5 Q204 70 228 70 Z M222 756 L334 756 L388 617 L317 617 L222 756 Z " />
<glyph glyph-name="oacute" unicode="&#xf3;" horiz-adv-x="570" d="M212 -11 Q174 -11 139.5 0.5 Q105 12 79.5 35.5 Q54 59 39 95 Q24 131 24 180 Q24 223 31 266 Q38 309 51.5 348 Q65 387 85.5 420 Q106 453 133 477 Q171 510 215 523.5 Q259 537 320 537 Q360 537 395.5 526 Q431 515 457 492.5 Q483 470 498 434 Q513 398 513 349 Q513 250 480 168.5 Q447 87 390 42 Q354 13 312.5 1 Q271 -11 212 -11 Z M228 70 Q272 70 301.5 81 Q331 92 355 119 Q370 137 382.5 162.5 Q395 188 403.5 217 Q412 246 416.5 276 Q421 306 421 333 Q421 367 412.5 390.5 Q404 414 388.5 428.5 Q373 443 352 449.5 Q331 456 306 456 Q268 456 240 447 Q212 438 188 414 Q171 397 157.5 372.5 Q144 348 135 319 Q126 290 121 257.5 Q116 225 116 193 Q116 159 124.5 135.5 Q133 112 148 97.5 Q163 83 183.5 76.5 Q204 70 228 70 Z M409 756 L527 756 L372 617 L297 617 L409 756 Z " />
<glyph glyph-name="ocircumflex" unicode="&#xf4;" horiz-adv-x="570" d="M212 -11 Q174 -11 139.5 0.5 Q105 12 79.5 35.5 Q54 59 39 95 Q24 131 24 180 Q24 223 31 266 Q38 309 51.5 348 Q65 387 85.5 420 Q106 453 133 477 Q171 510 215 523.5 Q259 537 320 537 Q360 537 395.5 526 Q431 515 457 492.5 Q483 470 498 434 Q513 398 513 349 Q513 250 480 168.5 Q447 87 390 42 Q354 13 312.5 1 Q271 -11 212 -11 Z M228 70 Q272 70 301.5 81 Q331 92 355 119 Q370 137 382.5 162.5 Q395 188 403.5 217 Q412 246 416.5 276 Q421 306 421 333 Q421 367 412.5 390.5 Q404 414 388.5 428.5 Q373 443 352 449.5 Q331 456 306 456 Q268 456 240 447 Q212 438 188 414 Q171 397 157.5 372.5 Q144 348 135 319 Q126 290 121 257.5 Q116 225 116 193 Q116 159 124.5 135.5 Q133 112 148 97.5 Q163 83 183.5 76.5 Q204 70 228 70 Z M325 756 L421 756 L502 617 L429 617 L365 705 L261 617 L184 617 L325 756 Z " />
<glyph glyph-name="otilde" unicode="&#xf5;" horiz-adv-x="570" d="M212 -11 Q174 -11 139.5 0.5 Q105 12 79.5 35.5 Q54 59 39 95 Q24 131 24 180 Q24 223 31 266 Q38 309 51.5 348 Q65 387 85.5 420 Q106 453 133 477 Q171 510 215 523.5 Q259 537 320 537 Q360 537 395.5 526 Q431 515 457 492.5 Q483 470 498 434 Q513 398 513 349 Q513 250 480 168.5 Q447 87 390 42 Q354 13 312.5 1 Q271 -11 212 -11 Z M228 70 Q272 70 301.5 81 Q331 92 355 119 Q370 137 382.5 162.5 Q395 188 403.5 217 Q412 246 416.5 276 Q421 306 421 333 Q421 367 412.5 390.5 Q404 414 388.5 428.5 Q373 443 352 449.5 Q331 456 306 456 Q268 456 240 447 Q212 438 188 414 Q171 397 157.5 372.5 Q144 348 135 319 Q126 290 121 257.5 Q116 225 116 193 Q116 159 124.5 135.5 Q133 112 148 97.5 Q163 83 183.5 76.5 Q204 70 228 70 Z M192 634 Q205 683 233 706.5 Q261 730 298 730 Q318 730 333.5 724.5 Q349 719 369 709 Q388 700 399.5 693.5 Q411 687 425 687 Q439 687 449 696 Q459 705 468 729 L520 717 Q506 668 476.5 645 Q447 622 414 622 Q396 622 382 625.5 Q368 629 342 643 Q325 652 314.5 658.5 Q304 665 290 665 Q277 665 265 656.5 Q253 648 245 623 L192 634 Z " />
<glyph glyph-name="odieresis" unicode="&#xf6;" horiz-adv-x="570" d="M212 -11 Q174 -11 139.5 0.5 Q105 12 79.5 35.5 Q54 59 39 95 Q24 131 24 180 Q24 223 31 266 Q38 309 51.5 348 Q65 387 85.5 420 Q106 453 133 477 Q171 510 215 523.5 Q259 537 320 537 Q360 537 395.5 526 Q431 515 457 492.5 Q483 470 498 434 Q513 398 513 349 Q513 250 480 168.5 Q447 87 390 42 Q354 13 312.5 1 Q271 -11 212 -11 Z M228 70 Q272 70 301.5 81 Q331 92 355 119 Q370 137 382.5 162.5 Q395 188 403.5 217 Q412 246 416.5 276 Q421 306 421 333 Q421 367 412.5 390.5 Q404 414 388.5 428.5 Q373 443 352 449.5 Q331 456 306 456 Q268 456 240 447 Q212 438 188 414 Q171 397 157.5 372.5 Q144 348 135 319 Q126 290 121 257.5 Q116 225 116 193 Q116 159 124.5 135.5 Q133 112 148 97.5 Q163 83 183.5 76.5 Q204 70 228 70 Z M442 634 Q419 634 407.5 645.5 Q396 657 396 675 Q396 705 412.5 722 Q429 739 464 739 Q487 739 498.5 727.5 Q510 716 510 698 Q510 668 493.5 651 Q477 634 442 634 Z M252 634 Q229 634 217.5 645.5 Q206 657 206 675 Q206 705 222.5 722 Q239 739 274 739 Q297 739 308.5 727.5 Q320 716 320 698 Q320 668 303.5 651 Q287 634 252 634 Z " />
<glyph glyph-name="divide" unicode="&#xf7;" horiz-adv-x="600" d="M95 399 L505 399 L505 318 L95 318 L95 399 Z M300 115 Q236 115 236 179 Q236 243 300 243 Q364 243 364 179 Q364 115 300 115 Z M300 474 Q236 474 236 538 Q236 602 300 602 Q364 602 364 538 Q364 474 300 474 Z " />
<glyph glyph-name="oslash" unicode="&#xf8;" horiz-adv-x="570" d="M212 -11 Q177 -11 145.5 -2 Q114 7 89 27 L83 21 L35 -32 L-6 2 L44 58 L53 67 Q24 111 24 180 Q24 223 31 266 Q38 309 51.5 348 Q65 387 85.5 420 Q106 453 133 477 Q171 510 215 523.5 Q259 537 320 537 Q357 537 389 528 Q421 519 447 500 L453 506 L501 558 L542 524 L492 469 L484 460 Q498 439 505.5 411.5 Q513 384 513 349 Q513 250 480 168.5 Q447 87 390 42 Q354 13 312.5 1 Q271 -11 212 -11 Z M228 70 Q272 70 301.5 81 Q331 92 355 119 Q370 137 382.5 162.5 Q395 188 403.5 217 Q412 246 416.5 276 Q421 306 421 333 Q421 363 414 384 L150 95 Q165 81 185 75.5 Q205 70 228 70 Z M116 193 Q116 164 122 143 L385 431 Q370 445 349.5 450.5 Q329 456 306 456 Q268 456 240 447 Q212 438 188 414 Q171 397 157.5 372.5 Q144 348 135 319 Q126 290 121 257.5 Q116 225 116 193 Z " />
<glyph glyph-name="ugrave" unicode="&#xf9;" horiz-adv-x="580" d="M186 -11 Q152 -11 125 -0.5 Q98 10 79.5 29 Q61 48 51.5 72.5 Q42 97 42 126 Q42 152 46 187 Q50 222 58 259 L115 526 L203 526 L143 243 Q141 233 138.5 221 Q136 209 134.5 197 Q133 185 132 175 Q131 165 131 158 Q130 116 152.5 93 Q175 70 222 70 Q284 70 326 106 Q368 142 384 216 L450 526 L538 526 L426 0 L344 0 L357 85 Q328 37 288.5 13 Q249 -11 186 -11 Z M224 756 L336 756 L390 617 L319 617 L224 756 Z " />
<glyph glyph-name="uacute" unicode="&#xfa;" horiz-adv-x="580" d="M186 -11 Q152 -11 125 -0.5 Q98 10 79.5 29 Q61 48 51.5 72.5 Q42 97 42 126 Q42 152 46 187 Q50 222 58 259 L115 526 L203 526 L143 243 Q141 233 138.5 221 Q136 209 134.5 197 Q133 185 132 175 Q131 165 131 158 Q130 116 152.5 93 Q175 70 222 70 Q284 70 326 106 Q368 142 384 216 L450 526 L538 526 L426 0 L344 0 L357 85 Q328 37 288.5 13 Q249 -11 186 -11 Z M411 756 L529 756 L374 617 L299 617 L411 756 Z " />
<glyph glyph-name="ucircumflex" unicode="&#xfb;" horiz-adv-x="580" d="M186 -11 Q152 -11 125 -0.5 Q98 10 79.5 29 Q61 48 51.5 72.5 Q42 97 42 126 Q42 152 46 187 Q50 222 58 259 L115 526 L203 526 L143 243 Q141 233 138.5 221 Q136 209 134.5 197 Q133 185 132 175 Q131 165 131 158 Q130 116 152.5 93 Q175 70 222 70 Q284 70 326 106 Q368 142 384 216 L450 526 L538 526 L426 0 L344 0 L357 85 Q328 37 288.5 13 Q249 -11 186 -11 Z M327 756 L423 756 L504 617 L431 617 L367 705 L263 617 L186 617 L327 756 Z " />
<glyph glyph-name="udieresis" unicode="&#xfc;" horiz-adv-x="580" d="M186 -11 Q152 -11 125 -0.5 Q98 10 79.5 29 Q61 48 51.5 72.5 Q42 97 42 126 Q42 152 46 187 Q50 222 58 259 L115 526 L203 526 L143 243 Q141 233 138.5 221 Q136 209 134.5 197 Q133 185 132 175 Q131 165 131 158 Q130 116 152.5 93 Q175 70 222 70 Q284 70 326 106 Q368 142 384 216 L450 526 L538 526 L426 0 L344 0 L357 85 Q328 37 288.5 13 Q249 -11 186 -11 Z M444 634 Q421 634 409.5 645.5 Q398 657 398 675 Q398 705 414.5 722 Q431 739 466 739 Q489 739 500.5 727.5 Q512 716 512 698 Q512 668 495.5 651 Q479 634 444 634 Z M254 634 Q231 634 219.5 645.5 Q208 657 208 675 Q208 705 224.5 722 Q241 739 276 739 Q299 739 310.5 727.5 Q322 716 322 698 Q322 668 305.5 651 Q289 634 254 634 Z " />
<glyph glyph-name="yacute" unicode="&#xfd;" horiz-adv-x="520" d="M48 -191 Q28 -191 11 -185 Q-6 -179 -11 -176 L7 -92 Q14 -97 25 -103.5 Q36 -110 56 -110 Q66 -110 77.5 -106.5 Q89 -103 102 -91 Q115 -79 129 -57.5 Q143 -36 160 0 L59 526 L151 526 L223 117 L443 526 L540 526 L247 -3 Q212 -66 186.5 -103.5 Q161 -141 139 -160.5 Q117 -180 95.5 -185.5 Q74 -191 48 -191 Z M384 756 L502 756 L347 617 L272 617 L384 756 Z " />
<glyph glyph-name="thorn" unicode="&#xfe;" horiz-adv-x="590" d="M168 753 L256 753 L190 441 Q201 462 216 479.5 Q231 497 252 510 Q273 523 301 530 Q329 537 365 537 Q402 537 433.5 527.5 Q465 518 488.5 497 Q512 476 525 443 Q538 410 538 364 Q538 268 514 193 Q490 118 452 70 Q420 30 371.5 9.5 Q323 -11 256 -11 Q225 -11 200.5 -3 Q176 5 158.5 18.5 Q141 32 130 50 Q119 68 115 87 L58 -180 L-30 -180 L168 753 Z M444 337 Q444 402 413 429 Q382 456 333 456 Q193 456 159 296 L151 259 Q147 243 145 223 Q143 203 143 192 Q143 135 170.5 102.5 Q198 70 252 70 Q305 70 335 85.5 Q365 101 385 128 Q416 170 430 226 Q444 282 444 337 Z " />
<glyph glyph-name="ydieresis" unicode="&#xff;" horiz-adv-x="520" d="M48 -191 Q28 -191 11 -185 Q-6 -179 -11 -176 L7 -92 Q14 -97 25 -103.5 Q36 -110 56 -110 Q66 -110 77.5 -106.5 Q89 -103 102 -91 Q115 -79 129 -57.5 Q143 -36 160 0 L59 526 L151 526 L223 117 L443 526 L540 526 L247 -3 Q212 -66 186.5 -103.5 Q161 -141 139 -160.5 Q117 -180 95.5 -185.5 Q74 -191 48 -191 Z M417 634 Q394 634 382.5 645.5 Q371 657 371 675 Q371 705 387.5 722 Q404 739 439 739 Q462 739 473.5 727.5 Q485 716 485 698 Q485 668 468.5 651 Q452 634 417 634 Z M227 634 Q204 634 192.5 645.5 Q181 657 181 675 Q181 705 197.5 722 Q214 739 249 739 Q272 739 283.5 727.5 Q295 716 295 698 Q295 668 278.5 651 Q262 634 227 634 Z " />
<glyph glyph-name="Amacron" unicode="&#x100;" horiz-adv-x="640" d="M346 700 L446 700 L547 0 L454 0 L430 185 L149 185 L47 0 L-53 0 L346 700 Z M194 265 L419 265 L378 596 L194 265 Z M289 865 L573 865 L558 795 L274 795 L289 865 Z " />
<glyph glyph-name="amacron" unicode="&#x101;" horiz-adv-x="535" d="M153 -11 Q85 -11 45.5 25 Q6 61 6 126 Q6 163 15.5 195.5 Q25 228 51.5 252.5 Q78 277 125.5 291.5 Q173 306 249 306 L363 306 L368 328 Q369 333 370.5 342 Q372 351 373.5 360 Q375 369 376 377 Q377 385 377 389 Q377 424 349 440 Q321 456 267 456 Q220 456 179 443 Q138 430 106 411 L126 503 Q155 519 199.5 528 Q244 537 294 537 Q379 537 423.5 505 Q468 473 468 411 Q468 403 466.5 391.5 Q465 380 463 367 Q461 354 458.5 341 Q456 328 454 318 L386 0 L307 0 L320 81 Q294 37 256 13 Q218 -11 153 -11 Z M185 67 Q247 67 286 98.5 Q325 130 342 208 L350 244 L237 244 Q186 244 158 233 Q130 222 117 206 Q104 190 101.5 172 Q99 154 99 141 Q99 110 118.5 88.5 Q138 67 185 67 Z M224 709 L482 709 L468 643 L210 643 L224 709 Z " />
<glyph glyph-name="Abreve" unicode="&#x102;" horiz-adv-x="640" d="M346 700 L446 700 L547 0 L454 0 L430 185 L149 185 L47 0 L-53 0 L346 700 Z M194 265 L419 265 L378 596 L194 265 Z M410 769 Q352 769 315.5 800.5 Q279 832 278 894 L342 911 Q344 873 362.5 854.5 Q381 836 423 836 Q465 836 492 854.5 Q519 873 537 911 L596 894 Q570 832 522 800.5 Q474 769 410 769 Z " />
<glyph glyph-name="abreve" unicode="&#x103;" horiz-adv-x="535" d="M153 -11 Q85 -11 45.5 25 Q6 61 6 126 Q6 163 15.5 195.5 Q25 228 51.5 252.5 Q78 277 125.5 291.5 Q173 306 249 306 L363 306 L368 328 Q369 333 370.5 342 Q372 351 373.5 360 Q375 369 376 377 Q377 385 377 389 Q377 424 349 440 Q321 456 267 456 Q220 456 179 443 Q138 430 106 411 L126 503 Q155 519 199.5 528 Q244 537 294 537 Q379 537 423.5 505 Q468 473 468 411 Q468 403 466.5 391.5 Q465 380 463 367 Q461 354 458.5 341 Q456 328 454 318 L386 0 L307 0 L320 81 Q294 37 256 13 Q218 -11 153 -11 Z M185 67 Q247 67 286 98.5 Q325 130 342 208 L350 244 L237 244 Q186 244 158 233 Q130 222 117 206 Q104 190 101.5 172 Q99 154 99 141 Q99 110 118.5 88.5 Q138 67 185 67 Z M331 615 Q274 615 238 647 Q202 679 204 741 L265 757 Q267 680 343 680 Q420 680 455 757 L512 741 Q486 678 439 646.5 Q392 615 331 615 Z " />
<glyph glyph-name="Aogonek" unicode="&#x104;" horiz-adv-x="640" d="M433 -196 Q391 -196 370 -175 Q349 -154 349 -128 Q349 -93 378 -59 Q407 -25 456 0 L454 0 L430 185 L149 185 L47 0 L-53 0 L346 700 L446 700 L547 0 Q485 -26 457.5 -54.5 Q430 -83 430 -109 Q430 -121 438.5 -129.5 Q447 -138 464 -138 Q476 -138 491 -134.5 Q506 -131 521 -123 L509 -182 Q492 -190 475 -193 Q458 -196 433 -196 Z M194 265 L419 265 L378 596 L194 265 Z " />
<glyph glyph-name="aogonek" unicode="&#x105;" horiz-adv-x="535" d="M268 -196 Q226 -196 206 -176 Q186 -156 186 -133 Q186 -94 215.5 -59 Q245 -24 308 6 L320 81 Q294 37 256 13 Q218 -11 153 -11 Q85 -11 45.5 25 Q6 61 6 126 Q6 163 15.5 195.5 Q25 228 51.5 252.5 Q78 277 125.5 291.5 Q173 306 249 306 L363 306 L368 328 Q369 333 370.5 342 Q372 351 373.5 360 Q375 369 376 377 Q377 385 377 389 Q377 424 349 440 Q321 456 267 456 Q220 456 179 443 Q138 430 106 411 L126 503 Q155 519 199.5 528 Q244 537 294 537 Q379 537 423.5 505 Q468 473 468 411 Q468 403 466.5 391.5 Q465 380 463 367 Q461 354 458.5 341 Q456 328 454 318 L386 0 Q323 -28 294.5 -57.5 Q266 -87 266 -111 Q266 -124 274.5 -132 Q283 -140 300 -140 Q328 -140 359 -124 L348 -181 Q315 -196 268 -196 Z M185 67 Q247 67 286 98.5 Q325 130 342 208 L350 244 L237 244 Q186 244 158 233 Q130 222 117 206 Q104 190 101.5 172 Q99 154 99 141 Q99 110 118.5 88.5 Q138 67 185 67 Z " />
<glyph glyph-name="Cacute" unicode="&#x106;" horiz-adv-x="575" d="M292 -11 Q236 -11 189 4 Q142 19 108 49.5 Q74 80 54.5 127 Q35 174 35 239 Q35 372 73.5 474.5 Q112 577 186 638 Q237 680 296 695.5 Q355 711 433 711 Q491 711 535 696 Q579 681 594 671 L573 575 Q549 595 510 610 Q471 625 416 625 Q360 625 317.5 611.5 Q275 598 241 569 Q215 546 195 513 Q175 480 161.5 439.5 Q148 399 141 353.5 Q134 308 134 260 Q134 162 180.5 118.5 Q227 75 306 75 Q363 75 408.5 89.5 Q454 104 483 120 L462 21 Q453 17 436 11.5 Q419 6 398 1 Q377 -4 349 -7.5 Q321 -11 292 -11 Z M493 910 L618 910 L455 770 L373 770 L493 910 Z " />
<glyph glyph-name="cacute" unicode="&#x107;" horiz-adv-x="475" d="M228 -11 Q128 -11 75 40.5 Q22 92 22 195 Q22 235 30 277 Q38 319 53 357.5 Q68 396 90.5 429 Q113 462 143 485 Q182 515 228.5 526 Q275 537 324 537 Q350 537 374 532.5 Q398 528 416.5 522 Q435 516 448 509.5 Q461 503 465 500 L446 408 Q427 425 392.5 440.5 Q358 456 315 456 Q271 456 240.5 445.5 Q210 435 184 409 Q168 393 155.5 369.5 Q143 346 134 319 Q125 292 120 262.5 Q115 233 115 205 Q115 133 151.5 101.5 Q188 70 251 70 Q288 70 327 80.5 Q366 91 390 108 L371 15 Q356 7 319.5 -2 Q283 -11 228 -11 Z M398 756 L516 756 L361 617 L286 617 L398 756 Z " />
<glyph glyph-name="Ccircumflex" unicode="&#x108;" horiz-adv-x="575" d="M292 -11 Q236 -11 189 4 Q142 19 108 49.5 Q74 80 54.5 127 Q35 174 35 239 Q35 372 73.5 474.5 Q112 577 186 638 Q237 680 296 695.5 Q355 711 433 711 Q491 711 535 696 Q579 681 594 671 L573 575 Q549 595 510 610 Q471 625 416 625 Q360 625 317.5 611.5 Q275 598 241 569 Q215 546 195 513 Q175 480 161.5 439.5 Q148 399 141 353.5 Q134 308 134 260 Q134 162 180.5 118.5 Q227 75 306 75 Q363 75 408.5 89.5 Q454 104 483 120 L462 21 Q453 17 436 11.5 Q419 6 398 1 Q377 -4 349 -7.5 Q321 -11 292 -11 Z M404 910 L504 910 L589 770 L515 770 L446 857 L339 770 L259 770 L404 910 Z " />
<glyph glyph-name="ccircumflex" unicode="&#x109;" horiz-adv-x="475" d="M228 -11 Q128 -11 75 40.5 Q22 92 22 195 Q22 235 30 277 Q38 319 53 357.5 Q68 396 90.5 429 Q113 462 143 485 Q182 515 228.5 526 Q275 537 324 537 Q350 537 374 532.5 Q398 528 416.5 522 Q435 516 448 509.5 Q461 503 465 500 L446 408 Q427 425 392.5 440.5 Q358 456 315 456 Q271 456 240.5 445.5 Q210 435 184 409 Q168 393 155.5 369.5 Q143 346 134 319 Q125 292 120 262.5 Q115 233 115 205 Q115 133 151.5 101.5 Q188 70 251 70 Q288 70 327 80.5 Q366 91 390 108 L371 15 Q356 7 319.5 -2 Q283 -11 228 -11 Z M313 756 L409 756 L490 617 L417 617 L353 705 L249 617 L172 617 L313 756 Z " />
<glyph glyph-name="Cdotaccent" unicode="&#x10a;" horiz-adv-x="575" d="M292 -11 Q236 -11 189 4 Q142 19 108 49.5 Q74 80 54.5 127 Q35 174 35 239 Q35 372 73.5 474.5 Q112 577 186 638 Q237 680 296 695.5 Q355 711 433 711 Q491 711 535 696 Q579 681 594 671 L573 575 Q549 595 510 610 Q471 625 416 625 Q360 625 317.5 611.5 Q275 598 241 569 Q215 546 195 513 Q175 480 161.5 439.5 Q148 399 141 353.5 Q134 308 134 260 Q134 162 180.5 118.5 Q227 75 306 75 Q363 75 408.5 89.5 Q454 104 483 120 L462 21 Q453 17 436 11.5 Q419 6 398 1 Q377 -4 349 -7.5 Q321 -11 292 -11 Z M427 784 Q403 784 391 795.5 Q379 807 379 826 Q379 858 397 877 Q415 896 450 896 Q473 896 485.5 884.5 Q498 873 498 853 Q498 822 479.5 803 Q461 784 427 784 Z " />
<glyph glyph-name="cdotaccent" unicode="&#x10b;" horiz-adv-x="475" d="M228 -11 Q128 -11 75 40.5 Q22 92 22 195 Q22 235 30 277 Q38 319 53 357.5 Q68 396 90.5 429 Q113 462 143 485 Q182 515 228.5 526 Q275 537 324 537 Q350 537 374 532.5 Q398 528 416.5 522 Q435 516 448 509.5 Q461 503 465 500 L446 408 Q427 425 392.5 440.5 Q358 456 315 456 Q271 456 240.5 445.5 Q210 435 184 409 Q168 393 155.5 369.5 Q143 346 134 319 Q125 292 120 262.5 Q115 233 115 205 Q115 133 151.5 101.5 Q188 70 251 70 Q288 70 327 80.5 Q366 91 390 108 L371 15 Q356 7 319.5 -2 Q283 -11 228 -11 Z M334 632 Q311 632 299.5 643.5 Q288 655 288 673 Q288 702 306 721 Q324 740 357 740 Q378 740 391 730 Q404 720 404 700 Q404 672 387 652 Q370 632 334 632 Z " />
<glyph glyph-name="Ccaron" unicode="&#x10c;" horiz-adv-x="575" d="M292 -11 Q236 -11 189 4 Q142 19 108 49.5 Q74 80 54.5 127 Q35 174 35 239 Q35 372 73.5 474.5 Q112 577 186 638 Q237 680 296 695.5 Q355 711 433 711 Q491 711 535 696 Q579 681 594 671 L573 575 Q549 595 510 610 Q471 625 416 625 Q360 625 317.5 611.5 Q275 598 241 569 Q215 546 195 513 Q175 480 161.5 439.5 Q148 399 141 353.5 Q134 308 134 260 Q134 162 180.5 118.5 Q227 75 306 75 Q363 75 408.5 89.5 Q454 104 483 120 L462 21 Q453 17 436 11.5 Q419 6 398 1 Q377 -4 349 -7.5 Q321 -11 292 -11 Z M288 910 L362 910 L432 823 L538 910 L618 910 L473 770 L373 770 L288 910 Z " />
<glyph glyph-name="ccaron" unicode="&#x10d;" horiz-adv-x="475" d="M228 -11 Q128 -11 75 40.5 Q22 92 22 195 Q22 235 30 277 Q38 319 53 357.5 Q68 396 90.5 429 Q113 462 143 485 Q182 515 228.5 526 Q275 537 324 537 Q350 537 374 532.5 Q398 528 416.5 522 Q435 516 448 509.5 Q461 503 465 500 L446 408 Q427 425 392.5 440.5 Q358 456 315 456 Q271 456 240.5 445.5 Q210 435 184 409 Q168 393 155.5 369.5 Q143 346 134 319 Q125 292 120 262.5 Q115 233 115 205 Q115 133 151.5 101.5 Q188 70 251 70 Q288 70 327 80.5 Q366 91 390 108 L371 15 Q356 7 319.5 -2 Q283 -11 228 -11 Z M202 756 L275 756 L339 667 L443 756 L520 756 L379 617 L283 617 L202 756 Z " />
<glyph glyph-name="Dcaron" unicode="&#x10e;" horiz-adv-x="680" d="M216 -6 Q189 -6 162.5 -5 Q136 -4 109.5 -2 Q83 0 64.5 1.5 Q46 3 29 5 L176 695 Q193 697 211.5 698.5 Q230 700 261 702 Q292 704 315.5 705 Q339 706 367 706 Q512 706 578.5 644.5 Q645 583 645 457 Q645 408 637.5 357 Q630 306 615 258 Q600 210 577 168.5 Q554 127 523 97 Q462 37 385.5 15.5 Q309 -6 216 -6 Z M547 443 Q547 537 502 578 Q457 619 354 619 Q319 619 295.5 617.5 Q272 616 250 614 L138 86 Q154 84 178 82.5 Q202 81 236 81 Q318 81 369.5 100.5 Q421 120 457 159 Q482 186 499 220.5 Q516 255 526.5 293 Q537 331 542 369.5 Q547 408 547 443 Z M279 910 L353 910 L423 823 L529 910 L609 910 L464 770 L364 770 L279 910 Z " />
<glyph glyph-name="dcaron" unicode="&#x10f;" horiz-adv-x="660" d="M718 753 L802 753 L708 574 L650 574 L718 753 Z M367 89 Q354 69 336.5 51 Q319 33 295.5 19.5 Q272 6 243.5 -2.5 Q215 -11 180 -11 Q101 -11 60.5 31 Q20 73 20 169 Q20 255 37.5 323 Q55 391 89.5 438.5 Q124 486 175 511.5 Q226 537 293 537 Q359 537 396 510.5 Q433 484 441 439 L508 753 L596 753 L436 0 L354 0 L367 89 Z M114 195 Q114 126 141.5 98 Q169 70 223 70 Q287 70 333.5 111 Q380 152 397 232 L411 299 Q426 370 400.5 413 Q375 456 301 456 Q247 456 211 437 Q175 418 153.5 383.5 Q132 349 123 301 Q114 253 114 195 Z " />
<glyph glyph-name="Dcroat" unicode="&#x110;" horiz-adv-x="690" d="M226 -6 Q199 -6 171.5 -5 Q144 -4 118.5 -2 Q93 0 73.5 1.5 Q54 3 39 5 L106 319 L12 319 L27 391 L121 391 L186 695 Q201 697 220.5 698.5 Q240 700 266 702 Q292 704 320.5 705 Q349 706 377 706 Q523 706 591 645 Q659 584 659 457 Q659 344 629 250.5 Q599 157 537 97 Q476 37 397.5 15.5 Q319 -6 226 -6 Z M561 443 Q561 537 514 578 Q467 619 364 619 Q329 619 301.5 617.5 Q274 616 260 614 L213 391 L379 391 L364 319 L197 319 L148 86 Q161 84 186.5 82.5 Q212 81 246 81 Q328 81 381.5 100.5 Q435 120 471 159 Q496 186 513 219 Q530 252 540.5 289 Q551 326 556 365.5 Q561 405 561 443 Z " />
<glyph glyph-name="dslash" unicode="&#x111;" horiz-adv-x="590" d="M296 665 L489 665 L508 753 L596 753 L577 665 L671 665 L658 601 L563 601 L436 0 L354 0 L366 83 Q344 39 304.5 14 Q265 -11 195 -11 Q157 -11 125 0.5 Q93 12 70 35.5 Q47 59 33.5 94.5 Q20 130 20 179 Q20 265 39 331.5 Q58 398 94 444 Q130 490 181.5 513.5 Q233 537 298 537 Q364 537 398.5 510.5 Q433 484 441 439 L475 601 L283 601 L296 665 Z M114 195 Q114 126 144.5 98 Q175 70 223 70 Q256 70 283 78.5 Q310 87 334 109 Q359 131 375 165 Q391 199 399 241 L405 272 Q408 286 411.5 309 Q415 332 415 350 Q415 399 388 427.5 Q361 456 301 456 Q256 456 229.5 444.5 Q203 433 181 410 Q150 378 132 321 Q114 264 114 195 Z " />
<glyph glyph-name="Emacron" unicode="&#x112;" horiz-adv-x="575" d="M177 700 L596 700 L578 617 L251 617 L205 399 L492 399 L475 318 L188 318 L138 83 L465 83 L447 0 L28 0 L177 700 Z M279 865 L563 865 L548 795 L264 795 L279 865 Z " />
<glyph glyph-name="emacron" unicode="&#x113;" horiz-adv-x="550" d="M234 -11 Q134 -11 79 37.5 Q24 86 24 186 Q24 229 31.5 271 Q39 313 52.5 350.5 Q66 388 85 419 Q104 450 127 471 Q164 506 208.5 521.5 Q253 537 313 537 Q352 537 385.5 527.5 Q419 518 443.5 498.5 Q468 479 482 449 Q496 419 496 379 Q496 357 493.5 332.5 Q491 308 484 279 L475 240 L117 240 Q114 223 113.5 214 Q113 205 113 191 Q113 67 250 67 Q300 67 343.5 80.5 Q387 94 419 117 L399 25 Q371 8 331.5 -1.5 Q292 -11 234 -11 Z M303 462 Q239 462 193.5 425 Q148 388 131 304 L401 304 Q409 339 409 364 Q410 411 383 436.5 Q356 462 303 462 Z M229 709 L487 709 L473 643 L215 643 L229 709 Z " />
<glyph glyph-name="Edotaccent" unicode="&#x116;" horiz-adv-x="575" d="M177 700 L596 700 L578 617 L251 617 L205 399 L492 399 L475 318 L188 318 L138 83 L465 83 L447 0 L28 0 L177 700 Z M404 784 Q380 784 368 795.5 Q356 807 356 826 Q356 858 374 877 Q392 896 427 896 Q450 896 462.5 884.5 Q475 873 475 853 Q475 822 456.5 803 Q438 784 404 784 Z " />
<glyph glyph-name="edotaccent" unicode="&#x117;" horiz-adv-x="550" d="M234 -11 Q134 -11 79 37.5 Q24 86 24 186 Q24 229 31.5 271 Q39 313 52.5 350.5 Q66 388 85 419 Q104 450 127 471 Q164 506 208.5 521.5 Q253 537 313 537 Q352 537 385.5 527.5 Q419 518 443.5 498.5 Q468 479 482 449 Q496 419 496 379 Q496 357 493.5 332.5 Q491 308 484 279 L475 240 L117 240 Q114 223 113.5 214 Q113 205 113 191 Q113 67 250 67 Q300 67 343.5 80.5 Q387 94 419 117 L399 25 Q371 8 331.5 -1.5 Q292 -11 234 -11 Z M303 462 Q239 462 193.5 425 Q148 388 131 304 L401 304 Q409 339 409 364 Q410 411 383 436.5 Q356 462 303 462 Z M339 632 Q316 632 304.5 643.5 Q293 655 293 673 Q293 702 311 721 Q329 740 362 740 Q383 740 396 730 Q409 720 409 700 Q409 672 392 652 Q375 632 339 632 Z " />
<glyph glyph-name="Eogonek" unicode="&#x118;" horiz-adv-x="575" d="M177 700 L596 700 L578 617 L251 617 L205 399 L492 399 L475 318 L188 318 L138 83 L465 83 L447 0 Q385 -26 357.5 -54.5 Q330 -83 330 -109 Q330 -121 338.5 -129.5 Q347 -138 364 -138 Q376 -138 391 -134.5 Q406 -131 421 -123 L409 -182 Q392 -190 375 -193 Q358 -196 333 -196 Q291 -196 270 -175 Q249 -154 249 -128 Q249 -93 278 -59 Q307 -25 356 0 L28 0 L177 700 Z " />
<glyph glyph-name="eogonek" unicode="&#x119;" horiz-adv-x="550" d="M234 -11 Q134 -11 79 37.5 Q24 86 24 186 Q24 229 31.5 271 Q39 313 52.5 350.5 Q66 388 85 419 Q104 450 127 471 Q164 506 208.5 521.5 Q253 537 313 537 Q352 537 385.5 527.5 Q419 518 443.5 498.5 Q468 479 482 449 Q496 419 496 379 Q496 357 493.5 332.5 Q491 308 484 279 L475 240 L117 240 Q114 223 113.5 214 Q113 205 113 191 Q113 67 250 67 Q300 67 343.5 80.5 Q387 94 419 117 L399 25 L385 17 Q344 -5 317 -23.5 Q290 -42 274.5 -57.5 Q259 -73 253 -86 Q247 -99 247 -111 Q247 -124 255.5 -132 Q264 -140 281 -140 Q309 -140 340 -124 L329 -181 Q296 -196 249 -196 Q207 -196 187 -176 Q167 -156 167 -133 Q167 -99 188.5 -68.5 Q210 -38 256 -10 Q251 -11 245.5 -11 Q240 -11 234 -11 Z M303 462 Q239 462 193.5 425 Q148 388 131 304 L401 304 Q409 339 409 364 Q410 411 383 436.5 Q356 462 303 462 Z " />
<glyph glyph-name="Ecaron" unicode="&#x11a;" horiz-adv-x="575" d="M177 700 L596 700 L578 617 L251 617 L205 399 L492 399 L475 318 L188 318 L138 83 L465 83 L447 0 L28 0 L177 700 Z M265 910 L339 910 L409 823 L515 910 L595 910 L450 770 L350 770 L265 910 Z " />
<glyph glyph-name="ecaron" unicode="&#x11b;" horiz-adv-x="550" d="M234 -11 Q134 -11 79 37.5 Q24 86 24 186 Q24 229 31.5 271 Q39 313 52.5 350.5 Q66 388 85 419 Q104 450 127 471 Q164 506 208.5 521.5 Q253 537 313 537 Q352 537 385.5 527.5 Q419 518 443.5 498.5 Q468 479 482 449 Q496 419 496 379 Q496 357 493.5 332.5 Q491 308 484 279 L475 240 L117 240 Q114 223 113.5 214 Q113 205 113 191 Q113 67 250 67 Q300 67 343.5 80.5 Q387 94 419 117 L399 25 Q371 8 331.5 -1.5 Q292 -11 234 -11 Z M303 462 Q239 462 193.5 425 Q148 388 131 304 L401 304 Q409 339 409 364 Q410 411 383 436.5 Q356 462 303 462 Z M207 756 L280 756 L344 667 L448 756 L525 756 L384 617 L288 617 L207 756 Z " />
<glyph glyph-name="Gcircumflex" unicode="&#x11c;" horiz-adv-x="650" d="M302 -11 Q247 -11 199 4 Q151 19 115 51 Q79 83 58.5 134 Q38 185 38 256 Q38 380 75.5 475.5 Q113 571 172 624 Q197 647 225.5 663.5 Q254 680 287 690.5 Q320 701 359 706 Q398 711 445 711 Q506 711 550 699 Q594 687 612 677 L592 581 Q567 597 527.5 611 Q488 625 437 625 Q366 625 316.5 610 Q267 595 229 556 Q181 508 158.5 429.5 Q136 351 136 260 Q136 210 148.5 175 Q161 140 185 117.5 Q209 95 243 85 Q277 75 320 75 Q352 75 382.5 78.5 Q413 82 437 90 L477 280 L344 280 L361 360 L584 360 L514 29 Q483 14 428.5 1.5 Q374 -11 302 -11 Z M428 910 L528 910 L613 770 L539 770 L470 857 L363 770 L283 770 L428 910 Z " />
<glyph glyph-name="gcircumflex" unicode="&#x11d;" horiz-adv-x="590" d="M158 -191 Q98 -191 54.5 -175 Q11 -159 -12 -145 L8 -49 Q16 -57 31.5 -67 Q47 -77 68 -87 Q89 -97 115.5 -103.5 Q142 -110 174 -110 Q214 -110 244 -103 Q274 -96 296 -80 Q318 -64 332 -37 Q346 -10 354 29 L368 96 Q342 57 302 31 Q262 5 194 5 Q113 5 68.5 52.5 Q24 100 24 189 Q24 280 52.5 357.5 Q81 435 131 479 Q164 508 202 522.5 Q240 537 293 537 Q359 537 394 509.5 Q429 482 441 439 L466 526 L547 526 L443 35 Q429 -30 405.5 -73.5 Q382 -117 347.5 -143 Q313 -169 266 -180 Q219 -191 158 -191 Z M226 86 Q295 86 339.5 128 Q384 170 401 247 L409 283 Q412 296 413.5 314 Q415 332 415 351 Q415 399 388 427.5 Q361 456 301 456 Q257 456 231 444.5 Q205 433 182 410 Q167 394 155 371.5 Q143 349 135 322 Q127 295 122.5 265.5 Q118 236 118 208 Q118 141 147.5 113.5 Q177 86 226 86 Z M320 756 L416 756 L497 617 L424 617 L360 705 L256 617 L179 617 L320 756 Z " />
<glyph glyph-name="Gbreve" unicode="&#x11e;" horiz-adv-x="650" d="M302 -11 Q247 -11 199 4 Q151 19 115 51 Q79 83 58.5 134 Q38 185 38 256 Q38 380 75.5 475.5 Q113 571 172 624 Q197 647 225.5 663.5 Q254 680 287 690.5 Q320 701 359 706 Q398 711 445 711 Q506 711 550 699 Q594 687 612 677 L592 581 Q567 597 527.5 611 Q488 625 437 625 Q366 625 316.5 610 Q267 595 229 556 Q181 508 158.5 429.5 Q136 351 136 260 Q136 210 148.5 175 Q161 140 185 117.5 Q209 95 243 85 Q277 75 320 75 Q352 75 382.5 78.5 Q413 82 437 90 L477 280 L344 280 L361 360 L584 360 L514 29 Q483 14 428.5 1.5 Q374 -11 302 -11 Z M447 769 Q389 769 352.5 800.5 Q316 832 315 894 L379 911 Q381 873 399.5 854.5 Q418 836 460 836 Q502 836 529 854.5 Q556 873 574 911 L633 894 Q607 832 559 800.5 Q511 769 447 769 Z " />
<glyph glyph-name="gbreve" unicode="&#x11f;" horiz-adv-x="590" d="M158 -191 Q98 -191 54.5 -175 Q11 -159 -12 -145 L8 -49 Q16 -57 31.5 -67 Q47 -77 68 -87 Q89 -97 115.5 -103.5 Q142 -110 174 -110 Q214 -110 244 -103 Q274 -96 296 -80 Q318 -64 332 -37 Q346 -10 354 29 L368 96 Q342 57 302 31 Q262 5 194 5 Q113 5 68.5 52.5 Q24 100 24 189 Q24 280 52.5 357.5 Q81 435 131 479 Q164 508 202 522.5 Q240 537 293 537 Q359 537 394 509.5 Q429 482 441 439 L466 526 L547 526 L443 35 Q429 -30 405.5 -73.5 Q382 -117 347.5 -143 Q313 -169 266 -180 Q219 -191 158 -191 Z M226 86 Q295 86 339.5 128 Q384 170 401 247 L409 283 Q412 296 413.5 314 Q415 332 415 351 Q415 399 388 427.5 Q361 456 301 456 Q257 456 231 444.5 Q205 433 182 410 Q167 394 155 371.5 Q143 349 135 322 Q127 295 122.5 265.5 Q118 236 118 208 Q118 141 147.5 113.5 Q177 86 226 86 Z M338 615 Q281 615 245 647 Q209 679 211 741 L272 757 Q274 680 350 680 Q427 680 462 757 L519 741 Q493 678 446 646.5 Q399 615 338 615 Z " />
<glyph glyph-name="Gdotaccent" unicode="&#x120;" horiz-adv-x="650" d="M302 -11 Q247 -11 199 4 Q151 19 115 51 Q79 83 58.5 134 Q38 185 38 256 Q38 380 75.5 475.5 Q113 571 172 624 Q197 647 225.5 663.5 Q254 680 287 690.5 Q320 701 359 706 Q398 711 445 711 Q506 711 550 699 Q594 687 612 677 L592 581 Q567 597 527.5 611 Q488 625 437 625 Q366 625 316.5 610 Q267 595 229 556 Q181 508 158.5 429.5 Q136 351 136 260 Q136 210 148.5 175 Q161 140 185 117.5 Q209 95 243 85 Q277 75 320 75 Q352 75 382.5 78.5 Q413 82 437 90 L477 280 L344 280 L361 360 L584 360 L514 29 Q483 14 428.5 1.5 Q374 -11 302 -11 Z M451 784 Q427 784 415 795.5 Q403 807 403 826 Q403 858 421 877 Q439 896 474 896 Q497 896 509.5 884.5 Q522 873 522 853 Q522 822 503.5 803 Q485 784 451 784 Z " />
<glyph glyph-name="gdotaccent" unicode="&#x121;" horiz-adv-x="590" d="M158 -191 Q98 -191 54.5 -175 Q11 -159 -12 -145 L8 -49 Q16 -57 31.5 -67 Q47 -77 68 -87 Q89 -97 115.5 -103.5 Q142 -110 174 -110 Q214 -110 244 -103 Q274 -96 296 -80 Q318 -64 332 -37 Q346 -10 354 29 L368 96 Q342 57 302 31 Q262 5 194 5 Q113 5 68.5 52.5 Q24 100 24 189 Q24 280 52.5 357.5 Q81 435 131 479 Q164 508 202 522.5 Q240 537 293 537 Q359 537 394 509.5 Q429 482 441 439 L466 526 L547 526 L443 35 Q429 -30 405.5 -73.5 Q382 -117 347.5 -143 Q313 -169 266 -180 Q219 -191 158 -191 Z M226 86 Q295 86 339.5 128 Q384 170 401 247 L409 283 Q412 296 413.5 314 Q415 332 415 351 Q415 399 388 427.5 Q361 456 301 456 Q257 456 231 444.5 Q205 433 182 410 Q167 394 155 371.5 Q143 349 135 322 Q127 295 122.5 265.5 Q118 236 118 208 Q118 141 147.5 113.5 Q177 86 226 86 Z M341 632 Q318 632 306.5 643.5 Q295 655 295 673 Q295 702 313 721 Q331 740 364 740 Q385 740 398 730 Q411 720 411 700 Q411 672 394 652 Q377 632 341 632 Z " />
<glyph glyph-name="uni0122" unicode="&#x122;" horiz-adv-x="650" d="M302 -11 Q247 -11 199 4 Q151 19 115 51 Q79 83 58.5 134 Q38 185 38 256 Q38 380 75.5 475.5 Q113 571 172 624 Q197 647 225.5 663.5 Q254 680 287 690.5 Q320 701 359 706 Q398 711 445 711 Q506 711 550 699 Q594 687 612 677 L592 581 Q567 597 527.5 611 Q488 625 437 625 Q366 625 316.5 610 Q267 595 229 556 Q181 508 158.5 429.5 Q136 351 136 260 Q136 210 148.5 175 Q161 140 185 117.5 Q209 95 243 85 Q277 75 320 75 Q352 75 382.5 78.5 Q413 82 437 90 L477 280 L344 280 L361 360 L584 360 L514 29 Q483 14 428.5 1.5 Q374 -11 302 -11 Z M184 -173 Q207 -171 229.5 -163.5 Q252 -156 260 -136 Q222 -138 208 -128.5 Q194 -119 194 -102 Q194 -80 211 -64.5 Q228 -49 272 -49 Q301 -49 316.5 -62 Q332 -75 332 -96 Q332 -119 321.5 -140.5 Q311 -162 291.5 -179 Q272 -196 244 -207.5 Q216 -219 181 -221 L184 -173 Z " />
<glyph glyph-name="uni0123" unicode="&#x123;" horiz-adv-x="590" d="M158 -191 Q98 -191 54.5 -175 Q11 -159 -12 -145 L8 -49 Q16 -57 31.5 -67 Q47 -77 68 -87 Q89 -97 115.5 -103.5 Q142 -110 174 -110 Q214 -110 244 -103 Q274 -96 296 -80 Q318 -64 332 -37 Q346 -10 354 29 L368 96 Q342 57 302 31 Q262 5 194 5 Q113 5 68.5 52.5 Q24 100 24 189 Q24 280 52.5 357.5 Q81 435 131 479 Q164 508 202 522.5 Q240 537 293 537 Q359 537 394 509.5 Q429 482 441 439 L466 526 L547 526 L443 35 Q429 -30 405.5 -73.5 Q382 -117 347.5 -143 Q313 -169 266 -180 Q219 -191 158 -191 Z M226 86 Q295 86 339.5 128 Q384 170 401 247 L409 283 Q412 296 413.5 314 Q415 332 415 351 Q415 399 388 427.5 Q361 456 301 456 Q257 456 231 444.5 Q205 433 182 410 Q167 394 155 371.5 Q143 349 135 322 Q127 295 122.5 265.5 Q118 236 118 208 Q118 141 147.5 113.5 Q177 86 226 86 Z M390.996 742.989 Q361.997 740.99 342.499 732.49 Q323 723.991 316 704.992 Q353.998 706.992 367.497 696.992 Q380.996 686.993 380.996 670.994 Q380.996 649.995 364.497 634.496 Q347.998 618.997 307.001 618.997 Q279.003 618.997 264.503 632.496 Q250.004 645.995 250.004 668.994 Q250.004 687.993 259.004 708.492 Q268.003 728.99 286.002 745.989 Q304.001 762.988 330.999 775.487 Q357.998 787.987 393.996 790.987 L390.996 742.989 Z " />
<glyph glyph-name="Hcircumflex" unicode="&#x124;" horiz-adv-x="720" d="M177 700 L269 700 L205 401 L539 401 L603 700 L695 700 L546 0 L454 0 L521 317 L187 317 L120 0 L28 0 L177 700 Z M431 910 L531 910 L616 770 L542 770 L473 857 L366 770 L286 770 L431 910 Z " />
<glyph glyph-name="hcircumflex" unicode="&#x125;" horiz-adv-x="585" d="M168 753 L256 753 L190 443 Q239 537 366 537 Q434 537 473 500.5 Q512 464 512 401 Q512 384 509.5 358 Q507 332 502 311 L436 0 L348 0 L409 288 Q413 307 416 331.5 Q419 356 419 370 Q420 408 396.5 432 Q373 456 324 456 Q193 456 161 308 L96 0 L8 0 L168 753 Z M204 935 L300 935 L381 796 L308 796 L244 884 L140 796 L63 796 L204 935 Z " />
<glyph glyph-name="Hbar" unicode="&#x126;" horiz-adv-x="740" d="M69 586 L163 586 L187 700 L279 700 L255 586 L589 586 L613 700 L705 700 L681 586 L775 586 L759 514 L665 514 L556 0 L464 0 L531 317 L197 317 L130 0 L38 0 L147 514 L53 514 L69 586 Z M549 401 L573 514 L239 514 L215 401 L549 401 Z " />
<glyph glyph-name="hbar" unicode="&#x127;" horiz-adv-x="605" d="M155 599 L61 599 L76 667 L169 667 L188 753 L276 753 L257 667 L458 667 L443 599 L243 599 L210 443 Q259 537 386 537 Q455 537 494 501.5 Q533 466 533 403 Q533 386 530 359 Q527 332 522 311 L456 0 L368 0 L429 288 Q433 307 436.5 331.5 Q440 356 440 370 Q441 408 417 432 Q393 456 344 456 Q281 456 239 419 Q197 382 181 308 L116 0 L28 0 L155 599 Z " />
<glyph glyph-name="Imacron" unicode="&#x12a;" horiz-adv-x="330" d="M195 700 L287 700 L138 0 L46 0 L195 700 Z M135 865 L419 865 L404 795 L120 795 L135 865 Z " />
<glyph glyph-name="imacron" unicode="&#x12b;" horiz-adv-x="290" d="M140 526 L228 526 L116 0 L28 0 L140 526 Z M97 709 L355 709 L341 643 L83 643 L97 709 Z " />
<glyph glyph-name="Iogonek" unicode="&#x12e;" horiz-adv-x="330" d="M195 700 L287 700 L138 0 Q76 -26 48.5 -54.5 Q21 -83 21 -109 Q21 -121 29.5 -129.5 Q38 -138 55 -138 Q67 -138 82 -134.5 Q97 -131 112 -123 L100 -182 Q83 -190 66 -193 Q49 -196 24 -196 Q-18 -196 -39 -175 Q-60 -154 -60 -128 Q-60 -93 -30.5 -59 Q-1 -25 47 0 L46 0 L195 700 Z " />
<glyph glyph-name="iogonek" unicode="&#x12f;" horiz-adv-x="290" d="M140 526 L228 526 L116 2 L121 0 Q58 -28 29.5 -57.5 Q1 -87 1 -111 Q1 -124 9.5 -132 Q18 -140 35 -140 Q63 -140 94 -124 L83 -181 Q50 -196 3 -196 Q-39 -196 -59 -176 Q-79 -156 -79 -133 Q-79 -57 30 0 L28 0 L140 526 Z M206 632 Q183 632 171.5 643.5 Q160 655 160 675 Q160 704 176.5 722 Q193 740 229 740 Q252 740 264 728.5 Q276 717 276 698 Q276 667 259 649.5 Q242 632 206 632 Z " />
<glyph glyph-name="Idot" unicode="&#x130;" horiz-adv-x="330" d="M195 700 L287 700 L138 0 L46 0 L195 700 Z M259 784 Q235 784 223 795.5 Q211 807 211 826 Q211 858 229 877 Q247 896 282 896 Q305 896 317.5 884.5 Q330 873 330 853 Q330 822 311.5 803 Q293 784 259 784 Z " />
<glyph glyph-name="dotlessi" unicode="&#x131;" horiz-adv-x="290" d="M140 526 L228 526 L116 0 L28 0 L140 526 Z " />
<glyph glyph-name="Jcircumflex" unicode="&#x134;" horiz-adv-x="420" d="M68 -11 Q32 -11 3.5 -2.5 Q-25 6 -36 13 L-16 106 Q-4 97 21.5 86 Q47 75 79 75 Q124 75 148.5 99 Q173 123 186 183 L296 700 L389 700 L279 183 Q268 130 251 93 Q234 56 209 33 Q184 10 149 -0.5 Q114 -11 68 -11 Z M339 910 L439 910 L524 770 L450 770 L381 857 L274 770 L194 770 L339 910 Z " />
<glyph glyph-name="jcircumflex" unicode="&#x135;" horiz-adv-x="290" d="M-58 -186 Q-84 -186 -104 -179.5 Q-124 -173 -130 -169 L-112 -83 Q-102 -91 -87 -97.5 Q-72 -104 -55 -104 Q-39 -104 -27 -100.5 Q-15 -97 -5.5 -88 Q4 -79 11 -63.5 Q18 -48 23 -24 L140 526 L228 526 L110 -27 Q101 -71 86 -101.5 Q71 -132 50.5 -151 Q30 -170 3 -178 Q-24 -186 -58 -186 Z M186 756 L282 756 L363 617 L290 617 L226 705 L122 617 L45 617 L186 756 Z " />
<glyph glyph-name="uni0136" unicode="&#x136;" horiz-adv-x="655" d="M269 317 L187 317 L120 0 L28 0 L177 700 L269 700 L205 400 L274 400 L569 700 L686 700 L348 360 L557 0 L450 0 L269 317 Z M192 -173 Q215 -171 237.5 -163.5 Q260 -156 268 -136 Q230 -138 216 -128.5 Q202 -119 202 -102 Q202 -80 219 -64.5 Q236 -49 280 -49 Q309 -49 324.5 -62 Q340 -75 340 -96 Q340 -119 329.5 -140.5 Q319 -162 299.5 -179 Q280 -196 252 -207.5 Q224 -219 189 -221 L192 -173 Z " />
<glyph glyph-name="uni0137" unicode="&#x137;" horiz-adv-x="555" d="M168 753 L256 753 L163 313 L217 313 L429 526 L538 526 L285 275 L446 0 L347 0 L213 234 L146 234 L96 0 L8 0 L168 753 Z M130 -173 Q159 -171 178.5 -162.5 Q198 -154 205 -135 Q167 -137 153.5 -127 Q140 -117 140 -101 Q140 -80 156.5 -64.5 Q173 -49 214 -49 Q242 -49 256.5 -62.5 Q271 -76 271 -99 Q271 -118 262 -138.5 Q253 -159 235 -176 Q217 -193 190 -205.5 Q163 -218 127 -221 L130 -173 Z " />
<glyph glyph-name="Lacute" unicode="&#x139;" horiz-adv-x="530" d="M177 700 L269 700 L138 83 L445 83 L427 0 L28 0 L177 700 Z M310 910 L435 910 L272 770 L190 770 L310 910 Z " />
<glyph glyph-name="lacute" unicode="&#x13a;" horiz-adv-x="315" d="M131 -6 Q77 -6 52.5 23 Q28 52 28 88 Q28 98 30.5 121 Q33 144 41 179 L163 753 L252 753 L126 162 Q124 154 121.5 137.5 Q119 121 119 115 Q119 98 130 87.5 Q141 77 165 77 Q190 77 204.5 82 Q219 87 227 91 L209 7 Q201 4 179 -1 Q157 -6 131 -6 Z M294 903 L405 903 L259 782 L189 782 L294 903 Z " />
<glyph glyph-name="uni013B" unicode="&#x13b;" horiz-adv-x="530" d="M177 700 L269 700 L138 83 L445 83 L427 0 L28 0 L177 700 Z M127 -173 Q150 -171 172.5 -163.5 Q195 -156 203 -136 Q165 -138 151 -128.5 Q137 -119 137 -102 Q137 -80 154 -64.5 Q171 -49 215 -49 Q244 -49 259.5 -62 Q275 -75 275 -96 Q275 -119 264.5 -140.5 Q254 -162 234.5 -179 Q215 -196 187 -207.5 Q159 -219 124 -221 L127 -173 Z " />
<glyph glyph-name="uni013C" unicode="&#x13c;" horiz-adv-x="315" d="M131 -6 Q77 -6 52.5 23 Q28 52 28 88 Q28 98 30.5 121 Q33 144 41 179 L163 753 L252 753 L126 162 Q124 154 121.5 137.5 Q119 121 119 115 Q119 98 130 87.5 Q141 77 165 77 Q190 77 204.5 82 Q219 87 227 91 L209 7 Q201 4 179 -1 Q157 -6 131 -6 Z M13 -173 Q42 -171 61.5 -162.5 Q81 -154 88 -135 Q50 -137 36.5 -127 Q23 -117 23 -101 Q23 -80 39.5 -64.5 Q56 -49 97 -49 Q125 -49 139.5 -62.5 Q154 -76 154 -99 Q154 -118 145 -138.5 Q136 -159 118 -176 Q100 -193 73 -205.5 Q46 -218 10 -221 L13 -173 Z " />
<glyph glyph-name="Lcaron" unicode="&#x13d;" horiz-adv-x="530" d="M438 700 L530 700 L428 514 L362 514 L438 700 Z M177 700 L269 700 L138 83 L445 83 L427 0 L28 0 L177 700 Z " />
<glyph glyph-name="lcaron" unicode="&#x13e;" horiz-adv-x="375" d="M379 753 L464 753 L363 574 L304 574 L379 753 Z M131 -6 Q64 -6 40 26 Q16 58 30 126 L163 753 L252 753 L122 143 Q114 104 124 90.5 Q134 77 165 77 Q182 77 200.5 82 Q219 87 227 91 L209 9 Q201 6 179.5 0 Q158 -6 131 -6 Z " />
<glyph glyph-name="Ldot" unicode="&#x13f;" horiz-adv-x="530" d="M177 700 L269 700 L138 83 L445 83 L427 0 L28 0 L177 700 Z M406 316 Q353 316 353 365 Q353 401 374 422.5 Q395 444 433 444 Q456 444 470.5 431.5 Q485 419 485 396 Q485 360 464.5 338 Q444 316 406 316 Z " />
<glyph glyph-name="ldot" unicode="&#x140;" horiz-adv-x="415" d="M131 -6 Q77 -6 52.5 23 Q28 52 28 88 Q28 98 30.5 121 Q33 144 41 179 L163 753 L252 753 L126 162 Q124 154 121.5 137.5 Q119 121 119 115 Q119 98 130 87.5 Q141 77 165 77 Q190 77 204.5 82 Q219 87 227 91 L209 7 Q201 4 179 -1 Q157 -6 131 -6 Z M319 316 Q266 316 266 365 Q266 401 287 422.5 Q308 444 346 444 Q369 444 383.5 431.5 Q398 419 398 396 Q398 360 377.5 338 Q357 316 319 316 Z " />
<glyph glyph-name="Lslash" unicode="&#x141;" horiz-adv-x="540" d="M16 344 L122 398 L187 700 L279 700 L225 451 L387 535 L370 449 L208 365 L147 83 L454 83 L437 0 L38 0 L104 312 L-1 258 L16 344 Z " />
<glyph glyph-name="lslash" unicode="&#x142;" horiz-adv-x="370" d="M27 371 L133 425 L203 753 L292 753 L233 477 L348 537 L331 455 L216 395 L215 395 L166 162 Q164 154 161.5 137.5 Q159 121 159 115 Q159 98 170 87.5 Q181 77 205 77 Q230 77 244.5 82 Q259 87 267 91 L249 7 Q241 4 219 -1 Q197 -6 171 -6 Q117 -6 92.5 23 Q68 52 68 88 Q68 98 70.5 121 Q73 144 81 179 L116 343 L10 289 L27 371 Z " />
<glyph glyph-name="Nacute" unicode="&#x143;" horiz-adv-x="740" d="M177 700 L271 700 L468 240 Q481 210 490.5 179 Q500 148 504 134 L506 134 Q508 148 513.5 179 Q519 210 525 240 L623 700 L715 700 L566 0 L472 0 L276 460 Q262 495 252.5 524 Q243 553 240 566 L238 566 Q236 552 231.5 523.5 Q227 495 219 460 L120 0 L28 0 L177 700 Z M529 910 L654 910 L491 770 L409 770 L529 910 Z " />
<glyph glyph-name="nacute" unicode="&#x144;" horiz-adv-x="585" d="M120 526 L202 526 L189 437 Q216 485 258 511 Q300 537 363 537 Q435 537 473.5 500.5 Q512 464 512 404 Q512 391 510 373.5 Q508 356 505.5 337.5 Q503 319 500 302.5 Q497 286 495 276 L436 0 L348 0 L407 279 Q412 299 415.5 325.5 Q419 352 419 373 Q419 409 394 432.5 Q369 456 322 456 Q259 456 218 419 Q177 382 162 310 L96 0 L8 0 L120 526 Z M419 756 L537 756 L382 617 L307 617 L419 756 Z " />
<glyph glyph-name="uni0145" unicode="&#x145;" horiz-adv-x="740" d="M177 700 L271 700 L468 240 Q481 210 490.5 179 Q500 148 504 134 L506 134 Q508 148 513.5 179 Q519 210 525 240 L623 700 L715 700 L566 0 L472 0 L276 460 Q262 495 252.5 524 Q243 553 240 566 L238 566 Q236 552 231.5 523.5 Q227 495 219 460 L120 0 L28 0 L177 700 Z M197 -173 Q220 -171 242.5 -163.5 Q265 -156 273 -136 Q235 -138 221 -128.5 Q207 -119 207 -102 Q207 -80 224 -64.5 Q241 -49 285 -49 Q314 -49 329.5 -62 Q345 -75 345 -96 Q345 -119 334.5 -140.5 Q324 -162 304.5 -179 Q285 -196 257 -207.5 Q229 -219 194 -221 L197 -173 Z " />
<glyph glyph-name="uni0146" unicode="&#x146;" horiz-adv-x="585" d="M120 526 L202 526 L189 437 Q216 485 258 511 Q300 537 363 537 Q435 537 473.5 500.5 Q512 464 512 404 Q512 391 510 373.5 Q508 356 505.5 337.5 Q503 319 500 302.5 Q497 286 495 276 L436 0 L348 0 L407 279 Q412 299 415.5 325.5 Q419 352 419 373 Q419 409 394 432.5 Q369 456 322 456 Q259 456 218 419 Q177 382 162 310 L96 0 L8 0 L120 526 Z M125 -173 Q154 -171 173.5 -162.5 Q193 -154 200 -135 Q162 -137 148.5 -127 Q135 -117 135 -101 Q135 -80 151.5 -64.5 Q168 -49 209 -49 Q237 -49 251.5 -62.5 Q266 -76 266 -99 Q266 -118 257 -138.5 Q248 -159 230 -176 Q212 -193 185 -205.5 Q158 -218 122 -221 L125 -173 Z " />
<glyph glyph-name="Ncaron" unicode="&#x147;" horiz-adv-x="740" d="M177 700 L271 700 L468 240 Q481 210 490.5 179 Q500 148 504 134 L506 134 Q508 148 513.5 179 Q519 210 525 240 L623 700 L715 700 L566 0 L472 0 L276 460 Q262 495 252.5 524 Q243 553 240 566 L238 566 Q236 552 231.5 523.5 Q227 495 219 460 L120 0 L28 0 L177 700 Z M325 910 L399 910 L469 823 L575 910 L655 910 L510 770 L410 770 L325 910 Z " />
<glyph glyph-name="ncaron" unicode="&#x148;" horiz-adv-x="585" d="M120 526 L202 526 L189 437 Q216 485 258 511 Q300 537 363 537 Q435 537 473.5 500.5 Q512 464 512 404 Q512 391 510 373.5 Q508 356 505.5 337.5 Q503 319 500 302.5 Q497 286 495 276 L436 0 L348 0 L407 279 Q412 299 415.5 325.5 Q419 352 419 373 Q419 409 394 432.5 Q369 456 322 456 Q259 456 218 419 Q177 382 162 310 L96 0 L8 0 L120 526 Z M224 756 L297 756 L361 667 L465 756 L542 756 L401 617 L305 617 L224 756 Z " />
<glyph glyph-name="Omacron" unicode="&#x14c;" horiz-adv-x="710" d="M279 -11 Q231 -11 187.5 4.5 Q144 20 111 52.5 Q78 85 58 134 Q38 183 38 249 Q38 311 48.5 370.5 Q59 430 79 482 Q99 534 128 576 Q157 618 194 645 Q244 682 300.5 696.5 Q357 711 426 711 Q542 711 609.5 648 Q677 585 677 458 Q677 317 634 209.5 Q591 102 511 47 Q463 14 408.5 1.5 Q354 -11 279 -11 Z M304 73 Q347 73 392 85 Q437 97 473 131 Q523 178 550.5 259 Q578 340 578 438 Q578 537 532 582 Q486 627 405 627 Q358 627 317 615 Q276 603 241 569 Q217 545 197.5 511 Q178 477 164.5 436.5 Q151 396 143.5 350.5 Q136 305 136 258 Q136 209 149.5 174 Q163 139 186 116.5 Q209 94 239.5 83.5 Q270 73 304 73 Z M324 865 L608 865 L593 795 L309 795 L324 865 Z " />
<glyph glyph-name="omacron" unicode="&#x14d;" horiz-adv-x="570" d="M212 -11 Q174 -11 139.5 0.5 Q105 12 79.5 35.5 Q54 59 39 95 Q24 131 24 180 Q24 223 31 266 Q38 309 51.5 348 Q65 387 85.5 420 Q106 453 133 477 Q171 510 215 523.5 Q259 537 320 537 Q360 537 395.5 526 Q431 515 457 492.5 Q483 470 498 434 Q513 398 513 349 Q513 250 480 168.5 Q447 87 390 42 Q354 13 312.5 1 Q271 -11 212 -11 Z M228 70 Q272 70 301.5 81 Q331 92 355 119 Q370 137 382.5 162.5 Q395 188 403.5 217 Q412 246 416.5 276 Q421 306 421 333 Q421 367 412.5 390.5 Q404 414 388.5 428.5 Q373 443 352 449.5 Q331 456 306 456 Q268 456 240 447 Q212 438 188 414 Q171 397 157.5 372.5 Q144 348 135 319 Q126 290 121 257.5 Q116 225 116 193 Q116 159 124.5 135.5 Q133 112 148 97.5 Q163 83 183.5 76.5 Q204 70 228 70 Z M236 709 L494 709 L480 643 L222 643 L236 709 Z " />
<glyph glyph-name="Ohungarumlaut" unicode="&#x150;" horiz-adv-x="710" d="M279 -11 Q231 -11 187.5 4.5 Q144 20 111 52.5 Q78 85 58 134 Q38 183 38 249 Q38 311 48.5 370.5 Q59 430 79 482 Q99 534 128 576 Q157 618 194 645 Q244 682 300.5 696.5 Q357 711 426 711 Q542 711 609.5 648 Q677 585 677 458 Q677 317 634 209.5 Q591 102 511 47 Q463 14 408.5 1.5 Q354 -11 279 -11 Z M304 73 Q347 73 392 85 Q437 97 473 131 Q523 178 550.5 259 Q578 340 578 438 Q578 537 532 582 Q486 627 405 627 Q358 627 317 615 Q276 603 241 569 Q217 545 197.5 511 Q178 477 164.5 436.5 Q151 396 143.5 350.5 Q136 305 136 258 Q136 209 149.5 174 Q163 139 186 116.5 Q209 94 239.5 83.5 Q270 73 304 73 Z M414 910 L518 910 L395 770 L325 770 L414 910 Z M604 910 L723 910 L549 770 L471 770 L604 910 Z " />
<glyph glyph-name="ohungarumlaut" unicode="&#x151;" horiz-adv-x="570" d="M212 -11 Q174 -11 139.5 0.5 Q105 12 79.5 35.5 Q54 59 39 95 Q24 131 24 180 Q24 223 31 266 Q38 309 51.5 348 Q65 387 85.5 420 Q106 453 133 477 Q171 510 215 523.5 Q259 537 320 537 Q360 537 395.5 526 Q431 515 457 492.5 Q483 470 498 434 Q513 398 513 349 Q513 250 480 168.5 Q447 87 390 42 Q354 13 312.5 1 Q271 -11 212 -11 Z M228 70 Q272 70 301.5 81 Q331 92 355 119 Q370 137 382.5 162.5 Q395 188 403.5 217 Q412 246 416.5 276 Q421 306 421 333 Q421 367 412.5 390.5 Q404 414 388.5 428.5 Q373 443 352 449.5 Q331 456 306 456 Q268 456 240 447 Q212 438 188 414 Q171 397 157.5 372.5 Q144 348 135 319 Q126 290 121 257.5 Q116 225 116 193 Q116 159 124.5 135.5 Q133 112 148 97.5 Q163 83 183.5 76.5 Q204 70 228 70 Z M306 756 L410 756 L297 617 L227 617 L306 756 Z M487 756 L605 756 L441 617 L364 617 L487 756 Z " />
<glyph glyph-name="OE" unicode="&#x152;" horiz-adv-x="935" d="M290 -11 Q228 -11 181.5 8.5 Q135 28 103.5 61.5 Q72 95 56.5 140.5 Q41 186 41 238 Q41 343 64 428.5 Q87 514 132 574 Q184 644 255 677.5 Q326 711 433 711 Q471 711 502 707.5 Q533 704 553 700 L955 700 L938 617 L614 617 L567 399 L851 399 L834 318 L550 318 L500 83 L824 83 L807 0 L412 0 Q389 -4 360 -7.5 Q331 -11 290 -11 Z M317 75 Q347 75 366 77 Q385 79 408 82 L522 616 Q502 620 475.5 622.5 Q449 625 417 625 Q343 625 297 603 Q251 581 217 535 Q199 511 185 479 Q171 447 161 410.5 Q151 374 145.5 335 Q140 296 140 258 Q140 162 185.5 118.5 Q231 75 317 75 Z " />
<glyph glyph-name="oe" unicode="&#x153;" horiz-adv-x="920" d="M615 -11 Q542 -11 489 14 Q436 39 417 91 Q382 35 332 12 Q282 -11 217 -11 Q176 -11 140 0.5 Q104 12 78 35.5 Q52 59 37 95 Q22 131 22 180 Q22 261 41 327 Q60 393 96.5 439.5 Q133 486 186 511.5 Q239 537 307 537 Q375 537 423.5 513 Q472 489 487 436 Q555 537 692 537 Q725 537 757 527.5 Q789 518 813.5 498.5 Q838 479 853 449.5 Q868 420 868 379 Q868 336 856 281 L847 240 L492 240 Q489 227 487.5 212 Q486 197 486 184 Q486 124 522.5 95.5 Q559 67 627 67 Q675 67 717 80.5 Q759 94 791 117 L771 25 Q747 10 710.5 -0.5 Q674 -11 615 -11 Z M224 70 Q267 70 297 82 Q327 94 350 118 Q367 136 380 160.5 Q393 185 401.5 213.5 Q410 242 414.5 272.5 Q419 303 419 333 Q419 396 389.5 426 Q360 456 306 456 Q266 456 236.5 446 Q207 436 182 409 Q152 376 133 319.5 Q114 263 114 193 Q114 159 122.5 135.5 Q131 112 146 97.5 Q161 83 181 76.5 Q201 70 224 70 Z M678 462 Q612 462 568 423.5 Q524 385 506 304 L773 304 Q781 341 781 366 Q781 414 755.5 438 Q730 462 678 462 Z " />
<glyph glyph-name="Racute" unicode="&#x154;" horiz-adv-x="640" d="M317 269 Q307 268 296.5 268 Q286 268 275 268 L177 268 L120 0 L28 0 L176 695 Q197 698 249 702 Q301 706 365 706 Q425 706 466.5 693.5 Q508 681 534 657.5 Q560 634 571.5 601.5 Q583 569 583 529 Q583 437 542.5 372.5 Q502 308 407 285 L516 0 L416 0 L317 269 Z M484 516 Q484 567 453 593 Q422 619 350 619 Q320 619 291.5 618.5 Q263 618 250 616 L194 352 L291 352 Q345 352 382 362.5 Q419 373 441.5 394 Q464 415 474 445.5 Q484 476 484 516 Z M463 910 L588 910 L425 770 L343 770 L463 910 Z " />
<glyph glyph-name="racute" unicode="&#x155;" horiz-adv-x="410" d="M120 526 L197 526 L184 436 Q213 496 253.5 516.5 Q294 537 345 537 Q362 537 376.5 533 Q391 529 399 524 L378 429 Q367 439 347.5 447.5 Q328 456 305 456 Q251 456 214.5 420.5 Q178 385 161 304 L96 0 L8 0 L120 526 Z M344 756 L462 756 L307 617 L232 617 L344 756 Z " />
<glyph glyph-name="uni0156" unicode="&#x156;" horiz-adv-x="640" d="M317 269 Q307 268 296.5 268 Q286 268 275 268 L177 268 L120 0 L28 0 L176 695 Q197 698 249 702 Q301 706 365 706 Q425 706 466.5 693.5 Q508 681 534 657.5 Q560 634 571.5 601.5 Q583 569 583 529 Q583 437 542.5 372.5 Q502 308 407 285 L516 0 L416 0 L317 269 Z M484 516 Q484 567 453 593 Q422 619 350 619 Q320 619 291.5 618.5 Q263 618 250 616 L194 352 L291 352 Q345 352 382 362.5 Q419 373 441.5 394 Q464 415 474 445.5 Q484 476 484 516 Z M172 -173 Q195 -171 217.5 -163.5 Q240 -156 248 -136 Q210 -138 196 -128.5 Q182 -119 182 -102 Q182 -80 199 -64.5 Q216 -49 260 -49 Q289 -49 304.5 -62 Q320 -75 320 -96 Q320 -119 309.5 -140.5 Q299 -162 279.5 -179 Q260 -196 232 -207.5 Q204 -219 169 -221 L172 -173 Z " />
<glyph glyph-name="uni0157" unicode="&#x157;" horiz-adv-x="410" d="M120 526 L197 526 L184 436 Q213 496 253.5 516.5 Q294 537 345 537 Q362 537 376.5 533 Q391 529 399 524 L378 429 Q367 439 347.5 447.5 Q328 456 305 456 Q251 456 214.5 420.5 Q178 385 161 304 L96 0 L8 0 L120 526 Z M-45 -173 Q-16 -171 3.5 -162.5 Q23 -154 30 -135 Q-8 -137 -21.5 -127 Q-35 -117 -35 -101 Q-35 -80 -18.5 -64.5 Q-2 -49 39 -49 Q67 -49 81.5 -62.5 Q96 -76 96 -99 Q96 -118 87 -138.5 Q78 -159 60 -176 Q42 -193 15 -205.5 Q-12 -218 -48 -221 L-45 -173 Z " />
<glyph glyph-name="Rcaron" unicode="&#x158;" horiz-adv-x="640" d="M317 269 Q307 268 296.5 268 Q286 268 275 268 L177 268 L120 0 L28 0 L176 695 Q197 698 249 702 Q301 706 365 706 Q425 706 466.5 693.5 Q508 681 534 657.5 Q560 634 571.5 601.5 Q583 569 583 529 Q583 437 542.5 372.5 Q502 308 407 285 L516 0 L416 0 L317 269 Z M484 516 Q484 567 453 593 Q422 619 350 619 Q320 619 291.5 618.5 Q263 618 250 616 L194 352 L291 352 Q345 352 382 362.5 Q419 373 441.5 394 Q464 415 474 445.5 Q484 476 484 516 Z M258 910 L332 910 L402 823 L508 910 L588 910 L443 770 L343 770 L258 910 Z " />
<glyph glyph-name="rcaron" unicode="&#x159;" horiz-adv-x="410" d="M120 526 L197 526 L184 436 Q213 496 253.5 516.5 Q294 537 345 537 Q362 537 376.5 533 Q391 529 399 524 L378 429 Q367 439 347.5 447.5 Q328 456 305 456 Q251 456 214.5 420.5 Q178 385 161 304 L96 0 L8 0 L120 526 Z M149 756 L222 756 L286 667 L390 756 L467 756 L326 617 L230 617 L149 756 Z " />
<glyph glyph-name="Sacute" unicode="&#x15a;" horiz-adv-x="580" d="M217 -11 Q185 -11 154.5 -6 Q124 -1 97.5 7.5 Q71 16 49.5 26.5 Q28 37 15 48 L38 150 Q50 137 69 124 Q88 111 112.5 100 Q137 89 166.5 82 Q196 75 229 75 Q276 75 306.5 84.5 Q337 94 355 111 Q373 128 380.5 151.5 Q388 175 388 203 Q388 239 367.5 262 Q347 285 316.5 302 Q286 319 250 334 Q214 349 183.5 369 Q153 389 132.5 418 Q112 447 112 492 Q112 537 126 577 Q140 617 170 647 Q200 677 248.5 694 Q297 711 366 711 Q421 711 472.5 698 Q524 685 554 666 L532 564 Q495 597 451.5 611 Q408 625 359 625 Q312 625 283 614.5 Q254 604 238 587.5 Q222 571 216.5 550 Q211 529 211 508 Q211 474 231.5 453 Q252 432 282.5 415.5 Q313 399 349 384 Q385 369 415.5 348 Q446 327 466.5 296.5 Q487 266 487 218 Q487 170 472.5 128 Q458 86 425.5 55.5 Q393 25 341.5 7 Q290 -11 217 -11 Z M454 910 L579 910 L416 770 L334 770 L454 910 Z " />
<glyph glyph-name="sacute" unicode="&#x15b;" horiz-adv-x="475" d="M155 -11 Q110 -11 70 -0.5 Q30 10 2 26 L23 120 Q46 98 84.5 82.5 Q123 67 169 67 Q202 67 224 74 Q246 81 259 93 Q272 105 277.5 121 Q283 137 283 155 Q283 181 267 197 Q251 213 227.5 224.5 Q204 236 176.5 246 Q149 256 125.5 270.5 Q102 285 86 306.5 Q70 328 70 363 Q70 403 81.5 435 Q93 467 118 489.5 Q143 512 181.5 524.5 Q220 537 274 537 Q294 537 316 534 Q338 531 358 526.5 Q378 522 395.5 515 Q413 508 424 501 L405 410 Q379 433 340 446 Q301 459 262 459 Q206 459 185 437 Q164 415 164 383 Q164 357 180 342 Q196 327 219.5 316 Q243 305 270.5 295.5 Q298 286 321.5 272 Q345 258 361 235.5 Q377 213 377 177 Q377 139 366 105 Q355 71 329.5 45 Q304 19 261.5 4 Q219 -11 155 -11 Z M364 756 L482 756 L327 617 L252 617 L364 756 Z " />
<glyph glyph-name="Scircumflex" unicode="&#x15c;" horiz-adv-x="580" d="M217 -11 Q185 -11 154.5 -6 Q124 -1 97.5 7.5 Q71 16 49.5 26.5 Q28 37 15 48 L38 150 Q50 137 69 124 Q88 111 112.5 100 Q137 89 166.5 82 Q196 75 229 75 Q276 75 306.5 84.5 Q337 94 355 111 Q373 128 380.5 151.5 Q388 175 388 203 Q388 239 367.5 262 Q347 285 316.5 302 Q286 319 250 334 Q214 349 183.5 369 Q153 389 132.5 418 Q112 447 112 492 Q112 537 126 577 Q140 617 170 647 Q200 677 248.5 694 Q297 711 366 711 Q421 711 472.5 698 Q524 685 554 666 L532 564 Q495 597 451.5 611 Q408 625 359 625 Q312 625 283 614.5 Q254 604 238 587.5 Q222 571 216.5 550 Q211 529 211 508 Q211 474 231.5 453 Q252 432 282.5 415.5 Q313 399 349 384 Q385 369 415.5 348 Q446 327 466.5 296.5 Q487 266 487 218 Q487 170 472.5 128 Q458 86 425.5 55.5 Q393 25 341.5 7 Q290 -11 217 -11 Z M366 910 L466 910 L551 770 L477 770 L408 857 L301 770 L221 770 L366 910 Z " />
<glyph glyph-name="scircumflex" unicode="&#x15d;" horiz-adv-x="475" d="M155 -11 Q110 -11 70 -0.5 Q30 10 2 26 L23 120 Q46 98 84.5 82.5 Q123 67 169 67 Q202 67 224 74 Q246 81 259 93 Q272 105 277.5 121 Q283 137 283 155 Q283 181 267 197 Q251 213 227.5 224.5 Q204 236 176.5 246 Q149 256 125.5 270.5 Q102 285 86 306.5 Q70 328 70 363 Q70 403 81.5 435 Q93 467 118 489.5 Q143 512 181.5 524.5 Q220 537 274 537 Q294 537 316 534 Q338 531 358 526.5 Q378 522 395.5 515 Q413 508 424 501 L405 410 Q379 433 340 446 Q301 459 262 459 Q206 459 185 437 Q164 415 164 383 Q164 357 180 342 Q196 327 219.5 316 Q243 305 270.5 295.5 Q298 286 321.5 272 Q345 258 361 235.5 Q377 213 377 177 Q377 139 366 105 Q355 71 329.5 45 Q304 19 261.5 4 Q219 -11 155 -11 Z M280 756 L376 756 L457 617 L384 617 L320 705 L216 617 L139 617 L280 756 Z " />
<glyph glyph-name="Scedilla" unicode="&#x15e;" horiz-adv-x="580" d="M166 -217 Q142 -217 125.5 -213 Q109 -209 95 -202 L114 -151 Q128 -157 140 -160 Q152 -163 169 -163 Q207 -163 219.5 -150 Q232 -137 232 -117 Q232 -103 220.5 -94.5 Q209 -86 182 -86 Q172 -86 164.5 -86.5 Q157 -87 151 -88 L182 -9 Q128 -4 83 12.5 Q38 29 15 48 L38 150 Q50 137 69 124 Q88 111 112.5 100 Q137 89 166.5 82 Q196 75 229 75 Q276 75 306.5 84.5 Q337 94 355 111 Q373 128 380.5 151.5 Q388 175 388 203 Q388 239 367.5 262 Q347 285 316.5 302 Q286 319 250 334 Q214 349 183.5 369 Q153 389 132.5 418 Q112 447 112 492 Q112 537 126 577 Q140 617 170 647 Q200 677 248.5 694 Q297 711 366 711 Q421 711 472.5 698 Q524 685 554 666 L532 564 Q495 597 451.5 611 Q408 625 359 625 Q312 625 283 614.5 Q254 604 238 587.5 Q222 571 216.5 550 Q211 529 211 508 Q211 474 231.5 453 Q252 432 282.5 415.5 Q313 399 349 384 Q385 369 415.5 348 Q446 327 466.5 296.5 Q487 266 487 218 Q487 171 473 130.5 Q459 90 429 59 Q399 28 351 9.5 Q303 -9 234 -11 L221 -44 Q259 -43 282.5 -60 Q306 -77 306 -109 Q306 -157 270.5 -187 Q235 -217 166 -217 Z " />
<glyph glyph-name="scedilla" unicode="&#x15f;" horiz-adv-x="475" d="M117 -217 Q67 -217 44 -202 L61 -153 Q75 -159 88 -162 Q101 -165 119 -165 Q151 -165 165 -152.5 Q179 -140 179 -118 Q179 -103 168 -93.5 Q157 -84 132 -84 Q124 -84 115 -84.5 Q106 -85 100 -86 L130 -10 Q92 -7 59 2.5 Q26 12 2 26 L23 120 Q46 98 84.5 82.5 Q123 67 169 67 Q202 67 224 74 Q246 81 259 93 Q272 105 277.5 121 Q283 137 283 155 Q283 181 267 197 Q251 213 227.5 224.5 Q204 236 176.5 246 Q149 256 125.5 270.5 Q102 285 86 306.5 Q70 328 70 363 Q70 403 81.5 435 Q93 467 118 489.5 Q143 512 181.5 524.5 Q220 537 274 537 Q294 537 316 534 Q338 531 358 526.5 Q378 522 395.5 515 Q413 508 424 501 L405 410 Q379 433 340 446 Q301 459 262 459 Q206 459 185 437 Q164 415 164 383 Q164 357 180 342 Q196 327 219.5 316 Q243 305 270.5 295.5 Q298 286 321.5 272 Q345 258 361 235.5 Q377 213 377 177 Q377 141 367.5 109 Q358 77 335.5 51.5 Q313 26 275.5 9.5 Q238 -7 183 -10 L169 -44 Q209 -44 230 -61.5 Q251 -79 251 -110 Q251 -158 216 -187.5 Q181 -217 117 -217 Z " />
<glyph glyph-name="Scaron" unicode="&#x160;" horiz-adv-x="580" d="M217 -11 Q185 -11 154.5 -6 Q124 -1 97.5 7.5 Q71 16 49.5 26.5 Q28 37 15 48 L38 150 Q50 137 69 124 Q88 111 112.5 100 Q137 89 166.5 82 Q196 75 229 75 Q276 75 306.5 84.5 Q337 94 355 111 Q373 128 380.5 151.5 Q388 175 388 203 Q388 239 367.5 262 Q347 285 316.5 302 Q286 319 250 334 Q214 349 183.5 369 Q153 389 132.5 418 Q112 447 112 492 Q112 537 126 577 Q140 617 170 647 Q200 677 248.5 694 Q297 711 366 711 Q421 711 472.5 698 Q524 685 554 666 L532 564 Q495 597 451.5 611 Q408 625 359 625 Q312 625 283 614.5 Q254 604 238 587.5 Q222 571 216.5 550 Q211 529 211 508 Q211 474 231.5 453 Q252 432 282.5 415.5 Q313 399 349 384 Q385 369 415.5 348 Q446 327 466.5 296.5 Q487 266 487 218 Q487 170 472.5 128 Q458 86 425.5 55.5 Q393 25 341.5 7 Q290 -11 217 -11 Z M250 910 L324 910 L394 823 L500 910 L580 910 L435 770 L335 770 L250 910 Z " />
<glyph glyph-name="scaron" unicode="&#x161;" horiz-adv-x="475" d="M155 -11 Q110 -11 70 -0.5 Q30 10 2 26 L23 120 Q46 98 84.5 82.5 Q123 67 169 67 Q202 67 224 74 Q246 81 259 93 Q272 105 277.5 121 Q283 137 283 155 Q283 181 267 197 Q251 213 227.5 224.5 Q204 236 176.5 246 Q149 256 125.5 270.5 Q102 285 86 306.5 Q70 328 70 363 Q70 403 81.5 435 Q93 467 118 489.5 Q143 512 181.5 524.5 Q220 537 274 537 Q294 537 316 534 Q338 531 358 526.5 Q378 522 395.5 515 Q413 508 424 501 L405 410 Q379 433 340 446 Q301 459 262 459 Q206 459 185 437 Q164 415 164 383 Q164 357 180 342 Q196 327 219.5 316 Q243 305 270.5 295.5 Q298 286 321.5 272 Q345 258 361 235.5 Q377 213 377 177 Q377 139 366 105 Q355 71 329.5 45 Q304 19 261.5 4 Q219 -11 155 -11 Z M169 756 L242 756 L306 667 L410 756 L487 756 L346 617 L250 617 L169 756 Z " />
<glyph glyph-name="uni0162" unicode="&#x162;" horiz-adv-x="580" d="M302 617 L93 617 L111 700 L621 700 L603 617 L394 617 L263 0 L245 0 L228 -44 Q266 -43 289.5 -60 Q313 -77 313 -109 Q313 -157 277.5 -187 Q242 -217 173 -217 Q149 -217 129.5 -213 Q110 -209 96 -202 L115 -151 Q142 -163 175 -163 Q213 -163 226 -150 Q239 -137 239 -117 Q239 -103 227.5 -94.5 Q216 -86 189 -86 Q179 -86 170 -86.5 Q161 -87 155 -88 L190 0 L171 0 L302 617 Z " />
<glyph glyph-name="uni0163" unicode="&#x163;" horiz-adv-x="435" d="M136 -217 Q86 -217 63 -202 L80 -153 Q94 -159 107 -162 Q120 -165 138 -165 Q170 -165 184 -152.5 Q198 -140 198 -118 Q198 -103 187 -93.5 Q176 -84 151 -84 Q143 -84 134 -84.5 Q125 -85 119 -86 L154 2 Q122 14 104.5 40.5 Q87 67 87 104 Q87 115 88.5 130.5 Q90 146 92 161.5 Q94 177 96.5 191 Q99 205 101 214 L151 447 L57 447 L74 526 L168 526 L190 631 L284 661 L256 526 L424 526 L407 447 L239 447 L191 220 Q190 214 187.5 203 Q185 192 183 179 Q181 166 179 152 Q177 138 177 126 Q177 101 192 88.5 Q207 76 233 76 Q264 76 289 85 Q314 94 335 107 L315 17 Q298 7 270.5 0.5 Q243 -6 208 -6 L203 -6 L188 -44 Q228 -44 249 -61.5 Q270 -79 270 -110 Q270 -158 235 -187.5 Q200 -217 136 -217 Z " />
<glyph glyph-name="Tcaron" unicode="&#x164;" horiz-adv-x="580" d="M302 617 L93 617 L111 700 L621 700 L603 617 L394 617 L263 0 L171 0 L302 617 Z M245 910 L319 910 L389 823 L495 910 L575 910 L430 770 L330 770 L245 910 Z " />
<glyph glyph-name="tcaron" unicode="&#x165;" horiz-adv-x="435" d="M426 786 L511 786 L410 607 L352 607 L426 786 Z M203 -6 Q125 -6 98 32 Q71 70 89 156 L151 447 L57 447 L74 526 L168 526 L190 631 L284 661 L256 526 L424 526 L407 447 L239 447 L179 163 Q168 115 181 95.5 Q194 76 233 76 Q264 76 289 85 Q314 94 335 107 L316 19 Q299 9 268.5 1.5 Q238 -6 203 -6 Z " />
<glyph glyph-name="Umacron" unicode="&#x16a;" horiz-adv-x="670" d="M259 -11 Q160 -11 108.5 43 Q57 97 57 185 Q57 203 60 228 Q63 253 67.5 279 Q72 305 77 329 Q82 353 85 369 L155 700 L249 700 L167 316 Q159 278 155 245.5 Q151 213 151 194 Q151 139 181 107 Q211 75 277 75 Q321 75 354 83.5 Q387 92 411 114 Q435 136 452 175 Q469 214 482 274 L573 700 L665 700 L574 270 Q557 190 530 136 Q503 82 464.5 49.5 Q426 17 375 3 Q324 -11 259 -11 Z M304 865 L588 865 L573 795 L289 795 L304 865 Z " />
<glyph glyph-name="umacron" unicode="&#x16b;" horiz-adv-x="580" d="M186 -11 Q152 -11 125 -0.5 Q98 10 79.5 29 Q61 48 51.5 72.5 Q42 97 42 126 Q42 152 46 187 Q50 222 58 259 L115 526 L203 526 L143 243 Q141 233 138.5 221 Q136 209 134.5 197 Q133 185 132 175 Q131 165 131 158 Q130 116 152.5 93 Q175 70 222 70 Q284 70 326 106 Q368 142 384 216 L450 526 L538 526 L426 0 L344 0 L357 85 Q328 37 288.5 13 Q249 -11 186 -11 Z M238 709 L496 709 L482 643 L224 643 L238 709 Z " />
<glyph glyph-name="Ubreve" unicode="&#x16c;" horiz-adv-x="670" d="M259 -11 Q160 -11 108.5 43 Q57 97 57 185 Q57 203 60 228 Q63 253 67.5 279 Q72 305 77 329 Q82 353 85 369 L155 700 L249 700 L167 316 Q159 278 155 245.5 Q151 213 151 194 Q151 139 181 107 Q211 75 277 75 Q321 75 354 83.5 Q387 92 411 114 Q435 136 452 175 Q469 214 482 274 L573 700 L665 700 L574 270 Q557 190 530 136 Q503 82 464.5 49.5 Q426 17 375 3 Q324 -11 259 -11 Z M425 769 Q367 769 330.5 800.5 Q294 832 293 894 L357 911 Q359 873 377.5 854.5 Q396 836 438 836 Q480 836 507 854.5 Q534 873 552 911 L611 894 Q585 832 537 800.5 Q489 769 425 769 Z " />
<glyph glyph-name="ubreve" unicode="&#x16d;" horiz-adv-x="580" d="M186 -11 Q152 -11 125 -0.5 Q98 10 79.5 29 Q61 48 51.5 72.5 Q42 97 42 126 Q42 152 46 187 Q50 222 58 259 L115 526 L203 526 L143 243 Q141 233 138.5 221 Q136 209 134.5 197 Q133 185 132 175 Q131 165 131 158 Q130 116 152.5 93 Q175 70 222 70 Q284 70 326 106 Q368 142 384 216 L450 526 L538 526 L426 0 L344 0 L357 85 Q328 37 288.5 13 Q249 -11 186 -11 Z M345 615 Q288 615 252 647 Q216 679 218 741 L279 757 Q281 680 357 680 Q434 680 469 757 L526 741 Q500 678 453 646.5 Q406 615 345 615 Z " />
<glyph glyph-name="Uring" unicode="&#x16e;" horiz-adv-x="670" d="M259 -11 Q160 -11 108.5 43 Q57 97 57 185 Q57 203 60 228 Q63 253 67.5 279 Q72 305 77 329 Q82 353 85 369 L155 700 L249 700 L167 316 Q159 278 155 245.5 Q151 213 151 194 Q151 139 181 107 Q211 75 277 75 Q321 75 354 83.5 Q387 92 411 114 Q435 136 452 175 Q469 214 482 274 L573 700 L665 700 L574 270 Q557 190 530 136 Q503 82 464.5 49.5 Q426 17 375 3 Q324 -11 259 -11 Z M338 823 Q338 848 347.5 869 Q357 890 373.5 905.5 Q390 921 412 930 Q434 939 459 939 Q497 939 520 915 Q543 891 543 856 Q543 831 533.5 810 Q524 789 507.5 773.5 Q491 758 468.5 749.5 Q446 741 421 741 Q383 741 360.5 764.5 Q338 788 338 823 Z M389 831 Q389 813 400 801.5 Q411 790 431 790 Q457 790 474.5 806.5 Q492 823 492 850 Q492 868 480.5 879 Q469 890 450 890 Q424 890 406.5 874 Q389 858 389 831 Z " />
<glyph glyph-name="uring" unicode="&#x16f;" horiz-adv-x="580" d="M186 -11 Q152 -11 125 -0.5 Q98 10 79.5 29 Q61 48 51.5 72.5 Q42 97 42 126 Q42 152 46 187 Q50 222 58 259 L115 526 L203 526 L143 243 Q141 233 138.5 221 Q136 209 134.5 197 Q133 185 132 175 Q131 165 131 158 Q130 116 152.5 93 Q175 70 222 70 Q284 70 326 106 Q368 142 384 216 L450 526 L538 526 L426 0 L344 0 L357 85 Q328 37 288.5 13 Q249 -11 186 -11 Z M260 667 Q260 717 293 750 Q326 783 378 783 Q415 783 438.5 761.5 Q462 740 462 705 Q462 655 429 622 Q396 589 344 589 Q307 589 283.5 610.5 Q260 632 260 667 Z M311 675 Q311 658 323 648 Q335 638 355 638 Q381 638 395.5 654 Q410 670 410 696 Q410 713 398 723.5 Q386 734 368 734 Q342 734 326.5 717.5 Q311 701 311 675 Z " />
<glyph glyph-name="Uhungarumlaut" unicode="&#x170;" horiz-adv-x="670" d="M259 -11 Q160 -11 108.5 43 Q57 97 57 185 Q57 203 60 228 Q63 253 67.5 279 Q72 305 77 329 Q82 353 85 369 L155 700 L249 700 L167 316 Q159 278 155 245.5 Q151 213 151 194 Q151 139 181 107 Q211 75 277 75 Q321 75 354 83.5 Q387 92 411 114 Q435 136 452 175 Q469 214 482 274 L573 700 L665 700 L574 270 Q557 190 530 136 Q503 82 464.5 49.5 Q426 17 375 3 Q324 -11 259 -11 Z M394 910 L498 910 L375 770 L305 770 L394 910 Z M584 910 L703 910 L529 770 L451 770 L584 910 Z " />
<glyph glyph-name="uhungarumlaut" unicode="&#x171;" horiz-adv-x="580" d="M186 -11 Q152 -11 125 -0.5 Q98 10 79.5 29 Q61 48 51.5 72.5 Q42 97 42 126 Q42 152 46 187 Q50 222 58 259 L115 526 L203 526 L143 243 Q141 233 138.5 221 Q136 209 134.5 197 Q133 185 132 175 Q131 165 131 158 Q130 116 152.5 93 Q175 70 222 70 Q284 70 326 106 Q368 142 384 216 L450 526 L538 526 L426 0 L344 0 L357 85 Q328 37 288.5 13 Q249 -11 186 -11 Z M308 756 L412 756 L299 617 L229 617 L308 756 Z M489 756 L607 756 L443 617 L366 617 L489 756 Z " />
<glyph glyph-name="Uogonek" unicode="&#x172;" horiz-adv-x="670" d="M259 -11 Q160 -11 108.5 43 Q57 97 57 185 Q57 203 60 228 Q63 253 67.5 279 Q72 305 77 329 Q82 353 85 369 L155 700 L249 700 L167 316 Q159 278 155 245.5 Q151 213 151 194 Q151 139 181 107 Q211 75 277 75 Q321 75 354 83.5 Q387 92 411 114 Q435 136 452 175 Q469 214 482 274 L573 700 L665 700 L574 270 Q552 166 513.5 106 Q475 46 416 18 Q346 -21 314 -52 Q282 -83 282 -109 Q282 -121 290.5 -129.5 Q299 -138 316 -138 Q328 -138 343 -134.5 Q358 -131 373 -123 L361 -182 Q344 -190 327 -193 Q310 -196 285 -196 Q243 -196 222 -175 Q201 -154 201 -128 Q201 -96 224.5 -65.5 Q248 -35 289 -10 Q281 -11 274 -11 Q267 -11 259 -11 Z " />
<glyph glyph-name="uogonek" unicode="&#x173;" horiz-adv-x="580" d="M186 -11 Q152 -11 125 -0.5 Q98 10 79.5 29 Q61 48 51.5 72.5 Q42 97 42 126 Q42 152 46 187 Q50 222 58 259 L115 526 L203 526 L143 243 Q141 233 138.5 221 Q136 209 134.5 197 Q133 185 132 175 Q131 165 131 158 Q130 116 152.5 93 Q175 70 222 70 Q284 70 326 106 Q368 142 384 216 L450 526 L538 526 L426 0 Q363 -28 334.5 -57.5 Q306 -87 306 -111 Q306 -124 314.5 -132 Q323 -140 340 -140 Q368 -140 399 -124 L388 -181 Q355 -196 308 -196 Q266 -196 246 -176 Q226 -156 226 -133 Q226 -95 253.5 -62.5 Q281 -30 344 0 L357 85 Q328 37 288.5 13 Q249 -11 186 -11 Z " />
<glyph glyph-name="Ydieresis" unicode="&#x178;" horiz-adv-x="610" d="M249 271 L96 700 L196 700 L310 368 L559 700 L666 700 L341 271 L283 0 L191 0 L249 271 Z M297 785 Q275 785 262.5 796 Q250 807 250 827 Q250 857 268.5 876 Q287 895 320 895 Q342 895 354.5 884 Q367 873 367 853 Q367 823 349 804 Q331 785 297 785 Z M500 785 Q478 785 465.5 796 Q453 807 453 827 Q453 857 471.5 876 Q490 895 523 895 Q545 895 557.5 884 Q570 873 570 853 Q570 823 552 804 Q534 785 500 785 Z " />
<glyph glyph-name="Zacute" unicode="&#x179;" horiz-adv-x="590" d="M-10 61 L461 617 L118 617 L136 700 L606 700 L593 639 L122 83 L485 83 L467 0 L-23 0 L-10 61 Z M454 910 L579 910 L416 770 L334 770 L454 910 Z " />
<glyph glyph-name="zacute" unicode="&#x17a;" horiz-adv-x="490" d="M-14 55 L339 447 L77 447 L94 526 L475 526 L463 471 L111 79 L389 79 L372 0 L-26 0 L-14 55 Z M371 756 L489 756 L334 617 L259 617 L371 756 Z " />
<glyph glyph-name="Zdotaccent" unicode="&#x17b;" horiz-adv-x="590" d="M-10 61 L461 617 L118 617 L136 700 L606 700 L593 639 L122 83 L485 83 L467 0 L-23 0 L-10 61 Z M389 784 Q365 784 353 795.5 Q341 807 341 826 Q341 858 359 877 Q377 896 412 896 Q435 896 447.5 884.5 Q460 873 460 853 Q460 822 441.5 803 Q423 784 389 784 Z " />
<glyph glyph-name="zdotaccent" unicode="&#x17c;" horiz-adv-x="490" d="M-14 55 L339 447 L77 447 L94 526 L475 526 L463 471 L111 79 L389 79 L372 0 L-26 0 L-14 55 Z M308 632 Q285 632 273.5 643.5 Q262 655 262 673 Q262 702 280 721 Q298 740 331 740 Q352 740 365 730 Q378 720 378 700 Q378 672 361 652 Q344 632 308 632 Z " />
<glyph glyph-name="Zcaron" unicode="&#x17d;" horiz-adv-x="590" d="M-10 61 L461 617 L118 617 L136 700 L606 700 L593 639 L122 83 L485 83 L467 0 L-23 0 L-10 61 Z M250 910 L324 910 L394 823 L500 910 L580 910 L435 770 L335 770 L250 910 Z " />
<glyph glyph-name="zcaron" unicode="&#x17e;" horiz-adv-x="490" d="M-14 55 L339 447 L77 447 L94 526 L475 526 L463 471 L111 79 L389 79 L372 0 L-26 0 L-14 55 Z M176 756 L249 756 L313 667 L417 756 L494 756 L353 617 L257 617 L176 756 Z " />
<glyph glyph-name="uni018F" unicode="&#x18f;" horiz-adv-x="690" d="M266 -11 Q213 -11 171 5 Q129 21 99.5 50.5 Q70 80 54 122.5 Q38 165 38 218 Q38 245 40.5 276.5 Q43 308 50 342 L58 380 L549 380 Q554 401 555.5 422.5 Q557 444 557 464 Q557 497 546.5 527 Q536 557 512.5 579.5 Q489 602 450.5 615 Q412 628 356 628 Q304 628 259 619 Q214 610 172 594 L191 685 Q237 698 283 704.5 Q329 711 386 711 Q455 711 506 693 Q557 675 590.5 642 Q624 609 640.5 562.5 Q657 516 657 459 Q657 380 636.5 297 Q616 214 570 145.5 Q524 77 449.5 33 Q375 -11 266 -11 Z M284 72 Q324 72 361.5 83 Q399 94 431.5 121 Q464 148 489.5 192.5 Q515 237 533 304 L137 304 Q132 279 130 261.5 Q128 244 128 224 Q128 152 165.5 112 Q203 72 284 72 Z " />
<glyph glyph-name="florin" unicode="&#x192;" horiz-adv-x="600" d="M199 526 L310 526 L331 577 Q350 625 371.5 659 Q393 693 420 715.5 Q447 738 482 748.5 Q517 759 563 759 Q596 759 631 750 L597 670 Q591 673 579.5 676 Q568 679 551 679 Q524 679 505.5 674 Q487 669 472 656 Q457 643 444.5 621.5 Q432 600 419 567 L402 526 L538 526 L505 447 L369 447 L190 11 Q169 -40 147.5 -77 Q126 -114 99 -138.5 Q72 -163 37.5 -174.5 Q3 -186 -43 -186 Q-56 -186 -69 -184 Q-82 -182 -91 -179 L-59 -100 Q-52 -102 -45 -104 Q-38 -106 -28 -106 Q-10 -106 6 -102 Q22 -98 37 -85.5 Q52 -73 67 -50 Q82 -27 97 10 L278 447 L166 447 L199 526 Z " />
<glyph glyph-name="uni01DD" unicode="&#x1dd;" horiz-adv-x="550" d="M196 -11 Q157 -11 125 1 Q93 13 70.5 35 Q48 57 35.5 87.5 Q23 118 23 155 Q23 176 25 204.5 Q27 233 33 260 L39 286 L399 286 Q403 304 404 318.5 Q405 333 405 347 Q403 403 366 431 Q329 459 262 459 Q212 459 170.5 443.5 Q129 428 97 405 L115 497 Q138 511 180.5 524 Q223 537 284 537 Q386 537 440 486.5 Q494 436 494 345 Q494 235 460 155.5 Q426 76 363 33 Q326 8 286 -1.5 Q246 -11 196 -11 Z M211 64 Q278 64 321 98 Q364 132 385 219 L113 219 Q109 201 108.5 187.5 Q108 174 108 160 Q109 119 132 91.5 Q155 64 211 64 Z " />
<glyph glyph-name="Gcaron" unicode="&#x1e6;" horiz-adv-x="650" d="M302 -11 Q247 -11 199 4 Q151 19 115 51 Q79 83 58.5 134 Q38 185 38 256 Q38 380 75.5 475.5 Q113 571 172 624 Q197 647 225.5 663.5 Q254 680 287 690.5 Q320 701 359 706 Q398 711 445 711 Q506 711 550 699 Q594 687 612 677 L592 581 Q567 597 527.5 611 Q488 625 437 625 Q366 625 316.5 610 Q267 595 229 556 Q181 508 158.5 429.5 Q136 351 136 260 Q136 210 148.5 175 Q161 140 185 117.5 Q209 95 243 85 Q277 75 320 75 Q352 75 382.5 78.5 Q413 82 437 90 L477 280 L344 280 L361 360 L584 360 L514 29 Q483 14 428.5 1.5 Q374 -11 302 -11 Z M312 910 L386 910 L456 823 L562 910 L642 910 L497 770 L397 770 L312 910 Z " />
<glyph glyph-name="gcaron" unicode="&#x1e7;" horiz-adv-x="590" d="M158 -191 Q98 -191 54.5 -175 Q11 -159 -12 -145 L8 -49 Q16 -57 31.5 -67 Q47 -77 68 -87 Q89 -97 115.5 -103.5 Q142 -110 174 -110 Q214 -110 244 -103 Q274 -96 296 -80 Q318 -64 332 -37 Q346 -10 354 29 L368 96 Q342 57 302 31 Q262 5 194 5 Q113 5 68.5 52.5 Q24 100 24 189 Q24 280 52.5 357.5 Q81 435 131 479 Q164 508 202 522.5 Q240 537 293 537 Q359 537 394 509.5 Q429 482 441 439 L466 526 L547 526 L443 35 Q429 -30 405.5 -73.5 Q382 -117 347.5 -143 Q313 -169 266 -180 Q219 -191 158 -191 Z M226 86 Q295 86 339.5 128 Q384 170 401 247 L409 283 Q412 296 413.5 314 Q415 332 415 351 Q415 399 388 427.5 Q361 456 301 456 Q257 456 231 444.5 Q205 433 182 410 Q167 394 155 371.5 Q143 349 135 322 Q127 295 122.5 265.5 Q118 236 118 208 Q118 141 147.5 113.5 Q177 86 226 86 Z M189 756 L262 756 L326 667 L430 756 L507 756 L366 617 L270 617 L189 756 Z " />
<glyph glyph-name="uni0218" unicode="&#x218;" horiz-adv-x="580" d="M217 -11 Q185 -11 154.5 -6 Q124 -1 97.5 7.5 Q71 16 49.5 26.5 Q28 37 15 48 L38 150 Q50 137 69 124 Q88 111 112.5 100 Q137 89 166.5 82 Q196 75 229 75 Q276 75 306.5 84.5 Q337 94 355 111 Q373 128 380.5 151.5 Q388 175 388 203 Q388 239 367.5 262 Q347 285 316.5 302 Q286 319 250 334 Q214 349 183.5 369 Q153 389 132.5 418 Q112 447 112 492 Q112 537 126 577 Q140 617 170 647 Q200 677 248.5 694 Q297 711 366 711 Q421 711 472.5 698 Q524 685 554 666 L532 564 Q495 597 451.5 611 Q408 625 359 625 Q312 625 283 614.5 Q254 604 238 587.5 Q222 571 216.5 550 Q211 529 211 508 Q211 474 231.5 453 Q252 432 282.5 415.5 Q313 399 349 384 Q385 369 415.5 348 Q446 327 466.5 296.5 Q487 266 487 218 Q487 170 472.5 128 Q458 86 425.5 55.5 Q393 25 341.5 7 Q290 -11 217 -11 Z M122 -173 Q145 -171 167.5 -163.5 Q190 -156 198 -136 Q160 -138 146 -128.5 Q132 -119 132 -102 Q132 -80 149 -64.5 Q166 -49 210 -49 Q239 -49 254.5 -62 Q270 -75 270 -96 Q270 -119 259.5 -140.5 Q249 -162 229.5 -179 Q210 -196 182 -207.5 Q154 -219 119 -221 L122 -173 Z " />
<glyph glyph-name="uni0219" unicode="&#x219;" horiz-adv-x="475" d="M155 -11 Q110 -11 70 -0.5 Q30 10 2 26 L23 120 Q46 98 84.5 82.5 Q123 67 169 67 Q202 67 224 74 Q246 81 259 93 Q272 105 277.5 121 Q283 137 283 155 Q283 181 267 197 Q251 213 227.5 224.5 Q204 236 176.5 246 Q149 256 125.5 270.5 Q102 285 86 306.5 Q70 328 70 363 Q70 403 81.5 435 Q93 467 118 489.5 Q143 512 181.5 524.5 Q220 537 274 537 Q294 537 316 534 Q338 531 358 526.5 Q378 522 395.5 515 Q413 508 424 501 L405 410 Q379 433 340 446 Q301 459 262 459 Q206 459 185 437 Q164 415 164 383 Q164 357 180 342 Q196 327 219.5 316 Q243 305 270.5 295.5 Q298 286 321.5 272 Q345 258 361 235.5 Q377 213 377 177 Q377 139 366 105 Q355 71 329.5 45 Q304 19 261.5 4 Q219 -11 155 -11 Z M70 -173 Q99 -171 118.5 -162.5 Q138 -154 145 -135 Q107 -137 93.5 -127 Q80 -117 80 -101 Q80 -80 96.5 -64.5 Q113 -49 154 -49 Q182 -49 196.5 -62.5 Q211 -76 211 -99 Q211 -118 202 -138.5 Q193 -159 175 -176 Q157 -193 130 -205.5 Q103 -218 67 -221 L70 -173 Z " />
<glyph glyph-name="uni021A" unicode="&#x21a;" horiz-adv-x="580" d="M302 617 L93 617 L111 700 L621 700 L603 617 L394 617 L263 0 L171 0 L302 617 Z M117 -173 Q140 -171 162.5 -163.5 Q185 -156 193 -136 Q155 -138 141 -128.5 Q127 -119 127 -102 Q127 -80 144 -64.5 Q161 -49 205 -49 Q234 -49 249.5 -62 Q265 -75 265 -96 Q265 -119 254.5 -140.5 Q244 -162 224.5 -179 Q205 -196 177 -207.5 Q149 -219 114 -221 L117 -173 Z " />
<glyph glyph-name="uni021B" unicode="&#x21b;" horiz-adv-x="435" d="M208 -6 Q150 -6 118.5 24 Q87 54 87 104 Q87 115 88.5 130.5 Q90 146 92 161.5 Q94 177 96.5 191 Q99 205 101 214 L151 447 L57 447 L74 526 L168 526 L190 631 L284 661 L256 526 L424 526 L407 447 L239 447 L191 220 Q190 214 187.5 203 Q185 192 183 179 Q181 166 179 152 Q177 138 177 126 Q177 101 192 88.5 Q207 76 233 76 Q264 76 289 85 Q314 94 335 107 L315 17 Q298 7 270.5 0.5 Q243 -6 208 -6 Z M83 -173 Q112 -171 131.5 -162.5 Q151 -154 158 -135 Q120 -137 106.5 -127 Q93 -117 93 -101 Q93 -80 109.5 -64.5 Q126 -49 167 -49 Q195 -49 209.5 -62.5 Q224 -76 224 -99 Q224 -118 215 -138.5 Q206 -159 188 -176 Q170 -193 143 -205.5 Q116 -218 80 -221 L83 -173 Z " />
<glyph glyph-name="uni0237" unicode="&#x237;" horiz-adv-x="290" d="M-58 -186 Q-84 -186 -104 -179.5 Q-124 -173 -130 -169 L-112 -83 Q-102 -91 -87 -97.5 Q-72 -104 -55 -104 Q-39 -104 -27 -100.5 Q-15 -97 -5.5 -88 Q4 -79 11 -63.5 Q18 -48 23 -24 L140 526 L228 526 L110 -27 Q101 -71 86 -101.5 Q71 -132 50.5 -151 Q30 -170 3 -178 Q-24 -186 -58 -186 Z " />
<glyph glyph-name="uni0259" unicode="&#x259;" horiz-adv-x="550" d="M196 -11 Q157 -11 125 1 Q93 13 70.5 35 Q48 57 35.5 87.5 Q23 118 23 155 Q23 176 25 204.5 Q27 233 33 260 L39 286 L399 286 Q403 304 404 318.5 Q405 333 405 347 Q403 403 366 431 Q329 459 262 459 Q212 459 170.5 443.5 Q129 428 97 405 L115 497 Q138 511 180.5 524 Q223 537 284 537 Q386 537 440 486.5 Q494 436 494 345 Q494 235 460 155.5 Q426 76 363 33 Q326 8 286 -1.5 Q246 -11 196 -11 Z M211 64 Q278 64 321 98 Q364 132 385 219 L113 219 Q109 201 108.5 187.5 Q108 174 108 160 Q109 119 132 91.5 Q155 64 211 64 Z " />
<glyph glyph-name="uni02BC" unicode="&#x2bc;" horiz-adv-x="240" d="M181 700 L278 700 L156 494 L86 494 L181 700 Z " />
<glyph glyph-name="circumflex" unicode="&#x2c6;" horiz-adv-x="400" d="M240 756 L336 756 L417 617 L344 617 L280 705 L176 617 L99 617 L240 756 Z " />
<glyph glyph-name="caron" unicode="&#x2c7;" horiz-adv-x="400" d="M129 756 L202 756 L266 667 L370 756 L447 756 L306 617 L210 617 L129 756 Z " />
<glyph glyph-name="breve" unicode="&#x2d8;" horiz-adv-x="370" d="M243 615 Q186 615 150 647 Q114 679 116 741 L177 757 Q179 680 255 680 Q332 680 367 757 L424 741 Q398 678 351 646.5 Q304 615 243 615 Z " />
<glyph glyph-name="dotaccent" unicode="&#x2d9;" horiz-adv-x="210" d="M166 632 Q143 632 131.5 643.5 Q120 655 120 673 Q120 702 138 721 Q156 740 189 740 Q210 740 223 730 Q236 720 236 700 Q236 672 219 652 Q202 632 166 632 Z " />
<glyph glyph-name="ring" unicode="&#x2da;" horiz-adv-x="260" d="M102 667 Q102 717 135 750 Q168 783 220 783 Q257 783 280.5 761.5 Q304 740 304 705 Q304 655 271 622 Q238 589 186 589 Q149 589 125.5 610.5 Q102 632 102 667 Z M153 675 Q153 658 165 648 Q177 638 197 638 Q223 638 237.5 654 Q252 670 252 696 Q252 713 240 723.5 Q228 734 210 734 Q184 734 168.5 717.5 Q153 701 153 675 Z " />
<glyph glyph-name="ogonek" unicode="&#x2db;" horiz-adv-x="240" d="M15 -196 Q-27 -196 -47 -176 Q-67 -156 -67 -133 Q-67 -88 -28.5 -49 Q10 -10 92 23 L133 0 Q70 -28 41.5 -57.5 Q13 -87 13 -111 Q13 -124 21.5 -132 Q30 -140 47 -140 Q75 -140 106 -124 L95 -181 Q62 -196 15 -196 Z " />
<glyph glyph-name="tilde" unicode="&#x2dc;" horiz-adv-x="400" d="M107 634 Q120 683 148 706.5 Q176 730 213 730 Q233 730 248.5 724.5 Q264 719 284 709 Q303 700 314.5 693.5 Q326 687 340 687 Q354 687 364 696 Q374 705 383 729 L435 717 Q421 668 391.5 645 Q362 622 329 622 Q311 622 297 625.5 Q283 629 257 643 Q240 652 229.5 658.5 Q219 665 205 665 Q192 665 180 656.5 Q168 648 160 623 L107 634 Z " />
<glyph glyph-name="hungarumlaut" unicode="&#x2dd;" horiz-adv-x="460" d="M191 756 L295 756 L182 617 L112 617 L191 756 Z M372 756 L490 756 L326 617 L249 617 L372 756 Z " />
<glyph glyph-name="acutecomb" unicode="&#x301;" d="M-154 756 L-36 756 L-191 617 L-266 617 L-154 756 Z " />
<glyph glyph-name="&amp;#x394;" unicode="&#x394;" horiz-adv-x="640" d="M270 700 L370 700 L620 0 L20 0 L270 700 Z M494 85 L319 592 L317 592 L142 85 L494 85 Z " />
<glyph glyph-name="&amp;#x2206;" unicode="&#x2206;" horiz-adv-x="640" d="M270 700 L370 700 L620 0 L20 0 L270 700 Z M494 85 L319 592 L317 592 L142 85 L494 85 Z " />
<glyph glyph-name="&amp;#x3a9;" unicode="&#x3a9;" horiz-adv-x="740" d="M62 81 L237 81 L237 141 Q199 154 165.5 176 Q132 198 106 230.5 Q80 263 65 307.5 Q50 352 50 410 Q50 478 72.5 533.5 Q95 589 136.5 628.5 Q178 668 237 689.5 Q296 711 370 711 Q444 711 503 689.5 Q562 668 603.5 628.5 Q645 589 667.5 533.5 Q690 478 690 410 Q690 352 674.5 308 Q659 264 633 231 Q607 198 573.5 176 Q540 154 504 141 L504 81 L678 81 L678 0 L418 0 L418 195 Q464 203 497 223.5 Q530 244 551.5 272.5 Q573 301 583.5 335 Q594 369 594 404 Q594 454 578 495.5 Q562 537 532.5 566.5 Q503 596 461.5 612 Q420 628 370 628 Q320 628 278.5 612 Q237 596 207.5 566.5 Q178 537 162 495.5 Q146 454 146 404 Q146 369 156.5 335 Q167 301 188.5 272.5 Q210 244 243.5 223.5 Q277 203 323 195 L323 0 L62 0 L62 81 Z " />
<glyph glyph-name="&amp;#x2126;" unicode="&#x2126;" horiz-adv-x="740" d="M62 81 L237 81 L237 141 Q199 154 165.5 176 Q132 198 106 230.5 Q80 263 65 307.5 Q50 352 50 410 Q50 478 72.5 533.5 Q95 589 136.5 628.5 Q178 668 237 689.5 Q296 711 370 711 Q444 711 503 689.5 Q562 668 603.5 628.5 Q645 589 667.5 533.5 Q690 478 690 410 Q690 352 674.5 308 Q659 264 633 231 Q607 198 573.5 176 Q540 154 504 141 L504 81 L678 81 L678 0 L418 0 L418 195 Q464 203 497 223.5 Q530 244 551.5 272.5 Q573 301 583.5 335 Q594 369 594 404 Q594 454 578 495.5 Q562 537 532.5 566.5 Q503 596 461.5 612 Q420 628 370 628 Q320 628 278.5 612 Q237 596 207.5 566.5 Q178 537 162 495.5 Q146 454 146 404 Q146 369 156.5 335 Q167 301 188.5 272.5 Q210 244 243.5 223.5 Q277 203 323 195 L323 0 L62 0 L62 81 Z " />
<glyph glyph-name="pi" unicode="&#x3c0;" horiz-adv-x="710" d="M583 -6 Q473 -6 473 116 L473 446 L242 446 L242 0 L154 0 L154 445 Q129 445 104 436 Q79 427 62 413 L31 487 Q46 497 62 504 Q78 511 97.5 516 Q117 521 141 523.5 Q165 526 196 526 L649 526 L649 446 L561 446 L561 136 Q561 101 571.5 89 Q582 77 605 77 Q622 77 633.5 79.5 Q645 82 649 83 L649 2 Q642 0 624.5 -3 Q607 -6 583 -6 Z " />
<glyph glyph-name="uni0401" unicode="&#x401;" horiz-adv-x="575" d="M177 700 L596 700 L578 617 L251 617 L205 399 L492 399 L475 318 L188 318 L138 83 L465 83 L447 0 L28 0 L177 700 Z M302 785 Q280 785 267.5 796 Q255 807 255 827 Q255 857 273.5 876 Q292 895 325 895 Q347 895 359.5 884 Q372 873 372 853 Q372 823 354 804 Q336 785 302 785 Z M505 785 Q483 785 470.5 796 Q458 807 458 827 Q458 857 476.5 876 Q495 895 528 895 Q550 895 562.5 884 Q575 873 575 853 Q575 823 557 804 Q539 785 505 785 Z " />
<glyph glyph-name="uni0402" unicode="&#x402;" horiz-adv-x="770" d="M302 617 L93 617 L111 700 L621 700 L603 617 L394 617 L349 405 Q375 419 414 430 Q453 441 503 441 Q551 441 587.5 429 Q624 417 648.5 396 Q673 375 685.5 346.5 Q698 318 698 284 Q698 270 697.5 255 Q697 240 694 223 L687 186 Q667 81 605 35 Q543 -11 448 -11 Q427 -11 403.5 -6.5 Q380 -2 371 3 L389 91 Q399 84 415.5 78.5 Q432 73 451 73 Q506 73 542.5 98.5 Q579 124 592 186 L596 205 Q597 208 598 215.5 Q599 223 600 231.5 Q601 240 601.5 248 Q602 256 602 260 Q601 302 572.5 329 Q544 356 477 356 Q437 356 399.5 347 Q362 338 330 320 L263 0 L171 0 L302 617 Z " />
<glyph glyph-name="uni0403" unicode="&#x403;" horiz-adv-x="535" d="M177 700 L576 700 L558 617 L251 617 L120 0 L28 0 L177 700 Z M459 910 L584 910 L421 770 L339 770 L459 910 Z " />
<glyph glyph-name="uni0404" unicode="&#x404;" horiz-adv-x="590" d="M291 -11 Q168 -11 103 54 Q38 119 38 245 Q38 390 81.5 496 Q125 602 213 659 Q259 688 311.5 699.5 Q364 711 438 711 Q498 711 543.5 696 Q589 681 606 670 L585 573 Q559 593 519 609 Q479 625 425 625 Q377 625 340.5 617.5 Q304 610 270 589 Q229 563 198 514.5 Q167 466 154 398 L458 398 L441 318 L143 318 Q140 298 138.5 281 Q137 264 137 247 Q137 156 183.5 115.5 Q230 75 312 75 Q371 75 416.5 92 Q462 109 495 126 L474 23 Q462 18 444.5 12.5 Q427 7 403 1.5 Q379 -4 350.5 -7.5 Q322 -11 291 -11 Z " />
<glyph glyph-name="uni0405" unicode="&#x405;" horiz-adv-x="580" d="M217 -11 Q185 -11 154.5 -6 Q124 -1 97.5 7.5 Q71 16 49.5 26.5 Q28 37 15 48 L38 150 Q50 137 69 124 Q88 111 112.5 100 Q137 89 166.5 82 Q196 75 229 75 Q276 75 306.5 84.5 Q337 94 355 111 Q373 128 380.5 151.5 Q388 175 388 203 Q388 239 367.5 262 Q347 285 316.5 302 Q286 319 250 334 Q214 349 183.5 369 Q153 389 132.5 418 Q112 447 112 492 Q112 537 126 577 Q140 617 170 647 Q200 677 248.5 694 Q297 711 366 711 Q421 711 472.5 698 Q524 685 554 666 L532 564 Q495 597 451.5 611 Q408 625 359 625 Q312 625 283 614.5 Q254 604 238 587.5 Q222 571 216.5 550 Q211 529 211 508 Q211 474 231.5 453 Q252 432 282.5 415.5 Q313 399 349 384 Q385 369 415.5 348 Q446 327 466.5 296.5 Q487 266 487 218 Q487 170 472.5 128 Q458 86 425.5 55.5 Q393 25 341.5 7 Q290 -11 217 -11 Z " />
<glyph glyph-name="uni0406" unicode="&#x406;" horiz-adv-x="330" d="M195 700 L287 700 L138 0 L46 0 L195 700 Z " />
<glyph glyph-name="uni0407" unicode="&#x407;" horiz-adv-x="330" d="M195 700 L287 700 L138 0 L46 0 L195 700 Z M158 785 Q136 785 123.5 796 Q111 807 111 827 Q111 857 129.5 876 Q148 895 181 895 Q203 895 215.5 884 Q228 873 228 853 Q228 823 210 804 Q192 785 158 785 Z M361 785 Q339 785 326.5 796 Q314 807 314 827 Q314 857 332.5 876 Q351 895 384 895 Q406 895 418.5 884 Q431 873 431 853 Q431 823 413 804 Q395 785 361 785 Z " />
<glyph glyph-name="uni0408" unicode="&#x408;" horiz-adv-x="420" d="M68 -11 Q32 -11 3.5 -2.5 Q-25 6 -36 13 L-16 106 Q-4 97 21.5 86 Q47 75 79 75 Q124 75 148.5 99 Q173 123 186 183 L296 700 L389 700 L279 183 Q268 130 251 93 Q234 56 209 33 Q184 10 149 -0.5 Q114 -11 68 -11 Z " />
<glyph glyph-name="uni0409" unicode="&#x409;" horiz-adv-x="985" d="M-2 -11 Q-12 -11 -22.5 -8 Q-33 -5 -39 -3 L-20 85 Q-14 82 -8 80 Q-2 78 6 78 Q29 78 51 96.5 Q73 115 97.5 167.5 Q122 220 150.5 314 Q179 408 217 559 L252 700 L655 700 L602 448 Q618 449 651 451 Q684 453 716 453 Q816 453 868 409 Q920 365 920 285 Q920 228 906.5 175.5 Q893 123 857 82.5 Q821 42 757 18 Q693 -6 593 -6 Q571 -6 545.5 -5 Q520 -4 495 -2 Q470 0 450.5 2 Q431 4 415 6 L544 617 L323 617 L306 552 Q273 426 245.5 335 Q218 244 193.5 181.5 Q169 119 147 81 Q125 43 102 22.5 Q79 2 54 -4.5 Q29 -11 0 -11 L-2 -11 Z M821 265 Q821 317 789.5 341.5 Q758 366 680 366 Q651 366 623 364.5 Q595 363 583 362 L525 88 Q536 86 563 83.5 Q590 81 619 81 Q686 81 726 97.5 Q766 114 787 140 Q808 166 814.5 199 Q821 232 821 265 Z " />
<glyph glyph-name="uni040A" unicode="&#x40a;" horiz-adv-x="1010" d="M618 -6 Q596 -6 570 -5 Q544 -4 519.5 -2 Q495 0 475 2 Q455 4 439 6 L505 317 L187 317 L120 0 L28 0 L177 700 L269 700 L205 401 L523 401 L587 700 L680 700 L626 448 Q642 450 675 451.5 Q708 453 740 453 Q843 453 894 408 Q945 363 945 281 Q945 221 929.5 168.5 Q914 116 876.5 77 Q839 38 776 16 Q713 -6 618 -6 Z M846 264 Q846 316 814 341 Q782 366 705 366 Q676 366 648 364.5 Q620 363 608 362 L550 88 Q561 86 588 83.5 Q615 81 644 81 Q708 81 747.5 95.5 Q787 110 809 135 Q831 160 838.5 193 Q846 226 846 264 Z " />
<glyph glyph-name="uni040B" unicode="&#x40b;" horiz-adv-x="795" d="M302 617 L93 617 L111 700 L621 700 L603 617 L394 617 L349 405 Q378 422 419.5 433 Q461 444 515 444 Q564 444 599.5 432 Q635 420 658.5 398.5 Q682 377 693.5 348 Q705 319 705 286 Q705 269 701.5 243 Q698 217 693 196 L652 0 L559 0 L602 199 Q604 211 607.5 231.5 Q611 252 611 269 Q611 360 484 360 Q436 360 398 349.5 Q360 339 332 323 L263 0 L171 0 L302 617 Z " />
<glyph glyph-name="uni040C" unicode="&#x40c;" horiz-adv-x="655" d="M269 317 L187 317 L120 0 L28 0 L177 700 L269 700 L205 400 L274 400 L569 700 L686 700 L348 360 L557 0 L450 0 L269 317 Z M514 910 L639 910 L476 770 L394 770 L514 910 Z " />
<glyph glyph-name="uni040E" unicode="&#x40e;" horiz-adv-x="630" d="M140 -11 Q120 -11 100 -6 Q80 -1 69 6 L88 100 Q98 91 111.5 83 Q125 75 145 75 Q174 75 198 93.5 Q222 112 247 158 L95 700 L197 700 L312 263 L577 700 L686 700 L335 138 Q307 93 283 64 Q259 35 236.5 18.5 Q214 2 190.5 -4.5 Q167 -11 140 -11 Z M406 770 Q374 770 347 778 Q320 786 301.5 803 Q283 820 275 846.5 Q267 873 273 910 L346 910 Q341 865 357 847.5 Q373 830 415 830 Q457 830 482.5 847.5 Q508 865 520 910 L597 910 Q577 833 527 801.5 Q477 770 406 770 Z " />
<glyph glyph-name="uni040F" unicode="&#x40f;" horiz-adv-x="690" d="M177 700 L269 700 L138 83 L442 83 L573 700 L665 700 L516 0 L314 0 L286 -130 L202 -130 L230 0 L28 0 L177 700 Z " />
<glyph glyph-name="uni0410" unicode="&#x410;" horiz-adv-x="640" d="M346 700 L446 700 L547 0 L454 0 L430 185 L149 185 L47 0 L-53 0 L346 700 Z M194 265 L419 265 L378 596 L194 265 Z " />
<glyph glyph-name="uni0411" unicode="&#x411;" horiz-adv-x="630" d="M225 -6 Q199 -6 173 -5 Q147 -4 102.5 -0.5 Q58 3 29 6 L177 700 L602 700 L584 617 L251 617 L210 424 Q230 426 262 427.5 Q294 429 332 429 Q392 429 433 416.5 Q474 404 499.5 381.5 Q525 359 536 327.5 Q547 296 547 257 Q547 200 532.5 152 Q518 104 481 68.5 Q444 33 382 13.5 Q320 -6 225 -6 Z M448 244 Q448 294 416 320.5 Q384 347 301 347 Q266 347 238.5 345.5 Q211 344 192 342 L138 88 Q150 86 180 83.5 Q210 81 245 81 Q312 81 352 95 Q392 109 413.5 132 Q435 155 441.5 184.5 Q448 214 448 244 Z " />
<glyph glyph-name="uni0412" unicode="&#x412;" horiz-adv-x="625" d="M237 -6 Q209 -6 178.5 -5 Q148 -4 119.5 -2 Q91 0 72.5 1.5 Q54 3 29 5 L176 695 Q194 697 213.5 698.5 Q233 700 259.5 702 Q286 704 314.5 705 Q343 706 370 706 Q486 706 536.5 669 Q587 632 587 559 Q587 478 551.5 426.5 Q516 375 430 358 Q477 347 508.5 319 Q540 291 540 238 Q540 185 528 140.5 Q516 96 482.5 63.5 Q449 31 390 12.5 Q331 -6 237 -6 Z M444 223 Q444 268 415 294 Q386 320 315 320 L188 320 L137 82 Q161 80 189.5 79 Q218 78 259 78 Q305 78 339.5 84.5 Q374 91 397 107 Q420 123 432 151 Q444 179 444 223 Z M487 538 Q487 580 459 601 Q431 622 363 622 Q325 622 297 621 Q269 620 252 619 L204 397 L321 397 Q372 397 404.5 408 Q437 419 455.5 438 Q474 457 480.5 482.5 Q487 508 487 538 Z " />
<glyph glyph-name="uni0413" unicode="&#x413;" horiz-adv-x="535" d="M177 700 L576 700 L558 617 L251 617 L120 0 L28 0 L177 700 Z " />
<glyph glyph-name="uni0414" unicode="&#x414;" horiz-adv-x="695" d="M-31 83 L33 83 Q62 125 89 180.5 Q116 236 140.5 302 Q165 368 186.5 442 Q208 516 227 595 L252 701 L650 701 L518 83 L599 83 L554 -130 L469 -130 L497 0 L37 0 L9 -130 L-76 -130 L-31 83 Z M427 83 L541 617 L321 617 Q306 547 285.5 472.5 Q265 398 240.5 327 Q216 256 188 193 Q160 130 130 83 L427 83 Z " />
<glyph glyph-name="uni0415" unicode="&#x415;" horiz-adv-x="575" d="M177 700 L596 700 L578 617 L251 617 L205 399 L492 399 L475 318 L188 318 L138 83 L465 83 L447 0 L28 0 L177 700 Z " />
<glyph glyph-name="uni0416" unicode="&#x416;" horiz-adv-x="900" d="M259 361 L132 700 L233 700 L339 400 L415 400 L479 700 L572 700 L508 400 L575 400 L813 700 L920 700 L649 363 L791 0 L690 0 L569 317 L490 317 L423 0 L330 0 L397 317 L335 317 L78 0 L-37 0 L259 361 Z " />
<glyph glyph-name="uni0417" unicode="&#x417;" horiz-adv-x="545" d="M169 -11 Q106 -11 58.5 3 Q11 17 -16 34 L6 137 Q30 112 76 92.5 Q122 73 183 73 Q238 73 273.5 84.5 Q309 96 329.5 116 Q350 136 358 164.5 Q366 193 366 227 Q366 271 336 295.5 Q306 320 235 320 L143 320 L159 397 L248 397 Q335 397 372 433 Q409 469 409 536 Q409 578 383 602.5 Q357 627 298 627 Q250 627 203.5 615.5 Q157 604 113 578 L135 680 Q214 711 324 711 Q374 711 409.5 699.5 Q445 688 467.5 667 Q490 646 500.5 617.5 Q511 589 511 555 Q511 393 348 357 Q463 336 463 227 Q463 175 448 131.5 Q433 88 398.5 56.5 Q364 25 307.5 7 Q251 -11 169 -11 Z " />
<glyph glyph-name="uni0418" unicode="&#x418;" horiz-adv-x="740" d="M177 700 L269 700 L174 249 Q168 217 160.5 188.5 Q153 160 148 143 L150 143 Q161 157 184.5 187.5 Q208 218 234 249 L615 700 L715 700 L566 0 L474 0 L570 451 Q578 486 585 514 Q592 542 596 557 L594 557 Q585 545 562 515.5 Q539 486 510 451 L127 0 L28 0 L177 700 Z " />
<glyph glyph-name="uni0419" unicode="&#x419;" horiz-adv-x="740" d="M177 700 L269 700 L174 249 Q168 217 160.5 188.5 Q153 160 148 143 L150 143 Q161 157 184.5 187.5 Q208 218 234 249 L615 700 L715 700 L566 0 L474 0 L570 451 Q578 486 585 514 Q592 542 596 557 L594 557 Q585 545 562 515.5 Q539 486 510 451 L127 0 L28 0 L177 700 Z M458 770 Q426 770 399 778 Q372 786 353.5 803 Q335 820 327 846.5 Q319 873 325 910 L398 910 Q393 865 409 847.5 Q425 830 467 830 Q509 830 534.5 847.5 Q560 865 572 910 L649 910 Q629 833 579 801.5 Q529 770 458 770 Z " />
<glyph glyph-name="uni041A" unicode="&#x41a;" horiz-adv-x="655" d="M269 317 L187 317 L120 0 L28 0 L177 700 L269 700 L205 400 L274 400 L569 700 L686 700 L348 360 L557 0 L450 0 L269 317 Z " />
<glyph glyph-name="uni041B" unicode="&#x41b;" horiz-adv-x="695" d="M-2 -11 Q-12 -11 -21.5 -8.5 Q-31 -6 -39 -3 L-20 85 Q-14 82 -7.5 80 Q-1 78 8 78 Q30 78 51 96.5 Q72 115 96.5 167.5 Q121 220 150 314 Q179 408 217 559 L252 700 L670 700 L521 0 L429 0 L560 617 L323 617 L306 552 Q273 426 245.5 335 Q218 244 193.5 181.5 Q169 119 147 81 Q125 43 102 22.5 Q79 2 54 -4.5 Q29 -11 0 -11 L-2 -11 Z " />
<glyph glyph-name="uni041C" unicode="&#x41c;" horiz-adv-x="850" d="M177 700 L287 700 L406 270 L709 700 L825 700 L676 0 L586 0 L684 459 Q688 477 690.5 490 Q693 503 696 516 Q699 529 703 542 Q707 555 712 573 L709 573 Q699 555 691 542 Q683 529 674.5 516.5 Q666 504 656.5 490.5 Q647 477 634 459 L426 164 L348 164 L265 459 Q260 477 256.5 490.5 Q253 504 250 516.5 Q247 529 244.5 542 Q242 555 239 573 L236 573 Q233 555 231 542 Q229 529 227 516 Q225 503 222.5 490 Q220 477 216 459 L118 0 L28 0 L177 700 Z " />
<glyph glyph-name="uni041D" unicode="&#x41d;" horiz-adv-x="720" d="M177 700 L269 700 L205 401 L539 401 L603 700 L695 700 L546 0 L454 0 L521 317 L187 317 L120 0 L28 0 L177 700 Z " />
<glyph glyph-name="uni041E" unicode="&#x41e;" horiz-adv-x="710" d="M279 -11 Q231 -11 187.5 4.5 Q144 20 111 52.5 Q78 85 58 134 Q38 183 38 249 Q38 311 48.5 370.5 Q59 430 79 482 Q99 534 128 576 Q157 618 194 645 Q244 682 300.5 696.5 Q357 711 426 711 Q542 711 609.5 648 Q677 585 677 458 Q677 317 634 209.5 Q591 102 511 47 Q463 14 408.5 1.5 Q354 -11 279 -11 Z M304 73 Q347 73 392 85 Q437 97 473 131 Q523 178 550.5 259 Q578 340 578 438 Q578 537 532 582 Q486 627 405 627 Q358 627 317 615 Q276 603 241 569 Q217 545 197.5 511 Q178 477 164.5 436.5 Q151 396 143.5 350.5 Q136 305 136 258 Q136 209 149.5 174 Q163 139 186 116.5 Q209 94 239.5 83.5 Q270 73 304 73 Z " />
<glyph glyph-name="uni041F" unicode="&#x41f;" horiz-adv-x="700" d="M177 700 L675 700 L526 0 L434 0 L565 617 L251 617 L120 0 L28 0 L177 700 Z " />
<glyph glyph-name="uni0420" unicode="&#x420;" horiz-adv-x="620" d="M176 695 Q196 698 244.5 702 Q293 706 362 706 Q486 706 544 661 Q602 616 602 525 Q602 451 584 394.5 Q566 338 526.5 300 Q487 262 424 242.5 Q361 223 271 223 Q234 223 208 224.5 Q182 226 168 228 L120 0 L28 0 L176 695 Z M503 509 Q503 561 470.5 590 Q438 619 356 619 Q319 619 292 617.5 Q265 616 251 614 L187 315 Q201 313 227 311.5 Q253 310 290 310 Q361 310 403 326.5 Q445 343 467.5 370.5 Q490 398 496.5 434 Q503 470 503 509 Z " />
<glyph glyph-name="uni0421" unicode="&#x421;" horiz-adv-x="575" d="M292 -11 Q236 -11 189 4 Q142 19 108 49.5 Q74 80 54.5 127 Q35 174 35 239 Q35 372 73.5 474.5 Q112 577 186 638 Q237 680 296 695.5 Q355 711 433 711 Q491 711 535 696 Q579 681 594 671 L573 575 Q549 595 510 610 Q471 625 416 625 Q360 625 317.5 611.5 Q275 598 241 569 Q215 546 195 513 Q175 480 161.5 439.5 Q148 399 141 353.5 Q134 308 134 260 Q134 162 180.5 118.5 Q227 75 306 75 Q363 75 408.5 89.5 Q454 104 483 120 L462 21 Q453 17 436 11.5 Q419 6 398 1 Q377 -4 349 -7.5 Q321 -11 292 -11 Z " />
<glyph glyph-name="uni0422" unicode="&#x422;" horiz-adv-x="580" d="M302 617 L93 617 L111 700 L621 700 L603 617 L394 617 L263 0 L171 0 L302 617 Z " />
<glyph glyph-name="uni0423" unicode="&#x423;" horiz-adv-x="630" d="M140 -11 Q120 -11 100 -6 Q80 -1 69 6 L88 100 Q98 91 111.5 83 Q125 75 145 75 Q174 75 198 93.5 Q222 112 247 158 L95 700 L197 700 L312 263 L577 700 L686 700 L335 138 Q307 93 283 64 Q259 35 236.5 18.5 Q214 2 190.5 -4.5 Q167 -11 140 -11 Z " />
<glyph glyph-name="uni0424" unicode="&#x424;" horiz-adv-x="830" d="M309 60 L287 60 Q166 60 102.5 114 Q39 168 39 275 Q39 318 46 360.5 Q53 403 67 441.5 Q81 480 102 513.5 Q123 547 150 571 Q195 611 256.5 630.5 Q318 650 412 650 L434 650 L449 720 L541 720 L526 650 L548 650 Q677 650 737 595 Q797 540 797 438 Q797 339 770.5 262 Q744 185 685 136 Q640 98 576 79 Q512 60 423 60 L401 60 L384 -20 L292 -20 L309 60 Z M136 286 Q136 208 175.5 174 Q215 140 305 140 L327 140 L418 570 L396 570 Q335 570 289.5 557.5 Q244 545 209 508 Q178 476 157 418.5 Q136 361 136 286 Z M699 427 Q699 505 659.5 537.5 Q620 570 530 570 L508 570 L417 140 L439 140 Q478 140 508 144.5 Q538 149 561 157 Q584 165 602 177.5 Q620 190 634 207 Q655 232 668 262.5 Q681 293 688 323.5 Q695 354 697 381.5 Q699 409 699 427 Z " />
<glyph glyph-name="uni0425" unicode="&#x425;" horiz-adv-x="630" d="M258 354 L115 700 L216 700 L327 429 L556 700 L667 700 L370 354 L532 0 L429 0 L301 278 L64 0 L-48 0 L258 354 Z " />
<glyph glyph-name="uni0426" unicode="&#x426;" horiz-adv-x="730" d="M532 0 L28 0 L177 700 L269 700 L138 83 L462 83 L593 700 L686 700 L555 83 L635 83 L589 -130 L504 -130 L532 0 Z " />
<glyph glyph-name="uni0427" unicode="&#x427;" horiz-adv-x="650" d="M445 290 Q434 281 392 266 Q350 251 286 251 Q243 251 207.5 261 Q172 271 146.5 290.5 Q121 310 107 338.5 Q93 367 93 405 Q93 416 94 431 Q95 446 97 461 Q99 476 101 489.5 Q103 503 105 512 L145 700 L239 700 L199 511 Q195 494 191.5 470 Q188 446 188 429 Q188 381 219.5 358 Q251 335 311 335 Q374 335 414 349.5 Q454 364 463 372 L533 700 L625 700 L476 0 L384 0 L445 290 Z " />
<glyph glyph-name="uni0428" unicode="&#x428;" horiz-adv-x="930" d="M177 700 L269 700 L138 83 L364 83 L495 700 L587 700 L456 83 L682 83 L813 700 L905 700 L756 0 L28 0 L177 700 Z " />
<glyph glyph-name="uni0429" unicode="&#x429;" horiz-adv-x="950" d="M177 700 L269 700 L138 83 L364 83 L495 700 L587 700 L456 83 L682 83 L813 700 L905 700 L774 83 L855 83 L809 -130 L724 -130 L752 0 L28 0 L177 700 Z " />
<glyph glyph-name="uni042A" unicode="&#x42a;" horiz-adv-x="690" d="M287 -6 Q265 -6 239.5 -5 Q214 -4 189 -2 Q164 0 144 2 Q124 4 109 6 L239 617 L93 617 L111 700 L348 700 L294 448 Q309 449 334 450.5 Q359 452 376 452.5 Q393 453 409 453 Q521 453 572.5 409 Q624 365 624 285 Q624 233 612.5 181 Q601 129 565.5 87.5 Q530 46 463.5 20 Q397 -6 287 -6 Z M526 264 Q526 316 492 341 Q458 366 375 366 Q345 366 318.5 364.5 Q292 363 276 362 L218 88 Q230 86 257 83.5 Q284 81 314 81 Q363 81 402 89 Q441 97 468.5 117.5 Q496 138 511 173.5 Q526 209 526 264 Z " />
<glyph glyph-name="uni042B" unicode="&#x42b;" horiz-adv-x="850" d="M733 700 L825 700 L676 0 L584 0 L733 700 Z M207 -6 Q185 -6 159.5 -5 Q134 -4 109 -2 Q84 0 64 2 Q44 4 29 6 L177 700 L269 700 L215 448 Q228 449 262.5 451 Q297 453 329 453 Q441 453 491 408.5 Q541 364 541 285 Q541 235 530 183 Q519 131 484 89 Q449 47 383 20.5 Q317 -6 207 -6 Z M443 264 Q443 316 410.5 341 Q378 366 295 366 Q265 366 237 364.5 Q209 363 197 362 L138 88 Q150 86 177 83.5 Q204 81 234 81 Q283 81 321.5 89.5 Q360 98 387 119 Q414 140 428.5 175.5 Q443 211 443 264 Z " />
<glyph glyph-name="uni042C" unicode="&#x42c;" horiz-adv-x="610" d="M207 -6 Q185 -6 159.5 -5 Q134 -4 109 -2 Q84 0 62.5 2 Q41 4 29 6 L177 700 L269 700 L215 448 Q228 449 262.5 451 Q297 453 329 453 Q441 453 492.5 409 Q544 365 544 285 Q544 233 532.5 181 Q521 129 485.5 87.5 Q450 46 383.5 20 Q317 -6 207 -6 Z M446 264 Q446 316 412 341 Q378 366 295 366 Q265 366 237 364.5 Q209 363 197 362 L138 88 Q150 86 177 83.5 Q204 81 234 81 Q283 81 322 89 Q361 97 388.5 117.5 Q416 138 431 173.5 Q446 209 446 264 Z " />
<glyph glyph-name="uni042D" unicode="&#x42d;" horiz-adv-x="590" d="M157 398 L456 398 Q459 418 460 432 Q461 446 461 462 Q460 547 415.5 586 Q371 625 283 625 Q175 625 108 588 L129 685 Q145 691 193.5 701 Q242 711 303 711 Q431 711 494.5 651.5 Q558 592 558 463 Q558 407 549.5 350.5 Q541 294 524 242.5 Q507 191 481 146.5 Q455 102 419 71 Q368 26 304 7.5 Q240 -11 150 -11 Q118 -11 91 -6.5 Q64 -2 42.5 5 Q21 12 6.5 19 Q-8 26 -17 32 L3 129 Q27 111 70.5 93 Q114 75 170 75 Q224 75 271.5 87 Q319 99 356 135 Q385 164 407.5 209.5 Q430 255 442 318 L140 318 L157 398 Z " />
<glyph glyph-name="uni042E" unicode="&#x42e;" horiz-adv-x="960" d="M536 -11 Q426 -11 367.5 55 Q309 121 309 238 Q309 255 311.5 276 Q314 297 316 313 L187 313 L120 0 L28 0 L177 700 L269 700 L204 397 L330 397 Q345 468 370.5 520 Q396 572 429 609 Q480 664 542.5 687.5 Q605 711 684 711 Q739 711 783.5 696.5 Q828 682 859.5 652 Q891 622 908 576 Q925 530 925 468 Q925 327 884.5 223.5 Q844 120 771 60 Q724 22 667.5 5.5 Q611 -11 536 -11 Z M554 74 Q614 74 655 89 Q696 104 728 138 Q774 186 799.5 265.5 Q825 345 825 448 Q825 496 813.5 530 Q802 564 781 585.5 Q760 607 730.5 616.5 Q701 626 666 626 Q609 626 571 611 Q533 596 501 561 Q476 534 458 498.5 Q440 463 428 422.5 Q416 382 410 338.5 Q404 295 404 252 Q404 204 415 170 Q426 136 445.5 114.5 Q465 93 493 83.5 Q521 74 554 74 Z " />
<glyph glyph-name="uni042F" unicode="&#x42f;" horiz-adv-x="640" d="M210 282 Q164 299 138.5 340 Q113 381 113 435 Q113 501 134 555.5 Q155 610 205 650 Q241 679 293 692.5 Q345 706 423 706 Q452 706 481 705 Q510 704 535.5 702 Q561 700 580 698.5 Q599 697 614 695 L466 0 L374 0 L429 258 L330 258 Q319 258 314.5 258 Q310 258 301 259 L89 0 L-22 0 L210 282 Z M211 447 Q211 397 243 369.5 Q275 342 347 342 L448 342 L506 616 Q493 617 464.5 618 Q436 619 406 619 Q361 619 326.5 612.5 Q292 606 267 586 Q241 565 226 530 Q211 495 211 447 Z " />
<glyph glyph-name="uni0430" unicode="&#x430;" horiz-adv-x="535" d="M153 -11 Q85 -11 45.5 25 Q6 61 6 126 Q6 163 15.5 195.5 Q25 228 51.5 252.5 Q78 277 125.5 291.5 Q173 306 249 306 L363 306 L368 328 Q369 333 370.5 342 Q372 351 373.5 360 Q375 369 376 377 Q377 385 377 389 Q377 424 349 440 Q321 456 267 456 Q220 456 179 443 Q138 430 106 411 L126 503 Q155 519 199.5 528 Q244 537 294 537 Q379 537 423.5 505 Q468 473 468 411 Q468 403 466.5 391.5 Q465 380 463 367 Q461 354 458.5 341 Q456 328 454 318 L386 0 L307 0 L320 81 Q294 37 256 13 Q218 -11 153 -11 Z M185 67 Q247 67 286 98.5 Q325 130 342 208 L350 244 L237 244 Q186 244 158 233 Q130 222 117 206 Q104 190 101.5 172 Q99 154 99 141 Q99 110 118.5 88.5 Q138 67 185 67 Z " />
<glyph glyph-name="uni0431" unicode="&#x431;" horiz-adv-x="590" d="M230 -11 Q190 -11 155 1 Q120 13 94 39 Q68 65 53 105 Q38 145 38 201 Q38 261 48 325.5 Q58 390 74.5 449 Q91 508 113 557.5 Q135 607 160 636 Q184 664 212 682 Q240 700 271 711.5 Q302 723 333.5 729 Q365 735 395 738 Q451 743 501 749 Q551 755 582 768 L561 672 Q551 668 538 665 Q525 662 505.5 659 Q486 656 459.5 653 Q433 650 397 647 Q365 644 338.5 640.5 Q312 637 289.5 630.5 Q267 624 248.5 613.5 Q230 603 214 585 Q190 559 168.5 514 Q147 469 135 406 L138 406 Q153 431 172.5 452.5 Q192 474 217.5 489 Q243 504 276 512.5 Q309 521 350 521 Q431 521 481.5 478.5 Q532 436 532 349 Q532 257 507.5 188.5 Q483 120 441 74 Q402 31 350.5 10 Q299 -11 230 -11 Z M246 70 Q294 70 323.5 83.5 Q353 97 378 127 Q405 160 421 213.5 Q437 267 437 325 Q437 384 404.5 412 Q372 440 315 440 Q218 440 172.5 376 Q127 312 127 200 Q127 137 158.5 103.5 Q190 70 246 70 Z " />
<glyph glyph-name="uni0432" unicode="&#x432;" horiz-adv-x="540" d="M196 -6 Q134 -6 83.5 -4 Q33 -2 8 0 L120 527 Q142 528 192.5 530 Q243 532 303 532 Q353 532 387 523 Q421 514 441.5 498 Q462 482 471 460 Q480 438 480 412 Q480 357 451.5 319.5 Q423 282 359 272 Q403 264 425.5 240.5 Q448 217 448 175 Q448 136 437.5 102.5 Q427 69 399 45 Q371 21 322 7.5 Q273 -6 196 -6 Z M358 171 Q358 203 336.5 220.5 Q315 238 256 238 L146 238 L111 75 Q111 74 141.5 73 Q172 72 214 72 Q292 72 325 93.5 Q358 115 358 171 Z M388 393 Q388 421 367 438 Q346 455 287 455 Q254 455 228 454 Q202 453 191 452 L160 305 L270 305 Q339 305 363.5 328 Q388 351 388 393 Z " />
<glyph glyph-name="uni0433" unicode="&#x433;" horiz-adv-x="435" d="M120 526 L444 526 L427 446 L191 446 L96 0 L8 0 L120 526 Z " />
<glyph glyph-name="uni0434" unicode="&#x434;" horiz-adv-x="595" d="M-26 80 L27 80 Q70 143 112.5 252.5 Q155 362 187 526 L526 526 L432 80 L504 80 L459 -130 L379 -130 L407 0 L37 0 L9 -130 L-71 -130 L-26 80 Z M344 80 L421 446 L253 446 Q242 397 228 346.5 Q214 296 197 248 Q180 200 160.5 157 Q141 114 120 80 L344 80 Z " />
<glyph glyph-name="uni0435" unicode="&#x435;" horiz-adv-x="550" d="M234 -11 Q134 -11 79 37.5 Q24 86 24 186 Q24 229 31.5 271 Q39 313 52.5 350.5 Q66 388 85 419 Q104 450 127 471 Q164 506 208.5 521.5 Q253 537 313 537 Q352 537 385.5 527.5 Q419 518 443.5 498.5 Q468 479 482 449 Q496 419 496 379 Q496 357 493.5 332.5 Q491 308 484 279 L475 240 L117 240 Q114 223 113.5 214 Q113 205 113 191 Q113 67 250 67 Q300 67 343.5 80.5 Q387 94 419 117 L399 25 Q371 8 331.5 -1.5 Q292 -11 234 -11 Z M303 462 Q239 462 193.5 425 Q148 388 131 304 L401 304 Q409 339 409 364 Q410 411 383 436.5 Q356 462 303 462 Z " />
<glyph glyph-name="uni0436" unicode="&#x436;" horiz-adv-x="770" d="M197 272 L90 526 L182 526 L269 313 L337 313 L382 526 L467 526 L422 313 L479 313 L655 526 L758 526 L547 274 L661 0 L568 0 L474 234 L405 234 L355 0 L270 0 L320 234 L266 234 L67 0 L-37 0 L197 272 Z " />
<glyph glyph-name="uni0437" unicode="&#x437;" horiz-adv-x="475" d="M140 -11 Q95 -11 50 -1 Q5 9 -27 30 L-7 123 Q16 101 55 84 Q94 67 151 67 Q194 67 222.5 76 Q251 85 267.5 99.5 Q284 114 290.5 132 Q297 150 297 168 Q297 197 273 215 Q249 233 186 233 L113 233 L128 303 L201 303 Q270 303 298 326.5 Q326 350 326 394 Q326 423 305 441 Q284 459 231 459 Q186 459 143 446.5 Q100 434 63 410 L84 510 Q120 524 162 530.5 Q204 537 259 537 Q346 537 383 505.5 Q420 474 420 419 Q420 359 388 320.5 Q356 282 297 268 Q336 261 361 239.5 Q386 218 386 176 Q386 135 372.5 101 Q359 67 329.5 42 Q300 17 253 3 Q206 -11 140 -11 Z " />
<glyph glyph-name="uni0438" unicode="&#x438;" horiz-adv-x="590" d="M120 526 L208 526 L140 208 Q135 185 129.5 162.5 Q124 140 121 129 L123 129 Q131 140 148 163 Q165 186 185 209 L461 526 L548 526 L436 0 L348 0 L415 316 Q420 340 426 363 Q432 386 435 397 L433 397 Q425 386 407.5 363 Q390 340 370 317 L95 0 L8 0 L120 526 Z " />
<glyph glyph-name="uni0439" unicode="&#x439;" horiz-adv-x="590" d="M120 526 L208 526 L140 208 Q135 185 129.5 162.5 Q124 140 121 129 L123 129 Q131 140 148 163 Q165 186 185 209 L461 526 L548 526 L436 0 L348 0 L415 316 Q420 340 426 363 Q432 386 435 397 L433 397 Q425 386 407.5 363 Q390 340 370 317 L95 0 L8 0 L120 526 Z M353 617 Q323 617 297 624 Q271 631 253.5 647.5 Q236 664 228.5 690.5 Q221 717 227 756 L300 756 Q294 711 309 692.5 Q324 674 362 674 Q400 674 424.5 692.5 Q449 711 463 756 L539 756 Q517 679 470 648 Q423 617 353 617 Z " />
<glyph glyph-name="uni043A" unicode="&#x43a;" horiz-adv-x="555" d="M120 526 L208 526 L163 313 L221 313 L429 526 L538 526 L288 275 L446 0 L346 0 L215 234 L146 234 L96 0 L8 0 L120 526 Z " />
<glyph glyph-name="uni043B" unicode="&#x43b;" horiz-adv-x="575" d="M-24 87 Q-15 83 -1 83 Q18 83 36 97 Q54 111 73 152 Q92 193 114 267 Q136 341 164 461 L179 526 L533 526 L421 0 L333 0 L428 444 L246 444 L238 411 Q208 287 180.5 205.5 Q153 124 124.5 76 Q96 28 64.5 8.5 Q33 -11 -5 -11 Q-16 -11 -26 -10 Q-36 -9 -44 -6 L-24 87 Z " />
<glyph glyph-name="uni043C" unicode="&#x43c;" horiz-adv-x="680" d="M120 526 L232 526 L311 220 L522 526 L638 526 L526 0 L442 0 L512 331 Q527 396 531 408 Q535 420 538 431 L535 431 Q529 422 520.5 409 Q512 396 469 331 L324 122 L260 122 L207 331 Q192 396 189 409 Q186 422 184 431 L181 431 Q179 423 177 411 Q175 399 162 331 L92 0 L8 0 L120 526 Z " />
<glyph glyph-name="uni043D" unicode="&#x43d;" horiz-adv-x="580" d="M120 526 L208 526 L161 308 L403 308 L450 526 L538 526 L426 0 L338 0 L386 228 L144 228 L96 0 L8 0 L120 526 Z " />
<glyph glyph-name="uni043E" unicode="&#x43e;" horiz-adv-x="570" d="M212 -11 Q174 -11 139.5 0.5 Q105 12 79.5 35.5 Q54 59 39 95 Q24 131 24 180 Q24 223 31 266 Q38 309 51.5 348 Q65 387 85.5 420 Q106 453 133 477 Q171 510 215 523.5 Q259 537 320 537 Q360 537 395.5 526 Q431 515 457 492.5 Q483 470 498 434 Q513 398 513 349 Q513 250 480 168.5 Q447 87 390 42 Q354 13 312.5 1 Q271 -11 212 -11 Z M228 70 Q272 70 301.5 81 Q331 92 355 119 Q370 137 382.5 162.5 Q395 188 403.5 217 Q412 246 416.5 276 Q421 306 421 333 Q421 367 412.5 390.5 Q404 414 388.5 428.5 Q373 443 352 449.5 Q331 456 306 456 Q268 456 240 447 Q212 438 188 414 Q171 397 157.5 372.5 Q144 348 135 319 Q126 290 121 257.5 Q116 225 116 193 Q116 159 124.5 135.5 Q133 112 148 97.5 Q163 83 183.5 76.5 Q204 70 228 70 Z " />
<glyph glyph-name="uni043F" unicode="&#x43f;" horiz-adv-x="570" d="M120 526 L528 526 L416 0 L328 0 L423 446 L191 446 L96 0 L8 0 L120 526 Z " />
<glyph glyph-name="uni0440" unicode="&#x440;" horiz-adv-x="590" d="M120 526 L202 526 L190 441 Q201 461 215.5 478.5 Q230 496 251 509 Q272 522 299.5 529.5 Q327 537 363 537 Q401 537 433 527 Q465 517 488.5 496 Q512 475 525 442 Q538 409 538 364 Q538 283 519.5 215 Q501 147 473 102 Q437 44 384 16.5 Q331 -11 259 -11 Q224 -11 198.5 -2 Q173 7 156 21 Q139 35 129 52.5 Q119 70 115 87 L58 -180 L-30 -180 L120 526 Z M444 337 Q444 402 411.5 429 Q379 456 329 456 Q259 456 217.5 416.5 Q176 377 159 296 L151 259 Q148 246 145 226 Q142 206 142 184 Q142 157 151 135.5 Q160 114 175 99.5 Q190 85 210 77.5 Q230 70 251 70 Q272 70 291 72.5 Q310 75 328 83 Q346 91 362.5 105.5 Q379 120 394 143 Q407 163 416.5 188.5 Q426 214 432 241 Q438 268 441 293 Q444 318 444 337 Z " />
<glyph glyph-name="uni0441" unicode="&#x441;" horiz-adv-x="475" d="M228 -11 Q128 -11 75 40.5 Q22 92 22 195 Q22 235 30 277 Q38 319 53 357.5 Q68 396 90.5 429 Q113 462 143 485 Q182 515 228.5 526 Q275 537 324 537 Q350 537 374 532.5 Q398 528 416.5 522 Q435 516 448 509.5 Q461 503 465 500 L446 408 Q427 425 392.5 440.5 Q358 456 315 456 Q271 456 240.5 445.5 Q210 435 184 409 Q168 393 155.5 369.5 Q143 346 134 319 Q125 292 120 262.5 Q115 233 115 205 Q115 133 151.5 101.5 Q188 70 251 70 Q288 70 327 80.5 Q366 91 390 108 L371 15 Q356 7 319.5 -2 Q283 -11 228 -11 Z " />
<glyph glyph-name="uni0442" unicode="&#x442;" horiz-adv-x="480" d="M218 446 L52 446 L69 526 L489 526 L472 446 L306 446 L211 0 L123 0 L218 446 Z " />
<glyph glyph-name="uni0443" unicode="&#x443;" horiz-adv-x="520" d="M48 -191 Q28 -191 11 -185 Q-6 -179 -11 -176 L7 -92 Q14 -97 25 -103.5 Q36 -110 56 -110 Q66 -110 77.5 -106.5 Q89 -103 102 -91 Q115 -79 129 -57.5 Q143 -36 160 0 L59 526 L151 526 L223 117 L443 526 L540 526 L247 -3 Q212 -66 186.5 -103.5 Q161 -141 139 -160.5 Q117 -180 95.5 -185.5 Q74 -191 48 -191 Z " />
<glyph glyph-name="uni0444" unicode="&#x444;" horiz-adv-x="720" d="M242 -8 Q236 -9 222.5 -10 Q209 -11 195 -11 Q162 -11 130.5 -0.5 Q99 10 75 32 Q51 54 36 88.5 Q21 123 21 172 Q21 266 49.5 347 Q78 428 128 475 Q145 491 163.5 503 Q182 515 203.5 522.5 Q225 530 251.5 533.5 Q278 537 311 537 Q325 537 338 535.5 Q351 534 357 533 L403 750 L491 750 L445 533 Q451 534 464 535.5 Q477 537 491 537 Q580 537 623 487.5 Q666 438 666 350 Q666 258 641 186.5 Q616 115 572 69 Q495 -11 375 -11 Q361 -11 348 -10 Q335 -9 330 -8 L293 -180 L205 -180 L242 -8 Z M114 190 Q114 127 142.5 98.5 Q171 70 228 70 Q237 70 245.5 70.5 Q254 71 259 72 L340 453 Q335 454 326.5 454.5 Q318 455 310 455 Q269 455 234.5 442.5 Q200 430 172 395 Q160 380 149.5 357.5 Q139 335 131 307.5 Q123 280 118.5 250 Q114 220 114 190 Z M572 336 Q572 403 544 429 Q516 455 458 455 Q450 455 441.5 454.5 Q433 454 428 453 L347 72 Q352 71 360.5 70.5 Q369 70 378 70 Q426 70 458.5 86 Q491 102 512 129 Q530 151 541.5 180 Q553 209 559.5 238 Q566 267 569 293 Q572 319 572 336 Z " />
<glyph glyph-name="uni0445" unicode="&#x445;" horiz-adv-x="540" d="M202 276 L88 526 L182 526 L267 340 L427 526 L530 526 L304 266 L431 0 L337 0 L242 204 L66 0 L-37 0 L202 276 Z " />
<glyph glyph-name="uni0446" unicode="&#x446;" horiz-adv-x="590" d="M402 0 L8 0 L120 526 L208 526 L113 80 L335 80 L430 526 L518 526 L423 80 L499 80 L454 -130 L374 -130 L402 0 Z " />
<glyph glyph-name="uni0447" unicode="&#x447;" horiz-adv-x="530" d="M332 204 Q318 197 284.5 188.5 Q251 180 208 180 Q133 180 92.5 215.5 Q52 251 52 308 Q52 323 54.5 350 Q57 377 64 410 L89 526 L177 526 L152 410 Q149 396 145 372.5 Q141 349 141 329 Q141 294 165.5 277 Q190 260 233 260 Q276 260 306.5 267.5 Q337 275 348 281 L400 526 L488 526 L376 0 L288 0 L332 204 Z " />
<glyph glyph-name="uni0448" unicode="&#x448;" horiz-adv-x="780" d="M120 526 L208 526 L113 80 L290 80 L385 526 L473 526 L378 80 L555 80 L650 526 L738 526 L626 0 L8 0 L120 526 Z " />
<glyph glyph-name="uni0449" unicode="&#x449;" horiz-adv-x="810" d="M622 0 L8 0 L120 526 L208 526 L113 80 L290 80 L385 526 L473 526 L378 80 L555 80 L650 526 L738 526 L643 80 L719 80 L674 -130 L594 -130 L622 0 Z " />
<glyph glyph-name="uni044A" unicode="&#x44a;" horiz-adv-x="600" d="M260 -6 Q236 -6 211 -5 Q186 -4 162.5 -3 Q139 -2 121.5 -0.5 Q104 1 89 3 L183 446 L52 446 L69 526 L288 526 L251 352 Q263 353 291 355 Q319 357 349 357 Q446 357 487 318.5 Q528 280 528 213 Q528 163 515.5 122.5 Q503 82 472.5 53.5 Q442 25 390.5 9.5 Q339 -6 260 -6 Z M435 200 Q435 236 412 256 Q389 276 326 276 Q297 276 271 274 Q245 272 234 271 L193 80 Q204 78 229 77 Q254 76 283 76 Q321 76 349.5 81 Q378 86 397 100 Q416 114 425.5 138 Q435 162 435 200 Z " />
<glyph glyph-name="uni044B" unicode="&#x44b;" horiz-adv-x="730" d="M177 -6 Q153 -6 128 -5 Q103 -4 80.5 -3 Q58 -2 40.5 -0.5 Q23 1 9 3 L120 526 L208 526 L171 352 Q182 353 209 355 Q236 357 266 357 Q314 357 347 347 Q380 337 401 318.5 Q422 300 431.5 274.5 Q441 249 441 218 Q441 167 429 125.5 Q417 84 387 55 Q357 26 306 10 Q255 -6 177 -6 Z M349 198 Q349 235 326.5 255.5 Q304 276 243 276 Q214 276 189.5 274 Q165 272 154 271 L113 80 Q124 78 148 77 Q172 76 201 76 Q274 76 311.5 101.5 Q349 127 349 198 Z M600 526 L688 526 L576 0 L488 0 L600 526 Z " />
<glyph glyph-name="uni044C" unicode="&#x44c;" horiz-adv-x="520" d="M180 -6 Q156 -6 131 -5 Q106 -4 82.5 -3 Q59 -2 41.5 -0.5 Q24 1 9 3 L120 526 L208 526 L171 352 Q183 353 211 355 Q239 357 269 357 Q366 357 407 318.5 Q448 280 448 216 Q448 164 435.5 123 Q423 82 392.5 53.5 Q362 25 310.5 9.5 Q259 -6 180 -6 Z M355 203 Q355 236 332 256 Q309 276 246 276 Q217 276 191 274 Q165 272 154 271 L113 80 Q124 78 149.5 77 Q175 76 204 76 Q242 76 270.5 81.5 Q299 87 317.5 101.5 Q336 116 345.5 140.5 Q355 165 355 203 Z " />
<glyph glyph-name="uni044D" unicode="&#x44d;" horiz-adv-x="495" d="M120 304 L346 304 Q348 319 349 329.5 Q350 340 350 351 Q348 408 315.5 433.5 Q283 459 217 459 Q164 459 126.5 448 Q89 437 60 421 L80 512 Q102 522 140 529.5 Q178 537 234 537 Q340 537 390 491 Q440 445 440 348 Q440 303 432.5 259 Q425 215 410 175.5 Q395 136 372 102.5 Q349 69 318 44 Q279 13 227.5 1 Q176 -11 109 -11 Q53 -11 21 1.5 Q-11 14 -29 26 L-10 115 Q9 99 44.5 83 Q80 67 126 67 Q172 67 207.5 77.5 Q243 88 269 113 Q312 153 334 239 L107 239 L120 304 Z " />
<glyph glyph-name="uni044E" unicode="&#x44e;" horiz-adv-x="770" d="M413 -11 Q326 -11 282 41.5 Q238 94 237 179 Q237 193 237.5 203 Q238 213 240 228 L144 228 L96 0 L8 0 L120 526 L208 526 L161 308 L252 308 Q266 371 293.5 415.5 Q321 460 355 487 Q390 515 432.5 526 Q475 537 527 537 Q567 537 601 526 Q635 515 659.5 492.5 Q684 470 697.5 434.5 Q711 399 711 350 Q711 254 684 180 Q657 106 609 59 Q573 24 527.5 6.5 Q482 -11 413 -11 Z M430 70 Q466 70 499 83.5 Q532 97 555 124 Q586 161 602 218.5 Q618 276 618 335 Q618 402 588 429 Q558 456 505 456 Q467 456 441.5 446.5 Q416 437 395 416 Q379 400 365.5 376 Q352 352 342.5 323 Q333 294 328 260.5 Q323 227 323 192 Q323 158 332 135 Q341 112 355.5 97.5 Q370 83 389.5 76.5 Q409 70 430 70 Z " />
<glyph glyph-name="uni044F" unicode="&#x44f;" horiz-adv-x="550" d="M146 197 Q111 211 88.5 239.5 Q66 268 66 313 Q66 368 83 410.5 Q100 453 141 485 Q177 514 224 523 Q271 532 340 532 Q396 532 439.5 529 Q483 526 507 523 L396 0 L308 0 L345 176 L262 176 Q254 176 247 176.5 Q240 177 234 178 L85 0 L-22 0 L146 197 Z M159 331 Q159 294 184 274 Q209 254 271 254 L362 254 L403 447 Q392 448 367 449 Q342 450 313 450 Q271 450 243.5 444.5 Q216 439 199 425 Q176 408 167.5 383 Q159 358 159 331 Z " />
<glyph glyph-name="uni0451" unicode="&#x451;" horiz-adv-x="550" d="M234 -11 Q134 -11 79 37.5 Q24 86 24 186 Q24 229 31.5 271 Q39 313 52.5 350.5 Q66 388 85 419 Q104 450 127 471 Q164 506 208.5 521.5 Q253 537 313 537 Q352 537 385.5 527.5 Q419 518 443.5 498.5 Q468 479 482 449 Q496 419 496 379 Q496 357 493.5 332.5 Q491 308 484 279 L475 240 L117 240 Q114 223 113.5 214 Q113 205 113 191 Q113 67 250 67 Q300 67 343.5 80.5 Q387 94 419 117 L399 25 Q371 8 331.5 -1.5 Q292 -11 234 -11 Z M303 462 Q239 462 193.5 425 Q148 388 131 304 L401 304 Q409 339 409 364 Q410 411 383 436.5 Q356 462 303 462 Z M435 634 Q412 634 400.5 645.5 Q389 657 389 675 Q389 705 405.5 722 Q422 739 457 739 Q480 739 491.5 727.5 Q503 716 503 698 Q503 668 486.5 651 Q470 634 435 634 Z M245 634 Q222 634 210.5 645.5 Q199 657 199 675 Q199 705 215.5 722 Q232 739 267 739 Q290 739 301.5 727.5 Q313 716 313 698 Q313 668 296.5 651 Q280 634 245 634 Z " />
<glyph glyph-name="uni0452" unicode="&#x452;" horiz-adv-x="605" d="M46 526 L140 526 L188 753 L276 753 L228 526 L421 526 L406 458 L213 458 L175 279 Q203 327 244 349 Q285 371 348 371 Q420 371 458.5 332 Q497 293 497 229 Q497 213 495 191 Q493 169 488 149 L482 119 Q468 51 446.5 4 Q425 -43 393.5 -78 Q362 -113 319.5 -139 Q277 -165 222 -191 L184 -130 Q228 -107 263 -83.5 Q298 -60 324 -32 Q350 -4 367 31.5 Q384 67 393 115 L398 142 Q402 161 403 172.5 Q404 184 404 198 Q404 240 380 265 Q356 290 307 290 Q238 290 200 253 Q162 216 146 142 L116 0 L28 0 L125 458 L31 458 L46 526 Z " />
<glyph glyph-name="uni0453" unicode="&#x453;" horiz-adv-x="435" d="M120 526 L444 526 L427 446 L191 446 L96 0 L8 0 L120 526 Z M367 756 L485 756 L330 617 L255 617 L367 756 Z " />
<glyph glyph-name="uni0454" unicode="&#x454;" horiz-adv-x="495" d="M234 -11 Q129 -11 76 41.5 Q23 94 23 188 Q23 224 29 264 Q35 304 49 343.5 Q63 383 85 418.5 Q107 454 139 480 Q160 497 181 508 Q202 519 226 525.5 Q250 532 277.5 534.5 Q305 537 340 537 Q396 537 431 523.5 Q466 510 484 499 L465 410 Q443 427 409.5 443 Q376 459 323 459 Q284 459 254.5 451.5 Q225 444 201 427 Q149 390 128 304 L357 304 L344 239 L117 239 Q115 224 113.5 212.5 Q112 201 112 187 Q112 122 149.5 94.5 Q187 67 251 67 Q297 67 338.5 81 Q380 95 405 111 L386 18 Q363 7 327 -2 Q291 -11 234 -11 Z " />
<glyph glyph-name="uni0455" unicode="&#x455;" horiz-adv-x="475" d="M155 -11 Q110 -11 70 -0.5 Q30 10 2 26 L23 120 Q46 98 84.5 82.5 Q123 67 169 67 Q202 67 224 74 Q246 81 259 93 Q272 105 277.5 121 Q283 137 283 155 Q283 181 267 197 Q251 213 227.5 224.5 Q204 236 176.5 246 Q149 256 125.5 270.5 Q102 285 86 306.5 Q70 328 70 363 Q70 403 81.5 435 Q93 467 118 489.5 Q143 512 181.5 524.5 Q220 537 274 537 Q294 537 316 534 Q338 531 358 526.5 Q378 522 395.5 515 Q413 508 424 501 L405 410 Q379 433 340 446 Q301 459 262 459 Q206 459 185 437 Q164 415 164 383 Q164 357 180 342 Q196 327 219.5 316 Q243 305 270.5 295.5 Q298 286 321.5 272 Q345 258 361 235.5 Q377 213 377 177 Q377 139 366 105 Q355 71 329.5 45 Q304 19 261.5 4 Q219 -11 155 -11 Z " />
<glyph glyph-name="uni0456" unicode="&#x456;" horiz-adv-x="290" d="M140 526 L228 526 L116 0 L28 0 L140 526 Z M206 632 Q183 632 171.5 643.5 Q160 655 160 675 Q160 704 176.5 722 Q193 740 229 740 Q252 740 264 728.5 Q276 717 276 698 Q276 667 259 649.5 Q242 632 206 632 Z " />
<glyph glyph-name="uni0457" unicode="&#x457;" horiz-adv-x="290" d="M140 526 L228 526 L116 0 L28 0 L140 526 Z M306 634 Q283 634 271.5 645.5 Q260 657 260 675 Q260 705 276.5 722 Q293 739 328 739 Q351 739 362.5 727.5 Q374 716 374 698 Q374 668 357.5 651 Q341 634 306 634 Z M116 634 Q93 634 81.5 645.5 Q70 657 70 675 Q70 705 86.5 722 Q103 739 138 739 Q161 739 172.5 727.5 Q184 716 184 698 Q184 668 167.5 651 Q151 634 116 634 Z " />
<glyph glyph-name="uni0458" unicode="&#x458;" horiz-adv-x="290" d="M-58 -186 Q-84 -186 -104 -179.5 Q-124 -173 -130 -169 L-112 -83 Q-102 -91 -87 -97.5 Q-72 -104 -55 -104 Q-39 -104 -27 -100.5 Q-15 -97 -5.5 -88 Q4 -79 11 -63.5 Q18 -48 23 -24 L140 526 L228 526 L110 -27 Q101 -71 86 -101.5 Q71 -132 50.5 -151 Q30 -170 3 -178 Q-24 -186 -58 -186 Z M206 632 Q186 632 173 642 Q160 652 160 672 Q160 703 178.5 721.5 Q197 740 229 740 Q249 740 262.5 730 Q276 720 276 700 Q276 669 257 650.5 Q238 632 206 632 Z " />
<glyph glyph-name="uni0459" unicode="&#x459;" horiz-adv-x="820" d="M-24 87 Q-15 83 -1 83 Q18 83 36 97 Q54 111 73 152 Q92 193 114 267 Q136 341 164 461 L179 526 L521 526 L484 352 Q497 354 524 355.5 Q551 357 580 357 Q670 357 711 318.5 Q752 280 752 217 Q752 162 738.5 120.5 Q725 79 694 51 Q663 23 613 8.5 Q563 -6 490 -6 Q467 -6 442.5 -5 Q418 -4 395.5 -3 Q373 -2 355 -0.5 Q337 1 323 3 L417 444 L246 444 L238 411 Q208 287 180.5 205.5 Q153 124 124.5 76 Q96 28 64.5 8.5 Q33 -11 -5 -11 Q-16 -11 -26 -10 Q-36 -9 -44 -6 L-24 87 Z M659 203 Q659 237 636 256.5 Q613 276 556 276 Q530 276 504.5 274 Q479 272 467 271 L426 80 Q437 79 462 77.5 Q487 76 513 76 Q547 76 574.5 81 Q602 86 620.5 100.5 Q639 115 649 139.5 Q659 164 659 203 Z " />
<glyph glyph-name="uni045A" unicode="&#x45a;" horiz-adv-x="830" d="M500 -6 Q477 -6 452.5 -5 Q428 -4 405.5 -3 Q383 -2 365.5 -0.5 Q348 1 333 3 L380 228 L144 228 L96 0 L8 0 L120 526 L208 526 L161 308 L397 308 L444 526 L531 526 L494 352 Q507 354 534 355.5 Q561 357 590 357 Q680 357 721 318.5 Q762 280 762 216 Q762 162 748.5 120.5 Q735 79 704 51 Q673 23 623 8.5 Q573 -6 500 -6 Z M669 203 Q669 239 645.5 257.5 Q622 276 565 276 Q539 276 513.5 274 Q488 272 477 271 L436 80 Q447 79 472 77.5 Q497 76 523 76 Q557 76 584.5 81.5 Q612 87 630.5 101 Q649 115 659 139.5 Q669 164 669 203 Z " />
<glyph glyph-name="uni045B" unicode="&#x45b;" horiz-adv-x="605" d="M46 526 L140 526 L188 753 L276 753 L228 526 L421 526 L406 458 L213 458 L175 279 Q204 325 244.5 348 Q285 371 348 371 Q420 371 459 334 Q498 297 498 234 Q498 222 496.5 207 Q495 192 493 178 Q491 164 489 153 Q487 142 486 139 L456 0 L368 0 L398 142 Q400 153 402.5 171.5 Q405 190 405 204 Q405 243 381.5 266.5 Q358 290 309 290 Q178 290 146 142 L116 0 L28 0 L125 458 L31 458 L46 526 Z " />
<glyph glyph-name="uni045C" unicode="&#x45c;" horiz-adv-x="555" d="M120 526 L208 526 L163 313 L221 313 L429 526 L538 526 L288 275 L446 0 L346 0 L215 234 L146 234 L96 0 L8 0 L120 526 Z M414 756 L532 756 L377 617 L302 617 L414 756 Z " />
</font>
</svg>
