<?xml version="1.0" encoding="UTF-8"?>
<svg xmlns="http://www.w3.org/2000/svg" xmlns:xlink="http://www.w3.org/1999/xlink" version="1.2" >
<font id="SB Sans Interface">
<font-face  font-family="SB Sans Interface" units-per-em="1000" ascent="750" descent="-250" font-style="normal" font-weight="400" font-stretch="normal" cap-height="700" x-height="526" underline-position="-88" underline-thickness="50" />
<missing-glyph  horiz-adv-x="500" d="M442 8 L442 504 L58 504 L58 8 L442 8 Z M50 512 L450 512 L450 0 L50 0 L50 512 Z " />
<glyph glyph-name="null" d="" />
<glyph glyph-name="uni000D" unicode="&#xd;" horiz-adv-x="250" d="" />
<glyph glyph-name="space" unicode="&#x20;" horiz-adv-x="250" d="" />
<glyph glyph-name="exclam" unicode="&#x21;" horiz-adv-x="330" d="M165 -6 Q101 -6 101 58 Q101 122 165 122 Q229 122 229 58 Q229 -6 165 -6 Z M118 700 L212 700 L207 229 L123 229 L118 700 Z " />
<glyph glyph-name="quotedbl" unicode="&#x22;" horiz-adv-x="470" d="M93 700 L171 700 L171 420 L93 420 L93 700 Z M299 700 L377 700 L377 420 L299 420 L299 700 Z " />
<glyph glyph-name="numbersign" unicode="&#x23;" horiz-adv-x="600" d="M339 195 L206 195 L172 0 L92 0 L126 195 L25 195 L39 269 L139 269 L168 431 L67 431 L80 505 L181 505 L215 700 L295 700 L261 505 L394 505 L428 700 L508 700 L474 505 L575 505 L562 431 L461 431 L432 269 L533 269 L520 195 L419 195 L385 0 L305 0 L339 195 Z M219 269 L352 269 L381 431 L248 431 L219 269 Z " />
<glyph glyph-name="dollar" unicode="&#x24;" horiz-adv-x="600" d="M268 -10 Q211 -7 164.5 7.5 Q118 22 89 42 L89 148 Q104 135 124.5 122 Q145 109 170.5 98.5 Q196 88 225.5 81.5 Q255 75 288 75 Q364 75 396.5 103.5 Q429 132 429 185 Q429 229 404 254.5 Q379 280 341 296.5 Q303 313 259 327 Q215 341 177 364 Q139 387 114 423.5 Q89 460 89 522 Q89 603 131.5 650.5 Q174 698 268 708 L268 800 L342 800 L342 710 Q390 708 429 699 Q468 690 494 676 L494 570 Q465 595 418 610 Q371 625 322 625 Q283 625 256.5 619 Q230 613 214 600.5 Q198 588 191.5 569 Q185 550 185 525 Q185 482 210 458.5 Q235 435 273 419.5 Q311 404 354.5 390.5 Q398 377 436 354 Q474 331 499 292 Q524 253 524 188 Q524 103 480 52.5 Q436 2 342 -8 L342 -120 L268 -120 L268 -10 Z " />
<glyph glyph-name="percent" unicode="&#x25;" horiz-adv-x="860" d="M625 700 L700 700 L235 0 L160 0 L625 700 Z M233 374 Q155 374 112.5 417 Q70 460 70 540 Q70 619 113 662.5 Q156 706 233 706 Q311 706 354 663 Q397 620 397 540 Q397 461 354 417.5 Q311 374 233 374 Z M233 438 Q279 438 303 462.5 Q327 487 327 540 Q327 593 303 617.5 Q279 642 233 642 Q187 642 163.5 617.5 Q140 593 140 540 Q140 487 163.5 462.5 Q187 438 233 438 Z M627 -6 Q549 -6 506 37 Q463 80 463 160 Q463 239 506 282.5 Q549 326 627 326 Q705 326 747.5 283 Q790 240 790 160 Q790 81 747 37.5 Q704 -6 627 -6 Z M627 58 Q672 58 696 82.5 Q720 107 720 160 Q720 213 696 237.5 Q672 262 627 262 Q580 262 556.5 237.5 Q533 213 533 160 Q533 107 556.5 82.5 Q580 58 627 58 Z " />
<glyph glyph-name="ampersand" unicode="&#x26;" horiz-adv-x="800" d="M304 -11 Q191 -11 131.5 42 Q72 95 72 196 Q72 269 110.5 321.5 Q149 374 224 410 Q201 452 189 491 Q177 530 177 563 Q177 633 217.5 672 Q258 711 342 711 Q419 711 459 675 Q499 639 499 573 Q499 536 486 507.5 Q473 479 450 456.5 Q427 434 395 416.5 Q363 399 325 384 Q362 326 411.5 272 Q461 218 520 173 Q566 232 591.5 313 Q617 394 621 483 L704 483 Q699 389 669 297 Q639 205 584 134 Q655 91 718 79 L718 -11 Q670 -3 621.5 19 Q573 41 527 75 Q480 33 423.5 11 Q367 -11 304 -11 Z M312 68 Q354 68 392 81.5 Q430 95 463 123 Q401 173 349 231.5 Q297 290 259 352 Q211 329 184 294.5 Q157 260 157 207 Q157 142 193.5 105 Q230 68 312 68 Z M337 639 Q299 639 276.5 620 Q254 601 254 557 Q254 532 264 502 Q274 472 292 440 Q322 452 345.5 464 Q369 476 385.5 490.5 Q402 505 411 522.5 Q420 540 420 564 Q420 599 401 619 Q382 639 337 639 Z " />
<glyph glyph-name="quotesingle" unicode="&#x27;" horiz-adv-x="270" d="M93 700 L177 700 L177 420 L93 420 L93 700 Z " />
<glyph glyph-name="parenleft" unicode="&#x28;" horiz-adv-x="380" d="M88 287 Q88 369 104 438 Q120 507 147 565.5 Q174 624 210 673 Q246 722 286 764 L339 721 Q308 681 279 637 Q250 593 227.5 540.5 Q205 488 191.5 425 Q178 362 178 286 Q178 210 191.5 147.5 Q205 85 227.5 32.5 Q250 -20 279 -64 Q308 -108 339 -148 L286 -191 Q246 -149 210 -100 Q174 -51 147 7.5 Q120 66 104 135.5 Q88 205 88 287 Z " />
<glyph glyph-name="parenright" unicode="&#x29;" horiz-adv-x="380" d="M292 287 Q292 205 276 135.5 Q260 66 233 7.5 Q206 -51 170 -100 Q134 -149 94 -191 L41 -148 Q72 -108 101 -64 Q130 -20 152.5 32.5 Q175 85 188.5 147.5 Q202 210 202 287 Q202 363 188.5 425.5 Q175 488 152.5 540.5 Q130 593 101 637 Q72 681 41 721 L94 764 Q134 722 170 673 Q206 624 233 565.5 Q260 507 276 438 Q292 369 292 287 Z " />
<glyph glyph-name="asterisk" unicode="&#x2a;" horiz-adv-x="500" d="M110 380 L207 496 L67 533 L89 610 L224 548 L211 700 L289 700 L276 548 L410 610 L433 533 L293 495 L390 380 L326 335 L249 463 L173 335 L110 380 Z " />
<glyph glyph-name="plus" unicode="&#x2b;" horiz-adv-x="600" d="M95 399 L260 399 L260 563 L340 563 L340 399 L505 399 L505 318 L340 318 L340 154 L260 154 L260 318 L95 318 L95 399 Z " />
<glyph glyph-name="comma" unicode="&#x2c;" horiz-adv-x="320" d="M66 -110 Q110 -95 134.5 -65.5 Q159 -36 162 -6 Q96 -6 96 58 Q96 122 160 122 Q197 122 213.5 100 Q230 78 230 33 Q230 -2 220 -33 Q210 -64 192.5 -89.5 Q175 -115 151.5 -134 Q128 -153 101 -164 L66 -110 Z " />
<glyph glyph-name="hyphen" unicode="&#x2d;" horiz-adv-x="400" d="M45 315 L355 315 L355 235 L45 235 L45 315 Z " />
<glyph glyph-name="period" unicode="&#x2e;" horiz-adv-x="320" d="M160 -6 Q96 -6 96 58 Q96 122 160 122 Q224 122 224 58 Q224 -6 160 -6 Z " />
<glyph glyph-name="slash" unicode="&#x2f;" horiz-adv-x="400" d="M306 753 L390 753 L94 -180 L10 -180 L306 753 Z " />
<glyph glyph-name="zero" unicode="0" horiz-adv-x="570" d="M285 -11 Q231 -11 188.5 7 Q146 25 116.5 67 Q87 109 71 178 Q55 247 55 350 Q55 453 70.5 522.5 Q86 592 116 634 Q146 676 188.5 693.5 Q231 711 285 711 Q342 711 385 694.5 Q428 678 457 636.5 Q486 595 500.5 525.5 Q515 456 515 350 Q515 245 499.5 175.5 Q484 106 455 64.5 Q426 23 383 6 Q340 -11 285 -11 Z M285 75 Q318 75 343 86 Q368 97 385 127 Q402 157 410.5 210.5 Q419 264 419 350 Q419 436 410.5 489.5 Q402 543 385.5 573 Q369 603 343.5 614 Q318 625 285 625 Q252 625 227 614 Q202 603 185 572.5 Q168 542 159.5 488.5 Q151 435 151 350 Q151 267 160.5 213.5 Q170 160 187.5 129 Q205 98 230 86.5 Q255 75 285 75 Z " />
<glyph glyph-name="one" unicode="1" horiz-adv-x="570" d="M90 80 L281 80 L281 594 L90 471 L90 560 L308 700 L373 700 L373 80 L510 80 L510 0 L90 0 L90 80 Z " />
<glyph glyph-name="two" unicode="2" horiz-adv-x="570" d="M55 64 Q146 149 212 207.5 Q278 266 321 311.5 Q364 357 384.5 397.5 Q405 438 405 488 Q405 559 368.5 592 Q332 625 255 625 Q201 625 154 605.5 Q107 586 70 557 L70 665 Q111 686 163 698.5 Q215 711 271 711 Q392 711 445.5 658 Q499 605 499 506 Q499 448 481 402 Q463 356 424.5 309 Q386 262 327.5 208.5 Q269 155 188 83 L505 83 L505 0 L55 0 L55 64 Z " />
<glyph glyph-name="three" unicode="3" horiz-adv-x="570" d="M166 397 L234 397 Q313 397 350 428.5 Q387 460 387 518 Q387 574 355.5 600 Q324 626 245 626 Q185 626 137.5 607.5 Q90 589 59 569 L59 667 Q96 685 152.5 697.5 Q209 710 266 710 Q326 710 367.5 698.5 Q409 687 434 665 Q459 643 470 610 Q481 577 481 535 Q481 463 446.5 423 Q412 383 345 366 Q505 350 505 195 Q505 93 445 41 Q385 -11 259 -11 Q229 -11 199.5 -7.5 Q170 -4 142.5 2 Q115 8 91.5 16 Q68 24 50 33 L50 141 Q83 116 134.5 96 Q186 76 248 76 Q297 76 328.5 85 Q360 94 378 110.5 Q396 127 403 151 Q410 175 410 204 Q410 260 371.5 289 Q333 318 239 318 L166 318 L166 397 Z " />
<glyph glyph-name="four" unicode="4" horiz-adv-x="570" d="M356 181 L30 181 L30 239 L337 700 L449 700 L449 264 L540 264 L540 181 L449 181 L449 0 L356 0 L356 181 Z M356 264 L356 597 L136 264 L356 264 Z " />
<glyph glyph-name="five" unicode="5" horiz-adv-x="570" d="M109 700 L490 700 L490 617 L180 617 L165 429 Q183 432 216 433.5 Q249 435 287 435 Q409 435 462 382 Q515 329 515 227 Q515 172 501.5 128 Q488 84 458 53 Q428 22 378.5 5.5 Q329 -11 257 -11 Q209 -11 160 -2 Q111 7 75 22 L75 122 Q108 99 156 86 Q204 73 251 73 Q343 73 382.5 110 Q422 147 422 222 Q422 258 413.5 283.5 Q405 309 384.5 325 Q364 341 331 348.5 Q298 356 250 356 Q202 356 157.5 352 Q113 348 84 343 L109 700 Z " />
<glyph glyph-name="six" unicode="6" horiz-adv-x="570" d="M300 -11 Q173 -11 116.5 72.5 Q60 156 60 322 Q60 424 79 497.5 Q98 571 134.5 618.5 Q171 666 224 688.5 Q277 711 345 711 Q417 711 471 693 L471 594 Q448 608 416 617 Q384 626 338 626 Q298 626 262.5 611.5 Q227 597 200 564.5 Q173 532 157.5 481 Q142 430 142 358 Q142 353 142.5 345.5 Q143 338 143 329 Q169 388 216 419.5 Q263 451 329 451 Q422 451 471 393.5 Q520 336 520 235 Q520 171 502.5 124.5 Q485 78 455 48 Q425 18 385 3.5 Q345 -11 300 -11 Z M301 71 Q327 71 350 80 Q373 89 390.5 108 Q408 127 418 156 Q428 185 428 225 Q428 306 395.5 340.5 Q363 375 303 375 Q270 375 244.5 364.5 Q219 354 201.5 336.5 Q184 319 173 297.5 Q162 276 158 254 Q159 168 195.5 119.5 Q232 71 301 71 Z " />
<glyph glyph-name="seven" unicode="7" horiz-adv-x="570" d="M410 617 L45 617 L45 700 L515 700 L515 640 L241 0 L142 0 L410 617 Z " />
<glyph glyph-name="eight" unicode="8" horiz-adv-x="570" d="M287 -11 Q168 -11 111.5 42 Q55 95 55 192 Q55 256 86 304 Q117 352 192 371 Q71 401 71 531 Q71 615 123.5 663 Q176 711 286 711 Q395 711 444.5 667.5 Q494 624 494 545 Q494 479 467.5 435.5 Q441 392 377 373 Q450 358 482.5 312.5 Q515 267 515 195 Q515 150 501.5 112 Q488 74 460 46.5 Q432 19 389 4 Q346 -11 287 -11 Z M288 70 Q353 70 386.5 104 Q420 138 420 203 Q420 271 385 303.5 Q350 336 287 334 Q212 332 181 297 Q150 262 150 205 Q150 137 186 103.5 Q222 70 288 70 Z M288 399 Q354 401 378.5 434 Q403 467 403 519 Q403 578 374.5 604 Q346 630 285 630 Q221 630 192.5 599.5 Q164 569 164 515 Q164 461 194 429 Q224 397 288 399 Z " />
<glyph glyph-name="nine" unicode="9" horiz-adv-x="570" d="M223 -11 Q190 -11 157 -6 Q124 -1 97 9 L97 108 Q120 94 152 84 Q184 74 230 74 Q271 74 307 88.5 Q343 103 370 135.5 Q397 168 412.5 219 Q428 270 428 342 Q428 350 428 357.5 Q428 365 427 372 Q402 314 355.5 282 Q309 250 243 250 Q149 250 99.5 307.5 Q50 365 50 465 Q50 529 67.5 575.5 Q85 622 115 652 Q145 682 185 696.5 Q225 711 270 711 Q399 711 454.5 627 Q510 543 510 374 Q510 274 491 201.5 Q472 129 435 81.5 Q398 34 345 11.5 Q292 -11 223 -11 Z M268 326 Q302 326 327.5 336.5 Q353 347 371 364.5 Q389 382 399.5 405 Q410 428 413 453 Q411 536 376 582.5 Q341 629 269 629 Q243 629 219.5 620 Q196 611 178.5 592 Q161 573 151 544 Q141 515 141 475 Q141 396 174.5 361 Q208 326 268 326 Z " />
<glyph glyph-name="colon" unicode="&#x3a;" horiz-adv-x="330" d="M165 -6 Q101 -6 101 58 Q101 122 165 122 Q229 122 229 58 Q229 -6 165 -6 Z M165 384 Q101 384 101 448 Q101 512 165 512 Q229 512 229 448 Q229 384 165 384 Z " />
<glyph glyph-name="semicolon" unicode="&#x3b;" horiz-adv-x="330" d="M71 -110 Q115 -95 139.5 -65.5 Q164 -36 167 -6 Q101 -6 101 58 Q101 122 165 122 Q202 122 218.5 100 Q235 78 235 33 Q235 -2 225 -33 Q215 -64 197.5 -89.5 Q180 -115 156.5 -134 Q133 -153 106 -164 L71 -110 Z M165 384 Q101 384 101 448 Q101 512 165 512 Q229 512 229 448 Q229 384 165 384 Z " />
<glyph glyph-name="less" unicode="&#x3c;" horiz-adv-x="600" d="M95 318 L95 396 L505 595 L505 504 L195 359 L505 214 L505 118 L95 318 Z " />
<glyph glyph-name="equal" unicode="&#x3d;" horiz-adv-x="600" d="M95 294 L505 294 L505 214 L95 214 L95 294 Z M95 500 L505 500 L505 420 L95 420 L95 500 Z " />
<glyph glyph-name="greater" unicode="&#x3e;" horiz-adv-x="600" d="M505 396 L505 318 L95 118 L95 210 L405 355 L95 500 L95 595 L505 396 Z " />
<glyph glyph-name="question" unicode="&#x3f;" horiz-adv-x="480" d="M195 -6 Q131 -6 131 58 Q131 122 195 122 Q259 122 259 58 Q259 -6 195 -6 Z M152 219 Q152 265 165.5 295 Q179 325 200 347 Q221 369 244.5 385.5 Q268 402 289 420.5 Q310 439 323.5 463 Q337 487 337 523 Q337 572 306.5 599.5 Q276 627 207 627 Q157 627 119 613.5 Q81 600 50 580 L50 678 Q86 695 128 703 Q170 711 214 711 Q328 711 379 665 Q430 619 430 531 Q430 482 415.5 449.5 Q401 417 380 394 Q359 371 333.5 354 Q308 337 287 318.5 Q266 300 251.5 277 Q237 254 237 219 L152 219 Z " />
<glyph glyph-name="at" unicode="&#x40;" horiz-adv-x="900" d="M466 -131 Q367 -131 292.5 -101 Q218 -71 168 -16.5 Q118 38 93 114.5 Q68 191 68 284 Q68 375 93.5 452.5 Q119 530 168.5 586 Q218 642 291.5 673.5 Q365 705 461 705 Q548 705 616.5 679.5 Q685 654 733 605.5 Q781 557 806.5 487.5 Q832 418 832 331 Q832 262 818.5 211.5 Q805 161 782 128 Q759 95 727 79 Q695 63 658 63 Q607 63 582.5 85.5 Q558 108 552 162 Q540 114 507 88.5 Q474 63 417 63 Q331 63 294.5 118 Q258 173 258 288 Q258 406 304 460 Q350 514 427 514 Q456 514 476.5 507.5 Q497 501 511 490 Q525 479 533.5 464.5 Q542 450 547 433 L555 505 L618 505 L618 196 Q618 160 628.5 143 Q639 126 666 126 Q686 126 705 136.5 Q724 147 739 170.5 Q754 194 763 232.5 Q772 271 772 328 Q772 478 693 562 Q614 646 459 646 Q377 646 315.5 621 Q254 596 212.5 549 Q171 502 150.5 435 Q130 368 130 283 Q130 203 150 138 Q170 73 211.5 26 Q253 -21 316 -46.5 Q379 -72 465 -72 Q513 -72 560 -60.5 Q607 -49 637 -29 L637 -97 Q605 -111 560 -121 Q515 -131 466 -131 Z M436 128 Q490 128 515 163 Q540 198 540 268 L540 320 Q540 389 515 419 Q490 449 442 449 Q389 449 362 414 Q335 379 335 290 Q335 207 355.5 167.5 Q376 128 436 128 Z " />
<glyph glyph-name="A" unicode="A" horiz-adv-x="640" d="M270 700 L370 700 L620 0 L521 0 L458 185 L177 185 L114 0 L20 0 L270 700 Z M205 265 L430 265 L318 596 L205 265 Z " />
<glyph glyph-name="B" unicode="B" horiz-adv-x="625" d="M308 -6 Q273 -6 236 -4.5 Q199 -3 169 -1 Q134 2 101 5 L101 695 Q134 697 169 700 Q199 702 235 704 Q271 706 305 706 Q375 706 421 695 Q467 684 495 661.5 Q523 639 534.5 604.5 Q546 570 546 522 Q546 396 430 364 Q569 346 569 199 Q569 148 555 110 Q541 72 510.5 46 Q480 20 430 7 Q380 -6 308 -6 Z M474 202 Q474 262 440.5 291 Q407 320 322 320 L193 320 L193 82 Q209 81 228 80 Q245 79 267 78.5 Q289 78 315 78 Q361 78 391.5 85 Q422 92 440.5 107 Q459 122 466.5 145.5 Q474 169 474 202 Z M450 513 Q450 543 443.5 563.5 Q437 584 421 597 Q405 610 377.5 616 Q350 622 308 622 Q284 622 263 621.5 Q242 621 226 620 Q208 619 193 619 L193 397 L312 397 Q388 397 419 425.5 Q450 454 450 513 Z " />
<glyph glyph-name="C" unicode="C" horiz-adv-x="575" d="M358 -11 Q281 -11 223.5 9 Q166 29 127.5 73 Q89 117 69.5 186.5 Q50 256 50 355 Q50 448 70 515.5 Q90 583 128.5 626.5 Q167 670 224 690.5 Q281 711 355 711 Q392 711 422 706.5 Q452 702 475 697 Q501 691 522 683 L522 587 Q493 604 452 614.5 Q411 625 356 625 Q305 625 265.5 610.5 Q226 596 199.5 564 Q173 532 159.5 480.5 Q146 429 146 355 Q146 278 160 225 Q174 172 201 138.5 Q228 105 268 90 Q308 75 360 75 Q417 75 460.5 91 Q504 107 530 122 L530 25 Q508 15 481 7 Q458 0 426.5 -5.5 Q395 -11 358 -11 Z " />
<glyph glyph-name="D" unicode="D" horiz-adv-x="680" d="M290 -6 Q256 -6 222.5 -4.5 Q189 -3 162 -1 Q130 2 101 5 L101 695 Q130 697 162 700 Q189 702 223.5 704 Q258 706 293 706 Q383 706 447 687 Q511 668 551.5 626.5 Q592 585 611 518.5 Q630 452 630 358 Q630 168 546 81 Q462 -6 290 -6 Z M534 358 Q534 433 521.5 483 Q509 533 481 563 Q453 593 407 606 Q361 619 295 619 Q273 619 254.5 618 Q236 617 222 616 Q206 615 193 614 L193 86 Q205 84 221 83 Q235 82 252.5 81.5 Q270 81 292 81 Q355 81 400.5 95.5 Q446 110 476 143 Q506 176 520 229 Q534 282 534 358 Z " />
<glyph glyph-name="E" unicode="E" horiz-adv-x="575" d="M101 700 L520 700 L520 617 L193 617 L193 399 L480 399 L480 318 L193 318 L193 83 L520 83 L520 0 L101 0 L101 700 Z " />
<glyph glyph-name="F" unicode="F" horiz-adv-x="545" d="M101 701 L500 701 L500 617 L193 617 L193 379 L470 379 L470 295 L193 295 L193 0 L101 0 L101 701 Z " />
<glyph glyph-name="G" unicode="G" horiz-adv-x="650" d="M377 -11 Q294 -11 232.5 9.5 Q171 30 130.5 74 Q90 118 70 187.5 Q50 257 50 355 Q50 539 133 625 Q216 711 377 711 Q415 711 445 706.5 Q475 702 496 697 Q521 691 540 683 L540 587 Q512 601 470 613 Q428 625 377 625 Q261 625 203.5 562.5 Q146 500 146 355 Q146 278 160 224.5 Q174 171 202.5 138 Q231 105 274.5 90 Q318 75 377 75 Q409 75 438 79.5 Q467 84 490 92 L490 280 L357 280 L357 360 L580 360 L580 33 Q552 19 499 4 Q446 -11 377 -11 Z " />
<glyph glyph-name="H" unicode="H" horiz-adv-x="720" d="M101 700 L193 700 L193 401 L527 401 L527 700 L619 700 L619 0 L527 0 L527 317 L193 317 L193 0 L101 0 L101 700 Z " />
<glyph glyph-name="I" unicode="I" horiz-adv-x="330" d="M119 700 L211 700 L211 0 L119 0 L119 700 Z " />
<glyph glyph-name="J" unicode="J" horiz-adv-x="420" d="M140 -11 Q116 -11 97 -8.5 Q78 -6 64 -2 Q48 2 35 7 L35 104 Q46 95 60 89 Q72 84 90 79.5 Q108 75 131 75 Q177 75 199 99.5 Q221 124 221 183 L221 700 L314 700 L314 183 Q314 78 272 33.5 Q230 -11 140 -11 Z " />
<glyph glyph-name="K" unicode="K" horiz-adv-x="655" d="M266 317 L193 317 L193 0 L101 0 L101 700 L193 700 L193 400 L266 400 L497 700 L610 700 L344 360 L630 0 L514 0 L266 317 Z " />
<glyph glyph-name="L" unicode="L" horiz-adv-x="530" d="M101 700 L193 700 L193 83 L500 83 L500 0 L101 0 L101 700 Z " />
<glyph glyph-name="M" unicode="M" horiz-adv-x="850" d="M101 700 L216 700 L427 270 L638 700 L749 700 L749 0 L659 0 L659 459 Q659 477 659 490 Q659 503 659.5 516 Q660 529 660.5 542 Q661 555 663 573 L660 573 Q654 555 648.5 542 Q643 529 637.5 516.5 Q632 504 625 490.5 Q618 477 609 459 L464 164 L386 164 L241 459 Q232 477 225.5 490.5 Q219 504 213.5 516.5 Q208 529 202.5 542 Q197 555 190 573 L187 573 Q188 555 189 542 Q190 529 190.5 516 Q191 503 191 490 Q191 477 191 459 L191 0 L101 0 L101 700 Z " />
<glyph glyph-name="N" unicode="N" horiz-adv-x="740" d="M101 700 L204 700 L490 246 Q502 226 512.5 207 Q523 188 531 173 Q540 155 548 140 L550 140 Q549 155 548 173 Q547 188 547 207 Q547 226 547 246 L547 700 L639 700 L639 0 L536 0 L250 454 Q236 477 225.5 496 Q215 515 207 529 Q198 546 192 560 L190 560 Q190 546 191 529 Q192 515 192.5 496 Q193 477 193 454 L193 0 L101 0 L101 700 Z " />
<glyph glyph-name="O" unicode="O" horiz-adv-x="710" d="M355 -11 Q281 -11 224.5 10 Q168 31 129 75 Q90 119 70 187 Q50 255 50 350 Q50 445 70 513 Q90 581 129 625 Q168 669 224.5 690 Q281 711 355 711 Q431 711 488 691 Q545 671 583.5 627.5 Q622 584 641 515.5 Q660 447 660 350 Q660 255 640 187 Q620 119 581 75 Q542 31 485 10 Q428 -11 355 -11 Z M355 73 Q406 73 445 87.5 Q484 102 510.5 135 Q537 168 550.5 221 Q564 274 564 350 Q564 426 550.5 479 Q537 532 510.5 565 Q484 598 445 612.5 Q406 627 355 627 Q305 627 266 612 Q227 597 200.5 564 Q174 531 160 478.5 Q146 426 146 350 Q146 275 160 222.5 Q174 170 200.5 136.5 Q227 103 266 88 Q305 73 355 73 Z " />
<glyph glyph-name="P" unicode="P" horiz-adv-x="620" d="M101 695 Q130 697 163 700 Q191 702 225.5 704 Q260 706 297 706 Q372 706 424 692 Q476 678 508.5 648.5 Q541 619 555.5 574.5 Q570 530 570 469 Q570 347 504.5 285 Q439 223 297 223 Q274 223 255 223.5 Q236 224 222 225 Q206 226 193 228 L193 0 L101 0 L101 695 Z M474 469 Q474 509 465.5 537.5 Q457 566 436.5 584 Q416 602 382 610.5 Q348 619 297 619 Q274 619 255 618 Q236 617 222 616 Q206 615 193 614 L193 315 Q206 313 222 312 Q236 311 255 310.5 Q274 310 297 310 Q394 310 434 347.5 Q474 385 474 469 Z " />
<glyph glyph-name="Q" unicode="Q" horiz-adv-x="710" d="M353 -11 Q280 -11 223.5 10 Q167 31 128.5 75 Q90 119 70 187 Q50 255 50 350 Q50 445 70 513 Q90 581 129 625 Q168 669 224.5 690 Q281 711 355 711 Q431 711 488 691 Q545 671 583.5 627.5 Q622 584 641 515.5 Q660 447 660 350 Q660 195 608 111 Q556 27 456 1 L589 -160 L476 -160 L353 -11 Z M355 73 Q406 73 445 87.5 Q484 102 510.5 135 Q537 168 550.5 221 Q564 274 564 350 Q564 426 550.5 479 Q537 532 510.5 565 Q484 598 445 612.5 Q406 627 355 627 Q305 627 266 612 Q227 597 200.5 564 Q174 531 160 478.5 Q146 426 146 350 Q146 275 160 222.5 Q174 170 200.5 136.5 Q227 103 266 88 Q305 73 355 73 Z " />
<glyph glyph-name="R" unicode="R" horiz-adv-x="640" d="M333 269 Q323 268 313.5 268 Q304 268 293 268 L193 268 L193 0 L101 0 L101 695 Q128 697 159 700 Q185 702 219 704 Q253 706 290 706 Q360 706 409 693 Q458 680 488.5 653 Q519 626 532.5 585 Q546 544 546 489 Q546 411 516.5 360.5 Q487 310 423 287 L589 0 L485 0 L333 269 Z M450 486 Q450 522 442 547 Q434 572 416 588 Q398 604 368 611.5 Q338 619 293 619 Q273 619 255 618.5 Q237 618 223 617 Q206 616 192 616 L192 352 L293 352 Q377 352 413.5 385.5 Q450 419 450 486 Z " />
<glyph glyph-name="S" unicode="S" horiz-adv-x="580" d="M282 -11 Q218 -11 164.5 4.5 Q111 20 79 42 L79 148 Q94 135 114.5 122 Q135 109 160.5 98.5 Q186 88 215.5 81.5 Q245 75 278 75 Q354 75 386.5 103.5 Q419 132 419 185 Q419 229 394 254.5 Q369 280 331 296.5 Q293 313 249 327 Q205 341 167 364 Q129 387 104 423.5 Q79 460 79 522 Q79 613 133 662 Q187 711 308 711 Q363 711 409 701 Q455 691 484 676 L484 570 Q455 595 408 610 Q361 625 312 625 Q273 625 246.5 619 Q220 613 204 600.5 Q188 588 181.5 569 Q175 550 175 525 Q175 482 200 458.5 Q225 435 263 419.5 Q301 404 344.5 390.5 Q388 377 426 354 Q464 331 489 292 Q514 253 514 188 Q514 93 458 41 Q402 -11 282 -11 Z " />
<glyph glyph-name="T" unicode="T" horiz-adv-x="580" d="M244 617 L35 617 L35 700 L545 700 L545 617 L336 617 L336 0 L244 0 L244 617 Z " />
<glyph glyph-name="U" unicode="U" horiz-adv-x="670" d="M335 -11 Q269 -11 221 4.5 Q173 20 141.5 53.5 Q110 87 95 140.5 Q80 194 80 270 L80 700 L173 700 L173 274 Q173 217 182 179 Q191 141 210.5 117.5 Q230 94 260.5 84.5 Q291 75 335 75 Q379 75 410 84.5 Q441 94 460.5 117 Q480 140 488.5 178 Q497 216 497 274 L497 700 L590 700 L590 270 Q590 195 574.5 141.5 Q559 88 527.5 54 Q496 20 448 4.5 Q400 -11 335 -11 Z " />
<glyph glyph-name="V" unicode="V" horiz-adv-x="620" d="M20 700 L121 700 L317 111 L504 700 L600 700 L370 0 L260 0 L20 700 Z " />
<glyph glyph-name="W" unicode="W" horiz-adv-x="900" d="M30 700 L128 700 L230 244 Q234 226 236.5 212.5 Q239 199 241 186.5 Q243 174 245.5 161 Q248 148 251 130 L254 130 Q257 148 260 161 Q263 174 265.5 186.5 Q268 199 271 212.5 Q274 226 279 244 L398 700 L502 700 L624 244 Q629 226 632 212.5 Q635 199 638 186.5 Q641 174 643.5 161 Q646 148 650 130 L652 130 Q655 148 657 161 Q659 174 661.5 187 Q664 200 666.5 213 Q669 226 673 244 L775 700 L870 700 L712 0 L602 0 L477 469 Q471 490 466 510.5 Q461 531 457 547 Q453 565 450 583 L447 583 Q444 565 440 547 Q436 531 431 510.5 Q426 490 421 469 L298 0 L188 0 L30 700 Z " />
<glyph glyph-name="X" unicode="X" horiz-adv-x="630" d="M257 359 L39 700 L146 700 L316 434 L486 700 L591 700 L373 361 L605 0 L496 0 L314 285 L131 0 L25 0 L257 359 Z " />
<glyph glyph-name="Y" unicode="Y" horiz-adv-x="610" d="M264 271 L20 700 L126 700 L311 368 L489 700 L590 700 L356 271 L356 0 L264 0 L264 271 Z " />
<glyph glyph-name="Z" unicode="Z" horiz-adv-x="590" d="M50 61 L411 617 L60 617 L60 700 L530 700 L530 639 L169 83 L540 83 L540 0 L50 0 L50 61 Z " />
<glyph glyph-name="bracketleft" unicode="&#x5b;" horiz-adv-x="380" d="M108 753 L339 753 L339 676 L192 676 L192 -103 L339 -103 L339 -180 L108 -180 L108 753 Z " />
<glyph glyph-name="backslash" unicode="&#x5c;" horiz-adv-x="400" d="M10 753 L98 753 L390 -180 L302 -180 L10 753 Z " />
<glyph glyph-name="bracketright" unicode="&#x5d;" horiz-adv-x="380" d="M41 -103 L188 -103 L188 676 L41 676 L41 753 L272 753 L272 -180 L41 -180 L41 -103 Z " />
<glyph glyph-name="asciicircum" unicode="&#x5e;" horiz-adv-x="600" d="M259 700 L341 700 L525 357 L443 357 L299 631 L155 357 L75 357 L259 700 Z " />
<glyph glyph-name="underscore" unicode="&#x5f;" horiz-adv-x="420" d="M0 -112 L420 -112 L420 -180 L0 -180 L0 -112 Z " />
<glyph glyph-name="grave" unicode="&#x60;" horiz-adv-x="300" d="M51 756 L169 756 L249 617 L174 617 L51 756 Z " />
<glyph glyph-name="a" unicode="a" horiz-adv-x="535" d="M215 -11 Q134 -11 92.5 30 Q51 71 51 147 Q51 187 61.5 216.5 Q72 246 97 266 Q122 286 162 296 Q202 306 261 306 L371 306 L371 353 Q371 409 345 432.5 Q319 456 249 456 Q202 456 161 443 Q120 430 92 411 L92 503 Q121 517 166 527 Q211 537 261 537 Q315 537 353 526.5 Q391 516 414.5 493.5 Q438 471 448.5 436 Q459 401 459 351 L459 0 L380 0 L375 90 Q357 48 318 18.5 Q279 -11 215 -11 Z M238 67 Q300 67 335.5 103.5 Q371 140 371 208 L371 244 L267 244 Q195 244 168 221.5 Q141 199 141 151 Q141 109 164 88 Q187 67 238 67 Z " />
<glyph glyph-name="b" unicode="b" horiz-adv-x="590" d="M331 -11 Q296 -11 269.5 -3 Q243 5 223.5 18.5 Q204 32 191 50 Q178 68 169 87 L163 0 L81 0 L81 753 L169 753 L169 441 Q180 461 195 478.5 Q210 496 230.5 509 Q251 522 278.5 529.5 Q306 537 342 537 Q391 537 428 522.5 Q465 508 489.5 476 Q514 444 526.5 393 Q539 342 539 268 Q539 192 526 139 Q513 86 486.5 52.5 Q460 19 421 4 Q382 -11 331 -11 Z M309 70 Q344 70 370.5 79.5 Q397 89 414.5 112 Q432 135 440.5 173 Q449 211 449 268 Q449 321 440.5 357 Q432 393 415 415 Q398 437 372.5 446.5 Q347 456 313 456 Q243 456 206 416.5 Q169 377 169 296 L169 230 Q169 152 207 111 Q245 70 309 70 Z " />
<glyph glyph-name="c" unicode="c" horiz-adv-x="475" d="M300 -11 Q237 -11 190 4.5 Q143 20 112.5 54 Q82 88 66.5 141 Q51 194 51 268 Q51 407 113 472 Q175 537 293 537 Q347 537 382 527.5 Q417 518 431 512 L431 417 Q408 433 375 444.5 Q342 456 300 456 Q222 456 181.5 412 Q141 368 141 268 Q141 162 183 116 Q225 70 310 70 Q347 70 383 82.5 Q419 95 440 112 L440 21 Q426 13 390.5 1 Q355 -11 300 -11 Z " />
<glyph glyph-name="d" unicode="d" horiz-adv-x="590" d="M421 89 Q412 69 398.5 51 Q385 33 365 19.5 Q345 6 318 -2.5 Q291 -11 256 -11 Q205 -11 166.5 4 Q128 19 102.5 52 Q77 85 64 138 Q51 191 51 268 Q51 409 103 473 Q155 537 252 537 Q318 537 361 510.5 Q404 484 421 439 L421 753 L509 753 L509 0 L427 0 L421 89 Z M141 268 Q141 212 150 174 Q159 136 176.5 113 Q194 90 220 80 Q246 70 281 70 Q345 70 383 111 Q421 152 421 232 L421 299 Q421 371 386.5 413.5 Q352 456 277 456 Q209 456 175 414 Q141 372 141 268 Z " />
<glyph glyph-name="e" unicode="e" horiz-adv-x="550" d="M297 -11 Q170 -11 110.5 55.5 Q51 122 51 266 Q51 405 112 471 Q173 537 280 537 Q394 537 446.5 476 Q499 415 499 281 L499 240 L139 240 Q141 151 180 109 Q219 67 303 67 Q353 67 396 83.5 Q439 100 466 123 L466 35 Q441 18 399.5 3.5 Q358 -11 297 -11 Z M280 462 Q212 462 176.5 425 Q141 388 139 304 L411 304 Q411 341 404.5 370.5 Q398 400 383 420.5 Q368 441 343 451.5 Q318 462 280 462 Z " />
<glyph glyph-name="f" unicode="f" horiz-adv-x="400" d="M129 447 L35 447 L35 526 L129 526 L129 599 Q129 684 165.5 721.5 Q202 759 283 759 Q309 759 330 756 Q351 753 365 748 L365 660 Q353 667 334 672 Q315 677 291 677 Q250 677 233.5 658 Q217 639 217 587 L217 526 L365 526 L365 447 L217 447 L217 0 L129 0 L129 447 Z " />
<glyph glyph-name="g" unicode="g" horiz-adv-x="590" d="M272 -191 Q212 -191 165.5 -180 Q119 -169 92 -155 L92 -53 Q102 -62 119.5 -72.5 Q137 -83 160 -91 Q183 -99 210.5 -104.5 Q238 -110 270 -110 Q351 -110 386 -76 Q421 -42 421 29 L421 105 Q412 85 398.5 67 Q385 49 365 35.5 Q345 22 318 13.5 Q291 5 256 5 Q154 5 102.5 67 Q51 129 51 272 Q51 410 103 473.5 Q155 537 252 537 Q318 537 361 510.5 Q404 484 421 439 L427 526 L509 526 L509 35 Q509 -83 451.5 -137 Q394 -191 272 -191 Z M281 86 Q345 86 383 128 Q421 170 421 247 L421 304 Q421 338 412.5 366 Q404 394 386 414 Q368 434 341 445 Q314 456 277 456 Q209 456 175 415 Q141 374 141 276 Q141 223 150 186.5 Q159 150 176.5 127.5 Q194 105 220 95.5 Q246 86 281 86 Z " />
<glyph glyph-name="h" unicode="h" horiz-adv-x="585" d="M81 753 L169 753 L169 437 Q191 485 230 511 Q269 537 332 537 Q421 537 465 491 Q509 445 509 339 L509 0 L421 0 L421 308 Q421 350 414.5 378.5 Q408 407 393.5 424.5 Q379 442 356.5 449 Q334 456 302 456 Q239 456 204 419 Q169 382 169 308 L169 0 L81 0 L81 753 Z " />
<glyph glyph-name="i" unicode="i" horiz-adv-x="290" d="M101 526 L189 526 L189 0 L101 0 L101 526 Z M145 632 Q89 632 89 686 Q89 740 145 740 Q201 740 201 686 Q201 632 145 632 Z " />
<glyph glyph-name="j" unicode="j" horiz-adv-x="290" d="M53 -186 Q27 -186 6.5 -182 Q-14 -178 -21 -174 L-21 -86 Q-10 -94 5.5 -99 Q21 -104 40 -104 Q72 -104 86.5 -87 Q101 -70 101 -24 L101 526 L189 526 L189 -27 Q189 -112 155 -149 Q121 -186 53 -186 Z M145 632 Q89 632 89 686 Q89 740 145 740 Q201 740 201 686 Q201 632 145 632 Z " />
<glyph glyph-name="k" unicode="k" horiz-adv-x="555" d="M81 753 L169 753 L169 313 L229 313 L396 526 L499 526 L300 275 L519 0 L413 0 L229 234 L169 234 L169 0 L81 0 L81 753 Z " />
<glyph glyph-name="l" unicode="l" horiz-adv-x="315" d="M205 -6 Q138 -6 107 26 Q76 58 76 126 L76 753 L164 753 L164 143 Q164 104 177 90.5 Q190 77 221 77 Q238 77 255 82 Q272 87 280 91 L280 9 Q272 6 252 0 Q232 -6 205 -6 Z " />
<glyph glyph-name="m" unicode="m" horiz-adv-x="835" d="M81 526 L163 526 L169 439 Q189 488 224.5 512.5 Q260 537 315 537 Q375 537 409 508.5 Q443 480 453 429 Q475 490 513.5 513.5 Q552 537 609 537 Q678 537 718.5 492 Q759 447 759 350 L759 0 L671 0 L671 323 Q671 396 645.5 426 Q620 456 572 456 Q523 456 493.5 423.5 Q464 391 464 323 L464 0 L376 0 L376 323 Q376 396 351 426 Q326 456 279 456 Q228 456 198.5 423.5 Q169 391 169 323 L169 0 L81 0 L81 526 Z " />
<glyph glyph-name="n" unicode="n" horiz-adv-x="585" d="M81 526 L163 526 L169 437 Q191 485 230 511 Q269 537 332 537 Q421 537 465 491 Q509 445 509 339 L509 0 L421 0 L421 310 Q421 352 414.5 380 Q408 408 393.5 425 Q379 442 356.5 449 Q334 456 302 456 Q239 456 204 419 Q169 382 169 310 L169 0 L81 0 L81 526 Z " />
<glyph glyph-name="o" unicode="o" horiz-adv-x="570" d="M285 -11 Q170 -11 110.5 54 Q51 119 51 263 Q51 403 113 470 Q175 537 285 537 Q402 537 460.5 473.5 Q519 410 519 263 Q519 119 458.5 54 Q398 -11 285 -11 Z M285 70 Q321 70 348 80 Q375 90 393 112.5 Q411 135 420 172 Q429 209 429 263 Q429 317 420 354 Q411 391 393 413.5 Q375 436 348 446 Q321 456 285 456 Q216 456 178.5 412.5 Q141 369 141 263 Q141 209 150 172 Q159 135 177 112.5 Q195 90 222 80 Q249 70 285 70 Z " />
<glyph glyph-name="p" unicode="p" horiz-adv-x="590" d="M81 526 L163 526 L169 441 Q180 461 195 478.5 Q210 496 230.5 509 Q251 522 278.5 529.5 Q306 537 342 537 Q391 537 428 522.5 Q465 508 489.5 476 Q514 444 526.5 393 Q539 342 539 268 Q539 192 526 139 Q513 86 486.5 52.5 Q460 19 421 4 Q382 -11 331 -11 Q296 -11 269.5 -3 Q243 5 223.5 18.5 Q204 32 191 50 Q178 68 169 87 L169 -180 L81 -180 L81 526 Z M449 268 Q449 321 440.5 357 Q432 393 415 415 Q398 437 372.5 446.5 Q347 456 313 456 Q243 456 206 416.5 Q169 377 169 296 L169 230 Q169 152 207 111 Q245 70 310 70 Q345 70 371 79.5 Q397 89 414.5 112 Q432 135 440.5 173 Q449 211 449 268 Z " />
<glyph glyph-name="q" unicode="q" horiz-adv-x="590" d="M421 89 Q412 69 398.5 51 Q385 33 365 19.5 Q345 6 318 -2.5 Q291 -11 256 -11 Q205 -11 166.5 4 Q128 19 102.5 52 Q77 85 64 138 Q51 191 51 268 Q51 409 103 473 Q155 537 252 537 Q318 537 361 510.5 Q404 484 421 439 L427 526 L509 526 L509 -180 L421 -180 L421 89 Z M141 268 Q141 212 150 174 Q159 136 176.5 113 Q194 90 220 80 Q246 70 281 70 Q345 70 383 111 Q421 152 421 232 L421 299 Q421 371 386.5 413.5 Q352 456 277 456 Q209 456 175 414 Q141 372 141 268 Z " />
<glyph glyph-name="r" unicode="r" horiz-adv-x="410" d="M81 526 L158 526 L164 436 Q183 490 219.5 513.5 Q256 537 307 537 Q324 537 338.5 534.5 Q353 532 359 530 L359 435 Q346 444 328 450 Q310 456 284 456 Q230 456 199.5 420.5 Q169 385 169 304 L169 0 L81 0 L81 526 Z " />
<glyph glyph-name="s" unicode="s" horiz-adv-x="475" d="M227 -11 Q141 -11 71 20 L71 118 Q100 93 139.5 80 Q179 67 225 67 Q279 67 301.5 87 Q324 107 324 145 Q324 177 305 193.5 Q286 210 257 220 Q228 230 195 238.5 Q162 247 133 263 Q104 279 85 306.5 Q66 334 66 383 Q66 459 109 498 Q152 537 252 537 Q292 537 329 529.5 Q366 522 389 513 L389 418 Q360 438 326.5 448.5 Q293 459 253 459 Q199 459 177.5 441 Q156 423 156 390 Q156 360 175 344.5 Q194 329 223 319.5 Q252 310 285 301.5 Q318 293 347 276.5 Q376 260 395 231 Q414 202 414 151 Q414 70 370 29.5 Q326 -11 227 -11 Z " />
<glyph glyph-name="t" unicode="t" horiz-adv-x="435" d="M277 -6 Q199 -6 164 32 Q129 70 129 156 L129 447 L35 447 L35 526 L129 526 L129 631 L217 661 L217 526 L385 526 L385 447 L217 447 L217 163 Q217 115 234 95.5 Q251 76 290 76 Q321 76 344 85 Q367 94 385 107 L385 19 Q371 9 341.5 1.5 Q312 -6 277 -6 Z " />
<glyph glyph-name="u" unicode="u" horiz-adv-x="580" d="M249 -11 Q164 -11 120 35 Q76 81 76 187 L76 526 L164 526 L164 216 Q164 174 170.5 146 Q177 118 191 101 Q205 84 227 77 Q249 70 279 70 Q341 70 376 107 Q411 144 411 216 L411 526 L499 526 L499 0 L417 0 L411 89 Q389 44 350.5 16.5 Q312 -11 249 -11 Z " />
<glyph glyph-name="v" unicode="v" horiz-adv-x="520" d="M20 526 L116 526 L262 104 L408 526 L500 526 L309 0 L211 0 L20 526 Z " />
<glyph glyph-name="w" unicode="w" horiz-adv-x="760" d="M36 526 L127 526 L206 191 L217 136 L222 111 L224 111 L229 136 Q231 147 234.5 161.5 Q238 176 242 191 L336 526 L428 526 L523 191 Q527 176 530.5 161.5 Q534 147 536 136 L541 111 L543 111 Q545 123 547 136 Q549 147 551 161.5 Q553 176 557 191 L636 526 L724 526 L600 0 L496 0 L400 339 Q391 369 386 394 L381 419 L379 419 Q377 407 373 394 Q370 383 366.5 368.5 Q363 354 359 339 L264 0 L160 0 L36 526 Z " />
<glyph glyph-name="x" unicode="x" horiz-adv-x="540" d="M214 272 L49 526 L149 526 L271 338 L394 526 L491 526 L326 274 L504 0 L404 0 L269 210 L133 0 L36 0 L214 272 Z " />
<glyph glyph-name="y" unicode="y" horiz-adv-x="520" d="M161 -191 Q141 -191 124 -187 Q107 -183 102 -180 L102 -94 Q111 -101 123 -105.5 Q135 -110 152 -110 Q164 -110 174 -106.5 Q184 -103 193.5 -91 Q203 -79 212.5 -57.5 Q222 -36 233 0 L20 526 L116 526 L275 117 L408 526 L500 526 L320 -3 Q299 -65 281 -102 Q263 -139 244.5 -158.5 Q226 -178 206 -184.5 Q186 -191 161 -191 Z " />
<glyph glyph-name="z" unicode="z" horiz-adv-x="490" d="M45 55 L324 447 L55 447 L55 526 L438 526 L438 471 L160 79 L445 79 L445 0 L45 0 L45 55 Z " />
<glyph glyph-name="braceleft" unicode="&#x7b;" horiz-adv-x="380" d="M275 -180 Q231 -180 201 -167.5 Q171 -155 153 -133.5 Q135 -112 127.5 -83 Q120 -54 120 -21 L120 150 Q120 198 100.5 224 Q81 250 43 252 L43 321 Q81 323 100.5 350 Q120 377 120 424 L120 598 Q120 631 127.5 659 Q135 687 153 708 Q171 729 201 741 Q231 753 275 753 L339 753 L339 676 L287 676 Q239 676 222 651 Q205 626 205 584 L205 423 Q205 396 202 374 Q199 352 190 335 Q181 318 164.5 306 Q148 294 122 287 Q148 281 164.5 268.5 Q181 256 190 238 Q199 220 202 197 Q205 174 205 148 L205 -7 Q205 -49 222 -76 Q239 -103 287 -103 L339 -103 L339 -180 L275 -180 Z " />
<glyph glyph-name="bar" unicode="&#x7c;" horiz-adv-x="300" d="M108 753 L192 753 L192 -180 L108 -180 L108 753 Z " />
<glyph glyph-name="braceright" unicode="&#x7d;" horiz-adv-x="380" d="M41 -103 L93 -103 Q141 -103 158 -78 Q175 -53 175 -11 L175 150 Q175 177 178 199 Q181 221 190 238 Q199 255 215.5 267 Q232 279 258 287 Q232 293 215.5 305 Q199 317 190 335 Q181 353 178 376 Q175 399 175 426 L175 584 Q175 626 158 651 Q141 676 93 676 L41 676 L41 753 L105 753 Q149 753 179 741 Q209 729 227 708 Q245 687 252.5 659 Q260 631 260 598 L260 423 Q260 375 279.5 349 Q299 323 337 321 L337 252 Q299 250 279.5 223 Q260 196 260 149 L260 -25 Q260 -58 252.5 -86 Q245 -114 227 -135 Q209 -156 179 -168 Q149 -180 105 -180 L41 -180 L41 -103 Z " />
<glyph glyph-name="asciitilde" unicode="&#x7e;" horiz-adv-x="600" d="M95 389 Q114 411 138.5 424.5 Q163 438 198 438 Q231 438 258 426 Q285 414 308.5 400 Q332 386 354.5 374 Q377 362 402 362 Q436 362 461.5 380 Q487 398 505 418 L505 331 Q486 309 461.5 295.5 Q437 282 402 282 Q369 282 342 294 Q315 306 291.5 320 Q268 334 245.5 346 Q223 358 198 358 Q164 358 138.5 340 Q113 322 95 302 L95 389 Z " />
<glyph glyph-name="uni00A0" unicode="&#xa0;" horiz-adv-x="250" d="" />
<glyph glyph-name="exclamdown" unicode="&#xa1;" horiz-adv-x="330" d="M165 532 Q229 532 229 468 Q229 404 165 404 Q101 404 101 468 Q101 532 165 532 Z M212 -180 L118 -180 L123 296 L207 296 L212 -180 Z " />
<glyph glyph-name="cent" unicode="&#xa2;" horiz-adv-x="600" d="M304 -6 Q205 8 158 73.5 Q111 139 111 268 Q111 389 159 454 Q207 519 304 533 L304 626 L383 626 L383 536 Q438 534 468 524 Q498 514 511 508 L511 414 Q488 430 455 443 Q422 456 370 456 Q284 456 242.5 412 Q201 368 201 268 Q201 162 244.5 116 Q288 70 380 70 Q427 70 463 84.5 Q499 99 520 116 L520 24 Q513 20 502 14 Q491 8 474.5 3 Q458 -2 435.5 -6 Q413 -10 383 -11 L383 -120 L304 -120 L304 -6 Z " />
<glyph glyph-name="sterling" unicode="&#xa3;" horiz-adv-x="600" d="M47 81 L157 81 L157 323 L47 323 L47 394 L157 394 L157 478 Q157 513 166 553.5 Q175 594 199.5 629 Q224 664 269 687.5 Q314 711 386 711 Q434 711 471 702.5 Q508 694 533 686 L533 601 Q504 612 472 621 Q440 630 394 630 Q355 630 328 618 Q301 606 283.5 585 Q266 564 258 535 Q250 506 250 472 L250 394 L433 394 L433 323 L250 323 L250 81 L533 81 L533 0 L47 0 L47 81 Z " />
<glyph glyph-name="currency" unicode="&#xa4;" horiz-adv-x="600" d="M423 181 Q397 162 365.5 151.5 Q334 141 299 141 Q227 141 175 181 L110 116 L66 161 L130 225 Q111 251 100.5 283 Q90 315 90 350 Q90 385 100.5 416.5 Q111 448 130 474 L66 539 L111 584 L175 519 Q201 539 232.5 549.5 Q264 560 299 560 Q334 560 366 549.5 Q398 539 424 519 L490 585 L534 541 L468 474 Q487 448 498 416.5 Q509 385 509 350 Q509 315 498.5 283.5 Q488 252 468 226 L534 161 L489 116 L423 181 Z M299 214 Q327 214 352 224.5 Q377 235 395.5 253.5 Q414 272 424.5 297 Q435 322 435 350 Q435 378 424.5 403 Q414 428 395.5 446.5 Q377 465 352 475.5 Q327 486 299 486 Q271 486 246.5 475.5 Q222 465 203.5 446.5 Q185 428 174.5 403 Q164 378 164 350 Q164 322 174.5 297 Q185 272 203.5 253.5 Q222 235 246.5 224.5 Q271 214 299 214 Z " />
<glyph glyph-name="yen" unicode="&#xa5;" horiz-adv-x="600" d="M86 337 L219 337 L20 700 L126 700 L306 362 L479 700 L580 700 L389 337 L524 337 L524 265 L351 265 L351 199 L524 199 L524 127 L351 127 L351 0 L259 0 L259 127 L86 127 L86 199 L259 199 L259 265 L86 265 L86 337 Z " />
<glyph glyph-name="brokenbar" unicode="&#xa6;" horiz-adv-x="300" d="M108 212 L192 212 L192 -180 L108 -180 L108 212 Z M108 753 L192 753 L192 362 L108 362 L108 753 Z " />
<glyph glyph-name="section" unicode="&#xa7;" horiz-adv-x="530" d="M240 -111 Q201 -111 158.5 -104 Q116 -97 81 -83 L81 0 Q122 -20 157.5 -28 Q193 -36 231 -36 Q266 -36 289 -31 Q312 -26 325.5 -17 Q339 -8 344.5 4.5 Q350 17 350 33 Q350 66 318.5 89 Q287 112 231 137 Q194 153 162.5 169 Q131 185 108.5 204.5 Q86 224 73.5 249.5 Q61 275 61 310 Q61 352 86 386.5 Q111 421 154 450 Q120 471 103 498 Q86 525 86 562 Q86 633 138.5 672 Q191 711 287 711 Q335 711 372.5 702.5 Q410 694 433 686 L433 605 Q391 622 358 629 Q325 636 290 636 Q241 636 211 620.5 Q181 605 181 566 Q181 551 186 539 Q191 527 203 516 Q215 505 234.5 494 Q254 483 283 469 Q313 455 346 440 Q379 425 406 405 Q433 385 451 358.5 Q469 332 469 295 Q469 256 444.5 218.5 Q420 181 380 150 Q410 128 427.5 102 Q445 76 445 38 Q445 -40 389 -75.5 Q333 -111 240 -111 Z M321 181 Q343 201 361.5 225.5 Q380 250 380 282 Q380 315 358.5 338 Q337 361 291 384 Q287 385 276.5 390 Q266 395 254.5 400 Q243 405 232 410.5 Q221 416 215 419 Q185 398 167.5 374.5 Q150 351 150 324 Q150 288 170.5 265.5 Q191 243 243 218 Q248 215 259 210 Q270 205 282.5 199 Q295 193 305.5 188 Q316 183 321 181 Z " />
<glyph glyph-name="dieresis" unicode="&#xa8;" horiz-adv-x="410" d="M110 634 Q55 634 55 686 Q55 739 110 739 Q165 739 165 686 Q165 634 110 634 Z M300 634 Q245 634 245 686 Q245 739 300 739 Q355 739 355 686 Q355 634 300 634 Z " />
<glyph glyph-name="copyright" unicode="&#xa9;" horiz-adv-x="830" d="M429 153 Q330 153 285 206.5 Q240 260 240 351 Q240 450 288.5 499.5 Q337 549 430 549 Q457 549 478.5 545.5 Q500 542 516 537 L516 480 Q498 487 477 489.5 Q456 492 438 492 Q308 492 308 352 Q308 276 342 243.5 Q376 211 439 211 Q457 211 477 214.5 Q497 218 516 226 L516 168 Q499 161 478 157 Q457 153 429 153 Z M415 -11 Q338 -11 272.5 16.5 Q207 44 158 93 Q109 142 81.5 207.5 Q54 273 54 350 Q54 426 81.5 492 Q109 558 158 607 Q207 656 272.5 683.5 Q338 711 415 711 Q491 711 557 683.5 Q623 656 672 607 Q721 558 748.5 492 Q776 426 776 350 Q776 274 748.5 208 Q721 142 672 93.5 Q623 45 557 17 Q491 -11 415 -11 Z M415 49 Q478 49 533 72 Q588 95 628 135.5 Q668 176 691 231 Q714 286 714 350 Q714 414 691 469 Q668 524 628 564.5 Q588 605 533 628 Q478 651 415 651 Q352 651 297 628 Q242 605 202 564.5 Q162 524 139 469 Q116 414 116 350 Q116 286 139 231 Q162 176 202 135.5 Q242 95 297 72 Q352 49 415 49 Z " />
<glyph glyph-name="ordfeminine" unicode="&#xaa;" horiz-adv-x="370" d="M150 374 Q93 374 66.5 398.5 Q40 423 40 471 Q40 520 71 546.5 Q102 573 178 573 L251 573 L251 589 Q251 619 235 633.5 Q219 648 174 648 Q147 648 118.5 640.5 Q90 633 70 623 L70 687 Q91 695 120 700.5 Q149 706 183 706 Q259 706 289.5 676.5 Q320 647 320 584 L320 380 L260 380 L253 433 Q241 412 217 393 Q193 374 150 374 Z M173 430 Q208 430 229.5 451.5 Q251 473 251 505 L251 526 L187 526 Q143 526 127 514 Q111 502 111 476 Q111 453 125.5 441.5 Q140 430 173 430 Z " />
<glyph glyph-name="guillemotleft" unicode="&#xab;" horiz-adv-x="550" d="M183 484 L269 484 L138 277 L269 68 L180 68 L51 275 L183 484 Z M393 484 L479 484 L348 277 L479 68 L390 68 L261 275 L393 484 Z " />
<glyph glyph-name="logicalnot" unicode="&#xac;" horiz-adv-x="600" d="M95 399 L505 399 L505 188 L424 188 L424 318 L95 318 L95 399 Z " />
<glyph glyph-name="uni00AD" unicode="&#xad;" horiz-adv-x="400" d="M45 315 L355 315 L355 235 L45 235 L45 315 Z " />
<glyph glyph-name="registered" unicode="&#xae;" horiz-adv-x="600" d="M50 517 Q50 572 68 617.5 Q86 663 119 695.5 Q152 728 198 746 Q244 764 300 764 Q356 764 402 746 Q448 728 481 695.5 Q514 663 532 617.5 Q550 572 550 517 Q550 462 532 417 Q514 372 481 339.5 Q448 307 402 289 Q356 271 300 271 Q244 271 198 289 Q152 307 119 339.5 Q86 372 68 417 Q50 462 50 517 Z M96 518 Q96 473 111 435.5 Q126 398 153 371.5 Q180 345 217.5 330 Q255 315 300 315 Q345 315 382.5 330 Q420 345 447 371.5 Q474 398 489 435.5 Q504 473 504 518 Q504 563 489 600.5 Q474 638 447 665 Q420 692 382.5 706.5 Q345 721 300 721 Q255 721 217.5 706.5 Q180 692 153 665 Q126 638 111 600.5 Q96 563 96 518 Z M203 659 L308 659 Q323 659 339.5 656.5 Q356 654 370 645 Q384 636 393 619.5 Q402 603 402 575 Q402 545 387.5 525 Q373 505 353 499 L421 390 L362 390 L302 490 L256 490 L256 390 L203 390 L203 659 Z M303 534 Q320 534 334 542 Q348 550 348 574 Q348 599 335 606 Q322 613 302 613 L255 613 L255 534 L303 534 Z " />
<glyph glyph-name="overscore" unicode="&#xaf;" horiz-adv-x="320" d="M31 709 L289 709 L289 643 L31 643 L31 709 Z " />
<glyph glyph-name="degree" unicode="&#xb0;" horiz-adv-x="400" d="M201 389 Q167 389 137.5 401.5 Q108 414 86 436 Q64 458 51.5 487.5 Q39 517 39 550 Q39 583 51.5 612.5 Q64 642 86 664 Q108 686 137.5 698.5 Q167 711 201 711 Q234 711 263 698.5 Q292 686 314 664 Q336 642 348.5 612.5 Q361 583 361 550 Q361 517 348.5 487.5 Q336 458 314 436 Q292 414 263 401.5 Q234 389 201 389 Z M201 459 Q239 459 265 485.5 Q291 512 291 550 Q291 588 265 614.5 Q239 641 201 641 Q163 641 136.5 614.5 Q110 588 110 550 Q110 512 136.5 485.5 Q163 459 201 459 Z " />
<glyph glyph-name="plusminus" unicode="&#xb1;" horiz-adv-x="600" d="M95 475 L260 475 L260 640 L340 640 L340 475 L505 475 L505 395 L340 395 L340 247 L260 247 L260 395 L95 395 L95 475 Z M95 161 L505 161 L505 80 L95 80 L95 161 Z " />
<glyph glyph-name="twosuperior" unicode="&#xb2;" horiz-adv-x="450" d="M55 448 L178 532 Q210 554 233 572 Q256 590 271 606.5 Q286 623 293.5 639 Q301 655 301 672 Q301 707 276 724 Q251 741 203 741 Q168 741 134 734.5 Q100 728 74 714 L74 782 Q108 795 142 800.5 Q176 806 214 806 Q292 806 336 776 Q380 746 380 686 Q380 660 370.5 636.5 Q361 613 341.5 590 Q322 567 291.5 543.5 Q261 520 218 493 L148 446 L148 445 L385 445 L385 380 L55 380 L55 448 Z " />
<glyph glyph-name="threesuperior" unicode="&#xb3;" horiz-adv-x="450" d="M124 624 L198 624 Q246 624 271.5 638 Q297 652 297 683 Q297 715 272 728.5 Q247 742 193 742 Q158 742 122.5 737.5 Q87 733 62 722 L62 786 Q94 798 135.5 802 Q177 806 215 806 Q299 806 336.5 775.5 Q374 745 374 698 Q374 656 346 634 Q318 612 270 600 L270 598 Q304 593 326 583.5 Q348 574 361 560.5 Q374 547 379.5 531.5 Q385 516 385 500 Q385 467 370.5 443.5 Q356 420 331 404.5 Q306 389 272 381.5 Q238 374 200 374 Q167 374 128.5 377.5 Q90 381 55 394 L55 460 Q86 447 121 442.5 Q156 438 191 438 Q254 438 280 456.5 Q306 475 306 503 Q306 539 280.5 554 Q255 569 204 569 L124 569 L124 624 Z " />
<glyph glyph-name="acute" unicode="&#xb4;" horiz-adv-x="300" d="M133 756 L249 756 L124 617 L51 617 L133 756 Z " />
<glyph glyph-name="&amp;#xb5;" unicode="&#xb5;" horiz-adv-x="585" d="M81 526 L169 526 L169 216 Q169 174 175.5 146 Q182 118 196 101 Q210 84 232 77 Q254 70 284 70 Q346 70 381 107 Q416 144 416 216 L416 526 L504 526 L504 0 L422 0 L416 89 Q394 44 355.5 16.5 Q317 -11 254 -11 Q202 -11 169 7 L169 -180 L81 -180 L81 526 Z " />
<glyph glyph-name="&amp;#x3bc;" unicode="&#x3bc;" horiz-adv-x="585" d="M81 526 L169 526 L169 216 Q169 174 175.5 146 Q182 118 196 101 Q210 84 232 77 Q254 70 284 70 Q346 70 381 107 Q416 144 416 216 L416 526 L504 526 L504 0 L422 0 L416 89 Q394 44 355.5 16.5 Q317 -11 254 -11 Q202 -11 169 7 L169 -180 L81 -180 L81 526 Z " />
<glyph glyph-name="paragraph" unicode="&#xb6;" horiz-adv-x="570" d="M219 367 Q177 367 145.5 379.5 Q114 392 93 413.5 Q72 435 61.5 465 Q51 495 51 530 Q51 585 71.5 618.5 Q92 652 122.5 670 Q153 688 187 694 Q221 700 248 700 L475 700 L475 -180 L400 -180 L400 632 L294 632 L294 -180 L219 -180 L219 367 Z " />
<glyph glyph-name="middot" unicode="&#xb7;" horiz-adv-x="320" d="M160 289 Q96 289 96 353 Q96 417 160 417 Q224 417 224 353 Q224 289 160 289 Z " />
<glyph glyph-name="cedilla" unicode="&#xb8;" horiz-adv-x="250" d="M107 -217 Q81 -217 63.5 -213 Q46 -209 31 -202 L38 -153 Q53 -159 66.5 -162 Q80 -165 98 -165 Q148 -165 148 -125 Q148 -105 135.5 -94.5 Q123 -84 94 -84 Q86 -84 77 -84.5 Q68 -85 62 -86 L80 7 L133 7 L122 -44 Q219 -44 219 -125 Q219 -167 190.5 -192 Q162 -217 107 -217 Z " />
<glyph glyph-name="onesuperior" unicode="&#xb9;" horiz-adv-x="450" d="M225 717 L104 653 L74 711 L241 800 L302 800 L302 380 L225 380 L225 717 Z " />
<glyph glyph-name="ordmasculine" unicode="&#xba;" horiz-adv-x="370" d="M185 374 Q103 374 66.5 417 Q30 460 30 540 Q30 619 67 662.5 Q104 706 185 706 Q267 706 303.5 663 Q340 620 340 540 Q340 461 303 417.5 Q266 374 185 374 Z M185 432 Q227 432 249 456 Q271 480 271 540 Q271 600 249 624 Q227 648 185 648 Q143 648 121 624 Q99 600 99 540 Q99 480 121 456 Q143 432 185 432 Z " />
<glyph glyph-name="guillemotright" unicode="&#xbb;" horiz-adv-x="550" d="M202 275 L71 484 L160 484 L289 277 L157 68 L71 68 L202 275 Z M412 275 L281 484 L370 484 L499 277 L367 68 L281 68 L412 275 Z " />
<glyph glyph-name="onequarter" unicode="&#xbc;" horiz-adv-x="950" d="M665 700 L740 700 L275 0 L200 0 L665 700 Z M204 618 L83 554 L53 612 L220 701 L281 701 L281 281 L204 281 L204 618 Z M492 153 L741 420 L830 420 L830 156 L887 156 L887 94 L830 94 L830 0 L758 0 L758 94 L492 94 L492 153 Z M758 353 L757 353 L572 156 L758 156 L758 353 Z " />
<glyph glyph-name="onehalf" unicode="&#xbd;" horiz-adv-x="950" d="M638 700 L713 700 L248 0 L173 0 L638 700 Z M199 618 L78 554 L48 612 L215 701 L276 701 L276 281 L199 281 L199 618 Z M560 68 L683 152 Q715 174 738 192 Q761 210 776 226.5 Q791 243 798.5 259 Q806 275 806 292 Q806 327 781 344 Q756 361 708 361 Q673 361 639 354.5 Q605 348 579 334 L579 402 Q613 415 647 420.5 Q681 426 719 426 Q797 426 841 396 Q885 366 885 306 Q885 280 875.5 256.5 Q866 233 846.5 210 Q827 187 796.5 163.5 Q766 140 723 113 L653 66 L653 65 L890 65 L890 0 L560 0 L560 68 Z " />
<glyph glyph-name="threequarters" unicode="&#xbe;" horiz-adv-x="950" d="M692 700 L767 700 L302 0 L227 0 L692 700 Z M502 153 L751 420 L840 420 L840 156 L897 156 L897 94 L840 94 L840 0 L768 0 L768 94 L502 94 L502 153 Z M768 353 L767 353 L582 156 L768 156 L768 353 Z M119 525 L193 525 Q241 525 266.5 539 Q292 553 292 584 Q292 616 267 629.5 Q242 643 188 643 Q153 643 117.5 638.5 Q82 634 57 623 L57 687 Q89 699 130.5 703 Q172 707 210 707 Q294 707 331.5 676.5 Q369 646 369 599 Q369 557 341 535 Q313 513 265 501 L265 499 Q299 494 321 484.5 Q343 475 356 461.5 Q369 448 374.5 432.5 Q380 417 380 401 Q380 368 365.5 344.5 Q351 321 326 305.5 Q301 290 267 282.5 Q233 275 195 275 Q162 275 123.5 278.5 Q85 282 50 295 L50 361 Q81 348 116 343.5 Q151 339 186 339 Q249 339 275 357.5 Q301 376 301 404 Q301 440 275.5 455 Q250 470 199 470 L119 470 L119 525 Z " />
<glyph glyph-name="questiondown" unicode="&#xbf;" horiz-adv-x="480" d="M285 532 Q349 532 349 468 Q349 404 285 404 Q221 404 221 468 Q221 532 285 532 Z M328 307 Q328 262 314.5 231.5 Q301 201 280 179.5 Q259 158 235.5 141 Q212 124 191 105 Q170 86 156.5 61.5 Q143 37 143 0 Q143 -51 173.5 -79 Q204 -107 273 -107 Q323 -107 361 -93.5 Q399 -80 430 -60 L430 -158 Q394 -175 352 -183 Q310 -191 266 -191 Q152 -191 101 -144.5 Q50 -98 50 -8 Q50 41 64.5 74 Q79 107 100 130.5 Q121 154 146.5 171.5 Q172 189 193 207.5 Q214 226 228.5 249 Q243 272 243 307 L328 307 Z " />
<glyph glyph-name="Agrave" unicode="&#xc0;" horiz-adv-x="640" d="M270 700 L370 700 L620 0 L521 0 L458 185 L177 185 L114 0 L20 0 L270 700 Z M205 265 L430 265 L318 596 L205 265 Z M152 910 L272 910 L360 770 L283 770 L152 910 Z " />
<glyph glyph-name="Aacute" unicode="&#xc1;" horiz-adv-x="640" d="M270 700 L370 700 L620 0 L521 0 L458 185 L177 185 L114 0 L20 0 L270 700 Z M205 265 L430 265 L318 596 L205 265 Z M365 910 L483 910 L350 770 L275 770 L365 910 Z " />
<glyph glyph-name="Acircumflex" unicode="&#xc2;" horiz-adv-x="640" d="M270 700 L370 700 L620 0 L521 0 L458 185 L177 185 L114 0 L20 0 L270 700 Z M205 265 L430 265 L318 596 L205 265 Z M270 910 L370 910 L485 770 L407 770 L320 857 L231 770 L155 770 L270 910 Z " />
<glyph glyph-name="Atilde" unicode="&#xc3;" horiz-adv-x="640" d="M270 700 L370 700 L620 0 L521 0 L458 185 L177 185 L114 0 L20 0 L270 700 Z M205 265 L430 265 L318 596 L205 265 Z M158 788 Q161 833 187 858.5 Q213 884 250 884 Q269 884 286.5 878.5 Q304 873 326 863 Q347 854 361 848 Q375 842 388 842 Q402 842 413 850.5 Q424 859 429 883 L482 871 Q477 825 451 800.5 Q425 776 392 776 Q374 776 358 779 Q342 782 313 796 Q294 805 281 812 Q268 819 254 819 Q241 819 228.5 810.5 Q216 802 211 777 L158 788 Z " />
<glyph glyph-name="Adieresis" unicode="&#xc4;" horiz-adv-x="640" d="M270 700 L370 700 L620 0 L521 0 L458 185 L177 185 L114 0 L20 0 L270 700 Z M205 265 L430 265 L318 596 L205 265 Z M218 785 Q161 785 161 840 Q161 895 218 895 Q275 895 275 840 Q275 785 218 785 Z M421 785 Q364 785 364 840 Q364 895 421 895 Q478 895 478 840 Q478 785 421 785 Z " />
<glyph glyph-name="Aring" unicode="&#xc5;" horiz-adv-x="640" d="M270 700 L370 700 L620 0 L521 0 L458 185 L177 185 L114 0 L20 0 L270 700 Z M205 265 L430 265 L318 596 L205 265 Z M220 840 Q220 883 248 911 Q276 939 320 939 Q364 939 392 911 Q420 883 420 840 Q420 797 392 769 Q364 741 320 741 Q276 741 248 769 Q220 797 220 840 Z M270 840 Q270 817 283.5 803.5 Q297 790 320 790 Q343 790 356.5 803.5 Q370 817 370 840 Q370 863 356.5 876.5 Q343 890 320 890 Q297 890 283.5 876.5 Q270 863 270 840 Z " />
<glyph glyph-name="AE" unicode="&#xc6;" horiz-adv-x="935" d="M461 185 L219 185 L117 0 L20 0 L411 700 L880 700 L880 617 L553 617 L553 399 L840 399 L840 318 L553 318 L553 83 L880 83 L880 0 L461 0 L461 185 Z M461 265 L461 622 L263 265 L461 265 Z " />
<glyph glyph-name="Ccedilla" unicode="&#xc7;" horiz-adv-x="575" d="M335 -217 Q310 -217 290 -213 Q270 -209 255 -202 L263 -152 Q278 -158 293 -161 Q308 -164 326 -164 Q355 -164 366.5 -154 Q378 -144 378 -125 Q378 -105 366 -95 Q354 -85 322 -85 Q311 -85 303 -85.5 Q295 -86 290 -87 L304 -8 Q241 -2 193.5 22 Q146 46 114 90 Q82 134 66 199.5 Q50 265 50 355 Q50 448 70 515.5 Q90 583 128.5 626.5 Q167 670 224 690.5 Q281 711 355 711 Q392 711 422 706.5 Q452 702 475 697 Q501 691 522 683 L522 587 Q493 604 452 614.5 Q411 625 356 625 Q305 625 265.5 610.5 Q226 596 199.5 564 Q173 532 159.5 480.5 Q146 429 146 355 Q146 278 160 225 Q174 172 201 138.5 Q228 105 268 90 Q308 75 360 75 Q417 75 460.5 91 Q504 107 530 122 L530 25 Q508 15 481 7 Q458 0 426.5 -5.5 Q395 -11 358 -11 L351 -44 Q451 -44 451 -125 Q451 -167 422 -192 Q393 -217 335 -217 Z " />
<glyph glyph-name="Egrave" unicode="&#xc8;" horiz-adv-x="575" d="M101 700 L520 700 L520 617 L193 617 L193 399 L480 399 L480 318 L193 318 L193 83 L520 83 L520 0 L101 0 L101 700 Z M147 910 L267 910 L355 770 L278 770 L147 910 Z " />
<glyph glyph-name="Eacute" unicode="&#xc9;" horiz-adv-x="575" d="M101 700 L520 700 L520 617 L193 617 L193 399 L480 399 L480 318 L193 318 L193 83 L520 83 L520 0 L101 0 L101 700 Z M355 910 L473 910 L340 770 L265 770 L355 910 Z " />
<glyph glyph-name="Ecircumflex" unicode="&#xca;" horiz-adv-x="575" d="M101 700 L520 700 L520 617 L193 617 L193 399 L480 399 L480 318 L193 318 L193 83 L520 83 L520 0 L101 0 L101 700 Z M260 910 L360 910 L475 770 L397 770 L310 857 L221 770 L145 770 L260 910 Z " />
<glyph glyph-name="Edieresis" unicode="&#xcb;" horiz-adv-x="575" d="M101 700 L520 700 L520 617 L193 617 L193 399 L480 399 L480 318 L193 318 L193 83 L520 83 L520 0 L101 0 L101 700 Z M208 785 Q151 785 151 840 Q151 895 208 895 Q265 895 265 840 Q265 785 208 785 Z M411 785 Q354 785 354 840 Q354 895 411 895 Q468 895 468 840 Q468 785 411 785 Z " />
<glyph glyph-name="Igrave" unicode="&#xcc;" horiz-adv-x="330" d="M119 700 L211 700 L211 0 L119 0 L119 700 Z M-3 910 L117 910 L205 770 L128 770 L-3 910 Z " />
<glyph glyph-name="Iacute" unicode="&#xcd;" horiz-adv-x="330" d="M119 700 L211 700 L211 0 L119 0 L119 700 Z M217 910 L335 910 L202 770 L127 770 L217 910 Z " />
<glyph glyph-name="Icircumflex" unicode="&#xce;" horiz-adv-x="330" d="M119 700 L211 700 L211 0 L119 0 L119 700 Z M116 910 L216 910 L331 770 L253 770 L166 857 L77 770 L1 770 L116 910 Z " />
<glyph glyph-name="Idieresis" unicode="&#xcf;" horiz-adv-x="330" d="M119 700 L211 700 L211 0 L119 0 L119 700 Z M64 785 Q7 785 7 840 Q7 895 64 895 Q121 895 121 840 Q121 785 64 785 Z M267 785 Q210 785 210 840 Q210 895 267 895 Q324 895 324 840 Q324 785 267 785 Z " />
<glyph glyph-name="Eth" unicode="&#xd0;" horiz-adv-x="690" d="M17 391 L111 391 L111 695 Q140 697 172 700 Q199 702 233.5 704 Q268 706 303 706 Q393 706 457 687 Q521 668 561.5 626.5 Q602 585 621 518.5 Q640 452 640 358 Q640 168 556 81 Q472 -6 300 -6 Q266 -6 232.5 -4.5 Q199 -3 172 -1 Q140 2 111 5 L111 319 L17 319 L17 391 Z M544 358 Q544 433 531.5 483 Q519 533 491 563 Q463 593 417 606 Q371 619 305 619 Q283 619 264.5 618 Q246 617 232 616 Q216 615 203 614 L203 391 L369 391 L369 319 L203 319 L203 86 Q215 84 231 83 Q245 82 262.5 81.5 Q280 81 302 81 Q365 81 410.5 95.5 Q456 110 486 143 Q516 176 530 229 Q544 282 544 358 Z " />
<glyph glyph-name="Ntilde" unicode="&#xd1;" horiz-adv-x="740" d="M101 700 L204 700 L490 246 Q502 226 512.5 207 Q523 188 531 173 Q540 155 548 140 L550 140 Q549 155 548 173 Q547 188 547 207 Q547 226 547 246 L547 700 L639 700 L639 0 L536 0 L250 454 Q236 477 225.5 496 Q215 515 207 529 Q198 546 192 560 L190 560 Q190 546 191 529 Q192 515 192.5 496 Q193 477 193 454 L193 0 L101 0 L101 700 Z M208 788 Q211 833 237 858.5 Q263 884 300 884 Q319 884 336.5 878.5 Q354 873 376 863 Q397 854 411 848 Q425 842 438 842 Q452 842 463 850.5 Q474 859 479 883 L532 871 Q527 825 501 800.5 Q475 776 442 776 Q424 776 408 779 Q392 782 363 796 Q344 805 331 812 Q318 819 304 819 Q291 819 278.5 810.5 Q266 802 261 777 L208 788 Z " />
<glyph glyph-name="Ograve" unicode="&#xd2;" horiz-adv-x="710" d="M355 -11 Q281 -11 224.5 10 Q168 31 129 75 Q90 119 70 187 Q50 255 50 350 Q50 445 70 513 Q90 581 129 625 Q168 669 224.5 690 Q281 711 355 711 Q431 711 488 691 Q545 671 583.5 627.5 Q622 584 641 515.5 Q660 447 660 350 Q660 255 640 187 Q620 119 581 75 Q542 31 485 10 Q428 -11 355 -11 Z M355 73 Q406 73 445 87.5 Q484 102 510.5 135 Q537 168 550.5 221 Q564 274 564 350 Q564 426 550.5 479 Q537 532 510.5 565 Q484 598 445 612.5 Q406 627 355 627 Q305 627 266 612 Q227 597 200.5 564 Q174 531 160 478.5 Q146 426 146 350 Q146 275 160 222.5 Q174 170 200.5 136.5 Q227 103 266 88 Q305 73 355 73 Z M193 910 L313 910 L401 770 L324 770 L193 910 Z " />
<glyph glyph-name="Oacute" unicode="&#xd3;" horiz-adv-x="710" d="M355 -11 Q281 -11 224.5 10 Q168 31 129 75 Q90 119 70 187 Q50 255 50 350 Q50 445 70 513 Q90 581 129 625 Q168 669 224.5 690 Q281 711 355 711 Q431 711 488 691 Q545 671 583.5 627.5 Q622 584 641 515.5 Q660 447 660 350 Q660 255 640 187 Q620 119 581 75 Q542 31 485 10 Q428 -11 355 -11 Z M355 73 Q406 73 445 87.5 Q484 102 510.5 135 Q537 168 550.5 221 Q564 274 564 350 Q564 426 550.5 479 Q537 532 510.5 565 Q484 598 445 612.5 Q406 627 355 627 Q305 627 266 612 Q227 597 200.5 564 Q174 531 160 478.5 Q146 426 146 350 Q146 275 160 222.5 Q174 170 200.5 136.5 Q227 103 266 88 Q305 73 355 73 Z M400 910 L518 910 L385 770 L310 770 L400 910 Z " />
<glyph glyph-name="Ocircumflex" unicode="&#xd4;" horiz-adv-x="710" d="M355 -11 Q281 -11 224.5 10 Q168 31 129 75 Q90 119 70 187 Q50 255 50 350 Q50 445 70 513 Q90 581 129 625 Q168 669 224.5 690 Q281 711 355 711 Q431 711 488 691 Q545 671 583.5 627.5 Q622 584 641 515.5 Q660 447 660 350 Q660 255 640 187 Q620 119 581 75 Q542 31 485 10 Q428 -11 355 -11 Z M355 73 Q406 73 445 87.5 Q484 102 510.5 135 Q537 168 550.5 221 Q564 274 564 350 Q564 426 550.5 479 Q537 532 510.5 565 Q484 598 445 612.5 Q406 627 355 627 Q305 627 266 612 Q227 597 200.5 564 Q174 531 160 478.5 Q146 426 146 350 Q146 275 160 222.5 Q174 170 200.5 136.5 Q227 103 266 88 Q305 73 355 73 Z M305 910 L405 910 L520 770 L442 770 L355 857 L266 770 L190 770 L305 910 Z " />
<glyph glyph-name="Otilde" unicode="&#xd5;" horiz-adv-x="710" d="M355 -11 Q281 -11 224.5 10 Q168 31 129 75 Q90 119 70 187 Q50 255 50 350 Q50 445 70 513 Q90 581 129 625 Q168 669 224.5 690 Q281 711 355 711 Q431 711 488 691 Q545 671 583.5 627.5 Q622 584 641 515.5 Q660 447 660 350 Q660 255 640 187 Q620 119 581 75 Q542 31 485 10 Q428 -11 355 -11 Z M355 73 Q406 73 445 87.5 Q484 102 510.5 135 Q537 168 550.5 221 Q564 274 564 350 Q564 426 550.5 479 Q537 532 510.5 565 Q484 598 445 612.5 Q406 627 355 627 Q305 627 266 612 Q227 597 200.5 564 Q174 531 160 478.5 Q146 426 146 350 Q146 275 160 222.5 Q174 170 200.5 136.5 Q227 103 266 88 Q305 73 355 73 Z M193 788 Q196 833 222 858.5 Q248 884 285 884 Q304 884 321.5 878.5 Q339 873 361 863 Q382 854 396 848 Q410 842 423 842 Q437 842 448 850.5 Q459 859 464 883 L517 871 Q512 825 486 800.5 Q460 776 427 776 Q409 776 393 779 Q377 782 348 796 Q329 805 316 812 Q303 819 289 819 Q276 819 263.5 810.5 Q251 802 246 777 L193 788 Z " />
<glyph glyph-name="Odieresis" unicode="&#xd6;" horiz-adv-x="710" d="M355 -11 Q281 -11 224.5 10 Q168 31 129 75 Q90 119 70 187 Q50 255 50 350 Q50 445 70 513 Q90 581 129 625 Q168 669 224.5 690 Q281 711 355 711 Q431 711 488 691 Q545 671 583.5 627.5 Q622 584 641 515.5 Q660 447 660 350 Q660 255 640 187 Q620 119 581 75 Q542 31 485 10 Q428 -11 355 -11 Z M355 73 Q406 73 445 87.5 Q484 102 510.5 135 Q537 168 550.5 221 Q564 274 564 350 Q564 426 550.5 479 Q537 532 510.5 565 Q484 598 445 612.5 Q406 627 355 627 Q305 627 266 612 Q227 597 200.5 564 Q174 531 160 478.5 Q146 426 146 350 Q146 275 160 222.5 Q174 170 200.5 136.5 Q227 103 266 88 Q305 73 355 73 Z M253 785 Q196 785 196 840 Q196 895 253 895 Q310 895 310 840 Q310 785 253 785 Z M456 785 Q399 785 399 840 Q399 895 456 895 Q513 895 513 840 Q513 785 456 785 Z " />
<glyph glyph-name="multiply" unicode="&#xd7;" horiz-adv-x="600" d="M114 228 L246 360 L114 492 L168 546 L300 414 L432 546 L486 492 L354 360 L486 228 L432 174 L300 306 L168 174 L114 228 Z " />
<glyph glyph-name="Oslash" unicode="&#xd8;" horiz-adv-x="710" d="M355 -11 Q299 -11 253 0.5 Q207 12 171 37 L120 -36 L70 0 L125 78 Q88 123 69 189.5 Q50 256 50 350 Q50 445 70 513 Q90 581 129 625 Q168 669 224.5 690 Q281 711 355 711 Q412 711 458 700 Q504 689 540 665 L590 736 L640 700 L586 624 Q623 580 641.5 513 Q660 446 660 350 Q660 255 640 187 Q620 119 581 75 Q542 31 485 10 Q428 -11 355 -11 Z M355 73 Q406 73 445 87.5 Q484 102 510.5 135 Q537 168 550.5 221 Q564 274 564 350 Q564 413 554.5 460 Q545 507 527 540 L225 112 Q273 73 355 73 Z M146 350 Q146 228 184 161 L486 589 Q436 627 355 627 Q305 627 266 612 Q227 597 200.5 564 Q174 531 160 478.5 Q146 426 146 350 Z " />
<glyph glyph-name="Ugrave" unicode="&#xd9;" horiz-adv-x="670" d="M335 -11 Q269 -11 221 4.5 Q173 20 141.5 53.5 Q110 87 95 140.5 Q80 194 80 270 L80 700 L173 700 L173 274 Q173 217 182 179 Q191 141 210.5 117.5 Q230 94 260.5 84.5 Q291 75 335 75 Q379 75 410 84.5 Q441 94 460.5 117 Q480 140 488.5 178 Q497 216 497 274 L497 700 L590 700 L590 270 Q590 195 574.5 141.5 Q559 88 527.5 54 Q496 20 448 4.5 Q400 -11 335 -11 Z M173 910 L293 910 L381 770 L304 770 L173 910 Z " />
<glyph glyph-name="Uacute" unicode="&#xda;" horiz-adv-x="670" d="M335 -11 Q269 -11 221 4.5 Q173 20 141.5 53.5 Q110 87 95 140.5 Q80 194 80 270 L80 700 L173 700 L173 274 Q173 217 182 179 Q191 141 210.5 117.5 Q230 94 260.5 84.5 Q291 75 335 75 Q379 75 410 84.5 Q441 94 460.5 117 Q480 140 488.5 178 Q497 216 497 274 L497 700 L590 700 L590 270 Q590 195 574.5 141.5 Q559 88 527.5 54 Q496 20 448 4.5 Q400 -11 335 -11 Z M380 910 L498 910 L365 770 L290 770 L380 910 Z " />
<glyph glyph-name="Ucircumflex" unicode="&#xdb;" horiz-adv-x="670" d="M335 -11 Q269 -11 221 4.5 Q173 20 141.5 53.5 Q110 87 95 140.5 Q80 194 80 270 L80 700 L173 700 L173 274 Q173 217 182 179 Q191 141 210.5 117.5 Q230 94 260.5 84.5 Q291 75 335 75 Q379 75 410 84.5 Q441 94 460.5 117 Q480 140 488.5 178 Q497 216 497 274 L497 700 L590 700 L590 270 Q590 195 574.5 141.5 Q559 88 527.5 54 Q496 20 448 4.5 Q400 -11 335 -11 Z M285 910 L385 910 L500 770 L422 770 L335 857 L246 770 L170 770 L285 910 Z " />
<glyph glyph-name="Udieresis" unicode="&#xdc;" horiz-adv-x="670" d="M335 -11 Q269 -11 221 4.5 Q173 20 141.5 53.5 Q110 87 95 140.5 Q80 194 80 270 L80 700 L173 700 L173 274 Q173 217 182 179 Q191 141 210.5 117.5 Q230 94 260.5 84.5 Q291 75 335 75 Q379 75 410 84.5 Q441 94 460.5 117 Q480 140 488.5 178 Q497 216 497 274 L497 700 L590 700 L590 270 Q590 195 574.5 141.5 Q559 88 527.5 54 Q496 20 448 4.5 Q400 -11 335 -11 Z M233 785 Q176 785 176 840 Q176 895 233 895 Q290 895 290 840 Q290 785 233 785 Z M436 785 Q379 785 379 840 Q379 895 436 895 Q493 895 493 840 Q493 785 436 785 Z " />
<glyph glyph-name="Yacute" unicode="&#xdd;" horiz-adv-x="610" d="M264 271 L20 700 L126 700 L311 368 L489 700 L590 700 L356 271 L356 0 L264 0 L264 271 Z M350 910 L468 910 L335 770 L260 770 L350 910 Z " />
<glyph glyph-name="Thorn" unicode="&#xde;" horiz-adv-x="620" d="M101 700 L193 700 L193 595 Q239 598 297 598 Q372 598 424 584 Q476 570 508.5 541 Q541 512 555.5 467.5 Q570 423 570 362 Q570 240 504.5 178 Q439 116 297 116 Q252 116 225 118 Q198 120 193 121 L193 0 L101 0 L101 700 Z M474 362 Q474 402 465.5 430.5 Q457 459 436.5 477 Q416 495 382 503.5 Q348 512 297 512 Q252 512 225 510 Q198 508 193 507 L193 207 Q198 207 225 205 Q252 203 297 203 Q394 203 434 240.5 Q474 278 474 362 Z " />
<glyph glyph-name="germandbls" unicode="&#xdf;" horiz-adv-x="615" d="M81 515 Q81 638 139 701 Q197 764 312 764 Q417 764 470.5 713 Q524 662 524 572 Q524 511 498 469 Q472 427 421 407 L421 404 Q492 395 525.5 345 Q559 295 559 214 Q559 97 505.5 43 Q452 -11 339 -11 Q307 -11 282.5 -7 Q258 -3 240 2 L240 83 Q256 78 278 74.5 Q300 71 332 71 Q401 71 433.5 105.5 Q466 140 466 218 Q466 293 433.5 327 Q401 361 334 361 L270 361 L270 436 L324 436 Q373 436 402 468 Q431 500 431 563 Q431 621 400 651.5 Q369 682 308 682 Q237 682 203.5 642.5 Q170 603 170 515 L170 0 L81 0 L81 515 Z " />
<glyph glyph-name="agrave" unicode="&#xe0;" horiz-adv-x="535" d="M215 -11 Q134 -11 92.5 30 Q51 71 51 147 Q51 187 61.5 216.5 Q72 246 97 266 Q122 286 162 296 Q202 306 261 306 L371 306 L371 353 Q371 409 345 432.5 Q319 456 249 456 Q202 456 161 443 Q120 430 92 411 L92 503 Q121 517 166 527 Q211 537 261 537 Q315 537 353 526.5 Q391 516 414.5 493.5 Q438 471 448.5 436 Q459 401 459 351 L459 0 L380 0 L375 90 Q357 48 318 18.5 Q279 -11 215 -11 Z M238 67 Q300 67 335.5 103.5 Q371 140 371 208 L371 244 L267 244 Q195 244 168 221.5 Q141 199 141 151 Q141 109 164 88 Q187 67 238 67 Z M120 756 L238 756 L318 617 L243 617 L120 756 Z " />
<glyph glyph-name="aacute" unicode="&#xe1;" horiz-adv-x="535" d="M215 -11 Q134 -11 92.5 30 Q51 71 51 147 Q51 187 61.5 216.5 Q72 246 97 266 Q122 286 162 296 Q202 306 261 306 L371 306 L371 353 Q371 409 345 432.5 Q319 456 249 456 Q202 456 161 443 Q120 430 92 411 L92 503 Q121 517 166 527 Q211 537 261 537 Q315 537 353 526.5 Q391 516 414.5 493.5 Q438 471 448.5 436 Q459 401 459 351 L459 0 L380 0 L375 90 Q357 48 318 18.5 Q279 -11 215 -11 Z M238 67 Q300 67 335.5 103.5 Q371 140 371 208 L371 244 L267 244 Q195 244 168 221.5 Q141 199 141 151 Q141 109 164 88 Q187 67 238 67 Z M312 756 L428 756 L303 617 L230 617 L312 756 Z " />
<glyph glyph-name="acircumflex" unicode="&#xe2;" horiz-adv-x="535" d="M215 -11 Q134 -11 92.5 30 Q51 71 51 147 Q51 187 61.5 216.5 Q72 246 97 266 Q122 286 162 296 Q202 306 261 306 L371 306 L371 353 Q371 409 345 432.5 Q319 456 249 456 Q202 456 161 443 Q120 430 92 411 L92 503 Q121 517 166 527 Q211 537 261 537 Q315 537 353 526.5 Q391 516 414.5 493.5 Q438 471 448.5 436 Q459 401 459 351 L459 0 L380 0 L375 90 Q357 48 318 18.5 Q279 -11 215 -11 Z M238 67 Q300 67 335.5 103.5 Q371 140 371 208 L371 244 L267 244 Q195 244 168 221.5 Q141 199 141 151 Q141 109 164 88 Q187 67 238 67 Z M225 756 L321 756 L432 617 L356 617 L273 705 L188 617 L114 617 L225 756 Z " />
<glyph glyph-name="atilde" unicode="&#xe3;" horiz-adv-x="535" d="M215 -11 Q134 -11 92.5 30 Q51 71 51 147 Q51 187 61.5 216.5 Q72 246 97 266 Q122 286 162 296 Q202 306 261 306 L371 306 L371 353 Q371 409 345 432.5 Q319 456 249 456 Q202 456 161 443 Q120 430 92 411 L92 503 Q121 517 166 527 Q211 537 261 537 Q315 537 353 526.5 Q391 516 414.5 493.5 Q438 471 448.5 436 Q459 401 459 351 L459 0 L380 0 L375 90 Q357 48 318 18.5 Q279 -11 215 -11 Z M238 67 Q300 67 335.5 103.5 Q371 140 371 208 L371 244 L267 244 Q195 244 168 221.5 Q141 199 141 151 Q141 109 164 88 Q187 67 238 67 Z M113 634 Q116 680 139 705 Q162 730 199 730 Q219 730 235.5 724.5 Q252 719 274 709 Q295 700 308 693.5 Q321 687 335 687 Q349 687 357.5 696 Q366 705 371 729 L423 717 Q418 671 394.5 646.5 Q371 622 338 622 Q320 622 305 625.5 Q290 629 261 643 Q242 652 230 658.5 Q218 665 204 665 Q191 665 181 656.5 Q171 648 166 623 L113 634 Z " />
<glyph glyph-name="adieresis" unicode="&#xe4;" horiz-adv-x="535" d="M215 -11 Q134 -11 92.5 30 Q51 71 51 147 Q51 187 61.5 216.5 Q72 246 97 266 Q122 286 162 296 Q202 306 261 306 L371 306 L371 353 Q371 409 345 432.5 Q319 456 249 456 Q202 456 161 443 Q120 430 92 411 L92 503 Q121 517 166 527 Q211 537 261 537 Q315 537 353 526.5 Q391 516 414.5 493.5 Q438 471 448.5 436 Q459 401 459 351 L459 0 L380 0 L375 90 Q357 48 318 18.5 Q279 -11 215 -11 Z M238 67 Q300 67 335.5 103.5 Q371 140 371 208 L371 244 L267 244 Q195 244 168 221.5 Q141 199 141 151 Q141 109 164 88 Q187 67 238 67 Z M178 634 Q123 634 123 686 Q123 739 178 739 Q233 739 233 686 Q233 634 178 634 Z M368 634 Q313 634 313 686 Q313 739 368 739 Q423 739 423 686 Q423 634 368 634 Z " />
<glyph glyph-name="aring" unicode="&#xe5;" horiz-adv-x="535" d="M215 -11 Q134 -11 92.5 30 Q51 71 51 147 Q51 187 61.5 216.5 Q72 246 97 266 Q122 286 162 296 Q202 306 261 306 L371 306 L371 353 Q371 409 345 432.5 Q319 456 249 456 Q202 456 161 443 Q120 430 92 411 L92 503 Q121 517 166 527 Q211 537 261 537 Q315 537 353 526.5 Q391 516 414.5 493.5 Q438 471 448.5 436 Q459 401 459 351 L459 0 L380 0 L375 90 Q357 48 318 18.5 Q279 -11 215 -11 Z M238 67 Q300 67 335.5 103.5 Q371 140 371 208 L371 244 L267 244 Q195 244 168 221.5 Q141 199 141 151 Q141 109 164 88 Q187 67 238 67 Z M177 686 Q177 730 203.5 756.5 Q230 783 275 783 Q320 783 346.5 756.5 Q373 730 373 686 Q373 643 346.5 616 Q320 589 275 589 Q230 589 203.5 616 Q177 643 177 686 Z M227 686 Q227 663 239.5 650.5 Q252 638 275 638 Q297 638 310 651 Q323 664 323 686 Q323 708 310 721 Q297 734 275 734 Q253 734 240 721 Q227 708 227 686 Z " />
<glyph glyph-name="ae" unicode="&#xe6;" horiz-adv-x="860" d="M614 -11 Q470 -11 416 89 Q386 38 337 13.5 Q288 -11 223 -11 Q135 -11 93 30 Q51 71 51 147 Q51 187 61.5 216.5 Q72 246 97 266 Q122 286 162.5 296 Q203 306 262 306 L375 306 L375 353 Q375 409 348.5 432.5 Q322 456 250 456 Q202 456 161 443 Q120 430 92 411 L92 503 Q121 517 166 527 Q211 537 262 537 Q330 537 372 519.5 Q414 502 434 464 Q491 537 597 537 Q706 537 757.5 476.5 Q809 416 809 281 L809 240 L462 240 Q464 151 503 109 Q542 67 620 67 Q668 67 708.5 80 Q749 93 776 116 L776 28 Q753 12 713 0.5 Q673 -11 614 -11 Z M240 67 Q303 67 339 103.5 Q375 140 375 208 L375 244 L268 244 Q195 244 168 221.5 Q141 199 141 151 Q141 109 164 88 Q187 67 240 67 Z M597 462 Q534 462 499.5 425 Q465 388 462 304 L721 304 Q721 379 694 420.5 Q667 462 597 462 Z " />
<glyph glyph-name="ccedilla" unicode="&#xe7;" horiz-adv-x="475" d="M275 -217 Q249 -217 231.5 -213 Q214 -209 199 -202 L206 -153 Q221 -159 234.5 -162 Q248 -165 266 -165 Q316 -165 316 -125 Q316 -105 303.5 -94.5 Q291 -84 262 -84 Q254 -84 245 -84.5 Q236 -85 230 -86 L245 -7 Q146 5 98.5 70.5 Q51 136 51 268 Q51 407 113 472 Q175 537 293 537 Q347 537 382 527.5 Q417 518 431 512 L431 417 Q408 433 375 444.5 Q342 456 300 456 Q222 456 181.5 412 Q141 368 141 268 Q141 162 183 116 Q225 70 310 70 Q347 70 383 82.5 Q419 95 440 112 L440 21 Q426 13 390.5 1 Q355 -11 300 -11 L297 -11 L290 -44 Q387 -44 387 -125 Q387 -167 358.5 -192 Q330 -217 275 -217 Z " />
<glyph glyph-name="egrave" unicode="&#xe8;" horiz-adv-x="550" d="M297 -11 Q170 -11 110.5 55.5 Q51 122 51 266 Q51 405 112 471 Q173 537 280 537 Q394 537 446.5 476 Q499 415 499 281 L499 240 L139 240 Q141 151 180 109 Q219 67 303 67 Q353 67 396 83.5 Q439 100 466 123 L466 35 Q441 18 399.5 3.5 Q358 -11 297 -11 Z M280 462 Q212 462 176.5 425 Q141 388 139 304 L411 304 Q411 341 404.5 370.5 Q398 400 383 420.5 Q368 441 343 451.5 Q318 462 280 462 Z M125 756 L243 756 L323 617 L248 617 L125 756 Z " />
<glyph glyph-name="eacute" unicode="&#xe9;" horiz-adv-x="550" d="M297 -11 Q170 -11 110.5 55.5 Q51 122 51 266 Q51 405 112 471 Q173 537 280 537 Q394 537 446.5 476 Q499 415 499 281 L499 240 L139 240 Q141 151 180 109 Q219 67 303 67 Q353 67 396 83.5 Q439 100 466 123 L466 35 Q441 18 399.5 3.5 Q358 -11 297 -11 Z M280 462 Q212 462 176.5 425 Q141 388 139 304 L411 304 Q411 341 404.5 370.5 Q398 400 383 420.5 Q368 441 343 451.5 Q318 462 280 462 Z M317 756 L433 756 L308 617 L235 617 L317 756 Z " />
<glyph glyph-name="ecircumflex" unicode="&#xea;" horiz-adv-x="550" d="M297 -11 Q170 -11 110.5 55.5 Q51 122 51 266 Q51 405 112 471 Q173 537 280 537 Q394 537 446.5 476 Q499 415 499 281 L499 240 L139 240 Q141 151 180 109 Q219 67 303 67 Q353 67 396 83.5 Q439 100 466 123 L466 35 Q441 18 399.5 3.5 Q358 -11 297 -11 Z M280 462 Q212 462 176.5 425 Q141 388 139 304 L411 304 Q411 341 404.5 370.5 Q398 400 383 420.5 Q368 441 343 451.5 Q318 462 280 462 Z M230 756 L326 756 L437 617 L361 617 L278 705 L193 617 L119 617 L230 756 Z " />
<glyph glyph-name="edieresis" unicode="&#xeb;" horiz-adv-x="550" d="M297 -11 Q170 -11 110.5 55.5 Q51 122 51 266 Q51 405 112 471 Q173 537 280 537 Q394 537 446.5 476 Q499 415 499 281 L499 240 L139 240 Q141 151 180 109 Q219 67 303 67 Q353 67 396 83.5 Q439 100 466 123 L466 35 Q441 18 399.5 3.5 Q358 -11 297 -11 Z M280 462 Q212 462 176.5 425 Q141 388 139 304 L411 304 Q411 341 404.5 370.5 Q398 400 383 420.5 Q368 441 343 451.5 Q318 462 280 462 Z M183 634 Q128 634 128 686 Q128 739 183 739 Q238 739 238 686 Q238 634 183 634 Z M373 634 Q318 634 318 686 Q318 739 373 739 Q428 739 428 686 Q428 634 373 634 Z " />
<glyph glyph-name="igrave" unicode="&#xec;" horiz-adv-x="290" d="M101 526 L189 526 L189 0 L101 0 L101 526 Z M-14 756 L104 756 L184 617 L109 617 L-14 756 Z " />
<glyph glyph-name="iacute" unicode="&#xed;" horiz-adv-x="290" d="M101 526 L189 526 L189 0 L101 0 L101 526 Z M190 756 L306 756 L181 617 L108 617 L190 756 Z " />
<glyph glyph-name="icircumflex" unicode="&#xee;" horiz-adv-x="290" d="M101 526 L189 526 L189 0 L101 0 L101 526 Z M98 756 L194 756 L305 617 L229 617 L146 705 L61 617 L-13 617 L98 756 Z " />
<glyph glyph-name="idieresis" unicode="&#xef;" horiz-adv-x="290" d="M101 526 L189 526 L189 0 L101 0 L101 526 Z M51 634 Q-4 634 -4 686 Q-4 739 51 739 Q106 739 106 686 Q106 634 51 634 Z M241 634 Q186 634 186 686 Q186 739 241 739 Q296 739 296 686 Q296 634 241 634 Z " />
<glyph glyph-name="eth" unicode="&#xf0;" horiz-adv-x="585" d="M156 615 L246 663 Q186 696 118 711 L149 769 Q245 745 317 701 L447 771 L469 726 L363 669 Q452 599 490.5 497.5 Q529 396 529 271 Q529 198 511 145 Q493 92 461 57.5 Q429 23 384.5 6 Q340 -11 287 -11 Q168 -11 109.5 59 Q51 129 51 255 Q51 382 108 448 Q165 514 271 514 Q288 514 307.5 511.5 Q327 509 346.5 502 Q366 495 385 481 Q404 467 420 445 L423 447 Q408 504 374.5 550.5 Q341 597 294 632 L179 570 L156 615 Z M290 69 Q325 69 352.5 79 Q380 89 399.5 111.5 Q419 134 429 169.5 Q439 205 439 255 Q439 351 403.5 392.5 Q368 434 290 434 Q255 434 227 425 Q199 416 180 395 Q161 374 151 339.5 Q141 305 141 255 Q141 204 151.5 168.5 Q162 133 181.5 111 Q201 89 228.5 79 Q256 69 290 69 Z " />
<glyph glyph-name="ntilde" unicode="&#xf1;" horiz-adv-x="585" d="M81 526 L163 526 L169 437 Q191 485 230 511 Q269 537 332 537 Q421 537 465 491 Q509 445 509 339 L509 0 L421 0 L421 310 Q421 352 414.5 380 Q408 408 393.5 425 Q379 442 356.5 449 Q334 456 302 456 Q239 456 204 419 Q169 382 169 310 L169 0 L81 0 L81 526 Z M138 634 Q141 680 164 705 Q187 730 224 730 Q244 730 260.5 724.5 Q277 719 299 709 Q320 700 333 693.5 Q346 687 360 687 Q374 687 382.5 696 Q391 705 396 729 L448 717 Q443 671 419.5 646.5 Q396 622 363 622 Q345 622 330 625.5 Q315 629 286 643 Q267 652 255 658.5 Q243 665 229 665 Q216 665 206 656.5 Q196 648 191 623 L138 634 Z " />
<glyph glyph-name="ograve" unicode="&#xf2;" horiz-adv-x="570" d="M285 -11 Q170 -11 110.5 54 Q51 119 51 263 Q51 403 113 470 Q175 537 285 537 Q402 537 460.5 473.5 Q519 410 519 263 Q519 119 458.5 54 Q398 -11 285 -11 Z M285 70 Q321 70 348 80 Q375 90 393 112.5 Q411 135 420 172 Q429 209 429 263 Q429 317 420 354 Q411 391 393 413.5 Q375 436 348 446 Q321 456 285 456 Q216 456 178.5 412.5 Q141 369 141 263 Q141 209 150 172 Q159 135 177 112.5 Q195 90 222 80 Q249 70 285 70 Z M132 756 L250 756 L330 617 L255 617 L132 756 Z " />
<glyph glyph-name="oacute" unicode="&#xf3;" horiz-adv-x="570" d="M285 -11 Q170 -11 110.5 54 Q51 119 51 263 Q51 403 113 470 Q175 537 285 537 Q402 537 460.5 473.5 Q519 410 519 263 Q519 119 458.5 54 Q398 -11 285 -11 Z M285 70 Q321 70 348 80 Q375 90 393 112.5 Q411 135 420 172 Q429 209 429 263 Q429 317 420 354 Q411 391 393 413.5 Q375 436 348 446 Q321 456 285 456 Q216 456 178.5 412.5 Q141 369 141 263 Q141 209 150 172 Q159 135 177 112.5 Q195 90 222 80 Q249 70 285 70 Z M323 756 L439 756 L314 617 L241 617 L323 756 Z " />
<glyph glyph-name="ocircumflex" unicode="&#xf4;" horiz-adv-x="570" d="M285 -11 Q170 -11 110.5 54 Q51 119 51 263 Q51 403 113 470 Q175 537 285 537 Q402 537 460.5 473.5 Q519 410 519 263 Q519 119 458.5 54 Q398 -11 285 -11 Z M285 70 Q321 70 348 80 Q375 90 393 112.5 Q411 135 420 172 Q429 209 429 263 Q429 317 420 354 Q411 391 393 413.5 Q375 436 348 446 Q321 456 285 456 Q216 456 178.5 412.5 Q141 369 141 263 Q141 209 150 172 Q159 135 177 112.5 Q195 90 222 80 Q249 70 285 70 Z M237 756 L333 756 L444 617 L368 617 L285 705 L200 617 L126 617 L237 756 Z " />
<glyph glyph-name="otilde" unicode="&#xf5;" horiz-adv-x="570" d="M285 -11 Q170 -11 110.5 54 Q51 119 51 263 Q51 403 113 470 Q175 537 285 537 Q402 537 460.5 473.5 Q519 410 519 263 Q519 119 458.5 54 Q398 -11 285 -11 Z M285 70 Q321 70 348 80 Q375 90 393 112.5 Q411 135 420 172 Q429 209 429 263 Q429 317 420 354 Q411 391 393 413.5 Q375 436 348 446 Q321 456 285 456 Q216 456 178.5 412.5 Q141 369 141 263 Q141 209 150 172 Q159 135 177 112.5 Q195 90 222 80 Q249 70 285 70 Z M130 634 Q133 680 156 705 Q179 730 216 730 Q236 730 252.5 724.5 Q269 719 291 709 Q312 700 325 693.5 Q338 687 352 687 Q366 687 374.5 696 Q383 705 388 729 L440 717 Q435 671 411.5 646.5 Q388 622 355 622 Q337 622 322 625.5 Q307 629 278 643 Q259 652 247 658.5 Q235 665 221 665 Q208 665 198 656.5 Q188 648 183 623 L130 634 Z " />
<glyph glyph-name="odieresis" unicode="&#xf6;" horiz-adv-x="570" d="M285 -11 Q170 -11 110.5 54 Q51 119 51 263 Q51 403 113 470 Q175 537 285 537 Q402 537 460.5 473.5 Q519 410 519 263 Q519 119 458.5 54 Q398 -11 285 -11 Z M285 70 Q321 70 348 80 Q375 90 393 112.5 Q411 135 420 172 Q429 209 429 263 Q429 317 420 354 Q411 391 393 413.5 Q375 436 348 446 Q321 456 285 456 Q216 456 178.5 412.5 Q141 369 141 263 Q141 209 150 172 Q159 135 177 112.5 Q195 90 222 80 Q249 70 285 70 Z M190 634 Q135 634 135 686 Q135 739 190 739 Q245 739 245 686 Q245 634 190 634 Z M380 634 Q325 634 325 686 Q325 739 380 739 Q435 739 435 686 Q435 634 380 634 Z " />
<glyph glyph-name="divide" unicode="&#xf7;" horiz-adv-x="600" d="M95 399 L505 399 L505 318 L95 318 L95 399 Z M300 115 Q236 115 236 179 Q236 243 300 243 Q364 243 364 179 Q364 115 300 115 Z M300 474 Q236 474 236 538 Q236 602 300 602 Q364 602 364 538 Q364 474 300 474 Z " />
<glyph glyph-name="oslash" unicode="&#xf8;" horiz-adv-x="570" d="M285 -11 Q203 -11 150 21 L113 -32 L67 0 L107 58 Q79 91 65 141.5 Q51 192 51 263 Q51 403 113 470 Q175 537 285 537 Q368 537 420 506 L457 558 L503 526 L463 469 Q491 436 505 385.5 Q519 335 519 263 Q519 119 458.5 54 Q398 -11 285 -11 Z M285 70 Q321 70 348 80 Q375 90 393 112.5 Q411 135 420 172 Q429 209 429 263 Q429 345 408 390 L199 91 Q230 70 285 70 Z M141 263 Q141 181 162 136 L370 434 Q338 456 285 456 Q216 456 178.5 412.5 Q141 369 141 263 Z " />
<glyph glyph-name="ugrave" unicode="&#xf9;" horiz-adv-x="580" d="M249 -11 Q164 -11 120 35 Q76 81 76 187 L76 526 L164 526 L164 216 Q164 174 170.5 146 Q177 118 191 101 Q205 84 227 77 Q249 70 279 70 Q341 70 376 107 Q411 144 411 216 L411 526 L499 526 L499 0 L417 0 L411 89 Q389 44 350.5 16.5 Q312 -11 249 -11 Z M134 756 L252 756 L332 617 L257 617 L134 756 Z " />
<glyph glyph-name="uacute" unicode="&#xfa;" horiz-adv-x="580" d="M249 -11 Q164 -11 120 35 Q76 81 76 187 L76 526 L164 526 L164 216 Q164 174 170.5 146 Q177 118 191 101 Q205 84 227 77 Q249 70 279 70 Q341 70 376 107 Q411 144 411 216 L411 526 L499 526 L499 0 L417 0 L411 89 Q389 44 350.5 16.5 Q312 -11 249 -11 Z M325 756 L441 756 L316 617 L243 617 L325 756 Z " />
<glyph glyph-name="ucircumflex" unicode="&#xfb;" horiz-adv-x="580" d="M249 -11 Q164 -11 120 35 Q76 81 76 187 L76 526 L164 526 L164 216 Q164 174 170.5 146 Q177 118 191 101 Q205 84 227 77 Q249 70 279 70 Q341 70 376 107 Q411 144 411 216 L411 526 L499 526 L499 0 L417 0 L411 89 Q389 44 350.5 16.5 Q312 -11 249 -11 Z M239 756 L335 756 L446 617 L370 617 L287 705 L202 617 L128 617 L239 756 Z " />
<glyph glyph-name="udieresis" unicode="&#xfc;" horiz-adv-x="580" d="M249 -11 Q164 -11 120 35 Q76 81 76 187 L76 526 L164 526 L164 216 Q164 174 170.5 146 Q177 118 191 101 Q205 84 227 77 Q249 70 279 70 Q341 70 376 107 Q411 144 411 216 L411 526 L499 526 L499 0 L417 0 L411 89 Q389 44 350.5 16.5 Q312 -11 249 -11 Z M192 634 Q137 634 137 686 Q137 739 192 739 Q247 739 247 686 Q247 634 192 634 Z M382 634 Q327 634 327 686 Q327 739 382 739 Q437 739 437 686 Q437 634 382 634 Z " />
<glyph glyph-name="yacute" unicode="&#xfd;" horiz-adv-x="520" d="M161 -191 Q141 -191 124 -187 Q107 -183 102 -180 L102 -94 Q111 -101 123 -105.5 Q135 -110 152 -110 Q164 -110 174 -106.5 Q184 -103 193.5 -91 Q203 -79 212.5 -57.5 Q222 -36 233 0 L20 526 L116 526 L275 117 L408 526 L500 526 L320 -3 Q299 -65 281 -102 Q263 -139 244.5 -158.5 Q226 -178 206 -184.5 Q186 -191 161 -191 Z M298 756 L414 756 L289 617 L216 617 L298 756 Z " />
<glyph glyph-name="thorn" unicode="&#xfe;" horiz-adv-x="590" d="M81 753 L169 753 L169 441 Q180 461 195 478.5 Q210 496 230.5 509 Q251 522 278.5 529.5 Q306 537 342 537 Q391 537 428 522.5 Q465 508 489.5 476 Q514 444 526.5 393 Q539 342 539 268 Q539 192 526 139 Q513 86 486.5 52.5 Q460 19 421 4 Q382 -11 331 -11 Q296 -11 269.5 -3 Q243 5 223.5 18.5 Q204 32 191 50 Q178 68 169 87 L169 -180 L81 -180 L81 753 Z M449 268 Q449 321 440.5 357 Q432 393 415 415 Q398 437 372.5 446.5 Q347 456 313 456 Q243 456 206 416.5 Q169 377 169 296 L169 230 Q169 152 207 111 Q245 70 310 70 Q345 70 371 79.5 Q397 89 414.5 112 Q432 135 440.5 173 Q449 211 449 268 Z " />
<glyph glyph-name="ydieresis" unicode="&#xff;" horiz-adv-x="520" d="M161 -191 Q141 -191 124 -187 Q107 -183 102 -180 L102 -94 Q111 -101 123 -105.5 Q135 -110 152 -110 Q164 -110 174 -106.5 Q184 -103 193.5 -91 Q203 -79 212.5 -57.5 Q222 -36 233 0 L20 526 L116 526 L275 117 L408 526 L500 526 L320 -3 Q299 -65 281 -102 Q263 -139 244.5 -158.5 Q226 -178 206 -184.5 Q186 -191 161 -191 Z M165 634 Q110 634 110 686 Q110 739 165 739 Q220 739 220 686 Q220 634 165 634 Z M355 634 Q300 634 300 686 Q300 739 355 739 Q410 739 410 686 Q410 634 355 634 Z " />
<glyph glyph-name="Amacron" unicode="&#x100;" horiz-adv-x="640" d="M270 700 L370 700 L620 0 L521 0 L458 185 L177 185 L114 0 L20 0 L270 700 Z M205 265 L430 265 L318 596 L205 265 Z M178 865 L462 865 L462 795 L178 795 L178 865 Z " />
<glyph glyph-name="amacron" unicode="&#x101;" horiz-adv-x="535" d="M215 -11 Q134 -11 92.5 30 Q51 71 51 147 Q51 187 61.5 216.5 Q72 246 97 266 Q122 286 162 296 Q202 306 261 306 L371 306 L371 353 Q371 409 345 432.5 Q319 456 249 456 Q202 456 161 443 Q120 430 92 411 L92 503 Q121 517 166 527 Q211 537 261 537 Q315 537 353 526.5 Q391 516 414.5 493.5 Q438 471 448.5 436 Q459 401 459 351 L459 0 L380 0 L375 90 Q357 48 318 18.5 Q279 -11 215 -11 Z M238 67 Q300 67 335.5 103.5 Q371 140 371 208 L371 244 L267 244 Q195 244 168 221.5 Q141 199 141 151 Q141 109 164 88 Q187 67 238 67 Z M146 709 L404 709 L404 643 L146 643 L146 709 Z " />
<glyph glyph-name="Abreve" unicode="&#x102;" horiz-adv-x="640" d="M270 700 L370 700 L620 0 L521 0 L458 185 L177 185 L114 0 L20 0 L270 700 Z M205 265 L430 265 L318 596 L205 265 Z M320 769 Q257 769 216 800.5 Q175 832 161 894 L223 911 Q234 873 256 854.5 Q278 836 320 836 Q362 836 385 854.5 Q408 873 418 911 L479 894 Q465 832 424.5 800.5 Q384 769 320 769 Z " />
<glyph glyph-name="abreve" unicode="&#x103;" horiz-adv-x="535" d="M215 -11 Q134 -11 92.5 30 Q51 71 51 147 Q51 187 61.5 216.5 Q72 246 97 266 Q122 286 162 296 Q202 306 261 306 L371 306 L371 353 Q371 409 345 432.5 Q319 456 249 456 Q202 456 161 443 Q120 430 92 411 L92 503 Q121 517 166 527 Q211 537 261 537 Q315 537 353 526.5 Q391 516 414.5 493.5 Q438 471 448.5 436 Q459 401 459 351 L459 0 L380 0 L375 90 Q357 48 318 18.5 Q279 -11 215 -11 Z M238 67 Q300 67 335.5 103.5 Q371 140 371 208 L371 244 L267 244 Q195 244 168 221.5 Q141 199 141 151 Q141 109 164 88 Q187 67 238 67 Z M273 615 Q213 615 172 647 Q131 679 119 741 L179 757 Q197 680 273 680 Q351 680 369 757 L427 741 Q415 678 374.5 646.5 Q334 615 273 615 Z " />
<glyph glyph-name="Aogonek" unicode="&#x104;" horiz-adv-x="640" d="M542 -196 Q492 -196 470 -176 Q448 -156 448 -119 Q448 -54 536 0 L521 0 L458 185 L177 185 L114 0 L20 0 L270 700 L370 700 L620 0 Q569 -26 547 -54 Q525 -82 525 -105 Q525 -138 563 -138 Q592 -138 620 -122 L620 -179 Q605 -187 586 -191.5 Q567 -196 542 -196 Z M205 265 L430 265 L318 596 L205 265 Z " />
<glyph glyph-name="aogonek" unicode="&#x105;" horiz-adv-x="535" d="M381 -196 Q331 -196 309 -176 Q287 -156 287 -119 Q287 -54 380 3 L375 90 Q357 48 318 18.5 Q279 -11 215 -11 Q134 -11 92.5 30 Q51 71 51 147 Q51 187 61.5 216.5 Q72 246 97 266 Q122 286 162 296 Q202 306 261 306 L371 306 L371 353 Q371 409 345 432.5 Q319 456 249 456 Q202 456 161 443 Q120 430 92 411 L92 503 Q121 517 166 527 Q211 537 261 537 Q315 537 353 526.5 Q391 516 414.5 493.5 Q438 471 448.5 436 Q459 401 459 351 L459 0 Q408 -26 385.5 -54 Q363 -82 363 -105 Q363 -121 372.5 -130.5 Q382 -140 402 -140 Q417 -140 431 -136 Q445 -132 459 -124 L459 -179 Q444 -187 425 -191.5 Q406 -196 381 -196 Z M238 67 Q300 67 335.5 103.5 Q371 140 371 208 L371 244 L267 244 Q195 244 168 221.5 Q141 199 141 151 Q141 109 164 88 Q187 67 238 67 Z " />
<glyph glyph-name="Cacute" unicode="&#x106;" horiz-adv-x="575" d="M358 -11 Q281 -11 223.5 9 Q166 29 127.5 73 Q89 117 69.5 186.5 Q50 256 50 355 Q50 448 70 515.5 Q90 583 128.5 626.5 Q167 670 224 690.5 Q281 711 355 711 Q392 711 422 706.5 Q452 702 475 697 Q501 691 522 683 L522 587 Q493 604 452 614.5 Q411 625 356 625 Q305 625 265.5 610.5 Q226 596 199.5 564 Q173 532 159.5 480.5 Q146 429 146 355 Q146 278 160 225 Q174 172 201 138.5 Q228 105 268 90 Q308 75 360 75 Q417 75 460.5 91 Q504 107 530 122 L530 25 Q508 15 481 7 Q458 0 426.5 -5.5 Q395 -11 358 -11 Z M379 910 L497 910 L364 770 L289 770 L379 910 Z " />
<glyph glyph-name="cacute" unicode="&#x107;" horiz-adv-x="475" d="M300 -11 Q237 -11 190 4.5 Q143 20 112.5 54 Q82 88 66.5 141 Q51 194 51 268 Q51 407 113 472 Q175 537 293 537 Q347 537 382 527.5 Q417 518 431 512 L431 417 Q408 433 375 444.5 Q342 456 300 456 Q222 456 181.5 412 Q141 368 141 268 Q141 162 183 116 Q225 70 310 70 Q347 70 383 82.5 Q419 95 440 112 L440 21 Q426 13 390.5 1 Q355 -11 300 -11 Z M312 756 L428 756 L303 617 L230 617 L312 756 Z " />
<glyph glyph-name="Ccircumflex" unicode="&#x108;" horiz-adv-x="575" d="M358 -11 Q281 -11 223.5 9 Q166 29 127.5 73 Q89 117 69.5 186.5 Q50 256 50 355 Q50 448 70 515.5 Q90 583 128.5 626.5 Q167 670 224 690.5 Q281 711 355 711 Q392 711 422 706.5 Q452 702 475 697 Q501 691 522 683 L522 587 Q493 604 452 614.5 Q411 625 356 625 Q305 625 265.5 610.5 Q226 596 199.5 564 Q173 532 159.5 480.5 Q146 429 146 355 Q146 278 160 225 Q174 172 201 138.5 Q228 105 268 90 Q308 75 360 75 Q417 75 460.5 91 Q504 107 530 122 L530 25 Q508 15 481 7 Q458 0 426.5 -5.5 Q395 -11 358 -11 Z M283 910 L383 910 L498 770 L420 770 L333 857 L244 770 L168 770 L283 910 Z " />
<glyph glyph-name="ccircumflex" unicode="&#x109;" horiz-adv-x="475" d="M300 -11 Q237 -11 190 4.5 Q143 20 112.5 54 Q82 88 66.5 141 Q51 194 51 268 Q51 407 113 472 Q175 537 293 537 Q347 537 382 527.5 Q417 518 431 512 L431 417 Q408 433 375 444.5 Q342 456 300 456 Q222 456 181.5 412 Q141 368 141 268 Q141 162 183 116 Q225 70 310 70 Q347 70 383 82.5 Q419 95 440 112 L440 21 Q426 13 390.5 1 Q355 -11 300 -11 Z M225 756 L321 756 L432 617 L356 617 L273 705 L188 617 L114 617 L225 756 Z " />
<glyph glyph-name="Cdotaccent" unicode="&#x10a;" horiz-adv-x="575" d="M358 -11 Q281 -11 223.5 9 Q166 29 127.5 73 Q89 117 69.5 186.5 Q50 256 50 355 Q50 448 70 515.5 Q90 583 128.5 626.5 Q167 670 224 690.5 Q281 711 355 711 Q392 711 422 706.5 Q452 702 475 697 Q501 691 522 683 L522 587 Q493 604 452 614.5 Q411 625 356 625 Q305 625 265.5 610.5 Q226 596 199.5 564 Q173 532 159.5 480.5 Q146 429 146 355 Q146 278 160 225 Q174 172 201 138.5 Q228 105 268 90 Q308 75 360 75 Q417 75 460.5 91 Q504 107 530 122 L530 25 Q508 15 481 7 Q458 0 426.5 -5.5 Q395 -11 358 -11 Z M333 784 Q275 784 275 840 Q275 896 333 896 Q391 896 391 840 Q391 784 333 784 Z " />
<glyph glyph-name="cdotaccent" unicode="&#x10b;" horiz-adv-x="475" d="M300 -11 Q237 -11 190 4.5 Q143 20 112.5 54 Q82 88 66.5 141 Q51 194 51 268 Q51 407 113 472 Q175 537 293 537 Q347 537 382 527.5 Q417 518 431 512 L431 417 Q408 433 375 444.5 Q342 456 300 456 Q222 456 181.5 412 Q141 368 141 268 Q141 162 183 116 Q225 70 310 70 Q347 70 383 82.5 Q419 95 440 112 L440 21 Q426 13 390.5 1 Q355 -11 300 -11 Z M273 632 Q217 632 217 686 Q217 740 273 740 Q329 740 329 686 Q329 632 273 632 Z " />
<glyph glyph-name="Ccaron" unicode="&#x10c;" horiz-adv-x="575" d="M358 -11 Q281 -11 223.5 9 Q166 29 127.5 73 Q89 117 69.5 186.5 Q50 256 50 355 Q50 448 70 515.5 Q90 583 128.5 626.5 Q167 670 224 690.5 Q281 711 355 711 Q392 711 422 706.5 Q452 702 475 697 Q501 691 522 683 L522 587 Q493 604 452 614.5 Q411 625 356 625 Q305 625 265.5 610.5 Q226 596 199.5 564 Q173 532 159.5 480.5 Q146 429 146 355 Q146 278 160 225 Q174 172 201 138.5 Q228 105 268 90 Q308 75 360 75 Q417 75 460.5 91 Q504 107 530 122 L530 25 Q508 15 481 7 Q458 0 426.5 -5.5 Q395 -11 358 -11 Z M168 910 L246 910 L334 823 L422 910 L498 910 L383 770 L283 770 L168 910 Z " />
<glyph glyph-name="ccaron" unicode="&#x10d;" horiz-adv-x="475" d="M300 -11 Q237 -11 190 4.5 Q143 20 112.5 54 Q82 88 66.5 141 Q51 194 51 268 Q51 407 113 472 Q175 537 293 537 Q347 537 382 527.5 Q417 518 431 512 L431 417 Q408 433 375 444.5 Q342 456 300 456 Q222 456 181.5 412 Q141 368 141 268 Q141 162 183 116 Q225 70 310 70 Q347 70 383 82.5 Q419 95 440 112 L440 21 Q426 13 390.5 1 Q355 -11 300 -11 Z M114 756 L190 756 L273 667 L358 756 L432 756 L321 617 L225 617 L114 756 Z " />
<glyph glyph-name="Dcaron" unicode="&#x10e;" horiz-adv-x="680" d="M290 -6 Q256 -6 222.5 -4.5 Q189 -3 162 -1 Q130 2 101 5 L101 695 Q130 697 162 700 Q189 702 223.5 704 Q258 706 293 706 Q383 706 447 687 Q511 668 551.5 626.5 Q592 585 611 518.5 Q630 452 630 358 Q630 168 546 81 Q462 -6 290 -6 Z M534 358 Q534 433 521.5 483 Q509 533 481 563 Q453 593 407 606 Q361 619 295 619 Q273 619 254.5 618 Q236 617 222 616 Q206 615 193 614 L193 86 Q205 84 221 83 Q235 82 252.5 81.5 Q270 81 292 81 Q355 81 400.5 95.5 Q446 110 476 143 Q506 176 520 229 Q534 282 534 358 Z M159 910 L237 910 L325 823 L413 910 L489 910 L374 770 L274 770 L159 910 Z " />
<glyph glyph-name="dcaron" unicode="&#x10f;" horiz-adv-x="660" d="M631 753 L715 753 L659 574 L601 574 L631 753 Z M421 89 Q412 69 398.5 51 Q385 33 365 19.5 Q345 6 318 -2.5 Q291 -11 256 -11 Q205 -11 166.5 4 Q128 19 102.5 52 Q77 85 64 138 Q51 191 51 268 Q51 409 103 473 Q155 537 252 537 Q318 537 361 510.5 Q404 484 421 439 L421 753 L509 753 L509 0 L427 0 L421 89 Z M141 268 Q141 212 150 174 Q159 136 176.5 113 Q194 90 220 80 Q246 70 281 70 Q345 70 383 111 Q421 152 421 232 L421 299 Q421 371 386.5 413.5 Q352 456 277 456 Q209 456 175 414 Q141 372 141 268 Z " />
<glyph glyph-name="Dcroat" unicode="&#x110;" horiz-adv-x="690" d="M17 391 L111 391 L111 695 Q140 697 172 700 Q199 702 233.5 704 Q268 706 303 706 Q393 706 457 687 Q521 668 561.5 626.5 Q602 585 621 518.5 Q640 452 640 358 Q640 168 556 81 Q472 -6 300 -6 Q266 -6 232.5 -4.5 Q199 -3 172 -1 Q140 2 111 5 L111 319 L17 319 L17 391 Z M544 358 Q544 433 531.5 483 Q519 533 491 563 Q463 593 417 606 Q371 619 305 619 Q283 619 264.5 618 Q246 617 232 616 Q216 615 203 614 L203 391 L369 391 L369 319 L203 319 L203 86 Q215 84 231 83 Q245 82 262.5 81.5 Q280 81 302 81 Q365 81 410.5 95.5 Q456 110 486 143 Q516 176 530 229 Q544 282 544 358 Z " />
<glyph glyph-name="dslash" unicode="&#x111;" horiz-adv-x="590" d="M228 665 L421 665 L421 753 L509 753 L509 665 L603 665 L603 601 L509 601 L509 0 L427 0 L421 89 Q412 69 398.5 51 Q385 33 365 19.5 Q345 6 318 -2.5 Q291 -11 256 -11 Q205 -11 166.5 4 Q128 19 102.5 52 Q77 85 64 138 Q51 191 51 268 Q51 409 103 473 Q155 537 252 537 Q318 537 361 510.5 Q404 484 421 439 L421 601 L228 601 L228 665 Z M141 268 Q141 212 150 174 Q159 136 176.5 113 Q194 90 220 80 Q246 70 281 70 Q345 70 383 111 Q421 152 421 232 L421 299 Q421 371 386.5 413.5 Q352 456 277 456 Q209 456 175 414 Q141 372 141 268 Z " />
<glyph glyph-name="Emacron" unicode="&#x112;" horiz-adv-x="575" d="M101 700 L520 700 L520 617 L193 617 L193 399 L480 399 L480 318 L193 318 L193 83 L520 83 L520 0 L101 0 L101 700 Z M168 865 L452 865 L452 795 L168 795 L168 865 Z " />
<glyph glyph-name="emacron" unicode="&#x113;" horiz-adv-x="550" d="M297 -11 Q170 -11 110.5 55.5 Q51 122 51 266 Q51 405 112 471 Q173 537 280 537 Q394 537 446.5 476 Q499 415 499 281 L499 240 L139 240 Q141 151 180 109 Q219 67 303 67 Q353 67 396 83.5 Q439 100 466 123 L466 35 Q441 18 399.5 3.5 Q358 -11 297 -11 Z M280 462 Q212 462 176.5 425 Q141 388 139 304 L411 304 Q411 341 404.5 370.5 Q398 400 383 420.5 Q368 441 343 451.5 Q318 462 280 462 Z M151 709 L409 709 L409 643 L151 643 L151 709 Z " />
<glyph glyph-name="Edotaccent" unicode="&#x116;" horiz-adv-x="575" d="M101 700 L520 700 L520 617 L193 617 L193 399 L480 399 L480 318 L193 318 L193 83 L520 83 L520 0 L101 0 L101 700 Z M310 784 Q252 784 252 840 Q252 896 310 896 Q368 896 368 840 Q368 784 310 784 Z " />
<glyph glyph-name="edotaccent" unicode="&#x117;" horiz-adv-x="550" d="M297 -11 Q170 -11 110.5 55.5 Q51 122 51 266 Q51 405 112 471 Q173 537 280 537 Q394 537 446.5 476 Q499 415 499 281 L499 240 L139 240 Q141 151 180 109 Q219 67 303 67 Q353 67 396 83.5 Q439 100 466 123 L466 35 Q441 18 399.5 3.5 Q358 -11 297 -11 Z M280 462 Q212 462 176.5 425 Q141 388 139 304 L411 304 Q411 341 404.5 370.5 Q398 400 383 420.5 Q368 441 343 451.5 Q318 462 280 462 Z M278 632 Q222 632 222 686 Q222 740 278 740 Q334 740 334 686 Q334 632 278 632 Z " />
<glyph glyph-name="Eogonek" unicode="&#x118;" horiz-adv-x="575" d="M101 700 L520 700 L520 617 L193 617 L193 399 L480 399 L480 318 L193 318 L193 83 L520 83 L520 0 Q469 -26 447 -54 Q425 -82 425 -105 Q425 -138 463 -138 Q492 -138 520 -122 L520 -179 Q505 -187 486 -191.5 Q467 -196 442 -196 Q392 -196 370 -176 Q348 -156 348 -119 Q348 -54 436 0 L101 0 L101 700 Z " />
<glyph glyph-name="eogonek" unicode="&#x119;" horiz-adv-x="550" d="M297 -11 Q170 -11 110.5 55.5 Q51 122 51 266 Q51 405 112 471 Q173 537 280 537 Q394 537 446.5 476 Q499 415 499 281 L499 240 L139 240 Q141 151 180 109 Q219 67 303 67 Q353 67 396 83.5 Q439 100 466 123 L466 35 L461 31 Q427 8 404.5 -11 Q382 -30 368.5 -46 Q355 -62 349 -76 Q343 -90 343 -105 Q343 -121 353 -130.5 Q363 -140 383 -140 Q398 -140 411.5 -136 Q425 -132 439 -124 L439 -179 Q424 -187 405.5 -191.5 Q387 -196 362 -196 Q312 -196 290 -176 Q268 -156 268 -119 Q268 -87 286 -59.5 Q304 -32 335 -9 Q326 -10 316.5 -10.5 Q307 -11 297 -11 Z M280 462 Q212 462 176.5 425 Q141 388 139 304 L411 304 Q411 341 404.5 370.5 Q398 400 383 420.5 Q368 441 343 451.5 Q318 462 280 462 Z " />
<glyph glyph-name="Ecaron" unicode="&#x11a;" horiz-adv-x="575" d="M101 700 L520 700 L520 617 L193 617 L193 399 L480 399 L480 318 L193 318 L193 83 L520 83 L520 0 L101 0 L101 700 Z M145 910 L223 910 L311 823 L399 910 L475 910 L360 770 L260 770 L145 910 Z " />
<glyph glyph-name="ecaron" unicode="&#x11b;" horiz-adv-x="550" d="M297 -11 Q170 -11 110.5 55.5 Q51 122 51 266 Q51 405 112 471 Q173 537 280 537 Q394 537 446.5 476 Q499 415 499 281 L499 240 L139 240 Q141 151 180 109 Q219 67 303 67 Q353 67 396 83.5 Q439 100 466 123 L466 35 Q441 18 399.5 3.5 Q358 -11 297 -11 Z M280 462 Q212 462 176.5 425 Q141 388 139 304 L411 304 Q411 341 404.5 370.5 Q398 400 383 420.5 Q368 441 343 451.5 Q318 462 280 462 Z M119 756 L195 756 L278 667 L363 756 L437 756 L326 617 L230 617 L119 756 Z " />
<glyph glyph-name="Gcircumflex" unicode="&#x11c;" horiz-adv-x="650" d="M377 -11 Q294 -11 232.5 9.5 Q171 30 130.5 74 Q90 118 70 187.5 Q50 257 50 355 Q50 539 133 625 Q216 711 377 711 Q415 711 445 706.5 Q475 702 496 697 Q521 691 540 683 L540 587 Q512 601 470 613 Q428 625 377 625 Q261 625 203.5 562.5 Q146 500 146 355 Q146 278 160 224.5 Q174 171 202.5 138 Q231 105 274.5 90 Q318 75 377 75 Q409 75 438 79.5 Q467 84 490 92 L490 280 L357 280 L357 360 L580 360 L580 33 Q552 19 499 4 Q446 -11 377 -11 Z M307 910 L407 910 L522 770 L444 770 L357 857 L268 770 L192 770 L307 910 Z " />
<glyph glyph-name="gcircumflex" unicode="&#x11d;" horiz-adv-x="590" d="M272 -191 Q212 -191 165.5 -180 Q119 -169 92 -155 L92 -53 Q102 -62 119.5 -72.5 Q137 -83 160 -91 Q183 -99 210.5 -104.5 Q238 -110 270 -110 Q351 -110 386 -76 Q421 -42 421 29 L421 105 Q412 85 398.5 67 Q385 49 365 35.5 Q345 22 318 13.5 Q291 5 256 5 Q154 5 102.5 67 Q51 129 51 272 Q51 410 103 473.5 Q155 537 252 537 Q318 537 361 510.5 Q404 484 421 439 L427 526 L509 526 L509 35 Q509 -83 451.5 -137 Q394 -191 272 -191 Z M281 86 Q345 86 383 128 Q421 170 421 247 L421 304 Q421 338 412.5 366 Q404 394 386 414 Q368 434 341 445 Q314 456 277 456 Q209 456 175 415 Q141 374 141 276 Q141 223 150 186.5 Q159 150 176.5 127.5 Q194 105 220 95.5 Q246 86 281 86 Z M232 756 L328 756 L439 617 L363 617 L280 705 L195 617 L121 617 L232 756 Z " />
<glyph glyph-name="Gbreve" unicode="&#x11e;" horiz-adv-x="650" d="M377 -11 Q294 -11 232.5 9.5 Q171 30 130.5 74 Q90 118 70 187.5 Q50 257 50 355 Q50 539 133 625 Q216 711 377 711 Q415 711 445 706.5 Q475 702 496 697 Q521 691 540 683 L540 587 Q512 601 470 613 Q428 625 377 625 Q261 625 203.5 562.5 Q146 500 146 355 Q146 278 160 224.5 Q174 171 202.5 138 Q231 105 274.5 90 Q318 75 377 75 Q409 75 438 79.5 Q467 84 490 92 L490 280 L357 280 L357 360 L580 360 L580 33 Q552 19 499 4 Q446 -11 377 -11 Z M357 769 Q294 769 253 800.5 Q212 832 198 894 L260 911 Q271 873 293 854.5 Q315 836 357 836 Q399 836 422 854.5 Q445 873 455 911 L516 894 Q502 832 461.5 800.5 Q421 769 357 769 Z " />
<glyph glyph-name="gbreve" unicode="&#x11f;" horiz-adv-x="590" d="M272 -191 Q212 -191 165.5 -180 Q119 -169 92 -155 L92 -53 Q102 -62 119.5 -72.5 Q137 -83 160 -91 Q183 -99 210.5 -104.5 Q238 -110 270 -110 Q351 -110 386 -76 Q421 -42 421 29 L421 105 Q412 85 398.5 67 Q385 49 365 35.5 Q345 22 318 13.5 Q291 5 256 5 Q154 5 102.5 67 Q51 129 51 272 Q51 410 103 473.5 Q155 537 252 537 Q318 537 361 510.5 Q404 484 421 439 L427 526 L509 526 L509 35 Q509 -83 451.5 -137 Q394 -191 272 -191 Z M281 86 Q345 86 383 128 Q421 170 421 247 L421 304 Q421 338 412.5 366 Q404 394 386 414 Q368 434 341 445 Q314 456 277 456 Q209 456 175 415 Q141 374 141 276 Q141 223 150 186.5 Q159 150 176.5 127.5 Q194 105 220 95.5 Q246 86 281 86 Z M280 615 Q220 615 179 647 Q138 679 126 741 L186 757 Q204 680 280 680 Q358 680 376 757 L434 741 Q422 678 381.5 646.5 Q341 615 280 615 Z " />
<glyph glyph-name="Gdotaccent" unicode="&#x120;" horiz-adv-x="650" d="M377 -11 Q294 -11 232.5 9.5 Q171 30 130.5 74 Q90 118 70 187.5 Q50 257 50 355 Q50 539 133 625 Q216 711 377 711 Q415 711 445 706.5 Q475 702 496 697 Q521 691 540 683 L540 587 Q512 601 470 613 Q428 625 377 625 Q261 625 203.5 562.5 Q146 500 146 355 Q146 278 160 224.5 Q174 171 202.5 138 Q231 105 274.5 90 Q318 75 377 75 Q409 75 438 79.5 Q467 84 490 92 L490 280 L357 280 L357 360 L580 360 L580 33 Q552 19 499 4 Q446 -11 377 -11 Z M357 784 Q299 784 299 840 Q299 896 357 896 Q415 896 415 840 Q415 784 357 784 Z " />
<glyph glyph-name="gdotaccent" unicode="&#x121;" horiz-adv-x="590" d="M272 -191 Q212 -191 165.5 -180 Q119 -169 92 -155 L92 -53 Q102 -62 119.5 -72.5 Q137 -83 160 -91 Q183 -99 210.5 -104.5 Q238 -110 270 -110 Q351 -110 386 -76 Q421 -42 421 29 L421 105 Q412 85 398.5 67 Q385 49 365 35.5 Q345 22 318 13.5 Q291 5 256 5 Q154 5 102.5 67 Q51 129 51 272 Q51 410 103 473.5 Q155 537 252 537 Q318 537 361 510.5 Q404 484 421 439 L427 526 L509 526 L509 35 Q509 -83 451.5 -137 Q394 -191 272 -191 Z M281 86 Q345 86 383 128 Q421 170 421 247 L421 304 Q421 338 412.5 366 Q404 394 386 414 Q368 434 341 445 Q314 456 277 456 Q209 456 175 415 Q141 374 141 276 Q141 223 150 186.5 Q159 150 176.5 127.5 Q194 105 220 95.5 Q246 86 281 86 Z M280 632 Q224 632 224 686 Q224 740 280 740 Q336 740 336 686 Q336 632 280 632 Z " />
<glyph glyph-name="uni0122" unicode="&#x122;" horiz-adv-x="650" d="M377 -11 Q294 -11 232.5 9.5 Q171 30 130.5 74 Q90 118 70 187.5 Q50 257 50 355 Q50 539 133 625 Q216 711 377 711 Q415 711 445 706.5 Q475 702 496 697 Q521 691 540 683 L540 587 Q512 601 470 613 Q428 625 377 625 Q261 625 203.5 562.5 Q146 500 146 355 Q146 278 160 224.5 Q174 171 202.5 138 Q231 105 274.5 90 Q318 75 377 75 Q409 75 438 79.5 Q467 84 490 92 L490 280 L357 280 L357 360 L580 360 L580 33 Q552 19 499 4 Q446 -11 377 -11 Z M294 -173 Q318 -171 338 -163.5 Q358 -156 362 -136 Q317 -136 302.5 -124.5 Q288 -113 288 -93 Q288 -74 303.5 -61.5 Q319 -49 357 -49 Q392 -49 409 -64.5 Q426 -80 426 -107 Q426 -150 394.5 -183 Q363 -216 301 -221 L294 -173 Z " />
<glyph glyph-name="uni0123" unicode="&#x123;" horiz-adv-x="590" d="M272 -191 Q212 -191 165.5 -180 Q119 -169 92 -155 L92 -53 Q102 -62 119.5 -72.5 Q137 -83 160 -91 Q183 -99 210.5 -104.5 Q238 -110 270 -110 Q351 -110 386 -76 Q421 -42 421 29 L421 105 Q412 85 398.5 67 Q385 49 365 35.5 Q345 22 318 13.5 Q291 5 256 5 Q154 5 102.5 67 Q51 129 51 272 Q51 410 103 473.5 Q155 537 252 537 Q318 537 361 510.5 Q404 484 421 439 L427 526 L509 526 L509 35 Q509 -83 451.5 -137 Q394 -191 272 -191 Z M281 86 Q345 86 383 128 Q421 170 421 247 L421 304 Q421 338 412.5 366 Q404 394 386 414 Q368 434 341 445 Q314 456 277 456 Q209 456 175 415 Q141 374 141 276 Q141 223 150 186.5 Q159 150 176.5 127.5 Q194 105 220 95.5 Q246 86 281 86 Z M340.002 742.989 Q311.004 740.99 293.505 732.49 Q276.006 723.991 273.007 704.992 Q316.004 704.992 331.003 693.992 Q346.002 682.993 346.002 662.994 Q346.002 643.995 330.503 631.496 Q315.004 618.997 280.006 618.997 Q214.01 618.997 214.01 680.993 Q214.01 698.992 221.01 717.491 Q228.009 735.99 242.508 751.489 Q257.008 766.988 279.506 777.487 Q302.005 787.987 333.003 790.987 L340.002 742.989 Z " />
<glyph glyph-name="Hcircumflex" unicode="&#x124;" horiz-adv-x="720" d="M101 700 L193 700 L193 401 L527 401 L527 700 L619 700 L619 0 L527 0 L527 317 L193 317 L193 0 L101 0 L101 700 Z M310 910 L410 910 L525 770 L447 770 L360 857 L271 770 L195 770 L310 910 Z " />
<glyph glyph-name="hcircumflex" unicode="&#x125;" horiz-adv-x="585" d="M81 753 L169 753 L169 437 Q191 485 230 511 Q269 537 332 537 Q421 537 465 491 Q509 445 509 339 L509 0 L421 0 L421 308 Q421 350 414.5 378.5 Q408 407 393.5 424.5 Q379 442 356.5 449 Q334 456 302 456 Q239 456 204 419 Q169 382 169 308 L169 0 L81 0 L81 753 Z M78 935 L174 935 L285 796 L209 796 L126 884 L41 796 L-33 796 L78 935 Z " />
<glyph glyph-name="Hbar" unicode="&#x126;" horiz-adv-x="740" d="M17 586 L111 586 L111 700 L203 700 L203 586 L537 586 L537 700 L629 700 L629 586 L723 586 L723 514 L629 514 L629 0 L537 0 L537 317 L203 317 L203 0 L111 0 L111 514 L17 514 L17 586 Z M537 401 L537 514 L203 514 L203 401 L537 401 Z " />
<glyph glyph-name="hbar" unicode="&#x127;" horiz-adv-x="605" d="M7 667 L101 667 L101 753 L189 753 L189 667 L389 667 L389 599 L189 599 L189 437 Q211 485 250 511 Q289 537 352 537 Q441 537 485 491 Q529 445 529 339 L529 0 L441 0 L441 308 Q441 350 434.5 378.5 Q428 407 413.5 424.5 Q399 442 376.5 449 Q354 456 322 456 Q259 456 224 419 Q189 382 189 308 L189 0 L101 0 L101 599 L7 599 L7 667 Z " />
<glyph glyph-name="Imacron" unicode="&#x12a;" horiz-adv-x="330" d="M119 700 L211 700 L211 0 L119 0 L119 700 Z M24 865 L308 865 L308 795 L24 795 L24 865 Z " />
<glyph glyph-name="imacron" unicode="&#x12b;" horiz-adv-x="290" d="M101 526 L189 526 L189 0 L101 0 L101 526 Z M19 709 L277 709 L277 643 L19 643 L19 709 Z " />
<glyph glyph-name="Iogonek" unicode="&#x12e;" horiz-adv-x="330" d="M119 700 L211 700 L211 1 L214 0 Q163 -26 140.5 -54 Q118 -82 118 -105 Q118 -121 127.5 -130.5 Q137 -140 157 -140 Q172 -140 186 -136 Q200 -132 214 -124 L214 -179 Q199 -187 180 -191.5 Q161 -196 136 -196 Q86 -196 64 -176 Q42 -156 42 -119 Q42 -56 129 0 L119 0 L119 700 Z " />
<glyph glyph-name="iogonek" unicode="&#x12f;" horiz-adv-x="290" d="M101 526 L189 526 L189 2 L194 0 Q143 -26 120.5 -54 Q98 -82 98 -105 Q98 -121 107.5 -130.5 Q117 -140 137 -140 Q152 -140 166 -136 Q180 -132 194 -124 L194 -179 Q179 -187 160 -191.5 Q141 -196 116 -196 Q66 -196 44 -176 Q22 -156 22 -119 Q22 -56 109 0 L101 0 L101 526 Z M145 632 Q89 632 89 686 Q89 740 145 740 Q201 740 201 686 Q201 632 145 632 Z " />
<glyph glyph-name="Idot" unicode="&#x130;" horiz-adv-x="330" d="M119 700 L211 700 L211 0 L119 0 L119 700 Z M165 784 Q107 784 107 840 Q107 896 165 896 Q223 896 223 840 Q223 784 165 784 Z " />
<glyph glyph-name="dotlessi" unicode="&#x131;" horiz-adv-x="290" d="M101 526 L189 526 L189 0 L101 0 L101 526 Z " />
<glyph glyph-name="Jcircumflex" unicode="&#x134;" horiz-adv-x="420" d="M140 -11 Q116 -11 97 -8.5 Q78 -6 64 -2 Q48 2 35 7 L35 104 Q46 95 60 89 Q72 84 90 79.5 Q108 75 131 75 Q177 75 199 99.5 Q221 124 221 183 L221 700 L314 700 L314 183 Q314 78 272 33.5 Q230 -11 140 -11 Z M218 910 L318 910 L433 770 L355 770 L268 857 L179 770 L103 770 L218 910 Z " />
<glyph glyph-name="jcircumflex" unicode="&#x135;" horiz-adv-x="290" d="M53 -186 Q27 -186 6.5 -182 Q-14 -178 -21 -174 L-21 -86 Q-10 -94 5.5 -99 Q21 -104 40 -104 Q72 -104 86.5 -87 Q101 -70 101 -24 L101 526 L189 526 L189 -27 Q189 -112 155 -149 Q121 -186 53 -186 Z M98 756 L194 756 L305 617 L229 617 L146 705 L61 617 L-13 617 L98 756 Z " />
<glyph glyph-name="uni0136" unicode="&#x136;" horiz-adv-x="655" d="M266 317 L193 317 L193 0 L101 0 L101 700 L193 700 L193 400 L266 400 L497 700 L610 700 L344 360 L630 0 L514 0 L266 317 Z M302 -173 Q326 -171 346 -163.5 Q366 -156 370 -136 Q325 -136 310.5 -124.5 Q296 -113 296 -93 Q296 -74 311.5 -61.5 Q327 -49 365 -49 Q400 -49 417 -64.5 Q434 -80 434 -107 Q434 -150 402.5 -183 Q371 -216 309 -221 L302 -173 Z " />
<glyph glyph-name="uni0137" unicode="&#x137;" horiz-adv-x="555" d="M81 753 L169 753 L169 313 L229 313 L396 526 L499 526 L300 275 L519 0 L413 0 L229 234 L169 234 L169 0 L81 0 L81 753 Z M240 -173 Q269 -171 286.5 -162.5 Q304 -154 307 -135 Q264 -135 249 -124 Q234 -113 234 -93 Q234 -74 249.5 -61.5 Q265 -49 300 -49 Q366 -49 366 -111 Q366 -129 359 -147.5 Q352 -166 337.5 -181.5 Q323 -197 300.5 -207.5 Q278 -218 247 -221 L240 -173 Z " />
<glyph glyph-name="Lacute" unicode="&#x139;" horiz-adv-x="530" d="M101 700 L193 700 L193 83 L500 83 L500 0 L101 0 L101 700 Z M196 910 L314 910 L181 770 L106 770 L196 910 Z " />
<glyph glyph-name="lacute" unicode="&#x13a;" horiz-adv-x="315" d="M205 -6 Q138 -6 107 26 Q76 58 76 126 L76 753 L164 753 L164 143 Q164 104 177 90.5 Q190 77 221 77 Q238 77 255 82 Q272 87 280 91 L280 9 Q272 6 252 0 Q232 -6 205 -6 Z M161 903 L270 903 L153 782 L84 782 L161 903 Z " />
<glyph glyph-name="uni013B" unicode="&#x13b;" horiz-adv-x="530" d="M101 700 L193 700 L193 83 L500 83 L500 0 L101 0 L101 700 Z M237 -173 Q261 -171 281 -163.5 Q301 -156 305 -136 Q260 -136 245.5 -124.5 Q231 -113 231 -93 Q231 -74 246.5 -61.5 Q262 -49 300 -49 Q335 -49 352 -64.5 Q369 -80 369 -107 Q369 -150 337.5 -183 Q306 -216 244 -221 L237 -173 Z " />
<glyph glyph-name="uni013C" unicode="&#x13c;" horiz-adv-x="315" d="M205 -6 Q138 -6 107 26 Q76 58 76 126 L76 753 L164 753 L164 143 Q164 104 177 90.5 Q190 77 221 77 Q238 77 255 82 Q272 87 280 91 L280 9 Q272 6 252 0 Q232 -6 205 -6 Z M123 -173 Q152 -171 169.5 -162.5 Q187 -154 190 -135 Q147 -135 132 -124 Q117 -113 117 -93 Q117 -74 132.5 -61.5 Q148 -49 183 -49 Q249 -49 249 -111 Q249 -129 242 -147.5 Q235 -166 220.5 -181.5 Q206 -197 183.5 -207.5 Q161 -218 130 -221 L123 -173 Z " />
<glyph glyph-name="Lcaron" unicode="&#x13d;" horiz-adv-x="530" d="M365 700 L454 700 L392 514 L329 514 L365 700 Z M101 700 L193 700 L193 83 L500 83 L500 0 L101 0 L101 700 Z " />
<glyph glyph-name="lcaron" unicode="&#x13e;" horiz-adv-x="375" d="M292 753 L377 753 L314 574 L255 574 L292 753 Z M205 -6 Q138 -6 107 26 Q76 58 76 126 L76 753 L164 753 L164 143 Q164 104 177 90.5 Q190 77 221 77 Q238 77 255 82 Q272 87 280 91 L280 9 Q272 6 252 0 Q232 -6 205 -6 Z " />
<glyph glyph-name="Ldot" unicode="&#x13f;" horiz-adv-x="530" d="M101 700 L193 700 L193 83 L500 83 L500 0 L101 0 L101 700 Z M412 316 Q348 316 348 380 Q348 444 412 444 Q476 444 476 380 Q476 316 412 316 Z " />
<glyph glyph-name="ldot" unicode="&#x140;" horiz-adv-x="415" d="M205 -6 Q138 -6 107 26 Q76 58 76 126 L76 753 L164 753 L164 143 Q164 104 177 90.5 Q190 77 221 77 Q238 77 255 82 Q272 87 280 91 L280 9 Q272 6 252 0 Q232 -6 205 -6 Z M325 316 Q261 316 261 380 Q261 444 325 444 Q389 444 389 380 Q389 316 325 316 Z " />
<glyph glyph-name="Lslash" unicode="&#x141;" horiz-adv-x="540" d="M17 341 L111 395 L111 700 L203 700 L203 448 L356 537 L356 456 L203 367 L203 83 L510 83 L510 0 L111 0 L111 314 L17 260 L17 341 Z " />
<glyph glyph-name="lslash" unicode="&#x142;" horiz-adv-x="370" d="M17 367 L117 424 L117 753 L205 753 L205 475 L312 537 L312 459 L205 397 L205 143 Q205 104 218.5 90.5 Q232 77 262 77 Q279 77 296 82 Q313 87 321 91 L321 9 Q313 6 293 0 Q273 -6 246 -6 Q179 -6 148 26 Q117 58 117 126 L117 346 L17 289 L17 367 Z " />
<glyph glyph-name="Nacute" unicode="&#x143;" horiz-adv-x="740" d="M101 700 L204 700 L490 246 Q502 226 512.5 207 Q523 188 531 173 Q540 155 548 140 L550 140 Q549 155 548 173 Q547 188 547 207 Q547 226 547 246 L547 700 L639 700 L639 0 L536 0 L250 454 Q236 477 225.5 496 Q215 515 207 529 Q198 546 192 560 L190 560 Q190 546 191 529 Q192 515 192.5 496 Q193 477 193 454 L193 0 L101 0 L101 700 Z M415 910 L533 910 L400 770 L325 770 L415 910 Z " />
<glyph glyph-name="nacute" unicode="&#x144;" horiz-adv-x="585" d="M81 526 L163 526 L169 437 Q191 485 230 511 Q269 537 332 537 Q421 537 465 491 Q509 445 509 339 L509 0 L421 0 L421 310 Q421 352 414.5 380 Q408 408 393.5 425 Q379 442 356.5 449 Q334 456 302 456 Q239 456 204 419 Q169 382 169 310 L169 0 L81 0 L81 526 Z M333 756 L449 756 L324 617 L251 617 L333 756 Z " />
<glyph glyph-name="uni0145" unicode="&#x145;" horiz-adv-x="740" d="M101 700 L204 700 L490 246 Q502 226 512.5 207 Q523 188 531 173 Q540 155 548 140 L550 140 Q549 155 548 173 Q547 188 547 207 Q547 226 547 246 L547 700 L639 700 L639 0 L536 0 L250 454 Q236 477 225.5 496 Q215 515 207 529 Q198 546 192 560 L190 560 Q190 546 191 529 Q192 515 192.5 496 Q193 477 193 454 L193 0 L101 0 L101 700 Z M307 -173 Q331 -171 351 -163.5 Q371 -156 375 -136 Q330 -136 315.5 -124.5 Q301 -113 301 -93 Q301 -74 316.5 -61.5 Q332 -49 370 -49 Q405 -49 422 -64.5 Q439 -80 439 -107 Q439 -150 407.5 -183 Q376 -216 314 -221 L307 -173 Z " />
<glyph glyph-name="uni0146" unicode="&#x146;" horiz-adv-x="585" d="M81 526 L163 526 L169 437 Q191 485 230 511 Q269 537 332 537 Q421 537 465 491 Q509 445 509 339 L509 0 L421 0 L421 310 Q421 352 414.5 380 Q408 408 393.5 425 Q379 442 356.5 449 Q334 456 302 456 Q239 456 204 419 Q169 382 169 310 L169 0 L81 0 L81 526 Z M235 -173 Q264 -171 281.5 -162.5 Q299 -154 302 -135 Q259 -135 244 -124 Q229 -113 229 -93 Q229 -74 244.5 -61.5 Q260 -49 295 -49 Q361 -49 361 -111 Q361 -129 354 -147.5 Q347 -166 332.5 -181.5 Q318 -197 295.5 -207.5 Q273 -218 242 -221 L235 -173 Z " />
<glyph glyph-name="Ncaron" unicode="&#x147;" horiz-adv-x="740" d="M101 700 L204 700 L490 246 Q502 226 512.5 207 Q523 188 531 173 Q540 155 548 140 L550 140 Q549 155 548 173 Q547 188 547 207 Q547 226 547 246 L547 700 L639 700 L639 0 L536 0 L250 454 Q236 477 225.5 496 Q215 515 207 529 Q198 546 192 560 L190 560 Q190 546 191 529 Q192 515 192.5 496 Q193 477 193 454 L193 0 L101 0 L101 700 Z M205 910 L283 910 L371 823 L459 910 L535 910 L420 770 L320 770 L205 910 Z " />
<glyph glyph-name="ncaron" unicode="&#x148;" horiz-adv-x="585" d="M81 526 L163 526 L169 437 Q191 485 230 511 Q269 537 332 537 Q421 537 465 491 Q509 445 509 339 L509 0 L421 0 L421 310 Q421 352 414.5 380 Q408 408 393.5 425 Q379 442 356.5 449 Q334 456 302 456 Q239 456 204 419 Q169 382 169 310 L169 0 L81 0 L81 526 Z M136 756 L212 756 L295 667 L380 756 L454 756 L343 617 L247 617 L136 756 Z " />
<glyph glyph-name="Omacron" unicode="&#x14c;" horiz-adv-x="710" d="M355 -11 Q281 -11 224.5 10 Q168 31 129 75 Q90 119 70 187 Q50 255 50 350 Q50 445 70 513 Q90 581 129 625 Q168 669 224.5 690 Q281 711 355 711 Q431 711 488 691 Q545 671 583.5 627.5 Q622 584 641 515.5 Q660 447 660 350 Q660 255 640 187 Q620 119 581 75 Q542 31 485 10 Q428 -11 355 -11 Z M355 73 Q406 73 445 87.5 Q484 102 510.5 135 Q537 168 550.5 221 Q564 274 564 350 Q564 426 550.5 479 Q537 532 510.5 565 Q484 598 445 612.5 Q406 627 355 627 Q305 627 266 612 Q227 597 200.5 564 Q174 531 160 478.5 Q146 426 146 350 Q146 275 160 222.5 Q174 170 200.5 136.5 Q227 103 266 88 Q305 73 355 73 Z M213 865 L497 865 L497 795 L213 795 L213 865 Z " />
<glyph glyph-name="omacron" unicode="&#x14d;" horiz-adv-x="570" d="M285 -11 Q170 -11 110.5 54 Q51 119 51 263 Q51 403 113 470 Q175 537 285 537 Q402 537 460.5 473.5 Q519 410 519 263 Q519 119 458.5 54 Q398 -11 285 -11 Z M285 70 Q321 70 348 80 Q375 90 393 112.5 Q411 135 420 172 Q429 209 429 263 Q429 317 420 354 Q411 391 393 413.5 Q375 436 348 446 Q321 456 285 456 Q216 456 178.5 412.5 Q141 369 141 263 Q141 209 150 172 Q159 135 177 112.5 Q195 90 222 80 Q249 70 285 70 Z M158 709 L416 709 L416 643 L158 643 L158 709 Z " />
<glyph glyph-name="Ohungarumlaut" unicode="&#x150;" horiz-adv-x="710" d="M355 -11 Q281 -11 224.5 10 Q168 31 129 75 Q90 119 70 187 Q50 255 50 350 Q50 445 70 513 Q90 581 129 625 Q168 669 224.5 690 Q281 711 355 711 Q431 711 488 691 Q545 671 583.5 627.5 Q622 584 641 515.5 Q660 447 660 350 Q660 255 640 187 Q620 119 581 75 Q542 31 485 10 Q428 -11 355 -11 Z M355 73 Q406 73 445 87.5 Q484 102 510.5 135 Q537 168 550.5 221 Q564 274 564 350 Q564 426 550.5 479 Q537 532 510.5 565 Q484 598 445 612.5 Q406 627 355 627 Q305 627 266 612 Q227 597 200.5 564 Q174 531 160 478.5 Q146 426 146 350 Q146 275 160 222.5 Q174 170 200.5 136.5 Q227 103 266 88 Q305 73 355 73 Z M297 910 L397 910 L304 770 L238 770 L297 910 Z M487 910 L602 910 L458 770 L384 770 L487 910 Z " />
<glyph glyph-name="ohungarumlaut" unicode="&#x151;" horiz-adv-x="570" d="M285 -11 Q170 -11 110.5 54 Q51 119 51 263 Q51 403 113 470 Q175 537 285 537 Q402 537 460.5 473.5 Q519 410 519 263 Q519 119 458.5 54 Q398 -11 285 -11 Z M285 70 Q321 70 348 80 Q375 90 393 112.5 Q411 135 420 172 Q429 209 429 263 Q429 317 420 354 Q411 391 393 413.5 Q375 436 348 446 Q321 456 285 456 Q216 456 178.5 412.5 Q141 369 141 263 Q141 209 150 172 Q159 135 177 112.5 Q195 90 222 80 Q249 70 285 70 Z M222 756 L322 756 L239 617 L173 617 L222 756 Z M403 756 L517 756 L383 617 L310 617 L403 756 Z " />
<glyph glyph-name="OE" unicode="&#x152;" horiz-adv-x="935" d="M355 -11 Q280 -11 222.5 9 Q165 29 127 73 Q89 117 69.5 186.5 Q50 256 50 355 Q50 448 70 515.5 Q90 583 128.5 626.5 Q167 670 224 690.5 Q281 711 355 711 Q393 711 425 707.5 Q457 704 478 700 L880 700 L880 617 L556 617 L556 399 L840 399 L840 318 L556 318 L556 83 L880 83 L880 0 L485 0 Q462 -4 429 -7.5 Q396 -11 355 -11 Z M357 75 Q387 75 414.5 77 Q442 79 464 82 L464 616 Q443 620 416 622.5 Q389 625 357 625 Q305 625 265.5 610.5 Q226 596 199.5 564 Q173 532 159.5 480.5 Q146 429 146 355 Q146 278 160 225 Q174 172 200.5 138.5 Q227 105 266.5 90 Q306 75 357 75 Z " />
<glyph glyph-name="oe" unicode="&#x153;" horiz-adv-x="920" d="M670 -11 Q597 -11 547 13.5 Q497 38 470 91 Q442 38 394.5 13.5 Q347 -11 282 -11 Q169 -11 110 54 Q51 119 51 263 Q51 403 112.5 470 Q174 537 282 537 Q350 537 397.5 513 Q445 489 471 436 Q499 487 545.5 512 Q592 537 653 537 Q765 537 817 476.5 Q869 416 869 281 L869 240 L514 240 Q516 151 555 109 Q594 67 676 67 Q724 67 766.5 83.5 Q809 100 836 123 L836 35 Q812 18 770.5 3.5 Q729 -11 670 -11 Z M282 70 Q317 70 343.5 80 Q370 90 387.5 112.5 Q405 135 414 172 Q423 209 423 263 Q423 317 414 354 Q405 391 387.5 413.5 Q370 436 343.5 446 Q317 456 282 456 Q249 456 222.5 445.5 Q196 435 178 412 Q160 389 150.5 352.5 Q141 316 141 263 Q141 209 150 172 Q159 135 176.5 112.5 Q194 90 220.5 80 Q247 70 282 70 Z M653 462 Q587 462 552 425 Q517 388 514 304 L781 304 Q781 380 753.5 421 Q726 462 653 462 Z " />
<glyph glyph-name="Racute" unicode="&#x154;" horiz-adv-x="640" d="M333 269 Q323 268 313.5 268 Q304 268 293 268 L193 268 L193 0 L101 0 L101 695 Q128 697 159 700 Q185 702 219 704 Q253 706 290 706 Q360 706 409 693 Q458 680 488.5 653 Q519 626 532.5 585 Q546 544 546 489 Q546 411 516.5 360.5 Q487 310 423 287 L589 0 L485 0 L333 269 Z M450 486 Q450 522 442 547 Q434 572 416 588 Q398 604 368 611.5 Q338 619 293 619 Q273 619 255 618.5 Q237 618 223 617 Q206 616 192 616 L192 352 L293 352 Q377 352 413.5 385.5 Q450 419 450 486 Z M349 910 L467 910 L334 770 L259 770 L349 910 Z " />
<glyph glyph-name="racute" unicode="&#x155;" horiz-adv-x="410" d="M81 526 L158 526 L164 436 Q183 490 219.5 513.5 Q256 537 307 537 Q324 537 338.5 534.5 Q353 532 359 530 L359 435 Q346 444 328 450 Q310 456 284 456 Q230 456 199.5 420.5 Q169 385 169 304 L169 0 L81 0 L81 526 Z M258 756 L374 756 L249 617 L176 617 L258 756 Z " />
<glyph glyph-name="uni0156" unicode="&#x156;" horiz-adv-x="640" d="M333 269 Q323 268 313.5 268 Q304 268 293 268 L193 268 L193 0 L101 0 L101 695 Q128 697 159 700 Q185 702 219 704 Q253 706 290 706 Q360 706 409 693 Q458 680 488.5 653 Q519 626 532.5 585 Q546 544 546 489 Q546 411 516.5 360.5 Q487 310 423 287 L589 0 L485 0 L333 269 Z M450 486 Q450 522 442 547 Q434 572 416 588 Q398 604 368 611.5 Q338 619 293 619 Q273 619 255 618.5 Q237 618 223 617 Q206 616 192 616 L192 352 L293 352 Q377 352 413.5 385.5 Q450 419 450 486 Z M282 -173 Q306 -171 326 -163.5 Q346 -156 350 -136 Q305 -136 290.5 -124.5 Q276 -113 276 -93 Q276 -74 291.5 -61.5 Q307 -49 345 -49 Q380 -49 397 -64.5 Q414 -80 414 -107 Q414 -150 382.5 -183 Q351 -216 289 -221 L282 -173 Z " />
<glyph glyph-name="uni0157" unicode="&#x157;" horiz-adv-x="410" d="M81 526 L158 526 L164 436 Q183 490 219.5 513.5 Q256 537 307 537 Q324 537 338.5 534.5 Q353 532 359 530 L359 435 Q346 444 328 450 Q310 456 284 456 Q230 456 199.5 420.5 Q169 385 169 304 L169 0 L81 0 L81 526 Z M65 -173 Q94 -171 111.5 -162.5 Q129 -154 132 -135 Q89 -135 74 -124 Q59 -113 59 -93 Q59 -74 74.5 -61.5 Q90 -49 125 -49 Q191 -49 191 -111 Q191 -129 184 -147.5 Q177 -166 162.5 -181.5 Q148 -197 125.5 -207.5 Q103 -218 72 -221 L65 -173 Z " />
<glyph glyph-name="Rcaron" unicode="&#x158;" horiz-adv-x="640" d="M333 269 Q323 268 313.5 268 Q304 268 293 268 L193 268 L193 0 L101 0 L101 695 Q128 697 159 700 Q185 702 219 704 Q253 706 290 706 Q360 706 409 693 Q458 680 488.5 653 Q519 626 532.5 585 Q546 544 546 489 Q546 411 516.5 360.5 Q487 310 423 287 L589 0 L485 0 L333 269 Z M450 486 Q450 522 442 547 Q434 572 416 588 Q398 604 368 611.5 Q338 619 293 619 Q273 619 255 618.5 Q237 618 223 617 Q206 616 192 616 L192 352 L293 352 Q377 352 413.5 385.5 Q450 419 450 486 Z M138 910 L216 910 L304 823 L392 910 L468 910 L353 770 L253 770 L138 910 Z " />
<glyph glyph-name="rcaron" unicode="&#x159;" horiz-adv-x="410" d="M81 526 L158 526 L164 436 Q183 490 219.5 513.5 Q256 537 307 537 Q324 537 338.5 534.5 Q353 532 359 530 L359 435 Q346 444 328 450 Q310 456 284 456 Q230 456 199.5 420.5 Q169 385 169 304 L169 0 L81 0 L81 526 Z M61 756 L137 756 L220 667 L305 756 L379 756 L268 617 L172 617 L61 756 Z " />
<glyph glyph-name="Sacute" unicode="&#x15a;" horiz-adv-x="580" d="M282 -11 Q218 -11 164.5 4.5 Q111 20 79 42 L79 148 Q94 135 114.5 122 Q135 109 160.5 98.5 Q186 88 215.5 81.5 Q245 75 278 75 Q354 75 386.5 103.5 Q419 132 419 185 Q419 229 394 254.5 Q369 280 331 296.5 Q293 313 249 327 Q205 341 167 364 Q129 387 104 423.5 Q79 460 79 522 Q79 613 133 662 Q187 711 308 711 Q363 711 409 701 Q455 691 484 676 L484 570 Q455 595 408 610 Q361 625 312 625 Q273 625 246.5 619 Q220 613 204 600.5 Q188 588 181.5 569 Q175 550 175 525 Q175 482 200 458.5 Q225 435 263 419.5 Q301 404 344.5 390.5 Q388 377 426 354 Q464 331 489 292 Q514 253 514 188 Q514 93 458 41 Q402 -11 282 -11 Z M340 910 L458 910 L325 770 L250 770 L340 910 Z " />
<glyph glyph-name="sacute" unicode="&#x15b;" horiz-adv-x="475" d="M227 -11 Q141 -11 71 20 L71 118 Q100 93 139.5 80 Q179 67 225 67 Q279 67 301.5 87 Q324 107 324 145 Q324 177 305 193.5 Q286 210 257 220 Q228 230 195 238.5 Q162 247 133 263 Q104 279 85 306.5 Q66 334 66 383 Q66 459 109 498 Q152 537 252 537 Q292 537 329 529.5 Q366 522 389 513 L389 418 Q360 438 326.5 448.5 Q293 459 253 459 Q199 459 177.5 441 Q156 423 156 390 Q156 360 175 344.5 Q194 329 223 319.5 Q252 310 285 301.5 Q318 293 347 276.5 Q376 260 395 231 Q414 202 414 151 Q414 70 370 29.5 Q326 -11 227 -11 Z M278 756 L394 756 L269 617 L196 617 L278 756 Z " />
<glyph glyph-name="Scircumflex" unicode="&#x15c;" horiz-adv-x="580" d="M282 -11 Q218 -11 164.5 4.5 Q111 20 79 42 L79 148 Q94 135 114.5 122 Q135 109 160.5 98.5 Q186 88 215.5 81.5 Q245 75 278 75 Q354 75 386.5 103.5 Q419 132 419 185 Q419 229 394 254.5 Q369 280 331 296.5 Q293 313 249 327 Q205 341 167 364 Q129 387 104 423.5 Q79 460 79 522 Q79 613 133 662 Q187 711 308 711 Q363 711 409 701 Q455 691 484 676 L484 570 Q455 595 408 610 Q361 625 312 625 Q273 625 246.5 619 Q220 613 204 600.5 Q188 588 181.5 569 Q175 550 175 525 Q175 482 200 458.5 Q225 435 263 419.5 Q301 404 344.5 390.5 Q388 377 426 354 Q464 331 489 292 Q514 253 514 188 Q514 93 458 41 Q402 -11 282 -11 Z M245 910 L345 910 L460 770 L382 770 L295 857 L206 770 L130 770 L245 910 Z " />
<glyph glyph-name="scircumflex" unicode="&#x15d;" horiz-adv-x="475" d="M227 -11 Q141 -11 71 20 L71 118 Q100 93 139.5 80 Q179 67 225 67 Q279 67 301.5 87 Q324 107 324 145 Q324 177 305 193.5 Q286 210 257 220 Q228 230 195 238.5 Q162 247 133 263 Q104 279 85 306.5 Q66 334 66 383 Q66 459 109 498 Q152 537 252 537 Q292 537 329 529.5 Q366 522 389 513 L389 418 Q360 438 326.5 448.5 Q293 459 253 459 Q199 459 177.5 441 Q156 423 156 390 Q156 360 175 344.5 Q194 329 223 319.5 Q252 310 285 301.5 Q318 293 347 276.5 Q376 260 395 231 Q414 202 414 151 Q414 70 370 29.5 Q326 -11 227 -11 Z M192 756 L288 756 L399 617 L323 617 L240 705 L155 617 L81 617 L192 756 Z " />
<glyph glyph-name="Scedilla" unicode="&#x15e;" horiz-adv-x="580" d="M291 -217 Q265 -217 247.5 -213 Q230 -209 215 -202 L222 -153 Q237 -159 250.5 -162 Q264 -165 282 -165 Q332 -165 332 -125 Q332 -105 319.5 -94.5 Q307 -84 278 -84 Q270 -84 261 -84.5 Q252 -85 246 -86 L260 -10 Q203 -8 155.5 7 Q108 22 79 42 L79 148 Q94 135 114.5 122 Q135 109 160.5 98.5 Q186 88 215.5 81.5 Q245 75 278 75 Q354 75 386.5 103.5 Q419 132 419 185 Q419 229 394 254.5 Q369 280 331 296.5 Q293 313 249 327 Q205 341 167 364 Q129 387 104 423.5 Q79 460 79 522 Q79 613 133 662 Q187 711 308 711 Q363 711 409 701 Q455 691 484 676 L484 570 Q455 595 408 610 Q361 625 312 625 Q273 625 246.5 619 Q220 613 204 600.5 Q188 588 181.5 569 Q175 550 175 525 Q175 482 200 458.5 Q225 435 263 419.5 Q301 404 344.5 390.5 Q388 377 426 354 Q464 331 489 292 Q514 253 514 188 Q514 98 465.5 47.5 Q417 -3 313 -10 L306 -44 Q403 -44 403 -125 Q403 -167 374.5 -192 Q346 -217 291 -217 Z " />
<glyph glyph-name="scedilla" unicode="&#x15f;" horiz-adv-x="475" d="M236 -217 Q210 -217 192.5 -213 Q175 -209 160 -202 L167 -153 Q182 -159 195.5 -162 Q209 -165 227 -165 Q277 -165 277 -125 Q277 -105 264.5 -94.5 Q252 -84 223 -84 Q215 -84 206 -84.5 Q197 -85 191 -86 L205 -10 Q129 -7 71 20 L71 118 Q100 93 139.5 80 Q179 67 225 67 Q279 67 301.5 87 Q324 107 324 145 Q324 177 305 193.5 Q286 210 257 220 Q228 230 195 238.5 Q162 247 133 263 Q104 279 85 306.5 Q66 334 66 383 Q66 459 109 498 Q152 537 252 537 Q292 537 329 529.5 Q366 522 389 513 L389 418 Q360 438 326.5 448.5 Q293 459 253 459 Q199 459 177.5 441 Q156 423 156 390 Q156 360 175 344.5 Q194 329 223 319.5 Q252 310 285 301.5 Q318 293 347 276.5 Q376 260 395 231 Q414 202 414 151 Q414 76 377.5 36 Q341 -4 258 -10 L251 -44 Q348 -44 348 -125 Q348 -167 319.5 -192 Q291 -217 236 -217 Z " />
<glyph glyph-name="Scaron" unicode="&#x160;" horiz-adv-x="580" d="M282 -11 Q218 -11 164.5 4.5 Q111 20 79 42 L79 148 Q94 135 114.5 122 Q135 109 160.5 98.5 Q186 88 215.5 81.5 Q245 75 278 75 Q354 75 386.5 103.5 Q419 132 419 185 Q419 229 394 254.5 Q369 280 331 296.5 Q293 313 249 327 Q205 341 167 364 Q129 387 104 423.5 Q79 460 79 522 Q79 613 133 662 Q187 711 308 711 Q363 711 409 701 Q455 691 484 676 L484 570 Q455 595 408 610 Q361 625 312 625 Q273 625 246.5 619 Q220 613 204 600.5 Q188 588 181.5 569 Q175 550 175 525 Q175 482 200 458.5 Q225 435 263 419.5 Q301 404 344.5 390.5 Q388 377 426 354 Q464 331 489 292 Q514 253 514 188 Q514 93 458 41 Q402 -11 282 -11 Z M130 910 L208 910 L296 823 L384 910 L460 910 L345 770 L245 770 L130 910 Z " />
<glyph glyph-name="scaron" unicode="&#x161;" horiz-adv-x="475" d="M227 -11 Q141 -11 71 20 L71 118 Q100 93 139.5 80 Q179 67 225 67 Q279 67 301.5 87 Q324 107 324 145 Q324 177 305 193.5 Q286 210 257 220 Q228 230 195 238.5 Q162 247 133 263 Q104 279 85 306.5 Q66 334 66 383 Q66 459 109 498 Q152 537 252 537 Q292 537 329 529.5 Q366 522 389 513 L389 418 Q360 438 326.5 448.5 Q293 459 253 459 Q199 459 177.5 441 Q156 423 156 390 Q156 360 175 344.5 Q194 329 223 319.5 Q252 310 285 301.5 Q318 293 347 276.5 Q376 260 395 231 Q414 202 414 151 Q414 70 370 29.5 Q326 -11 227 -11 Z M81 756 L157 756 L240 667 L325 756 L399 756 L288 617 L192 617 L81 756 Z " />
<glyph glyph-name="uni0162" unicode="&#x162;" horiz-adv-x="580" d="M244 617 L35 617 L35 700 L545 700 L545 617 L336 617 L336 0 L318 0 L310 -44 Q410 -44 410 -125 Q410 -167 381 -192 Q352 -217 292 -217 Q268 -217 247.5 -213 Q227 -209 212 -202 L220 -151 Q250 -163 283 -163 Q313 -163 325 -153 Q337 -143 337 -125 Q337 -106 324.5 -96 Q312 -86 280 -86 Q270 -86 261.5 -86.5 Q253 -87 247 -88 L263 0 L244 0 L244 617 Z " />
<glyph glyph-name="uni0163" unicode="&#x163;" horiz-adv-x="435" d="M255 -217 Q229 -217 211.5 -213 Q194 -209 179 -202 L186 -153 Q201 -159 214.5 -162 Q228 -165 246 -165 Q296 -165 296 -125 Q296 -105 283.5 -94.5 Q271 -84 242 -84 Q234 -84 225 -84.5 Q216 -85 210 -86 L226 -1 Q175 10 152 47.5 Q129 85 129 156 L129 447 L35 447 L35 526 L129 526 L129 631 L217 661 L217 526 L385 526 L385 447 L217 447 L217 163 Q217 115 234 95.5 Q251 76 290 76 Q321 76 344 85 Q367 94 385 107 L385 19 Q371 9 342 1.5 Q313 -6 278 -6 L270 -44 Q367 -44 367 -125 Q367 -167 338.5 -192 Q310 -217 255 -217 Z " />
<glyph glyph-name="Tcaron" unicode="&#x164;" horiz-adv-x="580" d="M244 617 L35 617 L35 700 L545 700 L545 617 L336 617 L336 0 L244 0 L244 617 Z M125 910 L203 910 L291 823 L379 910 L455 910 L340 770 L240 770 L125 910 Z " />
<glyph glyph-name="tcaron" unicode="&#x165;" horiz-adv-x="435" d="M332 786 L417 786 L354 607 L296 607 L332 786 Z M277 -6 Q199 -6 164 32 Q129 70 129 156 L129 447 L35 447 L35 526 L129 526 L129 631 L217 661 L217 526 L385 526 L385 447 L217 447 L217 163 Q217 115 234 95.5 Q251 76 290 76 Q321 76 344 85 Q367 94 385 107 L385 19 Q371 9 341.5 1.5 Q312 -6 277 -6 Z " />
<glyph glyph-name="Umacron" unicode="&#x16a;" horiz-adv-x="670" d="M335 -11 Q269 -11 221 4.5 Q173 20 141.5 53.5 Q110 87 95 140.5 Q80 194 80 270 L80 700 L173 700 L173 274 Q173 217 182 179 Q191 141 210.5 117.5 Q230 94 260.5 84.5 Q291 75 335 75 Q379 75 410 84.5 Q441 94 460.5 117 Q480 140 488.5 178 Q497 216 497 274 L497 700 L590 700 L590 270 Q590 195 574.5 141.5 Q559 88 527.5 54 Q496 20 448 4.5 Q400 -11 335 -11 Z M193 865 L477 865 L477 795 L193 795 L193 865 Z " />
<glyph glyph-name="umacron" unicode="&#x16b;" horiz-adv-x="580" d="M249 -11 Q164 -11 120 35 Q76 81 76 187 L76 526 L164 526 L164 216 Q164 174 170.5 146 Q177 118 191 101 Q205 84 227 77 Q249 70 279 70 Q341 70 376 107 Q411 144 411 216 L411 526 L499 526 L499 0 L417 0 L411 89 Q389 44 350.5 16.5 Q312 -11 249 -11 Z M160 709 L418 709 L418 643 L160 643 L160 709 Z " />
<glyph glyph-name="Ubreve" unicode="&#x16c;" horiz-adv-x="670" d="M335 -11 Q269 -11 221 4.5 Q173 20 141.5 53.5 Q110 87 95 140.5 Q80 194 80 270 L80 700 L173 700 L173 274 Q173 217 182 179 Q191 141 210.5 117.5 Q230 94 260.5 84.5 Q291 75 335 75 Q379 75 410 84.5 Q441 94 460.5 117 Q480 140 488.5 178 Q497 216 497 274 L497 700 L590 700 L590 270 Q590 195 574.5 141.5 Q559 88 527.5 54 Q496 20 448 4.5 Q400 -11 335 -11 Z M335 769 Q272 769 231 800.5 Q190 832 176 894 L238 911 Q249 873 271 854.5 Q293 836 335 836 Q377 836 400 854.5 Q423 873 433 911 L494 894 Q480 832 439.5 800.5 Q399 769 335 769 Z " />
<glyph glyph-name="ubreve" unicode="&#x16d;" horiz-adv-x="580" d="M249 -11 Q164 -11 120 35 Q76 81 76 187 L76 526 L164 526 L164 216 Q164 174 170.5 146 Q177 118 191 101 Q205 84 227 77 Q249 70 279 70 Q341 70 376 107 Q411 144 411 216 L411 526 L499 526 L499 0 L417 0 L411 89 Q389 44 350.5 16.5 Q312 -11 249 -11 Z M287 615 Q227 615 186 647 Q145 679 133 741 L193 757 Q211 680 287 680 Q365 680 383 757 L441 741 Q429 678 388.5 646.5 Q348 615 287 615 Z " />
<glyph glyph-name="Uring" unicode="&#x16e;" horiz-adv-x="670" d="M335 -11 Q269 -11 221 4.5 Q173 20 141.5 53.5 Q110 87 95 140.5 Q80 194 80 270 L80 700 L173 700 L173 274 Q173 217 182 179 Q191 141 210.5 117.5 Q230 94 260.5 84.5 Q291 75 335 75 Q379 75 410 84.5 Q441 94 460.5 117 Q480 140 488.5 178 Q497 216 497 274 L497 700 L590 700 L590 270 Q590 195 574.5 141.5 Q559 88 527.5 54 Q496 20 448 4.5 Q400 -11 335 -11 Z M235 840 Q235 883 263 911 Q291 939 335 939 Q379 939 407 911 Q435 883 435 840 Q435 797 407 769 Q379 741 335 741 Q291 741 263 769 Q235 797 235 840 Z M285 840 Q285 817 298.5 803.5 Q312 790 335 790 Q358 790 371.5 803.5 Q385 817 385 840 Q385 863 371.5 876.5 Q358 890 335 890 Q312 890 298.5 876.5 Q285 863 285 840 Z " />
<glyph glyph-name="uring" unicode="&#x16f;" horiz-adv-x="580" d="M249 -11 Q164 -11 120 35 Q76 81 76 187 L76 526 L164 526 L164 216 Q164 174 170.5 146 Q177 118 191 101 Q205 84 227 77 Q249 70 279 70 Q341 70 376 107 Q411 144 411 216 L411 526 L499 526 L499 0 L417 0 L411 89 Q389 44 350.5 16.5 Q312 -11 249 -11 Z M190 686 Q190 730 216.5 756.5 Q243 783 288 783 Q333 783 359.5 756.5 Q386 730 386 686 Q386 643 359.5 616 Q333 589 288 589 Q243 589 216.5 616 Q190 643 190 686 Z M240 686 Q240 663 252.5 650.5 Q265 638 288 638 Q310 638 323 651 Q336 664 336 686 Q336 708 323 721 Q310 734 288 734 Q266 734 253 721 Q240 708 240 686 Z " />
<glyph glyph-name="Uhungarumlaut" unicode="&#x170;" horiz-adv-x="670" d="M335 -11 Q269 -11 221 4.5 Q173 20 141.5 53.5 Q110 87 95 140.5 Q80 194 80 270 L80 700 L173 700 L173 274 Q173 217 182 179 Q191 141 210.5 117.5 Q230 94 260.5 84.5 Q291 75 335 75 Q379 75 410 84.5 Q441 94 460.5 117 Q480 140 488.5 178 Q497 216 497 274 L497 700 L590 700 L590 270 Q590 195 574.5 141.5 Q559 88 527.5 54 Q496 20 448 4.5 Q400 -11 335 -11 Z M277 910 L377 910 L284 770 L218 770 L277 910 Z M467 910 L582 910 L438 770 L364 770 L467 910 Z " />
<glyph glyph-name="uhungarumlaut" unicode="&#x171;" horiz-adv-x="580" d="M249 -11 Q164 -11 120 35 Q76 81 76 187 L76 526 L164 526 L164 216 Q164 174 170.5 146 Q177 118 191 101 Q205 84 227 77 Q249 70 279 70 Q341 70 376 107 Q411 144 411 216 L411 526 L499 526 L499 0 L417 0 L411 89 Q389 44 350.5 16.5 Q312 -11 249 -11 Z M224 756 L324 756 L241 617 L175 617 L224 756 Z M405 756 L519 756 L385 617 L312 617 L405 756 Z " />
<glyph glyph-name="Uogonek" unicode="&#x172;" horiz-adv-x="670" d="M335 -11 Q269 -11 221 4.5 Q173 20 141.5 53.5 Q110 87 95 140.5 Q80 194 80 270 L80 700 L173 700 L173 274 Q173 217 182 179 Q191 141 210.5 117.5 Q230 94 260.5 84.5 Q291 75 335 75 Q379 75 410 84.5 Q441 94 460.5 117 Q480 140 488.5 178 Q497 216 497 274 L497 700 L590 700 L590 270 Q590 174 565.5 114.5 Q541 55 490 24 L491 24 Q438 -8 406.5 -39 Q375 -70 375 -105 Q375 -138 414 -138 Q442 -138 472 -122 L472 -179 Q457 -187 437.5 -191.5 Q418 -196 393 -196 Q342 -196 319.5 -176 Q297 -156 297 -119 Q297 -87 315 -60.5 Q333 -34 369 -9 Q361 -10 352.5 -10.5 Q344 -11 335 -11 Z " />
<glyph glyph-name="uogonek" unicode="&#x173;" horiz-adv-x="580" d="M421 -196 Q371 -196 349 -176 Q327 -156 327 -119 Q327 -55 417 2 L411 89 Q389 44 350.5 16.5 Q312 -11 249 -11 Q164 -11 120 35 Q76 81 76 187 L76 526 L164 526 L164 216 Q164 174 170.5 146 Q177 118 191 101 Q205 84 227 77 Q249 70 279 70 Q341 70 376 107 Q411 144 411 216 L411 526 L499 526 L499 0 Q448 -26 425.5 -54 Q403 -82 403 -105 Q403 -121 412.5 -130.5 Q422 -140 442 -140 Q457 -140 471 -136 Q485 -132 499 -124 L499 -179 Q484 -187 465 -191.5 Q446 -196 421 -196 Z " />
<glyph glyph-name="Ydieresis" unicode="&#x178;" horiz-adv-x="610" d="M264 271 L20 700 L126 700 L311 368 L489 700 L590 700 L356 271 L356 0 L264 0 L264 271 Z M203 785 Q146 785 146 840 Q146 895 203 895 Q260 895 260 840 Q260 785 203 785 Z M406 785 Q349 785 349 840 Q349 895 406 895 Q463 895 463 840 Q463 785 406 785 Z " />
<glyph glyph-name="Zacute" unicode="&#x179;" horiz-adv-x="590" d="M50 61 L411 617 L60 617 L60 700 L530 700 L530 639 L169 83 L540 83 L540 0 L50 0 L50 61 Z M340 910 L458 910 L325 770 L250 770 L340 910 Z " />
<glyph glyph-name="zacute" unicode="&#x17a;" horiz-adv-x="490" d="M45 55 L324 447 L55 447 L55 526 L438 526 L438 471 L160 79 L445 79 L445 0 L45 0 L45 55 Z M285 756 L401 756 L276 617 L203 617 L285 756 Z " />
<glyph glyph-name="Zdotaccent" unicode="&#x17b;" horiz-adv-x="590" d="M50 61 L411 617 L60 617 L60 700 L530 700 L530 639 L169 83 L540 83 L540 0 L50 0 L50 61 Z M295 784 Q237 784 237 840 Q237 896 295 896 Q353 896 353 840 Q353 784 295 784 Z " />
<glyph glyph-name="zdotaccent" unicode="&#x17c;" horiz-adv-x="490" d="M45 55 L324 447 L55 447 L55 526 L438 526 L438 471 L160 79 L445 79 L445 0 L45 0 L45 55 Z M247 632 Q191 632 191 686 Q191 740 247 740 Q303 740 303 686 Q303 632 247 632 Z " />
<glyph glyph-name="Zcaron" unicode="&#x17d;" horiz-adv-x="590" d="M50 61 L411 617 L60 617 L60 700 L530 700 L530 639 L169 83 L540 83 L540 0 L50 0 L50 61 Z M130 910 L208 910 L296 823 L384 910 L460 910 L345 770 L245 770 L130 910 Z " />
<glyph glyph-name="zcaron" unicode="&#x17e;" horiz-adv-x="490" d="M45 55 L324 447 L55 447 L55 526 L438 526 L438 471 L160 79 L445 79 L445 0 L45 0 L45 55 Z M88 756 L164 756 L247 667 L332 756 L406 756 L295 617 L199 617 L88 756 Z " />
<glyph glyph-name="uni018F" unicode="&#x18f;" horiz-adv-x="690" d="M342 -11 Q273 -11 218.5 9.5 Q164 30 126.5 72.5 Q89 115 69.5 180 Q50 245 50 334 L50 380 L540 380 Q539 425 530 469.5 Q521 514 496 549.5 Q471 585 425 606.5 Q379 628 305 628 Q253 628 205 620 Q157 612 119 596 L119 683 Q163 696 211.5 703.5 Q260 711 317 711 Q408 711 470 685.5 Q532 660 570 613 Q608 566 624 500 Q640 434 640 354 Q640 282 624.5 216 Q609 150 574 99.5 Q539 49 482 19 Q425 -11 342 -11 Z M342 72 Q382 72 417.5 85 Q453 98 479.5 126 Q506 154 522 198 Q538 242 540 304 L146 304 Q146 186 192.5 129 Q239 72 342 72 Z " />
<glyph glyph-name="florin" unicode="&#x192;" horiz-adv-x="600" d="M162 526 L273 526 L283 577 Q302 671 349 715 Q396 759 479 759 Q496 759 511.5 757 Q527 755 546 752 L529 672 Q522 674 511 676.5 Q500 679 483 679 Q458 679 440 673.5 Q422 668 409 654.5 Q396 641 387.5 619.5 Q379 598 373 567 L365 526 L501 526 L485 447 L349 447 L262 11 Q253 -35 239 -71.5 Q225 -108 203 -133.5 Q181 -159 148 -172.5 Q115 -186 69 -186 Q43 -186 21 -181 L37 -102 Q50 -106 69 -106 Q87 -106 102.5 -100.5 Q118 -95 130.5 -81.5 Q143 -68 152.5 -46 Q162 -24 169 10 L257 447 L146 447 L162 526 Z " />
<glyph glyph-name="uni01DD" unicode="&#x1dd;" horiz-adv-x="550" d="M270 -11 Q156 -11 103.5 50 Q51 111 51 245 L51 286 L411 286 Q409 376 370 417.5 Q331 459 247 459 Q197 459 154 442.5 Q111 426 84 403 L84 491 Q104 507 148 522 Q192 537 253 537 Q380 537 439.5 470.5 Q499 404 499 260 Q499 121 438 55 Q377 -11 270 -11 Z M270 64 Q338 64 373.5 101 Q409 138 411 222 L139 222 Q139 183 145.5 154 Q152 125 167 105 Q182 85 207 74.5 Q232 64 270 64 Z " />
<glyph glyph-name="Gcaron" unicode="&#x1e6;" horiz-adv-x="650" d="M377 -11 Q294 -11 232.5 9.5 Q171 30 130.5 74 Q90 118 70 187.5 Q50 257 50 355 Q50 539 133 625 Q216 711 377 711 Q415 711 445 706.5 Q475 702 496 697 Q521 691 540 683 L540 587 Q512 601 470 613 Q428 625 377 625 Q261 625 203.5 562.5 Q146 500 146 355 Q146 278 160 224.5 Q174 171 202.5 138 Q231 105 274.5 90 Q318 75 377 75 Q409 75 438 79.5 Q467 84 490 92 L490 280 L357 280 L357 360 L580 360 L580 33 Q552 19 499 4 Q446 -11 377 -11 Z M192 910 L270 910 L358 823 L446 910 L522 910 L407 770 L307 770 L192 910 Z " />
<glyph glyph-name="gcaron" unicode="&#x1e7;" horiz-adv-x="590" d="M272 -191 Q212 -191 165.5 -180 Q119 -169 92 -155 L92 -53 Q102 -62 119.5 -72.5 Q137 -83 160 -91 Q183 -99 210.5 -104.5 Q238 -110 270 -110 Q351 -110 386 -76 Q421 -42 421 29 L421 105 Q412 85 398.5 67 Q385 49 365 35.5 Q345 22 318 13.5 Q291 5 256 5 Q154 5 102.5 67 Q51 129 51 272 Q51 410 103 473.5 Q155 537 252 537 Q318 537 361 510.5 Q404 484 421 439 L427 526 L509 526 L509 35 Q509 -83 451.5 -137 Q394 -191 272 -191 Z M281 86 Q345 86 383 128 Q421 170 421 247 L421 304 Q421 338 412.5 366 Q404 394 386 414 Q368 434 341 445 Q314 456 277 456 Q209 456 175 415 Q141 374 141 276 Q141 223 150 186.5 Q159 150 176.5 127.5 Q194 105 220 95.5 Q246 86 281 86 Z M101 756 L177 756 L260 667 L345 756 L419 756 L308 617 L212 617 L101 756 Z " />
<glyph glyph-name="uni0218" unicode="&#x218;" horiz-adv-x="580" d="M282 -11 Q218 -11 164.5 4.5 Q111 20 79 42 L79 148 Q94 135 114.5 122 Q135 109 160.5 98.5 Q186 88 215.5 81.5 Q245 75 278 75 Q354 75 386.5 103.5 Q419 132 419 185 Q419 229 394 254.5 Q369 280 331 296.5 Q293 313 249 327 Q205 341 167 364 Q129 387 104 423.5 Q79 460 79 522 Q79 613 133 662 Q187 711 308 711 Q363 711 409 701 Q455 691 484 676 L484 570 Q455 595 408 610 Q361 625 312 625 Q273 625 246.5 619 Q220 613 204 600.5 Q188 588 181.5 569 Q175 550 175 525 Q175 482 200 458.5 Q225 435 263 419.5 Q301 404 344.5 390.5 Q388 377 426 354 Q464 331 489 292 Q514 253 514 188 Q514 93 458 41 Q402 -11 282 -11 Z M232 -173 Q256 -171 276 -163.5 Q296 -156 300 -136 Q255 -136 240.5 -124.5 Q226 -113 226 -93 Q226 -74 241.5 -61.5 Q257 -49 295 -49 Q330 -49 347 -64.5 Q364 -80 364 -107 Q364 -150 332.5 -183 Q301 -216 239 -221 L232 -173 Z " />
<glyph glyph-name="uni0219" unicode="&#x219;" horiz-adv-x="475" d="M227 -11 Q141 -11 71 20 L71 118 Q100 93 139.5 80 Q179 67 225 67 Q279 67 301.5 87 Q324 107 324 145 Q324 177 305 193.5 Q286 210 257 220 Q228 230 195 238.5 Q162 247 133 263 Q104 279 85 306.5 Q66 334 66 383 Q66 459 109 498 Q152 537 252 537 Q292 537 329 529.5 Q366 522 389 513 L389 418 Q360 438 326.5 448.5 Q293 459 253 459 Q199 459 177.5 441 Q156 423 156 390 Q156 360 175 344.5 Q194 329 223 319.5 Q252 310 285 301.5 Q318 293 347 276.5 Q376 260 395 231 Q414 202 414 151 Q414 70 370 29.5 Q326 -11 227 -11 Z M180 -173 Q209 -171 226.5 -162.5 Q244 -154 247 -135 Q204 -135 189 -124 Q174 -113 174 -93 Q174 -74 189.5 -61.5 Q205 -49 240 -49 Q306 -49 306 -111 Q306 -129 299 -147.5 Q292 -166 277.5 -181.5 Q263 -197 240.5 -207.5 Q218 -218 187 -221 L180 -173 Z " />
<glyph glyph-name="uni021A" unicode="&#x21a;" horiz-adv-x="580" d="M244 617 L35 617 L35 700 L545 700 L545 617 L336 617 L336 0 L244 0 L244 617 Z M227 -173 Q251 -171 271 -163.5 Q291 -156 295 -136 Q250 -136 235.5 -124.5 Q221 -113 221 -93 Q221 -74 236.5 -61.5 Q252 -49 290 -49 Q325 -49 342 -64.5 Q359 -80 359 -107 Q359 -150 327.5 -183 Q296 -216 234 -221 L227 -173 Z " />
<glyph glyph-name="uni021B" unicode="&#x21b;" horiz-adv-x="435" d="M277 -6 Q199 -6 164 32 Q129 70 129 156 L129 447 L35 447 L35 526 L129 526 L129 631 L217 661 L217 526 L385 526 L385 447 L217 447 L217 163 Q217 115 234 95.5 Q251 76 290 76 Q321 76 344 85 Q367 94 385 107 L385 19 Q371 9 341.5 1.5 Q312 -6 277 -6 Z M193 -173 Q222 -171 239.5 -162.5 Q257 -154 260 -135 Q217 -135 202 -124 Q187 -113 187 -93 Q187 -74 202.5 -61.5 Q218 -49 253 -49 Q319 -49 319 -111 Q319 -129 312 -147.5 Q305 -166 290.5 -181.5 Q276 -197 253.5 -207.5 Q231 -218 200 -221 L193 -173 Z " />
<glyph glyph-name="uni0237" unicode="&#x237;" horiz-adv-x="290" d="M53 -186 Q27 -186 6.5 -182 Q-14 -178 -21 -174 L-21 -86 Q-10 -94 5.5 -99 Q21 -104 40 -104 Q72 -104 86.5 -87 Q101 -70 101 -24 L101 526 L189 526 L189 -27 Q189 -112 155 -149 Q121 -186 53 -186 Z " />
<glyph glyph-name="uni0259" unicode="&#x259;" horiz-adv-x="550" d="M270 -11 Q156 -11 103.5 50 Q51 111 51 245 L51 286 L411 286 Q409 376 370 417.5 Q331 459 247 459 Q197 459 154 442.5 Q111 426 84 403 L84 491 Q104 507 148 522 Q192 537 253 537 Q380 537 439.5 470.5 Q499 404 499 260 Q499 121 438 55 Q377 -11 270 -11 Z M270 64 Q338 64 373.5 101 Q409 138 411 222 L139 222 Q139 183 145.5 154 Q152 125 167 105 Q182 85 207 74.5 Q232 64 270 64 Z " />
<glyph glyph-name="uni02BC" unicode="&#x2bc;" horiz-adv-x="240" d="M109 700 L202 700 L124 494 L58 494 L109 700 Z " />
<glyph glyph-name="circumflex" unicode="&#x2c6;" horiz-adv-x="400" d="M152 756 L248 756 L359 617 L283 617 L200 705 L115 617 L41 617 L152 756 Z " />
<glyph glyph-name="caron" unicode="&#x2c7;" horiz-adv-x="400" d="M41 756 L117 756 L200 667 L285 756 L359 756 L248 617 L152 617 L41 756 Z " />
<glyph glyph-name="breve" unicode="&#x2d8;" horiz-adv-x="370" d="M185 615 Q125 615 84 647 Q43 679 31 741 L91 757 Q109 680 185 680 Q263 680 281 757 L339 741 Q327 678 286.5 646.5 Q246 615 185 615 Z " />
<glyph glyph-name="dotaccent" unicode="&#x2d9;" horiz-adv-x="210" d="M105 632 Q49 632 49 686 Q49 740 105 740 Q161 740 161 686 Q161 632 105 632 Z " />
<glyph glyph-name="ring" unicode="&#x2da;" horiz-adv-x="260" d="M32 686 Q32 730 58.5 756.5 Q85 783 130 783 Q175 783 201.5 756.5 Q228 730 228 686 Q228 643 201.5 616 Q175 589 130 589 Q85 589 58.5 616 Q32 643 32 686 Z M82 686 Q82 663 94.5 650.5 Q107 638 130 638 Q152 638 165 651 Q178 664 178 686 Q178 708 165 721 Q152 734 130 734 Q108 734 95 721 Q82 708 82 686 Z " />
<glyph glyph-name="ogonek" unicode="&#x2db;" horiz-adv-x="240" d="M128 -196 Q78 -196 56 -176 Q34 -156 34 -119 Q34 -80 65.5 -45.5 Q97 -11 160 23 L206 0 Q155 -26 132.5 -54 Q110 -82 110 -105 Q110 -121 119.5 -130.5 Q129 -140 149 -140 Q164 -140 178 -136 Q192 -132 206 -124 L206 -179 Q191 -187 172 -191.5 Q153 -196 128 -196 Z " />
<glyph glyph-name="tilde" unicode="&#x2dc;" horiz-adv-x="400" d="M45 634 Q48 680 71 705 Q94 730 131 730 Q151 730 167.5 724.5 Q184 719 206 709 Q227 700 240 693.5 Q253 687 267 687 Q281 687 289.5 696 Q298 705 303 729 L355 717 Q350 671 326.5 646.5 Q303 622 270 622 Q252 622 237 625.5 Q222 629 193 643 Q174 652 162 658.5 Q150 665 136 665 Q123 665 113 656.5 Q103 648 98 623 L45 634 Z " />
<glyph glyph-name="hungarumlaut" unicode="&#x2dd;" horiz-adv-x="460" d="M107 756 L207 756 L124 617 L58 617 L107 756 Z M288 756 L402 756 L268 617 L195 617 L288 756 Z " />
<glyph glyph-name="acutecomb" unicode="&#x301;" d="M-240 756 L-124 756 L-249 617 L-322 617 L-240 756 Z " />
<glyph glyph-name="&amp;#x394;" unicode="&#x394;" horiz-adv-x="640" d="M270 700 L370 700 L620 0 L20 0 L270 700 Z M494 85 L319 592 L317 592 L142 85 L494 85 Z " />
<glyph glyph-name="&amp;#x2206;" unicode="&#x2206;" horiz-adv-x="640" d="M270 700 L370 700 L620 0 L20 0 L270 700 Z M494 85 L319 592 L317 592 L142 85 L494 85 Z " />
<glyph glyph-name="&amp;#x3a9;" unicode="&#x3a9;" horiz-adv-x="740" d="M62 81 L237 81 L237 141 Q199 154 165.5 176 Q132 198 106 230.5 Q80 263 65 307.5 Q50 352 50 410 Q50 478 72.5 533.5 Q95 589 136.5 628.5 Q178 668 237 689.5 Q296 711 370 711 Q444 711 503 689.5 Q562 668 603.5 628.5 Q645 589 667.5 533.5 Q690 478 690 410 Q690 352 674.5 308 Q659 264 633 231 Q607 198 573.5 176 Q540 154 504 141 L504 81 L678 81 L678 0 L418 0 L418 195 Q464 203 497 223.5 Q530 244 551.5 272.5 Q573 301 583.5 335 Q594 369 594 404 Q594 454 578 495.5 Q562 537 532.5 566.5 Q503 596 461.5 612 Q420 628 370 628 Q320 628 278.5 612 Q237 596 207.5 566.5 Q178 537 162 495.5 Q146 454 146 404 Q146 369 156.5 335 Q167 301 188.5 272.5 Q210 244 243.5 223.5 Q277 203 323 195 L323 0 L62 0 L62 81 Z " />
<glyph glyph-name="&amp;#x2126;" unicode="&#x2126;" horiz-adv-x="740" d="M62 81 L237 81 L237 141 Q199 154 165.5 176 Q132 198 106 230.5 Q80 263 65 307.5 Q50 352 50 410 Q50 478 72.5 533.5 Q95 589 136.5 628.5 Q178 668 237 689.5 Q296 711 370 711 Q444 711 503 689.5 Q562 668 603.5 628.5 Q645 589 667.5 533.5 Q690 478 690 410 Q690 352 674.5 308 Q659 264 633 231 Q607 198 573.5 176 Q540 154 504 141 L504 81 L678 81 L678 0 L418 0 L418 195 Q464 203 497 223.5 Q530 244 551.5 272.5 Q573 301 583.5 335 Q594 369 594 404 Q594 454 578 495.5 Q562 537 532.5 566.5 Q503 596 461.5 612 Q420 628 370 628 Q320 628 278.5 612 Q237 596 207.5 566.5 Q178 537 162 495.5 Q146 454 146 404 Q146 369 156.5 335 Q167 301 188.5 272.5 Q210 244 243.5 223.5 Q277 203 323 195 L323 0 L62 0 L62 81 Z " />
<glyph glyph-name="pi" unicode="&#x3c0;" horiz-adv-x="710" d="M583 -6 Q473 -6 473 116 L473 446 L242 446 L242 0 L154 0 L154 445 Q129 445 104 436 Q79 427 62 413 L31 487 Q46 497 62 504 Q78 511 97.5 516 Q117 521 141 523.5 Q165 526 196 526 L649 526 L649 446 L561 446 L561 136 Q561 101 571.5 89 Q582 77 605 77 Q622 77 633.5 79.5 Q645 82 649 83 L649 2 Q642 0 624.5 -3 Q607 -6 583 -6 Z " />
<glyph glyph-name="uni0401" unicode="&#x401;" horiz-adv-x="575" d="M101 700 L520 700 L520 617 L193 617 L193 399 L480 399 L480 318 L193 318 L193 83 L520 83 L520 0 L101 0 L101 700 Z M208 785 Q151 785 151 840 Q151 895 208 895 Q265 895 265 840 Q265 785 208 785 Z M411 785 Q354 785 354 840 Q354 895 411 895 Q468 895 468 840 Q468 785 411 785 Z " />
<glyph glyph-name="uni0402" unicode="&#x402;" horiz-adv-x="770" d="M244 617 L35 617 L35 700 L545 700 L545 617 L336 617 L336 405 Q366 419 406 430 Q446 441 496 441 Q612 441 666 389 Q720 337 720 234 L720 197 Q720 93 669.5 41 Q619 -11 523 -11 Q502 -11 480 -8.5 Q458 -6 444 -1 L444 87 Q467 73 509 73 Q564 73 594.5 105 Q625 137 625 197 L625 233 Q625 293 590 324.5 Q555 356 474 356 Q434 356 399.5 346.5 Q365 337 336 322 L336 0 L244 0 L244 617 Z " />
<glyph glyph-name="uni0403" unicode="&#x403;" horiz-adv-x="535" d="M101 700 L500 700 L500 617 L193 617 L193 0 L101 0 L101 700 Z M345 910 L463 910 L330 770 L255 770 L345 910 Z " />
<glyph glyph-name="uni0404" unicode="&#x404;" horiz-adv-x="590" d="M365 -11 Q288 -11 229 10 Q170 31 130 75.5 Q90 120 70 189.5 Q50 259 50 355 Q50 543 128.5 627 Q207 711 365 711 Q403 711 434 706 Q465 701 487 696 Q513 690 533 682 L533 585 Q504 604 462.5 614.5 Q421 625 367 625 Q315 625 275.5 612.5 Q236 600 208.5 573 Q181 546 166 503 Q151 460 147 398 L445 398 L445 318 L147 318 Q154 188 210.5 131.5 Q267 75 367 75 Q426 75 468.5 91 Q511 107 540 124 L540 23 Q519 13 492 6 Q469 -1 436.5 -6 Q404 -11 365 -11 Z " />
<glyph glyph-name="uni0405" unicode="&#x405;" horiz-adv-x="580" d="M282 -11 Q218 -11 164.5 4.5 Q111 20 79 42 L79 148 Q94 135 114.5 122 Q135 109 160.5 98.5 Q186 88 215.5 81.5 Q245 75 278 75 Q354 75 386.5 103.5 Q419 132 419 185 Q419 229 394 254.5 Q369 280 331 296.5 Q293 313 249 327 Q205 341 167 364 Q129 387 104 423.5 Q79 460 79 522 Q79 613 133 662 Q187 711 308 711 Q363 711 409 701 Q455 691 484 676 L484 570 Q455 595 408 610 Q361 625 312 625 Q273 625 246.5 619 Q220 613 204 600.5 Q188 588 181.5 569 Q175 550 175 525 Q175 482 200 458.5 Q225 435 263 419.5 Q301 404 344.5 390.5 Q388 377 426 354 Q464 331 489 292 Q514 253 514 188 Q514 93 458 41 Q402 -11 282 -11 Z " />
<glyph glyph-name="uni0406" unicode="&#x406;" horiz-adv-x="330" d="M119 700 L211 700 L211 0 L119 0 L119 700 Z " />
<glyph glyph-name="uni0407" unicode="&#x407;" horiz-adv-x="330" d="M119 700 L211 700 L211 0 L119 0 L119 700 Z M64 785 Q7 785 7 840 Q7 895 64 895 Q121 895 121 840 Q121 785 64 785 Z M267 785 Q210 785 210 840 Q210 895 267 895 Q324 895 324 840 Q324 785 267 785 Z " />
<glyph glyph-name="uni0408" unicode="&#x408;" horiz-adv-x="420" d="M140 -11 Q116 -11 97 -8.5 Q78 -6 64 -2 Q48 2 35 7 L35 104 Q46 95 60 89 Q72 84 90 79.5 Q108 75 131 75 Q177 75 199 99.5 Q221 124 221 183 L221 700 L314 700 L314 183 Q314 78 272 33.5 Q230 -11 140 -11 Z " />
<glyph glyph-name="uni0409" unicode="&#x409;" horiz-adv-x="985" d="M667 -6 Q638 -6 606.5 -4 Q575 -2 548 0 Q516 3 486 6 L486 617 L262 617 L259 553 Q253 430 244.5 340.5 Q236 251 225 188 Q214 125 199 86.5 Q184 48 165.5 26 Q147 4 124 -3.5 Q101 -11 73 -11 Q55 -11 35 -6 L35 82 Q42 80 48 79 Q54 78 62 78 Q85 78 103 96.5 Q121 115 134 167.5 Q147 220 156 314 Q165 408 171 559 L176 700 L579 700 L579 448 Q596 449 615 450 Q631 451 651.5 452 Q672 453 692 453 Q822 453 878.5 399 Q935 345 935 230 Q935 169 920.5 124.5 Q906 80 874 51 Q842 22 791 8 Q740 -6 667 -6 Z M839 227 Q839 266 831.5 292.5 Q824 319 805 335.5 Q786 352 754.5 359 Q723 366 675 366 Q656 366 639 365.5 Q622 365 608 364 Q592 363 579 362 L579 88 Q592 86 608 84 Q635 81 675 81 Q765 81 802 115.5 Q839 150 839 227 Z " />
<glyph glyph-name="uni040A" unicode="&#x40a;" horiz-adv-x="1010" d="M692 -6 Q663 -6 631.5 -4 Q600 -2 573 0 Q541 3 511 6 L511 317 L193 317 L193 0 L101 0 L101 700 L193 700 L193 401 L511 401 L511 700 L604 700 L604 448 Q621 449 640 450 Q656 451 676.5 452 Q697 453 717 453 Q847 453 903.5 399 Q960 345 960 230 Q960 169 945.5 124.5 Q931 80 899 51 Q867 22 816 8 Q765 -6 692 -6 Z M864 227 Q864 266 856.5 292.5 Q849 319 830 335.5 Q811 352 779.5 359 Q748 366 700 366 Q681 366 664 365.5 Q647 365 633 364 Q617 363 604 362 L604 88 Q617 86 633 84 Q660 81 700 81 Q790 81 827 115.5 Q864 150 864 227 Z " />
<glyph glyph-name="uni040B" unicode="&#x40b;" horiz-adv-x="795" d="M244 617 L35 617 L35 700 L545 700 L545 617 L336 617 L336 405 Q363 419 403.5 431.5 Q444 444 498 444 Q619 444 672 393 Q725 342 725 232 L725 0 L632 0 L632 229 Q632 295 598 327.5 Q564 360 485 360 Q437 360 399.5 348.5 Q362 337 336 323 L336 0 L244 0 L244 617 Z " />
<glyph glyph-name="uni040C" unicode="&#x40c;" horiz-adv-x="655" d="M266 317 L193 317 L193 0 L101 0 L101 700 L193 700 L193 400 L266 400 L497 700 L610 700 L344 360 L630 0 L514 0 L266 317 Z M400 910 L518 910 L385 770 L310 770 L400 910 Z " />
<glyph glyph-name="uni040E" unicode="&#x40e;" horiz-adv-x="630" d="M216 -11 Q196 -11 177.5 -8.5 Q159 -6 143 2 L143 97 Q154 88 169.5 81.5 Q185 75 205 75 Q234 75 252 94 Q270 113 287 158 L20 700 L127 700 L335 263 L507 700 L610 700 L379 138 Q362 96 344.5 67.5 Q327 39 307.5 21.5 Q288 4 265.5 -3.5 Q243 -11 216 -11 Z M315 770 Q279 770 250 777.5 Q221 785 200 801.5 Q179 818 166.5 844.5 Q154 871 153 910 L229 910 Q232 865 252.5 847.5 Q273 830 315 830 Q357 830 378.5 847.5 Q400 865 403 910 L477 910 Q473 833 429.5 801.5 Q386 770 315 770 Z " />
<glyph glyph-name="uni040F" unicode="&#x40f;" horiz-adv-x="690" d="M101 700 L193 700 L193 83 L497 83 L497 700 L589 700 L589 0 L387 0 L387 -130 L303 -130 L303 0 L101 0 L101 700 Z " />
<glyph glyph-name="uni0410" unicode="&#x410;" horiz-adv-x="640" d="M270 700 L370 700 L620 0 L521 0 L458 185 L177 185 L114 0 L20 0 L270 700 Z M205 265 L430 265 L318 596 L205 265 Z " />
<glyph glyph-name="uni0411" unicode="&#x411;" horiz-adv-x="630" d="M300 -6 Q267 -6 232 -4 Q197 -2 168 0 Q134 3 101 6 L101 700 L526 700 L526 617 L193 617 L193 424 Q209 425 228 426 Q244 427 265.5 428 Q287 429 311 429 Q384 429 433.5 416.5 Q483 404 513.5 378 Q544 352 557 312 Q570 272 570 216 Q570 161 555 119.5 Q540 78 508 50 Q476 22 424.5 8 Q373 -6 300 -6 Z M474 217 Q474 251 466 276 Q458 301 438.5 316.5 Q419 332 385.5 339.5 Q352 347 301 347 Q278 347 258 346 Q238 345 224 344 Q206 343 193 342 L193 88 Q206 86 224 84 Q238 82 258 81.5 Q278 81 301 81 Q349 81 382.5 89.5 Q416 98 436 114.5 Q456 131 465 156.5 Q474 182 474 217 Z " />
<glyph glyph-name="uni0412" unicode="&#x412;" horiz-adv-x="625" d="M308 -6 Q273 -6 236 -4.5 Q199 -3 169 -1 Q134 2 101 5 L101 695 Q134 697 169 700 Q199 702 235 704 Q271 706 305 706 Q375 706 421 695 Q467 684 495 661.5 Q523 639 534.5 604.5 Q546 570 546 522 Q546 396 430 364 Q569 346 569 199 Q569 148 555 110 Q541 72 510.5 46 Q480 20 430 7 Q380 -6 308 -6 Z M474 202 Q474 262 440.5 291 Q407 320 322 320 L193 320 L193 82 Q209 81 228 80 Q245 79 267 78.5 Q289 78 315 78 Q361 78 391.5 85 Q422 92 440.5 107 Q459 122 466.5 145.5 Q474 169 474 202 Z M450 513 Q450 543 443.5 563.5 Q437 584 421 597 Q405 610 377.5 616 Q350 622 308 622 Q284 622 263 621.5 Q242 621 226 620 Q208 619 193 619 L193 397 L312 397 Q388 397 419 425.5 Q450 454 450 513 Z " />
<glyph glyph-name="uni0413" unicode="&#x413;" horiz-adv-x="535" d="M101 700 L500 700 L500 617 L193 617 L193 0 L101 0 L101 700 Z " />
<glyph glyph-name="uni0414" unicode="&#x414;" horiz-adv-x="695" d="M25 83 L91 83 Q111 125 126 181.5 Q141 238 151 304 Q161 370 166.5 444 Q172 518 174 595 L176 701 L574 701 L574 83 L655 83 L655 -130 L570 -130 L570 0 L110 0 L110 -130 L25 -130 L25 83 Z M483 83 L483 617 L261 617 Q261 547 256.5 472.5 Q252 398 242.5 327 Q233 256 218 193 Q203 130 183 83 L483 83 Z " />
<glyph glyph-name="uni0415" unicode="&#x415;" horiz-adv-x="575" d="M101 700 L520 700 L520 617 L193 617 L193 399 L480 399 L480 318 L193 318 L193 83 L520 83 L520 0 L101 0 L101 700 Z " />
<glyph glyph-name="uni0416" unicode="&#x416;" horiz-adv-x="900" d="M254 357 L56 700 L163 700 L333 400 L403 400 L403 700 L496 700 L496 400 L567 400 L741 700 L844 700 L645 363 L864 0 L755 0 L567 317 L496 317 L496 0 L403 0 L403 317 L333 317 L143 0 L36 0 L254 357 Z " />
<glyph glyph-name="uni0417" unicode="&#x417;" horiz-adv-x="545" d="M244 -11 Q181 -11 133 0.5 Q85 12 50 28 L50 135 Q80 108 129.5 90.5 Q179 73 240 73 Q323 73 357.5 104.5 Q392 136 392 202 Q392 260 358 290 Q324 320 240 320 L148 320 L148 397 L237 397 Q306 397 337 426.5 Q368 456 368 515 Q368 572 338.5 599.5 Q309 627 238 627 Q190 627 146 612.5 Q102 598 64 572 L64 676 Q99 691 144 701 Q189 711 246 711 Q365 711 415 664 Q465 617 465 530 Q465 465 434 423 Q403 381 344 364 Q416 357 452.5 312.5 Q489 268 489 193 Q489 96 432 42.5 Q375 -11 244 -11 Z " />
<glyph glyph-name="uni0418" unicode="&#x418;" horiz-adv-x="740" d="M101 700 L193 700 L193 243 Q193 223 192.5 204 Q192 185 191 170 Q190 152 190 137 L192 137 Q200 152 210 170 Q218 185 229.5 204 Q241 223 253 243 L540 700 L639 700 L639 0 L547 0 L547 457 Q547 480 547 499 Q547 518 548 532 Q549 549 550 563 L548 563 Q541 549 531 532 Q523 518 512 499 Q501 480 487 457 L200 0 L101 0 L101 700 Z " />
<glyph glyph-name="uni0419" unicode="&#x419;" horiz-adv-x="740" d="M101 700 L193 700 L193 243 Q193 223 192.5 204 Q192 185 191 170 Q190 152 190 137 L192 137 Q200 152 210 170 Q218 185 229.5 204 Q241 223 253 243 L540 700 L639 700 L639 0 L547 0 L547 457 Q547 480 547 499 Q547 518 548 532 Q549 549 550 563 L548 563 Q541 549 531 532 Q523 518 512 499 Q501 480 487 457 L200 0 L101 0 L101 700 Z M367 770 Q331 770 302 777.5 Q273 785 252 801.5 Q231 818 218.5 844.5 Q206 871 205 910 L281 910 Q284 865 304.5 847.5 Q325 830 367 830 Q409 830 430.5 847.5 Q452 865 455 910 L529 910 Q525 833 481.5 801.5 Q438 770 367 770 Z " />
<glyph glyph-name="uni041A" unicode="&#x41a;" horiz-adv-x="655" d="M266 317 L193 317 L193 0 L101 0 L101 700 L193 700 L193 400 L266 400 L497 700 L610 700 L344 360 L630 0 L514 0 L266 317 Z " />
<glyph glyph-name="uni041B" unicode="&#x41b;" horiz-adv-x="695" d="M73 -11 Q55 -11 35 -6 L35 82 Q42 80 48 79 Q54 78 62 78 Q85 78 103 96.5 Q121 115 134 167.5 Q147 220 156 314 Q165 408 171 559 L176 700 L594 700 L594 0 L502 0 L502 617 L262 617 L259 553 Q253 430 244.5 340.5 Q236 251 225 188 Q214 125 199 86.5 Q184 48 165.5 26 Q147 4 124 -3.5 Q101 -11 73 -11 Z " />
<glyph glyph-name="uni041C" unicode="&#x41c;" horiz-adv-x="850" d="M101 700 L216 700 L427 270 L638 700 L749 700 L749 0 L659 0 L659 459 Q659 477 659 490 Q659 503 659.5 516 Q660 529 660.5 542 Q661 555 663 573 L660 573 Q654 555 648.5 542 Q643 529 637.5 516.5 Q632 504 625 490.5 Q618 477 609 459 L464 164 L386 164 L241 459 Q232 477 225.5 490.5 Q219 504 213.5 516.5 Q208 529 202.5 542 Q197 555 190 573 L187 573 Q188 555 189 542 Q190 529 190.5 516 Q191 503 191 490 Q191 477 191 459 L191 0 L101 0 L101 700 Z " />
<glyph glyph-name="uni041D" unicode="&#x41d;" horiz-adv-x="720" d="M101 700 L193 700 L193 401 L527 401 L527 700 L619 700 L619 0 L527 0 L527 317 L193 317 L193 0 L101 0 L101 700 Z " />
<glyph glyph-name="uni041E" unicode="&#x41e;" horiz-adv-x="710" d="M355 -11 Q281 -11 224.5 10 Q168 31 129 75 Q90 119 70 187 Q50 255 50 350 Q50 445 70 513 Q90 581 129 625 Q168 669 224.5 690 Q281 711 355 711 Q431 711 488 691 Q545 671 583.5 627.5 Q622 584 641 515.5 Q660 447 660 350 Q660 255 640 187 Q620 119 581 75 Q542 31 485 10 Q428 -11 355 -11 Z M355 73 Q406 73 445 87.5 Q484 102 510.5 135 Q537 168 550.5 221 Q564 274 564 350 Q564 426 550.5 479 Q537 532 510.5 565 Q484 598 445 612.5 Q406 627 355 627 Q305 627 266 612 Q227 597 200.5 564 Q174 531 160 478.5 Q146 426 146 350 Q146 275 160 222.5 Q174 170 200.5 136.5 Q227 103 266 88 Q305 73 355 73 Z " />
<glyph glyph-name="uni041F" unicode="&#x41f;" horiz-adv-x="700" d="M101 700 L599 700 L599 0 L507 0 L507 617 L193 617 L193 0 L101 0 L101 700 Z " />
<glyph glyph-name="uni0420" unicode="&#x420;" horiz-adv-x="620" d="M101 695 Q130 697 163 700 Q191 702 225.5 704 Q260 706 297 706 Q372 706 424 692 Q476 678 508.5 648.5 Q541 619 555.5 574.5 Q570 530 570 469 Q570 347 504.5 285 Q439 223 297 223 Q274 223 255 223.5 Q236 224 222 225 Q206 226 193 228 L193 0 L101 0 L101 695 Z M474 469 Q474 509 465.5 537.5 Q457 566 436.5 584 Q416 602 382 610.5 Q348 619 297 619 Q274 619 255 618 Q236 617 222 616 Q206 615 193 614 L193 315 Q206 313 222 312 Q236 311 255 310.5 Q274 310 297 310 Q394 310 434 347.5 Q474 385 474 469 Z " />
<glyph glyph-name="uni0421" unicode="&#x421;" horiz-adv-x="575" d="M358 -11 Q281 -11 223.5 9 Q166 29 127.5 73 Q89 117 69.5 186.5 Q50 256 50 355 Q50 448 70 515.5 Q90 583 128.5 626.5 Q167 670 224 690.5 Q281 711 355 711 Q392 711 422 706.5 Q452 702 475 697 Q501 691 522 683 L522 587 Q493 604 452 614.5 Q411 625 356 625 Q305 625 265.5 610.5 Q226 596 199.5 564 Q173 532 159.5 480.5 Q146 429 146 355 Q146 278 160 225 Q174 172 201 138.5 Q228 105 268 90 Q308 75 360 75 Q417 75 460.5 91 Q504 107 530 122 L530 25 Q508 15 481 7 Q458 0 426.5 -5.5 Q395 -11 358 -11 Z " />
<glyph glyph-name="uni0422" unicode="&#x422;" horiz-adv-x="580" d="M244 617 L35 617 L35 700 L545 700 L545 617 L336 617 L336 0 L244 0 L244 617 Z " />
<glyph glyph-name="uni0423" unicode="&#x423;" horiz-adv-x="630" d="M216 -11 Q196 -11 177.5 -8.5 Q159 -6 143 2 L143 97 Q154 88 169.5 81.5 Q185 75 205 75 Q234 75 252 94 Q270 113 287 158 L20 700 L127 700 L335 263 L507 700 L610 700 L379 138 Q362 96 344.5 67.5 Q327 39 307.5 21.5 Q288 4 265.5 -3.5 Q243 -11 216 -11 Z " />
<glyph glyph-name="uni0424" unicode="&#x424;" horiz-adv-x="830" d="M369 60 L347 60 Q191 60 118 132 Q45 204 45 355 Q45 507 117.5 578.5 Q190 650 347 650 L369 650 L369 720 L461 720 L461 650 L483 650 Q641 650 713 579 Q785 508 785 355 Q785 204 712 132 Q639 60 483 60 L461 60 L461 -20 L369 -20 L369 60 Z M141 355 Q141 296 152.5 255 Q164 214 188.5 188.5 Q213 163 252.5 151.5 Q292 140 348 140 L370 140 L370 570 L348 570 Q291 570 252 559 Q213 548 188 522.5 Q163 497 152 456 Q141 415 141 355 Z M689 355 Q689 415 678 456 Q667 497 642.5 522.5 Q618 548 578.5 559 Q539 570 482 570 L460 570 L460 140 L482 140 Q538 140 577.5 151.5 Q617 163 641.5 189 Q666 215 677.5 255.5 Q689 296 689 355 Z " />
<glyph glyph-name="uni0425" unicode="&#x425;" horiz-adv-x="630" d="M257 359 L39 700 L146 700 L316 434 L486 700 L591 700 L373 361 L605 0 L496 0 L314 285 L131 0 L25 0 L257 359 Z " />
<glyph glyph-name="uni0426" unicode="&#x426;" horiz-adv-x="730" d="M605 0 L101 0 L101 700 L193 700 L193 83 L517 83 L517 700 L610 700 L610 83 L690 83 L690 -130 L605 -130 L605 0 Z " />
<glyph glyph-name="uni0427" unicode="&#x427;" horiz-adv-x="650" d="M457 290 Q439 279 414 270 Q393 262 362 256.5 Q331 251 291 251 Q174 251 122 302 Q70 353 70 463 L70 700 L163 700 L163 467 Q163 400 196 367.5 Q229 335 303 335 Q342 335 371 340.5 Q400 346 419 353 Q441 361 457 372 L457 700 L549 700 L549 0 L457 0 L457 290 Z " />
<glyph glyph-name="uni0428" unicode="&#x428;" horiz-adv-x="930" d="M101 700 L193 700 L193 83 L419 83 L419 700 L511 700 L511 83 L737 83 L737 700 L829 700 L829 0 L101 0 L101 700 Z " />
<glyph glyph-name="uni0429" unicode="&#x429;" horiz-adv-x="950" d="M101 700 L193 700 L193 83 L419 83 L419 700 L511 700 L511 83 L737 83 L737 700 L829 700 L829 83 L910 83 L910 -130 L825 -130 L825 0 L101 0 L101 700 Z " />
<glyph glyph-name="uni042A" unicode="&#x42a;" horiz-adv-x="690" d="M362 -6 Q333 -6 301.5 -4 Q270 -2 243 0 Q211 3 181 6 L181 617 L35 617 L35 700 L272 700 L272 448 Q290 449 309 450 Q326 451 346 452 Q366 453 386 453 Q455 453 503.5 439.5 Q552 426 582 398.5 Q612 371 626 329 Q640 287 640 230 Q640 169 625.5 124.5 Q611 80 578 51 Q545 22 492 8 Q439 -6 362 -6 Z M544 227 Q544 266 536 292.5 Q528 319 508.5 335.5 Q489 352 455.5 359 Q422 366 370 366 Q350 366 333 365.5 Q316 365 302 364 Q286 363 272 362 L272 88 Q286 86 302 84 Q329 81 370 81 Q419 81 452 89.5 Q485 98 505.5 115.5 Q526 133 535 160.5 Q544 188 544 227 Z " />
<glyph glyph-name="uni042B" unicode="&#x42b;" horiz-adv-x="850" d="M282 -6 Q253 -6 221.5 -4 Q190 -2 163 0 Q131 3 101 6 L101 700 L192 700 L192 448 Q210 449 229 450 Q246 451 266 452 Q286 453 306 453 Q374 453 421.5 439.5 Q469 426 499 398.5 Q529 371 543 329 Q557 287 557 230 Q557 169 542.5 124.5 Q528 80 495.5 51 Q463 22 410.5 8 Q358 -6 282 -6 Z M461 227 Q461 266 453.5 292.5 Q446 319 426.5 335.5 Q407 352 374 359 Q341 366 290 366 Q270 366 253 365.5 Q236 365 222 364 Q206 363 192 362 L192 88 Q206 86 222 84 Q249 81 290 81 Q385 81 423 115.5 Q461 150 461 227 Z M657 700 L749 700 L749 0 L657 0 L657 700 Z " />
<glyph glyph-name="uni042C" unicode="&#x42c;" horiz-adv-x="610" d="M282 -6 Q253 -6 221.5 -4 Q190 -2 163 0 Q131 3 101 6 L101 700 L193 700 L193 448 Q210 449 229 450 Q245 451 265.5 452 Q286 453 306 453 Q375 453 423.5 439.5 Q472 426 502 398.5 Q532 371 546 329 Q560 287 560 230 Q560 169 545.5 124.5 Q531 80 498 51 Q465 22 412 8 Q359 -6 282 -6 Z M464 227 Q464 266 456 292.5 Q448 319 428.5 335.5 Q409 352 375.5 359 Q342 366 290 366 Q270 366 253 365.5 Q236 365 222 364 Q206 363 193 362 L193 88 Q206 86 222 84 Q249 81 290 81 Q339 81 372 89.5 Q405 98 425.5 115.5 Q446 133 455 160.5 Q464 188 464 227 Z " />
<glyph glyph-name="uni042D" unicode="&#x42d;" horiz-adv-x="590" d="M145 398 L443 398 Q439 460 423.5 503 Q408 546 381 573 Q354 600 314.5 612.5 Q275 625 223 625 Q169 625 127.5 614.5 Q86 604 57 585 L57 682 Q77 690 103 696 Q125 701 156 706 Q187 711 225 711 Q382 711 461 627 Q540 543 540 355 Q540 259 519.5 189.5 Q499 120 459.5 75.5 Q420 31 361 10 Q302 -11 225 -11 Q185 -11 153 -6 Q121 -1 98 6 Q71 13 50 23 L50 124 Q79 107 121.5 91 Q164 75 223 75 Q323 75 379 131.5 Q435 188 443 318 L145 318 L145 398 Z " />
<glyph glyph-name="uni042E" unicode="&#x42e;" horiz-adv-x="960" d="M615 -11 Q547 -11 494.5 7 Q442 25 405 64 Q368 103 347.5 164.5 Q327 226 323 313 L193 313 L193 0 L101 0 L101 700 L193 700 L193 397 L324 397 Q329 480 350.5 539.5 Q372 599 409 637 Q446 675 497.5 693 Q549 711 615 711 Q688 711 743.5 691.5 Q799 672 836 628.5 Q873 585 891.5 516.5 Q910 448 910 350 Q910 254 890.5 185.5 Q871 117 833.5 73.5 Q796 30 741 9.5 Q686 -11 615 -11 Z M615 74 Q663 74 699.5 88.5 Q736 103 761.5 135.5 Q787 168 800 220.5 Q813 273 813 350 Q813 427 800 479.5 Q787 532 761.5 564.5 Q736 597 699.5 611.5 Q663 626 615 626 Q567 626 530.5 611.5 Q494 597 468.5 564.5 Q443 532 430 479.5 Q417 427 417 350 Q417 273 430 220.5 Q443 168 468.5 135.5 Q494 103 530.5 88.5 Q567 74 615 74 Z " />
<glyph glyph-name="uni042F" unicode="&#x42f;" horiz-adv-x="640" d="M219 276 Q152 299 121.5 351 Q91 403 91 484 Q91 540 105 582 Q119 624 150 651.5 Q181 679 230.5 692.5 Q280 706 350 706 Q386 706 420.5 704 Q455 702 481 700 Q512 697 539 695 L539 0 L447 0 L447 258 L347 258 Q336 258 326.5 258 Q317 258 308 259 L155 0 L51 0 L219 276 Z M187 481 Q187 410 223.5 376 Q260 342 347 342 L448 342 L448 616 Q434 616 417 617 Q403 618 384.5 618.5 Q366 619 347 619 Q301 619 270.5 611.5 Q240 604 221.5 587.5 Q203 571 195 544.5 Q187 518 187 481 Z " />
<glyph glyph-name="uni0430" unicode="&#x430;" horiz-adv-x="535" d="M215 -11 Q134 -11 92.5 30 Q51 71 51 147 Q51 187 61.5 216.5 Q72 246 97 266 Q122 286 162 296 Q202 306 261 306 L371 306 L371 353 Q371 409 345 432.5 Q319 456 249 456 Q202 456 161 443 Q120 430 92 411 L92 503 Q121 517 166 527 Q211 537 261 537 Q315 537 353 526.5 Q391 516 414.5 493.5 Q438 471 448.5 436 Q459 401 459 351 L459 0 L380 0 L375 90 Q357 48 318 18.5 Q279 -11 215 -11 Z M238 67 Q300 67 335.5 103.5 Q371 140 371 208 L371 244 L267 244 Q195 244 168 221.5 Q141 199 141 151 Q141 109 164 88 Q187 67 238 67 Z " />
<glyph glyph-name="uni0431" unicode="&#x431;" horiz-adv-x="590" d="M302 -11 Q245 -11 200 5.5 Q155 22 124.5 59.5 Q94 97 77.5 159 Q61 221 61 313 Q61 436 76 514 Q91 592 122 638.5 Q153 685 201 706 Q249 727 315 736 Q369 743 418 749.5 Q467 756 496 768 L496 676 Q478 668 443.5 662 Q409 656 338 649 Q288 644 251 633.5 Q214 623 188.5 597.5 Q163 572 149.5 526.5 Q136 481 134 406 L137 406 Q163 457 210 489 Q257 521 333 521 Q386 521 425 507 Q464 493 489.5 462 Q515 431 527 382.5 Q539 334 539 264 Q539 120 476 54.5 Q413 -11 302 -11 Z M302 70 Q374 70 411.5 115 Q449 160 449 261 Q449 311 440.5 345.5 Q432 380 415 401 Q398 422 371.5 431 Q345 440 308 440 Q232 440 192.5 395 Q153 350 153 265 Q153 161 190 115.5 Q227 70 302 70 Z " />
<glyph glyph-name="uni0432" unicode="&#x432;" horiz-adv-x="540" d="M270 -6 Q231 -6 197 -5.5 Q163 -5 137 -3 Q107 -2 81 0 L81 527 Q106 528 135 529 Q160 530 192.5 531 Q225 532 263 532 Q323 532 362.5 522.5 Q402 513 425.5 495 Q449 477 459 450.5 Q469 424 469 390 Q469 348 447 320 Q425 292 377 278 Q434 272 461.5 239 Q489 206 489 149 Q489 112 477.5 83 Q466 54 440.5 34.5 Q415 15 373 4.5 Q331 -6 270 -6 Z M399 155 Q399 197 373.5 217.5 Q348 238 278 238 L168 238 L168 75 Q168 74 199 73 Q230 72 272 72 Q311 72 335.5 76.5 Q360 81 374.5 90.5 Q389 100 394 116 Q399 132 399 155 Z M381 380 Q381 399 376 413 Q371 427 357.5 436.5 Q344 446 321.5 450.5 Q299 455 263 455 Q242 455 224.5 454.5 Q207 454 194 453 Q179 452 168 452 L168 305 L278 305 Q335 305 358 324.5 Q381 344 381 380 Z " />
<glyph glyph-name="uni0433" unicode="&#x433;" horiz-adv-x="435" d="M81 526 L405 526 L405 446 L169 446 L169 0 L81 0 L81 526 Z " />
<glyph glyph-name="uni0434" unicode="&#x434;" horiz-adv-x="595" d="M30 80 L89 80 Q119 143 134 256 Q149 369 149 526 L488 526 L488 80 L560 80 L560 -130 L480 -130 L480 0 L110 0 L110 -130 L30 -130 L30 80 Z M400 80 L400 446 L229 446 Q229 397 226 346.5 Q223 296 216 248 Q209 200 199 157 Q189 114 175 80 L400 80 Z " />
<glyph glyph-name="uni0435" unicode="&#x435;" horiz-adv-x="550" d="M297 -11 Q170 -11 110.5 55.5 Q51 122 51 266 Q51 405 112 471 Q173 537 280 537 Q394 537 446.5 476 Q499 415 499 281 L499 240 L139 240 Q141 151 180 109 Q219 67 303 67 Q353 67 396 83.5 Q439 100 466 123 L466 35 Q441 18 399.5 3.5 Q358 -11 297 -11 Z M280 462 Q212 462 176.5 425 Q141 388 139 304 L411 304 Q411 341 404.5 370.5 Q398 400 383 420.5 Q368 441 343 451.5 Q318 462 280 462 Z " />
<glyph glyph-name="uni0436" unicode="&#x436;" horiz-adv-x="770" d="M211 268 L51 526 L149 526 L279 313 L343 313 L343 526 L428 526 L428 313 L491 313 L624 526 L719 526 L560 278 L734 0 L635 0 L491 234 L428 234 L428 0 L343 0 L343 234 L281 234 L132 0 L36 0 L211 268 Z " />
<glyph glyph-name="uni0437" unicode="&#x437;" horiz-adv-x="475" d="M215 -11 Q193 -11 169 -8.5 Q145 -6 121.5 -1.5 Q98 3 77 9.5 Q56 16 40 24 L40 123 Q67 101 110 84 Q153 67 210 67 Q280 67 307.5 89.5 Q335 112 335 154 Q335 174 329.5 189 Q324 204 309.5 213.5 Q295 223 271 228 Q247 233 210 233 L137 233 L137 303 L210 303 Q267 303 291 324 Q315 345 315 381 Q315 421 292.5 440 Q270 459 207 459 Q162 459 122 445 Q82 431 50 407 L50 505 Q83 519 123 528 Q163 537 218 537 Q270 537 306 528 Q342 519 363.5 501 Q385 483 394.5 455.5 Q404 428 404 390 Q404 349 381 317 Q358 285 312 274 Q424 261 424 146 Q424 74 375 31.5 Q326 -11 215 -11 Z " />
<glyph glyph-name="uni0438" unicode="&#x438;" horiz-adv-x="590" d="M81 526 L169 526 L169 199 Q169 184 168.5 170 Q168 156 167 145 Q166 132 166 120 L168 120 Q174 132 181 145 Q194 169 214 200 L422 526 L509 526 L509 0 L421 0 L421 325 Q421 340 421 355 Q421 370 422 381 Q423 394 424 406 L422 406 Q416 394 409 381 Q396 357 376 326 L168 0 L81 0 L81 526 Z " />
<glyph glyph-name="uni0439" unicode="&#x439;" horiz-adv-x="590" d="M81 526 L169 526 L169 199 Q169 184 168.5 170 Q168 156 167 145 Q166 132 166 120 L168 120 Q174 132 181 145 Q194 169 214 200 L422 526 L509 526 L509 0 L421 0 L421 325 Q421 340 421 355 Q421 370 422 381 Q423 394 424 406 L422 406 Q416 394 409 381 Q396 357 376 326 L168 0 L81 0 L81 526 Z M295 617 Q225 617 184 648 Q143 679 139 756 L215 756 Q219 711 238 692.5 Q257 674 295 674 Q333 674 353 692.5 Q373 711 378 756 L451 756 Q446 679 405.5 648 Q365 617 295 617 Z " />
<glyph glyph-name="uni043A" unicode="&#x43a;" horiz-adv-x="555" d="M81 526 L169 526 L169 313 L232 313 L396 526 L499 526 L303 275 L519 0 L413 0 L232 234 L169 234 L169 0 L81 0 L81 526 Z " />
<glyph glyph-name="uni043B" unicode="&#x43b;" horiz-adv-x="575" d="M30 87 Q41 83 54 83 Q73 83 88 97 Q103 111 113.5 152 Q124 193 130.5 267 Q137 341 139 461 L140 526 L494 526 L494 0 L406 0 L406 444 L222 444 L221 411 Q217 287 206.5 205.5 Q196 124 177.5 76 Q159 28 132 8.5 Q105 -11 68 -11 Q57 -11 48 -10 Q39 -9 30 -6 L30 87 Z " />
<glyph glyph-name="uni043C" unicode="&#x43c;" horiz-adv-x="680" d="M81 526 L197 526 L341 220 L487 526 L599 526 L599 0 L515 0 L515 331 Q515 345 515.5 363 Q516 381 517 396 Q518 414 519 431 L516 431 Q508 411 500 393 Q493 377 485 360 Q477 343 472 331 L371 122 L308 122 L209 331 Q204 343 196.5 360 Q189 377 182 393 Q174 411 165 431 L162 431 Q162 414 163 396 Q164 381 164.5 363.5 Q165 346 165 331 L165 0 L81 0 L81 526 Z " />
<glyph glyph-name="uni043D" unicode="&#x43d;" horiz-adv-x="580" d="M81 526 L169 526 L169 308 L411 308 L411 526 L499 526 L499 0 L411 0 L411 228 L169 228 L169 0 L81 0 L81 526 Z " />
<glyph glyph-name="uni043E" unicode="&#x43e;" horiz-adv-x="570" d="M285 -11 Q170 -11 110.5 54 Q51 119 51 263 Q51 403 113 470 Q175 537 285 537 Q402 537 460.5 473.5 Q519 410 519 263 Q519 119 458.5 54 Q398 -11 285 -11 Z M285 70 Q321 70 348 80 Q375 90 393 112.5 Q411 135 420 172 Q429 209 429 263 Q429 317 420 354 Q411 391 393 413.5 Q375 436 348 446 Q321 456 285 456 Q216 456 178.5 412.5 Q141 369 141 263 Q141 209 150 172 Q159 135 177 112.5 Q195 90 222 80 Q249 70 285 70 Z " />
<glyph glyph-name="uni043F" unicode="&#x43f;" horiz-adv-x="570" d="M81 526 L489 526 L489 0 L401 0 L401 446 L169 446 L169 0 L81 0 L81 526 Z " />
<glyph glyph-name="uni0440" unicode="&#x440;" horiz-adv-x="590" d="M81 526 L163 526 L169 441 Q180 461 195 478.5 Q210 496 230.5 509 Q251 522 278.5 529.5 Q306 537 342 537 Q391 537 428 522.5 Q465 508 489.5 476 Q514 444 526.5 393 Q539 342 539 268 Q539 192 526 139 Q513 86 486.5 52.5 Q460 19 421 4 Q382 -11 331 -11 Q296 -11 269.5 -3 Q243 5 223.5 18.5 Q204 32 191 50 Q178 68 169 87 L169 -180 L81 -180 L81 526 Z M449 268 Q449 321 440.5 357 Q432 393 415 415 Q398 437 372.5 446.5 Q347 456 313 456 Q243 456 206 416.5 Q169 377 169 296 L169 230 Q169 152 207 111 Q245 70 310 70 Q345 70 371 79.5 Q397 89 414.5 112 Q432 135 440.5 173 Q449 211 449 268 Z " />
<glyph glyph-name="uni0441" unicode="&#x441;" horiz-adv-x="475" d="M300 -11 Q237 -11 190 4.5 Q143 20 112.5 54 Q82 88 66.5 141 Q51 194 51 268 Q51 407 113 472 Q175 537 293 537 Q347 537 382 527.5 Q417 518 431 512 L431 417 Q408 433 375 444.5 Q342 456 300 456 Q222 456 181.5 412 Q141 368 141 268 Q141 162 183 116 Q225 70 310 70 Q347 70 383 82.5 Q419 95 440 112 L440 21 Q426 13 390.5 1 Q355 -11 300 -11 Z " />
<glyph glyph-name="uni0442" unicode="&#x442;" horiz-adv-x="480" d="M196 446 L30 446 L30 526 L450 526 L450 446 L284 446 L284 0 L196 0 L196 446 Z " />
<glyph glyph-name="uni0443" unicode="&#x443;" horiz-adv-x="520" d="M161 -191 Q141 -191 124 -187 Q107 -183 102 -180 L102 -94 Q111 -101 123 -105.5 Q135 -110 152 -110 Q164 -110 174 -106.5 Q184 -103 193.5 -91 Q203 -79 212.5 -57.5 Q222 -36 233 0 L20 526 L116 526 L275 117 L408 526 L500 526 L320 -3 Q299 -65 281 -102 Q263 -139 244.5 -158.5 Q226 -178 206 -184.5 Q186 -191 161 -191 Z " />
<glyph glyph-name="uni0444" unicode="&#x444;" horiz-adv-x="720" d="M316 -8 Q309 -9 302 -10 Q296 -11 287.5 -11 Q279 -11 270 -11 Q214 -11 173 3.5 Q132 18 105 50 Q78 82 64.5 134.5 Q51 187 51 263 Q51 337 65 389 Q79 441 107 474 Q135 507 175.5 522 Q216 537 270 537 Q279 537 287.5 536.5 Q296 536 302 535 Q309 534 316 533 L316 750 L404 750 L404 533 Q411 534 418 535 Q424 536 432 536.5 Q440 537 450 537 Q507 537 548.5 523.5 Q590 510 617 478 Q644 446 656.5 393.5 Q669 341 669 263 Q669 189 655 137 Q641 85 613 52 Q585 19 544.5 4 Q504 -11 450 -11 Q440 -11 432 -11 Q424 -11 418 -10 Q411 -9 404 -8 L404 -180 L316 -180 L316 -8 Z M141 263 Q141 207 149.5 170 Q158 133 175.5 110.5 Q193 88 220.5 79 Q248 70 286 70 Q292 70 297 70 Q302 70 307 71 Q311 71 316 72 L316 453 Q311 453 306 454 Q301 454 296 454.5 Q291 455 286 455 Q248 455 221 445.5 Q194 436 176 414 Q158 392 149.5 355 Q141 318 141 263 Z M579 263 Q579 318 570.5 355 Q562 392 544.5 414.5 Q527 437 499.5 446 Q472 455 434 455 Q428 455 423 454.5 Q418 454 413 454 Q408 453 404 453 L404 72 Q408 71 413 71 Q417 70 422.5 70 Q428 70 434 70 Q471 70 498 80 Q525 90 543 112.5 Q561 135 570 172 Q579 209 579 263 Z " />
<glyph glyph-name="uni0445" unicode="&#x445;" horiz-adv-x="540" d="M214 272 L49 526 L149 526 L271 338 L394 526 L491 526 L326 274 L504 0 L404 0 L269 210 L133 0 L36 0 L214 272 Z " />
<glyph glyph-name="uni0446" unicode="&#x446;" horiz-adv-x="590" d="M475 0 L81 0 L81 526 L169 526 L169 80 L391 80 L391 526 L479 526 L479 80 L555 80 L555 -130 L475 -130 L475 0 Z " />
<glyph glyph-name="uni0447" unicode="&#x447;" horiz-adv-x="530" d="M361 204 Q344 197 324 192 Q307 187 283 183.5 Q259 180 231 180 Q138 180 94 222 Q50 264 50 343 L50 526 L138 526 L138 356 Q138 305 162.5 282.5 Q187 260 245 260 Q273 260 294.5 263 Q316 266 331 270 Q349 274 361 281 L361 526 L449 526 L449 0 L361 0 L361 204 Z " />
<glyph glyph-name="uni0448" unicode="&#x448;" horiz-adv-x="780" d="M81 526 L169 526 L169 80 L346 80 L346 526 L434 526 L434 80 L611 80 L611 526 L699 526 L699 0 L81 0 L81 526 Z " />
<glyph glyph-name="uni0449" unicode="&#x449;" horiz-adv-x="810" d="M695 0 L81 0 L81 526 L169 526 L169 80 L346 80 L346 526 L434 526 L434 80 L611 80 L611 526 L699 526 L699 80 L775 80 L775 -130 L695 -130 L695 0 Z " />
<glyph glyph-name="uni044A" unicode="&#x44a;" horiz-adv-x="600" d="M334 -6 Q304 -6 273 -5 Q242 -4 217 -2 Q188 0 161 3 L161 446 L30 446 L30 526 L249 526 L249 352 Q262 353 278 354 Q292 355 309 356 Q326 357 346 357 Q405 357 445.5 346.5 Q486 336 511.5 314 Q537 292 548.5 258.5 Q560 225 560 179 Q560 87 508 40.5 Q456 -6 334 -6 Z M469 179 Q469 206 463.5 224.5 Q458 243 443.5 254.5 Q429 266 404 271 Q379 276 340 276 Q322 276 305.5 275 Q289 274 276 273 Q261 272 249 271 L249 80 Q261 79 276 78 Q289 77 305.5 76.5 Q322 76 340 76 Q378 76 403 81.5 Q428 87 442.5 99.5 Q457 112 463 131.5 Q469 151 469 179 Z " />
<glyph glyph-name="uni044B" unicode="&#x44b;" horiz-adv-x="730" d="M251 -6 Q221 -6 190.5 -5 Q160 -4 136 -2 Q107 0 81 3 L81 526 L169 526 L169 352 Q182 353 197 354 Q210 355 226.5 356 Q243 357 263 357 Q321 357 361 346.5 Q401 336 426 314 Q451 292 462 258.5 Q473 225 473 179 Q473 87 422 40.5 Q371 -6 251 -6 Z M383 179 Q383 206 377.5 224.5 Q372 243 357.5 254.5 Q343 266 318.5 271 Q294 276 257 276 Q239 276 223 275 Q207 274 195 273 Q181 272 169 271 L169 80 Q181 79 195 78 Q207 77 223 76.5 Q239 76 257 76 Q294 76 318 81.5 Q342 87 356.5 99.5 Q371 112 377 131.5 Q383 151 383 179 Z M561 526 L649 526 L649 0 L561 0 L561 526 Z " />
<glyph glyph-name="uni044C" unicode="&#x44c;" horiz-adv-x="520" d="M254 -6 Q224 -6 193 -5 Q162 -4 137 -2 Q108 0 81 3 L81 526 L169 526 L169 352 Q182 353 198 354 Q212 355 229 356 Q246 357 266 357 Q325 357 365.5 346.5 Q406 336 431.5 314 Q457 292 468.5 258.5 Q480 225 480 179 Q480 87 428 40.5 Q376 -6 254 -6 Z M389 179 Q389 206 383.5 224.5 Q378 243 363.5 254.5 Q349 266 324 271 Q299 276 260 276 Q242 276 225.5 275 Q209 274 196 273 Q181 272 169 271 L169 80 Q181 79 196 78 Q209 77 225.5 76.5 Q242 76 260 76 Q298 76 323 81.5 Q348 87 362.5 99.5 Q377 112 383 131.5 Q389 151 389 179 Z " />
<glyph glyph-name="uni044D" unicode="&#x44d;" horiz-adv-x="495" d="M129 304 L355 304 Q350 391 311 425 Q272 459 193 459 Q140 459 105 446 Q70 433 45 417 L45 508 Q65 518 101 527.5 Q137 537 193 537 Q259 537 306 522 Q353 507 384 475 Q415 443 429.5 391.5 Q444 340 444 268 Q444 122 380 55.5 Q316 -11 185 -11 Q128 -11 94 -1 Q60 9 40 20 L40 111 Q62 95 100.5 81 Q139 67 185 67 Q269 67 310 105.5 Q351 144 356 239 L129 239 L129 304 Z " />
<glyph glyph-name="uni044E" unicode="&#x44e;" horiz-adv-x="770" d="M490 -11 Q384 -11 327 44.5 Q270 100 263 228 L169 228 L169 0 L81 0 L81 526 L169 526 L169 308 L263 308 Q272 430 329 483.5 Q386 537 490 537 Q603 537 661 473.5 Q719 410 719 263 Q719 116 661 52.5 Q603 -11 490 -11 Z M490 70 Q524 70 550 79.5 Q576 89 593.5 111.5 Q611 134 619.5 171 Q628 208 628 263 Q628 318 619.5 355 Q611 392 593.5 414.5 Q576 437 550 446.5 Q524 456 490 456 Q455 456 429 446.5 Q403 437 386 414.5 Q369 392 360 355 Q351 318 351 263 Q351 208 360 171 Q369 134 386 111.5 Q403 89 429 79.5 Q455 70 490 70 Z " />
<glyph glyph-name="uni044F" unicode="&#x44f;" horiz-adv-x="550" d="M171 191 Q117 209 94 249 Q71 289 71 354 Q71 439 124.5 485.5 Q178 532 300 532 Q335 532 365.5 530.5 Q396 529 419 527 Q446 525 469 523 L469 0 L381 0 L381 176 L284 176 Q276 176 269 176 Q262 176 255 177 L148 0 L51 0 L171 191 Z M161 354 Q161 301 188 277.5 Q215 254 290 254 L381 254 L381 447 Q368 447 353 448 Q340 449 324 449.5 Q308 450 290 450 Q253 450 228.5 444 Q204 438 189 426 Q174 414 167.5 396 Q161 378 161 354 Z " />
<glyph glyph-name="uni0451" unicode="&#x451;" horiz-adv-x="550" d="M297 -11 Q170 -11 110.5 55.5 Q51 122 51 266 Q51 405 112 471 Q173 537 280 537 Q394 537 446.5 476 Q499 415 499 281 L499 240 L139 240 Q141 151 180 109 Q219 67 303 67 Q353 67 396 83.5 Q439 100 466 123 L466 35 Q441 18 399.5 3.5 Q358 -11 297 -11 Z M280 462 Q212 462 176.5 425 Q141 388 139 304 L411 304 Q411 341 404.5 370.5 Q398 400 383 420.5 Q368 441 343 451.5 Q318 462 280 462 Z M183 634 Q128 634 128 686 Q128 739 183 739 Q238 739 238 686 Q238 634 183 634 Z M373 634 Q318 634 318 686 Q318 739 373 739 Q428 739 428 686 Q428 634 373 634 Z " />
<glyph glyph-name="uni0452" unicode="&#x452;" horiz-adv-x="605" d="M7 526 L101 526 L101 753 L189 753 L189 526 L382 526 L382 458 L189 458 L189 271 Q211 319 250 345 Q289 371 352 371 Q441 371 485 325 Q529 279 529 173 L529 119 Q529 6 478.5 -69 Q428 -144 336 -191 L296 -137 Q338 -112 365.5 -86.5 Q393 -61 410 -32 Q427 -3 434 33 Q441 69 441 115 L441 142 Q441 184 434.5 212.5 Q428 241 413.5 258.5 Q399 276 376.5 283 Q354 290 322 290 Q259 290 224 253 Q189 216 189 142 L189 0 L101 0 L101 458 L7 458 L7 526 Z " />
<glyph glyph-name="uni0453" unicode="&#x453;" horiz-adv-x="435" d="M81 526 L405 526 L405 446 L169 446 L169 0 L81 0 L81 526 Z M281 756 L397 756 L272 617 L199 617 L281 756 Z " />
<glyph glyph-name="uni0454" unicode="&#x454;" horiz-adv-x="495" d="M310 -11 Q179 -11 115 55.5 Q51 122 51 268 Q51 340 65.5 391.5 Q80 443 111 475 Q142 507 189 522 Q236 537 302 537 Q358 537 394 527.5 Q430 518 450 508 L450 417 Q425 433 390 446 Q355 459 302 459 Q222 459 183.5 425 Q145 391 139 304 L366 304 L366 239 L139 239 Q143 144 184.5 105.5 Q226 67 310 67 Q356 67 394.5 81 Q433 95 455 111 L455 20 Q435 9 401 -1 Q367 -11 310 -11 Z " />
<glyph glyph-name="uni0455" unicode="&#x455;" horiz-adv-x="475" d="M227 -11 Q141 -11 71 20 L71 118 Q100 93 139.5 80 Q179 67 225 67 Q279 67 301.5 87 Q324 107 324 145 Q324 177 305 193.5 Q286 210 257 220 Q228 230 195 238.5 Q162 247 133 263 Q104 279 85 306.5 Q66 334 66 383 Q66 459 109 498 Q152 537 252 537 Q292 537 329 529.5 Q366 522 389 513 L389 418 Q360 438 326.5 448.5 Q293 459 253 459 Q199 459 177.5 441 Q156 423 156 390 Q156 360 175 344.5 Q194 329 223 319.5 Q252 310 285 301.5 Q318 293 347 276.5 Q376 260 395 231 Q414 202 414 151 Q414 70 370 29.5 Q326 -11 227 -11 Z " />
<glyph glyph-name="uni0456" unicode="&#x456;" horiz-adv-x="290" d="M101 526 L189 526 L189 0 L101 0 L101 526 Z M145 632 Q89 632 89 686 Q89 740 145 740 Q201 740 201 686 Q201 632 145 632 Z " />
<glyph glyph-name="uni0457" unicode="&#x457;" horiz-adv-x="290" d="M101 526 L189 526 L189 0 L101 0 L101 526 Z M54 634 Q-1 634 -1 686 Q-1 739 54 739 Q109 739 109 686 Q109 634 54 634 Z M244 634 Q189 634 189 686 Q189 739 244 739 Q299 739 299 686 Q299 634 244 634 Z " />
<glyph glyph-name="uni0458" unicode="&#x458;" horiz-adv-x="290" d="M53 -186 Q27 -186 6.5 -182 Q-14 -178 -21 -174 L-21 -86 Q-10 -94 5.5 -99 Q21 -104 40 -104 Q72 -104 86.5 -87 Q101 -70 101 -24 L101 526 L189 526 L189 -27 Q189 -112 155 -149 Q121 -186 53 -186 Z M145 632 Q89 632 89 686 Q89 740 145 740 Q201 740 201 686 Q201 632 145 632 Z " />
<glyph glyph-name="uni0459" unicode="&#x459;" horiz-adv-x="820" d="M564 -6 Q535 -6 505.5 -5 Q476 -4 451 -2 Q422 0 395 3 L395 444 L222 444 L221 411 Q217 287 206.5 205.5 Q196 124 177.5 76 Q159 28 132 8.5 Q105 -11 68 -11 Q57 -11 48 -10 Q39 -9 30 -6 L30 87 Q41 83 54 83 Q73 83 88 97 Q103 111 113.5 152 Q124 193 130.5 267 Q137 341 139 461 L140 526 L482 526 L482 352 Q495 353 511 354 Q525 355 542 356 Q559 357 577 357 Q687 357 733.5 314 Q780 271 780 179 Q780 87 729.5 40.5 Q679 -6 564 -6 Z M689 179 Q689 206 683.5 224.5 Q678 243 664.5 254.5 Q651 266 628 271 Q605 276 570 276 Q553 276 537 275 Q521 274 509 273 Q494 272 482 271 L482 80 Q494 79 509 78 Q521 77 537 76.5 Q553 76 570 76 Q639 76 664 99.5 Q689 123 689 179 Z " />
<glyph glyph-name="uni045A" unicode="&#x45a;" horiz-adv-x="830" d="M574 -6 Q545 -6 515.5 -5 Q486 -4 461 -2 Q432 0 405 3 L405 228 L169 228 L169 0 L81 0 L81 526 L169 526 L169 308 L405 308 L405 526 L492 526 L492 352 Q505 353 521 354 Q535 355 552 356 Q569 357 587 357 Q697 357 743.5 314 Q790 271 790 179 Q790 87 739.5 40.5 Q689 -6 574 -6 Z M699 179 Q699 206 693.5 224.5 Q688 243 674.5 254.5 Q661 266 638 271 Q615 276 580 276 Q563 276 547 275 Q531 274 519 273 Q504 272 492 271 L492 80 Q504 79 519 78 Q531 77 547 76.5 Q563 76 580 76 Q649 76 674 99.5 Q699 123 699 179 Z " />
<glyph glyph-name="uni045B" unicode="&#x45b;" horiz-adv-x="605" d="M7 526 L101 526 L101 753 L189 753 L189 526 L382 526 L382 458 L189 458 L189 271 Q211 319 250 345 Q289 371 352 371 Q441 371 485 325 Q529 279 529 173 L529 0 L441 0 L441 142 Q441 184 434.5 212.5 Q428 241 413.5 258.5 Q399 276 376.5 283 Q354 290 322 290 Q259 290 224 253 Q189 216 189 142 L189 0 L101 0 L101 458 L7 458 L7 526 Z " />
<glyph glyph-name="uni045C" unicode="&#x45c;" horiz-adv-x="555" d="M81 526 L169 526 L169 313 L232 313 L396 526 L499 526 L303 275 L519 0 L413 0 L232 234 L169 234 L169 0 L81 0 L81 526 Z M328 756 L444 756 L319 617 L246 617 L328 756 Z " />
<glyph glyph-name="uni045E" unicode="&#x45e;" horiz-adv-x="520" d="M161 -191 Q141 -191 124 -187 Q107 -183 102 -180 L102 -94 Q111 -101 123 -105.5 Q135 -110 152 -110 Q164 -110 174 -106.5 Q184 -103 193.5 -91 Q203 -79 212.5 -57.5 Q222 -36 233 0 L20 526 L116 526 L275 117 L408 526 L500 526 L320 -3 Q299 -65 281 -102 Q263 -139 244.5 -158.5 Q226 -178 206 -184.5 Q186 -191 161 -191 Z M260 617 Q190 617 149 648 Q108 679 104 756 L180 756 Q184 711 203 692.5 Q222 674 260 674 Q298 674 318 692.5 Q338 711 343 756 L416 756 Q411 679 370.5 648 Q330 617 260 617 Z " />
<glyph glyph-name="uni045F" unicode="&#x45f;" horiz-adv-x="560" d="M81 526 L169 526 L169 80 L391 80 L391 526 L479 526 L479 0 L320 0 L320 -130 L240 -130 L240 0 L81 0 L81 526 Z " />
<glyph glyph-name="uni0490" unicode="&#x490;" horiz-adv-x="535" d="M101 700 L415 700 L415 810 L500 810 L500 617 L193 617 L193 0 L101 0 L101 700 Z " />
<glyph glyph-name="uni0491" unicode="&#x491;" horiz-adv-x="435" d="M81 526 L325 526 L325 636 L405 636 L405 446 L169 446 L169 0 L81 0 L81 526 Z " />
<glyph glyph-name="uni0492" unicode="&#x492;" horiz-adv-x="545" d="M17 386 L111 386 L111 700 L510 700 L510 617 L203 617 L203 386 L409 386 L409 314 L203 314 L203 0 L111 0 L111 314 L17 314 L17 386 Z " />
<glyph glyph-name="uni0493" unicode="&#x493;" horiz-adv-x="465" d="M17 297 L111 297 L111 526 L435 526 L435 446 L199 446 L199 297 L359 297 L359 229 L199 229 L199 0 L111 0 L111 229 L17 229 L17 297 Z " />
<glyph glyph-name="uni049A" unicode="&#x49a;" horiz-adv-x="655" d="M266 317 L193 317 L193 0 L101 0 L101 700 L193 700 L193 400 L266 400 L497 700 L610 700 L344 360 L564 83 L643 83 L643 -130 L558 -130 L558 0 L514 0 L266 317 Z " />
<glyph glyph-name="uni049B" unicode="&#x49b;" horiz-adv-x="555" d="M456 0 L413 0 L232 234 L169 234 L169 0 L81 0 L81 526 L169 526 L169 313 L232 313 L396 526 L499 526 L303 275 L456 80 L536 80 L536 -130 L456 -130 L456 0 Z " />
<glyph glyph-name="uni04A2" unicode="&#x4a2;" horiz-adv-x="745" d="M620 0 L532 0 L532 317 L193 317 L193 0 L101 0 L101 700 L193 700 L193 401 L532 401 L532 700 L625 700 L625 83 L705 83 L705 -130 L620 -130 L620 0 Z " />
<glyph glyph-name="uni04A3" unicode="&#x4a3;" horiz-adv-x="610" d="M495 0 L411 0 L411 228 L169 228 L169 0 L81 0 L81 526 L169 526 L169 308 L411 308 L411 526 L499 526 L499 80 L575 80 L575 -130 L495 -130 L495 0 Z " />
<glyph glyph-name="uni04AE" unicode="&#x4ae;" horiz-adv-x="610" d="M264 271 L20 700 L126 700 L311 368 L489 700 L590 700 L356 271 L356 0 L264 0 L264 271 Z " />
<glyph glyph-name="uni04AF" unicode="&#x4af;" horiz-adv-x="520" d="M216 0 L20 526 L116 526 L262 111 L408 526 L500 526 L304 0 L304 -180 L216 -180 L216 0 Z " />
<glyph glyph-name="uni04B0" unicode="&#x4b0;" horiz-adv-x="610" d="M105 304 L245 304 L20 700 L126 700 L311 368 L489 700 L590 700 L374 304 L515 304 L515 232 L356 232 L356 0 L264 0 L264 232 L105 232 L105 304 Z " />
<glyph glyph-name="uni04B1" unicode="&#x4b1;" horiz-adv-x="520" d="M89 21 L208 21 L20 526 L116 526 L262 111 L408 526 L500 526 L312 21 L431 21 L431 -47 L304 -47 L304 -180 L216 -180 L216 -47 L89 -47 L89 21 Z " />
<glyph glyph-name="uni04BA" unicode="&#x4ba;" horiz-adv-x="650" d="M193 410 Q211 420 236 429 Q257 437 287.5 443 Q318 449 359 449 Q476 449 528 398 Q580 347 580 237 L580 0 L487 0 L487 233 Q487 300 454 332.5 Q421 365 347 365 Q307 365 278.5 359 Q250 353 231 346 Q209 338 193 328 L193 0 L101 0 L101 700 L193 700 L193 410 Z " />
<glyph glyph-name="uni04BB" unicode="&#x4bb;" horiz-adv-x="585" d="M81 753 L169 753 L169 437 Q191 485 230 511 Q269 537 332 537 Q421 537 465 491 Q509 445 509 339 L509 0 L421 0 L421 308 Q421 350 414.5 378.5 Q408 407 393.5 424.5 Q379 442 356.5 449 Q334 456 302 456 Q239 456 204 419 Q169 382 169 308 L169 0 L81 0 L81 753 Z " />
<glyph glyph-name="uni04C0" unicode="&#x4c0;" horiz-adv-x="330" d="M119 700 L211 700 L211 0 L119 0 L119 700 Z " />
<glyph glyph-name="uni04CF" unicode="&#x4cf;" horiz-adv-x="290" d="M101 753 L189 753 L189 0 L101 0 L101 753 Z " />
<glyph glyph-name="uni04D8" unicode="&#x4d8;" horiz-adv-x="690" d="M342 -11 Q273 -11 218.5 9.5 Q164 30 126.5 72.5 Q89 115 69.5 180 Q50 245 50 334 L50 380 L540 380 Q539 425 530 469.5 Q521 514 496 549.5 Q471 585 425 606.5 Q379 628 305 628 Q253 628 205 620 Q157 612 119 596 L119 683 Q163 696 211.5 703.5 Q260 711 317 711 Q408 711 470 685.5 Q532 660 570 613 Q608 566 624 500 Q640 434 640 354 Q640 282 624.5 216 Q609 150 574 99.5 Q539 49 482 19 Q425 -11 342 -11 Z M342 72 Q382 72 417.5 85 Q453 98 479.5 126 Q506 154 522 198 Q538 242 540 304 L146 304 Q146 186 192.5 129 Q239 72 342 72 Z " />
<glyph glyph-name="uni04D9" unicode="&#x4d9;" horiz-adv-x="550" d="M270 -11 Q156 -11 103.5 50 Q51 111 51 245 L51 286 L411 286 Q409 376 370 417.5 Q331 459 247 459 Q197 459 154 442.5 Q111 426 84 403 L84 491 Q104 507 148 522 Q192 537 253 537 Q380 537 439.5 470.5 Q499 404 499 260 Q499 121 438 55 Q377 -11 270 -11 Z M270 64 Q338 64 373.5 101 Q409 138 411 222 L139 222 Q139 183 145.5 154 Q152 125 167 105 Q182 85 207 74.5 Q232 64 270 64 Z " />
<glyph glyph-name="uni04E8" unicode="&#x4e8;" horiz-adv-x="710" d="M355 -11 Q281 -11 224.5 10 Q168 31 129 75 Q90 119 70 187 Q50 255 50 350 Q50 445 70 513 Q90 581 129 625 Q168 669 224.5 690 Q281 711 355 711 Q431 711 488 691 Q545 671 583.5 627.5 Q622 584 641 515.5 Q660 447 660 350 Q660 255 640 187 Q620 119 581 75 Q542 31 485 10 Q428 -11 355 -11 Z M355 627 Q261 627 207.5 572.5 Q154 518 147 389 L563 389 Q560 454 544.5 499.5 Q529 545 503 573.5 Q477 602 440 614.5 Q403 627 355 627 Z M355 73 Q403 73 440 85.5 Q477 98 503 126.5 Q529 155 544.5 200.5 Q560 246 563 311 L147 311 Q154 183 208 128 Q262 73 355 73 Z " />
<glyph glyph-name="uni04E9" unicode="&#x4e9;" horiz-adv-x="570" d="M285 -11 Q170 -11 110.5 54 Q51 119 51 263 Q51 403 113 470 Q175 537 285 537 Q402 537 460.5 473.5 Q519 410 519 263 Q519 119 458.5 54 Q398 -11 285 -11 Z M285 70 Q318 70 343.5 78.5 Q369 87 387 106 Q405 125 415 156 Q425 187 428 232 L142 232 Q144 187 154 156 Q164 125 182 106 Q200 87 226 78.5 Q252 70 285 70 Z M285 456 Q223 456 186 420.5 Q149 385 142 301 L427 301 Q421 387 385.5 421.5 Q350 456 285 456 Z " />
<glyph glyph-name="uni1E9E" unicode="&#x1e9e;" horiz-adv-x="675" d="M91 471 Q91 586 153.5 648.5 Q216 711 334 711 Q400 711 462.5 684.5 Q525 658 573 596 L422 411 L422 410 Q481 404 519.5 382.5 Q558 361 580 332.5 Q602 304 610.5 271 Q619 238 619 208 Q619 108 557 48.5 Q495 -11 379 -11 Q347 -11 324.5 -7.5 Q302 -4 283 1 L283 85 Q302 80 322 76 Q342 72 367 72 Q448 72 486 107 Q524 142 524 208 Q524 271 483.5 307 Q443 343 353 343 L324 343 L324 395 L468 578 Q420 628 335 628 Q260 628 221.5 587 Q183 546 183 465 L183 0 L91 0 L91 471 Z " />
<glyph glyph-name="figuredash" unicode="&#x2012;" horiz-adv-x="650" d="M85 394 L565 394 L565 317 L85 317 L85 394 Z " />
<glyph glyph-name="endash" unicode="&#x2013;" horiz-adv-x="650" d="M85 314 L565 314 L565 237 L85 237 L85 314 Z " />
<glyph glyph-name="emdash" unicode="&#x2014;" horiz-adv-x="830" d="M85 314 L745 314 L745 237 L85 237 L85 314 Z " />
<glyph glyph-name="quoteleft" unicode="&#x2018;" horiz-adv-x="320" d="M246.004 657.993 Q202.007 642.994 177.508 613.496 Q153.01 583.998 150.01 554 Q216.006 554 216.006 490.004 Q216.006 426.007 152.01 426.007 Q115.012 426.007 98.513 448.006 Q82.014 470.005 82.014 515.002 Q82.014 550 92.0134 580.998 Q102.013 611.996 119.512 637.495 Q137.011 662.993 160.509 681.992 Q184.008 700.991 211.006 711.99 L246.004 657.993 Z " />
<glyph glyph-name="quoteright" unicode="&#x2019;" horiz-adv-x="320" d="M74 473 Q118 488 142.5 517.5 Q167 547 170 577 Q104 577 104 641 Q104 705 168 705 Q205 705 221.5 683 Q238 661 238 616 Q238 581 228 550 Q218 519 200.5 493.5 Q183 468 159.5 449 Q136 430 109 419 L74 473 Z " />
<glyph glyph-name="quotesinglbase" unicode="&#x201a;" horiz-adv-x="330" d="M71 -110 Q115 -95 139.5 -65.5 Q164 -36 167 -6 Q101 -6 101 58 Q101 122 165 122 Q202 122 218.5 100 Q235 78 235 33 Q235 -2 225 -33 Q215 -64 197.5 -89.5 Q180 -115 156.5 -134 Q133 -153 106 -164 L71 -110 Z " />
<glyph glyph-name="quotedblleft" unicode="&#x201c;" horiz-adv-x="560" d="M252.004 657.993 Q208.007 642.994 183.508 613.496 Q159.01 583.998 156.01 554 Q222.006 554 222.006 490.004 Q222.006 426.007 158.01 426.007 Q121.012 426.007 104.513 448.006 Q88.014 470.005 88.014 515.002 Q88.014 550 98.0134 580.998 Q108.013 611.996 125.512 637.495 Q143.011 662.993 166.509 681.992 Q190.008 700.991 217.006 711.99 L252.004 657.993 Z M479.004 657.993 Q435.007 642.994 410.508 613.496 Q386.01 583.998 383.01 554 Q449.006 554 449.006 490.004 Q449.006 426.007 385.01 426.007 Q348.012 426.007 331.513 448.006 Q315.014 470.005 315.014 515.002 Q315.014 550 325.013 580.998 Q335.013 611.996 352.512 637.495 Q370.011 662.993 393.509 681.992 Q417.008 700.991 444.006 711.99 L479.004 657.993 Z " />
<glyph glyph-name="quotedblright" unicode="&#x201d;" horiz-adv-x="560" d="M81 474 Q125 489 149.5 518.5 Q174 548 177 578 Q111 578 111 642 Q111 706 175 706 Q212 706 228.5 684 Q245 662 245 617 Q245 582 235 551 Q225 520 207.5 494.5 Q190 469 166.5 450 Q143 431 116 420 L81 474 Z M308 473 Q352 488 376.5 517.5 Q401 547 404 577 Q338 577 338 641 Q338 705 402 705 Q439 705 455.5 683 Q472 661 472 616 Q472 581 462 550 Q452 519 434.5 493.5 Q417 468 393.5 449 Q370 430 343 419 L308 473 Z " />
<glyph glyph-name="quotedblbase" unicode="&#x201e;" horiz-adv-x="570" d="M78 -110 Q122 -95 146.5 -65.5 Q171 -36 174 -6 Q108 -6 108 58 Q108 122 172 122 Q209 122 225.5 100 Q242 78 242 33 Q242 -2 232 -33 Q222 -64 204.5 -89.5 Q187 -115 163.5 -134 Q140 -153 113 -164 L78 -110 Z M304 -110 Q348 -95 372.5 -65.5 Q397 -36 400 -6 Q334 -6 334 58 Q334 122 398 122 Q435 122 451.5 100 Q468 78 468 33 Q468 -2 458 -33 Q448 -64 430.5 -89.5 Q413 -115 389.5 -134 Q366 -153 339 -164 L304 -110 Z " />
<glyph glyph-name="dagger" unicode="&#x2020;" horiz-adv-x="500" d="M206 446 L35 446 L35 526 L206 526 L206 700 L294 700 L294 526 L465 526 L465 446 L294 446 L294 0 L206 0 L206 446 Z " />
<glyph glyph-name="daggerdbl" unicode="&#x2021;" horiz-adv-x="500" d="M206 174 L35 174 L35 254 L206 254 L206 446 L35 446 L35 526 L206 526 L206 700 L294 700 L294 526 L465 526 L465 446 L294 446 L294 254 L465 254 L465 174 L294 174 L294 0 L206 0 L206 174 Z " />
<glyph glyph-name="bullet" unicode="&#x2022;" horiz-adv-x="400" d="M200 243 Q151 243 122 272 Q93 301 93 350 Q93 399 122 428 Q151 457 200 457 Q249 457 278 428 Q307 399 307 350 Q307 301 278 272 Q249 243 200 243 Z " />
<glyph glyph-name="ellipsis" unicode="&#x2026;" horiz-adv-x="990" d="M165 -6 Q101 -6 101 58 Q101 122 165 122 Q229 122 229 58 Q229 -6 165 -6 Z M495 -6 Q431 -6 431 58 Q431 122 495 122 Q559 122 559 58 Q559 -6 495 -6 Z M825 -6 Q761 -6 761 58 Q761 122 825 122 Q889 122 889 58 Q889 -6 825 -6 Z " />
<glyph glyph-name="perthousand" unicode="&#x2030;" horiz-adv-x="1260" d="M625 700 L700 700 L235 0 L160 0 L625 700 Z M233 374 Q155 374 112.5 417 Q70 460 70 540 Q70 619 113 662.5 Q156 706 233 706 Q311 706 354 663 Q397 620 397 540 Q397 461 354 417.5 Q311 374 233 374 Z M233 438 Q279 438 303 462.5 Q327 487 327 540 Q327 593 303 617.5 Q279 642 233 642 Q187 642 163.5 617.5 Q140 593 140 540 Q140 487 163.5 462.5 Q187 438 233 438 Z M627 -6 Q549 -6 506 37 Q463 80 463 160 Q463 239 506 282.5 Q549 326 627 326 Q705 326 747.5 283 Q790 240 790 160 Q790 81 747 37.5 Q704 -6 627 -6 Z M627 58 Q672 58 696 82.5 Q720 107 720 160 Q720 213 696 237.5 Q672 262 627 262 Q580 262 556.5 237.5 Q533 213 533 160 Q533 107 556.5 82.5 Q580 58 627 58 Z M1027 -6 Q949 -6 906 37 Q863 80 863 160 Q863 239 906 282.5 Q949 326 1027 326 Q1105 326 1147.5 283 Q1190 240 1190 160 Q1190 81 1147 37.5 Q1104 -6 1027 -6 Z M1027 58 Q1072 58 1096 82.5 Q1120 107 1120 160 Q1120 213 1096 237.5 Q1072 262 1027 262 Q980 262 956.5 237.5 Q933 213 933 160 Q933 107 956.5 82.5 Q980 58 1027 58 Z " />
<glyph glyph-name="guilsinglleft" unicode="&#x2039;" horiz-adv-x="340" d="M183 484 L269 484 L138 277 L269 68 L180 68 L51 275 L183 484 Z " />
<glyph glyph-name="guilsinglright" unicode="&#x203a;" horiz-adv-x="340" d="M202 275 L71 484 L160 484 L289 277 L157 68 L71 68 L202 275 Z " />
<glyph glyph-name="fraction" unicode="&#x2044;" horiz-adv-x="180" d="M285 700 L360 700 L-105 0 L-180 0 L285 700 Z " />
<glyph glyph-name="uni2070" unicode="&#x2070;" horiz-adv-x="450" d="M35 590 Q35 648 48 689.5 Q61 731 85.5 756.5 Q110 782 145 794 Q180 806 224 806 Q321 806 368 756 Q415 706 415 590 Q415 531 402 489.5 Q389 448 364.5 422.5 Q340 397 305 385.5 Q270 374 225 374 Q133 374 84 424.5 Q35 475 35 590 Z M113 590 Q113 505 142.5 470.5 Q172 436 228 436 Q281 436 308.5 470.5 Q336 505 336 590 Q336 675 308 709.5 Q280 744 224 744 Q171 744 142 709.5 Q113 675 113 590 Z " />
<glyph glyph-name="uni2074" unicode="&#x2074;" horiz-adv-x="450" d="M25 533 L274 800 L363 800 L363 536 L420 536 L420 474 L363 474 L363 380 L291 380 L291 474 L25 474 L25 533 Z M291 733 L290 733 L105 536 L291 536 L291 733 Z " />
<glyph glyph-name="uni2075" unicode="&#x2075;" horiz-adv-x="450" d="M86 800 L379 800 L379 737 L142 737 L137 645 Q158 647 181.5 648 Q205 649 237 649 Q318 649 358 616 Q398 583 398 520 Q398 455 353.5 414.5 Q309 374 217 374 Q183 374 144.5 378 Q106 382 72 392 L72 457 Q112 444 143 441 Q174 438 212 438 Q264 438 292 458 Q320 478 320 517 Q320 554 294.5 573 Q269 592 208 592 Q170 592 138.5 590.5 Q107 589 74 587 L86 800 Z " />
<glyph glyph-name="uni2076" unicode="&#x2076;" horiz-adv-x="450" d="M229 374 Q178 374 142.5 389 Q107 404 85 430.5 Q63 457 53.5 494 Q44 531 44 576 Q44 624 54.5 666 Q65 708 89.5 739 Q114 770 153.5 788 Q193 806 252 806 Q279 806 308 803 Q337 800 366 793 L366 729 Q337 738 308 740.5 Q279 743 253 743 Q224 743 199 735.5 Q174 728 155.5 711 Q137 694 125 667 Q113 640 112 602 Q137 622 172 637 Q207 652 250 652 Q284 652 312.5 645 Q341 638 362 622 Q383 606 394.5 581.5 Q406 557 406 521 Q406 450 357.5 412 Q309 374 229 374 Z M115 549 Q116 498 144 465 Q172 432 229 432 Q271 432 300.5 453 Q330 474 330 520 Q330 561 302.5 578 Q275 595 235 595 Q201 595 169.5 582.5 Q138 570 115 549 Z " />
<glyph glyph-name="uni2077" unicode="&#x2077;" horiz-adv-x="450" d="M314 737 L45 737 L45 800 L398 800 L398 750 L204 380 L123 380 L314 737 Z " />
<glyph glyph-name="uni2078" unicode="&#x2078;" horiz-adv-x="450" d="M225 374 Q134 374 86.5 404 Q39 434 39 495 Q39 537 65 564 Q91 591 139 599 Q97 608 74 633.5 Q51 659 51 694 Q51 748 94 777 Q137 806 225 806 Q313 806 356 777 Q399 748 399 694 Q399 659 376 633.5 Q353 608 311 599 Q359 591 385 564 Q411 537 411 495 Q411 434 363.5 404 Q316 374 225 374 Z M225 434 Q258 434 279.5 439.5 Q301 445 313.5 455 Q326 465 331.5 477.5 Q337 490 337 504 Q337 533 312 552 Q287 571 225 571 Q163 571 138 552 Q113 533 113 504 Q113 490 118.5 477.5 Q124 465 136.5 455 Q149 445 170.5 439.5 Q192 434 225 434 Z M225 746 Q166 746 144 729 Q122 712 122 685 Q122 656 147.5 640 Q173 624 225 624 Q277 624 302.5 640 Q328 656 328 685 Q328 712 306 729 Q284 746 225 746 Z " />
<glyph glyph-name="uni2079" unicode="&#x2079;" horiz-adv-x="450" d="M216 806 Q269 806 305 792 Q341 778 363.5 752 Q386 726 396 690 Q406 654 406 610 Q406 561 395.5 518 Q385 475 362 443 Q339 411 302 392.5 Q265 374 211 374 Q169 374 138.5 378 Q108 382 73 390 L73 455 Q107 445 137 441 Q167 437 205 437 Q232 437 255.5 445.5 Q279 454 297 471.5 Q315 489 326 517 Q337 545 338 584 Q315 560 278.5 543.5 Q242 527 198 527 Q167 527 139 534.5 Q111 542 90 558.5 Q69 575 56.5 600.5 Q44 626 44 662 Q44 731 91 768.5 Q138 806 216 806 Z M336 638 Q334 683 305 715 Q276 747 215 747 Q196 747 178.5 742 Q161 737 148 727 Q135 717 127 701.5 Q119 686 119 665 Q119 620 146.5 601.5 Q174 583 213 583 Q251 583 282.5 599.5 Q314 616 336 638 Z " />
<glyph glyph-name="uni2080" unicode="&#x2080;" horiz-adv-x="450" d="M35 111 Q35 169 48 210.5 Q61 252 85.5 277.5 Q110 303 145 315 Q180 327 224 327 Q321 327 368 277 Q415 227 415 111 Q415 52 402 10.5 Q389 -31 364.5 -56.5 Q340 -82 305 -93.5 Q270 -105 225 -105 Q133 -105 84 -54.5 Q35 -4 35 111 Z M113 111 Q113 26 142.5 -8.5 Q172 -43 228 -43 Q281 -43 308.5 -8.5 Q336 26 336 111 Q336 196 308 230.5 Q280 265 224 265 Q171 265 142 230.5 Q113 196 113 111 Z " />
<glyph glyph-name="uni2081" unicode="&#x2081;" horiz-adv-x="450" d="M230 238 L109 174 L79 232 L246 321 L307 321 L307 -99 L230 -99 L230 238 Z " />
<glyph glyph-name="uni2082" unicode="&#x2082;" horiz-adv-x="450" d="M53 -31 L176 53 Q208 75 231 93 Q254 111 269 127.5 Q284 144 291.5 160 Q299 176 299 193 Q299 228 274 245 Q249 262 201 262 Q166 262 132 255.5 Q98 249 72 235 L72 303 Q106 316 140 321.5 Q174 327 212 327 Q290 327 334 297 Q378 267 378 207 Q378 181 368.5 157.5 Q359 134 339.5 111 Q320 88 289.5 64.5 Q259 41 216 14 L146 -33 L146 -34 L383 -34 L383 -99 L53 -99 L53 -31 Z " />
<glyph glyph-name="uni2083" unicode="&#x2083;" horiz-adv-x="450" d="M134 145 L208 145 Q256 145 281.5 159 Q307 173 307 204 Q307 236 282 249.5 Q257 263 203 263 Q168 263 132.5 258.5 Q97 254 72 243 L72 307 Q104 319 145.5 323 Q187 327 225 327 Q309 327 346.5 296.5 Q384 266 384 219 Q384 177 356 155 Q328 133 280 121 L280 119 Q314 114 336 104.5 Q358 95 371 81.5 Q384 68 389.5 52.5 Q395 37 395 21 Q395 -12 380.5 -35.5 Q366 -59 341 -74.5 Q316 -90 282 -97.5 Q248 -105 210 -105 Q177 -105 138.5 -101.5 Q100 -98 65 -85 L65 -19 Q96 -32 131 -36.5 Q166 -41 201 -41 Q264 -41 290 -22.5 Q316 -4 316 24 Q316 60 290.5 75 Q265 90 214 90 L134 90 L134 145 Z " />
<glyph glyph-name="uni2084" unicode="&#x2084;" horiz-adv-x="450" d="M27 54 L276 321 L365 321 L365 57 L422 57 L422 -5 L365 -5 L365 -99 L293 -99 L293 -5 L27 -5 L27 54 Z M293 254 L292 254 L107 57 L293 57 L293 254 Z " />
<glyph glyph-name="uni2085" unicode="&#x2085;" horiz-adv-x="450" d="M86 321 L379 321 L379 258 L142 258 L137 166 Q158 168 181.5 169 Q205 170 237 170 Q318 170 358 137 Q398 104 398 41 Q398 -24 353.5 -64.5 Q309 -105 217 -105 Q183 -105 144.5 -101 Q106 -97 72 -87 L72 -22 Q112 -35 143 -38 Q174 -41 212 -41 Q264 -41 292 -21 Q320 -1 320 38 Q320 75 294.5 94 Q269 113 208 113 Q170 113 138.5 111.5 Q107 110 74 108 L86 321 Z " />
<glyph glyph-name="uni2086" unicode="&#x2086;" horiz-adv-x="450" d="M231 -105 Q180 -105 144.5 -90 Q109 -75 87 -48.5 Q65 -22 55.5 15 Q46 52 46 97 Q46 145 56.5 187 Q67 229 91.5 260 Q116 291 155.5 309 Q195 327 254 327 Q281 327 310 324 Q339 321 368 314 L368 250 Q339 259 310 261.5 Q281 264 255 264 Q226 264 201 256.5 Q176 249 157.5 232 Q139 215 127 188 Q115 161 114 123 Q139 143 174 158 Q209 173 252 173 Q286 173 314.5 166 Q343 159 364 143 Q385 127 396.5 102.5 Q408 78 408 42 Q408 -29 359.5 -67 Q311 -105 231 -105 Z M117 70 Q118 19 146 -14 Q174 -47 231 -47 Q273 -47 302.5 -26 Q332 -5 332 41 Q332 82 304.5 99 Q277 116 237 116 Q203 116 171.5 103.5 Q140 91 117 70 Z " />
<glyph glyph-name="uni2087" unicode="&#x2087;" horiz-adv-x="450" d="M318 258 L49 258 L49 321 L402 321 L402 271 L208 -99 L127 -99 L318 258 Z " />
<glyph glyph-name="uni2088" unicode="&#x2088;" horiz-adv-x="450" d="M225 -105 Q134 -105 86.5 -75 Q39 -45 39 16 Q39 58 65 85 Q91 112 139 120 Q97 129 74 154.5 Q51 180 51 215 Q51 269 94 298 Q137 327 225 327 Q313 327 356 298 Q399 269 399 215 Q399 180 376 154.5 Q353 129 311 120 Q359 112 385 85 Q411 58 411 16 Q411 -45 363.5 -75 Q316 -105 225 -105 Z M225 -45 Q258 -45 279.5 -39.5 Q301 -34 313.5 -24 Q326 -14 331.5 -1.5 Q337 11 337 25 Q337 54 312 73 Q287 92 225 92 Q163 92 138 73 Q113 54 113 25 Q113 11 118.5 -1.5 Q124 -14 136.5 -24 Q149 -34 170.5 -39.5 Q192 -45 225 -45 Z M225 267 Q166 267 144 250 Q122 233 122 206 Q122 177 147.5 161 Q173 145 225 145 Q277 145 302.5 161 Q328 177 328 206 Q328 233 306 250 Q284 267 225 267 Z " />
<glyph glyph-name="uni2089" unicode="&#x2089;" horiz-adv-x="450" d="M217 327 Q270 327 306 313 Q342 299 364.5 273 Q387 247 397 211 Q407 175 407 131 Q407 82 396.5 39 Q386 -4 363 -36 Q340 -68 303 -86.5 Q266 -105 212 -105 Q170 -105 139.5 -101 Q109 -97 74 -89 L74 -24 Q108 -34 138 -38 Q168 -42 206 -42 Q233 -42 256.5 -33.5 Q280 -25 298 -7.5 Q316 10 327 38 Q338 66 339 105 Q316 81 279.5 64.5 Q243 48 199 48 Q168 48 140 55.5 Q112 63 91 79.5 Q70 96 57.5 121.5 Q45 147 45 183 Q45 252 92 289.5 Q139 327 217 327 Z M337 159 Q335 204 306 236 Q277 268 216 268 Q197 268 179.5 263 Q162 258 149 248 Q136 238 128 222.5 Q120 207 120 186 Q120 141 147.5 122.5 Q175 104 214 104 Q252 104 283.5 120.5 Q315 137 337 159 Z " />
<glyph glyph-name="Euro" unicode="&#x20ac;" horiz-adv-x="600" d="M53 466 L121 466 Q143 595 216 653 Q289 711 408 711 Q446 711 474 706.5 Q502 702 521 697 Q542 691 557 684 L534 595 Q508 609 479.5 617 Q451 625 410 625 Q333 625 284 589 Q235 553 218 466 L502 466 L483 394 L210 394 Q209 384 209 374.5 Q209 365 209 355 Q209 341 209 329 Q209 317 210 306 L461 306 L443 234 L220 234 Q239 147 287.5 111 Q336 75 413 75 Q468 75 502.5 88 Q537 101 560 118 L560 22 Q545 12 523 5 Q504 -1 476.5 -6 Q449 -11 412 -11 Q288 -11 215.5 45.5 Q143 102 122 234 L35 234 L53 306 L114 306 Q113 318 113 330 Q113 342 113 355 Q113 365 113 374.5 Q113 384 114 394 L35 394 L53 466 Z " />
<glyph glyph-name="uni20B4" unicode="&#x20b4;" horiz-adv-x="600" d="M84 458 L357 458 Q386 485 400 506.5 Q414 528 414 557 Q414 579 405 593.5 Q396 608 381.5 616.5 Q367 625 349 628 Q331 631 313 631 Q290 631 271 629.5 Q252 628 234 625 Q216 622 197.5 617 Q179 612 157 605 L157 687 Q179 693 203 697.5 Q227 702 249 705 Q271 708 290.5 709.5 Q310 711 324 711 Q384 711 421 698 Q458 685 479 664.5 Q500 644 507 619 Q514 594 514 571 Q514 539 501.5 511.5 Q489 484 467 458 L532 458 L532 387 L397 387 Q386 376 374 366.5 Q362 357 350 346 L320 320 L532 320 L532 249 L247 249 Q231 229 221.5 208 Q212 187 212 163 Q212 122 245 95.5 Q278 69 352 69 Q381 69 422 74 Q463 79 500 96 L500 14 Q455 0 410.5 -5.5 Q366 -11 332 -11 Q268 -11 226 4 Q184 19 158.5 42.5 Q133 66 122.5 95 Q112 124 112 151 Q112 180 119.5 203.5 Q127 227 141 249 L84 249 L84 320 L203 320 Q219 335 237 351 Q255 367 274 384 L277 387 L84 387 L84 458 Z " />
<glyph glyph-name="uni20B8" unicode="&#x20b8;" horiz-adv-x="600" d="M254 491 L45 491 L45 562 L555 562 L555 491 L346 491 L346 0 L254 0 L254 491 Z M45 700 L555 700 L555 629 L45 629 L45 700 Z " />
<glyph glyph-name="uni20BD" unicode="&#x20bd;" horiz-adv-x="600" d="M133 127 L42 127 L42 198 L133 198 L133 262 L42 262 L42 333 L133 333 L133 698 Q138 698 157.5 699.5 Q177 701 204.5 702.5 Q232 704 264.5 705 Q297 706 327 706 Q447 706 501 651.5 Q555 597 555 477 Q555 371 497 316 Q439 261 317 261 L257 261 Q241 261 225 262 L225 198 L421 198 L421 127 L225 127 L225 0 L133 0 L133 127 Z M462 477 Q462 555 430 588.5 Q398 622 325 622 Q307 622 289 621.5 Q271 621 257 620 Q240 619 225 619 L225 333 L315 333 Q390 333 426 368.5 Q462 404 462 477 Z " />
</font>
</svg>
