<svg width="20" height="20" viewBox="0 0 20 20" fill="none" xmlns="http://www.w3.org/2000/svg">
<rect width="20" height="20" fill="white"/>
<path d="M5.03081 1.72652C5.43205 1.32527 6.08599 1.32867 6.49142 1.7341L8.9384 4.18108C9.34383 4.58651 9.34723 5.24045 8.94598 5.64169L8.13958 6.44809C7.59563 7.21353 8.04652 8.62381 9.85504 10.4323C11.6274 12.2046 12.978 12.6012 13.7428 12.0542L14.5507 11.2464C14.9519 10.8451 15.6058 10.8485 16.0113 11.2539L18.4583 13.7009C18.8637 14.1064 18.8671 14.7603 18.4658 15.1615L17.658 15.9694C16.1444 17.4879 14.0911 17.1338 12.2946 16.1864C8.28582 14.0725 5.66556 10.7801 4.85652 9.39822C2.82554 6.21195 2.83527 3.91666 4.22751 2.53896L5.03081 1.72652Z" stroke="#B2B8BF" stroke-width="2"/>
</svg>
