<svg width="20" height="20" viewBox="0 0 20 20" fill="none" xmlns="http://www.w3.org/2000/svg">
<g clip-path="url(#clip0_6_4678)">
<rect width="20" height="20" fill="white"/>
<path d="M11.5874 18.2061C11.4467 18.4486 11.2448 18.65 11.0018 18.7899C10.7588 18.9299 10.4833 19.0035 10.2029 19.0035C9.92246 19.0035 9.64696 18.9299 9.40397 18.7899C9.16098 18.65 8.95902 18.4486 8.81832 18.2061M15.0048 5.80191C15.0058 4.52837 14.4989 3.30698 13.5983 2.40645C12.6978 1.50591 11.4764 1 10.2029 1C8.92932 1 7.70794 1.50591 6.8074 2.40645C5.90687 3.30698 5.40096 4.52837 5.40096 5.80191C5.40096 12 2 15.0048 2 15.0048H18.4057C18.4057 15.0048 15 12 15.0048 5.80191Z" stroke="#B2B8BF" stroke-width="2" stroke-linecap="round" stroke-linejoin="round"/>
</g>
<defs>
<clipPath id="clip0_6_4678">
<rect width="20" height="20" fill="white"/>
</clipPath>
</defs>
</svg>
