<svg width="56" height="36" viewBox="0 0 56 36" fill="none" xmlns="http://www.w3.org/2000/svg">
<g clip-path="url(#clip0_6_4441)">
<path d="M15.4688 31.9609L19.0312 34.6523L18.4766 31.7422L15.4688 31.9609Z" fill="#7B8D9D"/>
<path d="M26.7207 31.2975L31.2863 34.6523L30.7367 30.6396L26.7207 31.2975Z" fill="#47908C"/>
<path d="M3.94727 32.2773L7.50977 34.9688L6.95508 32.0586L3.94727 32.2773Z" fill="#4A505A"/>
<path d="M0.36414 31.7684C0.433877 32.7294 1.26989 33.4516 2.23081 33.381L53.9003 29.5835C54.8599 29.5129 55.581 28.6782 55.5114 27.7185C55.4416 26.7575 54.6056 26.0353 53.6447 26.1059L1.97522 29.9035C1.01556 29.974 0.294493 30.8087 0.36414 31.7684Z" fill="#9FABB6"/>
<path d="M43.002 8.5C43.002 7.67157 43.6735 7 44.502 7H50.502C51.3304 7 52.002 7.67157 52.002 8.5V33.5C52.002 34.3284 51.3304 35 50.502 35H44.502C43.6735 35 43.002 34.3284 43.002 33.5V8.5Z" fill="#107F8C"/>
<path d="M36.0841 30.5012L43.5433 34.6526L42.9886 30.2236L36.0841 30.5012Z" fill="#086773"/>
<path d="M43 8.5C43 7.67157 43.6716 7 44.5 7H44.9922V35H44.5C43.6716 35 43 34.3284 43 33.5V8.5Z" fill="#087480"/>
<path d="M18.4883 22.3887C18.4883 21.5602 19.1599 20.8887 19.9883 20.8887H25.9883C26.8167 20.8887 27.4883 21.5602 27.4883 22.3887V33.5C27.4883 34.3284 26.8167 35 25.9883 35H19.9883C19.1599 35 18.4883 34.3284 18.4883 33.5V22.3887Z" fill="#D0D7DD"/>
<path d="M18.4883 22.3887C18.4883 21.5602 19.1599 20.8887 19.9883 20.8887H20.4805V35H19.9883C19.1599 35 18.4883 34.3284 18.4883 33.5V22.3887Z" fill="#C0CCD7"/>
<path d="M30.7441 16.707C30.7441 15.8786 31.4157 15.207 32.2441 15.207H38.2441C39.0726 15.207 39.7441 15.8786 39.7441 16.707V33.5C39.7441 34.3284 39.0726 35 38.2441 35H32.2441C31.4157 35 30.7441 34.3284 30.7441 33.5V16.707Z" fill="#90D0CC"/>
<path d="M30.7441 16.707C30.7441 15.8786 31.4157 15.207 32.2441 15.207H32.7363V35H32.2441C31.4157 35 30.7441 34.3284 30.7441 33.5V16.707Z" fill="#71BAB6"/>
<path d="M6.9668 26.2471C6.9668 25.4186 7.63837 24.7471 8.4668 24.7471H14.4668C15.2952 24.7471 15.9668 25.4186 15.9668 26.2471V33.8164C15.9668 34.6448 15.2952 35.3164 14.4668 35.3164H8.4668C7.63837 35.3164 6.9668 34.6448 6.9668 33.8164V26.2471Z" fill="#747981"/>
<path d="M6.9668 26.2471C6.9668 25.4186 7.63837 24.7471 8.4668 24.7471H8.95898V35.3164H8.4668C7.63837 35.3164 6.9668 34.6448 6.9668 33.8164V26.2471Z" fill="#686F7A"/>
<path d="M2.13281 20.3298L11.5189 19.948L23.6405 15.9075L35.4122 10.658L47.8201 1.55859" stroke="#D0D7DD" stroke-width="0.646934"/>
<path d="M2.07735 19.0498C1.38738 19.0498 0.828125 19.6091 0.828125 20.299C0.828125 20.989 1.38738 21.5484 2.07735 21.5484C2.76731 21.5484 3.32663 20.989 3.32663 20.299C3.32663 19.6091 2.76731 19.0498 2.07735 19.0498Z" fill="#107F8C"/>
<path d="M3.21778 20.2866C3.21778 19.7425 2.77506 19.2998 2.23092 19.2998C1.68672 19.2998 1.24414 19.7425 1.24414 20.2866C1.24414 20.8307 1.68672 21.2735 2.23092 21.2735C2.77506 21.2735 3.21778 20.8307 3.21778 20.2866Z" fill="#21A19A"/>
<path d="M11.466 18.6396C10.7761 18.6396 10.2168 19.199 10.2168 19.8889C10.2168 20.5788 10.7761 21.1382 11.466 21.1382C12.156 21.1382 12.7153 20.5788 12.7153 19.8889C12.7153 19.199 12.156 18.6396 11.466 18.6396Z" fill="#107F8C"/>
<path d="M12.6065 19.8764C12.6065 19.3323 12.1637 18.8896 11.6196 18.8896C11.0754 18.8896 10.6328 19.3323 10.6328 19.8764C10.6328 20.4206 11.0754 20.8634 11.6196 20.8634C12.1637 20.8634 12.6065 20.4206 12.6065 19.8764Z" fill="#21A19A"/>
<path d="M23.4875 14.7148C22.7975 14.7148 22.2383 15.2742 22.2383 15.9641C22.2383 16.654 22.7975 17.2134 23.4875 17.2134C24.1775 17.2134 24.7368 16.654 24.7368 15.9641C24.7368 15.2742 24.1775 14.7148 23.4875 14.7148Z" fill="#107F8C"/>
<path d="M24.6279 15.9516C24.6279 15.4075 24.1852 14.9648 23.6411 14.9648C23.0969 14.9648 22.6543 15.4075 22.6543 15.9516C22.6543 16.4958 23.0969 16.9386 23.6411 16.9386C24.1852 16.9386 24.6279 16.4958 24.6279 15.9516Z" fill="#21A19A"/>
<path d="M35.2434 9.43457C34.5534 9.43457 33.9941 9.99389 33.9941 10.6838C33.9941 11.3738 34.5534 11.9331 35.2434 11.9331C35.9333 11.9331 36.4926 11.3738 36.4926 10.6838C36.4926 9.99389 35.9333 9.43457 35.2434 9.43457Z" fill="#107F8C"/>
<path d="M36.3838 10.6714C36.3838 10.1272 35.9411 9.68457 35.3969 9.68457C34.8527 9.68457 34.4102 10.1272 34.4102 10.6714C34.4102 11.2155 34.8527 11.6583 35.3969 11.6583C35.9411 11.6583 36.3838 11.2155 36.3838 10.6714Z" fill="#21A19A"/>
<path d="M47.7785 0.399414C47.0886 0.399414 46.5293 0.958729 46.5293 1.64864C46.5293 2.3386 47.0886 2.89797 47.7785 2.89797C48.4685 2.89797 49.0278 2.3386 49.0278 1.64864C49.0278 0.958729 48.4685 0.399414 47.7785 0.399414Z" fill="#107F8C"/>
<path d="M48.919 1.6362C48.919 1.09207 48.4762 0.649414 47.9321 0.649414C47.3879 0.649414 46.9453 1.09207 46.9453 1.6362C46.9453 2.18033 47.3879 2.62313 47.9321 2.62313C48.4762 2.62313 48.919 2.18033 48.919 1.6362Z" fill="#21A19A"/>
</g>
<defs>
<clipPath id="clip0_6_4441">
<rect width="56" height="36" fill="white"/>
</clipPath>
</defs>
</svg>
