<svg width="36" height="36" viewBox="0 0 36 36" fill="none" xmlns="http://www.w3.org/2000/svg">
<path d="M20.1209 18L26.4854 24.3645C26.6287 24.5029 26.743 24.6684 26.8216 24.8514C26.9002 25.0344 26.9416 25.2312 26.9433 25.4304C26.9451 25.6296 26.9071 25.8271 26.8317 26.0114C26.7563 26.1958 26.6449 26.3633 26.504 26.5041C26.3632 26.6449 26.1957 26.7563 26.0114 26.8317C25.827 26.9072 25.6295 26.9451 25.4303 26.9434C25.2312 26.9417 25.0344 26.9003 24.8513 26.8217C24.6683 26.743 24.5028 26.6288 24.3645 26.4855L18 20.121L11.6355 26.4855C11.3525 26.7587 10.9736 26.9099 10.5803 26.9065C10.1871 26.9031 9.81084 26.7454 9.53272 26.4672C9.25461 26.1891 9.09686 25.8129 9.09344 25.4196C9.09002 25.0263 9.24121 24.6474 9.51445 24.3645L15.879 18L9.51445 11.6355C9.24121 11.3526 9.09002 10.9737 9.09344 10.5804C9.09686 10.1871 9.25461 9.8109 9.53272 9.53278C9.81084 9.25467 10.1871 9.09692 10.5803 9.0935C10.9736 9.09008 11.3525 9.24127 11.6355 9.51451L18 15.879L24.3645 9.51451C24.5028 9.37125 24.6683 9.25697 24.8513 9.17836C25.0344 9.09975 25.2312 9.05837 25.4303 9.05664C25.6295 9.05491 25.827 9.09286 26.0114 9.16828C26.1957 9.2437 26.3632 9.35508 26.504 9.49592C26.6449 9.63676 26.7563 9.80424 26.8317 9.98858C26.9071 10.1729 26.9451 10.3704 26.9433 10.5696C26.9416 10.7688 26.9002 10.9656 26.8216 11.1486C26.743 11.3316 26.6287 11.4971 26.4854 11.6355L20.1209 18Z" fill="#565B62"/>
</svg>
