<svg width="56" height="36" viewBox="0 0 56 36" fill="none" xmlns="http://www.w3.org/2000/svg">
<g clip-path="url(#clip0_6_4479)">
<path d="M3.72572 4.96019C2.96491 5.04832 2.24847 5.37678 1.7597 5.86248C1.26985 6.34832 1.02984 6.96893 1.09918 7.56758L4.19289 34.0085C4.26218 34.6068 4.71751 35.2911 5.30543 35.6519C5.89223 36.0125 6.59117 36.0489 7.35199 35.9608L40.541 32.1015C41.3018 32.0133 42.0182 31.6842 42.507 31.199C42.9961 30.7134 43.2364 30.0923 43.1671 29.4941L40.0734 3.05314C40.0041 2.45449 39.6282 1.90523 39.041 1.54414C38.4542 1.18302 37.6816 1.02704 36.9208 1.11516L3.72572 4.96019Z" fill="#0F8491"/>
<path d="M8.06507 5.25958L3.3231 4.46352C2.11319 4.8439 0.901649 5.92577 1.09487 7.38368L1.49068 10.9463C1.41459 10.1532 1.93746 9.34026 2.73058 9.26416L8.39713 8.72049L6.73136 6.93989L8.06507 5.25958Z" fill="#0F8491"/>
<path d="M4.66322 4.0266C3.90241 4.11473 3.18597 4.44319 2.6972 4.92889C2.20735 5.41473 1.96734 6.03534 2.03668 6.63399L5.0618 32.7505C5.13109 33.3488 5.58642 34.0331 6.17434 34.3939C6.76114 34.7545 7.46008 34.7909 8.2209 34.7028L41.4099 30.8435C42.1707 30.7553 42.8871 30.4262 43.3759 29.941C43.865 29.4554 44.1053 28.8343 44.036 28.2361L41.0109 2.11955C40.9416 1.5209 40.5657 0.971636 39.9785 0.610548C39.3917 0.249429 38.6191 0.0934481 37.8583 0.181568L4.66322 4.0266Z" fill="#A8E2DE"/>
<path d="M3.40407 18.2975L41.7694 8.92973L43.8597 28.1464C44.0082 29.5122 43.0267 30.742 41.662 30.9001L7.67189 34.8372C6.28932 34.9974 5.04217 33.9976 4.89774 32.6133L3.40407 18.2975Z" fill="#96D9D5"/>
<path d="M9.15558 28.1011L13.4533 27.6033L12.9813 23.5286L8.68359 24.0264L9.15558 28.1011Z" fill="white"/>
<path d="M8.15993 19.5217L12.4669 19.0228L12.0042 15.0285L7.69727 15.5273L8.15993 19.5217Z" fill="white"/>
<path d="M6.87277 30.7291C6.93632 31.2777 7.43257 31.671 7.98119 31.6074L40.3653 27.8563C40.9139 27.7928 41.3071 27.2965 41.2436 26.7479L39.2476 9.51605C39.184 8.96743 38.6878 8.57421 38.1391 8.63775L5.75508 12.3888C5.20646 12.4524 4.81323 12.9486 4.87678 13.4973L6.87277 30.7291Z" fill="white"/>
<path d="M14.9943 15.0262C15.0494 15.5019 15.4796 15.8428 15.9552 15.7877L36.1511 13.4484C36.6267 13.3933 36.9676 12.9631 36.9125 12.4874C36.8574 12.0118 36.4272 11.6709 35.9515 11.726L15.7557 14.0653C15.2801 14.1204 14.9392 14.5506 14.9943 15.0262Z" fill="#9FABB6"/>
<path d="M15.3029 17.673C15.358 18.1488 15.7884 18.4898 16.2642 18.4347L36.4594 16.0954C36.9352 16.0403 37.2762 15.6099 37.2211 15.1342C37.166 14.6584 36.7356 14.3174 36.2599 14.3725L16.0646 16.7117C15.5888 16.7668 15.2478 17.1972 15.3029 17.673Z" fill="#9FABB6"/>
<path d="M16.0295 23.9006C16.0846 24.3764 16.515 24.7174 16.9908 24.6623L37.186 22.3231C37.6618 22.268 38.0028 21.8376 37.9477 21.3618C37.8926 20.886 37.4622 20.5449 36.9864 20.6L16.7912 22.9393C16.3154 22.9944 15.9744 23.4248 16.0295 23.9006Z" fill="#9FABB6"/>
<path d="M16.3341 26.5469C16.3892 27.0226 16.8195 27.3635 17.2952 27.3084L37.4908 24.9691C37.9665 24.914 38.3075 24.4837 38.2524 24.0081C38.1973 23.5324 37.767 23.1914 37.2913 23.2465L17.0957 25.5858C16.62 25.6409 16.279 26.0712 16.3341 26.5469Z" fill="#9FABB6"/>
<path d="M7.09561 17.6423L12.836 15.0815L13.1053 17.1295C13.2889 18.5254 12.284 19.7976 10.8835 19.9422L9.88288 20.0456C8.59483 20.1786 7.41838 19.3061 7.17177 18.0349L7.09561 17.6423Z" fill="#E1E4E7"/>
<path d="M7.82022 26.5427L13.5606 23.9819L13.8299 26.0299C14.0135 27.4258 13.0086 28.6979 11.6081 28.8426L10.6075 28.946C9.31944 29.079 8.14299 28.2065 7.89638 26.9353L7.82022 26.5427Z" fill="#E1E4E7"/>
<path d="M12.4666 19.0227L8.15963 19.5216L7.69696 15.5273L12.0039 15.0284L12.4666 19.0227ZM7.05335 14.543C6.91504 14.5591 6.78776 14.6301 6.70125 14.7388C6.61569 14.8473 6.57582 14.9883 6.59177 15.126L7.17544 20.165C7.19139 20.3027 7.26242 20.4307 7.37053 20.5168C7.47958 20.6028 7.61976 20.6431 7.75807 20.627L13.1102 20.0071C13.2479 19.9911 13.3761 19.9196 13.4629 19.8111C13.5473 19.7027 13.5884 19.5617 13.5724 19.424L12.9887 14.3851C12.9728 14.2474 12.9005 14.1193 12.7936 14.0331C12.6843 13.9473 12.5432 13.9071 12.4055 13.9231L7.05335 14.543Z" fill="#9FABB6"/>
<path d="M13.4525 27.602L9.15475 28.0998L8.68277 24.0251L12.9805 23.5273L13.4525 27.602ZM8.03375 23.0316C7.8948 23.0477 7.76547 23.1197 7.6788 23.2292C7.59207 23.3387 7.55086 23.4813 7.56693 23.62L8.16105 28.7492C8.17713 28.888 8.24985 29.0174 8.3593 29.1041C8.46871 29.191 8.61107 29.2315 8.75002 29.2154L14.1022 28.5954C14.2405 28.5794 14.3698 28.5075 14.4565 28.3979C14.5439 28.2884 14.5844 28.1459 14.5684 28.0071L13.9742 22.8778C13.9582 22.7391 13.8861 22.6096 13.776 22.523C13.6666 22.4361 13.5242 22.3957 13.3859 22.4117L8.03375 23.0316Z" fill="#9FABB6"/>
<path d="M9.032 8.22644C9.13059 9.07759 9.9004 9.68757 10.752 9.58893C11.6024 9.49042 12.2127 8.72058 12.1141 7.86944C12.0155 7.0186 11.2455 6.40849 10.395 6.50699C9.54341 6.60563 8.93345 7.3756 9.032 8.22644Z" fill="#107F8C"/>
<path d="M4.32692 8.77136C4.42551 9.62251 5.19532 10.2325 6.04601 10.134C6.89766 10.0353 7.50674 9.26561 7.40815 8.41446C7.30959 7.56362 6.54068 6.95337 5.68903 7.05202C4.83834 7.15056 4.22837 7.92052 4.32692 8.77136Z" fill="#107F8C"/>
<circle cx="43.9764" cy="23.9764" r="9.26161" fill="white"/>
<circle cx="43.9766" cy="23.9766" r="12.0234" fill="white"/>
<path d="M43.8799 12.7197C50.0969 12.7197 55.1367 17.7596 55.1367 23.9766C55.1367 30.1935 50.0969 35.2334 43.8799 35.2334C37.6629 35.2334 32.623 30.1935 32.623 23.9766C32.623 17.7596 37.6629 12.7197 43.8799 12.7197Z" fill="#107F8C"/>
<path d="M43.8799 12.7197C47.5512 12.7197 50.8113 14.4777 52.8662 17.1973L32.7627 25.75C32.6713 25.1723 32.623 24.58 32.623 23.9766C32.623 17.7596 37.6629 12.7197 43.8799 12.7197Z" fill="#158C9A"/>
<path d="M5.85547 7.01855C6.3567 7.01855 6.80044 7.25961 7.08105 7.63086L4.33887 8.79785C4.32636 8.7189 4.31836 8.63813 4.31836 8.55566C4.31839 7.70676 5.00656 7.01859 5.85547 7.01855Z" fill="#158C9A"/>
<path d="M10.5663 6.50018C11.0675 6.50018 11.5113 6.74124 11.7919 7.11249L9.04968 8.27948C9.03718 8.20053 9.02917 8.11976 9.02917 8.03729C9.02921 7.18839 9.71738 6.50022 10.5663 6.50018Z" fill="#158C9A"/>
<path d="M38.252 21.7247H49.5088L46.507 18.3477" stroke="white" stroke-width="2" stroke-linecap="round" stroke-linejoin="round"/>
<path d="M49.5078 25.8798H38.251L41.2528 29.2568" stroke="white" stroke-width="2" stroke-linecap="round" stroke-linejoin="round"/>
</g>
<defs>
<clipPath id="clip0_6_4479">
<rect width="56" height="36" fill="white"/>
</clipPath>
</defs>
</svg>
