<svg width="40" height="40" viewBox="0 0 40 40" fill="none" xmlns="http://www.w3.org/2000/svg">
<g clip-path="url(#clip0_6_4801)">
<path fill-rule="evenodd" clip-rule="evenodd" d="M9 33.0006V16.7126L9.322 15.9006L13.095 13.0416C13.171 12.9856 13.508 12.9716 13.571 13.0036L16 14.4206V9.45558L23.25 3.10858C23.3381 3.0327 23.4522 2.99403 23.5683 3.00075C23.6843 3.00747 23.7933 3.05904 23.872 3.14458L28 6.84058C28.056 6.90058 28.056 12.5146 28 23.6836L30 24.9216V33.0006H9ZM27 33.0006H32.01V23.8736L29.016 22.1206V19.1206L34 22.6906V33.0006H37C37.2652 33.0006 37.5196 33.1059 37.7071 33.2935C37.8946 33.481 38 33.7354 38 34.0006C38 34.2658 37.8946 34.5201 37.7071 34.7077C37.5196 34.8952 37.2652 35.0006 37 35.0006H6C5.73478 35.0006 5.48043 34.8952 5.29289 34.7077C5.10536 34.5201 5 34.2658 5 34.0006C5 33.7354 5.10536 33.481 5.29289 33.2935C5.48043 33.1059 5.73478 33.0006 6 33.0006H14V16.0006L16 17.1956V33.0006H23V6.42658L23.671 5.89958L27 8.83758V33.0006Z" fill="#B2B8BF"/>
</g>
<defs>
<clipPath id="clip0_6_4801">
<rect width="40" height="40" fill="white"/>
</clipPath>
</defs>
</svg>
