<svg width="40" height="40" viewBox="0 0 40 40" fill="none" xmlns="http://www.w3.org/2000/svg">
<g clip-path="url(#clip0_6_4809)">
<path d="M21.792 33.11C21.792 33.601 21.416 34 20.952 34C20.488 34 19.208 33.701 19.208 33.21V31.429C19.208 27.496 17.105 25.056 13.396 25.056C9.686 25.056 7.613 27.396 7.613 31.329V33.109C7.613 33.601 6.303 34 5.84 34C5.376 34 5 33.601 5 33.11V31.329C5 26.413 8.758 22.429 13.396 22.429C18.033 22.429 21.792 26.414 21.792 31.329V33.109V33.11ZM22.222 24.573C21.862 24.911 21.09 23.915 20.748 23.559C20.6666 23.4747 20.6028 23.3751 20.5603 23.2659C20.5179 23.1567 20.4976 23.0402 20.5007 22.9231C20.5037 22.806 20.5301 22.6906 20.5782 22.5838C20.6264 22.477 20.6953 22.3809 20.781 22.301C22.4627 20.7259 24.6819 19.8518 26.986 19.857C31.964 19.857 36 23.842 36 28.757V30.538C36 31.03 35.596 31.428 35.099 31.428C34.601 31.428 33.322 31.41 33.322 30.918V29.137C33.322 25.205 30.968 22.301 26.986 22.301C25.112 22.301 23.554 23.325 22.222 24.573ZM14.042 21.143C11.188 21.143 8.875 18.84 8.875 16C8.875 13.16 11.188 10.857 14.042 10.857C16.895 10.857 19.208 13.16 19.208 16C19.208 18.84 16.895 21.143 14.042 21.143ZM14.042 18.571C14.3804 18.5718 14.7157 18.5059 15.0286 18.3771C15.3416 18.2484 15.6261 18.0592 15.866 17.8205C16.1058 17.5817 16.2963 17.2981 16.4265 16.9857C16.5568 16.6734 16.6242 16.3384 16.625 16C16.6242 15.6616 16.5568 15.3266 16.4265 15.0143C16.2963 14.7019 16.1058 14.4183 15.866 14.1795C15.6261 13.9408 15.3416 13.7516 15.0286 13.6229C14.7157 13.4941 14.3804 13.4282 14.042 13.429C13.7035 13.4281 13.3681 13.4939 13.0551 13.6226C12.742 13.7513 12.4573 13.9404 12.2174 14.1792C11.9774 14.4179 11.7868 14.7016 11.6566 15.014C11.5263 15.3265 11.4588 15.6615 11.458 16C11.4588 16.3385 11.5263 16.6735 11.6566 16.986C11.7868 17.2984 11.9774 17.5821 12.2174 17.8208C12.4573 18.0596 12.742 18.2487 13.0551 18.3774C13.3681 18.5061 13.7035 18.5719 14.042 18.571ZM25.667 17.286C22.813 17.286 20.5 14.983 20.5 12.143C20.5 9.303 22.813 7 25.667 7C28.52 7 30.833 9.303 30.833 12.143C30.833 14.983 28.52 17.286 25.667 17.286ZM25.667 14.714C26.0054 14.7148 26.3407 14.6489 26.6536 14.5201C26.9666 14.3914 27.2511 14.2022 27.491 13.9635C27.7308 13.7247 27.9213 13.4411 28.0515 13.1287C28.1818 12.8164 28.2492 12.4814 28.25 12.143C28.2493 11.8045 28.182 11.4694 28.0518 11.157C27.9217 10.8445 27.7312 10.5607 27.4913 10.3219C27.2515 10.083 26.9669 9.8938 26.6539 9.76496C26.3408 9.63612 26.0055 9.57021 25.667 9.571C25.3284 9.57008 24.993 9.63589 24.6798 9.76467C24.3667 9.89345 24.082 10.0827 23.842 10.3215C23.6021 10.5604 23.4115 10.8442 23.2813 11.1567C23.151 11.4693 23.0837 11.8044 23.083 12.143C23.0838 12.4815 23.1513 12.8165 23.2816 13.129C23.4118 13.4414 23.6024 13.7251 23.8424 13.9638C24.0823 14.2026 24.367 14.3917 24.6801 14.5204C24.9931 14.6491 25.3285 14.7149 25.667 14.714Z" fill="#B2B8BF"/>
</g>
<defs>
<clipPath id="clip0_6_4809">
<rect width="40" height="40" fill="white"/>
</clipPath>
</defs>
</svg>
