<svg width="40" height="40" viewBox="0 0 40 40" fill="none" xmlns="http://www.w3.org/2000/svg">
<g clip-path="url(#clip0_6_4772)">
<path d="M8.00024 10.8359V29.9934" stroke="#B2B8BF" stroke-width="2.5" stroke-linecap="round"/>
<path d="M31.0002 16.5859V30.0026" stroke="#B2B8BF" stroke-width="2.5" stroke-linecap="round" stroke-linejoin="round"/>
<path d="M11.833 7H21.4163" stroke="#B2B8BF" stroke-width="2.5" stroke-linecap="round" stroke-linejoin="round"/>
<path d="M11.8342 33.8359H27.1675" stroke="#B2B8BF" stroke-width="2.5" stroke-linecap="round"/>
<path d="M31.0003 30C31.0108 31.9145 29.0837 33.8333 27.167 33.8333" stroke="#B2B8BF" stroke-width="2.5" stroke-linecap="round" stroke-linejoin="round"/>
<path d="M7.99968 30C7.99968 31.9167 9.91634 33.8333 11.833 33.8333" stroke="#B2B8BF" stroke-width="2.5" stroke-linecap="round" stroke-linejoin="round"/>
<path d="M8.0009 10.8359C8.0009 8.92206 9.91757 7.04808 11.8342 7.00539" stroke="#B2B8BF" stroke-width="2.5" stroke-linecap="round" stroke-linejoin="round"/>
<path d="M30.9898 16.5919L21.417 7" stroke="#B2B8BF" stroke-width="2.5" stroke-linecap="round" stroke-linejoin="round"/>
<path d="M21.4167 12.75C21.4226 14.6562 23.3411 16.5833 25.25 16.5833" stroke="#B2B8BF" stroke-width="2.5" stroke-linecap="round" stroke-linejoin="round"/>
<path d="M21.417 12.75V7" stroke="#B2B8BF" stroke-width="2.5" stroke-linecap="round" stroke-linejoin="round"/>
<path d="M25.2502 16.5859H31.0002" stroke="#B2B8BF" stroke-width="2.5" stroke-linecap="round" stroke-linejoin="round"/>
<path d="M12.834 29H18.584" stroke="#B2B8BF" stroke-width="1.91666" stroke-linecap="round" stroke-linejoin="round"/>
<path d="M12.8342 25.1641H22.4175" stroke="#B2B8BF" stroke-width="1.91666" stroke-linecap="round" stroke-linejoin="round"/>
<path d="M12.8342 21.3359H18.5842" stroke="#B2B8BF" stroke-width="1.91666" stroke-linecap="round" stroke-linejoin="round"/>
</g>
<defs>
<clipPath id="clip0_6_4772">
<rect width="40" height="40" fill="white"/>
</clipPath>
</defs>
</svg>
