<svg width="40" height="40" viewBox="0 0 40 40" fill="none" xmlns="http://www.w3.org/2000/svg">
<path fill-rule="evenodd" clip-rule="evenodd" d="M32.6225 6.37747C33.1258 6.88076 33.1258 7.69675 32.6225 8.20004L8.20004 32.6225C7.69675 33.1258 6.88076 33.1258 6.37747 32.6225C5.87418 32.1192 5.87418 31.3032 6.37747 30.8L30.8 6.37747C31.3032 5.87418 32.1192 5.87418 32.6225 6.37747Z" fill="#B2B8BF"/>
<path fill-rule="evenodd" clip-rule="evenodd" d="M11.5 14.25C13.0188 14.25 14.25 13.0188 14.25 11.5C14.25 9.98122 13.0188 8.75 11.5 8.75C9.98122 8.75 8.75 9.98122 8.75 11.5C8.75 13.0188 9.98122 14.25 11.5 14.25ZM11.5 17C14.5376 17 17 14.5376 17 11.5C17 8.46243 14.5376 6 11.5 6C8.46243 6 6 8.46243 6 11.5C6 14.5376 8.46243 17 11.5 17Z" fill="#B2B8BF"/>
<path fill-rule="evenodd" clip-rule="evenodd" d="M27.5 30.25C29.0188 30.25 30.25 29.0188 30.25 27.5C30.25 25.9812 29.0188 24.75 27.5 24.75C25.9812 24.75 24.75 25.9812 24.75 27.5C24.75 29.0188 25.9812 30.25 27.5 30.25ZM27.5 33C30.5376 33 33 30.5376 33 27.5C33 24.4624 30.5376 22 27.5 22C24.4624 22 22 24.4624 22 27.5C22 30.5376 24.4624 33 27.5 33Z" fill="#B2B8BF"/>
</svg>
