<svg width="40" height="40" viewBox="0 0 40 40" fill="none" xmlns="http://www.w3.org/2000/svg">
<g clip-path="url(#clip0_6_4793)">
<path d="M27 22.764C27.4317 22.3779 27.9658 22.125 28.5381 22.0358C29.1103 21.9466 29.6961 22.0249 30.2248 22.2614C30.7535 22.4978 31.2024 22.8822 31.5174 23.3681C31.8324 23.8541 32.0001 24.4209 32.0001 25C32.0001 25.5791 31.8324 26.1459 31.5174 26.6319C31.2024 27.1178 30.7535 27.5022 30.2248 27.7386C29.6961 27.9751 29.1103 28.0534 28.5381 27.9642C27.9658 27.875 27.4317 27.6221 27 27.236C26.5683 27.6221 26.0342 27.875 25.4619 27.9642C24.8897 28.0534 24.3039 27.9751 23.7752 27.7386C23.2465 27.5022 22.7976 27.1178 22.4826 26.6319C22.1676 26.1459 21.9999 25.5791 21.9999 25C21.9999 24.4209 22.1676 23.8541 22.4826 23.3681C22.7976 22.8822 23.2465 22.4978 23.7752 22.2614C24.3039 22.0249 24.8897 21.9466 25.4619 22.0358C26.0342 22.125 26.5683 22.3779 27 22.764ZM7 19V29C7 29.2652 7.10536 29.5196 7.29289 29.7071C7.48043 29.8946 7.73478 30 8 30H33C33.2652 30 33.5196 29.8946 33.7071 29.7071C33.8946 29.5196 34 29.2652 34 29V19H7ZM7 15H34V13C34 12.7348 33.8946 12.4804 33.7071 12.2929C33.5196 12.1054 33.2652 12 33 12H8C7.73478 12 7.48043 12.1054 7.29289 12.2929C7.10536 12.4804 7 12.7348 7 13V15ZM36 13V29C36 29.7956 35.6839 30.5587 35.1213 31.1213C34.5587 31.6839 33.7956 32 33 32H8C7.20435 32 6.44129 31.6839 5.87868 31.1213C5.31607 30.5587 5 29.7956 5 29V13C5 12.2044 5.31607 11.4413 5.87868 10.8787C6.44129 10.3161 7.20435 10 8 10H33C33.7956 10 34.5587 10.3161 35.1213 10.8787C35.6839 11.4413 36 12.2044 36 13ZM25 24C24.7348 24 24.4804 24.1054 24.2929 24.2929C24.1054 24.4804 24 24.7348 24 25C24 25.2652 24.1054 25.5196 24.2929 25.7071C24.4804 25.8946 24.7348 26 25 26C25.2652 26 25.5196 25.8946 25.7071 25.7071C25.8946 25.5196 26 25.2652 26 25C26 24.7348 25.8946 24.4804 25.7071 24.2929C25.5196 24.1054 25.2652 24 25 24ZM29 24C28.7348 24 28.4804 24.1054 28.2929 24.2929C28.1054 24.4804 28 24.7348 28 25C28 25.2652 28.1054 25.5196 28.2929 25.7071C28.4804 25.8946 28.7348 26 29 26C29.2652 26 29.5196 25.8946 29.7071 25.7071C29.8946 25.5196 30 25.2652 30 25C30 24.7348 29.8946 24.4804 29.7071 24.2929C29.5196 24.1054 29.2652 24 29 24Z" fill="#B2B8BF"/>
</g>
<defs>
<clipPath id="clip0_6_4793">
<rect width="40" height="40" fill="white"/>
</clipPath>
</defs>
</svg>
